%FSTAX23Y23*%
%MOIN*%
%SFA1B1*%

%IPPOS*%
%ADD10C,0.010000*%
%ADD11C,0.007870*%
%ADD12C,0.009840*%
%ADD14C,0.003940*%
%ADD86C,0.001970*%
%LNmotor_unit_rev_3-1*%
%LPD*%
G54D10*
X0187Y01724D02*
X0188Y01734D01*
X019*
X0191Y01724*
Y01685*
X019Y01675*
X0188*
X0187Y01685*
X0185Y01675D02*
X0183D01*
X0184*
Y01734*
X0185Y01724*
X018D02*
X0179Y01734D01*
X0177*
X0176Y01724*
Y01714*
X0177Y01704*
X0178*
X0177*
X0176Y01694*
Y01685*
X0177Y01675*
X0179*
X018Y01685*
X01089Y01979D02*
Y01984D01*
X01101Y01996*
X01113Y01984*
Y01979*
X01101Y01996D02*
Y02014D01*
X01124D02*
X01136D01*
X0113*
Y01979*
X01124Y01984*
X00851Y01394D02*
X00857Y01399D01*
X00869*
X00875Y01394*
Y0137*
X00869Y01365*
X00857*
X00851Y0137*
X0084Y01365D02*
X00828D01*
X00834*
Y01399*
X0084Y01394*
X00787Y01365D02*
X0081D01*
X00787Y01388*
Y01394*
X00793Y01399*
X00805*
X0081Y01394*
X0148Y0226D02*
Y02231D01*
X01474Y02226*
X01462*
X01456Y02231*
Y0226*
X01421Y02226D02*
X01445D01*
X01421Y02249*
Y02255*
X01427Y0226*
X01439*
X01445Y02255*
X01737Y0076D02*
Y00794D01*
X01719*
X01714Y00789*
Y00777*
X01719Y00771*
X01737*
X01725D02*
X01714Y0076D01*
X01679D02*
X01702D01*
X01679Y00783*
Y00789*
X01684Y00794*
X01696*
X01702Y00789*
X01644Y00794D02*
X01655Y00789D01*
X01667Y00777*
Y00765*
X01661Y0076*
X01649*
X01644Y00765*
Y00771*
X01649Y00777*
X01667*
X01735Y0086D02*
Y00894D01*
X01717*
X01711Y00889*
Y00877*
X01717Y00871*
X01735*
X01723D02*
X01711Y0086D01*
X01676D02*
X017D01*
X01676Y00883*
Y00889*
X01682Y00894*
X01694*
X017Y00889*
X01641Y00894D02*
X01665D01*
Y00877*
X01653Y00883*
X01647*
X01641Y00877*
Y00865*
X01647Y0086*
X01659*
X01665Y00865*
X00315Y00547D02*
X00349D01*
Y00564*
X00344Y0057*
X00332*
X00326Y00564*
Y00547*
Y00559D02*
X00315Y0057D01*
Y00605D02*
Y00582D01*
X00338Y00605*
X00344*
X00349Y00599*
Y00588*
X00344Y00582*
Y00617D02*
X00349Y00623D01*
Y00634*
X00344Y0064*
X00338*
X00332Y00634*
Y00629*
Y00634*
X00326Y0064*
X0032*
X00315Y00634*
Y00623*
X0032Y00617*
X0047Y00545D02*
X00504D01*
Y00562*
X00499Y00568*
X00487*
X00481Y00562*
Y00545*
Y00556D02*
X0047Y00568D01*
Y00603D02*
Y00579D01*
X00493Y00603*
X00499*
X00504Y00597*
Y00585*
X00499Y00579*
X0047Y00638D02*
Y00614D01*
X00493Y00638*
X00499*
X00504Y00632*
Y0062*
X00499Y00614*
X0173Y0107D02*
X01695D01*
Y01052*
X017Y01046*
X01712*
X01718Y01052*
Y0107*
Y01058D02*
X0173Y01046D01*
Y01011D02*
Y01035D01*
X01706Y01011*
X017*
X01695Y01017*
Y01029*
X017Y01035*
X0173Y01D02*
Y00988D01*
Y00994*
X01695*
X017Y01*
X01035Y01015D02*
Y0098D01*
X01052*
X01058Y00985*
Y00997*
X01052Y01003*
X01035*
X01046D02*
X01058Y01015D01*
X01093D02*
X01069D01*
X01093Y00991*
Y00985*
X01087Y0098*
X01075*
X01069Y00985*
X01104D02*
X0111Y0098D01*
X01122*
X01128Y00985*
Y01009*
X01122Y01015*
X0111*
X01104Y01009*
Y00985*
X01655Y00475D02*
X0162D01*
Y00457*
X01625Y00451*
X01637*
X01643Y00457*
Y00475*
Y00463D02*
X01655Y00451D01*
Y0044D02*
Y00428D01*
Y00434*
X0162*
X01625Y0044*
X01649Y0041D02*
X01655Y00405D01*
Y00393*
X01649Y00387*
X01625*
X0162Y00393*
Y00405*
X01625Y0041*
X01631*
X01637Y00405*
Y00387*
X00285Y00805D02*
Y00839D01*
X00267*
X00261Y00834*
Y00822*
X00267Y00816*
X00285*
X00273D02*
X00261Y00805D01*
X0025D02*
X00238D01*
X00244*
Y00839*
X0025Y00834*
X00197Y00839D02*
X00209Y00834D01*
X0022Y00822*
Y0081*
X00215Y00805*
X00203*
X00197Y0081*
Y00816*
X00203Y00822*
X0022*
X01957Y01043D02*
Y01077D01*
X01939*
X01933Y01072*
Y0106*
X01939Y01054*
X01957*
X01945D02*
X01933Y01043D01*
X01922D02*
X0191D01*
X01916*
Y01077*
X01922Y01072*
X01869Y01077D02*
X01892D01*
Y0106*
X01881Y01066*
X01875*
X01869Y0106*
Y01048*
X01875Y01043*
X01887*
X01892Y01048*
X0028Y00685D02*
Y00719D01*
X00262*
X00256Y00714*
Y00702*
X00262Y00696*
X0028*
X00268D02*
X00256Y00685D01*
X00245D02*
X00233D01*
X00239*
Y00719*
X00245Y00714*
X00198Y00685D02*
Y00719D01*
X00215Y00702*
X00192*
X00285Y00545D02*
Y00579D01*
X00267*
X00261Y00574*
Y00562*
X00267Y00556*
X00285*
X00273D02*
X00261Y00545D01*
X0025D02*
X00238D01*
X00244*
Y00579*
X0025Y00574*
X0022D02*
X00215Y00579D01*
X00203*
X00197Y00574*
Y00568*
X00203Y00562*
X00209*
X00203*
X00197Y00556*
Y0055*
X00203Y00545*
X00215*
X0022Y0055*
X01565Y00085D02*
Y00119D01*
X01547*
X01541Y00114*
Y00102*
X01547Y00096*
X01565*
X01553D02*
X01541Y00085D01*
X0153D02*
X01518D01*
X01524*
Y00119*
X0153Y00114*
X01477Y00085D02*
X015D01*
X01477Y00108*
Y00114*
X01483Y00119*
X01495*
X015Y00114*
X01685Y0271D02*
X0165D01*
Y02692*
X01655Y02686*
X01667*
X01673Y02692*
Y0271*
Y02698D02*
X01685Y02686D01*
Y02675D02*
Y02663D01*
Y02669*
X0165*
X01655Y02675*
X01685Y02645D02*
Y02634D01*
Y0264*
X0165*
X01655Y02645*
X00285Y00415D02*
Y00449D01*
X00267*
X00261Y00444*
Y00432*
X00267Y00426*
X00285*
X00273D02*
X00261Y00415D01*
X0025D02*
X00238D01*
X00244*
Y00449*
X0025Y00444*
X0022D02*
X00215Y00449D01*
X00203*
X00197Y00444*
Y0042*
X00203Y00415*
X00215*
X0022Y0042*
Y00444*
X01405Y0039D02*
Y00424D01*
X01387*
X01381Y00419*
Y00407*
X01387Y00401*
X01405*
X01393D02*
X01381Y0039D01*
X0137Y00419D02*
X01364Y00424D01*
X01352*
X01346Y00419*
Y00413*
X01352Y00407*
X01346Y00401*
Y00395*
X01352Y0039*
X01364*
X0137Y00395*
Y00401*
X01364Y00407*
X0137Y00413*
Y00419*
X01364Y00407D02*
X01352D01*
X0081Y00375D02*
Y0034D01*
X00827*
X00833Y00345*
Y00357*
X00827Y00363*
X0081*
X00821D02*
X00833Y00375D01*
X00862D02*
Y0034D01*
X00844Y00357*
X00868*
X00925Y0048D02*
X00959D01*
Y00497*
X00954Y00503*
X00942*
X00936Y00497*
Y0048*
Y00491D02*
X00925Y00503D01*
X00954Y00514D02*
X00959Y0052D01*
Y00532*
X00954Y00538*
X00948*
X00942Y00532*
Y00526*
Y00532*
X00936Y00538*
X0093*
X00925Y00532*
Y0052*
X0093Y00514*
X00925Y0056D02*
X00959D01*
Y00577*
X00954Y00583*
X00942*
X00936Y00577*
Y0056*
Y00571D02*
X00925Y00583D01*
Y00618D02*
Y00594D01*
X00948Y00618*
X00954*
X00959Y00612*
Y006*
X00954Y00594*
X00925Y00655D02*
X00959D01*
Y00672*
X00954Y00678*
X00942*
X00936Y00672*
Y00655*
Y00666D02*
X00925Y00678D01*
Y00689D02*
Y00701D01*
Y00695*
X00959*
X00954Y00689*
X00394Y02633D02*
Y0261D01*
X00377*
Y02621*
Y0261*
X0036*
Y02644D02*
Y02656D01*
Y0265*
X00394*
X00389Y02644*
X01934Y01453D02*
Y01419D01*
X01916*
X0191Y01424*
Y01448*
X01916Y01453*
X01934*
X01899Y01419D02*
X01887D01*
X01893*
Y01453*
X01899Y01448*
X01476Y01734D02*
X01482Y01739D01*
X01493*
X01499Y01734*
Y0171*
X01493Y01705*
X01482*
X01476Y0171*
X01464Y01705D02*
X01452D01*
X01458*
Y01739*
X01464Y01734*
X01435Y01705D02*
X01423D01*
X01429*
Y01739*
X01435Y01734*
X01166Y01733D02*
X01172Y01739D01*
X01183*
X01189Y01733*
Y0171*
X01183Y01704*
X01172*
X01166Y0171*
X01154Y01704D02*
X01143D01*
X01148*
Y01739*
X01154Y01733*
X01125D02*
X01119Y01739D01*
X01108*
X01102Y01733*
Y0171*
X01108Y01704*
X01119*
X01125Y0171*
Y01733*
X00791Y01734D02*
X00797Y01739D01*
X00809*
X00815Y01734*
Y0171*
X00809Y01705*
X00797*
X00791Y0171*
X0078D02*
X00774Y01705D01*
X00762*
X00756Y0171*
Y01734*
X00762Y01739*
X00774*
X0078Y01734*
Y01728*
X00774Y01722*
X00756*
X01526Y00368D02*
X01532Y00374D01*
X01544*
X0155Y00368*
Y00345*
X01544Y00339*
X01532*
X01526Y00345*
X01515Y00368D02*
X01509Y00374D01*
X01497*
X01491Y00368*
Y00362*
X01497Y00356*
X01491Y00351*
Y00345*
X01497Y00339*
X01509*
X01515Y00345*
Y00351*
X01509Y00356*
X01515Y00362*
Y00368*
X01509Y00356D02*
X01497D01*
X0153Y01955D02*
X01525Y01961D01*
Y01973*
X0153Y01979*
X01554*
X0156Y01973*
Y01961*
X01554Y01955*
X01525Y01944D02*
Y0192D01*
X0153*
X01554Y01944*
X0156*
X01321Y02454D02*
X01327Y02459D01*
X01339*
X01345Y02454*
Y0243*
X01339Y02425*
X01327*
X01321Y0243*
X01286Y02459D02*
X01298Y02454D01*
X0131Y02442*
Y0243*
X01304Y02425*
X01292*
X01286Y0243*
Y02436*
X01292Y02442*
X0131*
X00934Y00088D02*
X00939Y00082D01*
Y0007*
X00934Y00065*
X0091*
X00905Y0007*
Y00082*
X0091Y00088*
X00939Y00123D02*
Y00099D01*
X00922*
X00928Y00111*
Y00117*
X00922Y00123*
X0091*
X00905Y00117*
Y00105*
X0091Y00099*
X00712Y01184D02*
X00717Y01189D01*
X00729*
X00735Y01184*
Y0116*
X00729Y01155*
X00717*
X00712Y0116*
X00682Y01155D02*
Y01189D01*
X007Y01172*
X00677*
X00711Y01084D02*
X00717Y01089D01*
X00729*
X00735Y01084*
Y0106*
X00729Y01055*
X00717*
X00711Y0106*
X007Y01084D02*
X00694Y01089D01*
X00682*
X00676Y01084*
Y01078*
X00682Y01072*
X00688*
X00682*
X00676Y01066*
Y0106*
X00682Y01055*
X00694*
X007Y0106*
X00711Y00984D02*
X00717Y00989D01*
X00729*
X00735Y00984*
Y0096*
X00729Y00955*
X00717*
X00711Y0096*
X00676Y00955D02*
X007D01*
X00676Y00978*
Y00984*
X00682Y00989*
X00694*
X007Y00984*
X00711Y00889D02*
X00717Y00894D01*
X00729*
X00735Y00889*
Y00865*
X00729Y0086*
X00717*
X00711Y00865*
X007Y0086D02*
X00688D01*
X00694*
Y00894*
X007Y00889*
G54D11*
X01166Y02432D02*
D01*
X01166Y02432*
X01166Y02432*
X01166Y02432*
X01166Y02433*
X01166Y02433*
X01166Y02433*
X01166Y02434*
X01165Y02434*
X01165Y02434*
X01165Y02434*
X01165Y02434*
X01165Y02435*
X01164Y02435*
X01164Y02435*
X01164Y02435*
X01164Y02435*
X01164Y02435*
X01163Y02435*
X01163Y02435*
X01163Y02436*
X01162Y02436*
X01162Y02436*
X01162*
X01162Y02436*
X01161Y02436*
X01161Y02435*
X01161Y02435*
X01161Y02435*
X0116Y02435*
X0116Y02435*
X0116Y02435*
X0116Y02435*
X01159Y02435*
X01159Y02434*
X01159Y02434*
X01159Y02434*
X01159Y02434*
X01159Y02434*
X01158Y02433*
X01158Y02433*
X01158Y02433*
X01158Y02432*
X01158Y02432*
X01158Y02432*
X01158Y02432*
X01158Y02431*
X01158Y02431*
X01158Y02431*
X01158Y02431*
X01158Y0243*
X01158Y0243*
X01159Y0243*
X01159Y0243*
X01159Y02429*
X01159Y02429*
X01159Y02429*
X01159Y02429*
X0116Y02429*
X0116Y02428*
X0116Y02428*
X0116Y02428*
X01161Y02428*
X01161Y02428*
X01161Y02428*
X01161Y02428*
X01162Y02428*
X01162Y02428*
X01162*
X01162Y02428*
X01163Y02428*
X01163Y02428*
X01163Y02428*
X01164Y02428*
X01164Y02428*
X01164Y02428*
X01164Y02428*
X01164Y02429*
X01165Y02429*
X01165Y02429*
X01165Y02429*
X01165Y02429*
X01165Y0243*
X01166Y0243*
X01166Y0243*
X01166Y0243*
X01166Y02431*
X01166Y02431*
X01166Y02431*
X01166Y02431*
X01166Y02432*
X0185Y01588D02*
Y01591D01*
X01899Y01588D02*
Y01591D01*
X01828Y00818D02*
X01831D01*
X01828Y00771D02*
X01831D01*
X01828Y00913D02*
X01831D01*
X01828Y00866D02*
X01831D01*
X01283Y02379D02*
X01286D01*
X01283Y0233D02*
X01286D01*
X01678Y02483D02*
Y02486D01*
X01631Y02483D02*
Y02486D01*
X01601Y01008D02*
Y01011D01*
X01648Y01008D02*
Y01011D01*
X01779Y01345D02*
X01788D01*
X01779Y01164D02*
X01788D01*
X01927Y01345D02*
X01936D01*
X01927Y01164D02*
X01936D01*
X01779D02*
Y01345D01*
X01936Y01164D02*
Y01345D01*
X00331Y02561D02*
Y02608D01*
X00268Y02561D02*
Y02608D01*
X01498Y00426D02*
X01501D01*
X01498Y00473D02*
X01501D01*
X00813Y0127D02*
X00816D01*
X00813Y01319D02*
X00816D01*
X01424Y01603D02*
Y01606D01*
X01375Y01603D02*
Y01606D01*
X01094Y01603D02*
Y01606D01*
X01045Y01603D02*
Y01606D01*
X00769Y01603D02*
Y01606D01*
X0072Y01603D02*
Y01606D01*
X01554Y02077D02*
Y02081D01*
X01505Y02077D02*
Y02081D01*
X00995Y00113D02*
Y00116D01*
X01044Y00113D02*
Y00116D01*
X01455Y00238D02*
Y00241D01*
X01504Y00238D02*
Y00241D01*
X01298Y01013D02*
X01301D01*
X01298Y00966D02*
X01301D01*
X01282Y02176D02*
X01407D01*
X01282Y01983D02*
Y02176D01*
Y01983D02*
X01407D01*
Y02176*
X00608Y00608D02*
Y00611D01*
X00561Y00608D02*
Y00611D01*
X00443Y00603D02*
Y00606D01*
X00396Y00603D02*
Y00606D01*
X01321Y00288D02*
Y00291D01*
X01368Y00288D02*
Y00291D01*
X01895Y00998D02*
X01899D01*
X01895Y00951D02*
X01899D01*
X00838Y00651D02*
X00841D01*
X00838Y00698D02*
X00841D01*
X00838Y00566D02*
X00841D01*
X00838Y00613D02*
X00841D01*
X00838Y00486D02*
X00841D01*
X00838Y00533D02*
X00841D01*
X00838Y00401D02*
X00841D01*
X00838Y00448D02*
X00841D01*
X01648Y00091D02*
X01651D01*
X01648Y00138D02*
X01651D01*
X00094Y00466D02*
X00098D01*
X00094Y00419D02*
X00098D01*
X00094Y00596D02*
X00098D01*
X00094Y00549D02*
X00098D01*
X00089Y00733D02*
X00093D01*
X00089Y00686D02*
X00093D01*
X00089Y00861D02*
X00093D01*
X00089Y00814D02*
X00093D01*
X00813Y01219D02*
X00816D01*
X00813Y0117D02*
X00816D01*
X00813Y01119D02*
X00816D01*
X00813Y0107D02*
X00816D01*
X00813Y01019D02*
X00816D01*
X00813Y0097D02*
X00816D01*
X00813Y00919D02*
X00816D01*
X00813Y0087D02*
X00816D01*
G54D12*
X01938Y01135D02*
D01*
X01938Y01135*
X01938Y01136*
X01938Y01136*
X01938Y01136*
X01938Y01137*
X01938Y01137*
X01938Y01137*
X01937Y01137*
X01937Y01138*
X01937Y01138*
X01937Y01138*
X01937Y01138*
X01936Y01139*
X01936Y01139*
X01936Y01139*
X01935Y01139*
X01935Y01139*
X01935Y0114*
X01935Y0114*
X01934Y0114*
X01934Y0114*
X01933Y0114*
X01933*
X01933Y0114*
X01932Y0114*
X01932Y0114*
X01932Y0114*
X01931Y01139*
X01931Y01139*
X01931Y01139*
X01931Y01139*
X0193Y01139*
X0193Y01138*
X0193Y01138*
X0193Y01138*
X01929Y01138*
X01929Y01137*
X01929Y01137*
X01929Y01137*
X01929Y01137*
X01929Y01136*
X01929Y01136*
X01928Y01136*
X01928Y01135*
X01928Y01135*
X01928Y01134*
X01928Y01134*
X01929Y01134*
X01929Y01133*
X01929Y01133*
X01929Y01133*
X01929Y01133*
X01929Y01132*
X01929Y01132*
X0193Y01132*
X0193Y01131*
X0193Y01131*
X0193Y01131*
X01931Y01131*
X01931Y01131*
X01931Y0113*
X01931Y0113*
X01932Y0113*
X01932Y0113*
X01932Y0113*
X01933Y0113*
X01933Y0113*
X01933*
X01934Y0113*
X01934Y0113*
X01935Y0113*
X01935Y0113*
X01935Y0113*
X01935Y0113*
X01936Y01131*
X01936Y01131*
X01936Y01131*
X01937Y01131*
X01937Y01131*
X01937Y01132*
X01937Y01132*
X01937Y01132*
X01938Y01133*
X01938Y01133*
X01938Y01133*
X01938Y01133*
X01938Y01134*
X01938Y01134*
X01938Y01134*
X01938Y01135*
G54D14*
X00946Y02461D02*
X01142D01*
X00946Y02048D02*
X01142D01*
G54D86*
X0148Y02185D02*
D01*
X0148Y02185*
X0148Y02185*
X0148Y02186*
X0148Y02186*
X0148Y02186*
X0148Y02187*
X01479Y02187*
X01479Y02187*
X01479Y02188*
X01479Y02188*
X01479Y02188*
X01478Y02189*
X01478Y02189*
X01478Y02189*
X01477Y02189*
X01477Y0219*
X01477Y0219*
X01476Y0219*
X01476Y0219*
X01475Y0219*
X01475Y0219*
X01475Y0219*
X01474*
X01474Y0219*
X01474Y0219*
X01473Y0219*
X01473Y0219*
X01472Y0219*
X01472Y0219*
X01472Y02189*
X01471Y02189*
X01471Y02189*
X01471Y02189*
X0147Y02188*
X0147Y02188*
X0147Y02188*
X0147Y02187*
X0147Y02187*
X01469Y02187*
X01469Y02186*
X01469Y02186*
X01469Y02186*
X01469Y02185*
X01469Y02185*
X01469Y02185*
X01469Y02184*
X01469Y02184*
X01469Y02183*
X01469Y02183*
X01469Y02183*
X01469Y02182*
X0147Y02182*
X0147Y02182*
X0147Y02181*
X0147Y02181*
X0147Y02181*
X01471Y0218*
X01471Y0218*
X01471Y0218*
X01472Y0218*
X01472Y02179*
X01472Y02179*
X01473Y02179*
X01473Y02179*
X01474Y02179*
X01474Y02179*
X01474Y02179*
X01475*
X01475Y02179*
X01475Y02179*
X01476Y02179*
X01476Y02179*
X01477Y02179*
X01477Y02179*
X01477Y0218*
X01478Y0218*
X01478Y0218*
X01478Y0218*
X01479Y02181*
X01479Y02181*
X01479Y02181*
X01479Y02182*
X01479Y02182*
X0148Y02182*
X0148Y02183*
X0148Y02183*
X0148Y02183*
X0148Y02184*
X0148Y02184*
X0148Y02185*
M02*