%FSTAX23Y23*%
%MOIN*%
%SFA1B1*%

%IPPOS*%
%AMD21*
4,1,4,-0.025700,0.017400,0.017400,-0.025700,0.025700,-0.017400,-0.017400,0.025700,-0.025700,0.017400,0.0*
%
%AMD22*
4,1,4,0.017400,0.025700,-0.025700,-0.017400,-0.017400,-0.025700,0.025700,0.017400,0.017400,0.025700,0.0*
%
%ADD16R,0.041340X0.055120*%
%ADD17R,0.055120X0.041340*%
%ADD18R,0.059060X0.035430*%
%ADD19R,0.050000X0.029920*%
%ADD20R,0.047240X0.047240*%
G04~CAMADD=21~9~0.0~0.0~610.2~118.1~0.0~0.0~0~0.0~0.0~0.0~0.0~0~0.0~0.0~0.0~0.0~0~0.0~0.0~0.0~135.0~514.0~513.0*
%ADD21D21*%
G04~CAMADD=22~9~0.0~0.0~610.2~118.1~0.0~0.0~0~0.0~0.0~0.0~0.0~0~0.0~0.0~0.0~0.0~0~0.0~0.0~0.0~45.0~514.0~513.0*
%ADD22D22*%
%ADD23R,0.043310X0.047240*%
%ADD24R,0.043310X0.049210*%
%ADD25R,0.047240X0.047240*%
%ADD57R,0.040000X0.040000*%
%ADD58C,0.040000*%
%ADD59C,0.060000*%
%ADD60O,0.089000X0.060000*%
%ADD61C,0.109840*%
%ADD62C,0.058980*%
%ADD63C,0.072840*%
%ADD64C,0.059060*%
%ADD65R,0.059060X0.059060*%
%ADD66R,0.120000X0.120000*%
%ADD67C,0.120000*%
%ADD68R,0.060000X0.060000*%
%ADD69C,0.061020*%
%ADD70R,0.061020X0.061020*%
%LNmotor_unit_rev_3-1*%
%LPD*%
G54D16*
X01327Y00385D03*
X01252D03*
X01182D03*
X01107D03*
X00362Y0135D03*
X00437D03*
X01812Y02015D03*
X01737D03*
G54D17*
X0178Y02462D03*
Y02537D03*
X016Y01702D03*
Y01627D03*
X0055Y01457D03*
Y01532D03*
G54D18*
X00841Y0153D03*
Y01659D03*
X00648D03*
Y0153D03*
X01163D03*
Y01659D03*
X00971D03*
Y0153D03*
X01486D03*
Y01659D03*
X01293D03*
Y0153D03*
G54D19*
X0102Y00625D03*
Y00575D03*
Y00525D03*
Y00475D03*
X0072D03*
Y00525D03*
Y00575D03*
Y00625D03*
G54D20*
X0185Y01286D03*
Y01203D03*
G54D21*
X00555Y0108D03*
X00569Y01094D03*
X00583Y01108D03*
X00597Y01122D03*
X00611Y01136D03*
X00625Y0115D03*
X00639Y01164D03*
X00652Y01178D03*
X00666Y01192D03*
X0068Y01205D03*
X00694Y01219D03*
X00708Y01233D03*
X00722Y01247D03*
X00736Y01261D03*
X0075Y01275D03*
X00764Y01289D03*
X01084Y00969D03*
X0107Y00955D03*
X01056Y00941D03*
X01042Y00927D03*
X01028Y00913D03*
X01014Y00899D03*
X01Y00885D03*
X00987Y00871D03*
X00973Y00857D03*
X00959Y00844D03*
X00945Y0083D03*
X00931Y00816D03*
X00917Y00802D03*
X00903Y00788D03*
X00889Y00774D03*
X00875Y0076D03*
G54D22*
X00875Y01289D03*
X00889Y01275D03*
X00903Y01261D03*
X00917Y01247D03*
X00931Y01233D03*
X00945Y01219D03*
X00959Y01205D03*
X00973Y01192D03*
X00987Y01178D03*
X01Y01164D03*
X01014Y0115D03*
X01028Y01136D03*
X01042Y01122D03*
X01056Y01108D03*
X0107Y01094D03*
X01084Y0108D03*
X00764Y0076D03*
X0075Y00774D03*
X00736Y00788D03*
X00722Y00802D03*
X00708Y00816D03*
X00694Y0083D03*
X0068Y00844D03*
X00666Y00857D03*
X00652Y00871D03*
X00639Y00885D03*
X00625Y00899D03*
X00611Y00913D03*
X00597Y00927D03*
X00583Y00941D03*
X00569Y00955D03*
X00555Y00969D03*
G54D23*
X0006Y00443D03*
X00143D03*
G54D24*
X0132Y0175D03*
X01419D03*
X01698Y00115D03*
X016D03*
G54D25*
X00057Y00843D03*
X0014D03*
X00057Y0071D03*
X0014D03*
X00058Y0057D03*
X00141D03*
G54D57*
X01145Y00117D03*
G54D58*
X01145Y00167D03*
X01195Y00117D03*
Y00167D03*
X01245Y00117D03*
Y00167D03*
X01295Y00117D03*
Y00167D03*
X01345Y00117D03*
Y00167D03*
G54D59*
X0195Y0053D03*
Y0079D03*
Y0089D03*
X0006Y02685D03*
X0119Y0128D03*
X00115Y00275D03*
X0047Y01455D03*
X00365Y00238D03*
Y0012D03*
X0105Y01375D03*
X00268Y0165D03*
Y01532D03*
X0015Y0165D03*
Y01532D03*
X01395Y00641D03*
X01276D03*
X01395Y0076D03*
X01276D03*
Y00878D03*
X01395D03*
X00268Y012D03*
Y01081D03*
X0015Y012D03*
Y01081D03*
X01545Y00555D03*
X0154Y0099D03*
X00055Y01355D03*
X01911Y02911D03*
Y00089D03*
X00089Y02911D03*
X01325Y01365D03*
Y01285D03*
X0076Y0012D03*
Y00238D03*
X00455Y0126D03*
X01293Y02571D03*
X0149D03*
X01725Y01906D03*
X01925Y02006D03*
Y02106D03*
Y02206D03*
Y02306D03*
Y02406D03*
Y02506D03*
Y02606D03*
X00825D03*
Y02506D03*
Y02406D03*
Y02306D03*
Y02206D03*
Y02106D03*
X01Y003D03*
X0055Y0035D03*
X01773Y01785D03*
X0162Y01135D03*
G54D60*
X00089Y00089D03*
G54D61*
X00435Y02355D03*
X00309D03*
X00435Y0206D03*
X00309D03*
G54D62*
X017Y017D03*
X01955D03*
X017Y01522D03*
X01955D03*
G54D63*
X015Y0283D03*
X01244D03*
G54D64*
X0178Y0273D03*
Y0283D03*
G54D65*
X0178Y0293D03*
G54D66*
X00765Y01961D03*
G54D67*
X00765Y02158D03*
Y02355D03*
Y02552D03*
G54D68*
X01825Y01906D03*
X01925D03*
X00825Y02006D03*
Y01906D03*
G54D69*
X01Y0275D03*
X009D03*
X008D03*
X007D03*
X006D03*
X005D03*
X004D03*
X01Y0285D03*
X009D03*
X008D03*
X007D03*
X006D03*
X005D03*
X004D03*
X003D03*
G54D70*
X003Y0275D03*
M02*