%FSTAX23Y23*%
%MOIN*%
%SFA1B1*%

%IPPOS*%
%ADD16R,0.041340X0.055120*%
%ADD17R,0.055120X0.041340*%
%ADD73R,0.057090X0.045280*%
%ADD74R,0.082680X0.051180*%
%ADD75R,0.045280X0.057090*%
%ADD76R,0.107990X0.085000*%
%ADD77R,0.062990X0.039370*%
%ADD78R,0.059060X0.023620*%
%LNmotor_unit_rev_3-1*%
%LPD*%
G54D16*
X01867Y00795D03*
X01792D03*
X01867Y0089D03*
X01792D03*
X01462Y0045D03*
X01537D03*
X01337Y0099D03*
X01262D03*
X01934Y00975D03*
X0186D03*
X00802Y00675D03*
X00877D03*
X00802Y0059D03*
X00877D03*
X00802Y0051D03*
X00877D03*
X00802Y00425D03*
X00877D03*
X01612Y00115D03*
X01687D03*
X00134Y00443D03*
X00059D03*
X00134Y00573D03*
X00059D03*
X00129Y0071D03*
X00054D03*
X00129Y00838D03*
X00054D03*
G54D17*
X01655Y02522D03*
Y02447D03*
X01625Y01047D03*
Y00972D03*
X00585Y00572D03*
Y00647D03*
X0042Y00567D03*
Y00642D03*
X01345Y00327D03*
Y00252D03*
G54D73*
X01875Y01625D03*
Y01554D03*
X014Y01569D03*
Y0164D03*
X0107Y01569D03*
Y0164D03*
X00745Y01569D03*
Y0164D03*
X0153Y02044D03*
Y02115D03*
X0102Y0015D03*
Y00079D03*
X0148Y00275D03*
Y00204D03*
G54D74*
X01135Y02355D03*
Y02155D03*
X00953D03*
Y02355D03*
G54D75*
X0132Y02355D03*
X01249D03*
X00779Y01295D03*
X0085D03*
Y01195D03*
X00779D03*
X0085Y01095D03*
X00779D03*
X0085Y00995D03*
X00779D03*
X0085Y00895D03*
X00779D03*
G54D76*
X01858Y01342D03*
Y01167D03*
G54D77*
X003Y02644D03*
Y02525D03*
G54D78*
X01449Y02155D03*
Y02105D03*
Y02055D03*
Y02005D03*
X0124D03*
Y02055D03*
Y02105D03*
Y02155D03*
M02*