%FSTAX23Y23*%
%MOIN*%
%SFA1B1*%

%IPPOS*%
%AMD21*
4,1,4,-0.025700,0.017400,0.017400,-0.025700,0.025700,-0.017400,-0.017400,0.025700,-0.025700,0.017400,0.0*
%
%AMD22*
4,1,4,0.017400,0.025700,-0.025700,-0.017400,-0.017400,-0.025700,0.025700,0.017400,0.017400,0.025700,0.0*
%
G04~CAMADD=21~9~0.0~0.0~610.2~118.1~0.0~0.0~0~0.0~0.0~0.0~0.0~0~0.0~0.0~0.0~0.0~0~0.0~0.0~0.0~135.0~514.0~513.0*
%ADD21D21*%
G04~CAMADD=22~9~0.0~0.0~610.2~118.1~0.0~0.0~0~0.0~0.0~0.0~0.0~0~0.0~0.0~0.0~0.0~0~0.0~0.0~0.0~45.0~514.0~513.0*
%ADD22D22*%
%ADD26R,0.250000X0.100000*%
%ADD27R,0.049340X0.063120*%
%ADD28R,0.063120X0.049340*%
%ADD29R,0.067060X0.043430*%
%ADD30R,0.058000X0.037920*%
%ADD31R,0.055240X0.055240*%
%ADD32R,0.051310X0.055240*%
%ADD33R,0.051310X0.057210*%
%ADD34R,0.055240X0.055240*%
%ADD35R,0.046000X0.046000*%
%ADD36C,0.046000*%
%ADD37C,0.068000*%
%ADD38O,0.097000X0.068000*%
%ADD39C,0.008000*%
%ADD40C,0.117840*%
%ADD41C,0.066980*%
%ADD42C,0.080830*%
%ADD43C,0.067060*%
%ADD44R,0.067060X0.067060*%
%ADD45R,0.128000X0.128000*%
%ADD46C,0.128000*%
%ADD47R,0.068000X0.068000*%
%ADD48C,0.069020*%
%ADD49R,0.069020X0.069020*%
%ADD50C,0.058000*%
%ADD51C,0.033000*%
%LNmotor_unit_rev_3-1*%
%LPD*%
G54D21*
X00555Y0108D03*
X00569Y01094D03*
X00583Y01108D03*
X00597Y01122D03*
X00611Y01136D03*
X00625Y0115D03*
X00639Y01164D03*
X00652Y01178D03*
X00666Y01192D03*
X0068Y01205D03*
X00694Y01219D03*
X00708Y01233D03*
X00722Y01247D03*
X00736Y01261D03*
X0075Y01275D03*
X00764Y01289D03*
X01084Y00969D03*
X0107Y00955D03*
X01056Y00941D03*
X01042Y00927D03*
X01028Y00913D03*
X01014Y00899D03*
X01Y00885D03*
X00987Y00871D03*
X00973Y00857D03*
X00959Y00844D03*
X00945Y0083D03*
X00931Y00816D03*
X00917Y00802D03*
X00903Y00788D03*
X00889Y00774D03*
X00875Y0076D03*
G54D22*
X00875Y01289D03*
X00889Y01275D03*
X00903Y01261D03*
X00917Y01247D03*
X00931Y01233D03*
X00945Y01219D03*
X00959Y01205D03*
X00973Y01192D03*
X00987Y01178D03*
X01Y01164D03*
X01014Y0115D03*
X01028Y01136D03*
X01042Y01122D03*
X01056Y01108D03*
X0107Y01094D03*
X01084Y0108D03*
X00764Y0076D03*
X0075Y00774D03*
X00736Y00788D03*
X00722Y00802D03*
X00708Y00816D03*
X00694Y0083D03*
X0068Y00844D03*
X00666Y00857D03*
X00652Y00871D03*
X00639Y00885D03*
X00625Y00899D03*
X00611Y00913D03*
X00597Y00927D03*
X00583Y00941D03*
X00569Y00955D03*
X00555Y00969D03*
G54D26*
X01245Y00142D03*
G54D27*
X01327Y00385D03*
X01252D03*
X01182D03*
X01107D03*
X00362Y0135D03*
X00437D03*
X01812Y02015D03*
X01737D03*
G54D28*
X0178Y02462D03*
Y02537D03*
X016Y01702D03*
Y01627D03*
X0055Y01457D03*
Y01532D03*
G54D29*
X00841Y0153D03*
Y01659D03*
X00648D03*
Y0153D03*
X01163D03*
Y01659D03*
X00971D03*
Y0153D03*
X01486D03*
Y01659D03*
X01293D03*
Y0153D03*
G54D30*
X0102Y00625D03*
Y00575D03*
Y00525D03*
Y00475D03*
X0072D03*
Y00525D03*
Y00575D03*
Y00625D03*
G54D31*
X0185Y01286D03*
Y01203D03*
G54D32*
X0006Y00443D03*
X00143D03*
G54D33*
X0132Y0175D03*
X01419D03*
X01698Y00115D03*
X016D03*
G54D34*
X00057Y00843D03*
X0014D03*
X00057Y0071D03*
X0014D03*
X00058Y0057D03*
X00141D03*
G54D35*
X01145Y00117D03*
G54D36*
X01145Y00167D03*
X01195Y00117D03*
Y00167D03*
X01245Y00117D03*
Y00167D03*
X01295Y00117D03*
Y00167D03*
X01345Y00117D03*
Y00167D03*
G54D37*
X0195Y0053D03*
Y0079D03*
Y0089D03*
X0006Y02685D03*
X0119Y0128D03*
X00115Y00275D03*
X0047Y01455D03*
X00365Y00238D03*
Y0012D03*
X0105Y01375D03*
X00268Y0165D03*
Y01532D03*
X0015Y0165D03*
Y01532D03*
X01395Y00641D03*
X01276D03*
X01395Y0076D03*
X01276D03*
Y00878D03*
X01395D03*
X00268Y012D03*
Y01081D03*
X0015Y012D03*
Y01081D03*
X01545Y00555D03*
X0154Y0099D03*
X00055Y01355D03*
X01911Y02911D03*
Y00089D03*
X00089Y02911D03*
X01325Y01365D03*
Y01285D03*
X0076Y0012D03*
Y00238D03*
X00455Y0126D03*
X01293Y02571D03*
X0149D03*
X01725Y01906D03*
X01925Y02006D03*
Y02106D03*
Y02206D03*
Y02306D03*
Y02406D03*
Y02506D03*
Y02606D03*
X00825D03*
Y02506D03*
Y02406D03*
Y02306D03*
Y02206D03*
Y02106D03*
X01Y003D03*
X0055Y0035D03*
X01773Y01785D03*
X0162Y01135D03*
G54D38*
X00089Y00089D03*
G54D39*
X00483Y00275D03*
X00246D03*
X00444Y01873D03*
Y02542D03*
X00386Y01495D03*
X00031D03*
X01432Y00523D03*
Y00996D03*
X00386Y01044D03*
X00031D03*
X01151Y02944D03*
X00641Y00275D03*
X00878D03*
G54D40*
X00435Y02355D03*
X00309D03*
X00435Y0206D03*
X00309D03*
G54D41*
X017Y017D03*
X01955D03*
X017Y01522D03*
X01955D03*
G54D42*
X015Y0283D03*
X01244D03*
G54D43*
X0178Y0273D03*
Y0283D03*
G54D44*
X0178Y0293D03*
G54D45*
X00765Y01961D03*
G54D46*
X00765Y02158D03*
Y02355D03*
Y02552D03*
G54D47*
X01825Y01906D03*
X01925D03*
X00825Y02006D03*
Y01906D03*
G54D48*
X01Y0275D03*
X009D03*
X008D03*
X007D03*
X006D03*
X005D03*
X004D03*
X01Y0285D03*
X009D03*
X008D03*
X007D03*
X006D03*
X005D03*
X004D03*
X003D03*
G54D49*
X003Y0275D03*
G54D50*
X0032Y018D03*
X00225Y02465D03*
X0142Y029D03*
X0139Y025D03*
X01515Y0236D03*
X0102Y01915D03*
X01276Y0273D03*
X01095Y02555D03*
X00965D03*
X00569Y0172D03*
X00507Y01D03*
X01345Y01935D03*
X00795Y00835D03*
X00705Y011D03*
X0171Y0115D03*
X0093Y0094D03*
X00165Y00913D03*
X00925Y01095D03*
X01115Y0209D03*
X01525Y02195D03*
G54D51*
X00745Y01455D03*
X01225Y0175D03*
Y01455D03*
X0095Y01367D03*
X007Y0074D03*
X0128Y0082D03*
X01755Y00945D03*
X00655Y00725D03*
X0122Y0071D03*
X01745Y0084D03*
X01165Y00914D03*
X00645Y00474D03*
Y00524D03*
Y00574D03*
X00645Y00625D03*
X0004Y009D03*
X01785Y00975D03*
X0004Y0077D03*
X00045Y0063D03*
X01745Y00165D03*
X01685Y02139D03*
X00045Y005D03*
X01625Y00917D03*
X0117Y01105D03*
X00594Y00785D03*
X0062Y0075D03*
X0162Y0132D03*
X0117Y01145D03*
X0139Y02355D03*
X00625Y0125D03*
X0064Y01295D03*
X0068Y0133D03*
X0117Y01065D03*
X01137Y00887D03*
X0111Y0086D03*
X01082Y00832D03*
X01055Y00805D03*
X01405Y0189D03*
X01215Y01885D03*
M02*