%FSTAX23Y23*%
%MOIN*%
%SFA1B1*%

%IPPOS*%
%ADD9500C,0.010000*%
%ADD9501C,0.028000*%
%ADD9502C,0.032000*%
%ADD9503C,0.035430*%
%ADD9504C,0.038980*%
%ADD9505C,0.040000*%
%ADD9506C,0.040160*%
%ADD9507C,0.049210*%
%ADD9508C,0.073230*%
%ADD9509C,0.086000*%
%ADD9510C,0.138000*%
%ADD9511C,0.040000*%
%ADD9512C,0.047240*%
%ADD9513C,0.121260*%
%LNmotor_unit_rev_3-1*%
%LPD*%
G54D9500*
X00045Y005D03*
Y0063D03*
X0004Y0077D03*
Y009D03*
X00594Y00785D03*
X0062Y0075D03*
X00655Y00725D03*
X007Y0074D03*
X00645Y00625D03*
X00645Y00574D03*
Y00524D03*
Y00474D03*
X01055Y00805D03*
X01082Y00832D03*
X0111Y0086D03*
X01137Y00887D03*
X01165Y00914D03*
X0117Y01065D03*
Y01105D03*
Y01145D03*
X01225Y01455D03*
X0095Y01367D03*
X00745Y01455D03*
X0068Y0133D03*
X0064Y01295D03*
X00625Y0125D03*
X0128Y0082D03*
X0122Y0071D03*
X01625Y00917D03*
X01755Y00945D03*
X01785Y00975D03*
X01745Y0084D03*
X0162Y0132D03*
X01745Y00165D03*
X01685Y02139D03*
X0139Y02355D03*
X01405Y0189D03*
X01215Y01885D03*
X01225Y0175D03*
G54D9501*
X00165Y00913D03*
X00507Y01D03*
X00705Y011D03*
X00925Y01095D03*
X0093Y0094D03*
X00795Y00835D03*
X01145Y00167D03*
Y00117D03*
X01195D03*
Y00167D03*
X01245D03*
Y00117D03*
X01295D03*
Y00167D03*
X01345D03*
Y00117D03*
X0171Y0115D03*
X01345Y01935D03*
X0102Y01915D03*
X01115Y0209D03*
X01095Y02555D03*
X00965D03*
X0139Y025D03*
X01515Y0236D03*
X01525Y02195D03*
X01276Y0273D03*
X0142Y029D03*
X00225Y02465D03*
X0032Y018D03*
X00569Y0172D03*
G54D9502*
X00115Y00275D03*
X0055Y0035D03*
X01Y003D03*
X01545Y00555D03*
X0154Y0099D03*
X01325Y01285D03*
Y01365D03*
X0119Y0128D03*
X0105Y01375D03*
X0047Y01455D03*
X00455Y0126D03*
X00055Y01355D03*
X0162Y01135D03*
X0195Y0089D03*
Y0079D03*
Y0053D03*
X01773Y01785D03*
X0006Y02685D03*
G54D9503*
X0178Y0273D03*
Y0283D03*
Y0293D03*
G54D9504*
X017Y01522D03*
X01955D03*
Y017D03*
X017D03*
G54D9505*
X00365Y0012D03*
Y00238D03*
X0076D03*
Y0012D03*
X01276Y00641D03*
X01395D03*
Y0076D03*
X01276D03*
Y00878D03*
X01395D03*
X00268Y01081D03*
Y012D03*
X0015D03*
Y01081D03*
Y01532D03*
X00268D03*
X01725Y01906D03*
X01825D03*
X01925D03*
Y02006D03*
Y02106D03*
Y02206D03*
Y02306D03*
Y02406D03*
Y02506D03*
Y02606D03*
X0149Y02571D03*
X01293D03*
X00825Y02606D03*
Y02506D03*
Y02406D03*
Y02306D03*
Y02206D03*
Y02106D03*
Y02006D03*
Y01906D03*
X00268Y0165D03*
X0015D03*
G54D9506*
X003Y0275D03*
X004D03*
X005D03*
X006D03*
X007D03*
X008D03*
X009D03*
X01D03*
Y0285D03*
X009D03*
X008D03*
X007D03*
X006D03*
X005D03*
X004D03*
X003D03*
G54D9507*
X01244Y0283D03*
X015D03*
G54D9508*
X00309Y0206D03*
X00435D03*
Y02355D03*
X00309D03*
G54D9509*
X00765Y01961D03*
Y02158D03*
Y02355D03*
Y02552D03*
G54D9510*
X00089Y00089D03*
X01911D03*
Y02911D03*
X00089D03*
G54D9511*
X00246Y00275D03*
X00483D03*
X00641D03*
X00878D03*
X01432Y00523D03*
Y00996D03*
X00386Y01044D03*
X00031D03*
Y01495D03*
X00386D03*
G54D9512*
X01151Y02944D03*
G54D9513*
X00444Y01873D03*
Y02542D03*
M02*