%FSTAX23Y23*%
%MOIN*%
%SFA1B1*%

%IPPOS*%
%AMD21*
4,1,4,-0.025700,0.017400,0.017400,-0.025700,0.025700,-0.017400,-0.017400,0.025700,-0.025700,0.017400,0.0*
%
%AMD22*
4,1,4,0.017400,0.025700,-0.025700,-0.017400,-0.017400,-0.025700,0.025700,0.017400,0.017400,0.025700,0.0*
%
%ADD16R,0.041340X0.055120*%
%ADD17R,0.055120X0.041340*%
%ADD18R,0.059060X0.035430*%
%ADD19R,0.050000X0.029920*%
%ADD20R,0.047240X0.047240*%
G04~CAMADD=21~9~0.0~0.0~610.2~118.1~0.0~0.0~0~0.0~0.0~0.0~0.0~0~0.0~0.0~0.0~0.0~0~0.0~0.0~0.0~135.0~514.0~513.0*
%ADD21D21*%
G04~CAMADD=22~9~0.0~0.0~610.2~118.1~0.0~0.0~0~0.0~0.0~0.0~0.0~0~0.0~0.0~0.0~0.0~0~0.0~0.0~0.0~45.0~514.0~513.0*
%ADD22D22*%
%ADD23R,0.043310X0.047240*%
%ADD24R,0.043310X0.049210*%
%ADD25R,0.047240X0.047240*%
%LNmotor_unit_rev_3-1*%
%LPD*%
G54D16*
X01327Y00385D03*
X01252D03*
X01182D03*
X01107D03*
X00362Y0135D03*
X00437D03*
X01812Y02015D03*
X01737D03*
G54D17*
X0178Y02462D03*
Y02537D03*
X016Y01702D03*
Y01627D03*
X0055Y01457D03*
Y01532D03*
G54D18*
X00841Y0153D03*
Y01659D03*
X00648D03*
Y0153D03*
X01163D03*
Y01659D03*
X00971D03*
Y0153D03*
X01486D03*
Y01659D03*
X01293D03*
Y0153D03*
G54D19*
X0102Y00625D03*
Y00575D03*
Y00525D03*
Y00475D03*
X0072D03*
Y00525D03*
Y00575D03*
Y00625D03*
G54D20*
X0185Y01286D03*
Y01203D03*
G54D21*
X00555Y0108D03*
X00569Y01094D03*
X00583Y01108D03*
X00597Y01122D03*
X00611Y01136D03*
X00625Y0115D03*
X00639Y01164D03*
X00652Y01178D03*
X00666Y01192D03*
X0068Y01205D03*
X00694Y01219D03*
X00708Y01233D03*
X00722Y01247D03*
X00736Y01261D03*
X0075Y01275D03*
X00764Y01289D03*
X01084Y00969D03*
X0107Y00955D03*
X01056Y00941D03*
X01042Y00927D03*
X01028Y00913D03*
X01014Y00899D03*
X01Y00885D03*
X00987Y00871D03*
X00973Y00857D03*
X00959Y00844D03*
X00945Y0083D03*
X00931Y00816D03*
X00917Y00802D03*
X00903Y00788D03*
X00889Y00774D03*
X00875Y0076D03*
G54D22*
X00875Y01289D03*
X00889Y01275D03*
X00903Y01261D03*
X00917Y01247D03*
X00931Y01233D03*
X00945Y01219D03*
X00959Y01205D03*
X00973Y01192D03*
X00987Y01178D03*
X01Y01164D03*
X01014Y0115D03*
X01028Y01136D03*
X01042Y01122D03*
X01056Y01108D03*
X0107Y01094D03*
X01084Y0108D03*
X00764Y0076D03*
X0075Y00774D03*
X00736Y00788D03*
X00722Y00802D03*
X00708Y00816D03*
X00694Y0083D03*
X0068Y00844D03*
X00666Y00857D03*
X00652Y00871D03*
X00639Y00885D03*
X00625Y00899D03*
X00611Y00913D03*
X00597Y00927D03*
X00583Y00941D03*
X00569Y00955D03*
X00555Y00969D03*
G54D23*
X0006Y00443D03*
X00143D03*
G54D24*
X0132Y0175D03*
X01419D03*
X01698Y00115D03*
X016D03*
G54D25*
X00057Y00843D03*
X0014D03*
X00057Y0071D03*
X0014D03*
X00058Y0057D03*
X00141D03*
M02*