%FSTAX23Y23*%
%MOIN*%
%SFA1B1*%

%IPPOS*%
%AMD21*
4,1,4,-0.025700,0.017400,0.017400,-0.025700,0.025700,-0.017400,-0.017400,0.025700,-0.025700,0.017400,0.0*
%
%AMD22*
4,1,4,0.017400,0.025700,-0.025700,-0.017400,-0.017400,-0.025700,0.025700,0.017400,0.017400,0.025700,0.0*
%
%ADD10C,0.010000*%
%ADD16R,0.041340X0.055120*%
%ADD17R,0.055120X0.041340*%
%ADD18R,0.059060X0.035430*%
%ADD19R,0.050000X0.029920*%
%ADD20R,0.047240X0.047240*%
G04~CAMADD=21~9~0.0~0.0~610.2~118.1~0.0~0.0~0~0.0~0.0~0.0~0.0~0~0.0~0.0~0.0~0.0~0~0.0~0.0~0.0~135.0~514.0~513.0*
%ADD21D21*%
G04~CAMADD=22~9~0.0~0.0~610.2~118.1~0.0~0.0~0~0.0~0.0~0.0~0.0~0~0.0~0.0~0.0~0.0~0~0.0~0.0~0.0~45.0~514.0~513.0*
%ADD22D22*%
%ADD23R,0.043310X0.047240*%
%ADD24R,0.043310X0.049210*%
%ADD25R,0.047240X0.047240*%
%ADD52C,0.050000*%
%ADD53C,0.025000*%
%ADD54C,0.020000*%
%ADD55C,0.012000*%
%ADD56C,0.008000*%
%ADD57R,0.040000X0.040000*%
%ADD58C,0.040000*%
%ADD59C,0.060000*%
%ADD60O,0.089000X0.060000*%
%ADD61C,0.109840*%
%ADD62C,0.058980*%
%ADD63C,0.072840*%
%ADD64C,0.059060*%
%ADD65R,0.059060X0.059060*%
%ADD66R,0.120000X0.120000*%
%ADD67C,0.120000*%
%ADD68R,0.060000X0.060000*%
%ADD69C,0.061020*%
%ADD70R,0.061020X0.061020*%
%ADD71C,0.050000*%
%ADD72C,0.025000*%
%LNmotor_unit_rev_3-1*%
%LPD*%
G36*
X01324Y02679D02*
X01095Y0245D01*
X00835*
X00825Y02451*
X00814Y0245*
X00655*
X0045Y02655*
Y02764*
X00456*
X00459Y02761*
X0046Y02759*
X0046Y0276*
X00539*
X0054Y02761*
X00543Y02764*
X00556*
X00559Y02761*
X0056Y0276*
X00639*
X0064Y02761*
X00643Y02764*
X00656*
X00659Y02761*
X0066Y0276*
X00739*
X0074Y02761*
X00743Y02764*
X00756*
X00759Y02761*
X0076Y0276*
X00839*
X0084Y02761*
X00843Y02764*
X00856*
X00859Y02761*
X0086Y0276*
X00939*
X0094Y02761*
X00943Y02764*
X00956*
X00959Y02761*
X0096Y0276*
X01039*
X0104Y02761*
X01043Y02764*
X01125*
X01128Y02765*
X01132Y02767*
X01192Y02828*
X01197Y02826*
X01198Y02817*
X01203Y02806*
X0121Y02796*
X0122Y02789*
X01224Y02788*
Y0283*
X01264*
Y02788*
X01267Y02789*
X01277Y02796*
X01284Y02806*
X01289Y02817*
X0129Y0283*
X01289Y02842*
X01287Y02845*
X0129Y02849*
X01324*
Y02679*
G37*
G36*
X00647Y02442D02*
X00651Y0244D01*
X00655Y02439*
X00814*
X00815Y02439*
X00815Y02439*
X00825Y02441*
X00834Y02439*
X00834Y02439*
X00835Y02439*
X00885*
Y02265*
X00225*
Y02395*
X00365Y02558*
X0037Y02555*
X00368Y02542*
X0037Y02527*
X00374Y02512*
X00381Y02499*
X00391Y02488*
X00402Y02478*
X00415Y02471*
X0043Y02467*
X00444Y02466*
X00459Y02467*
X00473Y02471*
X00487Y02478*
X00498Y02488*
X00508Y02499*
X00515Y02512*
X00519Y02527*
X0052Y02542*
X00519Y02556*
X00516Y02567*
X0052Y02569*
X00647Y02442*
G37*
G36*
X00885Y0209D02*
X00796D01*
X00795Y02095*
X00804Y02099*
X00814Y02108*
X00823Y02118*
X00828Y02128*
X00765*
X00701*
X00706Y02118*
X00715Y02108*
X00725Y02099*
X00734Y02095*
X00733Y0209*
X0063*
X00625Y02085*
X00625*
X00621Y02084*
X00617Y02082*
X00615Y02078*
X00614Y02075*
Y02074*
X006Y0206*
Y0181*
X00494*
X00492Y01814*
X00498Y01819*
X00508Y0183*
X00515Y01844*
X00519Y01858*
X0052Y01873*
X00519Y01887*
X00515Y01902*
X00508Y01915*
X00498Y01926*
X00487Y01936*
X00473Y01943*
X00459Y01947*
X00444Y01949*
X0043Y01947*
X00415Y01943*
X00402Y01936*
X00391Y01926*
X00381Y01915*
X00374Y01902*
X0037Y01887*
X00368Y01873*
X0037Y01858*
X00374Y01844*
X00381Y0183*
X00391Y01819*
X00396Y01814*
X00395Y0181*
X00359*
X00358Y0181*
X00354Y0182*
X00348Y01828*
X0034Y01834*
X0033Y01838*
X0032Y0184*
X00309Y01838*
X00299Y01834*
X00291Y01828*
X00285Y0182*
X00281Y0181*
X0028Y0181*
X00225*
Y02255*
X00885*
Y0209*
G37*
G36*
X0159Y0231D02*
X01085Y01805D01*
X00625*
Y02075*
X00792*
X00792Y02073*
X00802Y02066*
X00813Y02062*
X00825Y0206*
X00836Y02062*
X00847Y02066*
X00857Y02073*
X00857Y02075*
X00945*
X01335Y02465*
Y02554*
X01336Y02559*
X01338Y02571*
X01336Y02582*
X01335Y02587*
Y0286*
X01285*
X0128Y02866*
X0127Y02874*
X01257Y0288*
X01244Y02881*
X0123Y0288*
X01218Y02874*
X01207Y02866*
X01199Y02855*
X01194Y02844*
X01125Y02775*
X01038*
X01032Y02782*
X01022Y02789*
X01011Y02794*
X01Y02795*
X00988Y02794*
X00977Y02789*
X00967Y02782*
X00961Y02775*
X00938*
X00932Y02782*
X00922Y02789*
X00911Y02794*
X009Y02795*
X00888Y02794*
X00877Y02789*
X00867Y02782*
X00861Y02775*
X00838*
X00832Y02782*
X00822Y02789*
X00811Y02794*
X008Y02795*
X00788Y02794*
X00777Y02789*
X00767Y02782*
X00761Y02775*
X00738*
X00732Y02782*
X00722Y02789*
X00711Y02794*
X007Y02795*
X00688Y02794*
X00677Y02789*
X00667Y02782*
X00661Y02775*
X00638*
X00632Y02782*
X00622Y02789*
X00611Y02794*
X006Y02795*
X00588Y02794*
X00577Y02789*
X00567Y02782*
X00561Y02775*
X00538*
X00532Y02782*
X00522Y02789*
X00511Y02794*
X005Y02795*
X00488Y02794*
X00477Y02789*
X00467Y02782*
X00461Y02775*
X0045*
Y02989*
X0159*
Y0231*
G37*
%LNmotor_unit_rev_3-2*%
%LPC*%
G36*
X01039Y0274D02*
X0101D01*
Y0271*
X0101Y0271*
X0102Y02714*
X01028Y02721*
X01035Y02729*
X01039Y02739*
X01039Y0274*
G37*
G36*
X0099D02*
X0096D01*
X0096Y02739*
X00964Y02729*
X00971Y02721*
X00979Y02714*
X00989Y0271*
X0099Y0271*
Y0274*
G37*
G36*
X00939D02*
X0091D01*
Y0271*
X0091Y0271*
X0092Y02714*
X00928Y02721*
X00935Y02729*
X00939Y02739*
X00939Y0274*
G37*
G36*
X0089D02*
X0086D01*
X0086Y02739*
X00864Y02729*
X00871Y02721*
X00879Y02714*
X00889Y0271*
X0089Y0271*
Y0274*
G37*
G36*
X00839D02*
X0081D01*
Y0271*
X0081Y0271*
X0082Y02714*
X00828Y02721*
X00835Y02729*
X00839Y02739*
X00839Y0274*
G37*
G36*
X0079D02*
X0076D01*
X0076Y02739*
X00764Y02729*
X00771Y02721*
X00779Y02714*
X00789Y0271*
X0079Y0271*
Y0274*
G37*
G36*
X00739D02*
X0071D01*
Y0271*
X0071Y0271*
X0072Y02714*
X00728Y02721*
X00735Y02729*
X00739Y02739*
X00739Y0274*
G37*
G36*
X0069D02*
X0066D01*
X0066Y02739*
X00664Y02729*
X00671Y02721*
X00679Y02714*
X00689Y0271*
X0069Y0271*
Y0274*
G37*
G36*
X00639D02*
X0061D01*
Y0271*
X0061Y0271*
X0062Y02714*
X00628Y02721*
X00635Y02729*
X00639Y02739*
X00639Y0274*
G37*
G36*
X0059D02*
X0056D01*
X0056Y02739*
X00564Y02729*
X00571Y02721*
X00579Y02714*
X00589Y0271*
X0059Y0271*
Y0274*
G37*
G36*
X00539D02*
X0051D01*
Y0271*
X0051Y0271*
X0052Y02714*
X00528Y02721*
X00535Y02729*
X00539Y02739*
X00539Y0274*
G37*
G36*
X0049D02*
X0046D01*
X0046Y02739*
X00464Y02729*
X00471Y02721*
X00479Y02714*
X00489Y0271*
X0049Y0271*
Y0274*
G37*
G36*
X00835Y02645D02*
Y02616D01*
X00864*
X00863Y02616*
X00859Y02626*
X00853Y02634*
X00845Y0264*
X00835Y02644*
X00835Y02645*
G37*
G36*
X0074Y02617D02*
X00738Y02616D01*
X00725Y0261*
X00715Y02601*
X00706Y02591*
X007Y02578*
X00699Y02577*
X0074*
Y02617*
G37*
G36*
Y02527D02*
X00699D01*
X007Y02525*
X00706Y02512*
X00715Y02502*
X00725Y02493*
X00738Y02487*
X0074Y02486*
Y02527*
G37*
G36*
X00864Y02496D02*
X00835D01*
Y02466*
X00835Y02467*
X00845Y02471*
X00853Y02477*
X00859Y02485*
X00863Y02495*
X00864Y02496*
G37*
G36*
X00815Y02645D02*
X00814Y02644D01*
X00804Y0264*
X00796Y02634*
X0079Y02626*
X0079Y02626*
Y02552*
Y02485*
X0079Y02485*
X00796Y02477*
X00804Y02471*
X00814Y02467*
X00815Y02466*
Y02506*
X00825*
Y02516*
X00864*
X00863Y02516*
X00859Y02526*
X00853Y02534*
X00845Y0254*
X00835Y02544*
X00834Y02545*
X00835Y02552*
X00833Y02565*
X00834Y02566*
X00835Y02567*
X00845Y02571*
X00853Y02577*
X00859Y02585*
X00863Y02595*
X00864Y02596*
X00825*
Y02606*
X00815*
Y02645*
G37*
G36*
X00795Y02418D02*
Y02385D01*
X00828*
X00823Y02394*
X00814Y02404*
X00804Y02413*
X00795Y02418*
G37*
G36*
X00735D02*
X00725Y02413D01*
X00715Y02404*
X00706Y02394*
X00701Y02385*
X00735*
Y02418*
G37*
G36*
X0046Y02415D02*
Y0238D01*
X00495*
X00489Y02391*
X00481Y02401*
X00471Y02409*
X0046Y02415*
G37*
G36*
X00284D02*
X00273Y02409D01*
X00263Y02401*
X00255Y02391*
X00249Y0238*
X00284*
Y02415*
G37*
G36*
X00495Y0233D02*
X0046D01*
Y02294*
X00471Y023*
X00481Y02308*
X00489Y02318*
X00495Y0233*
G37*
G36*
X00284D02*
X00249D01*
X00255Y02318*
X00263Y02308*
X00273Y023*
X00284Y02294*
Y0233*
G37*
G36*
X00334Y02415D02*
Y02355D01*
Y02294*
X00346Y023*
X00355Y02308*
X0036Y02314*
X00384*
X00388Y02308*
X00398Y023*
X0041Y02294*
Y02355*
Y02415*
X00398Y02409*
X00388Y02401*
X00384Y02395*
X0036*
X00355Y02401*
X00346Y02409*
X00334Y02415*
G37*
G36*
X00828Y02325D02*
X00795D01*
Y02291*
X00804Y02296*
X00814Y02305*
X00823Y02315*
X00828Y02325*
G37*
G36*
X00735D02*
X00701D01*
X00706Y02315*
X00715Y02305*
X00725Y02296*
X00735Y02291*
Y02325*
G37*
G36*
X00795Y02221D02*
Y02188D01*
X00828*
X00823Y02197*
X00814Y02207*
X00804Y02216*
X00795Y02221*
G37*
G36*
X00735D02*
X00725Y02216D01*
X00715Y02207*
X00706Y02197*
X00701Y02188*
X00735*
Y02221*
G37*
G36*
X0046Y0212D02*
Y02085D01*
X00495*
X00489Y02096*
X00481Y02106*
X00471Y02114*
X0046Y0212*
G37*
G36*
X00284D02*
X00273Y02114D01*
X00263Y02106*
X00255Y02096*
X00249Y02085*
X00284*
Y0212*
G37*
G36*
X00495Y02035D02*
X0046D01*
Y01999*
X00471Y02005*
X00481Y02013*
X00489Y02023*
X00495Y02035*
G37*
G36*
X00284D02*
X00249D01*
X00255Y02023*
X00263Y02013*
X00273Y02005*
X00284Y01999*
Y02035*
G37*
G36*
X00334Y0212D02*
Y0206D01*
Y01999*
X00346Y02005*
X00355Y02013*
X0036Y02019*
X00384*
X00388Y02013*
X00398Y02005*
X0041Y01999*
Y0206*
Y0212*
X00398Y02114*
X00388Y02106*
X00384Y021*
X0036*
X00355Y02106*
X00346Y02114*
X00334Y0212*
G37*
G36*
X01151Y02983D02*
X01141Y02982D01*
X01132Y02978*
X01124Y02972*
X01117Y02964*
X01113Y02955*
X01112Y02944*
X01113Y02934*
X01117Y02925*
X01124Y02917*
X01132Y02911*
X01141Y02907*
X01151Y02906*
X01161Y02907*
X01171Y02911*
X01179Y02917*
X01185Y02925*
X01189Y02934*
X0119Y02944*
X01189Y02955*
X01185Y02964*
X01179Y02972*
X01171Y02978*
X01161Y02982*
X01151Y02983*
G37*
G36*
X0101Y02889D02*
Y0286D01*
X01039*
X01039Y0286*
X01035Y0287*
X01028Y02878*
X0102Y02885*
X0101Y02889*
X0101Y02889*
G37*
G36*
X0099D02*
X00989Y02889D01*
X00979Y02885*
X00971Y02878*
X00964Y0287*
X0096Y0286*
X0096Y0286*
X0099*
Y02889*
G37*
G36*
X0091D02*
Y0286D01*
X00939*
X00939Y0286*
X00935Y0287*
X00928Y02878*
X0092Y02885*
X0091Y02889*
X0091Y02889*
G37*
G36*
X0089D02*
X00889Y02889D01*
X00879Y02885*
X00871Y02878*
X00864Y0287*
X0086Y0286*
X0086Y0286*
X0089*
Y02889*
G37*
G36*
X0081D02*
Y0286D01*
X00839*
X00839Y0286*
X00835Y0287*
X00828Y02878*
X0082Y02885*
X0081Y02889*
X0081Y02889*
G37*
G36*
X0079D02*
X00789Y02889D01*
X00779Y02885*
X00771Y02878*
X00764Y0287*
X0076Y0286*
X0076Y0286*
X0079*
Y02889*
G37*
G36*
X0071D02*
Y0286D01*
X00739*
X00739Y0286*
X00735Y0287*
X00728Y02878*
X0072Y02885*
X0071Y02889*
X0071Y02889*
G37*
G36*
X0069D02*
X00689Y02889D01*
X00679Y02885*
X00671Y02878*
X00664Y0287*
X0066Y0286*
X0066Y0286*
X0069*
Y02889*
G37*
G36*
X0061D02*
Y0286D01*
X00639*
X00639Y0286*
X00635Y0287*
X00628Y02878*
X0062Y02885*
X0061Y02889*
X0061Y02889*
G37*
G36*
X0059D02*
X00589Y02889D01*
X00579Y02885*
X00571Y02878*
X00564Y0287*
X0056Y0286*
X0056Y0286*
X0059*
Y02889*
G37*
G36*
X0051D02*
Y0286D01*
X00539*
X00539Y0286*
X00535Y0287*
X00528Y02878*
X0052Y02885*
X0051Y02889*
X0051Y02889*
G37*
G36*
X0049D02*
X00489Y02889D01*
X00479Y02885*
X00471Y02878*
X00464Y0287*
X0046Y0286*
X0046Y0286*
X0049*
Y02889*
G37*
G36*
X0152Y02871D02*
Y0285D01*
X01541*
X0154Y02853*
X01533Y02863*
X01523Y0287*
X0152Y02871*
G37*
G36*
X0148D02*
X01476Y0287D01*
X01466Y02863*
X01459Y02853*
X01458Y0285*
X0148*
Y02871*
G37*
G36*
X01039Y0284D02*
X0101D01*
Y0281*
X0101Y0281*
X0102Y02814*
X01028Y02821*
X01035Y02829*
X01039Y02839*
X01039Y0284*
G37*
G36*
X0099D02*
X0096D01*
X0096Y02839*
X00964Y02829*
X00971Y02821*
X00979Y02814*
X00989Y0281*
X0099Y0281*
Y0284*
G37*
G36*
X00939D02*
X0091D01*
Y0281*
X0091Y0281*
X0092Y02814*
X00928Y02821*
X00935Y02829*
X00939Y02839*
X00939Y0284*
G37*
G36*
X0089D02*
X0086D01*
X0086Y02839*
X00864Y02829*
X00871Y02821*
X00879Y02814*
X00889Y0281*
X0089Y0281*
Y0284*
G37*
G36*
X00839D02*
X0081D01*
Y0281*
X0081Y0281*
X0082Y02814*
X00828Y02821*
X00835Y02829*
X00839Y02839*
X00839Y0284*
G37*
G36*
X0079D02*
X0076D01*
X0076Y02839*
X00764Y02829*
X00771Y02821*
X00779Y02814*
X00789Y0281*
X0079Y0281*
Y0284*
G37*
G36*
X00739D02*
X0071D01*
Y0281*
X0071Y0281*
X0072Y02814*
X00728Y02821*
X00735Y02829*
X00739Y02839*
X00739Y0284*
G37*
G36*
X0069D02*
X0066D01*
X0066Y02839*
X00664Y02829*
X00671Y02821*
X00679Y02814*
X00689Y0281*
X0069Y0281*
Y0284*
G37*
G36*
X00639D02*
X0061D01*
Y0281*
X0061Y0281*
X0062Y02814*
X00628Y02821*
X00635Y02829*
X00639Y02839*
X00639Y0284*
G37*
G36*
X0059D02*
X0056D01*
X0056Y02839*
X00564Y02829*
X00571Y02821*
X00579Y02814*
X00589Y0281*
X0059Y0281*
Y0284*
G37*
G36*
X00539D02*
X0051D01*
Y0281*
X0051Y0281*
X0052Y02814*
X00528Y02821*
X00535Y02829*
X00539Y02839*
X00539Y0284*
G37*
G36*
X0049D02*
X0046D01*
X0046Y02839*
X00464Y02829*
X00471Y02821*
X00479Y02814*
X00489Y0281*
X0049Y0281*
Y0284*
G37*
G36*
X01541Y0281D02*
X0152D01*
Y02788*
X01523Y02789*
X01533Y02796*
X0154Y02806*
X01541Y0281*
G37*
G36*
X0148D02*
X01458D01*
X01459Y02806*
X01466Y02796*
X01476Y02789*
X0148Y02788*
Y0281*
G37*
G36*
X0149Y02616D02*
X01478Y02614D01*
X01467Y0261*
X01457Y02603*
X0145Y02593*
X01446Y02582*
X01444Y02571*
X01446Y02559*
X0145Y02548*
X01457Y02538*
X01467Y02531*
X01478Y02527*
X0149Y02525*
X01501Y02527*
X01512Y02531*
X01522Y02538*
X01529Y02548*
X01533Y02559*
X01535Y02571*
X01533Y02582*
X01529Y02593*
X01522Y02603*
X01512Y0261*
X01501Y02614*
X0149Y02616*
G37*
G36*
X014Y02375D02*
Y02365D01*
X0141*
X01406Y02371*
X014Y02375*
G37*
G36*
X0138D02*
X01373Y02371D01*
X01369Y02365*
X0138*
Y02375*
G37*
G36*
X0141Y02345D02*
X014D01*
Y02334*
X01406Y02338*
X0141Y02345*
G37*
G36*
X0138D02*
X01369D01*
X01373Y02338*
X0138Y02334*
Y02345*
G37*
G36*
X01125Y02123D02*
Y021D01*
X01148*
X01145Y02107*
X01139Y02114*
X01132Y0212*
X01125Y02123*
G37*
G36*
X01105D02*
X01097Y0212D01*
X0109Y02114*
X01084Y02107*
X01081Y021*
X01105*
Y02123*
G37*
G36*
X01148Y0208D02*
X01125D01*
Y02056*
X01132Y02059*
X01139Y02065*
X01145Y02072*
X01148Y0208*
G37*
G36*
X01105D02*
X01081D01*
X01084Y02072*
X0109Y02065*
X01097Y02059*
X01105Y02056*
Y0208*
G37*
G36*
X00865Y02046D02*
X00835D01*
Y02016*
X00865*
Y02046*
G37*
G36*
X00815D02*
X00792D01*
Y01988*
X00865*
Y01996*
X00825*
Y02006*
X00815*
Y02046*
G37*
G36*
X00737Y02036D02*
X0069D01*
Y01988*
X00737*
Y02036*
G37*
G36*
Y01933D02*
X0069D01*
Y01886*
X00737*
Y01933*
G37*
G36*
X00865Y01896D02*
X00835D01*
Y01866*
X00865*
Y01896*
G37*
G36*
Y01933D02*
X00792D01*
Y01866*
X00815*
Y01906*
X00825*
Y01916*
X00865*
Y01933*
G37*
%LNmotor_unit_rev_3-3*%
%LPD*%
G54D10*
X0095Y01363D02*
Y01367D01*
X00875Y01289D02*
X0095Y01363D01*
X00507Y01D02*
X0051D01*
X00547Y00962*
X00548*
X00555Y00969*
X00795Y00831D02*
Y00835D01*
X0076Y00825D02*
X00789D01*
X00731Y00854D02*
X0076Y00825D01*
X00789D02*
X00795Y00831D01*
X007Y01105D02*
X00705Y011D01*
X007Y01105D02*
Y01158D01*
X00666Y01192D02*
X007Y01158D01*
X0072Y00854D02*
X00731D01*
X00695Y0083D02*
X0072Y00854D01*
X00694Y0083D02*
X00695D01*
X0093Y0094D02*
X00939Y0093D01*
X00956*
X01Y00885*
X0075Y01275D02*
X00785Y0124D01*
Y01235D02*
Y0124D01*
Y01235D02*
X0079Y0123D01*
X01Y00884D02*
Y00885D01*
X00697Y00742D02*
X007Y0074D01*
X00697Y00742D02*
Y00776D01*
X00722Y00801*
Y00802*
X00655Y00725D02*
X00674Y00744D01*
Y00782*
X00708Y00816*
X00555Y0108D02*
Y01081D01*
X0053Y01106D02*
X00555Y01081D01*
X0053Y01106D02*
Y01441D01*
X00546Y01457*
X0055*
X01165Y00914D02*
Y0094D01*
X01096Y01008D02*
X01165Y0094D01*
X01593Y01627D02*
X016Y0162D01*
X00864Y01225D02*
X00967Y01122D01*
Y01102D02*
Y01122D01*
X00864Y01249D02*
X00889Y01274D01*
X00864Y01225D02*
Y01249D01*
X00967Y01102D02*
X01061Y01008D01*
X01096*
X00889Y01274D02*
Y01275D01*
X01221Y01417D02*
X01439D01*
X0122Y01418D02*
X01221Y01417D01*
X01032Y01418D02*
X0122D01*
X01439Y01417D02*
X016Y01577D01*
Y0162*
X00975Y01356D02*
Y01361D01*
X0096Y01341D02*
X00975Y01356D01*
X00956Y01341D02*
X0096D01*
X0089Y01275D02*
X00956Y01341D01*
X00889Y01275D02*
X0089D01*
X00975Y01361D02*
X01032Y01418D01*
X01593Y01627D02*
X016D01*
X00522Y00908D02*
X00569Y00955D01*
X00515Y00908D02*
X00522D01*
X00507Y00907D02*
X00514D01*
X00515Y00908*
X00645Y00474D02*
X00645Y00475D01*
X0072*
X00645Y00524D02*
X00645Y00525D01*
X0072*
X00645Y00574D02*
X00645Y00575D01*
X0072*
X00645Y00625D02*
X0072D01*
X0004Y009D02*
X00057Y00882D01*
Y00843D02*
Y00882D01*
X0004Y0077D02*
X00057Y00752D01*
Y0071D02*
Y00752D01*
X00062Y00573D02*
Y00593D01*
Y00612*
X00045Y0063D02*
X00062Y00612D01*
X00045Y005D02*
X0006Y00484D01*
Y00443D02*
Y00484D01*
X01413Y0092D02*
X01625D01*
X01412Y00921D02*
X01413Y0092D01*
X01377Y00921D02*
X01412D01*
X01334Y00878D02*
X01377Y00921D01*
X01276Y00878D02*
X01334D01*
X00988Y00775D02*
X0101D01*
X00987Y00775D02*
X00988Y00775D01*
X00972Y00775D02*
X00987D01*
X00931Y00816D02*
X00972Y00775D01*
X00969Y0075D02*
X00977D01*
X00917Y00802D02*
X00969Y0075D01*
X00917Y01247D02*
X01044Y01375D01*
X0105*
X01076Y01041D02*
X0114Y01105D01*
X0117*
X01061Y01041D02*
X01076D01*
X01033Y01069D02*
X01061Y01041D01*
X01033Y01069D02*
D01*
X01003Y01099D02*
X01033Y01069D01*
X01003Y01099D02*
Y0111D01*
X01028Y01135*
Y01136*
X0061Y00855D02*
X00639Y00884D01*
X0061Y008D02*
Y00855D01*
X00639Y00884D02*
Y00885D01*
X00594Y00785D02*
X0061Y008D01*
X00628Y00845D02*
X00652Y0087D01*
X00628Y00758D02*
Y00845D01*
X00652Y0087D02*
D01*
X0062Y0075D02*
X00628Y00758D01*
X01145Y01142D02*
X01167D01*
X01084Y0108D02*
X01145Y01142D01*
X01167D02*
X0117Y01145D01*
X0014Y00843D02*
X00484D01*
X00583Y00941*
X00141Y0057D02*
X00267D01*
X00611Y00913*
X0014Y0071D02*
X00379D01*
X00597Y00927*
X00592Y00865D02*
X00625Y00898D01*
X00193Y00443D02*
X00592Y00841D01*
Y00865*
X00625Y00898D02*
Y00899D01*
X00143Y00443D02*
X00193D01*
X0068Y00844D02*
X00741Y00905D01*
X00662Y01079D02*
Y0111D01*
Y01079D02*
X00665Y01076D01*
X00841Y00795D02*
X00875Y0076D01*
X00652Y01177D02*
Y01178D01*
X00677Y01126D02*
Y01152D01*
X00662Y0111D02*
X00677Y01126D01*
X00652Y01177D02*
X00677Y01152D01*
X00764Y01289D02*
X00835Y01218D01*
X00639Y01247D02*
X0068Y01205D01*
X00627Y01247D02*
X00639D01*
X00625Y0125D02*
X00627Y01247D01*
X0064Y01274D02*
Y01295D01*
Y01274D02*
X00694Y01219D01*
X0068Y01325D02*
Y0133D01*
Y01325D02*
X00683Y01322D01*
Y01259D02*
Y01322D01*
Y01259D02*
X00708Y01234D01*
Y01233D02*
Y01234D01*
X01195Y01065D02*
X01225Y01095D01*
X0117Y01065D02*
X01195D01*
X01225Y01095D02*
Y0113D01*
X01179Y01175D02*
X01225Y0113D01*
X0104Y01175D02*
X01179D01*
X01015Y0115D02*
X0104Y01175D01*
X01014Y0115D02*
X01015D01*
X01014Y01149D02*
Y0115D01*
X01114Y00909D02*
X01137Y00887D01*
X01088Y00909D02*
X01114D01*
X01056Y00941D02*
X01088Y00909D01*
X0108Y00889D02*
X0111Y0086D01*
X0108Y00889D02*
X0108D01*
X01042Y00927D02*
X0108Y00889D01*
X01082Y00832D02*
Y00859D01*
X01028Y00913D02*
X01082Y00859D01*
X01055Y00806D02*
Y00859D01*
X01014Y00899D02*
X01055Y00859D01*
Y00806D02*
X01055Y00805D01*
X01138Y0133D02*
X0129D01*
X01325Y01365*
X00987Y01178D02*
X01138Y0133D01*
X01066Y0123D02*
X0127D01*
X01325Y01285*
X01Y01164D02*
X01066Y0123D01*
G54D16*
X01327Y00385D03*
X01252D03*
X01182D03*
X01107D03*
X00362Y0135D03*
X00437D03*
X01812Y02015D03*
X01737D03*
G54D17*
X0178Y02462D03*
Y02537D03*
X016Y01702D03*
Y01627D03*
X0055Y01457D03*
Y01532D03*
G54D18*
X00841Y0153D03*
Y01659D03*
X00648D03*
Y0153D03*
X01163D03*
Y01659D03*
X00971D03*
Y0153D03*
X01486D03*
Y01659D03*
X01293D03*
Y0153D03*
G54D19*
X0102Y00625D03*
Y00575D03*
Y00525D03*
Y00475D03*
X0072D03*
Y00525D03*
Y00575D03*
Y00625D03*
G54D20*
X0185Y01286D03*
Y01203D03*
G54D21*
X00555Y0108D03*
X00569Y01094D03*
X00583Y01108D03*
X00597Y01122D03*
X00611Y01136D03*
X00625Y0115D03*
X00639Y01164D03*
X00652Y01178D03*
X00666Y01192D03*
X0068Y01205D03*
X00694Y01219D03*
X00708Y01233D03*
X00722Y01247D03*
X00736Y01261D03*
X0075Y01275D03*
X00764Y01289D03*
X01084Y00969D03*
X0107Y00955D03*
X01056Y00941D03*
X01042Y00927D03*
X01028Y00913D03*
X01014Y00899D03*
X01Y00885D03*
X00987Y00871D03*
X00973Y00857D03*
X00959Y00844D03*
X00945Y0083D03*
X00931Y00816D03*
X00917Y00802D03*
X00903Y00788D03*
X00889Y00774D03*
X00875Y0076D03*
G54D22*
X00875Y01289D03*
X00889Y01275D03*
X00903Y01261D03*
X00917Y01247D03*
X00931Y01233D03*
X00945Y01219D03*
X00959Y01205D03*
X00973Y01192D03*
X00987Y01178D03*
X01Y01164D03*
X01014Y0115D03*
X01028Y01136D03*
X01042Y01122D03*
X01056Y01108D03*
X0107Y01094D03*
X01084Y0108D03*
X00764Y0076D03*
X0075Y00774D03*
X00736Y00788D03*
X00722Y00802D03*
X00708Y00816D03*
X00694Y0083D03*
X0068Y00844D03*
X00666Y00857D03*
X00652Y00871D03*
X00639Y00885D03*
X00625Y00899D03*
X00611Y00913D03*
X00597Y00927D03*
X00583Y00941D03*
X00569Y00955D03*
X00555Y00969D03*
G54D23*
X0006Y00443D03*
X00143D03*
G54D24*
X0132Y0175D03*
X01419D03*
X01698Y00115D03*
X016D03*
G54D25*
X00057Y00843D03*
X0014D03*
X00057Y0071D03*
X0014D03*
X00058Y0057D03*
X00141D03*
G54D52*
X00765Y02158D02*
X00768Y02155D01*
X00145Y01545D02*
X00158Y01532D01*
X00132Y01587D02*
X00145Y01574D01*
Y01545D02*
Y01574D01*
X00123Y01587D02*
X00132D01*
X00087Y01624D02*
X00123Y01587D01*
X00087Y01624D02*
Y01676D01*
X00095Y01684*
Y02545*
X00309Y0206D02*
X00435D01*
X00309Y02355D02*
X00435D01*
X00095Y02545D02*
X003Y0275D01*
G54D53*
X01598Y00116D02*
X016Y00115D01*
X01346Y00116D02*
X01598D01*
X01345Y00117D02*
X01346Y00116D01*
X014Y00145D02*
Y00312D01*
X01345Y00117D02*
X01347Y0012D01*
X01375D02*
X014Y00145D01*
X01347Y0012D02*
X01375D01*
X01342Y00369D02*
X014Y00312D01*
X0074Y01582D02*
X00777D01*
X00233D02*
X0074D01*
X00745Y01577*
Y01455D02*
Y01577D01*
X01225Y01698D02*
X01243D01*
X01111D02*
X01225D01*
Y0175*
X01213Y01491D02*
X01225Y0148D01*
Y01455D02*
Y0148D01*
X01419Y01709D02*
Y0175D01*
X01369Y01659D02*
X01419Y01709D01*
X01293Y01659D02*
X01369D01*
X01112Y0149D02*
X01152Y0153D01*
X00893Y0149D02*
X01112D01*
X00853Y0153D02*
X00893Y0149D01*
X00858Y01637D02*
X00954Y01542D01*
X01474Y0153D02*
X01486D01*
X01436Y01491D02*
X01474Y0153D01*
X01213Y01491D02*
X01436D01*
X01175Y0153D02*
X01213Y01491D01*
X01163Y0153D02*
X01175D01*
X01152D02*
X01163D01*
X00841D02*
X00853D01*
X00959D02*
X00971D01*
X00954Y01535D02*
X00959Y0153D01*
X00954Y01535D02*
Y01542D01*
X00858Y01637D02*
Y01649D01*
X00853Y01654D02*
X00858Y01649D01*
X00841Y01654D02*
X00853D01*
X00777Y01582D02*
X00829Y0153D01*
X00841*
X01281Y01659D02*
X01293D01*
X01243Y01698D02*
X01281Y01659D01*
X01073D02*
X01111Y01698D01*
X00971Y01659D02*
X01073D01*
X00959D02*
X00971D01*
X00921Y01698D02*
X00959Y01659D01*
X00789Y01698D02*
X00921D01*
X0075Y01659D02*
X00789Y01698D01*
X00648Y01659D02*
X0075D01*
X00643Y01665D02*
X00648Y01659D01*
X00569Y01685D02*
Y0172D01*
Y01685D02*
X00589Y01665D01*
X00643*
X00055Y01176D02*
X0015Y01081D01*
X00055Y01176D02*
Y01355D01*
X01163Y01659D02*
X01175D01*
X0118Y01654*
Y01642D02*
Y01654D01*
Y01642D02*
X01276Y01547D01*
Y01535D02*
Y01547D01*
Y01535D02*
X01281Y0153D01*
X01293*
X01725Y01906D02*
Y01985D01*
X01729Y01989*
Y02006*
X01737Y02015*
X00359Y01347D02*
X00362Y0135D01*
X0101Y00775D02*
X01252Y00532D01*
Y00385D02*
Y00532D01*
X01195Y0027D02*
X01252Y00327D01*
Y00385*
X01195Y0017D02*
Y0027D01*
X00977Y0075D02*
X01182Y00544D01*
Y00385D02*
Y00544D01*
X01145Y0017D02*
Y00305D01*
X01178Y00338*
Y0038*
X01182Y00385*
X0102Y00475D02*
Y00525D01*
Y00575*
Y00625*
X01335Y00369D02*
X01342D01*
X01327Y00378D02*
Y00385D01*
Y00378D02*
X01335Y00369D01*
X016Y00115D02*
Y00117D01*
X0159Y00127D02*
X016Y00117D01*
X00158Y01532D02*
X00164Y01538D01*
X00189*
X00233Y01582*
G54D54*
X00841Y00723D02*
Y00795D01*
X01135Y00127D02*
X01145Y00117D01*
X01131Y00127D02*
X01135D01*
X01107Y00151D02*
X01131Y00127D01*
X01107Y00151D02*
Y00384D01*
X01107Y00385*
X00044Y0157D02*
X0013Y01484D01*
X00044Y0157D02*
Y02554D01*
X0011Y0262*
X014Y0189D02*
X01654Y02144D01*
X00225Y01532D02*
X00268D01*
X00138Y02488D02*
X004Y0275D01*
X00138Y01836D02*
Y02488D01*
X00552Y0153D02*
X00648D01*
X00705Y011D02*
X00795Y0119D01*
X0079Y0123D02*
X00795Y01225D01*
Y0119D02*
Y01225D01*
X00472Y01457D02*
X00546D01*
X0047Y01455D02*
X00472Y01457D01*
X0044Y00975D02*
Y01234D01*
X00455Y01249*
Y0126*
Y01325*
X00437Y01343D02*
X00455Y01325D01*
X00437Y01343D02*
Y0135D01*
X0044Y00975D02*
X00507Y00907D01*
X0055Y01532D02*
X00552Y0153D01*
X016Y01702D02*
X01602Y017D01*
X017*
X0178Y0283D02*
X0183Y0278D01*
Y02587D02*
Y0278D01*
X01797Y02554D02*
X0183Y02587D01*
X01797Y02548D02*
Y02554D01*
X01786Y02537D02*
X01797Y02548D01*
X0178Y02537D02*
X01786D01*
X01785Y01138D02*
X0185Y01203D01*
X01785Y00975D02*
Y01138D01*
X0185Y01203D02*
Y01205D01*
X0171Y00126D02*
Y0013D01*
X01698Y00115D02*
X0171Y00126D01*
Y0013D02*
X01745Y00165D01*
X0132Y01752D02*
X01684Y02116D01*
Y02139*
X01685Y0214*
X0132Y0175D02*
Y01752D01*
X00268Y012D02*
X00359Y01291D01*
Y01347*
X01653Y01286D02*
X0185D01*
X0162Y0132D02*
X01653Y01286D01*
X00143Y00444D02*
X00154Y00456D01*
X00741Y00905D02*
X00836D01*
X00841*
Y00795D02*
Y00905D01*
X00665Y01076D02*
X00836Y00905D01*
X00841D02*
Y01011D01*
Y00723D02*
X0094Y00625D01*
X00841Y01011D02*
X00925Y01095D01*
X00923Y01096D02*
X00925Y01095D01*
X0094Y00625D02*
X0102D01*
X00835Y01218D02*
X00923Y0113D01*
Y01096D02*
Y0113D01*
X01823Y01987D02*
Y02004D01*
X01825Y01906D02*
Y01985D01*
X01823Y01987D02*
X01825Y01985D01*
X01812Y02015D02*
X01823Y02004D01*
X014Y01889D02*
X014Y0189D01*
X01654Y02151D02*
X0178Y02277D01*
Y02462*
X01654Y02144D02*
Y02151D01*
X014Y0189D02*
X01405D01*
X0011Y0262D02*
Y02755D01*
X0039Y0292D02*
X004Y0291D01*
X00275Y0292D02*
X0039D01*
X004Y0285D02*
Y0291D01*
X0011Y02755D02*
X00275Y0292D01*
X0013Y01484D02*
X00177D01*
X00225Y01532*
X01734Y02271D02*
Y02565D01*
X01626Y02163D02*
X01734Y02271D01*
X01626Y02155D02*
Y02163D01*
X01355Y01885D02*
X01626Y02155D01*
X01215Y01885D02*
X01355D01*
X01734Y02565D02*
X0178Y02611D01*
Y0273*
X00138Y01836D02*
X00276Y01698D01*
Y0165D02*
Y01698D01*
G54D55*
X0129Y00815D02*
X01405D01*
X0148Y0089*
X017*
X01755Y00945*
X0123Y0071D02*
X01415D01*
X01545Y0084*
X01745*
G54D56*
X00652Y00869D02*
Y00871D01*
X00597Y00926D02*
Y00927D01*
G54D57*
X01145Y00117D03*
G54D58*
X01145Y00167D03*
X01195Y00117D03*
Y00167D03*
X01245Y00117D03*
Y00167D03*
X01295Y00117D03*
Y00167D03*
X01345Y00117D03*
Y00167D03*
G54D59*
X0195Y0053D03*
Y0079D03*
Y0089D03*
X0006Y02685D03*
X0119Y0128D03*
X00115Y00275D03*
X0047Y01455D03*
X00365Y00238D03*
Y0012D03*
X0105Y01375D03*
X00268Y0165D03*
Y01532D03*
X0015Y0165D03*
Y01532D03*
X01395Y00641D03*
X01276D03*
X01395Y0076D03*
X01276D03*
Y00878D03*
X01395D03*
X00268Y012D03*
Y01081D03*
X0015Y012D03*
Y01081D03*
X01545Y00555D03*
X0154Y0099D03*
X00055Y01355D03*
X01911Y02911D03*
Y00089D03*
X00089Y02911D03*
X01325Y01365D03*
Y01285D03*
X0076Y0012D03*
Y00238D03*
X00455Y0126D03*
X01293Y02571D03*
X0149D03*
X01725Y01906D03*
X01925Y02006D03*
Y02106D03*
Y02206D03*
Y02306D03*
Y02406D03*
Y02506D03*
Y02606D03*
X00825D03*
Y02506D03*
Y02406D03*
Y02306D03*
Y02206D03*
Y02106D03*
X01Y003D03*
X0055Y0035D03*
X01773Y01785D03*
X0162Y01135D03*
G54D60*
X00089Y00089D03*
G54D61*
X00435Y02355D03*
X00309D03*
X00435Y0206D03*
X00309D03*
G54D62*
X017Y017D03*
X01955D03*
X017Y01522D03*
X01955D03*
G54D63*
X015Y0283D03*
X01244D03*
G54D64*
X0178Y0273D03*
Y0283D03*
G54D65*
X0178Y0293D03*
G54D66*
X00765Y01961D03*
G54D67*
X00765Y02158D03*
Y02355D03*
Y02552D03*
G54D68*
X01825Y01906D03*
X01925D03*
X00825Y02006D03*
Y01906D03*
G54D69*
X01Y0275D03*
X009D03*
X008D03*
X007D03*
X006D03*
X005D03*
X004D03*
X01Y0285D03*
X009D03*
X008D03*
X007D03*
X006D03*
X005D03*
X004D03*
X003D03*
G54D70*
X003Y0275D03*
G54D71*
X0032Y018D03*
X00225Y02465D03*
X0142Y029D03*
X0139Y025D03*
X01515Y0236D03*
X0102Y01915D03*
X01276Y0273D03*
X01095Y02555D03*
X00965D03*
X00569Y0172D03*
X00507Y01D03*
X01345Y01935D03*
X00795Y00835D03*
X00705Y011D03*
X0171Y0115D03*
X0093Y0094D03*
X00165Y00913D03*
X00925Y01095D03*
X01115Y0209D03*
X01525Y02195D03*
G54D72*
X00745Y01455D03*
X01225Y0175D03*
Y01455D03*
X0095Y01367D03*
X007Y0074D03*
X0128Y0082D03*
X01755Y00945D03*
X00655Y00725D03*
X0122Y0071D03*
X01745Y0084D03*
X01165Y00914D03*
X00645Y00474D03*
Y00524D03*
Y00574D03*
X00645Y00625D03*
X0004Y009D03*
X01785Y00975D03*
X0004Y0077D03*
X00045Y0063D03*
X01745Y00165D03*
X01685Y02139D03*
X00045Y005D03*
X01625Y00917D03*
X0117Y01105D03*
X00594Y00785D03*
X0062Y0075D03*
X0162Y0132D03*
X0117Y01145D03*
X0139Y02355D03*
X00625Y0125D03*
X0064Y01295D03*
X0068Y0133D03*
X0117Y01065D03*
X01137Y00887D03*
X0111Y0086D03*
X01082Y00832D03*
X01055Y00805D03*
X01405Y0189D03*
X01215Y01885D03*
M02*