G04*
G04 #@! TF.GenerationSoftware,Altium Limited,Altium Designer,19.0.15 (446)*
G04*
G04 Layer_Color=255*
%FSLAX25Y25*%
%MOIN*%
G70*
G01*
G75*
%ADD44R,0.04134X0.05512*%
%ADD45R,0.05512X0.04134*%
%ADD57R,0.04000X0.04000*%
%ADD58C,0.04000*%
%ADD59C,0.06000*%
%ADD60O,0.08900X0.06000*%
%ADD61C,0.10984*%
%ADD62C,0.05898*%
%ADD63C,0.07284*%
%ADD64C,0.05906*%
%ADD65R,0.05906X0.05906*%
%ADD66R,0.12000X0.12000*%
%ADD67C,0.12000*%
%ADD68R,0.06000X0.06000*%
%ADD69C,0.06102*%
%ADD70R,0.06102X0.06102*%
%ADD73R,0.05709X0.04528*%
%ADD74R,0.08268X0.05118*%
%ADD75R,0.04528X0.05709*%
%ADD76R,0.10799X0.08500*%
%ADD77R,0.06299X0.03937*%
%ADD78R,0.05906X0.02362*%
D44*
X186740Y79500D02*
D03*
X179260D02*
D03*
X186740Y89000D02*
D03*
X179260D02*
D03*
X146260Y45000D02*
D03*
X153740D02*
D03*
X133740Y99000D02*
D03*
X126260D02*
D03*
X193480Y97500D02*
D03*
X186000D02*
D03*
X80260Y67500D02*
D03*
X87740D02*
D03*
X80260Y59000D02*
D03*
X87740D02*
D03*
X80260Y51000D02*
D03*
X87740D02*
D03*
X80260Y42500D02*
D03*
X87740D02*
D03*
X161260Y11500D02*
D03*
X168740D02*
D03*
X13418Y44300D02*
D03*
X5937D02*
D03*
X13418Y57300D02*
D03*
X5937D02*
D03*
X12918Y71000D02*
D03*
X5437D02*
D03*
X12918Y83800D02*
D03*
X5437D02*
D03*
D45*
X165500Y252240D02*
D03*
Y244760D02*
D03*
X162500Y104740D02*
D03*
Y97260D02*
D03*
X58500Y57260D02*
D03*
Y64740D02*
D03*
X42000Y56760D02*
D03*
Y64240D02*
D03*
X134500Y32740D02*
D03*
Y25260D02*
D03*
D57*
X114500Y11717D02*
D03*
D58*
Y16717D02*
D03*
X119500Y11717D02*
D03*
Y16717D02*
D03*
X124500Y11717D02*
D03*
Y16717D02*
D03*
X129500Y11717D02*
D03*
Y16717D02*
D03*
X134500Y11717D02*
D03*
Y16717D02*
D03*
D59*
X195000Y53000D02*
D03*
Y79000D02*
D03*
Y89000D02*
D03*
X6000Y268500D02*
D03*
X119000Y128000D02*
D03*
X11500Y27500D02*
D03*
X47000Y145500D02*
D03*
X36500Y23811D02*
D03*
Y12000D02*
D03*
X105000Y137500D02*
D03*
X26811Y165012D02*
D03*
Y153201D02*
D03*
X15000Y165012D02*
D03*
Y153201D02*
D03*
X139500Y64189D02*
D03*
X127689D02*
D03*
X139500Y76000D02*
D03*
X127689D02*
D03*
Y87811D02*
D03*
X139500D02*
D03*
X26811Y120000D02*
D03*
Y108189D02*
D03*
X15000Y120000D02*
D03*
Y108189D02*
D03*
X154500Y55500D02*
D03*
X154000Y99000D02*
D03*
X5500Y135500D02*
D03*
X191100Y291100D02*
D03*
Y8900D02*
D03*
X8900Y291100D02*
D03*
X132500Y136500D02*
D03*
Y128500D02*
D03*
X76000Y12000D02*
D03*
Y23811D02*
D03*
X45500Y126000D02*
D03*
X129300Y257100D02*
D03*
X149000D02*
D03*
X172500Y190600D02*
D03*
X192500Y200600D02*
D03*
Y210600D02*
D03*
Y220600D02*
D03*
Y230600D02*
D03*
Y240600D02*
D03*
Y250600D02*
D03*
Y260600D02*
D03*
X82500D02*
D03*
Y250600D02*
D03*
Y240600D02*
D03*
Y230600D02*
D03*
Y220600D02*
D03*
Y210600D02*
D03*
X100000Y30000D02*
D03*
X55000Y35000D02*
D03*
X177300Y178500D02*
D03*
X162000Y113500D02*
D03*
D60*
X8900Y8900D02*
D03*
D61*
X43500Y235500D02*
D03*
X30980D02*
D03*
X43500Y206012D02*
D03*
X30980D02*
D03*
D62*
X170000Y170000D02*
D03*
X195590D02*
D03*
X170000Y152284D02*
D03*
X195590D02*
D03*
D63*
X150000Y283000D02*
D03*
X124409D02*
D03*
D64*
X178000Y273000D02*
D03*
Y283000D02*
D03*
D65*
Y293000D02*
D03*
D66*
X76500Y196100D02*
D03*
D67*
Y215800D02*
D03*
Y235500D02*
D03*
Y255200D02*
D03*
D68*
X182500Y190600D02*
D03*
X192500D02*
D03*
X82500Y200600D02*
D03*
Y190600D02*
D03*
D69*
X100000Y275000D02*
D03*
X90000D02*
D03*
X80000D02*
D03*
X70000D02*
D03*
X60000D02*
D03*
X50000D02*
D03*
X40000D02*
D03*
X100000Y285000D02*
D03*
X90000D02*
D03*
X80000D02*
D03*
X70000D02*
D03*
X60000D02*
D03*
X50000D02*
D03*
X40000D02*
D03*
X30000D02*
D03*
D70*
Y275000D02*
D03*
D73*
X187500Y162543D02*
D03*
Y155457D02*
D03*
X140000Y156957D02*
D03*
Y164043D02*
D03*
X107000Y156957D02*
D03*
Y164043D02*
D03*
X74500Y156957D02*
D03*
Y164043D02*
D03*
X153000Y204413D02*
D03*
Y211500D02*
D03*
X102000Y15043D02*
D03*
Y7957D02*
D03*
X148000Y27543D02*
D03*
Y20457D02*
D03*
D74*
X113500Y235500D02*
D03*
Y215500D02*
D03*
X95390D02*
D03*
Y235500D02*
D03*
D75*
X132043D02*
D03*
X124957D02*
D03*
X77957Y129500D02*
D03*
X85043D02*
D03*
X85043Y119500D02*
D03*
X77957D02*
D03*
X85043Y109500D02*
D03*
X77957D02*
D03*
X85043Y99500D02*
D03*
X77957D02*
D03*
X85043Y89500D02*
D03*
X77957D02*
D03*
D76*
X185817Y134201D02*
D03*
Y116799D02*
D03*
D77*
X30000Y264406D02*
D03*
Y252594D02*
D03*
D78*
X144933Y215500D02*
D03*
Y210500D02*
D03*
Y205500D02*
D03*
Y200500D02*
D03*
X124067D02*
D03*
Y205500D02*
D03*
Y210500D02*
D03*
Y215500D02*
D03*
M02*
