G04*
G04 #@! TF.GenerationSoftware,Altium Limited,Altium Designer,19.1.8 (144)*
G04*
G04 Layer_Physical_Order=3*
G04 Layer_Color=16440176*
%FSLAX25Y25*%
%MOIN*%
G70*
G01*
G75*
%ADD54C,0.05000*%
%ADD59C,0.04000*%
%ADD60C,0.06000*%
%ADD61C,0.10984*%
%ADD62C,0.05898*%
%ADD63C,0.07284*%
%ADD66R,0.12000X0.12000*%
%ADD67C,0.12000*%
%ADD68R,0.06000X0.06000*%
%ADD69C,0.06102*%
%ADD71C,0.02500*%
%ADD72C,0.05000*%
G36*
X5000Y298980D02*
X5000Y298980D01*
X5000Y298980D01*
X195000Y298980D01*
X195392Y298980D01*
X196161Y298828D01*
X196885Y298528D01*
X197537Y298092D01*
X198092Y297537D01*
X198527Y296886D01*
X198828Y296161D01*
X198980Y295392D01*
X198980Y295000D01*
Y173637D01*
X198480Y173390D01*
X197834Y173886D01*
X196752Y174334D01*
X195590Y174487D01*
X194429Y174334D01*
X193347Y173886D01*
X192418Y173173D01*
X191704Y172244D01*
X191256Y171161D01*
X191103Y170000D01*
X191256Y168839D01*
X191704Y167756D01*
X192418Y166827D01*
X193347Y166114D01*
X194429Y165666D01*
X195590Y165513D01*
X196752Y165666D01*
X197834Y166114D01*
X198480Y166610D01*
X198980Y166363D01*
Y155130D01*
X198507Y154969D01*
X198407Y155100D01*
X197582Y155733D01*
X196621Y156131D01*
X196590Y156135D01*
Y152284D01*
Y148432D01*
X196621Y148436D01*
X197582Y148834D01*
X198407Y149467D01*
X198507Y149598D01*
X198980Y149437D01*
Y92026D01*
X198480Y91856D01*
X198209Y92209D01*
X197269Y92931D01*
X196175Y93384D01*
X195000Y93539D01*
X193825Y93384D01*
X192731Y92931D01*
X191791Y92209D01*
X191069Y91269D01*
X190616Y90175D01*
X190461Y89000D01*
X190616Y87825D01*
X191069Y86731D01*
X191791Y85791D01*
X192731Y85069D01*
X193825Y84616D01*
X195000Y84461D01*
X196175Y84616D01*
X197269Y85069D01*
X198209Y85791D01*
X198480Y86144D01*
X198980Y85974D01*
Y82026D01*
X198480Y81856D01*
X198209Y82209D01*
X197269Y82931D01*
X196175Y83384D01*
X195000Y83539D01*
X193825Y83384D01*
X192731Y82931D01*
X191791Y82209D01*
X191069Y81269D01*
X190616Y80175D01*
X190461Y79000D01*
X190616Y77825D01*
X191069Y76731D01*
X191791Y75791D01*
X192731Y75069D01*
X193825Y74616D01*
X195000Y74461D01*
X196175Y74616D01*
X197269Y75069D01*
X198209Y75791D01*
X198480Y76144D01*
X198980Y75974D01*
Y55164D01*
X198530Y55030D01*
X198480Y55035D01*
X197853Y55853D01*
X197017Y56494D01*
X196044Y56897D01*
X196000Y56903D01*
Y53000D01*
Y49097D01*
X196044Y49103D01*
X197017Y49506D01*
X197853Y50147D01*
X198480Y50965D01*
X198530Y50970D01*
X198980Y50836D01*
Y5000D01*
X198980Y4608D01*
X198827Y3839D01*
X198527Y3115D01*
X198092Y2463D01*
X197537Y1908D01*
X196885Y1473D01*
X196161Y1173D01*
X195392Y1020D01*
X4608D01*
X3839Y1173D01*
X3115Y1473D01*
X2462Y1908D01*
X1908Y2463D01*
X1472Y3115D01*
X1173Y3839D01*
X1020Y4608D01*
X1020Y5000D01*
Y75703D01*
X1519Y75802D01*
X1598Y75613D01*
X2039Y75039D01*
X2613Y74598D01*
X3282Y74321D01*
X4000Y74226D01*
X4718Y74321D01*
X5387Y74598D01*
X5961Y75039D01*
X6402Y75613D01*
X6679Y76282D01*
X6774Y77000D01*
X6679Y77718D01*
X6402Y78387D01*
X5961Y78961D01*
X5387Y79402D01*
X4718Y79679D01*
X4000Y79774D01*
X3282Y79679D01*
X2613Y79402D01*
X2039Y78961D01*
X1598Y78387D01*
X1519Y78198D01*
X1020Y78297D01*
Y88703D01*
X1519Y88802D01*
X1598Y88613D01*
X2039Y88039D01*
X2613Y87598D01*
X3282Y87321D01*
X4000Y87226D01*
X4718Y87321D01*
X5387Y87598D01*
X5961Y88039D01*
X6402Y88613D01*
X6679Y89282D01*
X6774Y90000D01*
X6679Y90718D01*
X6402Y91387D01*
X5961Y91961D01*
X5387Y92402D01*
X4718Y92679D01*
X4000Y92774D01*
X3282Y92679D01*
X2613Y92402D01*
X2039Y91961D01*
X1598Y91387D01*
X1519Y91198D01*
X1020Y91297D01*
Y101182D01*
X1519Y101391D01*
X2275Y101078D01*
X3189Y100958D01*
X4103Y101078D01*
X4954Y101431D01*
X5685Y101992D01*
X6246Y102723D01*
X6599Y103575D01*
X6719Y104488D01*
X6599Y105402D01*
X6246Y106253D01*
X5685Y106984D01*
X4954Y107545D01*
X4103Y107898D01*
X3189Y108018D01*
X2275Y107898D01*
X1519Y107585D01*
X1020Y107794D01*
Y133251D01*
X1519Y133351D01*
X1569Y133231D01*
X2291Y132291D01*
X3231Y131569D01*
X4325Y131116D01*
X5500Y130961D01*
X6675Y131116D01*
X7769Y131569D01*
X8709Y132291D01*
X9431Y133231D01*
X9884Y134325D01*
X10039Y135500D01*
X9884Y136675D01*
X9431Y137769D01*
X8709Y138709D01*
X7769Y139431D01*
X6675Y139884D01*
X5500Y140039D01*
X4325Y139884D01*
X3231Y139431D01*
X2291Y138709D01*
X1569Y137769D01*
X1519Y137649D01*
X1020Y137749D01*
Y146194D01*
X1519Y146403D01*
X2275Y146090D01*
X3189Y145970D01*
X4103Y146090D01*
X4954Y146443D01*
X5685Y147004D01*
X6246Y147735D01*
X6599Y148586D01*
X6719Y149500D01*
X6599Y150414D01*
X6246Y151265D01*
X5685Y151996D01*
X4954Y152557D01*
X4103Y152910D01*
X3189Y153030D01*
X2275Y152910D01*
X1519Y152597D01*
X1020Y152806D01*
Y295000D01*
X1020Y295000D01*
X1020Y295000D01*
X1020Y295392D01*
X1172Y296161D01*
X1472Y296885D01*
X1908Y297537D01*
X2462Y298092D01*
X3114Y298528D01*
X3839Y298828D01*
X4608Y298980D01*
X5000Y298980D01*
D02*
G37*
%LPC*%
G36*
X115157Y298392D02*
X114149Y298259D01*
X113210Y297870D01*
X112403Y297251D01*
X111784Y296444D01*
X111395Y295504D01*
X111262Y294496D01*
X111395Y293488D01*
X111784Y292548D01*
X112403Y291741D01*
X113210Y291122D01*
X114149Y290733D01*
X115157Y290600D01*
X116166Y290733D01*
X117105Y291122D01*
X117912Y291741D01*
X118531Y292548D01*
X118920Y293488D01*
X119053Y294496D01*
X118920Y295504D01*
X118531Y296444D01*
X117912Y297251D01*
X117105Y297870D01*
X116166Y298259D01*
X115157Y298392D01*
D02*
G37*
G36*
X133579Y289020D02*
X125717D01*
X125620Y289000D01*
X125521Y289001D01*
X125427Y288962D01*
X125327Y288942D01*
X125245Y288887D01*
X125153Y288849D01*
X125081Y288777D01*
X124997Y288721D01*
X124942Y288639D01*
X124871Y288569D01*
X124832Y288475D01*
X124776Y288390D01*
X124756Y288293D01*
X124718Y288202D01*
X124707Y288147D01*
X124409Y288186D01*
X124112Y288147D01*
X124101Y288202D01*
X124063Y288293D01*
X124043Y288390D01*
X123987Y288475D01*
X123948Y288569D01*
X123877Y288639D01*
X123822Y288721D01*
X123738Y288777D01*
X123665Y288849D01*
X123574Y288887D01*
X123492Y288942D01*
X123392Y288962D01*
X123297Y289001D01*
X123198Y289000D01*
X123101Y289020D01*
X121079D01*
X120689Y288942D01*
X120358Y288721D01*
X111656Y280020D01*
X107235D01*
X107041Y279981D01*
X106846Y279943D01*
X106846Y279942D01*
X106845Y279942D01*
X106679Y279831D01*
X106515Y279722D01*
X106515Y279721D01*
X106514Y279721D01*
X106402Y279553D01*
X106294Y279392D01*
X106293Y279391D01*
X106188Y279434D01*
X105000Y279591D01*
X103812Y279434D01*
X103707Y279391D01*
X103706Y279392D01*
X103598Y279553D01*
X103486Y279721D01*
X103485Y279721D01*
X103485Y279722D01*
X103321Y279831D01*
X103155Y279942D01*
X103154Y279942D01*
X103154Y279943D01*
X102959Y279981D01*
X102765Y280020D01*
X97235D01*
X97041Y279981D01*
X96846Y279943D01*
X96846Y279942D01*
X96845Y279942D01*
X96679Y279831D01*
X96515Y279722D01*
X96515Y279721D01*
X96514Y279721D01*
X96402Y279553D01*
X96294Y279392D01*
X96293Y279391D01*
X96188Y279434D01*
X95000Y279591D01*
X93812Y279434D01*
X93707Y279391D01*
X93706Y279392D01*
X93598Y279553D01*
X93486Y279721D01*
X93485Y279721D01*
X93485Y279722D01*
X93321Y279831D01*
X93155Y279942D01*
X93154Y279942D01*
X93154Y279943D01*
X92959Y279981D01*
X92765Y280020D01*
X87235D01*
X87041Y279981D01*
X86847Y279943D01*
X86846Y279942D01*
X86845Y279942D01*
X86679Y279831D01*
X86515Y279722D01*
X86515Y279721D01*
X86514Y279721D01*
X86402Y279553D01*
X86294Y279392D01*
X86293Y279391D01*
X86188Y279434D01*
X85000Y279591D01*
X83812Y279434D01*
X83707Y279391D01*
X83706Y279392D01*
X83598Y279553D01*
X83486Y279721D01*
X83485Y279721D01*
X83485Y279722D01*
X83321Y279831D01*
X83155Y279942D01*
X83154Y279942D01*
X83153Y279943D01*
X82959Y279981D01*
X82765Y280020D01*
X77235D01*
X77041Y279981D01*
X76846Y279943D01*
X76846Y279942D01*
X76845Y279942D01*
X76679Y279831D01*
X76515Y279722D01*
X76515Y279721D01*
X76514Y279721D01*
X76402Y279553D01*
X76294Y279392D01*
X76293Y279391D01*
X76188Y279434D01*
X75000Y279591D01*
X73812Y279434D01*
X73707Y279391D01*
X73706Y279392D01*
X73598Y279553D01*
X73486Y279721D01*
X73485Y279721D01*
X73485Y279722D01*
X73321Y279831D01*
X73155Y279942D01*
X73154Y279942D01*
X73154Y279943D01*
X72959Y279981D01*
X72765Y280020D01*
X67235D01*
X67041Y279981D01*
X66847Y279943D01*
X66846Y279942D01*
X66845Y279942D01*
X66679Y279831D01*
X66515Y279722D01*
X66515Y279721D01*
X66514Y279721D01*
X66402Y279553D01*
X66294Y279392D01*
X66293Y279391D01*
X66188Y279434D01*
X65000Y279591D01*
X63812Y279434D01*
X63707Y279391D01*
X63706Y279392D01*
X63598Y279553D01*
X63486Y279721D01*
X63485Y279721D01*
X63485Y279722D01*
X63321Y279831D01*
X63155Y279942D01*
X63154Y279942D01*
X63153Y279943D01*
X62959Y279981D01*
X62765Y280020D01*
X57235D01*
X57041Y279981D01*
X56846Y279943D01*
X56846Y279942D01*
X56845Y279942D01*
X56679Y279831D01*
X56515Y279722D01*
X56515Y279721D01*
X56514Y279721D01*
X56402Y279553D01*
X56294Y279392D01*
X56293Y279391D01*
X56188Y279434D01*
X55000Y279591D01*
X53812Y279434D01*
X53707Y279391D01*
X53706Y279392D01*
X53598Y279553D01*
X53486Y279721D01*
X53485Y279721D01*
X53485Y279722D01*
X53321Y279831D01*
X53155Y279942D01*
X53154Y279942D01*
X53154Y279943D01*
X52959Y279981D01*
X52765Y280020D01*
X48085D01*
X48051Y280013D01*
X48018Y280017D01*
X47857Y279974D01*
X47694Y279942D01*
X47666Y279923D01*
X47634Y279914D01*
X47502Y279813D01*
X47364Y279721D01*
X47345Y279693D01*
X47318Y279672D01*
X47235Y279528D01*
X47143Y279390D01*
X46691Y279226D01*
X46188Y279434D01*
X45000Y279591D01*
X43812Y279434D01*
X42705Y278976D01*
X41754Y278246D01*
X41025Y277295D01*
X40566Y276188D01*
X40410Y275000D01*
X40566Y273812D01*
X41025Y272705D01*
X41754Y271754D01*
X42705Y271024D01*
X43812Y270566D01*
X43970Y270545D01*
X44059Y270420D01*
Y265000D01*
X44137Y264610D01*
X44358Y264279D01*
X46675Y261962D01*
X46410Y261520D01*
X45967Y261654D01*
X44484Y261800D01*
X43002Y261654D01*
X41576Y261222D01*
X40262Y260520D01*
X39110Y259575D01*
X38165Y258423D01*
X37463Y257109D01*
X37436Y257018D01*
X37247Y256897D01*
X36901Y256790D01*
X36809Y256801D01*
X36722Y256832D01*
X36614Y256825D01*
X36506Y256839D01*
X36417Y256814D01*
X36325Y256809D01*
X36227Y256762D01*
X36123Y256733D01*
X36050Y256676D01*
X35967Y256636D01*
X35895Y256555D01*
X35809Y256488D01*
X26986Y246261D01*
X26656Y246409D01*
X26534Y246503D01*
X26397Y247544D01*
X25994Y248517D01*
X25353Y249353D01*
X24517Y249994D01*
X23544Y250397D01*
X22500Y250535D01*
X21456Y250397D01*
X20483Y249994D01*
X19647Y249353D01*
X19006Y248517D01*
X18603Y247544D01*
X18465Y246500D01*
X18603Y245456D01*
X19006Y244483D01*
X19647Y243647D01*
X20483Y243006D01*
X21456Y242603D01*
X22500Y242465D01*
X23122Y242547D01*
X23376Y242076D01*
X21728Y240166D01*
X21648Y240025D01*
X21558Y239890D01*
X21551Y239853D01*
X21532Y239820D01*
X21512Y239659D01*
X21480Y239500D01*
Y226520D01*
X21558Y226129D01*
X21638Y226010D01*
X21558Y225890D01*
X21480Y225500D01*
Y181000D01*
X21558Y180610D01*
X21779Y180279D01*
X22110Y180058D01*
X22500Y179980D01*
X28097D01*
X28228Y180006D01*
X28361Y180015D01*
X28421Y180045D01*
X28487Y180058D01*
X28598Y180132D01*
X28718Y180191D01*
X28762Y180242D01*
X28818Y180279D01*
X28892Y180390D01*
X28980Y180490D01*
X29002Y180554D01*
X29039Y180610D01*
X29051Y180668D01*
X29397Y181503D01*
X29874Y182126D01*
X30497Y182603D01*
X31222Y182904D01*
X32000Y183006D01*
X32778Y182904D01*
X33503Y182603D01*
X34126Y182126D01*
X34603Y181503D01*
X34949Y180668D01*
X34961Y180610D01*
X34998Y180554D01*
X35020Y180490D01*
X35108Y180390D01*
X35182Y180279D01*
X35238Y180242D01*
X35282Y180191D01*
X35402Y180132D01*
X35513Y180058D01*
X35579Y180045D01*
X35639Y180015D01*
X35772Y180006D01*
X35903Y179980D01*
X39511D01*
X39535Y179985D01*
X39561Y179982D01*
X39730Y180024D01*
X39901Y180058D01*
X39922Y180072D01*
X39946Y180078D01*
X40087Y180182D01*
X40231Y180279D01*
X40246Y180300D01*
X40266Y180315D01*
X40356Y180465D01*
X40453Y180610D01*
X40928Y180636D01*
X41576Y180290D01*
X43002Y179858D01*
X44484Y179711D01*
X45967Y179858D01*
X47392Y180290D01*
X48040Y180636D01*
X48516Y180610D01*
X48613Y180465D01*
X48702Y180315D01*
X48723Y180300D01*
X48737Y180279D01*
X48882Y180182D01*
X49022Y180078D01*
X49047Y180072D01*
X49068Y180058D01*
X49239Y180024D01*
X49408Y179982D01*
X49433Y179985D01*
X49458Y179980D01*
X60000D01*
X60390Y180058D01*
X60721Y180279D01*
X60942Y180610D01*
X61020Y181000D01*
Y205578D01*
X63422Y207980D01*
X73312D01*
X73386Y207995D01*
X73461Y207991D01*
X73579Y208034D01*
X73702Y208058D01*
X73765Y208100D01*
X73836Y208125D01*
X73929Y208209D01*
X74033Y208279D01*
X74075Y208342D01*
X74131Y208393D01*
X74184Y208506D01*
X74254Y208610D01*
X74291Y208632D01*
X75030Y208408D01*
X76500Y208264D01*
X77970Y208408D01*
X78474Y208561D01*
X78569Y208331D01*
X79291Y207391D01*
X80231Y206669D01*
X81325Y206216D01*
X82500Y206061D01*
X83675Y206216D01*
X84769Y206669D01*
X85709Y207391D01*
X86162Y207980D01*
X88500D01*
X88890Y208058D01*
X89221Y208279D01*
X89442Y208610D01*
X89520Y209000D01*
Y225500D01*
X89442Y225890D01*
X89362Y226010D01*
X89442Y226129D01*
X89520Y226520D01*
Y243480D01*
X109579D01*
X109969Y243558D01*
X110300Y243779D01*
X124353Y257833D01*
X124827Y257599D01*
X124761Y257100D01*
X124916Y255925D01*
X125369Y254831D01*
X126091Y253891D01*
X127031Y253169D01*
X128125Y252716D01*
X129300Y252561D01*
X130475Y252716D01*
X131569Y253169D01*
X132509Y253891D01*
X133231Y254831D01*
X133684Y255925D01*
X133839Y257100D01*
X133684Y258275D01*
X133231Y259369D01*
X132509Y260309D01*
X131569Y261031D01*
X130475Y261484D01*
X129300Y261639D01*
X128801Y261573D01*
X128568Y262047D01*
X134300Y267779D01*
X134521Y268110D01*
X134598Y268500D01*
X134598Y288000D01*
X134521Y288390D01*
X134300Y288721D01*
X133969Y288942D01*
X133579Y289020D01*
D02*
G37*
G36*
X106000Y288954D02*
Y286000D01*
X108955D01*
X108947Y286058D01*
X108539Y287043D01*
X107889Y287889D01*
X107043Y288539D01*
X106058Y288947D01*
X106000Y288954D01*
D02*
G37*
G36*
X104000D02*
X103942Y288947D01*
X102957Y288539D01*
X102111Y287889D01*
X101461Y287043D01*
X101053Y286058D01*
X101046Y286000D01*
X104000D01*
Y288954D01*
D02*
G37*
G36*
X96000D02*
Y286000D01*
X98954D01*
X98947Y286058D01*
X98539Y287043D01*
X97889Y287889D01*
X97043Y288539D01*
X96058Y288947D01*
X96000Y288954D01*
D02*
G37*
G36*
X94000D02*
X93942Y288947D01*
X92957Y288539D01*
X92111Y287889D01*
X91461Y287043D01*
X91053Y286058D01*
X91045Y286000D01*
X94000D01*
Y288954D01*
D02*
G37*
G36*
X86000D02*
Y286000D01*
X88955D01*
X88947Y286058D01*
X88539Y287043D01*
X87889Y287889D01*
X87043Y288539D01*
X86058Y288947D01*
X86000Y288954D01*
D02*
G37*
G36*
X84000D02*
X83942Y288947D01*
X82957Y288539D01*
X82111Y287889D01*
X81461Y287043D01*
X81053Y286058D01*
X81046Y286000D01*
X84000D01*
Y288954D01*
D02*
G37*
G36*
X76000D02*
Y286000D01*
X78954D01*
X78947Y286058D01*
X78539Y287043D01*
X77889Y287889D01*
X77043Y288539D01*
X76058Y288947D01*
X76000Y288954D01*
D02*
G37*
G36*
X74000D02*
X73942Y288947D01*
X72957Y288539D01*
X72111Y287889D01*
X71461Y287043D01*
X71053Y286058D01*
X71046Y286000D01*
X74000D01*
Y288954D01*
D02*
G37*
G36*
X66000D02*
Y286000D01*
X68954D01*
X68947Y286058D01*
X68539Y287043D01*
X67889Y287889D01*
X67043Y288539D01*
X66058Y288947D01*
X66000Y288954D01*
D02*
G37*
G36*
X64000D02*
X63942Y288947D01*
X62957Y288539D01*
X62111Y287889D01*
X61461Y287043D01*
X61053Y286058D01*
X61045Y286000D01*
X64000D01*
Y288954D01*
D02*
G37*
G36*
X56000D02*
Y286000D01*
X58955D01*
X58947Y286058D01*
X58539Y287043D01*
X57889Y287889D01*
X57043Y288539D01*
X56058Y288947D01*
X56000Y288954D01*
D02*
G37*
G36*
X54000D02*
X53942Y288947D01*
X52957Y288539D01*
X52111Y287889D01*
X51461Y287043D01*
X51053Y286058D01*
X51046Y286000D01*
X54000D01*
Y288954D01*
D02*
G37*
G36*
X152000Y287196D02*
Y285000D01*
X154196D01*
X154054Y285341D01*
X153311Y286311D01*
X152341Y287054D01*
X152000Y287196D01*
D02*
G37*
G36*
X148000D02*
X147659Y287054D01*
X146689Y286311D01*
X145946Y285341D01*
X145804Y285000D01*
X148000D01*
Y287196D01*
D02*
G37*
G36*
X108955Y284000D02*
X106000D01*
Y281046D01*
X106058Y281053D01*
X107043Y281461D01*
X107889Y282111D01*
X108539Y282957D01*
X108947Y283942D01*
X108955Y284000D01*
D02*
G37*
G36*
X104000D02*
X101046D01*
X101053Y283942D01*
X101461Y282957D01*
X102111Y282111D01*
X102957Y281461D01*
X103942Y281053D01*
X104000Y281046D01*
Y284000D01*
D02*
G37*
G36*
X98954D02*
X96000D01*
Y281046D01*
X96058Y281053D01*
X97043Y281461D01*
X97889Y282111D01*
X98539Y282957D01*
X98947Y283942D01*
X98954Y284000D01*
D02*
G37*
G36*
X94000D02*
X91045D01*
X91053Y283942D01*
X91461Y282957D01*
X92111Y282111D01*
X92957Y281461D01*
X93942Y281053D01*
X94000Y281046D01*
Y284000D01*
D02*
G37*
G36*
X88955D02*
X86000D01*
Y281046D01*
X86058Y281053D01*
X87043Y281461D01*
X87889Y282111D01*
X88539Y282957D01*
X88947Y283942D01*
X88955Y284000D01*
D02*
G37*
G36*
X84000D02*
X81046D01*
X81053Y283942D01*
X81461Y282957D01*
X82111Y282111D01*
X82957Y281461D01*
X83942Y281053D01*
X84000Y281046D01*
Y284000D01*
D02*
G37*
G36*
X78954D02*
X76000D01*
Y281046D01*
X76058Y281053D01*
X77043Y281461D01*
X77889Y282111D01*
X78539Y282957D01*
X78947Y283942D01*
X78954Y284000D01*
D02*
G37*
G36*
X74000D02*
X71046D01*
X71053Y283942D01*
X71461Y282957D01*
X72111Y282111D01*
X72957Y281461D01*
X73942Y281053D01*
X74000Y281046D01*
Y284000D01*
D02*
G37*
G36*
X68954D02*
X66000D01*
Y281046D01*
X66058Y281053D01*
X67043Y281461D01*
X67889Y282111D01*
X68539Y282957D01*
X68947Y283942D01*
X68954Y284000D01*
D02*
G37*
G36*
X64000D02*
X61045D01*
X61053Y283942D01*
X61461Y282957D01*
X62111Y282111D01*
X62957Y281461D01*
X63942Y281053D01*
X64000Y281046D01*
Y284000D01*
D02*
G37*
G36*
X58955D02*
X56000D01*
Y281046D01*
X56058Y281053D01*
X57043Y281461D01*
X57889Y282111D01*
X58539Y282957D01*
X58947Y283942D01*
X58955Y284000D01*
D02*
G37*
G36*
X54000D02*
X51046D01*
X51053Y283942D01*
X51461Y282957D01*
X52111Y282111D01*
X52957Y281461D01*
X53942Y281053D01*
X54000Y281046D01*
Y284000D01*
D02*
G37*
G36*
X45000Y289591D02*
X43812Y289434D01*
X42705Y288976D01*
X41754Y288246D01*
X41025Y287295D01*
X40566Y286188D01*
X40410Y285000D01*
X40566Y283812D01*
X41025Y282705D01*
X41754Y281754D01*
X42705Y281025D01*
X43812Y280566D01*
X45000Y280410D01*
X46188Y280566D01*
X47295Y281025D01*
X48246Y281754D01*
X48976Y282705D01*
X49434Y283812D01*
X49590Y285000D01*
X49434Y286188D01*
X48976Y287295D01*
X48246Y288246D01*
X47295Y288976D01*
X46188Y289434D01*
X45000Y289591D01*
D02*
G37*
G36*
X35000D02*
X33812Y289434D01*
X32705Y288976D01*
X31754Y288246D01*
X31025Y287295D01*
X30566Y286188D01*
X30410Y285000D01*
X30566Y283812D01*
X31025Y282705D01*
X31754Y281754D01*
X32705Y281025D01*
X33812Y280566D01*
X35000Y280410D01*
X36188Y280566D01*
X37295Y281025D01*
X38246Y281754D01*
X38976Y282705D01*
X39434Y283812D01*
X39590Y285000D01*
X39434Y286188D01*
X38976Y287295D01*
X38246Y288246D01*
X37295Y288976D01*
X36188Y289434D01*
X35000Y289591D01*
D02*
G37*
G36*
X154196Y281000D02*
X152000D01*
Y278804D01*
X152341Y278945D01*
X153311Y279690D01*
X154054Y280659D01*
X154196Y281000D01*
D02*
G37*
G36*
X148000D02*
X145804D01*
X145946Y280659D01*
X146689Y279690D01*
X147659Y278945D01*
X148000Y278804D01*
Y281000D01*
D02*
G37*
G36*
X185000Y292837D02*
X183471Y292686D01*
X182001Y292240D01*
X180646Y291516D01*
X179458Y290542D01*
X178484Y289354D01*
X177760Y287999D01*
X177314Y286529D01*
X177163Y285000D01*
X177314Y283471D01*
X177760Y282001D01*
X178484Y280646D01*
X179458Y279458D01*
X180646Y278484D01*
X182001Y277760D01*
X183471Y277314D01*
X185000Y277163D01*
X186529Y277314D01*
X187999Y277760D01*
X189354Y278484D01*
X190542Y279458D01*
X191516Y280646D01*
X192240Y282001D01*
X192686Y283471D01*
X192837Y285000D01*
X192686Y286529D01*
X192240Y287999D01*
X191516Y289354D01*
X190542Y290542D01*
X189354Y291516D01*
X187999Y292240D01*
X186529Y292686D01*
X185000Y292837D01*
D02*
G37*
G36*
X15000D02*
X13471Y292686D01*
X12001Y292240D01*
X10646Y291516D01*
X9458Y290542D01*
X8484Y289354D01*
X7760Y287999D01*
X7314Y286529D01*
X7163Y285000D01*
X7314Y283471D01*
X7760Y282001D01*
X8484Y280646D01*
X9458Y279458D01*
X10646Y278484D01*
X12001Y277760D01*
X13471Y277314D01*
X15000Y277163D01*
X16529Y277314D01*
X17999Y277760D01*
X19354Y278484D01*
X20542Y279458D01*
X21516Y280646D01*
X22240Y282001D01*
X22686Y283471D01*
X22837Y285000D01*
X22686Y286529D01*
X22240Y287999D01*
X21516Y289354D01*
X20542Y290542D01*
X19354Y291516D01*
X17999Y292240D01*
X16529Y292686D01*
X15000Y292837D01*
D02*
G37*
G36*
X39551Y279551D02*
X30449D01*
Y270449D01*
X39551D01*
Y279551D01*
D02*
G37*
G36*
X7000Y272403D02*
Y269500D01*
X9903D01*
X9897Y269544D01*
X9494Y270517D01*
X8853Y271353D01*
X8017Y271994D01*
X7044Y272397D01*
X7000Y272403D01*
D02*
G37*
G36*
X5000D02*
X4956Y272397D01*
X3983Y271994D01*
X3147Y271353D01*
X2506Y270517D01*
X2103Y269544D01*
X2097Y269500D01*
X5000D01*
Y272403D01*
D02*
G37*
G36*
X9903Y267500D02*
X7000D01*
Y264597D01*
X7044Y264603D01*
X8017Y265006D01*
X8853Y265647D01*
X9494Y266483D01*
X9897Y267456D01*
X9903Y267500D01*
D02*
G37*
G36*
X5000D02*
X2097D01*
X2103Y267456D01*
X2506Y266483D01*
X3147Y265647D01*
X3983Y265006D01*
X4956Y264603D01*
X5000Y264597D01*
Y267500D01*
D02*
G37*
G36*
X192500Y265139D02*
X191325Y264984D01*
X190231Y264531D01*
X189291Y263809D01*
X188569Y262869D01*
X188116Y261775D01*
X187961Y260600D01*
X188116Y259425D01*
X188569Y258331D01*
X189291Y257391D01*
X190231Y256669D01*
X191325Y256216D01*
X192500Y256061D01*
X193675Y256216D01*
X194769Y256669D01*
X195709Y257391D01*
X196431Y258331D01*
X196884Y259425D01*
X197039Y260600D01*
X196884Y261775D01*
X196431Y262869D01*
X195709Y263809D01*
X194769Y264531D01*
X193675Y264984D01*
X192500Y265139D01*
D02*
G37*
G36*
X149000Y261639D02*
X147825Y261484D01*
X146731Y261031D01*
X145791Y260309D01*
X145069Y259369D01*
X144616Y258275D01*
X144461Y257100D01*
X144616Y255925D01*
X145069Y254831D01*
X145791Y253891D01*
X146731Y253169D01*
X147825Y252716D01*
X149000Y252561D01*
X150175Y252716D01*
X151269Y253169D01*
X152209Y253891D01*
X152931Y254831D01*
X153384Y255925D01*
X153539Y257100D01*
X153384Y258275D01*
X152931Y259369D01*
X152209Y260309D01*
X151269Y261031D01*
X150175Y261484D01*
X149000Y261639D01*
D02*
G37*
G36*
X192500Y255139D02*
X191325Y254984D01*
X190231Y254531D01*
X189291Y253809D01*
X188569Y252869D01*
X188116Y251775D01*
X187961Y250600D01*
X188116Y249425D01*
X188569Y248331D01*
X189291Y247391D01*
X190231Y246669D01*
X191325Y246216D01*
X192500Y246061D01*
X193675Y246216D01*
X194769Y246669D01*
X195709Y247391D01*
X196431Y248331D01*
X196884Y249425D01*
X197039Y250600D01*
X196884Y251775D01*
X196431Y252869D01*
X195709Y253809D01*
X194769Y254531D01*
X193675Y254984D01*
X192500Y255139D01*
D02*
G37*
G36*
X140000Y237538D02*
Y236500D01*
X141038D01*
X140622Y237122D01*
X140000Y237538D01*
D02*
G37*
G36*
X138000D02*
X137378Y237122D01*
X136962Y236500D01*
X138000D01*
Y237538D01*
D02*
G37*
G36*
X192500Y245139D02*
X191325Y244984D01*
X190231Y244531D01*
X189291Y243809D01*
X188569Y242869D01*
X188116Y241775D01*
X187961Y240600D01*
X188116Y239425D01*
X188569Y238331D01*
X189291Y237391D01*
X190231Y236669D01*
X191325Y236216D01*
X192500Y236061D01*
X193675Y236216D01*
X194769Y236669D01*
X195709Y237391D01*
X196431Y238331D01*
X196884Y239425D01*
X197039Y240600D01*
X196884Y241775D01*
X196431Y242869D01*
X195709Y243809D01*
X194769Y244531D01*
X193675Y244984D01*
X192500Y245139D01*
D02*
G37*
G36*
X141038Y234500D02*
X140000D01*
Y233462D01*
X140622Y233878D01*
X141038Y234500D01*
D02*
G37*
G36*
X138000D02*
X136962D01*
X137378Y233878D01*
X138000Y233462D01*
Y234500D01*
D02*
G37*
G36*
X192500Y235139D02*
X191325Y234984D01*
X190231Y234531D01*
X189291Y233809D01*
X188569Y232869D01*
X188116Y231775D01*
X187961Y230600D01*
X188116Y229425D01*
X188569Y228331D01*
X189291Y227391D01*
X190231Y226669D01*
X191325Y226216D01*
X192500Y226061D01*
X193675Y226216D01*
X194769Y226669D01*
X195709Y227391D01*
X196431Y228331D01*
X196884Y229425D01*
X197039Y230600D01*
X196884Y231775D01*
X196431Y232869D01*
X195709Y233809D01*
X194769Y234531D01*
X193675Y234984D01*
X192500Y235139D01*
D02*
G37*
G36*
X153500Y222874D02*
Y220500D01*
X155874D01*
X155557Y221265D01*
X154996Y221996D01*
X154265Y222557D01*
X153500Y222874D01*
D02*
G37*
G36*
X151500D02*
X150735Y222557D01*
X150004Y221996D01*
X149443Y221265D01*
X149126Y220500D01*
X151500D01*
Y222874D01*
D02*
G37*
G36*
X155874Y218500D02*
X153500D01*
Y216126D01*
X154265Y216443D01*
X154996Y217004D01*
X155557Y217735D01*
X155874Y218500D01*
D02*
G37*
G36*
X151500D02*
X149126D01*
X149443Y217735D01*
X150004Y217004D01*
X150735Y216443D01*
X151500Y216126D01*
Y218500D01*
D02*
G37*
G36*
X192500Y225139D02*
X191325Y224984D01*
X190231Y224531D01*
X189291Y223809D01*
X188569Y222869D01*
X188116Y221775D01*
X187961Y220600D01*
X188116Y219425D01*
X188569Y218331D01*
X189291Y217391D01*
X190231Y216669D01*
X191325Y216216D01*
X192500Y216061D01*
X193675Y216216D01*
X194769Y216669D01*
X195709Y217391D01*
X196431Y218331D01*
X196884Y219425D01*
X197039Y220600D01*
X196884Y221775D01*
X196431Y222869D01*
X195709Y223809D01*
X194769Y224531D01*
X193675Y224984D01*
X192500Y225139D01*
D02*
G37*
G36*
X168500Y216706D02*
X167782Y216612D01*
X167113Y216335D01*
X166539Y215894D01*
X166098Y215319D01*
X165821Y214650D01*
X165726Y213932D01*
X165821Y213214D01*
X166098Y212545D01*
X166539Y211971D01*
X167113Y211530D01*
X167782Y211253D01*
X168500Y211159D01*
X169218Y211253D01*
X169887Y211530D01*
X170461Y211971D01*
X170902Y212545D01*
X171179Y213214D01*
X171274Y213932D01*
X171179Y214650D01*
X170902Y215319D01*
X170461Y215894D01*
X169887Y216335D01*
X169218Y216612D01*
X168500Y216706D01*
D02*
G37*
G36*
X112500Y212374D02*
Y210000D01*
X114874D01*
X114557Y210765D01*
X113996Y211496D01*
X113265Y212057D01*
X112500Y212374D01*
D02*
G37*
G36*
X110500D02*
X109735Y212057D01*
X109004Y211496D01*
X108443Y210765D01*
X108126Y210000D01*
X110500D01*
Y212374D01*
D02*
G37*
G36*
X192500Y215139D02*
X191325Y214984D01*
X190231Y214531D01*
X189291Y213809D01*
X188569Y212869D01*
X188116Y211775D01*
X187961Y210600D01*
X188116Y209425D01*
X188569Y208331D01*
X189291Y207391D01*
X190231Y206669D01*
X191325Y206216D01*
X192500Y206061D01*
X193675Y206216D01*
X194769Y206669D01*
X195709Y207391D01*
X196431Y208331D01*
X196884Y209425D01*
X197039Y210600D01*
X196884Y211775D01*
X196431Y212869D01*
X195709Y213809D01*
X194769Y214531D01*
X193675Y214984D01*
X192500Y215139D01*
D02*
G37*
G36*
X114874Y208000D02*
X112500D01*
Y205626D01*
X113265Y205943D01*
X113996Y206504D01*
X114557Y207235D01*
X114874Y208000D01*
D02*
G37*
G36*
X110500D02*
X108126D01*
X108443Y207235D01*
X109004Y206504D01*
X109735Y205943D01*
X110500Y205626D01*
Y208000D01*
D02*
G37*
G36*
X86500Y204600D02*
X83500D01*
Y201600D01*
X86500D01*
Y204600D01*
D02*
G37*
G36*
X81500D02*
X79250D01*
Y198850D01*
X86500D01*
Y199600D01*
X82500D01*
Y200600D01*
X81500D01*
Y204600D01*
D02*
G37*
G36*
X73750Y203600D02*
X69000D01*
Y198850D01*
X73750D01*
Y203600D01*
D02*
G37*
G36*
X192500Y205139D02*
X191325Y204984D01*
X190231Y204531D01*
X189291Y203809D01*
X188569Y202869D01*
X188116Y201775D01*
X187961Y200600D01*
X188116Y199425D01*
X188569Y198331D01*
X189291Y197391D01*
X190231Y196669D01*
X191325Y196216D01*
X192500Y196061D01*
X193675Y196216D01*
X194769Y196669D01*
X195709Y197391D01*
X196431Y198331D01*
X196884Y199425D01*
X197039Y200600D01*
X196884Y201775D01*
X196431Y202869D01*
X195709Y203809D01*
X194769Y204531D01*
X193675Y204984D01*
X192500Y205139D01*
D02*
G37*
G36*
X186500Y194600D02*
X183500D01*
Y191600D01*
X186500D01*
Y194600D01*
D02*
G37*
G36*
X196500D02*
X193500D01*
Y191600D01*
X196500D01*
Y194600D01*
D02*
G37*
G36*
X181500D02*
X178500D01*
Y191600D01*
X181500D01*
Y194600D01*
D02*
G37*
G36*
X191500D02*
X188500D01*
Y191600D01*
X191500D01*
Y194600D01*
D02*
G37*
G36*
X134500Y197535D02*
X133456Y197397D01*
X132483Y196994D01*
X131647Y196353D01*
X131006Y195517D01*
X130603Y194544D01*
X130465Y193500D01*
X130603Y192456D01*
X131006Y191483D01*
X131647Y190647D01*
X132483Y190006D01*
X133456Y189603D01*
X134500Y189465D01*
X135544Y189603D01*
X136517Y190006D01*
X137353Y190647D01*
X137994Y191483D01*
X138397Y192456D01*
X138534Y193500D01*
X138397Y194544D01*
X137994Y195517D01*
X137353Y196353D01*
X136517Y196994D01*
X135544Y197397D01*
X134500Y197535D01*
D02*
G37*
G36*
X73750Y193350D02*
X69000D01*
Y188600D01*
X73750D01*
Y193350D01*
D02*
G37*
G36*
X196500Y189600D02*
X193500D01*
Y186600D01*
X196500D01*
Y189600D01*
D02*
G37*
G36*
X191500D02*
X188500D01*
Y186600D01*
X191500D01*
Y189600D01*
D02*
G37*
G36*
X186500D02*
X183500D01*
Y186600D01*
X186500D01*
Y189600D01*
D02*
G37*
G36*
X181500D02*
X178500D01*
Y186600D01*
X181500D01*
Y189600D01*
D02*
G37*
G36*
X86500D02*
X83500D01*
Y186600D01*
X86500D01*
Y189600D01*
D02*
G37*
G36*
Y193350D02*
X79250D01*
Y186600D01*
X81500D01*
Y190600D01*
X82500D01*
Y191600D01*
X86500D01*
Y193350D01*
D02*
G37*
G36*
X140500Y191774D02*
X139782Y191679D01*
X139113Y191402D01*
X138539Y190961D01*
X138098Y190387D01*
X137821Y189718D01*
X137726Y189000D01*
X137821Y188282D01*
X138098Y187613D01*
X138539Y187039D01*
X139113Y186598D01*
X139782Y186321D01*
X140500Y186226D01*
X141218Y186321D01*
X141887Y186598D01*
X142461Y187039D01*
X142902Y187613D01*
X143179Y188282D01*
X143274Y189000D01*
X143179Y189718D01*
X142902Y190387D01*
X142461Y190961D01*
X141887Y191402D01*
X141218Y191679D01*
X140500Y191774D01*
D02*
G37*
G36*
X172500Y195139D02*
X171325Y194984D01*
X170231Y194531D01*
X169291Y193809D01*
X168569Y192869D01*
X168116Y191775D01*
X167961Y190600D01*
X168116Y189425D01*
X168569Y188331D01*
X169291Y187391D01*
X170231Y186669D01*
X171325Y186216D01*
X172500Y186061D01*
X173675Y186216D01*
X174769Y186669D01*
X175709Y187391D01*
X176431Y188331D01*
X176884Y189425D01*
X177039Y190600D01*
X176884Y191775D01*
X176431Y192869D01*
X175709Y193809D01*
X174769Y194531D01*
X173675Y194984D01*
X172500Y195139D01*
D02*
G37*
G36*
X121500Y191274D02*
X120782Y191179D01*
X120113Y190902D01*
X119539Y190461D01*
X119098Y189887D01*
X118821Y189218D01*
X118726Y188500D01*
X118821Y187782D01*
X119098Y187113D01*
X119539Y186539D01*
X120113Y186098D01*
X120782Y185821D01*
X121500Y185726D01*
X122218Y185821D01*
X122887Y186098D01*
X123461Y186539D01*
X123902Y187113D01*
X124179Y187782D01*
X124274Y188500D01*
X124179Y189218D01*
X123902Y189887D01*
X123461Y190461D01*
X122887Y190902D01*
X122218Y191179D01*
X121500Y191274D01*
D02*
G37*
G36*
X138953Y183453D02*
X130047D01*
Y174547D01*
X138953D01*
Y183453D01*
D02*
G37*
G36*
X124500Y183491D02*
X123338Y183338D01*
X122254Y182889D01*
X121324Y182176D01*
X120610Y181246D01*
X120162Y180162D01*
X120009Y179000D01*
X120162Y177838D01*
X120610Y176754D01*
X121324Y175824D01*
X122254Y175110D01*
X123338Y174662D01*
X124500Y174509D01*
X125662Y174662D01*
X126746Y175110D01*
X127676Y175824D01*
X128390Y176754D01*
X128838Y177838D01*
X128991Y179000D01*
X128838Y180162D01*
X128390Y181246D01*
X127676Y182176D01*
X126746Y182889D01*
X125662Y183338D01*
X124500Y183491D01*
D02*
G37*
G36*
X114500D02*
X113338Y183338D01*
X112254Y182889D01*
X111324Y182176D01*
X110610Y181246D01*
X110162Y180162D01*
X110009Y179000D01*
X110162Y177838D01*
X110610Y176754D01*
X111324Y175824D01*
X112254Y175110D01*
X113338Y174662D01*
X114500Y174509D01*
X115662Y174662D01*
X116746Y175110D01*
X117676Y175824D01*
X118389Y176754D01*
X118838Y177838D01*
X118991Y179000D01*
X118838Y180162D01*
X118389Y181246D01*
X117676Y182176D01*
X116746Y182889D01*
X115662Y183338D01*
X114500Y183491D01*
D02*
G37*
G36*
X177300Y183039D02*
X176125Y182884D01*
X175031Y182431D01*
X174091Y181709D01*
X173369Y180769D01*
X172916Y179675D01*
X172761Y178500D01*
X172916Y177325D01*
X173369Y176231D01*
X174091Y175291D01*
X175031Y174569D01*
X176125Y174116D01*
X177300Y173961D01*
X178475Y174116D01*
X179569Y174569D01*
X180509Y175291D01*
X181231Y176231D01*
X181684Y177325D01*
X181839Y178500D01*
X181684Y179675D01*
X181231Y180769D01*
X180509Y181709D01*
X179569Y182431D01*
X178475Y182884D01*
X177300Y183039D01*
D02*
G37*
G36*
X57945Y175374D02*
Y173000D01*
X60319D01*
X60002Y173765D01*
X59441Y174496D01*
X58710Y175057D01*
X57945Y175374D01*
D02*
G37*
G36*
X55945D02*
X55180Y175057D01*
X54449Y174496D01*
X53888Y173765D01*
X53571Y173000D01*
X55945D01*
Y175374D01*
D02*
G37*
G36*
X125000Y173356D02*
Y172318D01*
X126038D01*
X125622Y172940D01*
X125000Y173356D01*
D02*
G37*
G36*
X123000D02*
X122378Y172940D01*
X121962Y172318D01*
X123000D01*
Y173356D01*
D02*
G37*
G36*
X126038Y170318D02*
X125000D01*
Y169280D01*
X125622Y169696D01*
X126038Y170318D01*
D02*
G37*
G36*
X123000D02*
X121962D01*
X122378Y169696D01*
X123000Y169280D01*
Y170318D01*
D02*
G37*
G36*
X60319Y171000D02*
X57945D01*
Y168626D01*
X58710Y168943D01*
X59441Y169504D01*
X60002Y170235D01*
X60319Y171000D01*
D02*
G37*
G36*
X55945D02*
X53571D01*
X53888Y170235D01*
X54449Y169504D01*
X55180Y168943D01*
X55945Y168626D01*
Y171000D01*
D02*
G37*
G36*
X16000Y168915D02*
Y166012D01*
X18903D01*
X18897Y166056D01*
X18494Y167029D01*
X17853Y167865D01*
X17017Y168506D01*
X16044Y168909D01*
X16000Y168915D01*
D02*
G37*
G36*
X14000D02*
X13956Y168909D01*
X12983Y168506D01*
X12147Y167865D01*
X11506Y167029D01*
X11103Y166056D01*
X11097Y166012D01*
X14000D01*
Y168915D01*
D02*
G37*
G36*
X170000Y174487D02*
X168839Y174334D01*
X167756Y173886D01*
X166827Y173173D01*
X166114Y172244D01*
X165666Y171161D01*
X165513Y170000D01*
X165666Y168839D01*
X166114Y167756D01*
X166827Y166827D01*
X167756Y166114D01*
X168839Y165666D01*
X170000Y165513D01*
X171161Y165666D01*
X172244Y166114D01*
X173173Y166827D01*
X173886Y167756D01*
X174334Y168839D01*
X174487Y170000D01*
X174334Y171161D01*
X173886Y172244D01*
X173173Y173173D01*
X172244Y173886D01*
X171161Y174334D01*
X170000Y174487D01*
D02*
G37*
G36*
X18903Y164012D02*
X16000D01*
Y161109D01*
X16044Y161115D01*
X17017Y161518D01*
X17853Y162159D01*
X18494Y162995D01*
X18897Y163968D01*
X18903Y164012D01*
D02*
G37*
G36*
X14000D02*
X11097D01*
X11103Y163968D01*
X11506Y162995D01*
X12147Y162159D01*
X12983Y161518D01*
X13956Y161115D01*
X14000Y161109D01*
Y164012D01*
D02*
G37*
G36*
X26811Y169551D02*
X25637Y169396D01*
X24542Y168942D01*
X23602Y168221D01*
X22881Y167281D01*
X22427Y166186D01*
X22272Y165012D01*
X22427Y163837D01*
X22881Y162742D01*
X23602Y161802D01*
X24542Y161081D01*
X25637Y160628D01*
X26811Y160473D01*
X27986Y160628D01*
X29081Y161081D01*
X30021Y161802D01*
X30742Y162742D01*
X31195Y163837D01*
X31350Y165012D01*
X31195Y166186D01*
X30742Y167281D01*
X30021Y168221D01*
X29081Y168942D01*
X27986Y169396D01*
X26811Y169551D01*
D02*
G37*
G36*
X171000Y156135D02*
Y153284D01*
X173851D01*
X173847Y153314D01*
X173449Y154275D01*
X172816Y155100D01*
X171991Y155733D01*
X171031Y156131D01*
X171000Y156135D01*
D02*
G37*
G36*
X194590D02*
X194560Y156131D01*
X193599Y155733D01*
X192774Y155100D01*
X192141Y154275D01*
X191743Y153314D01*
X191739Y153284D01*
X194590D01*
Y156135D01*
D02*
G37*
G36*
X169000D02*
X168969Y156131D01*
X168009Y155733D01*
X167184Y155100D01*
X166551Y154275D01*
X166153Y153314D01*
X166149Y153284D01*
X169000D01*
Y156135D01*
D02*
G37*
G36*
X26811Y157739D02*
X25637Y157585D01*
X24542Y157131D01*
X23602Y156410D01*
X22881Y155470D01*
X22427Y154375D01*
X22272Y153201D01*
X22427Y152026D01*
X22881Y150931D01*
X23602Y149991D01*
X24542Y149270D01*
X25637Y148816D01*
X26811Y148662D01*
X27986Y148816D01*
X29081Y149270D01*
X30021Y149991D01*
X30742Y150931D01*
X31195Y152026D01*
X31350Y153201D01*
X31195Y154375D01*
X30742Y155470D01*
X30021Y156410D01*
X29081Y157131D01*
X27986Y157585D01*
X26811Y157739D01*
D02*
G37*
G36*
X15000D02*
X13825Y157585D01*
X12731Y157131D01*
X11791Y156410D01*
X11069Y155470D01*
X10616Y154375D01*
X10461Y153201D01*
X10616Y152026D01*
X11069Y150931D01*
X11791Y149991D01*
X12731Y149270D01*
X13825Y148816D01*
X15000Y148662D01*
X16175Y148816D01*
X17269Y149270D01*
X18209Y149991D01*
X18931Y150931D01*
X19384Y152026D01*
X19539Y153201D01*
X19384Y154375D01*
X18931Y155470D01*
X18209Y156410D01*
X17269Y157131D01*
X16175Y157585D01*
X15000Y157739D01*
D02*
G37*
G36*
X173851Y151284D02*
X171000D01*
Y148432D01*
X171031Y148436D01*
X171991Y148834D01*
X172816Y149467D01*
X173449Y150292D01*
X173847Y151253D01*
X173851Y151284D01*
D02*
G37*
G36*
X194590D02*
X191739D01*
X191743Y151253D01*
X192141Y150292D01*
X192774Y149467D01*
X193599Y148834D01*
X194560Y148436D01*
X194590Y148432D01*
Y151284D01*
D02*
G37*
G36*
X169000D02*
X166149D01*
X166153Y151253D01*
X166551Y150292D01*
X167184Y149467D01*
X168009Y148834D01*
X168969Y148436D01*
X169000Y148432D01*
Y151284D01*
D02*
G37*
G36*
X38622Y153030D02*
X37709Y152910D01*
X36857Y152557D01*
X36126Y151996D01*
X35565Y151265D01*
X35212Y150414D01*
X35092Y149500D01*
X35212Y148586D01*
X35565Y147735D01*
X36126Y147004D01*
X36857Y146443D01*
X37709Y146090D01*
X38622Y145970D01*
X39536Y146090D01*
X40387Y146443D01*
X41118Y147004D01*
X41679Y147735D01*
X42032Y148586D01*
X42152Y149500D01*
X42032Y150414D01*
X41679Y151265D01*
X41118Y151996D01*
X40387Y152557D01*
X39536Y152910D01*
X38622Y153030D01*
D02*
G37*
G36*
X122500Y148274D02*
X121782Y148179D01*
X121113Y147902D01*
X120539Y147461D01*
X120098Y146887D01*
X119821Y146218D01*
X119726Y145500D01*
X119821Y144782D01*
X120098Y144113D01*
X120539Y143539D01*
X121113Y143098D01*
X121782Y142821D01*
X122500Y142726D01*
X123218Y142821D01*
X123887Y143098D01*
X124461Y143539D01*
X124902Y144113D01*
X125179Y144782D01*
X125274Y145500D01*
X125179Y146218D01*
X124902Y146887D01*
X124461Y147461D01*
X123887Y147902D01*
X123218Y148179D01*
X122500Y148274D01*
D02*
G37*
G36*
X74500D02*
X73782Y148179D01*
X73113Y147902D01*
X72539Y147461D01*
X72098Y146887D01*
X71821Y146218D01*
X71726Y145500D01*
X71821Y144782D01*
X72098Y144113D01*
X72539Y143539D01*
X73113Y143098D01*
X73782Y142821D01*
X74500Y142726D01*
X75218Y142821D01*
X75887Y143098D01*
X76461Y143539D01*
X76902Y144113D01*
X77179Y144782D01*
X77274Y145500D01*
X77179Y146218D01*
X76902Y146887D01*
X76461Y147461D01*
X75887Y147902D01*
X75218Y148179D01*
X74500Y148274D01*
D02*
G37*
G36*
X47000Y150039D02*
X45825Y149884D01*
X44731Y149431D01*
X43791Y148709D01*
X43069Y147769D01*
X42616Y146675D01*
X42461Y145500D01*
X42616Y144325D01*
X43069Y143231D01*
X43791Y142291D01*
X44731Y141569D01*
X45825Y141116D01*
X47000Y140961D01*
X48175Y141116D01*
X49269Y141569D01*
X50209Y142291D01*
X50931Y143231D01*
X51384Y144325D01*
X51539Y145500D01*
X51384Y146675D01*
X50931Y147769D01*
X50209Y148709D01*
X49269Y149431D01*
X48175Y149884D01*
X47000Y150039D01*
D02*
G37*
G36*
X95000Y139509D02*
X94282Y139415D01*
X93613Y139138D01*
X93039Y138697D01*
X92598Y138123D01*
X92321Y137454D01*
X92226Y136736D01*
X92321Y136018D01*
X92598Y135349D01*
X93039Y134774D01*
X93613Y134334D01*
X94282Y134056D01*
X95000Y133962D01*
X95718Y134056D01*
X96387Y134334D01*
X96961Y134774D01*
X97402Y135349D01*
X97679Y136018D01*
X97774Y136736D01*
X97679Y137454D01*
X97402Y138123D01*
X96961Y138697D01*
X96387Y139138D01*
X95718Y139415D01*
X95000Y139509D01*
D02*
G37*
G36*
X105000Y142039D02*
X103825Y141884D01*
X102731Y141431D01*
X101791Y140709D01*
X101069Y139769D01*
X100616Y138675D01*
X100461Y137500D01*
X100616Y136325D01*
X101069Y135231D01*
X101791Y134291D01*
X102731Y133569D01*
X103825Y133116D01*
X105000Y132961D01*
X106175Y133116D01*
X107269Y133569D01*
X108209Y134291D01*
X108931Y135231D01*
X109384Y136325D01*
X109539Y137500D01*
X109384Y138675D01*
X108931Y139769D01*
X108209Y140709D01*
X107269Y141431D01*
X106175Y141884D01*
X105000Y142039D01*
D02*
G37*
G36*
X68000Y135774D02*
X67282Y135679D01*
X66613Y135402D01*
X66039Y134961D01*
X65598Y134387D01*
X65321Y133718D01*
X65226Y133000D01*
X65294Y132482D01*
X64926Y132144D01*
X64859Y132121D01*
X64718Y132179D01*
X64000Y132274D01*
X63282Y132179D01*
X62613Y131902D01*
X62039Y131461D01*
X61598Y130887D01*
X61321Y130218D01*
X61226Y129500D01*
X61321Y128782D01*
X61598Y128113D01*
X61417Y127528D01*
X61113Y127402D01*
X60539Y126961D01*
X60098Y126387D01*
X59821Y125718D01*
X59726Y125000D01*
X59821Y124282D01*
X60098Y123613D01*
X60539Y123039D01*
X61113Y122598D01*
X61782Y122321D01*
X62500Y122226D01*
X63218Y122321D01*
X63887Y122598D01*
X64461Y123039D01*
X64902Y123613D01*
X65179Y124282D01*
X65274Y125000D01*
X65179Y125718D01*
X64902Y126387D01*
X65083Y126972D01*
X65387Y127098D01*
X65961Y127539D01*
X66402Y128113D01*
X66679Y128782D01*
X66774Y129500D01*
X66706Y130018D01*
X67074Y130356D01*
X67141Y130379D01*
X67282Y130321D01*
X68000Y130226D01*
X68718Y130321D01*
X69387Y130598D01*
X69961Y131039D01*
X70402Y131613D01*
X70679Y132282D01*
X70774Y133000D01*
X70679Y133718D01*
X70402Y134387D01*
X69961Y134961D01*
X69387Y135402D01*
X68718Y135679D01*
X68000Y135774D01*
D02*
G37*
G36*
X162000Y134774D02*
X161282Y134679D01*
X160613Y134402D01*
X160039Y133961D01*
X159598Y133387D01*
X159321Y132718D01*
X159226Y132000D01*
X159321Y131282D01*
X159598Y130613D01*
X160039Y130039D01*
X160613Y129598D01*
X161282Y129321D01*
X162000Y129226D01*
X162718Y129321D01*
X163387Y129598D01*
X163961Y130039D01*
X164402Y130613D01*
X164679Y131282D01*
X164774Y132000D01*
X164679Y132718D01*
X164402Y133387D01*
X163961Y133961D01*
X163387Y134402D01*
X162718Y134679D01*
X162000Y134774D01*
D02*
G37*
G36*
X132500Y141039D02*
X131325Y140884D01*
X130231Y140431D01*
X129291Y139709D01*
X128569Y138769D01*
X128116Y137675D01*
X127961Y136500D01*
X128116Y135325D01*
X128569Y134231D01*
X129291Y133291D01*
X129910Y132815D01*
Y132185D01*
X129291Y131709D01*
X128569Y130769D01*
X128116Y129675D01*
X127961Y128500D01*
X128116Y127325D01*
X128569Y126231D01*
X129291Y125291D01*
X130231Y124569D01*
X131325Y124116D01*
X132500Y123961D01*
X133675Y124116D01*
X134769Y124569D01*
X135709Y125291D01*
X136431Y126231D01*
X136884Y127325D01*
X137039Y128500D01*
X136884Y129675D01*
X136431Y130769D01*
X135709Y131709D01*
X135090Y132185D01*
Y132815D01*
X135709Y133291D01*
X136431Y134231D01*
X136884Y135325D01*
X137039Y136500D01*
X136884Y137675D01*
X136431Y138769D01*
X135709Y139709D01*
X134769Y140431D01*
X133675Y140884D01*
X132500Y141039D01*
D02*
G37*
G36*
X119000Y132539D02*
X117825Y132384D01*
X116731Y131931D01*
X115791Y131209D01*
X115069Y130269D01*
X114616Y129175D01*
X114461Y128000D01*
X114616Y126825D01*
X115069Y125731D01*
X115791Y124791D01*
X116731Y124069D01*
X117825Y123616D01*
X119000Y123461D01*
X120175Y123616D01*
X121269Y124069D01*
X122209Y124791D01*
X122931Y125731D01*
X123384Y126825D01*
X123539Y128000D01*
X123384Y129175D01*
X122931Y130269D01*
X122209Y131209D01*
X121269Y131931D01*
X120175Y132384D01*
X119000Y132539D01*
D02*
G37*
G36*
X45500Y130539D02*
X44325Y130384D01*
X43231Y129931D01*
X42291Y129209D01*
X41569Y128269D01*
X41116Y127175D01*
X40961Y126000D01*
X41116Y124825D01*
X41569Y123731D01*
X42291Y122791D01*
X43231Y122069D01*
X44325Y121616D01*
X45500Y121461D01*
X46675Y121616D01*
X47769Y122069D01*
X48709Y122791D01*
X49431Y123731D01*
X49884Y124825D01*
X50039Y126000D01*
X49884Y127175D01*
X49431Y128269D01*
X48709Y129209D01*
X47769Y129931D01*
X46675Y130384D01*
X45500Y130539D01*
D02*
G37*
G36*
X16000Y123903D02*
Y121000D01*
X18903D01*
X18897Y121044D01*
X18494Y122017D01*
X17853Y122853D01*
X17017Y123494D01*
X16044Y123897D01*
X16000Y123903D01*
D02*
G37*
G36*
X14000D02*
X13956Y123897D01*
X12983Y123494D01*
X12147Y122853D01*
X11506Y122017D01*
X11103Y121044D01*
X11097Y121000D01*
X14000D01*
Y123903D01*
D02*
G37*
G36*
X18903Y119000D02*
X16000D01*
Y116097D01*
X16044Y116103D01*
X17017Y116506D01*
X17853Y117147D01*
X18494Y117983D01*
X18897Y118956D01*
X18903Y119000D01*
D02*
G37*
G36*
X14000D02*
X11097D01*
X11103Y118956D01*
X11506Y117983D01*
X12147Y117147D01*
X12983Y116506D01*
X13956Y116103D01*
X14000Y116097D01*
Y119000D01*
D02*
G37*
G36*
X26811Y124539D02*
X25636Y124384D01*
X24542Y123931D01*
X23602Y123209D01*
X22880Y122269D01*
X22427Y121175D01*
X22272Y120000D01*
X22427Y118825D01*
X22880Y117731D01*
X23602Y116791D01*
X24542Y116069D01*
X25636Y115616D01*
X26811Y115461D01*
X27986Y115616D01*
X29080Y116069D01*
X30020Y116791D01*
X30742Y117731D01*
X31195Y118825D01*
X31350Y120000D01*
X31195Y121175D01*
X30742Y122269D01*
X30020Y123209D01*
X29080Y123931D01*
X27986Y124384D01*
X26811Y124539D01*
D02*
G37*
G36*
X171000Y119035D02*
X169956Y118897D01*
X168983Y118494D01*
X168147Y117853D01*
X167506Y117017D01*
X167103Y116044D01*
X166965Y115000D01*
X167103Y113956D01*
X167506Y112983D01*
X168147Y112147D01*
X168983Y111506D01*
X169956Y111103D01*
X171000Y110966D01*
X172044Y111103D01*
X173017Y111506D01*
X173853Y112147D01*
X174494Y112983D01*
X174897Y113956D01*
X175034Y115000D01*
X174897Y116044D01*
X174494Y117017D01*
X173853Y117853D01*
X173017Y118494D01*
X172044Y118897D01*
X171000Y119035D01*
D02*
G37*
G36*
X93500Y112874D02*
Y110500D01*
X95874D01*
X95557Y111265D01*
X94996Y111996D01*
X94265Y112557D01*
X93500Y112874D01*
D02*
G37*
G36*
X91500D02*
X90735Y112557D01*
X90004Y111996D01*
X89443Y111265D01*
X89126Y110500D01*
X91500D01*
Y112874D01*
D02*
G37*
G36*
X162000Y118039D02*
X160825Y117884D01*
X159731Y117431D01*
X158791Y116709D01*
X158069Y115769D01*
X157616Y114675D01*
X157461Y113500D01*
X157616Y112325D01*
X158069Y111231D01*
X158791Y110291D01*
X159731Y109569D01*
X160825Y109116D01*
X162000Y108961D01*
X163175Y109116D01*
X164269Y109569D01*
X165209Y110291D01*
X165931Y111231D01*
X166384Y112325D01*
X166539Y113500D01*
X166384Y114675D01*
X165931Y115769D01*
X165209Y116709D01*
X164269Y117431D01*
X163175Y117884D01*
X162000Y118039D01*
D02*
G37*
G36*
X95874Y108500D02*
X93500D01*
Y106126D01*
X94265Y106443D01*
X94996Y107004D01*
X95557Y107735D01*
X95874Y108500D01*
D02*
G37*
G36*
X91500D02*
X89126D01*
X89443Y107735D01*
X90004Y107004D01*
X90735Y106443D01*
X91500Y106126D01*
Y108500D01*
D02*
G37*
G36*
X70500Y114034D02*
X69456Y113897D01*
X68483Y113494D01*
X67647Y112853D01*
X67006Y112017D01*
X66603Y111044D01*
X66466Y110000D01*
X66603Y108956D01*
X67006Y107983D01*
X67647Y107147D01*
X68483Y106506D01*
X69456Y106103D01*
X70500Y105965D01*
X71544Y106103D01*
X72517Y106506D01*
X73353Y107147D01*
X73994Y107983D01*
X74397Y108956D01*
X74534Y110000D01*
X74397Y111044D01*
X73994Y112017D01*
X73353Y112853D01*
X72517Y113494D01*
X71544Y113897D01*
X70500Y114034D01*
D02*
G37*
G36*
X117000Y117274D02*
X116282Y117179D01*
X115613Y116902D01*
X115039Y116461D01*
X114598Y115887D01*
X114321Y115218D01*
X114226Y114500D01*
X114321Y113782D01*
X114598Y113113D01*
X115039Y112539D01*
Y112461D01*
X114598Y111887D01*
X114321Y111218D01*
X114226Y110500D01*
X114321Y109782D01*
X114598Y109113D01*
X115039Y108539D01*
Y108461D01*
X114598Y107887D01*
X114321Y107218D01*
X114226Y106500D01*
X114321Y105782D01*
X114598Y105113D01*
X115039Y104539D01*
X115613Y104098D01*
X116282Y103821D01*
X117000Y103726D01*
X117718Y103821D01*
X118387Y104098D01*
X118961Y104539D01*
X119402Y105113D01*
X119679Y105782D01*
X119774Y106500D01*
X119679Y107218D01*
X119402Y107887D01*
X118961Y108461D01*
Y108539D01*
X119402Y109113D01*
X119679Y109782D01*
X119774Y110500D01*
X119679Y111218D01*
X119402Y111887D01*
X118961Y112461D01*
Y112539D01*
X119402Y113113D01*
X119679Y113782D01*
X119774Y114500D01*
X119679Y115218D01*
X119402Y115887D01*
X118961Y116461D01*
X118387Y116902D01*
X117718Y117179D01*
X117000Y117274D01*
D02*
G37*
G36*
X26811Y112728D02*
X25636Y112573D01*
X24542Y112120D01*
X23602Y111398D01*
X22880Y110458D01*
X22427Y109364D01*
X22272Y108189D01*
X22427Y107014D01*
X22880Y105920D01*
X23602Y104980D01*
X24542Y104258D01*
X25636Y103805D01*
X26811Y103650D01*
X27986Y103805D01*
X29080Y104258D01*
X30020Y104980D01*
X30742Y105920D01*
X31195Y107014D01*
X31350Y108189D01*
X31195Y109364D01*
X30742Y110458D01*
X30020Y111398D01*
X29080Y112120D01*
X27986Y112573D01*
X26811Y112728D01*
D02*
G37*
G36*
X15000D02*
X13825Y112573D01*
X12731Y112120D01*
X11791Y111398D01*
X11069Y110458D01*
X10616Y109364D01*
X10461Y108189D01*
X10616Y107014D01*
X11069Y105920D01*
X11791Y104980D01*
X12731Y104258D01*
X13825Y103805D01*
X15000Y103650D01*
X16175Y103805D01*
X17269Y104258D01*
X18209Y104980D01*
X18931Y105920D01*
X19384Y107014D01*
X19539Y108189D01*
X19384Y109364D01*
X18931Y110458D01*
X18209Y111398D01*
X17269Y112120D01*
X16175Y112573D01*
X15000Y112728D01*
D02*
G37*
G36*
X38622Y108018D02*
X37708Y107898D01*
X36857Y107545D01*
X36126Y106984D01*
X35565Y106253D01*
X35212Y105402D01*
X35092Y104488D01*
X35212Y103575D01*
X35565Y102723D01*
X36126Y101992D01*
X36857Y101431D01*
X37708Y101078D01*
X38622Y100958D01*
X39536Y101078D01*
X40387Y101431D01*
X41118Y101992D01*
X41679Y102723D01*
X42032Y103575D01*
X42152Y104488D01*
X42032Y105402D01*
X41679Y106253D01*
X41118Y106984D01*
X40387Y107545D01*
X39536Y107898D01*
X38622Y108018D01*
D02*
G37*
G36*
X143201Y103152D02*
X142287Y103032D01*
X141436Y102679D01*
X140705Y102118D01*
X140144Y101387D01*
X139791Y100536D01*
X139671Y99622D01*
X139791Y98708D01*
X140144Y97857D01*
X140705Y97126D01*
X141436Y96565D01*
X142287Y96212D01*
X143201Y96092D01*
X144114Y96212D01*
X144966Y96565D01*
X145697Y97126D01*
X146258Y97857D01*
X146611Y98708D01*
X146731Y99622D01*
X146611Y100536D01*
X146258Y101387D01*
X145697Y102118D01*
X144966Y102679D01*
X144114Y103032D01*
X143201Y103152D01*
D02*
G37*
G36*
X50750Y104034D02*
X49706Y103897D01*
X48733Y103494D01*
X47897Y102853D01*
X47256Y102017D01*
X46853Y101044D01*
X46716Y100000D01*
X46853Y98956D01*
X47256Y97983D01*
X47897Y97147D01*
X48733Y96506D01*
X49706Y96103D01*
X50750Y95965D01*
X51794Y96103D01*
X52767Y96506D01*
X53603Y97147D01*
X54244Y97983D01*
X54647Y98956D01*
X54785Y100000D01*
X54647Y101044D01*
X54244Y102017D01*
X53603Y102853D01*
X52767Y103494D01*
X51794Y103897D01*
X50750Y104034D01*
D02*
G37*
G36*
X154000Y103539D02*
X152825Y103384D01*
X151731Y102931D01*
X150791Y102209D01*
X150069Y101269D01*
X149616Y100175D01*
X149461Y99000D01*
X149616Y97825D01*
X150069Y96731D01*
X150791Y95791D01*
X151731Y95069D01*
X152825Y94616D01*
X154000Y94461D01*
X155175Y94616D01*
X156269Y95069D01*
X157209Y95791D01*
X157931Y96731D01*
X158384Y97825D01*
X158539Y99000D01*
X158384Y100175D01*
X157931Y101269D01*
X157209Y102209D01*
X156269Y102931D01*
X155175Y103384D01*
X154000Y103539D01*
D02*
G37*
G36*
X178500Y100274D02*
X177782Y100179D01*
X177113Y99902D01*
X176539Y99461D01*
X176098Y98887D01*
X175821Y98218D01*
X175726Y97500D01*
X175500Y97274D01*
X174782Y97179D01*
X174113Y96902D01*
X173539Y96461D01*
X173098Y95887D01*
X172821Y95218D01*
X172726Y94500D01*
X172821Y93782D01*
X173098Y93113D01*
X173539Y92539D01*
X174113Y92098D01*
X174782Y91821D01*
X175500Y91726D01*
X176218Y91821D01*
X176887Y92098D01*
X177461Y92539D01*
X177902Y93113D01*
X178179Y93782D01*
X178274Y94500D01*
X178500Y94726D01*
X179218Y94821D01*
X179887Y95098D01*
X180461Y95539D01*
X180902Y96113D01*
X181179Y96782D01*
X181274Y97500D01*
X181179Y98218D01*
X180902Y98887D01*
X180461Y99461D01*
X179887Y99902D01*
X179218Y100179D01*
X178500Y100274D01*
D02*
G37*
G36*
X116500Y94206D02*
X115782Y94112D01*
X115113Y93835D01*
X114539Y93394D01*
X114098Y92819D01*
X113821Y92150D01*
X113733Y91481D01*
X113711Y91484D01*
X112993Y91390D01*
X112324Y91113D01*
X111749Y90672D01*
X111308Y90097D01*
X111031Y89429D01*
X110944Y88766D01*
X110282Y88679D01*
X109613Y88402D01*
X109039Y87961D01*
X108598Y87387D01*
X108321Y86718D01*
X108234Y86056D01*
X107571Y85969D01*
X106903Y85691D01*
X106328Y85251D01*
X105887Y84676D01*
X105610Y84007D01*
X105523Y83345D01*
X104861Y83258D01*
X104192Y82981D01*
X103618Y82540D01*
X103177Y81966D01*
X102900Y81297D01*
X102805Y80579D01*
X102900Y79861D01*
X103177Y79192D01*
X103618Y78618D01*
X104192Y78177D01*
X104861Y77900D01*
X105579Y77805D01*
X106297Y77900D01*
X106966Y78177D01*
X107540Y78618D01*
X107981Y79192D01*
X108258Y79861D01*
X108345Y80523D01*
X109007Y80610D01*
X109676Y80887D01*
X110251Y81328D01*
X110691Y81903D01*
X110969Y82572D01*
X111056Y83234D01*
X111718Y83321D01*
X112387Y83598D01*
X112961Y84039D01*
X113402Y84613D01*
X113679Y85282D01*
X113766Y85944D01*
X114428Y86031D01*
X115097Y86308D01*
X115672Y86749D01*
X116113Y87324D01*
X116390Y87993D01*
X116478Y88661D01*
X116500Y88659D01*
X117218Y88753D01*
X117887Y89030D01*
X118461Y89471D01*
X118902Y90045D01*
X119179Y90715D01*
X119274Y91432D01*
X119179Y92150D01*
X118902Y92819D01*
X118461Y93394D01*
X117887Y93835D01*
X117218Y94112D01*
X116500Y94206D01*
D02*
G37*
G36*
X93000Y98035D02*
X91956Y97897D01*
X90983Y97494D01*
X90147Y96853D01*
X89506Y96017D01*
X89103Y95044D01*
X88965Y94000D01*
X89103Y92956D01*
X89506Y91983D01*
X90147Y91147D01*
X90983Y90506D01*
X91956Y90103D01*
X93000Y89965D01*
X94044Y90103D01*
X95017Y90506D01*
X95853Y91147D01*
X96494Y91983D01*
X96897Y92956D01*
X97035Y94000D01*
X96897Y95044D01*
X96494Y96017D01*
X95853Y96853D01*
X95017Y97494D01*
X94044Y97897D01*
X93000Y98035D01*
D02*
G37*
G36*
X162500Y94514D02*
X161782Y94419D01*
X161113Y94142D01*
X160539Y93701D01*
X160098Y93127D01*
X159821Y92458D01*
X159726Y91740D01*
X159821Y91022D01*
X160098Y90353D01*
X160539Y89779D01*
X161113Y89338D01*
X161782Y89061D01*
X162500Y88967D01*
X163218Y89061D01*
X163887Y89338D01*
X164461Y89779D01*
X164902Y90353D01*
X165179Y91022D01*
X165274Y91740D01*
X165179Y92458D01*
X164902Y93127D01*
X164461Y93701D01*
X163887Y94142D01*
X163218Y94419D01*
X162500Y94514D01*
D02*
G37*
G36*
X16536Y95335D02*
X15491Y95197D01*
X14518Y94794D01*
X13683Y94153D01*
X13042Y93317D01*
X12639Y92344D01*
X12501Y91300D01*
X12639Y90256D01*
X13042Y89283D01*
X13683Y88447D01*
X14518Y87806D01*
X15491Y87403D01*
X16536Y87265D01*
X17580Y87403D01*
X18553Y87806D01*
X19388Y88447D01*
X20030Y89283D01*
X20433Y90256D01*
X20570Y91300D01*
X20433Y92344D01*
X20030Y93317D01*
X19388Y94153D01*
X18553Y94794D01*
X17580Y95197D01*
X16536Y95335D01*
D02*
G37*
G36*
X139500Y92350D02*
X138325Y92195D01*
X137231Y91742D01*
X136291Y91020D01*
X135569Y90080D01*
X135116Y88986D01*
X134961Y87811D01*
X135116Y86636D01*
X135569Y85542D01*
X136291Y84602D01*
X137231Y83880D01*
X138325Y83427D01*
X139500Y83272D01*
X140675Y83427D01*
X141769Y83880D01*
X142709Y84602D01*
X143431Y85542D01*
X143884Y86636D01*
X144039Y87811D01*
X143884Y88986D01*
X143431Y90080D01*
X142709Y91020D01*
X141769Y91742D01*
X140675Y92195D01*
X139500Y92350D01*
D02*
G37*
G36*
X174500Y86774D02*
X173782Y86679D01*
X173113Y86402D01*
X172539Y85961D01*
X172098Y85387D01*
X171821Y84718D01*
X171726Y84000D01*
X171821Y83282D01*
X172098Y82613D01*
X172539Y82039D01*
X173113Y81598D01*
X173782Y81321D01*
X174500Y81226D01*
X175218Y81321D01*
X175887Y81598D01*
X176461Y82039D01*
X176902Y82613D01*
X177179Y83282D01*
X177274Y84000D01*
X177179Y84718D01*
X176902Y85387D01*
X176461Y85961D01*
X175887Y86402D01*
X175218Y86679D01*
X174500Y86774D01*
D02*
G37*
G36*
X79500Y87534D02*
X78456Y87397D01*
X77483Y86994D01*
X76647Y86353D01*
X76006Y85517D01*
X75603Y84544D01*
X75466Y83500D01*
X75603Y82456D01*
X76006Y81483D01*
X76647Y80647D01*
X77483Y80006D01*
X78456Y79603D01*
X79500Y79466D01*
X80544Y79603D01*
X81517Y80006D01*
X82353Y80647D01*
X82994Y81483D01*
X83397Y82456D01*
X83534Y83500D01*
X83397Y84544D01*
X82994Y85517D01*
X82353Y86353D01*
X81517Y86994D01*
X80544Y87397D01*
X79500Y87534D01*
D02*
G37*
G36*
X127689Y92350D02*
X126514Y92195D01*
X125420Y91742D01*
X124480Y91020D01*
X123758Y90080D01*
X123305Y88986D01*
X123150Y87811D01*
X123305Y86636D01*
X123758Y85542D01*
X124480Y84602D01*
X125373Y83916D01*
X125502Y83743D01*
X125509Y83717D01*
X125555Y83283D01*
X125321Y82718D01*
X125226Y82000D01*
X125321Y81282D01*
X125598Y80613D01*
X125702Y80477D01*
X125573Y79994D01*
X125420Y79931D01*
X124480Y79209D01*
X123758Y78269D01*
X123305Y77175D01*
X123150Y76000D01*
X123305Y74825D01*
X123758Y73731D01*
X123387Y73402D01*
X122718Y73679D01*
X122000Y73774D01*
X121282Y73679D01*
X120613Y73402D01*
X120039Y72961D01*
X119598Y72387D01*
X119321Y71718D01*
X119226Y71000D01*
X119321Y70282D01*
X119598Y69613D01*
X120039Y69039D01*
X120613Y68598D01*
X121282Y68321D01*
X122000Y68226D01*
X122718Y68321D01*
X123387Y68598D01*
X123961Y69039D01*
X124402Y69613D01*
X124679Y70282D01*
X124774Y71000D01*
X124679Y71718D01*
X124504Y72142D01*
X124914Y72457D01*
X125420Y72069D01*
X126514Y71616D01*
X127689Y71461D01*
X128864Y71616D01*
X129958Y72069D01*
X130898Y72791D01*
X131620Y73731D01*
X132073Y74825D01*
X132228Y76000D01*
X132073Y77175D01*
X131620Y78269D01*
X130898Y79209D01*
X130287Y79679D01*
X130276Y79691D01*
X130196Y80345D01*
X130197Y80346D01*
X130402Y80613D01*
X130679Y81282D01*
X130774Y82000D01*
X130679Y82718D01*
X130402Y83387D01*
X129999Y83912D01*
X130898Y84602D01*
X131620Y85542D01*
X132073Y86636D01*
X132228Y87811D01*
X132073Y88986D01*
X131620Y90080D01*
X130898Y91020D01*
X129958Y91742D01*
X128864Y92195D01*
X127689Y92350D01*
D02*
G37*
G36*
X139500Y80539D02*
X138325Y80384D01*
X137231Y79931D01*
X136291Y79209D01*
X135569Y78269D01*
X135116Y77175D01*
X134961Y76000D01*
X135116Y74825D01*
X135569Y73731D01*
X136291Y72791D01*
X137231Y72069D01*
X138325Y71616D01*
X139500Y71461D01*
X140675Y71616D01*
X141769Y72069D01*
X142709Y72791D01*
X143431Y73731D01*
X143884Y74825D01*
X144039Y76000D01*
X143884Y77175D01*
X143431Y78269D01*
X142709Y79209D01*
X141769Y79931D01*
X140675Y80384D01*
X139500Y80539D01*
D02*
G37*
G36*
X59461Y81313D02*
X58743Y81219D01*
X58074Y80941D01*
X57499Y80501D01*
X57059Y79926D01*
X56781Y79257D01*
X56687Y78539D01*
X56781Y77821D01*
X57059Y77153D01*
X57499Y76578D01*
X58074Y76137D01*
X58743Y75860D01*
X58861Y75845D01*
X59267Y75308D01*
X59226Y75000D01*
X59321Y74282D01*
X59598Y73613D01*
X60039Y73039D01*
X60613Y72598D01*
X61282Y72321D01*
X62000Y72226D01*
X62254Y72260D01*
X62813Y71842D01*
X62821Y71782D01*
X63098Y71113D01*
X63539Y70539D01*
X64113Y70098D01*
X64782Y69821D01*
X65500Y69726D01*
X66218Y69821D01*
X66887Y70098D01*
X67461Y70539D01*
X67902Y71113D01*
X68028Y71417D01*
X68613Y71598D01*
X69282Y71321D01*
X70000Y71226D01*
X70718Y71321D01*
X71387Y71598D01*
X71961Y72039D01*
X72402Y72613D01*
X72679Y73282D01*
X72774Y74000D01*
X72679Y74718D01*
X72402Y75387D01*
X71961Y75961D01*
X71387Y76402D01*
X70718Y76679D01*
X70000Y76774D01*
X69282Y76679D01*
X68613Y76402D01*
X68039Y75961D01*
X67598Y75387D01*
X67472Y75083D01*
X66887Y74902D01*
X66218Y75179D01*
X65500Y75274D01*
X65246Y75240D01*
X64687Y75658D01*
X64679Y75718D01*
X64402Y76387D01*
X63961Y76961D01*
X63387Y77402D01*
X62718Y77679D01*
X62600Y77695D01*
X62196Y78252D01*
X62234Y78539D01*
X62140Y79257D01*
X61863Y79926D01*
X61422Y80501D01*
X60847Y80941D01*
X60179Y81219D01*
X59461Y81313D01*
D02*
G37*
G36*
X128689Y68092D02*
Y65189D01*
X131592D01*
X131586Y65233D01*
X131183Y66206D01*
X130542Y67042D01*
X129706Y67683D01*
X128733Y68086D01*
X128689Y68092D01*
D02*
G37*
G36*
X126689D02*
X126645Y68086D01*
X125672Y67683D01*
X124836Y67042D01*
X124195Y66206D01*
X123792Y65233D01*
X123786Y65189D01*
X126689D01*
Y68092D01*
D02*
G37*
G36*
X131592Y63189D02*
X128689D01*
Y60286D01*
X128733Y60292D01*
X129706Y60695D01*
X130542Y61336D01*
X131183Y62172D01*
X131586Y63145D01*
X131592Y63189D01*
D02*
G37*
G36*
X126689D02*
X123786D01*
X123792Y63145D01*
X124195Y62172D01*
X124836Y61336D01*
X125672Y60695D01*
X126645Y60292D01*
X126689Y60286D01*
Y63189D01*
D02*
G37*
G36*
X4500Y65774D02*
X3782Y65679D01*
X3113Y65402D01*
X2539Y64961D01*
X2098Y64387D01*
X1821Y63718D01*
X1726Y63000D01*
X1821Y62282D01*
X2098Y61613D01*
X2539Y61039D01*
X3113Y60598D01*
X3782Y60321D01*
X4500Y60226D01*
X5218Y60321D01*
X5887Y60598D01*
X6461Y61039D01*
X6902Y61613D01*
X7179Y62282D01*
X7274Y63000D01*
X7179Y63718D01*
X6902Y64387D01*
X6461Y64961D01*
X5887Y65402D01*
X5218Y65679D01*
X4500Y65774D01*
D02*
G37*
G36*
X139500Y68728D02*
X138325Y68573D01*
X137231Y68120D01*
X136291Y67398D01*
X135569Y66458D01*
X135116Y65364D01*
X134961Y64189D01*
X135116Y63014D01*
X135569Y61920D01*
X136291Y60980D01*
X137231Y60258D01*
X138325Y59805D01*
X139500Y59650D01*
X140675Y59805D01*
X141769Y60258D01*
X142709Y60980D01*
X143431Y61920D01*
X143884Y63014D01*
X144039Y64189D01*
X143884Y65364D01*
X143431Y66458D01*
X142709Y67398D01*
X141769Y68120D01*
X140675Y68573D01*
X139500Y68728D01*
D02*
G37*
G36*
X194000Y56903D02*
X193956Y56897D01*
X192983Y56494D01*
X192147Y55853D01*
X191506Y55017D01*
X191103Y54044D01*
X191097Y54000D01*
X194000D01*
Y56903D01*
D02*
G37*
G36*
X154500Y60039D02*
X153325Y59884D01*
X152231Y59431D01*
X151291Y58709D01*
X150569Y57769D01*
X150116Y56675D01*
X149961Y55500D01*
X150116Y54325D01*
X150569Y53231D01*
X151291Y52291D01*
X152231Y51569D01*
X153325Y51116D01*
X154500Y50961D01*
X155675Y51116D01*
X156769Y51569D01*
X157709Y52291D01*
X158431Y53231D01*
X158884Y54325D01*
X159039Y55500D01*
X158884Y56675D01*
X158431Y57769D01*
X157709Y58709D01*
X156769Y59431D01*
X155675Y59884D01*
X154500Y60039D01*
D02*
G37*
G36*
X194000Y52000D02*
X191097D01*
X191103Y51956D01*
X191506Y50983D01*
X192147Y50147D01*
X192983Y49506D01*
X193956Y49103D01*
X194000Y49097D01*
Y52000D01*
D02*
G37*
G36*
X143201Y55908D02*
X142287Y55788D01*
X141436Y55435D01*
X140705Y54874D01*
X140144Y54143D01*
X139791Y53292D01*
X139671Y52378D01*
X139791Y51464D01*
X140144Y50613D01*
X140705Y49882D01*
X141436Y49321D01*
X142287Y48968D01*
X143201Y48848D01*
X144114Y48968D01*
X144966Y49321D01*
X145697Y49882D01*
X146258Y50613D01*
X146611Y51464D01*
X146731Y52378D01*
X146611Y53292D01*
X146258Y54143D01*
X145697Y54874D01*
X144966Y55435D01*
X144114Y55788D01*
X143201Y55908D01*
D02*
G37*
G36*
X4500Y52774D02*
X3782Y52679D01*
X3113Y52402D01*
X2539Y51961D01*
X2098Y51387D01*
X1821Y50718D01*
X1726Y50000D01*
X1821Y49282D01*
X2098Y48613D01*
X2539Y48039D01*
X3113Y47598D01*
X3782Y47321D01*
X4500Y47226D01*
X5218Y47321D01*
X5887Y47598D01*
X6461Y48039D01*
X6902Y48613D01*
X7179Y49282D01*
X7274Y50000D01*
X7179Y50718D01*
X6902Y51387D01*
X6461Y51961D01*
X5887Y52402D01*
X5218Y52679D01*
X4500Y52774D01*
D02*
G37*
G36*
X64500Y65274D02*
X63782Y65179D01*
X63113Y64902D01*
X62539Y64461D01*
X62098Y63887D01*
X61821Y63218D01*
X61726Y62500D01*
X61821Y61782D01*
X62098Y61113D01*
X62539Y60539D01*
X62889Y60270D01*
X62907Y59690D01*
X62894Y59664D01*
X62578Y59422D01*
X62137Y58847D01*
X61860Y58179D01*
X61766Y57461D01*
X61860Y56743D01*
X62137Y56074D01*
X62578Y55499D01*
X62880Y55268D01*
Y54653D01*
X62578Y54422D01*
X62137Y53847D01*
X61860Y53179D01*
X61766Y52461D01*
X61860Y51743D01*
X62137Y51074D01*
X62578Y50499D01*
X62880Y50268D01*
Y49653D01*
X62578Y49422D01*
X62137Y48847D01*
X61860Y48178D01*
X61766Y47461D01*
X61860Y46743D01*
X62137Y46074D01*
X62578Y45499D01*
X63153Y45058D01*
X63822Y44781D01*
X64539Y44687D01*
X65257Y44781D01*
X65926Y45058D01*
X66501Y45499D01*
X66941Y46074D01*
X67219Y46743D01*
X67313Y47461D01*
X67219Y48178D01*
X66941Y48847D01*
X66501Y49422D01*
X66199Y49653D01*
Y50268D01*
X66501Y50499D01*
X66941Y51074D01*
X67219Y51743D01*
X67313Y52461D01*
X67219Y53179D01*
X66941Y53847D01*
X66501Y54422D01*
X66199Y54653D01*
Y55268D01*
X66501Y55499D01*
X66941Y56074D01*
X67219Y56743D01*
X67313Y57461D01*
X67219Y58179D01*
X66941Y58847D01*
X66501Y59422D01*
X66151Y59690D01*
X66132Y60270D01*
X66146Y60296D01*
X66461Y60539D01*
X66902Y61113D01*
X67179Y61782D01*
X67274Y62500D01*
X67179Y63218D01*
X66902Y63887D01*
X66461Y64461D01*
X65887Y64902D01*
X65218Y65179D01*
X64500Y65274D01*
D02*
G37*
G36*
X47000Y47539D02*
X45825Y47384D01*
X44731Y46931D01*
X43791Y46209D01*
X43069Y45269D01*
X42616Y44175D01*
X42461Y43000D01*
X42616Y41825D01*
X43069Y40731D01*
X43791Y39791D01*
X44731Y39069D01*
X45825Y38616D01*
X47000Y38461D01*
X48175Y38616D01*
X49269Y39069D01*
X50209Y39791D01*
X50931Y40731D01*
X51384Y41825D01*
X51539Y43000D01*
X51384Y44175D01*
X50931Y45269D01*
X50209Y46209D01*
X49269Y46931D01*
X48175Y47384D01*
X47000Y47539D01*
D02*
G37*
G36*
X12500Y36039D02*
X11325Y35884D01*
X10231Y35431D01*
X9291Y34709D01*
X8569Y33769D01*
X8116Y32675D01*
X7961Y31500D01*
X8116Y30325D01*
X8569Y29231D01*
X9291Y28291D01*
X10231Y27569D01*
X11325Y27116D01*
X12500Y26961D01*
X13675Y27116D01*
X14769Y27569D01*
X15709Y28291D01*
X16431Y29231D01*
X16884Y30325D01*
X17039Y31500D01*
X16884Y32675D01*
X16431Y33769D01*
X15709Y34709D01*
X14769Y35431D01*
X13675Y35884D01*
X12500Y36039D01*
D02*
G37*
G36*
X33189Y31231D02*
X32275Y31111D01*
X31424Y30758D01*
X30693Y30197D01*
X30132Y29466D01*
X29779Y28615D01*
X29659Y27701D01*
X29779Y26787D01*
X30132Y25936D01*
X30693Y25205D01*
X31424Y24644D01*
X32275Y24291D01*
X33189Y24171D01*
X34103Y24291D01*
X34954Y24644D01*
X35685Y25205D01*
X36246Y25936D01*
X36599Y26787D01*
X36719Y27701D01*
X36599Y28615D01*
X36246Y29466D01*
X35685Y30197D01*
X34954Y30758D01*
X34103Y31111D01*
X33189Y31231D01*
D02*
G37*
G36*
X87811Y31042D02*
X86897Y30922D01*
X86046Y30569D01*
X85315Y30008D01*
X84754Y29277D01*
X84401Y28425D01*
X84281Y27512D01*
X84401Y26598D01*
X84754Y25747D01*
X85315Y25016D01*
X86046Y24455D01*
X86897Y24102D01*
X87811Y23982D01*
X88725Y24102D01*
X89576Y24455D01*
X90307Y25016D01*
X90868Y25747D01*
X91221Y26598D01*
X91341Y27512D01*
X91221Y28425D01*
X90868Y29277D01*
X90307Y30008D01*
X89576Y30569D01*
X88725Y30922D01*
X87811Y31042D01*
D02*
G37*
G36*
X56811Y31231D02*
X55897Y31111D01*
X55046Y30758D01*
X54315Y30197D01*
X53754Y29466D01*
X53401Y28615D01*
X53281Y27701D01*
X53401Y26787D01*
X53754Y25936D01*
X54315Y25205D01*
X55046Y24644D01*
X55897Y24291D01*
X56811Y24171D01*
X57725Y24291D01*
X58576Y24644D01*
X59307Y25205D01*
X59868Y25936D01*
X60221Y26787D01*
X60235Y26897D01*
X60740D01*
X60779Y26598D01*
X61132Y25747D01*
X61693Y25016D01*
X62424Y24455D01*
X63275Y24102D01*
X64189Y23982D01*
X65103Y24102D01*
X65954Y24455D01*
X66685Y25016D01*
X67246Y25747D01*
X67599Y26598D01*
X67719Y27512D01*
X67599Y28425D01*
X67246Y29277D01*
X66685Y30008D01*
X65954Y30569D01*
X65103Y30922D01*
X64189Y31042D01*
X63275Y30922D01*
X62424Y30569D01*
X61693Y30008D01*
X61132Y29277D01*
X60779Y28425D01*
X60765Y28315D01*
X60260D01*
X60221Y28615D01*
X59868Y29466D01*
X59307Y30197D01*
X58576Y30758D01*
X57725Y31111D01*
X56811Y31231D01*
D02*
G37*
G36*
X97500Y32039D02*
X96325Y31884D01*
X95231Y31431D01*
X94291Y30709D01*
X93569Y29769D01*
X93116Y28675D01*
X92961Y27500D01*
X93116Y26325D01*
X93569Y25231D01*
X94291Y24291D01*
X95231Y23569D01*
X96325Y23116D01*
X97500Y22961D01*
X98675Y23116D01*
X99769Y23569D01*
X100709Y24291D01*
X101431Y25231D01*
X101884Y26325D01*
X102039Y27500D01*
X101884Y28675D01*
X101431Y29769D01*
X100709Y30709D01*
X99769Y31431D01*
X98675Y31884D01*
X97500Y32039D01*
D02*
G37*
G36*
X45000Y28539D02*
X43825Y28384D01*
X42731Y27931D01*
X41791Y27209D01*
X41069Y26269D01*
X40616Y25175D01*
X40461Y24000D01*
X40616Y22825D01*
X41069Y21731D01*
X41791Y20791D01*
X42731Y20069D01*
X43825Y19616D01*
X45000Y19461D01*
X46175Y19616D01*
X47269Y20069D01*
X48209Y20791D01*
X48931Y21731D01*
X49384Y22825D01*
X49539Y24000D01*
X49384Y25175D01*
X48931Y26269D01*
X48209Y27209D01*
X47269Y27931D01*
X46175Y28384D01*
X45000Y28539D01*
D02*
G37*
G36*
X76000Y28350D02*
X74825Y28195D01*
X73731Y27742D01*
X72791Y27020D01*
X72069Y26080D01*
X71616Y24986D01*
X71461Y23811D01*
X71616Y22636D01*
X72069Y21542D01*
X72791Y20602D01*
X73731Y19880D01*
X74825Y19427D01*
X76000Y19272D01*
X77175Y19427D01*
X78269Y19880D01*
X79209Y20602D01*
X79931Y21542D01*
X80384Y22636D01*
X80539Y23811D01*
X80384Y24986D01*
X79931Y26080D01*
X79209Y27020D01*
X78269Y27742D01*
X77175Y28195D01*
X76000Y28350D01*
D02*
G37*
G36*
X134500Y20247D02*
X133586Y20127D01*
X132735Y19774D01*
X132396Y19514D01*
X132000Y19216D01*
X131604Y19514D01*
X131265Y19774D01*
X130414Y20127D01*
X129500Y20247D01*
X128586Y20127D01*
X127735Y19774D01*
X127396Y19514D01*
X127000Y19216D01*
X126604Y19514D01*
X126265Y19774D01*
X125414Y20127D01*
X124500Y20247D01*
X123586Y20127D01*
X122735Y19774D01*
X122396Y19514D01*
X122000Y19216D01*
X121604Y19514D01*
X121265Y19774D01*
X120414Y20127D01*
X119500Y20247D01*
X118586Y20127D01*
X117735Y19774D01*
X117396Y19514D01*
X117000Y19216D01*
X116604Y19514D01*
X116265Y19774D01*
X115414Y20127D01*
X114500Y20247D01*
X113586Y20127D01*
X112735Y19774D01*
X112004Y19213D01*
X111443Y18482D01*
X111090Y17630D01*
X110970Y16717D01*
X111090Y15803D01*
X111205Y15524D01*
X111000Y15217D01*
X111000D01*
Y8217D01*
X118000D01*
Y8641D01*
X118416Y8918D01*
X118500Y8884D01*
Y11717D01*
X120500D01*
Y8884D01*
X121013Y9096D01*
X121640Y9577D01*
X121750Y9721D01*
X122250D01*
X122360Y9577D01*
X122987Y9096D01*
X123500Y8884D01*
Y11717D01*
X125500D01*
Y8884D01*
X126013Y9096D01*
X126640Y9577D01*
X126730D01*
X127004Y9220D01*
X127735Y8659D01*
X128586Y8307D01*
X129500Y8186D01*
X130414Y8307D01*
X131265Y8659D01*
X131996Y9220D01*
X132270Y9577D01*
X132360D01*
X132987Y9096D01*
X133500Y8884D01*
Y11717D01*
X134500D01*
Y12717D01*
X137333D01*
X137120Y13229D01*
X136640Y13856D01*
Y13947D01*
X136996Y14220D01*
X137557Y14952D01*
X137910Y15803D01*
X138030Y16717D01*
X137910Y17630D01*
X137557Y18482D01*
X136996Y19213D01*
X136265Y19774D01*
X135414Y20127D01*
X134500Y20247D01*
D02*
G37*
G36*
X168500Y20774D02*
X167782Y20679D01*
X167113Y20402D01*
X166539Y19961D01*
X166098Y19387D01*
X165821Y18718D01*
X165726Y18000D01*
X165821Y17282D01*
X166098Y16613D01*
X166539Y16039D01*
X167113Y15598D01*
X167782Y15321D01*
X168500Y15226D01*
X169218Y15321D01*
X169887Y15598D01*
X170461Y16039D01*
X170902Y16613D01*
X171179Y17282D01*
X171274Y18000D01*
X171179Y18718D01*
X170902Y19387D01*
X170461Y19961D01*
X169887Y20402D01*
X169218Y20679D01*
X168500Y20774D01*
D02*
G37*
G36*
X46000Y16092D02*
Y13189D01*
X48903D01*
X48897Y13233D01*
X48494Y14206D01*
X47853Y15042D01*
X47017Y15683D01*
X46044Y16086D01*
X46000Y16092D01*
D02*
G37*
G36*
X44000D02*
X43956Y16086D01*
X42983Y15683D01*
X42147Y15042D01*
X41506Y14206D01*
X41103Y13233D01*
X41097Y13189D01*
X44000D01*
Y16092D01*
D02*
G37*
G36*
X77000Y15903D02*
Y13000D01*
X79903D01*
X79897Y13044D01*
X79494Y14017D01*
X78853Y14853D01*
X78017Y15494D01*
X77044Y15897D01*
X77000Y15903D01*
D02*
G37*
G36*
X75000D02*
X74956Y15897D01*
X73983Y15494D01*
X73147Y14853D01*
X72506Y14017D01*
X72103Y13044D01*
X72097Y13000D01*
X75000D01*
Y15903D01*
D02*
G37*
G36*
X137333Y10717D02*
X135500D01*
Y8884D01*
X136013Y9096D01*
X136640Y9577D01*
X137120Y10204D01*
X137333Y10717D01*
D02*
G37*
G36*
X48903Y11189D02*
X46000D01*
Y8286D01*
X46044Y8292D01*
X47017Y8695D01*
X47853Y9336D01*
X48494Y10172D01*
X48897Y11145D01*
X48903Y11189D01*
D02*
G37*
G36*
X44000D02*
X41097D01*
X41103Y11145D01*
X41506Y10172D01*
X42147Y9336D01*
X42983Y8695D01*
X43956Y8292D01*
X44000Y8286D01*
Y11189D01*
D02*
G37*
G36*
X79903Y11000D02*
X77000D01*
Y8097D01*
X77044Y8103D01*
X78017Y8506D01*
X78853Y9147D01*
X79494Y9983D01*
X79897Y10956D01*
X79903Y11000D01*
D02*
G37*
G36*
X75000D02*
X72097D01*
X72103Y10956D01*
X72506Y9983D01*
X73147Y9147D01*
X73983Y8506D01*
X74956Y8103D01*
X75000Y8097D01*
Y11000D01*
D02*
G37*
G36*
X185000Y22837D02*
X183471Y22686D01*
X182001Y22240D01*
X180646Y21516D01*
X179458Y20542D01*
X178484Y19354D01*
X177760Y17999D01*
X177314Y16529D01*
X177163Y15000D01*
X177314Y13471D01*
X177760Y12001D01*
X178484Y10646D01*
X179458Y9458D01*
X180646Y8484D01*
X182001Y7760D01*
X183471Y7314D01*
X185000Y7163D01*
X186529Y7314D01*
X187999Y7760D01*
X189354Y8484D01*
X190542Y9458D01*
X191516Y10646D01*
X192240Y12001D01*
X192686Y13471D01*
X192837Y15000D01*
X192686Y16529D01*
X192240Y17999D01*
X191516Y19354D01*
X190542Y20542D01*
X189354Y21516D01*
X187999Y22240D01*
X186529Y22686D01*
X185000Y22837D01*
D02*
G37*
G36*
X15000D02*
X13471Y22686D01*
X12001Y22240D01*
X10646Y21516D01*
X9458Y20542D01*
X8484Y19354D01*
X7760Y17999D01*
X7314Y16529D01*
X7163Y15000D01*
X7314Y13471D01*
X7760Y12001D01*
X8484Y10646D01*
X9458Y9458D01*
X10646Y8484D01*
X12001Y7760D01*
X13471Y7314D01*
X15000Y7163D01*
X16529Y7314D01*
X17999Y7760D01*
X19354Y8484D01*
X20542Y9458D01*
X21516Y10646D01*
X22240Y12001D01*
X22686Y13471D01*
X22837Y15000D01*
X22686Y16529D01*
X22240Y17999D01*
X21516Y19354D01*
X20542Y20542D01*
X19354Y21516D01*
X17999Y22240D01*
X16529Y22686D01*
X15000Y22837D01*
D02*
G37*
%LPD*%
G36*
X133579Y268500D02*
X109579Y244500D01*
X84809D01*
X84769Y244531D01*
X83675Y244984D01*
X82500Y245139D01*
X81325Y244984D01*
X80231Y244531D01*
X80190Y244500D01*
X65579D01*
X45079Y265000D01*
Y270420D01*
X46188Y270566D01*
X47295Y271024D01*
X48246Y271754D01*
X48976Y272705D01*
X49434Y273812D01*
X49590Y275000D01*
X49434Y276188D01*
X48976Y277295D01*
X48246Y278246D01*
X47915Y278500D01*
X48085Y279000D01*
X52765D01*
X52902Y278670D01*
X52907Y278500D01*
X52111Y277889D01*
X51461Y277043D01*
X51053Y276058D01*
X51046Y276000D01*
X58955D01*
X58947Y276058D01*
X58539Y277043D01*
X57889Y277889D01*
X57094Y278500D01*
X57098Y278670D01*
X57235Y279000D01*
X62765D01*
X62902Y278670D01*
X62906Y278500D01*
X62111Y277889D01*
X61461Y277043D01*
X61053Y276058D01*
X61045Y276000D01*
X68954D01*
X68947Y276058D01*
X68539Y277043D01*
X67889Y277889D01*
X67093Y278500D01*
X67098Y278670D01*
X67235Y279000D01*
X72765D01*
X72902Y278670D01*
X72907Y278500D01*
X72111Y277889D01*
X71461Y277043D01*
X71053Y276058D01*
X71046Y276000D01*
X78954D01*
X78947Y276058D01*
X78539Y277043D01*
X77889Y277889D01*
X77093Y278500D01*
X77098Y278670D01*
X77235Y279000D01*
X82765D01*
X82902Y278670D01*
X82907Y278500D01*
X82111Y277889D01*
X81461Y277043D01*
X81053Y276058D01*
X81046Y276000D01*
X88955D01*
X88947Y276058D01*
X88539Y277043D01*
X87889Y277889D01*
X87094Y278500D01*
X87098Y278670D01*
X87235Y279000D01*
X92765D01*
X92902Y278670D01*
X92906Y278500D01*
X92111Y277889D01*
X91461Y277043D01*
X91053Y276058D01*
X91045Y276000D01*
X98954D01*
X98947Y276058D01*
X98539Y277043D01*
X97889Y277889D01*
X97093Y278500D01*
X97098Y278670D01*
X97235Y279000D01*
X102765D01*
X102902Y278670D01*
X102907Y278500D01*
X102111Y277889D01*
X101461Y277043D01*
X101053Y276058D01*
X101046Y276000D01*
X108955D01*
X108947Y276058D01*
X108539Y277043D01*
X107889Y277889D01*
X107094Y278500D01*
X107098Y278670D01*
X107235Y279000D01*
X112079D01*
X121079Y288000D01*
X123101D01*
X123198Y287522D01*
X122069Y287054D01*
X121099Y286311D01*
X120355Y285341D01*
X120214Y285000D01*
X124409D01*
X128605D01*
X128464Y285341D01*
X127720Y286311D01*
X126750Y287054D01*
X125621Y287522D01*
X125717Y288000D01*
X133579D01*
X133579Y268500D01*
D02*
G37*
G36*
X64858Y243779D02*
X65189Y243558D01*
X65579Y243480D01*
X80190D01*
X80321Y243506D01*
X80454Y243515D01*
X80515Y243545D01*
X80581Y243558D01*
X80636Y243595D01*
X81591Y243991D01*
X82500Y244110D01*
X83409Y243991D01*
X84364Y243595D01*
X84419Y243558D01*
X84485Y243545D01*
X84546Y243515D01*
X84679Y243506D01*
X84809Y243480D01*
X88500D01*
Y226520D01*
X22500D01*
Y239500D01*
X36581Y255822D01*
X37019Y255564D01*
X36885Y254201D01*
X37031Y252718D01*
X37463Y251293D01*
X38165Y249979D01*
X39110Y248827D01*
X40262Y247882D01*
X41576Y247180D01*
X43002Y246747D01*
X44484Y246601D01*
X45967Y246747D01*
X47392Y247180D01*
X48706Y247882D01*
X49858Y248827D01*
X50803Y249979D01*
X51505Y251293D01*
X51938Y252718D01*
X52084Y254201D01*
X51938Y255683D01*
X51803Y256126D01*
X52245Y256391D01*
X64858Y243779D01*
D02*
G37*
G36*
X88500Y209000D02*
X79688D01*
X79563Y209500D01*
X80408Y209951D01*
X81474Y210826D01*
X82349Y211892D01*
X82834Y212800D01*
X76500D01*
X70166D01*
X70652Y211892D01*
X71526Y210826D01*
X72592Y209951D01*
X73437Y209500D01*
X73312Y209000D01*
X63000D01*
X60000Y206000D01*
Y181000D01*
X49458D01*
X49290Y181471D01*
X49858Y181937D01*
X50803Y183089D01*
X51505Y184403D01*
X51938Y185828D01*
X52084Y187311D01*
X51938Y188794D01*
X51505Y190219D01*
X50803Y191533D01*
X49858Y192685D01*
X48706Y193630D01*
X47392Y194332D01*
X45967Y194765D01*
X44484Y194911D01*
X43002Y194765D01*
X41576Y194332D01*
X40262Y193630D01*
X39110Y192685D01*
X38165Y191533D01*
X37463Y190219D01*
X37031Y188794D01*
X36885Y187311D01*
X37031Y185828D01*
X37463Y184403D01*
X38165Y183089D01*
X39110Y181937D01*
X39679Y181471D01*
X39511Y181000D01*
X35903D01*
X35897Y181044D01*
X35494Y182017D01*
X34853Y182853D01*
X34017Y183494D01*
X33044Y183897D01*
X32000Y184035D01*
X30956Y183897D01*
X29983Y183494D01*
X29147Y182853D01*
X28506Y182017D01*
X28103Y181044D01*
X28097Y181000D01*
X22500D01*
Y225500D01*
X88500D01*
Y209000D01*
D02*
G37*
%LPC*%
G36*
X128605Y281000D02*
X126409D01*
Y278804D01*
X126750Y278945D01*
X127720Y279690D01*
X128464Y280659D01*
X128605Y281000D01*
D02*
G37*
G36*
X122409D02*
X120214D01*
X120355Y280659D01*
X121099Y279690D01*
X122069Y278945D01*
X122409Y278804D01*
Y281000D01*
D02*
G37*
G36*
X108955Y274000D02*
X106000D01*
Y271045D01*
X106058Y271053D01*
X107043Y271461D01*
X107889Y272111D01*
X108539Y272957D01*
X108947Y273942D01*
X108955Y274000D01*
D02*
G37*
G36*
X104000D02*
X101046D01*
X101053Y273942D01*
X101461Y272957D01*
X102111Y272111D01*
X102957Y271461D01*
X103942Y271053D01*
X104000Y271045D01*
Y274000D01*
D02*
G37*
G36*
X98954D02*
X96000D01*
Y271045D01*
X96058Y271053D01*
X97043Y271461D01*
X97889Y272111D01*
X98539Y272957D01*
X98947Y273942D01*
X98954Y274000D01*
D02*
G37*
G36*
X94000D02*
X91045D01*
X91053Y273942D01*
X91461Y272957D01*
X92111Y272111D01*
X92957Y271461D01*
X93942Y271053D01*
X94000Y271045D01*
Y274000D01*
D02*
G37*
G36*
X88955D02*
X86000D01*
Y271045D01*
X86058Y271053D01*
X87043Y271461D01*
X87889Y272111D01*
X88539Y272957D01*
X88947Y273942D01*
X88955Y274000D01*
D02*
G37*
G36*
X84000D02*
X81046D01*
X81053Y273942D01*
X81461Y272957D01*
X82111Y272111D01*
X82957Y271461D01*
X83942Y271053D01*
X84000Y271045D01*
Y274000D01*
D02*
G37*
G36*
X78954D02*
X76000D01*
Y271045D01*
X76058Y271053D01*
X77043Y271461D01*
X77889Y272111D01*
X78539Y272957D01*
X78947Y273942D01*
X78954Y274000D01*
D02*
G37*
G36*
X74000D02*
X71046D01*
X71053Y273942D01*
X71461Y272957D01*
X72111Y272111D01*
X72957Y271461D01*
X73942Y271053D01*
X74000Y271045D01*
Y274000D01*
D02*
G37*
G36*
X68954D02*
X66000D01*
Y271045D01*
X66058Y271053D01*
X67043Y271461D01*
X67889Y272111D01*
X68539Y272957D01*
X68947Y273942D01*
X68954Y274000D01*
D02*
G37*
G36*
X64000D02*
X61045D01*
X61053Y273942D01*
X61461Y272957D01*
X62111Y272111D01*
X62957Y271461D01*
X63942Y271053D01*
X64000Y271045D01*
Y274000D01*
D02*
G37*
G36*
X58955D02*
X56000D01*
Y271045D01*
X56058Y271053D01*
X57043Y271461D01*
X57889Y272111D01*
X58539Y272957D01*
X58947Y273942D01*
X58955Y274000D01*
D02*
G37*
G36*
X54000D02*
X51046D01*
X51053Y273942D01*
X51461Y272957D01*
X52111Y272111D01*
X52957Y271461D01*
X53942Y271053D01*
X54000Y271045D01*
Y274000D01*
D02*
G37*
G36*
X83500Y264503D02*
Y261600D01*
X86403D01*
X86397Y261644D01*
X85994Y262617D01*
X85353Y263453D01*
X84517Y264094D01*
X83544Y264497D01*
X83500Y264503D01*
D02*
G37*
G36*
X74000Y261757D02*
X73808Y261699D01*
X72592Y261049D01*
X71526Y260174D01*
X70652Y259108D01*
X70002Y257892D01*
X69943Y257700D01*
X74000D01*
Y261757D01*
D02*
G37*
G36*
Y252700D02*
X69943D01*
X70002Y252508D01*
X70652Y251292D01*
X71526Y250226D01*
X72592Y249352D01*
X73808Y248702D01*
X74000Y248643D01*
Y252700D01*
D02*
G37*
G36*
X86403Y249600D02*
X83500D01*
Y246697D01*
X83544Y246703D01*
X84517Y247106D01*
X85353Y247747D01*
X85994Y248583D01*
X86397Y249556D01*
X86403Y249600D01*
D02*
G37*
G36*
X81500Y264503D02*
X81456Y264497D01*
X80483Y264094D01*
X79647Y263453D01*
X79006Y262617D01*
X79000Y262603D01*
Y255200D01*
Y248597D01*
X79006Y248583D01*
X79647Y247747D01*
X80483Y247106D01*
X81456Y246703D01*
X81500Y246697D01*
Y250600D01*
X82500D01*
Y251600D01*
X86403D01*
X86397Y251644D01*
X85994Y252617D01*
X85353Y253453D01*
X84517Y254094D01*
X83544Y254497D01*
X83466Y254507D01*
X83534Y255200D01*
X83399Y256572D01*
X83477Y256694D01*
X83544Y256703D01*
X84517Y257106D01*
X85353Y257747D01*
X85994Y258583D01*
X86397Y259556D01*
X86403Y259600D01*
X82500D01*
Y260600D01*
X81500D01*
Y264503D01*
D02*
G37*
G36*
X79500Y241834D02*
Y238500D01*
X82834D01*
X82349Y239408D01*
X81474Y240474D01*
X80408Y241349D01*
X79500Y241834D01*
D02*
G37*
G36*
X73500D02*
X72592Y241349D01*
X71526Y240474D01*
X70652Y239408D01*
X70166Y238500D01*
X73500D01*
Y241834D01*
D02*
G37*
G36*
X46000Y241525D02*
Y238000D01*
X49525D01*
X48924Y239124D01*
X48113Y240113D01*
X47124Y240924D01*
X46000Y241525D01*
D02*
G37*
G36*
X28480D02*
X27356Y240924D01*
X26368Y240113D01*
X25556Y239124D01*
X24955Y238000D01*
X28480D01*
Y241525D01*
D02*
G37*
G36*
X49525Y233000D02*
X46000D01*
Y229475D01*
X47124Y230076D01*
X48113Y230887D01*
X48924Y231876D01*
X49525Y233000D01*
D02*
G37*
G36*
X28480D02*
X24955D01*
X25556Y231876D01*
X26368Y230887D01*
X27356Y230076D01*
X28480Y229475D01*
Y233000D01*
D02*
G37*
G36*
X33480Y241525D02*
Y235500D01*
Y229475D01*
X34605Y230076D01*
X35593Y230887D01*
X36068Y231466D01*
X38413D01*
X38887Y230887D01*
X39876Y230076D01*
X41000Y229475D01*
Y235500D01*
Y241525D01*
X39876Y240924D01*
X38887Y240113D01*
X38413Y239534D01*
X36068D01*
X35593Y240113D01*
X34605Y240924D01*
X33480Y241525D01*
D02*
G37*
G36*
X82834Y232500D02*
X79500D01*
Y229166D01*
X80408Y229651D01*
X81474Y230526D01*
X82349Y231592D01*
X82834Y232500D01*
D02*
G37*
G36*
X73500D02*
X70166D01*
X70652Y231592D01*
X71526Y230526D01*
X72592Y229651D01*
X73500Y229166D01*
Y232500D01*
D02*
G37*
G36*
X79500Y222134D02*
Y218800D01*
X82834D01*
X82349Y219708D01*
X81474Y220774D01*
X80408Y221649D01*
X79500Y222134D01*
D02*
G37*
G36*
X73500D02*
X72592Y221649D01*
X71526Y220774D01*
X70652Y219708D01*
X70166Y218800D01*
X73500D01*
Y222134D01*
D02*
G37*
G36*
X46000Y212037D02*
Y208512D01*
X49525D01*
X48924Y209636D01*
X48113Y210625D01*
X47124Y211436D01*
X46000Y212037D01*
D02*
G37*
G36*
X28480D02*
X27356Y211436D01*
X26368Y210625D01*
X25556Y209636D01*
X24955Y208512D01*
X28480D01*
Y212037D01*
D02*
G37*
G36*
X49525Y203512D02*
X46000D01*
Y199987D01*
X47124Y200588D01*
X48113Y201399D01*
X48924Y202387D01*
X49525Y203512D01*
D02*
G37*
G36*
X28480D02*
X24955D01*
X25556Y202387D01*
X26368Y201399D01*
X27356Y200588D01*
X28480Y199987D01*
Y203512D01*
D02*
G37*
G36*
X33480Y212037D02*
Y206012D01*
Y199987D01*
X34605Y200588D01*
X35593Y201399D01*
X36068Y201977D01*
X38413D01*
X38887Y201399D01*
X39876Y200588D01*
X41000Y199987D01*
Y206012D01*
Y212037D01*
X39876Y211436D01*
X38887Y210625D01*
X38413Y210046D01*
X36068D01*
X35593Y210625D01*
X34605Y211436D01*
X33480Y212037D01*
D02*
G37*
%LPD*%
D54*
X30980Y235500D02*
X43500D01*
X30980Y206012D02*
X43500D01*
X76500Y215800D02*
X76800Y215500D01*
D59*
X119500Y11717D02*
D03*
X124500D02*
D03*
X134500D02*
D03*
D60*
X195000Y53000D02*
D03*
X6000Y268500D02*
D03*
X45000Y12189D02*
D03*
X15000Y165012D02*
D03*
X127689Y64189D02*
D03*
X15000Y120000D02*
D03*
X76000Y12000D02*
D03*
X82500Y260600D02*
D03*
Y250600D02*
D03*
Y240600D02*
D03*
Y230600D02*
D03*
Y220600D02*
D03*
Y210600D02*
D03*
D61*
X43500Y235500D02*
D03*
X30980D02*
D03*
X43500Y206012D02*
D03*
X30980D02*
D03*
D62*
X170000Y152284D02*
D03*
X195590D02*
D03*
D63*
X150000Y283000D02*
D03*
X124409D02*
D03*
D66*
X76500Y196100D02*
D03*
D67*
Y215800D02*
D03*
Y235500D02*
D03*
Y255200D02*
D03*
D68*
X182500Y190600D02*
D03*
X192500D02*
D03*
X82500Y200600D02*
D03*
Y190600D02*
D03*
D69*
X105000Y275000D02*
D03*
X95000D02*
D03*
X85000D02*
D03*
X75000D02*
D03*
X65000D02*
D03*
X55000D02*
D03*
X105000Y285000D02*
D03*
X95000D02*
D03*
X85000D02*
D03*
X75000D02*
D03*
X65000D02*
D03*
X55000D02*
D03*
D71*
X124000Y171318D02*
D03*
X139000Y235500D02*
D03*
D72*
X32000Y180000D02*
D03*
X142000Y290000D02*
D03*
X139000Y250000D02*
D03*
X151500Y236000D02*
D03*
X102000Y191500D02*
D03*
X127689Y273000D02*
D03*
X109500Y255500D02*
D03*
X96500D02*
D03*
X56945Y172000D02*
D03*
X92500Y109500D02*
D03*
X111500Y209000D02*
D03*
X152500Y219500D02*
D03*
M02*
