G04*
G04 #@! TF.GenerationSoftware,Altium Limited,Altium Designer,19.0.15 (446)*
G04*
G04 Layer_Color=32768*
%FSLAX25Y25*%
%MOIN*%
G70*
G01*
G75*
%ADD11C,0.00787*%
%ADD14C,0.00394*%
%ADD86C,0.00197*%
D11*
X114287Y204831D02*
Y246169D01*
X94602Y204831D02*
X114287D01*
X94602D02*
Y246169D01*
X114287D01*
X14543Y179260D02*
Y262252D01*
X59937D01*
Y179260D02*
Y262252D01*
X14543Y179260D02*
X59937D01*
D14*
X187500Y157032D02*
Y160968D01*
X185531Y159000D02*
X189469D01*
X127031Y38500D02*
X130968D01*
X129000Y36531D02*
Y40468D01*
X112531Y38500D02*
X116468D01*
X114500Y36531D02*
Y40468D01*
X183000Y77531D02*
Y81468D01*
X181032Y79500D02*
X184969D01*
X183000Y87031D02*
Y90968D01*
X181032Y89000D02*
X184969D01*
X128500Y233531D02*
Y237468D01*
X126532Y235500D02*
X130469D01*
X165500Y246532D02*
Y250469D01*
X163532Y248500D02*
X167469D01*
X160532Y101000D02*
X164469D01*
X162500Y99031D02*
Y102969D01*
X183848Y125500D02*
X187786D01*
X185817Y123532D02*
Y127469D01*
X176032Y250000D02*
X179969D01*
X178000Y248031D02*
Y251968D01*
X160000Y164531D02*
Y168468D01*
X158032Y166500D02*
X161969D01*
X28032Y258501D02*
X31969D01*
X30000Y256532D02*
Y260469D01*
X55000Y147532D02*
Y151469D01*
X53031Y149500D02*
X56968D01*
X38032Y135000D02*
X41969D01*
X40000Y133032D02*
Y136969D01*
X148031Y45000D02*
X151969D01*
X150000Y43031D02*
Y46968D01*
X79532Y129500D02*
X83469D01*
X81500Y127532D02*
Y131468D01*
X74500Y157531D02*
Y161469D01*
X72531Y159500D02*
X76468D01*
X106750Y157531D02*
Y161469D01*
X104781Y159500D02*
X108719D01*
X139000Y157531D02*
Y161468D01*
X137031Y159500D02*
X140968D01*
X85031Y55000D02*
X88968D01*
X87000Y53032D02*
Y56969D01*
X138031Y160500D02*
X141968D01*
X140000Y158531D02*
Y162468D01*
X105031Y160500D02*
X108968D01*
X107000Y158531D02*
Y162468D01*
X72531Y160500D02*
X76468D01*
X74500Y158531D02*
Y162468D01*
X151031Y207957D02*
X154968D01*
X153000Y205988D02*
Y209925D01*
X100032Y11500D02*
X103969D01*
X102000Y9532D02*
Y13469D01*
X146032Y24000D02*
X149969D01*
X148000Y22032D02*
Y25969D01*
X183032Y124500D02*
X186969D01*
X185000Y122532D02*
Y126469D01*
X128031Y99000D02*
X131968D01*
X130000Y97031D02*
Y100969D01*
X58500Y59032D02*
Y62969D01*
X56532Y61000D02*
X60469D01*
X42000Y58531D02*
Y62469D01*
X40032Y60500D02*
X43969D01*
X132532Y29000D02*
X136469D01*
X134500Y27032D02*
Y30969D01*
X189740Y95531D02*
Y99468D01*
X187772Y97500D02*
X191709D01*
X84000Y65531D02*
Y69469D01*
X82032Y67500D02*
X85969D01*
X84000Y57032D02*
Y60969D01*
X82031Y59000D02*
X85968D01*
X84000Y49032D02*
Y52969D01*
X82031Y51000D02*
X85969D01*
X84000Y40532D02*
Y44469D01*
X82031Y42500D02*
X85969D01*
X165000Y9532D02*
Y13469D01*
X163031Y11500D02*
X166968D01*
X9677Y42331D02*
Y46268D01*
X7709Y44300D02*
X11646D01*
X9677Y55331D02*
Y59268D01*
X7709Y57300D02*
X11646D01*
X9177Y69031D02*
Y72968D01*
X7209Y71000D02*
X11146D01*
X9177Y81831D02*
Y85768D01*
X7209Y83800D02*
X11146D01*
X79531Y119500D02*
X83468D01*
X81500Y117532D02*
Y121469D01*
X79531Y109500D02*
X83468D01*
X81500Y107532D02*
Y111469D01*
X79531Y99500D02*
X83468D01*
X81500Y97532D02*
Y101469D01*
X79531Y89500D02*
X83468D01*
X81500Y87532D02*
Y91469D01*
X10169Y42332D02*
Y46269D01*
X8201Y44300D02*
X12138D01*
X3378Y47646D02*
X16961D01*
X3378Y40954D02*
X16961D01*
X3378D02*
Y47646D01*
X16961Y40954D02*
Y47646D01*
X135032Y175000D02*
X138969D01*
X137000Y173031D02*
Y176968D01*
X162953Y11500D02*
X166890D01*
X164921Y9532D02*
Y13469D01*
X7898Y84300D02*
X11835D01*
X9866Y82331D02*
Y86268D01*
X7898Y71000D02*
X11835D01*
X9866Y69031D02*
Y72968D01*
X8032Y57000D02*
X11969D01*
X10000Y55031D02*
Y58968D01*
X177500Y199532D02*
Y203469D01*
X175532Y201500D02*
X179469D01*
D86*
X183563Y165890D02*
X191437D01*
X183563Y152110D02*
X191437D01*
X183563D02*
Y165890D01*
X191437Y152110D02*
Y165890D01*
X135890Y34760D02*
Y42240D01*
X122110Y34760D02*
Y42240D01*
Y34760D02*
X135890D01*
X122110Y42240D02*
X135890D01*
X121390Y34760D02*
Y42240D01*
X107610Y34760D02*
Y42240D01*
Y34760D02*
X121390D01*
X107610Y42240D02*
X121390D01*
X176110Y83240D02*
X189890D01*
X176110Y75760D02*
X189890D01*
Y83240D01*
X176110Y75760D02*
Y83240D01*
Y92740D02*
X189890D01*
X176110Y85260D02*
X189890D01*
Y92740D01*
X176110Y85260D02*
Y92740D01*
X121610Y239437D02*
X135390D01*
X121610Y231563D02*
X135390D01*
Y239437D01*
X121610Y231563D02*
Y239437D01*
X161760Y241610D02*
X169240D01*
X161760Y255390D02*
X169240D01*
Y241610D02*
Y255390D01*
X161760Y241610D02*
Y255390D01*
X158760Y94110D02*
Y107890D01*
X166240Y94110D02*
Y107890D01*
X158760D02*
X166240D01*
X158760Y94110D02*
X166240D01*
X177549Y112156D02*
Y138845D01*
X194085Y112156D02*
Y138845D01*
X177549D02*
X194085D01*
X177549Y112156D02*
X194085D01*
X174260Y243110D02*
Y256890D01*
X181740Y243110D02*
Y256890D01*
X174260Y243110D02*
X181740D01*
X174260Y256890D02*
X181740D01*
X156260Y173390D02*
X163740D01*
X156260Y159610D02*
X163740D01*
Y173390D01*
X156260Y159610D02*
Y173390D01*
X33544Y250232D02*
Y266768D01*
X26457Y250232D02*
Y266768D01*
X26457Y250233D02*
X33543D01*
X26457Y266769D02*
X33543D01*
X51260Y142610D02*
X58740D01*
X51260Y156390D02*
X58740D01*
X51260Y142610D02*
Y156390D01*
X58740Y142610D02*
Y156390D01*
X33110Y131260D02*
Y138740D01*
X46890Y131260D02*
Y138740D01*
X33110D02*
X46890D01*
X33110Y131260D02*
X46890D01*
X143110Y41260D02*
Y48740D01*
X156890Y41260D02*
Y48740D01*
X143110Y41260D02*
X156890D01*
X143110Y48740D02*
X156890D01*
X74610Y125563D02*
Y133437D01*
X88390Y125563D02*
Y133437D01*
X74610Y125563D02*
X88390D01*
X74610Y133437D02*
X88390D01*
X87492Y149264D02*
Y169728D01*
X61508Y149264D02*
X87492D01*
X61508D02*
Y169736D01*
X87492D01*
X119742Y149264D02*
Y169728D01*
X93758Y149264D02*
X119742D01*
X93758D02*
Y169736D01*
X119742D01*
X151992Y149264D02*
Y169728D01*
X126008Y149264D02*
X151992D01*
X126008D02*
Y169736D01*
X151992D01*
X69106Y42382D02*
Y67618D01*
Y42382D02*
X104894D01*
X69106Y67618D02*
X104894D01*
Y42382D02*
Y67618D01*
X143937Y153610D02*
Y167390D01*
X136063Y153610D02*
Y167390D01*
Y153610D02*
X143937D01*
X136063Y167390D02*
X143937D01*
X110937Y153610D02*
Y167390D01*
X103063Y153610D02*
Y167390D01*
Y153610D02*
X110937D01*
X103063Y167390D02*
X110937D01*
X78437Y153610D02*
Y167390D01*
X70563Y153610D02*
Y167390D01*
Y153610D02*
X78437D01*
X70563Y167390D02*
X78437D01*
X156937Y201067D02*
Y214846D01*
X149063Y201067D02*
Y214846D01*
Y201067D02*
X156937D01*
X149063Y214846D02*
X156937D01*
X98063Y4610D02*
Y18390D01*
X105937Y4610D02*
Y18390D01*
X98063D02*
X105937D01*
X98063Y4610D02*
X105937D01*
X144063Y17110D02*
Y30890D01*
X151937Y17110D02*
Y30890D01*
X144063D02*
X151937D01*
X144063Y17110D02*
X151937D01*
X182146Y117610D02*
Y131390D01*
X187854D01*
X182146Y117610D02*
X187854D01*
Y131390D01*
X136890Y95260D02*
Y102740D01*
X123110Y95260D02*
Y102740D01*
X136890D01*
X123110Y95260D02*
X136890D01*
X54760Y54110D02*
X62240D01*
X54760Y67890D02*
X62240D01*
Y54110D02*
Y67890D01*
X54760Y54110D02*
Y67890D01*
X38260Y53610D02*
X45740D01*
X38260Y67390D02*
X45740D01*
Y53610D02*
Y67390D01*
X38260Y53610D02*
Y67390D01*
X130760Y22110D02*
Y35890D01*
X138240Y22110D02*
Y35890D01*
X130760D02*
X138240D01*
X130760Y22110D02*
X138240D01*
X44139Y102500D02*
X82000Y140361D01*
X119861Y102500D01*
X82000Y64639D02*
X119861Y102500D01*
X44139D02*
X82000Y64639D01*
X182850Y101240D02*
X196630D01*
X182850Y93760D02*
X196630D01*
Y101240D01*
X182850Y93760D02*
Y101240D01*
X77110Y63760D02*
X90890D01*
X77110Y71240D02*
X90890D01*
X77110Y63760D02*
Y71240D01*
X90890Y63760D02*
Y71240D01*
X77110Y55260D02*
X90890D01*
X77110Y62740D02*
X90890D01*
X77110Y55260D02*
Y62740D01*
X90890Y55260D02*
Y62740D01*
X77110Y47260D02*
X90890D01*
X77110Y54740D02*
X90890D01*
X77110Y47260D02*
Y54740D01*
X90890Y47260D02*
Y54740D01*
X77110Y38760D02*
X90890D01*
X77110Y46240D02*
X90890D01*
X77110Y38760D02*
Y46240D01*
X90890Y38760D02*
Y46240D01*
X158110Y7760D02*
X171890D01*
X158110Y15240D02*
X171890D01*
X158110Y7760D02*
Y15240D01*
X171890Y7760D02*
Y15240D01*
X2788Y48040D02*
X16567D01*
X2788Y40560D02*
X16567D01*
Y48040D01*
X2788Y40560D02*
Y48040D01*
Y61040D02*
X16567D01*
X2788Y53560D02*
X16567D01*
Y61040D01*
X2788Y53560D02*
Y61040D01*
X2287Y74740D02*
X16067D01*
X2287Y67260D02*
X16067D01*
Y74740D01*
X2287Y67260D02*
Y74740D01*
Y87540D02*
X16067D01*
X2287Y80060D02*
X16067D01*
Y87540D01*
X2287Y80060D02*
Y87540D01*
X88390Y115563D02*
Y123437D01*
X74610Y115563D02*
Y123437D01*
X88390D01*
X74610Y115563D02*
X88390D01*
Y105563D02*
Y113437D01*
X74610Y105563D02*
Y113437D01*
X88390D01*
X74610Y105563D02*
X88390D01*
Y95563D02*
Y103437D01*
X74610Y95563D02*
Y103437D01*
X88390D01*
X74610Y95563D02*
X88390D01*
Y85563D02*
Y93437D01*
X74610Y85563D02*
Y93437D01*
X88390D01*
X74610Y85563D02*
X88390D01*
X129520Y172146D02*
X144480D01*
X129520D02*
Y177854D01*
X144480Y172146D02*
Y177854D01*
X129520D02*
X144480D01*
X157441Y14354D02*
X172402D01*
Y8646D02*
Y14354D01*
X157441Y8646D02*
Y14354D01*
Y8646D02*
X172402D01*
X2976Y81446D02*
X16756D01*
X2976D02*
Y87154D01*
X16756Y81446D02*
Y87154D01*
X2976D02*
X16756D01*
X2976Y68146D02*
X16756D01*
X2976D02*
Y73854D01*
X16756Y68146D02*
Y73854D01*
X2976D02*
X16756D01*
X3110Y54146D02*
X16890D01*
X3110D02*
Y59854D01*
X16890Y54146D02*
Y59854D01*
X3110D02*
X16890D01*
X23366Y290886D02*
X106634D01*
X23366Y269114D02*
Y290886D01*
Y269114D02*
X106634D01*
Y290886D01*
X170610Y197760D02*
X184390D01*
X170610Y205240D02*
X184390D01*
Y197760D02*
Y205240D01*
X170610Y197760D02*
Y205240D01*
M02*
