M48
;Layer_Color=9474304
;FILE_FORMAT=2:5
INCH,LZ
;TYPE=PLATED
T1F00S00C0.01000
T2F00S00C0.02800
T3F00S00C0.03200
T4F00S00C0.03543
T5F00S00C0.03898
T6F00S00C0.04000
T7F00S00C0.04016
T8F00S00C0.04921
T9F00S00C0.07323
T10F00S00C0.08600
T11F00S00C0.13800
;TYPE=NON_PLATED
T12F00S00C0.04000
T13F00S00C0.04724
T14F00S00C0.12126
%
T01
X00045Y005
Y0063
X0004Y0077
Y009
X0059461Y0078539
X0062Y0075
X00655Y00725
X007Y0074
X00645Y00625
X0064539Y0057461
Y0052461
Y0047461
X0105579Y0080579
X0108289Y0083289
X0111Y0086
X0113711Y0088711
X01165Y0091432
X0117Y01065
Y01105
Y01145
X01225Y01455
X0095Y0136736
X00745Y01455
X0068Y0133
X0064Y01295
X00625Y0125
X0128Y0082
X0122Y0071
X01625Y009174
X01755Y00945
X01785Y00975
X01745Y0084
X0162Y0132
X01745Y00165
X01685Y0213932
X0139Y02355
X01405Y0189
X01215Y01885
X01225Y0175
T02
X0016536Y00913
X005075Y01
X00705Y011
X00925Y01095
X0093Y0094
X00795Y00835
X01145Y0016717
Y0011717
X01195
Y0016717
X01245
Y0011717
X01295
Y0016717
X01345
Y0011717
X0171Y0115
X01345Y01935
X0102Y01915
X01115Y0209
X01095Y02555
X00965
X0139Y025
X01515Y0236
X01525Y02195
X0127689Y0273
X0142Y029
X00225Y02465
X0032Y018
X0056945Y0172
T03
X00115Y00275
X0055Y0035
X01Y003
X01545Y00555
X0154Y0099
X01325Y01285
Y01365
X0119Y0128
X0105Y01375
X0047Y01455
X00455Y0126
X00055Y01355
X0162Y01135
X0195Y0089
Y0079
Y0053
X01773Y01785
X0006Y02685
T04
X0178Y0273
Y0283
Y0293
T05
X017Y0152284
X019559
Y017
X017
T06
X00365Y0012
Y0023811
X0076
Y0012
X0127689Y0064189
X01395
Y0076
X0127689
Y0087811
X01395
X0026811Y0108189
Y012
X0015
Y0108189
Y0153201
X0026811
X01725Y01906
X01825
X01925
Y02006
Y02106
Y02206
Y02306
Y02406
Y02506
Y02606
X0149Y02571
X01293
X00825Y02606
Y02506
Y02406
Y02306
Y02206
Y02106
Y02006
Y01906
X0026811Y0165012
X0015
T07
X003Y0275
X004
X005
X006
X007
X008
X009
X01
Y0285
X009
X008
X007
X006
X005
X004
X003
T08
X0124409Y0283
X015
T09
X003098Y0206012
X00435
Y02355
X003098
T10
X00765Y01961
Y02158
Y02355
Y02552
T11
X00089Y00089
X01911
Y02911
X00089
T12
X0024689Y0027512
X0048311
X0064189
X0087811
X0143201Y0052378
Y0099622
X0038622Y0104488
X0003189
Y01495
X0038622
T13
X0115157Y0294496
T14
X0044484Y0187311
Y0254201
M30
