G04*
G04 #@! TF.GenerationSoftware,Altium Limited,Altium Designer,19.0.15 (446)*
G04*
G04 Layer_Color=8388736*
%FSLAX25Y25*%
%MOIN*%
G70*
G01*
G75*
%ADD16R,0.25000X0.10000*%
%ADD17R,0.04934X0.06312*%
%ADD18R,0.06312X0.04934*%
%ADD19R,0.06706X0.04343*%
%ADD20R,0.05800X0.03792*%
%ADD21R,0.05524X0.05524*%
G04:AMPARAMS|DCode=22|XSize=61.02mil|YSize=11.81mil|CornerRadius=0mil|HoleSize=0mil|Usage=FLASHONLY|Rotation=135.000|XOffset=0mil|YOffset=0mil|HoleType=Round|Shape=Rectangle|*
%AMROTATEDRECTD22*
4,1,4,0.02575,-0.01740,0.01740,-0.02575,-0.02575,0.01740,-0.01740,0.02575,0.02575,-0.01740,0.0*
%
%ADD22ROTATEDRECTD22*%

G04:AMPARAMS|DCode=23|XSize=61.02mil|YSize=11.81mil|CornerRadius=0mil|HoleSize=0mil|Usage=FLASHONLY|Rotation=45.000|XOffset=0mil|YOffset=0mil|HoleType=Round|Shape=Rectangle|*
%AMROTATEDRECTD23*
4,1,4,-0.01740,-0.02575,-0.02575,-0.01740,0.01740,0.02575,0.02575,0.01740,-0.01740,-0.02575,0.0*
%
%ADD23ROTATEDRECTD23*%

%ADD24R,0.05131X0.05524*%
%ADD25R,0.05131X0.05721*%
%ADD26R,0.05524X0.05524*%
%ADD27R,0.04600X0.04600*%
%ADD28C,0.04600*%
%ADD29C,0.06800*%
%ADD30O,0.09700X0.06800*%
%ADD31C,0.00800*%
%ADD32C,0.11784*%
%ADD33C,0.06698*%
%ADD34C,0.08083*%
%ADD35C,0.06706*%
%ADD36R,0.06706X0.06706*%
%ADD37R,0.12800X0.12800*%
%ADD38C,0.12800*%
%ADD39R,0.06800X0.06800*%
%ADD40C,0.06902*%
%ADD41R,0.06902X0.06902*%
%ADD42C,0.05800*%
%ADD43C,0.03300*%
D16*
X124500Y14216D02*
D03*
D17*
X132740Y38500D02*
D03*
X125260D02*
D03*
X118240D02*
D03*
X110760D02*
D03*
X36260Y135000D02*
D03*
X43740D02*
D03*
X181240Y201500D02*
D03*
X173760D02*
D03*
D18*
X178000Y246260D02*
D03*
Y253740D02*
D03*
X160000Y170240D02*
D03*
Y162760D02*
D03*
X55000Y145760D02*
D03*
Y153240D02*
D03*
D19*
X84146Y153004D02*
D03*
Y165996D02*
D03*
X64854D02*
D03*
Y153004D02*
D03*
X116396D02*
D03*
Y165996D02*
D03*
X97104D02*
D03*
Y153004D02*
D03*
X148646Y153004D02*
D03*
Y165996D02*
D03*
X129354D02*
D03*
Y153004D02*
D03*
D20*
X102000Y62500D02*
D03*
Y57500D02*
D03*
Y52500D02*
D03*
Y47500D02*
D03*
X72000D02*
D03*
Y52500D02*
D03*
Y57500D02*
D03*
Y62500D02*
D03*
D21*
X185000Y128634D02*
D03*
Y120366D02*
D03*
D22*
X55553Y108068D02*
D03*
X56945Y109460D02*
D03*
X58337Y110852D02*
D03*
X59729Y112244D02*
D03*
X61121Y113636D02*
D03*
X62513Y115027D02*
D03*
X63905Y116419D02*
D03*
X65297Y117811D02*
D03*
X66689Y119203D02*
D03*
X68081Y120595D02*
D03*
X69473Y121987D02*
D03*
X70864Y123379D02*
D03*
X72256Y124771D02*
D03*
X73648Y126163D02*
D03*
X75040Y127555D02*
D03*
X76432Y128947D02*
D03*
X108447Y96932D02*
D03*
X107055Y95540D02*
D03*
X105663Y94148D02*
D03*
X104271Y92756D02*
D03*
X102879Y91364D02*
D03*
X101487Y89973D02*
D03*
X100095Y88581D02*
D03*
X98703Y87189D02*
D03*
X97311Y85797D02*
D03*
X95919Y84405D02*
D03*
X94527Y83013D02*
D03*
X93136Y81621D02*
D03*
X91744Y80229D02*
D03*
X90352Y78837D02*
D03*
X88960Y77445D02*
D03*
X87568Y76053D02*
D03*
D23*
Y128947D02*
D03*
X88960Y127555D02*
D03*
X90352Y126163D02*
D03*
X91744Y124771D02*
D03*
X93136Y123379D02*
D03*
X94527Y121987D02*
D03*
X95919Y120595D02*
D03*
X97311Y119203D02*
D03*
X98703Y117811D02*
D03*
X100095Y116419D02*
D03*
X101487Y115027D02*
D03*
X102879Y113636D02*
D03*
X104271Y112244D02*
D03*
X105663Y110852D02*
D03*
X107055Y109460D02*
D03*
X108447Y108068D02*
D03*
X76432Y76053D02*
D03*
X75040Y77445D02*
D03*
X73648Y78837D02*
D03*
X72256Y80229D02*
D03*
X70864Y81621D02*
D03*
X69473Y83013D02*
D03*
X68081Y84405D02*
D03*
X66689Y85797D02*
D03*
X65297Y87189D02*
D03*
X63905Y88581D02*
D03*
X62513Y89973D02*
D03*
X61121Y91364D02*
D03*
X59729Y92756D02*
D03*
X58337Y94148D02*
D03*
X56945Y95540D02*
D03*
X55553Y96932D02*
D03*
D24*
X6036Y44300D02*
D03*
X14303D02*
D03*
D25*
X132079Y175000D02*
D03*
X141921D02*
D03*
X169842Y11500D02*
D03*
X160000D02*
D03*
D26*
X5732Y84300D02*
D03*
X14000D02*
D03*
X5732Y71000D02*
D03*
X14000D02*
D03*
X5866Y57000D02*
D03*
X14134D02*
D03*
D27*
X114500Y11717D02*
D03*
D28*
Y16717D02*
D03*
X119500Y11717D02*
D03*
Y16717D02*
D03*
X124500Y11717D02*
D03*
Y16717D02*
D03*
X129500Y11717D02*
D03*
Y16717D02*
D03*
X134500Y11717D02*
D03*
Y16717D02*
D03*
D29*
X195000Y53000D02*
D03*
Y79000D02*
D03*
Y89000D02*
D03*
X6000Y268500D02*
D03*
X119000Y128000D02*
D03*
X11500Y27500D02*
D03*
X47000Y145500D02*
D03*
X36500Y23811D02*
D03*
Y12000D02*
D03*
X105000Y137500D02*
D03*
X26811Y165012D02*
D03*
Y153201D02*
D03*
X15000Y165012D02*
D03*
Y153201D02*
D03*
X139500Y64189D02*
D03*
X127689D02*
D03*
X139500Y76000D02*
D03*
X127689D02*
D03*
Y87811D02*
D03*
X139500D02*
D03*
X26811Y120000D02*
D03*
Y108189D02*
D03*
X15000Y120000D02*
D03*
Y108189D02*
D03*
X154500Y55500D02*
D03*
X154000Y99000D02*
D03*
X5500Y135500D02*
D03*
X191100Y291100D02*
D03*
Y8900D02*
D03*
X8900Y291100D02*
D03*
X132500Y136500D02*
D03*
Y128500D02*
D03*
X76000Y12000D02*
D03*
Y23811D02*
D03*
X45500Y126000D02*
D03*
X129300Y257100D02*
D03*
X149000D02*
D03*
X172500Y190600D02*
D03*
X192500Y200600D02*
D03*
Y210600D02*
D03*
Y220600D02*
D03*
Y230600D02*
D03*
Y240600D02*
D03*
Y250600D02*
D03*
Y260600D02*
D03*
X82500D02*
D03*
Y250600D02*
D03*
Y240600D02*
D03*
Y230600D02*
D03*
Y220600D02*
D03*
Y210600D02*
D03*
X100000Y30000D02*
D03*
X55000Y35000D02*
D03*
X177300Y178500D02*
D03*
X162000Y113500D02*
D03*
D30*
X8900Y8900D02*
D03*
D31*
X48311Y27512D02*
D03*
X24689D02*
D03*
X44484Y187311D02*
D03*
Y254201D02*
D03*
X38622Y149500D02*
D03*
X3189D02*
D03*
X143201Y52378D02*
D03*
Y99622D02*
D03*
X38622Y104488D02*
D03*
X3189D02*
D03*
X115157Y294496D02*
D03*
X64189Y27512D02*
D03*
X87811D02*
D03*
D32*
X43500Y235500D02*
D03*
X30980D02*
D03*
X43500Y206012D02*
D03*
X30980D02*
D03*
D33*
X170000Y170000D02*
D03*
X195590D02*
D03*
X170000Y152284D02*
D03*
X195590D02*
D03*
D34*
X150000Y283000D02*
D03*
X124409D02*
D03*
D35*
X178000Y273000D02*
D03*
Y283000D02*
D03*
D36*
Y293000D02*
D03*
D37*
X76500Y196100D02*
D03*
D38*
Y215800D02*
D03*
Y235500D02*
D03*
Y255200D02*
D03*
D39*
X182500Y190600D02*
D03*
X192500D02*
D03*
X82500Y200600D02*
D03*
Y190600D02*
D03*
D40*
X100000Y275000D02*
D03*
X90000D02*
D03*
X80000D02*
D03*
X70000D02*
D03*
X60000D02*
D03*
X50000D02*
D03*
X40000D02*
D03*
X100000Y285000D02*
D03*
X90000D02*
D03*
X80000D02*
D03*
X70000D02*
D03*
X60000D02*
D03*
X50000D02*
D03*
X40000D02*
D03*
X30000D02*
D03*
D41*
Y275000D02*
D03*
D42*
X32000Y180000D02*
D03*
X22500Y246500D02*
D03*
X142000Y290000D02*
D03*
X139000Y250000D02*
D03*
X151500Y236000D02*
D03*
X102000Y191500D02*
D03*
X127689Y273000D02*
D03*
X109500Y255500D02*
D03*
X96500D02*
D03*
X56945Y172000D02*
D03*
X50750Y100000D02*
D03*
X134500Y193500D02*
D03*
X79500Y83500D02*
D03*
X70500Y110000D02*
D03*
X171000Y115000D02*
D03*
X93000Y94000D02*
D03*
X16536Y91300D02*
D03*
X92500Y109500D02*
D03*
X111500Y209000D02*
D03*
X152500Y219500D02*
D03*
D43*
X74500Y145500D02*
D03*
X122500Y175000D02*
D03*
Y145500D02*
D03*
X95000Y136736D02*
D03*
X70000Y74000D02*
D03*
X128000Y82000D02*
D03*
X175500Y94500D02*
D03*
X65500Y72500D02*
D03*
X122000Y71000D02*
D03*
X174500Y84000D02*
D03*
X116500Y91432D02*
D03*
X64539Y47461D02*
D03*
Y52461D02*
D03*
Y57461D02*
D03*
X64500Y62500D02*
D03*
X4000Y90000D02*
D03*
X178500Y97500D02*
D03*
X4000Y77000D02*
D03*
X4500Y63000D02*
D03*
X174500Y16500D02*
D03*
X168500Y213932D02*
D03*
X4500Y50000D02*
D03*
X162500Y91740D02*
D03*
X117000Y110500D02*
D03*
X59461Y78539D02*
D03*
X62000Y75000D02*
D03*
X162000Y132000D02*
D03*
X117000Y114500D02*
D03*
X139000Y235500D02*
D03*
X62500Y125000D02*
D03*
X64000Y129500D02*
D03*
X68000Y133000D02*
D03*
X117000Y106500D02*
D03*
X113711Y88711D02*
D03*
X111000Y86000D02*
D03*
X108289Y83289D02*
D03*
X105579Y80579D02*
D03*
X140500Y189000D02*
D03*
X121500Y188500D02*
D03*
M02*
