G04*
G04 #@! TF.GenerationSoftware,Altium Limited,Altium Designer,19.1.8 (144)*
G04*
G04 Layer_Physical_Order=1*
G04 Layer_Color=255*
%FSLAX25Y25*%
%MOIN*%
G70*
G01*
G75*
%ADD10C,0.01000*%
%ADD16R,0.04134X0.05512*%
%ADD17R,0.05512X0.04134*%
%ADD18R,0.05906X0.03543*%
%ADD19R,0.05000X0.02992*%
%ADD20R,0.04724X0.04724*%
G04:AMPARAMS|DCode=21|XSize=61.02mil|YSize=11.81mil|CornerRadius=0mil|HoleSize=0mil|Usage=FLASHONLY|Rotation=135.000|XOffset=0mil|YOffset=0mil|HoleType=Round|Shape=Rectangle|*
%AMROTATEDRECTD21*
4,1,4,0.02575,-0.01740,0.01740,-0.02575,-0.02575,0.01740,-0.01740,0.02575,0.02575,-0.01740,0.0*
%
%ADD21ROTATEDRECTD21*%

G04:AMPARAMS|DCode=22|XSize=61.02mil|YSize=11.81mil|CornerRadius=0mil|HoleSize=0mil|Usage=FLASHONLY|Rotation=45.000|XOffset=0mil|YOffset=0mil|HoleType=Round|Shape=Rectangle|*
%AMROTATEDRECTD22*
4,1,4,-0.01740,-0.02575,-0.02575,-0.01740,0.01740,0.02575,0.02575,0.01740,-0.01740,-0.02575,0.0*
%
%ADD22ROTATEDRECTD22*%

%ADD23R,0.04331X0.04724*%
%ADD24R,0.04331X0.04921*%
%ADD25R,0.04724X0.04724*%
%ADD52C,0.02000*%
%ADD53C,0.02500*%
%ADD54C,0.05000*%
%ADD55C,0.01200*%
%ADD56C,0.00800*%
%ADD57O,0.08900X0.06000*%
%ADD58R,0.04000X0.04000*%
%ADD59C,0.04000*%
%ADD60C,0.06000*%
%ADD61C,0.10984*%
%ADD62C,0.05898*%
%ADD63C,0.07284*%
%ADD64C,0.05906*%
%ADD65R,0.05906X0.05906*%
%ADD66R,0.12000X0.12000*%
%ADD67C,0.12000*%
%ADD68R,0.06000X0.06000*%
%ADD69C,0.06102*%
%ADD70R,0.06102X0.06102*%
%ADD71C,0.02500*%
%ADD72C,0.05000*%
G36*
X64779Y244279D02*
X65110Y244058D01*
X65500Y243980D01*
X81445D01*
X81511Y243993D01*
X81579Y243989D01*
X82500Y244110D01*
X83421Y243989D01*
X83489Y243993D01*
X83555Y243980D01*
X88500D01*
Y226520D01*
X22500D01*
Y239500D01*
X36581Y255822D01*
X37019Y255564D01*
X36885Y254201D01*
X37031Y252718D01*
X37463Y251293D01*
X38165Y249979D01*
X39110Y248827D01*
X40262Y247882D01*
X41576Y247180D01*
X43002Y246747D01*
X44484Y246601D01*
X45967Y246747D01*
X47392Y247180D01*
X48706Y247882D01*
X49858Y248827D01*
X50803Y249979D01*
X51505Y251293D01*
X51938Y252718D01*
X52084Y254201D01*
X51938Y255683D01*
X51620Y256731D01*
X52062Y256996D01*
X64779Y244279D01*
D02*
G37*
G36*
X133500Y269000D02*
X109500Y245000D01*
X83555D01*
X82500Y245139D01*
X81445Y245000D01*
X65500D01*
X45000Y265500D01*
Y270409D01*
X46188Y270566D01*
X47295Y271024D01*
X48246Y271754D01*
X48976Y272705D01*
X49434Y273812D01*
X49590Y275000D01*
X49434Y276188D01*
X48976Y277295D01*
X48246Y278246D01*
X47295Y278976D01*
X46188Y279434D01*
X45687Y279500D01*
X45720Y280000D01*
X112500D01*
X121000Y288500D01*
X133500D01*
X133500Y269000D01*
D02*
G37*
G36*
X88500Y209000D02*
X79688D01*
X79563Y209500D01*
X80408Y209951D01*
X81474Y210826D01*
X82349Y211892D01*
X82834Y212800D01*
X76500D01*
X70166D01*
X70652Y211892D01*
X71526Y210826D01*
X72592Y209951D01*
X73437Y209500D01*
X73312Y209000D01*
X63000D01*
X62520Y208520D01*
X62500D01*
X62110Y208442D01*
X61779Y208221D01*
X61558Y207890D01*
X61480Y207500D01*
Y207480D01*
X60000Y206000D01*
Y181000D01*
X49458D01*
X49290Y181471D01*
X49858Y181937D01*
X50803Y183089D01*
X51505Y184403D01*
X51938Y185828D01*
X52084Y187311D01*
X51938Y188794D01*
X51505Y190219D01*
X50803Y191533D01*
X49858Y192685D01*
X48706Y193630D01*
X47392Y194332D01*
X45967Y194765D01*
X44484Y194911D01*
X43002Y194765D01*
X41576Y194332D01*
X40262Y193630D01*
X39110Y192685D01*
X38165Y191533D01*
X37463Y190219D01*
X37031Y188794D01*
X36885Y187311D01*
X37031Y185828D01*
X37463Y184403D01*
X38165Y183089D01*
X39110Y181937D01*
X39679Y181471D01*
X39511Y181000D01*
X35903D01*
X35897Y181044D01*
X35494Y182017D01*
X34853Y182853D01*
X34017Y183494D01*
X33044Y183897D01*
X32000Y184035D01*
X30956Y183897D01*
X29983Y183494D01*
X29147Y182853D01*
X28506Y182017D01*
X28103Y181044D01*
X28097Y181000D01*
X22500D01*
Y225500D01*
X88500D01*
Y209000D01*
D02*
G37*
G36*
X159000Y231000D02*
X108500Y180500D01*
X62500Y180500D01*
X62500Y207500D01*
X79207Y207500D01*
X79291Y207391D01*
X80231Y206669D01*
X81325Y206216D01*
X82500Y206061D01*
X83675Y206216D01*
X84769Y206669D01*
X85709Y207391D01*
X85793Y207500D01*
X94500D01*
X133500Y246500D01*
Y255481D01*
X133684Y255925D01*
X133839Y257100D01*
X133684Y258275D01*
X133500Y258719D01*
X133500Y267558D01*
X134221Y268279D01*
X134442Y268610D01*
X134520Y269000D01*
X134520Y288500D01*
X134442Y288890D01*
X134221Y289221D01*
X133890Y289442D01*
X133500Y289520D01*
X121000D01*
X120610Y289442D01*
X120279Y289221D01*
X112078Y281020D01*
X107255D01*
X107154Y281230D01*
X107119Y281520D01*
X107889Y282111D01*
X108539Y282957D01*
X108947Y283942D01*
X108955Y284000D01*
X101046D01*
X101053Y283942D01*
X101461Y282957D01*
X102111Y282111D01*
X102881Y281520D01*
X102846Y281230D01*
X102745Y281020D01*
X97255D01*
X97154Y281230D01*
X97119Y281520D01*
X97889Y282111D01*
X98539Y282957D01*
X98947Y283942D01*
X98954Y284000D01*
X91045D01*
X91053Y283942D01*
X91461Y282957D01*
X92111Y282111D01*
X92881Y281520D01*
X92846Y281230D01*
X92745Y281020D01*
X87255D01*
X87154Y281230D01*
X87119Y281520D01*
X87889Y282111D01*
X88539Y282957D01*
X88947Y283942D01*
X88955Y284000D01*
X81046D01*
X81053Y283942D01*
X81461Y282957D01*
X82111Y282111D01*
X82881Y281520D01*
X82846Y281230D01*
X82745Y281020D01*
X77255D01*
X77154Y281230D01*
X77119Y281520D01*
X77889Y282111D01*
X78539Y282957D01*
X78947Y283942D01*
X78954Y284000D01*
X71046D01*
X71053Y283942D01*
X71461Y282957D01*
X72111Y282111D01*
X72881Y281520D01*
X72846Y281230D01*
X72745Y281020D01*
X67255D01*
X67154Y281230D01*
X67119Y281520D01*
X67889Y282111D01*
X68539Y282957D01*
X68947Y283942D01*
X68954Y284000D01*
X61045D01*
X61053Y283942D01*
X61461Y282957D01*
X62111Y282111D01*
X62881Y281520D01*
X62846Y281230D01*
X62745Y281020D01*
X57255D01*
X57154Y281230D01*
X57119Y281520D01*
X57889Y282111D01*
X58539Y282957D01*
X58947Y283942D01*
X58955Y284000D01*
X51046D01*
X51053Y283942D01*
X51461Y282957D01*
X52111Y282111D01*
X52881Y281520D01*
X52846Y281230D01*
X52745Y281020D01*
X48110D01*
X47940Y281520D01*
X48246Y281754D01*
X48976Y282705D01*
X49434Y283812D01*
X49590Y285000D01*
X49434Y286188D01*
X48976Y287295D01*
X48246Y288246D01*
X47295Y288976D01*
X46188Y289434D01*
X45000Y289591D01*
Y298980D01*
X159000Y298980D01*
Y231000D01*
D02*
G37*
%LPC*%
G36*
X79500Y241834D02*
Y238500D01*
X82834D01*
X82349Y239408D01*
X81474Y240474D01*
X80408Y241349D01*
X79500Y241834D01*
D02*
G37*
G36*
X73500D02*
X72592Y241349D01*
X71526Y240474D01*
X70652Y239408D01*
X70166Y238500D01*
X73500D01*
Y241834D01*
D02*
G37*
G36*
X46000Y241525D02*
Y238000D01*
X49525D01*
X48924Y239124D01*
X48113Y240113D01*
X47124Y240924D01*
X46000Y241525D01*
D02*
G37*
G36*
X28480D02*
X27356Y240924D01*
X26368Y240113D01*
X25556Y239124D01*
X24955Y238000D01*
X28480D01*
Y241525D01*
D02*
G37*
G36*
X49525Y233000D02*
X46000D01*
Y229475D01*
X47124Y230076D01*
X48113Y230887D01*
X48924Y231876D01*
X49525Y233000D01*
D02*
G37*
G36*
X28480D02*
X24955D01*
X25556Y231876D01*
X26368Y230887D01*
X27356Y230076D01*
X28480Y229475D01*
Y233000D01*
D02*
G37*
G36*
X33480Y241525D02*
Y235500D01*
Y229475D01*
X34605Y230076D01*
X35593Y230887D01*
X36068Y231466D01*
X38413D01*
X38887Y230887D01*
X39876Y230076D01*
X41000Y229475D01*
Y235500D01*
Y241525D01*
X39876Y240924D01*
X38887Y240113D01*
X38413Y239534D01*
X36068D01*
X35593Y240113D01*
X34605Y240924D01*
X33480Y241525D01*
D02*
G37*
G36*
X82834Y232500D02*
X79500D01*
Y229166D01*
X80408Y229651D01*
X81474Y230526D01*
X82349Y231592D01*
X82834Y232500D01*
D02*
G37*
G36*
X73500D02*
X70166D01*
X70652Y231592D01*
X71526Y230526D01*
X72592Y229651D01*
X73500Y229166D01*
Y232500D01*
D02*
G37*
G36*
X126409Y287196D02*
Y285000D01*
X128605D01*
X128464Y285341D01*
X127720Y286311D01*
X126750Y287054D01*
X126409Y287196D01*
D02*
G37*
G36*
X122409D02*
X122069Y287054D01*
X121099Y286311D01*
X120355Y285341D01*
X120214Y285000D01*
X122409D01*
Y287196D01*
D02*
G37*
G36*
X128605Y281000D02*
X126409D01*
Y278804D01*
X126750Y278945D01*
X127720Y279690D01*
X128464Y280659D01*
X128605Y281000D01*
D02*
G37*
G36*
X122409D02*
X120214D01*
X120355Y280659D01*
X121099Y279690D01*
X122069Y278945D01*
X122409Y278804D01*
Y281000D01*
D02*
G37*
G36*
X106000Y278955D02*
Y276000D01*
X108955D01*
X108947Y276058D01*
X108539Y277043D01*
X107889Y277889D01*
X107043Y278539D01*
X106058Y278947D01*
X106000Y278955D01*
D02*
G37*
G36*
X104000D02*
X103942Y278947D01*
X102957Y278539D01*
X102111Y277889D01*
X101461Y277043D01*
X101053Y276058D01*
X101046Y276000D01*
X104000D01*
Y278955D01*
D02*
G37*
G36*
X96000D02*
Y276000D01*
X98954D01*
X98947Y276058D01*
X98539Y277043D01*
X97889Y277889D01*
X97043Y278539D01*
X96058Y278947D01*
X96000Y278955D01*
D02*
G37*
G36*
X94000D02*
X93942Y278947D01*
X92957Y278539D01*
X92111Y277889D01*
X91461Y277043D01*
X91053Y276058D01*
X91045Y276000D01*
X94000D01*
Y278955D01*
D02*
G37*
G36*
X86000D02*
Y276000D01*
X88955D01*
X88947Y276058D01*
X88539Y277043D01*
X87889Y277889D01*
X87043Y278539D01*
X86058Y278947D01*
X86000Y278955D01*
D02*
G37*
G36*
X84000D02*
X83942Y278947D01*
X82957Y278539D01*
X82111Y277889D01*
X81461Y277043D01*
X81053Y276058D01*
X81046Y276000D01*
X84000D01*
Y278955D01*
D02*
G37*
G36*
X76000D02*
Y276000D01*
X78954D01*
X78947Y276058D01*
X78539Y277043D01*
X77889Y277889D01*
X77043Y278539D01*
X76058Y278947D01*
X76000Y278955D01*
D02*
G37*
G36*
X74000D02*
X73942Y278947D01*
X72957Y278539D01*
X72111Y277889D01*
X71461Y277043D01*
X71053Y276058D01*
X71046Y276000D01*
X74000D01*
Y278955D01*
D02*
G37*
G36*
X66000D02*
Y276000D01*
X68954D01*
X68947Y276058D01*
X68539Y277043D01*
X67889Y277889D01*
X67043Y278539D01*
X66058Y278947D01*
X66000Y278955D01*
D02*
G37*
G36*
X64000D02*
X63942Y278947D01*
X62957Y278539D01*
X62111Y277889D01*
X61461Y277043D01*
X61053Y276058D01*
X61045Y276000D01*
X64000D01*
Y278955D01*
D02*
G37*
G36*
X56000D02*
Y276000D01*
X58955D01*
X58947Y276058D01*
X58539Y277043D01*
X57889Y277889D01*
X57043Y278539D01*
X56058Y278947D01*
X56000Y278955D01*
D02*
G37*
G36*
X54000D02*
X53942Y278947D01*
X52957Y278539D01*
X52111Y277889D01*
X51461Y277043D01*
X51053Y276058D01*
X51046Y276000D01*
X54000D01*
Y278955D01*
D02*
G37*
G36*
X108955Y274000D02*
X106000D01*
Y271045D01*
X106058Y271053D01*
X107043Y271461D01*
X107889Y272111D01*
X108539Y272957D01*
X108947Y273942D01*
X108955Y274000D01*
D02*
G37*
G36*
X104000D02*
X101046D01*
X101053Y273942D01*
X101461Y272957D01*
X102111Y272111D01*
X102957Y271461D01*
X103942Y271053D01*
X104000Y271045D01*
Y274000D01*
D02*
G37*
G36*
X98954D02*
X96000D01*
Y271045D01*
X96058Y271053D01*
X97043Y271461D01*
X97889Y272111D01*
X98539Y272957D01*
X98947Y273942D01*
X98954Y274000D01*
D02*
G37*
G36*
X94000D02*
X91045D01*
X91053Y273942D01*
X91461Y272957D01*
X92111Y272111D01*
X92957Y271461D01*
X93942Y271053D01*
X94000Y271045D01*
Y274000D01*
D02*
G37*
G36*
X88955D02*
X86000D01*
Y271045D01*
X86058Y271053D01*
X87043Y271461D01*
X87889Y272111D01*
X88539Y272957D01*
X88947Y273942D01*
X88955Y274000D01*
D02*
G37*
G36*
X84000D02*
X81046D01*
X81053Y273942D01*
X81461Y272957D01*
X82111Y272111D01*
X82957Y271461D01*
X83942Y271053D01*
X84000Y271045D01*
Y274000D01*
D02*
G37*
G36*
X78954D02*
X76000D01*
Y271045D01*
X76058Y271053D01*
X77043Y271461D01*
X77889Y272111D01*
X78539Y272957D01*
X78947Y273942D01*
X78954Y274000D01*
D02*
G37*
G36*
X74000D02*
X71046D01*
X71053Y273942D01*
X71461Y272957D01*
X72111Y272111D01*
X72957Y271461D01*
X73942Y271053D01*
X74000Y271045D01*
Y274000D01*
D02*
G37*
G36*
X68954D02*
X66000D01*
Y271045D01*
X66058Y271053D01*
X67043Y271461D01*
X67889Y272111D01*
X68539Y272957D01*
X68947Y273942D01*
X68954Y274000D01*
D02*
G37*
G36*
X64000D02*
X61045D01*
X61053Y273942D01*
X61461Y272957D01*
X62111Y272111D01*
X62957Y271461D01*
X63942Y271053D01*
X64000Y271045D01*
Y274000D01*
D02*
G37*
G36*
X58955D02*
X56000D01*
Y271045D01*
X56058Y271053D01*
X57043Y271461D01*
X57889Y272111D01*
X58539Y272957D01*
X58947Y273942D01*
X58955Y274000D01*
D02*
G37*
G36*
X54000D02*
X51046D01*
X51053Y273942D01*
X51461Y272957D01*
X52111Y272111D01*
X52957Y271461D01*
X53942Y271053D01*
X54000Y271045D01*
Y274000D01*
D02*
G37*
G36*
X83500Y264503D02*
Y261600D01*
X86403D01*
X86397Y261644D01*
X85994Y262617D01*
X85353Y263453D01*
X84517Y264094D01*
X83544Y264497D01*
X83500Y264503D01*
D02*
G37*
G36*
X74000Y261757D02*
X73808Y261699D01*
X72592Y261049D01*
X71526Y260174D01*
X70652Y259108D01*
X70002Y257892D01*
X69943Y257700D01*
X74000D01*
Y261757D01*
D02*
G37*
G36*
Y252700D02*
X69943D01*
X70002Y252508D01*
X70652Y251292D01*
X71526Y250226D01*
X72592Y249352D01*
X73808Y248702D01*
X74000Y248643D01*
Y252700D01*
D02*
G37*
G36*
X86403Y249600D02*
X83500D01*
Y246697D01*
X83544Y246703D01*
X84517Y247106D01*
X85353Y247747D01*
X85994Y248583D01*
X86397Y249556D01*
X86403Y249600D01*
D02*
G37*
G36*
X81500Y264503D02*
X81456Y264497D01*
X80483Y264094D01*
X79647Y263453D01*
X79006Y262617D01*
X79000Y262603D01*
Y255200D01*
Y248597D01*
X79006Y248583D01*
X79647Y247747D01*
X80483Y247106D01*
X81456Y246703D01*
X81500Y246697D01*
Y250600D01*
X82500D01*
Y251600D01*
X86403D01*
X86397Y251644D01*
X85994Y252617D01*
X85353Y253453D01*
X84517Y254094D01*
X83544Y254497D01*
X83466Y254507D01*
X83534Y255200D01*
X83399Y256572D01*
X83477Y256694D01*
X83544Y256703D01*
X84517Y257106D01*
X85353Y257747D01*
X85994Y258583D01*
X86397Y259556D01*
X86403Y259600D01*
X82500D01*
Y260600D01*
X81500D01*
Y264503D01*
D02*
G37*
G36*
X79500Y222134D02*
Y218800D01*
X82834D01*
X82349Y219708D01*
X81474Y220774D01*
X80408Y221649D01*
X79500Y222134D01*
D02*
G37*
G36*
X73500D02*
X72592Y221649D01*
X71526Y220774D01*
X70652Y219708D01*
X70166Y218800D01*
X73500D01*
Y222134D01*
D02*
G37*
G36*
X46000Y212037D02*
Y208512D01*
X49525D01*
X48924Y209636D01*
X48113Y210625D01*
X47124Y211436D01*
X46000Y212037D01*
D02*
G37*
G36*
X28480D02*
X27356Y211436D01*
X26368Y210625D01*
X25556Y209636D01*
X24955Y208512D01*
X28480D01*
Y212037D01*
D02*
G37*
G36*
X49525Y203512D02*
X46000D01*
Y199987D01*
X47124Y200588D01*
X48113Y201399D01*
X48924Y202387D01*
X49525Y203512D01*
D02*
G37*
G36*
X28480D02*
X24955D01*
X25556Y202387D01*
X26368Y201399D01*
X27356Y200588D01*
X28480Y199987D01*
Y203512D01*
D02*
G37*
G36*
X33480Y212037D02*
Y206012D01*
Y199987D01*
X34605Y200588D01*
X35593Y201399D01*
X36068Y201977D01*
X38413D01*
X38887Y201399D01*
X39876Y200588D01*
X41000Y199987D01*
Y206012D01*
Y212037D01*
X39876Y211436D01*
X38887Y210625D01*
X38413Y210046D01*
X36068D01*
X35593Y210625D01*
X34605Y211436D01*
X33480Y212037D01*
D02*
G37*
G36*
X115157Y298392D02*
X114149Y298259D01*
X113210Y297870D01*
X112403Y297251D01*
X111784Y296444D01*
X111395Y295504D01*
X111262Y294496D01*
X111395Y293488D01*
X111784Y292548D01*
X112403Y291741D01*
X113210Y291122D01*
X114149Y290733D01*
X115157Y290600D01*
X116166Y290733D01*
X117105Y291122D01*
X117912Y291741D01*
X118531Y292548D01*
X118920Y293488D01*
X119053Y294496D01*
X118920Y295504D01*
X118531Y296444D01*
X117912Y297251D01*
X117105Y297870D01*
X116166Y298259D01*
X115157Y298392D01*
D02*
G37*
G36*
X106000Y288954D02*
Y286000D01*
X108955D01*
X108947Y286058D01*
X108539Y287043D01*
X107889Y287889D01*
X107043Y288539D01*
X106058Y288947D01*
X106000Y288954D01*
D02*
G37*
G36*
X104000D02*
X103942Y288947D01*
X102957Y288539D01*
X102111Y287889D01*
X101461Y287043D01*
X101053Y286058D01*
X101046Y286000D01*
X104000D01*
Y288954D01*
D02*
G37*
G36*
X96000D02*
Y286000D01*
X98954D01*
X98947Y286058D01*
X98539Y287043D01*
X97889Y287889D01*
X97043Y288539D01*
X96058Y288947D01*
X96000Y288954D01*
D02*
G37*
G36*
X94000D02*
X93942Y288947D01*
X92957Y288539D01*
X92111Y287889D01*
X91461Y287043D01*
X91053Y286058D01*
X91045Y286000D01*
X94000D01*
Y288954D01*
D02*
G37*
G36*
X86000D02*
Y286000D01*
X88955D01*
X88947Y286058D01*
X88539Y287043D01*
X87889Y287889D01*
X87043Y288539D01*
X86058Y288947D01*
X86000Y288954D01*
D02*
G37*
G36*
X84000D02*
X83942Y288947D01*
X82957Y288539D01*
X82111Y287889D01*
X81461Y287043D01*
X81053Y286058D01*
X81046Y286000D01*
X84000D01*
Y288954D01*
D02*
G37*
G36*
X76000D02*
Y286000D01*
X78954D01*
X78947Y286058D01*
X78539Y287043D01*
X77889Y287889D01*
X77043Y288539D01*
X76058Y288947D01*
X76000Y288954D01*
D02*
G37*
G36*
X74000D02*
X73942Y288947D01*
X72957Y288539D01*
X72111Y287889D01*
X71461Y287043D01*
X71053Y286058D01*
X71046Y286000D01*
X74000D01*
Y288954D01*
D02*
G37*
G36*
X66000D02*
Y286000D01*
X68954D01*
X68947Y286058D01*
X68539Y287043D01*
X67889Y287889D01*
X67043Y288539D01*
X66058Y288947D01*
X66000Y288954D01*
D02*
G37*
G36*
X64000D02*
X63942Y288947D01*
X62957Y288539D01*
X62111Y287889D01*
X61461Y287043D01*
X61053Y286058D01*
X61045Y286000D01*
X64000D01*
Y288954D01*
D02*
G37*
G36*
X56000D02*
Y286000D01*
X58955D01*
X58947Y286058D01*
X58539Y287043D01*
X57889Y287889D01*
X57043Y288539D01*
X56058Y288947D01*
X56000Y288954D01*
D02*
G37*
G36*
X54000D02*
X53942Y288947D01*
X52957Y288539D01*
X52111Y287889D01*
X51461Y287043D01*
X51053Y286058D01*
X51046Y286000D01*
X54000D01*
Y288954D01*
D02*
G37*
G36*
X152000Y287196D02*
Y285000D01*
X154196D01*
X154054Y285341D01*
X153311Y286311D01*
X152341Y287054D01*
X152000Y287196D01*
D02*
G37*
G36*
X148000D02*
X147659Y287054D01*
X146689Y286311D01*
X145946Y285341D01*
X145804Y285000D01*
X148000D01*
Y287196D01*
D02*
G37*
G36*
X154196Y281000D02*
X152000D01*
Y278804D01*
X152341Y278945D01*
X153311Y279690D01*
X154054Y280659D01*
X154196Y281000D01*
D02*
G37*
G36*
X148000D02*
X145804D01*
X145946Y280659D01*
X146689Y279690D01*
X147659Y278945D01*
X148000Y278804D01*
Y281000D01*
D02*
G37*
G36*
X149000Y261639D02*
X147825Y261484D01*
X146731Y261031D01*
X145791Y260309D01*
X145069Y259369D01*
X144616Y258275D01*
X144461Y257100D01*
X144616Y255925D01*
X145069Y254831D01*
X145791Y253891D01*
X146731Y253169D01*
X147825Y252716D01*
X149000Y252561D01*
X150175Y252716D01*
X151269Y253169D01*
X152209Y253891D01*
X152931Y254831D01*
X153384Y255925D01*
X153539Y257100D01*
X153384Y258275D01*
X152931Y259369D01*
X152209Y260309D01*
X151269Y261031D01*
X150175Y261484D01*
X149000Y261639D01*
D02*
G37*
G36*
X140000Y237538D02*
Y236500D01*
X141038D01*
X140622Y237122D01*
X140000Y237538D01*
D02*
G37*
G36*
X138000D02*
X137378Y237122D01*
X136962Y236500D01*
X138000D01*
Y237538D01*
D02*
G37*
G36*
X141038Y234500D02*
X140000D01*
Y233462D01*
X140622Y233878D01*
X141038Y234500D01*
D02*
G37*
G36*
X138000D02*
X136962D01*
X137378Y233878D01*
X138000Y233462D01*
Y234500D01*
D02*
G37*
G36*
X112500Y212374D02*
Y210000D01*
X114874D01*
X114557Y210765D01*
X113996Y211496D01*
X113265Y212057D01*
X112500Y212374D01*
D02*
G37*
G36*
X110500D02*
X109735Y212057D01*
X109004Y211496D01*
X108443Y210765D01*
X108126Y210000D01*
X110500D01*
Y212374D01*
D02*
G37*
G36*
X114874Y208000D02*
X112500D01*
Y205626D01*
X113265Y205943D01*
X113996Y206504D01*
X114557Y207235D01*
X114874Y208000D01*
D02*
G37*
G36*
X110500D02*
X108126D01*
X108443Y207235D01*
X109004Y206504D01*
X109735Y205943D01*
X110500Y205626D01*
Y208000D01*
D02*
G37*
G36*
X86500Y204600D02*
X83500D01*
Y201600D01*
X86500D01*
Y204600D01*
D02*
G37*
G36*
X81500D02*
X79250D01*
Y198850D01*
X86500D01*
Y199600D01*
X82500D01*
Y200600D01*
X81500D01*
Y204600D01*
D02*
G37*
G36*
X73750Y203600D02*
X69000D01*
Y198850D01*
X73750D01*
Y203600D01*
D02*
G37*
G36*
Y193350D02*
X69000D01*
Y188600D01*
X73750D01*
Y193350D01*
D02*
G37*
G36*
X86500Y189600D02*
X83500D01*
Y186600D01*
X86500D01*
Y189600D01*
D02*
G37*
G36*
Y193350D02*
X79250D01*
Y186600D01*
X81500D01*
Y190600D01*
X82500D01*
Y191600D01*
X86500D01*
Y193350D01*
D02*
G37*
%LPD*%
D10*
X95000Y136379D02*
Y136736D01*
X87568Y128947D02*
X95000Y136379D01*
X50750Y100000D02*
X51000D01*
X54746Y96254D01*
X54874D01*
X55553Y96932D01*
X79500Y83139D02*
Y83500D01*
X76086Y82553D02*
X78914D01*
X73143Y85496D02*
X76086Y82553D01*
X78914D02*
X79500Y83139D01*
X70000Y110500D02*
X70500Y110000D01*
X70000Y110500D02*
Y115892D01*
X66689Y119203D02*
X70000Y115892D01*
X72066Y85496D02*
X73143D01*
X69583Y83013D02*
X72066Y85496D01*
X69473Y83013D02*
X69583D01*
X93000Y94000D02*
X93957Y93043D01*
X95632D01*
X100095Y88581D01*
X75040Y127555D02*
X78500Y124095D01*
Y123500D02*
Y124095D01*
Y123500D02*
X79000Y123000D01*
X100095Y88470D02*
Y88581D01*
X69773Y74227D02*
X70000Y74000D01*
X69773Y74227D02*
Y77636D01*
X72256Y80119D01*
Y80229D01*
X65500Y72500D02*
X67450Y74450D01*
Y78206D01*
X70864Y81621D01*
X55553Y108068D02*
Y108178D01*
X53070Y110661D02*
X55553Y108178D01*
X53070Y110661D02*
Y144193D01*
X54637Y145760D01*
X55000D01*
X116500Y91432D02*
Y94000D01*
X109693Y100807D02*
X116500Y94000D01*
X159311Y162760D02*
X160000Y162071D01*
X86476Y122523D02*
X96796Y112204D01*
Y110204D02*
Y112204D01*
X86476Y124961D02*
X88960Y127445D01*
X86476Y122523D02*
Y124961D01*
X96796Y110204D02*
X106193Y100807D01*
X109693D01*
X88960Y127445D02*
Y127555D01*
X122176Y141700D02*
X143904D01*
X122076Y141800D02*
X122176Y141700D01*
X103219Y141800D02*
X122076D01*
X143904Y141700D02*
X160000Y157796D01*
Y162071D01*
X97550Y135679D02*
Y136131D01*
X96056Y134186D02*
X97550Y135679D01*
X95686Y134186D02*
X96056D01*
X89055Y127555D02*
X95686Y134186D01*
X88960Y127555D02*
X89055D01*
X97550Y136131D02*
X103219Y141800D01*
X159311Y162760D02*
X160000D01*
X52205Y90800D02*
X56945Y95540D01*
X51547Y90800D02*
X52205D01*
X50770Y90730D02*
X51477D01*
X51547Y90800D01*
X64539Y47461D02*
X64579Y47500D01*
X72000D01*
X64539Y52461D02*
X64579Y52500D01*
X72000D01*
X64539Y57461D02*
X64579Y57500D01*
X72000D01*
X64500Y62500D02*
X72000D01*
X4000Y90000D02*
X5732Y88268D01*
Y84300D02*
Y88268D01*
X4000Y77000D02*
X5732Y75268D01*
Y71000D02*
Y75268D01*
X6232Y57300D02*
Y59300D01*
Y61268D01*
X4500Y63000D02*
X6232Y61268D01*
X4500Y50000D02*
X6036Y48464D01*
Y44300D02*
Y48464D01*
X141392Y92000D02*
X162500D01*
X141281Y92111D02*
X141392Y92000D01*
X137719Y92111D02*
X141281D01*
X133419Y87811D02*
X137719Y92111D01*
X127689Y87811D02*
X133419D01*
X98843Y77500D02*
X101000D01*
X98792Y77550D02*
X98843Y77500D01*
X97206Y77550D02*
X98792D01*
X93136Y81621D02*
X97206Y77550D01*
X96973Y75000D02*
X97736D01*
X91744Y80229D02*
X96973Y75000D01*
X91744Y124771D02*
X104473Y137500D01*
X105000D01*
X107693Y104193D02*
X114000Y110500D01*
X117000D01*
X106169Y104193D02*
X107693D01*
X103385Y106976D02*
X106169Y104193D01*
X103385Y106976D02*
X103385D01*
X100396Y109965D02*
X103385Y106976D01*
X100396Y109965D02*
Y111042D01*
X102879Y113525D01*
Y113636D01*
X61014Y85579D02*
X63905Y88470D01*
X61014Y80092D02*
Y85579D01*
X63905Y88470D02*
Y88581D01*
X59461Y78539D02*
X61014Y80092D01*
X62814Y84595D02*
X65226Y87007D01*
X62814Y75814D02*
Y84595D01*
X65226Y87007D02*
Y87007D01*
X62000Y75000D02*
X62814Y75814D01*
X114592Y114213D02*
X116713D01*
X108447Y108068D02*
X114592Y114213D01*
X116713D02*
X117000Y114500D01*
X14000Y84300D02*
X48489D01*
X58337Y94148D01*
X14134Y57000D02*
X26756D01*
X61121Y91364D01*
X14000Y71000D02*
X37973D01*
X59729Y92756D01*
X59214Y86563D02*
X62513Y89862D01*
X19340Y44300D02*
X59214Y84173D01*
Y86563D01*
X62513Y89862D02*
Y89973D01*
X14303Y44300D02*
X19340D01*
X68081Y84405D02*
X74176Y90500D01*
X66200Y107926D02*
Y111074D01*
Y107926D02*
X66500Y107626D01*
X84121Y79500D02*
X87568Y76053D01*
X65297Y117701D02*
Y117811D01*
X67780Y112654D02*
Y115218D01*
X66200Y111074D02*
X67780Y112654D01*
X65297Y117701D02*
X67780Y115218D01*
X76432Y128947D02*
X83500Y121879D01*
X63963Y124713D02*
X68081Y120595D01*
X62787Y124713D02*
X63963D01*
X62500Y125000D02*
X62787Y124713D01*
X64000Y127460D02*
Y129500D01*
Y127460D02*
X69473Y121987D01*
X68000Y132594D02*
Y133000D01*
Y132594D02*
X68381Y132213D01*
Y125972D02*
Y132213D01*
Y125972D02*
X70864Y123489D01*
Y123379D02*
Y123489D01*
X119500Y106500D02*
X122500Y109500D01*
X117000Y106500D02*
X119500D01*
X122500Y109500D02*
Y113000D01*
X117989Y117511D02*
X122500Y113000D01*
X104081Y117511D02*
X117989D01*
X101597Y115027D02*
X104081Y117511D01*
X101487Y115027D02*
X101597D01*
X101487Y114917D02*
Y115027D01*
X111491Y90930D02*
X113711Y88711D01*
X108881Y90930D02*
X111491D01*
X105663Y94148D02*
X108881Y90930D01*
X108070Y88930D02*
X111000Y86000D01*
X108053Y88930D02*
X108070D01*
X104249Y92734D02*
X108053Y88930D01*
X108289Y83289D02*
Y85954D01*
X102879Y91364D02*
X108289Y85954D01*
X105539Y80618D02*
Y85920D01*
X101487Y89973D02*
X105539Y85920D01*
Y80618D02*
X105579Y80579D01*
X113892Y133000D02*
X129000D01*
X132500Y136500D01*
X98703Y117811D02*
X113892Y133000D01*
X106676Y123000D02*
X127000D01*
X132500Y128500D01*
X100095Y116419D02*
X106676Y123000D01*
D16*
X132740Y38500D02*
D03*
X125260D02*
D03*
X118240D02*
D03*
X110760D02*
D03*
X36260Y135000D02*
D03*
X43740D02*
D03*
X181240Y201500D02*
D03*
X173760D02*
D03*
D17*
X154000Y197240D02*
D03*
Y189760D02*
D03*
X160000Y170240D02*
D03*
Y162760D02*
D03*
X55000Y145760D02*
D03*
Y153240D02*
D03*
D18*
X84146Y153004D02*
D03*
Y165996D02*
D03*
X64854D02*
D03*
Y153004D02*
D03*
X116396D02*
D03*
Y165996D02*
D03*
X97104D02*
D03*
Y153004D02*
D03*
X148646Y153004D02*
D03*
Y165996D02*
D03*
X129354D02*
D03*
Y153004D02*
D03*
D19*
X102000Y62500D02*
D03*
Y57500D02*
D03*
Y52500D02*
D03*
Y47500D02*
D03*
X72000D02*
D03*
Y52500D02*
D03*
Y57500D02*
D03*
Y62500D02*
D03*
D20*
X185000Y128634D02*
D03*
Y120366D02*
D03*
D21*
X55553Y108068D02*
D03*
X56945Y109460D02*
D03*
X58337Y110852D02*
D03*
X59729Y112244D02*
D03*
X61121Y113636D02*
D03*
X62513Y115027D02*
D03*
X63905Y116419D02*
D03*
X65297Y117811D02*
D03*
X66689Y119203D02*
D03*
X68081Y120595D02*
D03*
X69473Y121987D02*
D03*
X70864Y123379D02*
D03*
X72256Y124771D02*
D03*
X73648Y126163D02*
D03*
X75040Y127555D02*
D03*
X76432Y128947D02*
D03*
X108447Y96932D02*
D03*
X107055Y95540D02*
D03*
X105663Y94148D02*
D03*
X104271Y92756D02*
D03*
X102879Y91364D02*
D03*
X101487Y89973D02*
D03*
X100095Y88581D02*
D03*
X98703Y87189D02*
D03*
X97311Y85797D02*
D03*
X95919Y84405D02*
D03*
X94527Y83013D02*
D03*
X93136Y81621D02*
D03*
X91744Y80229D02*
D03*
X90352Y78837D02*
D03*
X88960Y77445D02*
D03*
X87568Y76053D02*
D03*
D22*
Y128947D02*
D03*
X88960Y127555D02*
D03*
X90352Y126163D02*
D03*
X91744Y124771D02*
D03*
X93136Y123379D02*
D03*
X94527Y121987D02*
D03*
X95919Y120595D02*
D03*
X97311Y119203D02*
D03*
X98703Y117811D02*
D03*
X100095Y116419D02*
D03*
X101487Y115027D02*
D03*
X102879Y113636D02*
D03*
X104271Y112244D02*
D03*
X105663Y110852D02*
D03*
X107055Y109460D02*
D03*
X108447Y108068D02*
D03*
X76432Y76053D02*
D03*
X75040Y77445D02*
D03*
X73648Y78837D02*
D03*
X72256Y80229D02*
D03*
X70864Y81621D02*
D03*
X69473Y83013D02*
D03*
X68081Y84405D02*
D03*
X66689Y85797D02*
D03*
X65297Y87189D02*
D03*
X63905Y88581D02*
D03*
X62513Y89973D02*
D03*
X61121Y91364D02*
D03*
X59729Y92756D02*
D03*
X58337Y94148D02*
D03*
X56945Y95540D02*
D03*
X55553Y96932D02*
D03*
D23*
X6036Y44300D02*
D03*
X14303D02*
D03*
D24*
X158921Y177000D02*
D03*
X149079D02*
D03*
X169842Y11500D02*
D03*
X160000D02*
D03*
D25*
X5732Y84300D02*
D03*
X14000D02*
D03*
X5732Y71000D02*
D03*
X14000D02*
D03*
X5866Y57000D02*
D03*
X14134D02*
D03*
D52*
X149500Y185260D02*
X152244Y188004D01*
Y188693D01*
X153311Y189760D01*
X154000D01*
X141596Y189096D02*
X149416Y196916D01*
X140596Y189096D02*
X141596D01*
X149416Y196916D02*
X153675D01*
X154000Y197240D01*
X140500Y189000D02*
X140596Y189096D01*
X158921Y177000D02*
Y184514D01*
X132309Y185260D02*
X149500D01*
X126392Y179343D02*
X132309Y185260D01*
X124843Y179343D02*
X126392D01*
X124500Y179000D02*
X124843Y179343D01*
X118500Y183000D02*
Y185500D01*
X121500Y188500D01*
X114500Y179000D02*
X118500Y183000D01*
X84121Y72379D02*
Y79500D01*
X168404Y213904D02*
X168500Y214000D01*
X158921Y184514D02*
X168404Y193997D01*
X168500Y15516D02*
Y18000D01*
Y15516D02*
X171008Y13008D01*
Y12665D02*
Y13008D01*
X30149Y281230D02*
Y287009D01*
X4400Y255481D02*
X30149Y281230D01*
X33139Y290000D02*
X40000D01*
X45000Y285000D01*
X30149Y287009D02*
X33139Y290000D01*
X13811Y248811D02*
X18730D01*
X20719Y250800D01*
X20800D01*
X45000Y275000D01*
X44420Y284420D02*
X45000Y285000D01*
X27622Y165012D02*
Y169878D01*
X113500Y12717D02*
X114500Y11717D01*
X113126Y12717D02*
X113500D01*
X110700Y15143D02*
X113126Y12717D01*
X110700Y15143D02*
Y38440D01*
X110760Y38500D01*
X4400Y157012D02*
X13012Y148401D01*
X4400Y157012D02*
Y255481D01*
X22599Y153201D02*
X26811D01*
X13811Y183689D02*
Y248811D01*
X55236Y153004D02*
X64854D01*
X70500Y110000D02*
X79500Y119000D01*
X79000Y123000D02*
X79500Y122500D01*
Y119000D02*
Y122500D01*
X47260Y145760D02*
X54637D01*
X47000Y145500D02*
X47260Y145760D01*
X44000Y97500D02*
Y123418D01*
X45500Y124918D01*
Y126000D01*
Y132551D01*
X43740Y134311D02*
X45500Y132551D01*
X43740Y134311D02*
Y135000D01*
X44000Y97500D02*
X50770Y90730D01*
X55000Y153240D02*
X55236Y153004D01*
X160000Y170240D02*
X160240Y170000D01*
X170000D01*
X178500Y113866D02*
X185000Y120366D01*
X178500Y97500D02*
Y113866D01*
X185000Y120366D02*
Y120500D01*
X169842Y11500D02*
X171008Y12665D01*
X168404Y193997D02*
Y213904D01*
X26811Y120000D02*
X35988Y129177D01*
Y134728D01*
X165366Y128634D02*
X185000D01*
X162000Y132000D02*
X165366Y128634D01*
X14303Y44497D02*
X15469Y45662D01*
X74176Y90500D02*
X83626D01*
X84121D01*
Y79500D02*
Y90500D01*
X66500Y107626D02*
X83626Y90500D01*
X84121D02*
Y101121D01*
Y72379D02*
X94000Y62500D01*
X84121Y101121D02*
X92500Y109500D01*
X92300Y109699D02*
X92500Y109500D01*
X94000Y62500D02*
X102000D01*
X83500Y121879D02*
X92300Y113079D01*
Y109699D02*
Y113079D01*
X182307Y198765D02*
Y200433D01*
X182500Y190600D02*
Y198573D01*
X182307Y198765D02*
X182500Y198573D01*
X181240Y201500D02*
X182307Y200433D01*
X13012Y148401D02*
X17799D01*
X22599Y153201D01*
X13811Y183689D02*
X27622Y169878D01*
D53*
X136996Y165996D02*
X146789Y175789D01*
X148163D01*
X149079Y176705D01*
Y177000D01*
X122500Y149182D02*
X143643D01*
X122500Y169818D02*
X124352D01*
X172943Y200683D02*
X173760Y201500D01*
X172943Y198972D02*
Y200683D01*
X172500Y198530D02*
X172943Y198972D01*
X172500Y190600D02*
Y198530D01*
X122500Y169818D02*
X124000Y171318D01*
X159892Y11608D02*
X160000Y11500D01*
X134608Y11608D02*
X159892D01*
X134500Y11717D02*
X134608Y11608D01*
X140000Y14500D02*
Y31240D01*
X134500Y11717D02*
X134787Y12004D01*
X137504D02*
X140000Y14500D01*
X134787Y12004D02*
X137504D01*
X134246Y36994D02*
X140000Y31240D01*
X74000Y158251D02*
X77718D01*
X23336D02*
X74000D01*
X74500Y157751D01*
Y145500D02*
Y157751D01*
X111152Y169818D02*
X122500D01*
X121398Y149182D02*
X122500Y148081D01*
Y145500D02*
Y148081D01*
X129354Y165996D02*
X136996D01*
X111211Y149000D02*
X115215Y153004D01*
X89331Y149000D02*
X111211D01*
X85327Y153004D02*
X89331Y149000D01*
X85848Y163793D02*
X95402Y154240D01*
X147465Y153004D02*
X148646D01*
X143643Y149182D02*
X147465Y153004D01*
X121398Y149182D02*
X122500D01*
X117577Y153004D02*
X121398Y149182D01*
X116396Y153004D02*
X117577D01*
X115215D02*
X116396D01*
X84146D02*
X85327D01*
X95923D02*
X97104D01*
X95402Y153526D02*
X95923Y153004D01*
X95402Y153526D02*
Y154240D01*
X85848Y163793D02*
Y164974D01*
X85327Y165496D02*
X85848Y164974D01*
X84146Y165496D02*
X85327D01*
X77718Y158251D02*
X82965Y153004D01*
X84146D01*
X128173Y165996D02*
X129354D01*
X124352Y169818D02*
X128173Y165996D01*
X107331Y165996D02*
X111152Y169818D01*
X97104Y165996D02*
X107331D01*
X95923D02*
X97104D01*
X92102Y169818D02*
X95923Y165996D01*
X78902Y169818D02*
X92102D01*
X75081Y165996D02*
X78902Y169818D01*
X64854Y165996D02*
X75081D01*
X64333Y166518D02*
X64854Y165996D01*
X56945Y168500D02*
Y172000D01*
Y168500D02*
X58927Y166518D01*
X64333D01*
X5500Y117689D02*
X15000Y108189D01*
X5500Y117689D02*
Y135500D01*
X116396Y165996D02*
X117577D01*
X118098Y165474D01*
Y164293D02*
Y165474D01*
Y164293D02*
X127652Y154740D01*
Y153526D02*
Y154740D01*
Y153526D02*
X128173Y153004D01*
X129354D01*
X35988Y134728D02*
X36260Y135000D01*
X101000Y77500D02*
X125260Y53240D01*
Y38500D02*
Y53240D01*
X119500Y27000D02*
X125260Y32760D01*
Y38500D01*
X119500Y17000D02*
Y27000D01*
X97736Y75000D02*
X118240Y54496D01*
Y38500D02*
Y54496D01*
X114500Y17000D02*
Y30500D01*
X117807Y33807D01*
Y38067D01*
X118240Y38500D01*
X102000Y47500D02*
Y52500D01*
Y57500D01*
Y62500D01*
X133557Y36994D02*
X134246D01*
X132740Y37811D02*
Y38500D01*
Y37811D02*
X133557Y36994D01*
X160000Y11500D02*
Y11795D01*
X159085Y12711D02*
X160000Y11795D01*
X15811Y153201D02*
X16481Y153870D01*
X18956D01*
X23336Y158251D01*
D54*
X9511Y254511D02*
X14511D01*
X35000Y275000D01*
X76500Y215800D02*
X76800Y215500D01*
X14500Y154512D02*
X15811Y153201D01*
X13202Y158712D02*
X14500Y157413D01*
Y154512D02*
Y157413D01*
X12391Y158712D02*
X13202D01*
X8700Y162402D02*
X12391Y158712D01*
X8700Y162402D02*
Y167621D01*
X9511Y168432D01*
Y254511D01*
X30980Y206012D02*
X43500D01*
X30980Y235500D02*
X43500D01*
D55*
X129000Y81500D02*
X140500D01*
X148000Y89000D01*
X170000D01*
X175500Y94500D01*
X123000Y71000D02*
X141500D01*
X154500Y84000D01*
X174500D01*
D56*
X65297Y86937D02*
Y87189D01*
X59729Y92618D02*
Y92756D01*
D57*
X15000Y285000D02*
D03*
Y15000D02*
D03*
D58*
X114500Y11717D02*
D03*
D59*
Y16717D02*
D03*
X119500Y11717D02*
D03*
Y16717D02*
D03*
X124500Y11717D02*
D03*
Y16717D02*
D03*
X129500Y11717D02*
D03*
Y16717D02*
D03*
X134500Y11717D02*
D03*
Y16717D02*
D03*
D60*
X195000Y53000D02*
D03*
Y79000D02*
D03*
Y89000D02*
D03*
X6000Y268500D02*
D03*
X119000Y128000D02*
D03*
X12500Y31500D02*
D03*
X47000Y145500D02*
D03*
X45000Y24000D02*
D03*
Y12189D02*
D03*
X105000Y137500D02*
D03*
X26811Y165012D02*
D03*
Y153201D02*
D03*
X15000Y165012D02*
D03*
Y153201D02*
D03*
X139500Y64189D02*
D03*
X127689D02*
D03*
X139500Y76000D02*
D03*
X127689D02*
D03*
Y87811D02*
D03*
X139500D02*
D03*
X26811Y120000D02*
D03*
Y108189D02*
D03*
X15000Y120000D02*
D03*
Y108189D02*
D03*
X154500Y55500D02*
D03*
X154000Y99000D02*
D03*
X5500Y135500D02*
D03*
X185000Y285000D02*
D03*
Y15000D02*
D03*
X132500Y136500D02*
D03*
Y128500D02*
D03*
X76000Y12000D02*
D03*
Y23811D02*
D03*
X45500Y126000D02*
D03*
X129300Y257100D02*
D03*
X149000D02*
D03*
X172500Y190600D02*
D03*
X192500Y200600D02*
D03*
Y210600D02*
D03*
Y220600D02*
D03*
Y230600D02*
D03*
Y240600D02*
D03*
Y250600D02*
D03*
Y260600D02*
D03*
X82500D02*
D03*
Y250600D02*
D03*
Y240600D02*
D03*
Y230600D02*
D03*
Y220600D02*
D03*
Y210600D02*
D03*
X97500Y27500D02*
D03*
X47000Y43000D02*
D03*
X177300Y178500D02*
D03*
X162000Y113500D02*
D03*
D61*
X43500Y235500D02*
D03*
X30980D02*
D03*
X43500Y206012D02*
D03*
X30980D02*
D03*
D62*
X170000Y170000D02*
D03*
X195590D02*
D03*
X170000Y152284D02*
D03*
X195590D02*
D03*
D63*
X150000Y283000D02*
D03*
X124409D02*
D03*
D64*
X114500Y179000D02*
D03*
X124500D02*
D03*
D65*
X134500D02*
D03*
D66*
X76500Y196100D02*
D03*
D67*
Y215800D02*
D03*
Y235500D02*
D03*
Y255200D02*
D03*
D68*
X182500Y190600D02*
D03*
X192500D02*
D03*
X82500Y200600D02*
D03*
Y190600D02*
D03*
D69*
X105000Y275000D02*
D03*
X95000D02*
D03*
X85000D02*
D03*
X75000D02*
D03*
X65000D02*
D03*
X55000D02*
D03*
X45000D02*
D03*
X105000Y285000D02*
D03*
X95000D02*
D03*
X85000D02*
D03*
X75000D02*
D03*
X65000D02*
D03*
X55000D02*
D03*
X45000D02*
D03*
X35000D02*
D03*
D70*
Y275000D02*
D03*
D71*
X140500Y189000D02*
D03*
X124000Y171318D02*
D03*
X121500Y188500D02*
D03*
X168500Y18000D02*
D03*
X74500Y145500D02*
D03*
X122500D02*
D03*
X95000Y136736D02*
D03*
X70000Y74000D02*
D03*
X128000Y82000D02*
D03*
X175500Y94500D02*
D03*
X65500Y72500D02*
D03*
X122000Y71000D02*
D03*
X174500Y84000D02*
D03*
X116500Y91432D02*
D03*
X64539Y47461D02*
D03*
Y52461D02*
D03*
Y57461D02*
D03*
X64500Y62500D02*
D03*
X4000Y90000D02*
D03*
X178500Y97500D02*
D03*
X4000Y77000D02*
D03*
X4500Y63000D02*
D03*
X168500Y213932D02*
D03*
X4500Y50000D02*
D03*
X162500Y91740D02*
D03*
X117000Y110500D02*
D03*
X59461Y78539D02*
D03*
X62000Y75000D02*
D03*
X162000Y132000D02*
D03*
X117000Y114500D02*
D03*
X139000Y235500D02*
D03*
X62500Y125000D02*
D03*
X64000Y129500D02*
D03*
X68000Y133000D02*
D03*
X117000Y106500D02*
D03*
X113711Y88711D02*
D03*
X111000Y86000D02*
D03*
X108289Y83289D02*
D03*
X105579Y80579D02*
D03*
D72*
X134500Y193500D02*
D03*
X32000Y180000D02*
D03*
X22500Y246500D02*
D03*
X142000Y290000D02*
D03*
X139000Y250000D02*
D03*
X151500Y236000D02*
D03*
X102000Y191500D02*
D03*
X127689Y273000D02*
D03*
X109500Y255500D02*
D03*
X96500D02*
D03*
X56945Y172000D02*
D03*
X50750Y100000D02*
D03*
X79500Y83500D02*
D03*
X70500Y110000D02*
D03*
X171000Y115000D02*
D03*
X93000Y94000D02*
D03*
X16536Y91300D02*
D03*
X92500Y109500D02*
D03*
X111500Y209000D02*
D03*
X152500Y219500D02*
D03*
M02*
