G04*
G04 #@! TF.GenerationSoftware,Altium Limited,Altium Designer,19.1.8 (144)*
G04*
G04 Layer_Physical_Order=4*
G04 Layer_Color=16711680*
%FSLAX25Y25*%
%MOIN*%
G70*
G01*
G75*
%ADD10C,0.01000*%
%ADD16R,0.04134X0.05512*%
%ADD17R,0.05512X0.04134*%
%ADD52C,0.02000*%
%ADD53C,0.02500*%
%ADD54C,0.05000*%
%ADD55C,0.01200*%
%ADD57O,0.08900X0.06000*%
%ADD58R,0.04000X0.04000*%
%ADD59C,0.04000*%
%ADD60C,0.06000*%
%ADD61C,0.10984*%
%ADD62C,0.05898*%
%ADD63C,0.07284*%
%ADD64C,0.05906*%
%ADD65R,0.05906X0.05906*%
%ADD66R,0.12000X0.12000*%
%ADD67C,0.12000*%
%ADD68R,0.06000X0.06000*%
%ADD69C,0.06102*%
%ADD70R,0.06102X0.06102*%
%ADD71C,0.02500*%
%ADD72C,0.05000*%
%ADD73R,0.05709X0.04528*%
%ADD74R,0.08268X0.05118*%
%ADD75R,0.04528X0.05709*%
%ADD76R,0.10799X0.08500*%
%ADD77R,0.06299X0.03937*%
%ADD78R,0.05906X0.02362*%
%ADD79C,0.10000*%
G36*
X123198Y287522D02*
X122069Y287054D01*
X121099Y286311D01*
X120355Y285341D01*
X120214Y285000D01*
X124409D01*
Y283000D01*
X126409D01*
Y278804D01*
X126750Y278945D01*
X127720Y279690D01*
X128304Y280451D01*
X133579D01*
X133579Y268500D01*
X109579Y244500D01*
X88993D01*
X86191Y247302D01*
X85715Y247620D01*
X85634Y248113D01*
X85994Y248583D01*
X86397Y249556D01*
X86403Y249600D01*
X82500D01*
Y251600D01*
X86403D01*
X86397Y251644D01*
X85994Y252617D01*
X85353Y253453D01*
X84517Y254094D01*
X83544Y254497D01*
X83466Y254507D01*
X83534Y255200D01*
X83399Y256572D01*
X83477Y256694D01*
X83544Y256703D01*
X84517Y257106D01*
X85353Y257747D01*
X85994Y258583D01*
X86397Y259556D01*
X86403Y259600D01*
X82500D01*
Y260600D01*
X81500D01*
Y264503D01*
X81456Y264497D01*
X80483Y264094D01*
X79647Y263453D01*
X79006Y262617D01*
X79000Y262603D01*
Y255200D01*
X76500D01*
Y252700D01*
X69943D01*
X70002Y252508D01*
X70652Y251292D01*
X71526Y250226D01*
X72592Y249352D01*
X73808Y248702D01*
X74311Y248549D01*
X74237Y248049D01*
X62030D01*
X59349Y250730D01*
Y266339D01*
X59155Y267315D01*
X58602Y268142D01*
X56153Y270591D01*
X56299Y271153D01*
X57043Y271461D01*
X57889Y272111D01*
X58539Y272957D01*
X58947Y273942D01*
X58955Y274000D01*
X55000D01*
Y275000D01*
X54000D01*
Y278955D01*
X53942Y278947D01*
X53198Y278639D01*
X52698Y278933D01*
Y279851D01*
X52646Y280114D01*
X52963Y280500D01*
X54313D01*
X55000Y280410D01*
X55687Y280500D01*
X64313D01*
X65000Y280410D01*
X65687Y280500D01*
X74313D01*
X75000Y280410D01*
X75687Y280500D01*
X84313D01*
X85000Y280410D01*
X85687Y280500D01*
X94313D01*
X95000Y280410D01*
X95687Y280500D01*
X104313D01*
X105000Y280410D01*
X105687Y280500D01*
X113579D01*
X121079Y288000D01*
X123101D01*
X123198Y287522D01*
D02*
G37*
G36*
X5000Y298980D02*
X5000Y298980D01*
X5000Y298980D01*
X159000Y298980D01*
X159000Y281500D01*
X153000Y275500D01*
X148000Y275500D01*
X141500Y282000D01*
X139345D01*
X136543Y284802D01*
X135716Y285355D01*
X134740Y285549D01*
X128919D01*
X128901Y285593D01*
X128077Y286667D01*
X127002Y287491D01*
X125752Y288009D01*
X124409Y288186D01*
X124112Y288147D01*
X124101Y288202D01*
X124063Y288293D01*
X124043Y288390D01*
X123987Y288475D01*
X123948Y288569D01*
X123877Y288639D01*
X123822Y288721D01*
X123738Y288777D01*
X123665Y288849D01*
X123574Y288887D01*
X123492Y288942D01*
X123392Y288962D01*
X123297Y289001D01*
X123198Y289000D01*
X123101Y289020D01*
X121079D01*
X120689Y288942D01*
X120358Y288721D01*
X113637Y282000D01*
X108435D01*
X108188Y282500D01*
X108539Y282957D01*
X108947Y283942D01*
X108955Y284000D01*
X101046D01*
X101053Y283942D01*
X101461Y282957D01*
X101812Y282500D01*
X101565Y282000D01*
X98435D01*
X98188Y282500D01*
X98539Y282957D01*
X98947Y283942D01*
X98954Y284000D01*
X91045D01*
X91053Y283942D01*
X91461Y282957D01*
X91812Y282500D01*
X91565Y282000D01*
X88435D01*
X88188Y282500D01*
X88539Y282957D01*
X88947Y283942D01*
X88955Y284000D01*
X81046D01*
X81053Y283942D01*
X81461Y282957D01*
X81812Y282500D01*
X81565Y282000D01*
X78435D01*
X78188Y282500D01*
X78539Y282957D01*
X78947Y283942D01*
X78954Y284000D01*
X71046D01*
X71053Y283942D01*
X71461Y282957D01*
X71812Y282500D01*
X71565Y282000D01*
X68435D01*
X68188Y282500D01*
X68539Y282957D01*
X68947Y283942D01*
X68954Y284000D01*
X61045D01*
X61053Y283942D01*
X61461Y282957D01*
X61812Y282500D01*
X61565Y282000D01*
X58435D01*
X58188Y282500D01*
X58539Y282957D01*
X58947Y283942D01*
X58955Y284000D01*
X51046D01*
X51053Y283942D01*
X51461Y282957D01*
X51812Y282500D01*
X51435Y282170D01*
X49476Y284129D01*
X49590Y285000D01*
X49434Y286188D01*
X48976Y287295D01*
X48246Y288246D01*
X47295Y288976D01*
X46188Y289434D01*
X45000Y289591D01*
X43812Y289434D01*
X42705Y288976D01*
X42085Y288500D01*
X37915D01*
X37295Y288976D01*
X36188Y289434D01*
X35000Y289591D01*
X33812Y289434D01*
X32705Y288976D01*
X32085Y288500D01*
X28500D01*
X20000Y275000D01*
Y249624D01*
X19647Y249353D01*
X19006Y248517D01*
X18603Y247544D01*
X18465Y246500D01*
X18603Y245456D01*
X19006Y244483D01*
X19647Y243647D01*
X20000Y243376D01*
Y188000D01*
X36580D01*
X36916Y187629D01*
X36885Y187311D01*
X37031Y185828D01*
X37463Y184403D01*
X38165Y183089D01*
X39110Y181937D01*
X40262Y180992D01*
X41576Y180290D01*
X43002Y179858D01*
X44484Y179711D01*
X45967Y179858D01*
X47392Y180290D01*
X48706Y180992D01*
X49858Y181937D01*
X50803Y183089D01*
X51505Y184403D01*
X51938Y185828D01*
X52084Y187311D01*
X51938Y188794D01*
X51788Y189288D01*
X68000Y205500D01*
X90500D01*
X91000Y205000D01*
Y170500D01*
X62050D01*
X60464Y172086D01*
X60355Y172914D01*
X60002Y173765D01*
X59441Y174496D01*
X58710Y175057D01*
X57945Y175374D01*
Y172000D01*
X56945D01*
Y171000D01*
X53571D01*
X53606Y170916D01*
X53328Y170500D01*
X8000D01*
X1500Y177000D01*
X1500Y268205D01*
X2000Y268238D01*
X2103Y267456D01*
X2506Y266483D01*
X3147Y265647D01*
X3983Y265006D01*
X4956Y264603D01*
X5000Y264597D01*
Y268500D01*
Y272403D01*
X4956Y272397D01*
X3983Y271994D01*
X3147Y271353D01*
X2506Y270517D01*
X2103Y269544D01*
X2000Y268762D01*
X1500Y268795D01*
Y296927D01*
X1908Y297537D01*
X2462Y298092D01*
X3114Y298528D01*
X3839Y298828D01*
X4608Y298980D01*
X5000Y298980D01*
D02*
G37*
%LPC*%
G36*
X122409Y281000D02*
X120214D01*
X120355Y280659D01*
X121099Y279690D01*
X122069Y278945D01*
X122409Y278804D01*
Y281000D01*
D02*
G37*
G36*
X106000Y278955D02*
Y276000D01*
X108955D01*
X108947Y276058D01*
X108539Y277043D01*
X107889Y277889D01*
X107043Y278539D01*
X106058Y278947D01*
X106000Y278955D01*
D02*
G37*
G36*
X104000D02*
X103942Y278947D01*
X102957Y278539D01*
X102111Y277889D01*
X101461Y277043D01*
X101053Y276058D01*
X101046Y276000D01*
X104000D01*
Y278955D01*
D02*
G37*
G36*
X96000D02*
Y276000D01*
X98954D01*
X98947Y276058D01*
X98539Y277043D01*
X97889Y277889D01*
X97043Y278539D01*
X96058Y278947D01*
X96000Y278955D01*
D02*
G37*
G36*
X94000D02*
X93942Y278947D01*
X92957Y278539D01*
X92111Y277889D01*
X91461Y277043D01*
X91053Y276058D01*
X91045Y276000D01*
X94000D01*
Y278955D01*
D02*
G37*
G36*
X86000D02*
Y276000D01*
X88955D01*
X88947Y276058D01*
X88539Y277043D01*
X87889Y277889D01*
X87043Y278539D01*
X86058Y278947D01*
X86000Y278955D01*
D02*
G37*
G36*
X84000D02*
X83942Y278947D01*
X82957Y278539D01*
X82111Y277889D01*
X81461Y277043D01*
X81053Y276058D01*
X81046Y276000D01*
X84000D01*
Y278955D01*
D02*
G37*
G36*
X76000D02*
Y276000D01*
X78954D01*
X78947Y276058D01*
X78539Y277043D01*
X77889Y277889D01*
X77043Y278539D01*
X76058Y278947D01*
X76000Y278955D01*
D02*
G37*
G36*
X74000D02*
X73942Y278947D01*
X72957Y278539D01*
X72111Y277889D01*
X71461Y277043D01*
X71053Y276058D01*
X71046Y276000D01*
X74000D01*
Y278955D01*
D02*
G37*
G36*
X66000D02*
Y276000D01*
X68954D01*
X68947Y276058D01*
X68539Y277043D01*
X67889Y277889D01*
X67043Y278539D01*
X66058Y278947D01*
X66000Y278955D01*
D02*
G37*
G36*
X64000D02*
X63942Y278947D01*
X62957Y278539D01*
X62111Y277889D01*
X61461Y277043D01*
X61053Y276058D01*
X61045Y276000D01*
X64000D01*
Y278955D01*
D02*
G37*
G36*
X56000D02*
Y276000D01*
X58955D01*
X58947Y276058D01*
X58539Y277043D01*
X57889Y277889D01*
X57043Y278539D01*
X56058Y278947D01*
X56000Y278955D01*
D02*
G37*
G36*
X108955Y274000D02*
X106000D01*
Y271045D01*
X106058Y271053D01*
X107043Y271461D01*
X107889Y272111D01*
X108539Y272957D01*
X108947Y273942D01*
X108955Y274000D01*
D02*
G37*
G36*
X104000D02*
X101046D01*
X101053Y273942D01*
X101461Y272957D01*
X102111Y272111D01*
X102957Y271461D01*
X103942Y271053D01*
X104000Y271045D01*
Y274000D01*
D02*
G37*
G36*
X98954D02*
X96000D01*
Y271045D01*
X96058Y271053D01*
X97043Y271461D01*
X97889Y272111D01*
X98539Y272957D01*
X98947Y273942D01*
X98954Y274000D01*
D02*
G37*
G36*
X94000D02*
X91045D01*
X91053Y273942D01*
X91461Y272957D01*
X92111Y272111D01*
X92957Y271461D01*
X93942Y271053D01*
X94000Y271045D01*
Y274000D01*
D02*
G37*
G36*
X88955D02*
X86000D01*
Y271045D01*
X86058Y271053D01*
X87043Y271461D01*
X87889Y272111D01*
X88539Y272957D01*
X88947Y273942D01*
X88955Y274000D01*
D02*
G37*
G36*
X84000D02*
X81046D01*
X81053Y273942D01*
X81461Y272957D01*
X82111Y272111D01*
X82957Y271461D01*
X83942Y271053D01*
X84000Y271045D01*
Y274000D01*
D02*
G37*
G36*
X78954D02*
X76000D01*
Y271045D01*
X76058Y271053D01*
X77043Y271461D01*
X77889Y272111D01*
X78539Y272957D01*
X78947Y273942D01*
X78954Y274000D01*
D02*
G37*
G36*
X74000D02*
X71046D01*
X71053Y273942D01*
X71461Y272957D01*
X72111Y272111D01*
X72957Y271461D01*
X73942Y271053D01*
X74000Y271045D01*
Y274000D01*
D02*
G37*
G36*
X68954D02*
X66000D01*
Y271045D01*
X66058Y271053D01*
X67043Y271461D01*
X67889Y272111D01*
X68539Y272957D01*
X68947Y273942D01*
X68954Y274000D01*
D02*
G37*
G36*
X64000D02*
X61045D01*
X61053Y273942D01*
X61461Y272957D01*
X62111Y272111D01*
X62957Y271461D01*
X63942Y271053D01*
X64000Y271045D01*
Y274000D01*
D02*
G37*
G36*
X83500Y264503D02*
Y261600D01*
X86403D01*
X86397Y261644D01*
X85994Y262617D01*
X85353Y263453D01*
X84517Y264094D01*
X83544Y264497D01*
X83500Y264503D01*
D02*
G37*
G36*
X74000Y261757D02*
X73808Y261699D01*
X72592Y261049D01*
X71526Y260174D01*
X70652Y259108D01*
X70002Y257892D01*
X69943Y257700D01*
X74000D01*
Y261757D01*
D02*
G37*
G36*
X115157Y298392D02*
X114149Y298259D01*
X113210Y297870D01*
X112403Y297251D01*
X111784Y296444D01*
X111395Y295504D01*
X111262Y294496D01*
X111395Y293488D01*
X111784Y292548D01*
X112403Y291741D01*
X113210Y291122D01*
X114149Y290733D01*
X115157Y290600D01*
X116166Y290733D01*
X117105Y291122D01*
X117912Y291741D01*
X118531Y292548D01*
X118920Y293488D01*
X119053Y294496D01*
X118920Y295504D01*
X118531Y296444D01*
X117912Y297251D01*
X117105Y297870D01*
X116166Y298259D01*
X115157Y298392D01*
D02*
G37*
G36*
X106000Y288954D02*
Y286000D01*
X108955D01*
X108947Y286058D01*
X108539Y287043D01*
X107889Y287889D01*
X107043Y288539D01*
X106058Y288947D01*
X106000Y288954D01*
D02*
G37*
G36*
X104000D02*
X103942Y288947D01*
X102957Y288539D01*
X102111Y287889D01*
X101461Y287043D01*
X101053Y286058D01*
X101046Y286000D01*
X104000D01*
Y288954D01*
D02*
G37*
G36*
X96000D02*
Y286000D01*
X98954D01*
X98947Y286058D01*
X98539Y287043D01*
X97889Y287889D01*
X97043Y288539D01*
X96058Y288947D01*
X96000Y288954D01*
D02*
G37*
G36*
X94000D02*
X93942Y288947D01*
X92957Y288539D01*
X92111Y287889D01*
X91461Y287043D01*
X91053Y286058D01*
X91045Y286000D01*
X94000D01*
Y288954D01*
D02*
G37*
G36*
X86000D02*
Y286000D01*
X88955D01*
X88947Y286058D01*
X88539Y287043D01*
X87889Y287889D01*
X87043Y288539D01*
X86058Y288947D01*
X86000Y288954D01*
D02*
G37*
G36*
X84000D02*
X83942Y288947D01*
X82957Y288539D01*
X82111Y287889D01*
X81461Y287043D01*
X81053Y286058D01*
X81046Y286000D01*
X84000D01*
Y288954D01*
D02*
G37*
G36*
X76000D02*
Y286000D01*
X78954D01*
X78947Y286058D01*
X78539Y287043D01*
X77889Y287889D01*
X77043Y288539D01*
X76058Y288947D01*
X76000Y288954D01*
D02*
G37*
G36*
X74000D02*
X73942Y288947D01*
X72957Y288539D01*
X72111Y287889D01*
X71461Y287043D01*
X71053Y286058D01*
X71046Y286000D01*
X74000D01*
Y288954D01*
D02*
G37*
G36*
X66000D02*
Y286000D01*
X68954D01*
X68947Y286058D01*
X68539Y287043D01*
X67889Y287889D01*
X67043Y288539D01*
X66058Y288947D01*
X66000Y288954D01*
D02*
G37*
G36*
X64000D02*
X63942Y288947D01*
X62957Y288539D01*
X62111Y287889D01*
X61461Y287043D01*
X61053Y286058D01*
X61045Y286000D01*
X64000D01*
Y288954D01*
D02*
G37*
G36*
X56000D02*
Y286000D01*
X58955D01*
X58947Y286058D01*
X58539Y287043D01*
X57889Y287889D01*
X57043Y288539D01*
X56058Y288947D01*
X56000Y288954D01*
D02*
G37*
G36*
X54000D02*
X53942Y288947D01*
X52957Y288539D01*
X52111Y287889D01*
X51461Y287043D01*
X51053Y286058D01*
X51046Y286000D01*
X54000D01*
Y288954D01*
D02*
G37*
G36*
X152000Y287196D02*
Y285000D01*
X154196D01*
X154054Y285341D01*
X153311Y286311D01*
X152341Y287054D01*
X152000Y287196D01*
D02*
G37*
G36*
X148000D02*
X147659Y287054D01*
X146689Y286311D01*
X145946Y285341D01*
X145804Y285000D01*
X148000D01*
Y287196D01*
D02*
G37*
G36*
X154196Y281000D02*
X152000D01*
Y278804D01*
X152341Y278945D01*
X153311Y279690D01*
X154054Y280659D01*
X154196Y281000D01*
D02*
G37*
G36*
X148000D02*
X145804D01*
X145946Y280659D01*
X146689Y279690D01*
X147659Y278945D01*
X148000Y278804D01*
Y281000D01*
D02*
G37*
G36*
X15000Y292837D02*
X13471Y292686D01*
X12001Y292240D01*
X10646Y291516D01*
X9458Y290542D01*
X8484Y289354D01*
X7760Y287999D01*
X7314Y286529D01*
X7163Y285000D01*
X7314Y283471D01*
X7760Y282001D01*
X8484Y280646D01*
X9458Y279458D01*
X10646Y278484D01*
X12001Y277760D01*
X13471Y277314D01*
X15000Y277163D01*
X16529Y277314D01*
X17999Y277760D01*
X19354Y278484D01*
X20542Y279458D01*
X21516Y280646D01*
X22240Y282001D01*
X22686Y283471D01*
X22837Y285000D01*
X22686Y286529D01*
X22240Y287999D01*
X21516Y289354D01*
X20542Y290542D01*
X19354Y291516D01*
X17999Y292240D01*
X16529Y292686D01*
X15000Y292837D01*
D02*
G37*
G36*
X7000Y272403D02*
Y269500D01*
X9903D01*
X9897Y269544D01*
X9494Y270517D01*
X8853Y271353D01*
X8017Y271994D01*
X7044Y272397D01*
X7000Y272403D01*
D02*
G37*
G36*
X9903Y267500D02*
X7000D01*
Y264597D01*
X7044Y264603D01*
X8017Y265006D01*
X8853Y265647D01*
X9494Y266483D01*
X9897Y267456D01*
X9903Y267500D01*
D02*
G37*
G36*
X86500Y204600D02*
X83500D01*
Y201600D01*
X86500D01*
Y204600D01*
D02*
G37*
G36*
X81500D02*
X78500D01*
Y203600D01*
X69000D01*
Y198850D01*
X76500D01*
X86500D01*
Y199600D01*
X82500D01*
Y200600D01*
X81500D01*
Y204600D01*
D02*
G37*
G36*
X73750Y193350D02*
X69000D01*
Y188600D01*
X73750D01*
Y193350D01*
D02*
G37*
G36*
X86500Y189600D02*
X83500D01*
Y186600D01*
X86500D01*
Y189600D01*
D02*
G37*
G36*
Y193350D02*
X79250D01*
Y186600D01*
X81500D01*
Y190600D01*
X82500D01*
Y191600D01*
X86500D01*
Y193350D01*
D02*
G37*
G36*
X55945Y175374D02*
X55180Y175057D01*
X54449Y174496D01*
X53888Y173765D01*
X53571Y173000D01*
X55945D01*
Y175374D01*
D02*
G37*
%LPD*%
D10*
X4000Y90000D02*
X5437Y88563D01*
Y83800D02*
Y88563D01*
X4000Y77000D02*
X5437Y75563D01*
Y71000D02*
Y75563D01*
X4500Y63000D02*
X5937Y61563D01*
Y57300D02*
Y61563D01*
X4500Y50000D02*
X5937Y48563D01*
Y44300D02*
Y48563D01*
X162500Y91740D02*
Y97260D01*
X125277Y99982D02*
X125915Y99344D01*
X90609Y77700D02*
X112891Y99982D01*
X125277D01*
X60000Y91783D02*
X74083Y77700D01*
X60000Y91783D02*
Y123894D01*
X125915Y99344D02*
X126260Y99000D01*
X74083Y77700D02*
X90609D01*
X131135Y103056D02*
X144434D01*
X129335Y101256D02*
X131135Y103056D01*
X127827Y101256D02*
X129335D01*
X126260Y99689D02*
X127827Y101256D01*
X59950Y123944D02*
Y128950D01*
Y123944D02*
X60000Y123894D01*
X60500Y129500D02*
X64000D01*
X59950Y128950D02*
X60500Y129500D01*
X144434Y103056D02*
X148490Y99000D01*
X154000D01*
X153740Y54740D02*
X154500Y55500D01*
X153740Y45000D02*
Y54740D01*
D16*
X186740Y79500D02*
D03*
X179260D02*
D03*
X186740Y89000D02*
D03*
X179260D02*
D03*
X146260Y45000D02*
D03*
X153740D02*
D03*
X133740Y99000D02*
D03*
X126260D02*
D03*
X193480Y97500D02*
D03*
X186000D02*
D03*
X80260Y67500D02*
D03*
X87740D02*
D03*
X80260Y59000D02*
D03*
X87740D02*
D03*
X80260Y51000D02*
D03*
X87740D02*
D03*
X80260Y42500D02*
D03*
X87740D02*
D03*
X161260Y11500D02*
D03*
X168740D02*
D03*
X13418Y44300D02*
D03*
X5937D02*
D03*
X13418Y57300D02*
D03*
X5937D02*
D03*
X12918Y71000D02*
D03*
X5437D02*
D03*
X12918Y83800D02*
D03*
X5437D02*
D03*
D17*
X165500Y252240D02*
D03*
Y244760D02*
D03*
X162500Y104740D02*
D03*
Y97260D02*
D03*
X58500Y57260D02*
D03*
Y64740D02*
D03*
X42000Y56760D02*
D03*
Y64240D02*
D03*
X134500Y32740D02*
D03*
Y25260D02*
D03*
D52*
X147591Y27543D02*
X148854Y28807D01*
X115700Y205488D02*
X115800Y205588D01*
X118500Y198172D02*
X127672Y189000D01*
X135000Y194000D02*
Y200500D01*
X115700Y194300D02*
X121500Y188500D01*
X134500Y193500D02*
X135000Y194000D01*
X118500Y204328D02*
X119672Y205500D01*
X124319Y200500D02*
X135000D01*
X116972Y210500D02*
X124067D01*
X119672Y205500D02*
X124067D01*
X124319Y200500D02*
X124500Y200319D01*
X123990D02*
X124500D01*
X115800Y205588D02*
Y207219D01*
X127672Y189000D02*
X140500D01*
X135000Y200500D02*
X139819Y205319D01*
X115800Y207219D02*
Y209328D01*
X139819Y205319D02*
X144752D01*
X115700Y194300D02*
Y205488D01*
X144752Y205319D02*
X144933Y205500D01*
X115800Y209328D02*
X116972Y210500D01*
X118500Y198172D02*
Y204328D01*
X124067Y200500D02*
X124319D01*
X168500Y18000D02*
X171200Y15300D01*
Y13960D02*
Y15300D01*
X170496Y13256D02*
X171200Y13960D01*
X169807Y13256D02*
X170496D01*
X56800Y246672D02*
Y266339D01*
X50149Y272991D02*
X56800Y266339D01*
X50149Y272991D02*
Y279851D01*
X45000Y285000D02*
X50149Y279851D01*
X45000Y269180D02*
X54000Y260180D01*
X45000Y269180D02*
Y275000D01*
X115500Y10343D02*
Y10717D01*
X139500Y11343D02*
Y11500D01*
X136074Y7917D02*
X139500Y11343D01*
X117926Y7917D02*
X136074D01*
X115500Y10343D02*
X117926Y7917D01*
X114500Y11717D02*
X115500Y10717D01*
X113791Y12425D02*
X114500Y11717D01*
X109500Y12425D02*
X113791D01*
X107854Y14071D02*
X109500Y12425D01*
X102972Y14071D02*
X107854D01*
X102000Y15043D02*
X102972Y14071D01*
X195547Y170000D02*
X195590D01*
X188091Y162543D02*
X195547Y170000D01*
X187500Y162543D02*
X188091D01*
X64902Y164043D02*
X74500D01*
X56945Y172000D02*
X64902Y164043D01*
X74500D02*
X75090D01*
X124828Y231172D02*
Y235372D01*
X124957Y235500D01*
X124828Y231172D02*
X139000Y217000D01*
X153567Y19193D02*
X159504Y13256D01*
X160193D01*
X161260Y12189D01*
Y11500D02*
Y12189D01*
X139500Y11500D02*
X161260D01*
X139000Y206138D02*
Y217000D01*
X148000Y20457D02*
X149264Y19193D01*
X153567D01*
X139000Y206138D02*
X139819Y205319D01*
X151913Y205500D02*
X153000Y204413D01*
X144933Y205500D02*
X151913D01*
X147000Y20457D02*
X147591D01*
X116500Y90865D02*
Y91432D01*
X118889Y74505D02*
Y88476D01*
X116500Y90865D02*
X118889Y88476D01*
X116500Y72116D02*
X118889Y74505D01*
X116500Y66000D02*
Y72116D01*
X134500Y32740D02*
Y48000D01*
X116500Y66000D02*
X134500Y48000D01*
X194500Y79500D02*
X195000Y79000D01*
X186740Y79500D02*
X194500D01*
X186740Y89000D02*
X195000D01*
X64539Y47461D02*
X69500Y42500D01*
X80260D01*
X64539Y52461D02*
X72039D01*
X73500Y51000D01*
X80260D01*
X64539Y57461D02*
X79193D01*
X80260Y58527D01*
Y59000D01*
X64500Y62500D02*
X69500Y67500D01*
X80260D01*
X178500Y97500D02*
X186000D01*
X168740Y12189D02*
X169807Y13256D01*
X168740Y11500D02*
Y12189D01*
X165500Y217000D02*
X168500Y214000D01*
X165500Y217000D02*
Y244760D01*
X133740Y98311D02*
X134807Y97244D01*
X136855D01*
X144300Y89799D01*
Y80800D02*
Y89799D01*
X139500Y76000D02*
X144300Y80800D01*
X133740Y98311D02*
Y99000D01*
X99390Y143110D02*
X105000Y137500D01*
X93890Y143110D02*
X99390D01*
X93890D02*
Y215500D01*
X165251Y128791D02*
Y154251D01*
X146960Y110500D02*
X165251Y128791D01*
X117000Y110500D02*
X146960D01*
X177000Y197500D02*
X191300Y211800D01*
X177300Y178500D02*
Y192588D01*
Y166299D02*
Y178500D01*
X165251Y154251D02*
X177300Y166299D01*
X177000Y192888D02*
Y197500D01*
Y192888D02*
X177300Y192588D01*
X191300Y211800D02*
X192500Y210600D01*
X42952Y65192D02*
X46113D01*
X42000Y64240D02*
X42952Y65192D01*
X46113D02*
X59461Y78539D01*
X59000Y72000D02*
X62000Y75000D01*
X59000Y65240D02*
Y72000D01*
X58500Y64740D02*
X59000Y65240D01*
X144500Y114500D02*
X162000Y132000D01*
X117000Y114500D02*
X144500D01*
X162451Y132451D02*
Y202951D01*
X162000Y132000D02*
X162451Y132451D01*
Y202951D02*
X189643Y230143D01*
X192043D01*
X192500Y230600D01*
X127689Y58771D02*
Y64189D01*
Y58771D02*
X137300Y49160D01*
Y38243D02*
Y49160D01*
X147409Y27543D02*
X147591D01*
X148000D01*
X146146Y28807D02*
X147409Y27543D01*
X137300Y38243D02*
X146146Y29398D01*
Y28807D02*
Y29398D01*
X132043Y235500D02*
X139000D01*
X168051Y127632D02*
Y143619D01*
X174749Y150317D01*
X157960Y117540D02*
X168051Y127632D01*
X174749Y150317D02*
Y159789D01*
X147775Y107356D02*
X157960Y117540D01*
X162000Y113500D01*
X191143Y198643D02*
X193500Y201000D01*
X192043D02*
X193500D01*
X129354Y107356D02*
X147775D01*
X128498Y106500D02*
X129354Y107356D01*
X117000Y106500D02*
X128498D01*
X191143Y198643D02*
Y200143D01*
X187700Y195200D02*
X191143Y198643D01*
X187700Y172740D02*
Y195200D01*
X191143Y200143D02*
X192043D01*
X174749Y159789D02*
X187700Y172740D01*
X192043Y200143D02*
X192500Y200600D01*
X127700Y124988D02*
X129688Y123000D01*
X127700Y124988D02*
Y131700D01*
X139500Y123000D02*
X158500Y142000D01*
X129688Y123000D02*
X139500D01*
X127700Y131700D02*
X132500Y136500D01*
X158500Y142000D02*
Y221000D01*
X154000Y225500D02*
X158500Y221000D01*
X144933Y225500D02*
X154000D01*
X144933Y215500D02*
Y225500D01*
X150500Y149500D02*
Y194933D01*
X144933Y200500D02*
X150500Y194933D01*
X106740Y222659D02*
X127189D01*
X106281Y222200D02*
X106740Y222659D01*
X127189D02*
X128820Y221028D01*
Y208320D02*
Y221028D01*
X102719Y222200D02*
X106281D01*
X102260Y222659D02*
X102719Y222200D01*
X124067Y205500D02*
X125839D01*
X126020Y205681D01*
X126181D01*
X128820Y208320D01*
X92301Y222659D02*
X102260D01*
X90510Y224449D02*
X92301Y222659D01*
X90510Y224449D02*
Y231141D01*
X56800Y246672D02*
X57972Y245500D01*
X84388D01*
X87300Y242588D01*
Y234351D02*
Y242588D01*
Y234351D02*
X90510Y231141D01*
X54000Y231000D02*
Y260180D01*
X100269Y219859D02*
X104994Y215134D01*
Y209425D02*
Y215134D01*
X91141Y219859D02*
X100269D01*
X85500Y225500D02*
X91141Y219859D01*
X59172Y225500D02*
X85500D01*
X54000Y231000D02*
X58000Y227000D01*
Y226672D02*
Y227000D01*
Y226672D02*
X59172Y225500D01*
X104994Y209425D02*
X109719Y204700D01*
X113281D01*
X115800Y207219D01*
X124409Y283000D02*
X134740D01*
X163744Y253996D01*
Y253307D02*
Y253996D01*
Y253307D02*
X164811Y252240D01*
X165500D01*
D53*
X76000Y12000D02*
X80043Y7957D01*
X102000D01*
X93462Y23462D02*
X97500Y27500D01*
X76349Y23462D02*
X93462D01*
X76000Y23811D02*
X76349Y23462D01*
X65311Y34500D02*
X76000Y23811D01*
X41907Y56667D02*
X42093Y56482D01*
X43506Y55254D02*
X47000Y51760D01*
X43506Y55254D02*
Y55943D01*
X42689Y56760D02*
X43506Y55943D01*
X42000Y56760D02*
X42689D01*
X47000Y43000D02*
Y51760D01*
X45000Y24000D02*
Y40053D01*
X47000Y42053D02*
Y43000D01*
X45000Y40053D02*
X47000Y42053D01*
X124000Y171318D02*
X130135D01*
X137409Y164043D01*
X114955D02*
X122230Y171318D01*
X107000Y164043D02*
X114955D01*
X122230Y171318D02*
X124000D01*
X137409Y164043D02*
X140000D01*
X58500Y39000D02*
X63000Y34500D01*
X65311D01*
X58500Y39000D02*
Y57260D01*
X194671Y152284D02*
X195590D01*
X192512Y154443D02*
X194671Y152284D01*
X188514Y154443D02*
X192512D01*
X187500Y155457D02*
X188514Y154443D01*
X74500Y145500D02*
Y156957D01*
X122500Y145500D02*
X127953D01*
X139409Y156957D01*
X140000D01*
X119047Y145500D02*
X122500D01*
X107591Y156957D02*
X119047Y145500D01*
X107000Y156957D02*
X107591D01*
X77957Y129500D02*
Y135492D01*
X77957Y129500D02*
X77957Y129500D01*
Y135492D02*
X79421Y136957D01*
X94779D01*
X95000Y136736D01*
X23189Y100000D02*
X50750D01*
X15000Y108189D02*
X23189Y100000D01*
X193480Y97500D02*
Y109136D01*
X189967Y112650D02*
X193480Y109136D01*
X189967Y112650D02*
Y113799D01*
X186967Y116799D02*
X189967Y113799D01*
X185817Y116799D02*
X186967D01*
X77957Y99500D02*
Y109500D01*
X113500Y235500D02*
X124957D01*
X104445D02*
X113500D01*
X77957Y109618D02*
Y119500D01*
Y109500D02*
Y109618D01*
X95390Y235500D02*
X104445D01*
X104500Y235445D01*
X77957Y89500D02*
Y99500D01*
X13418Y44300D02*
Y57300D01*
X12918Y59300D02*
Y71000D01*
Y83800D01*
X16536Y87418D02*
Y91300D01*
X14423Y85306D02*
X16536Y87418D01*
X13735Y85306D02*
X14423D01*
X12918Y84489D02*
X13735Y85306D01*
X12918Y83800D02*
Y84489D01*
X134500Y17000D02*
Y25260D01*
X85043Y89500D02*
Y99500D01*
Y109500D01*
Y119500D01*
Y129500D01*
X85043Y129500D01*
X111500Y209000D02*
Y213500D01*
X112000Y215500D02*
X113500D01*
X111500Y213500D02*
X113500Y215500D01*
X124067D01*
X144933Y210500D02*
X152000D01*
X152500Y212000D02*
Y219500D01*
X152000Y210500D02*
X153000Y211500D01*
X152500Y212000D02*
X153000Y211500D01*
X115839Y75769D02*
Y86582D01*
X113711Y88711D02*
X115839Y86582D01*
X112998Y72928D02*
X115839Y75769D01*
X112998Y63498D02*
Y72928D01*
X92000Y42500D02*
X112998Y63498D01*
X87740Y42500D02*
X92000D01*
X112539Y77640D02*
Y84461D01*
X109498Y74599D02*
X112539Y77640D01*
X111000Y86000D02*
X112539Y84461D01*
X109498Y68998D02*
Y74599D01*
X91500Y51000D02*
X109498Y68998D01*
X87740Y51000D02*
X91500D01*
X108289Y83289D02*
X109079Y82500D01*
Y79129D02*
Y82500D01*
X92444Y62494D02*
X109079Y79129D01*
X90545Y62494D02*
X92444D01*
X87740Y59689D02*
X90545Y62494D01*
X87740Y59000D02*
Y59689D01*
X92500Y67500D02*
X105579Y80579D01*
X87740Y67500D02*
X92500D01*
X150500Y146500D02*
Y149500D01*
X132500Y128500D02*
X150500Y146500D01*
D54*
X30000Y264406D02*
Y275000D01*
X22500Y246500D02*
X23906D01*
X29351Y251945D02*
Y252063D01*
X29882Y252594D02*
X30000D01*
X23906Y246500D02*
X29351Y251945D01*
X30000Y252594D02*
X30000Y252594D01*
X29351Y252063D02*
X29882Y252594D01*
X70500Y110000D02*
X70646Y109854D01*
X171000Y115000D02*
X179988D01*
X180038Y115049D01*
X184067D01*
X185817Y116799D01*
X70646Y109854D02*
X77720D01*
X77957Y109618D01*
X85043Y109500D02*
X92500D01*
X185817Y134201D02*
X186329Y134712D01*
Y143022D01*
X195590Y152284D01*
X30000Y264406D02*
X30000Y264406D01*
D55*
X123289Y82943D02*
Y91219D01*
X92224Y73800D02*
X114506Y96082D01*
X118426D02*
X123289Y91219D01*
X114506Y96082D02*
X118426D01*
X70800Y73800D02*
X92224D01*
X123289Y82943D02*
X124232Y82000D01*
X128000D01*
X177104Y91156D02*
Y92896D01*
X175500Y94500D02*
X177104Y92896D01*
Y91156D02*
X177793D01*
X112613Y91361D02*
X112681D01*
X115402Y94082D01*
X121289Y81011D02*
Y90391D01*
X117598Y94082D02*
X121289Y90391D01*
X115402Y94082D02*
X117598D01*
X71960Y71656D02*
X92908D01*
X70304Y70000D02*
X71960Y71656D01*
X68000Y70000D02*
X70304D01*
X65500Y72500D02*
X68000Y70000D01*
X92908Y71656D02*
X112613Y91361D01*
X121289Y81011D02*
X122000Y80300D01*
Y71000D02*
Y80300D01*
X174500Y84000D02*
X174760D01*
X177104Y81656D01*
X177793D01*
X179260Y80189D01*
Y79500D02*
Y80189D01*
X127689Y76000D02*
X135100Y68589D01*
Y62366D02*
Y68589D01*
Y62366D02*
X139390Y58076D01*
X142311D01*
X146601Y53786D01*
Y45341D02*
Y53786D01*
X146260Y45000D02*
X146601Y45341D01*
X89821Y79600D02*
X114072Y103850D01*
X129242D01*
X61900Y92570D02*
X74870Y79600D01*
X61900Y92570D02*
Y124400D01*
X74870Y79600D02*
X89821D01*
X149314Y105500D02*
X162500D01*
X148770Y104956D02*
X149314Y105500D01*
X130348Y104956D02*
X148770D01*
X129242Y103850D02*
X130348Y104956D01*
X61900Y124400D02*
X62500Y125000D01*
X119691Y98082D02*
X122929Y94844D01*
X91395Y75800D02*
X113678Y98082D01*
X119691D01*
X122929Y94844D02*
X129424D01*
X58050Y91046D02*
X73296Y75800D01*
X58050Y91046D02*
Y129950D01*
X73296Y75800D02*
X91395D01*
X134300Y74977D02*
Y89968D01*
X129424Y94844D02*
X134300Y89968D01*
X61100Y133000D02*
X68000D01*
X58050Y129950D02*
X61100Y133000D01*
X134300Y74977D02*
X140689Y68589D01*
X141411D01*
X154500Y55500D01*
D57*
X15000Y285000D02*
D03*
Y15000D02*
D03*
D58*
X114500Y11717D02*
D03*
D59*
Y16717D02*
D03*
X119500Y11717D02*
D03*
Y16717D02*
D03*
X124500Y11717D02*
D03*
Y16717D02*
D03*
X129500Y11717D02*
D03*
Y16717D02*
D03*
X134500Y11717D02*
D03*
Y16717D02*
D03*
D60*
X195000Y53000D02*
D03*
Y79000D02*
D03*
Y89000D02*
D03*
X6000Y268500D02*
D03*
X119000Y128000D02*
D03*
X12500Y31500D02*
D03*
X47000Y145500D02*
D03*
X45000Y24000D02*
D03*
Y12189D02*
D03*
X105000Y137500D02*
D03*
X26811Y165012D02*
D03*
Y153201D02*
D03*
X15000Y165012D02*
D03*
Y153201D02*
D03*
X139500Y64189D02*
D03*
X127689D02*
D03*
X139500Y76000D02*
D03*
X127689D02*
D03*
Y87811D02*
D03*
X139500D02*
D03*
X26811Y120000D02*
D03*
Y108189D02*
D03*
X15000Y120000D02*
D03*
Y108189D02*
D03*
X154500Y55500D02*
D03*
X154000Y99000D02*
D03*
X5500Y135500D02*
D03*
X185000Y285000D02*
D03*
Y15000D02*
D03*
X132500Y136500D02*
D03*
Y128500D02*
D03*
X76000Y12000D02*
D03*
Y23811D02*
D03*
X45500Y126000D02*
D03*
X129300Y257100D02*
D03*
X149000D02*
D03*
X172500Y190600D02*
D03*
X192500Y200600D02*
D03*
Y210600D02*
D03*
Y220600D02*
D03*
Y230600D02*
D03*
Y240600D02*
D03*
Y250600D02*
D03*
Y260600D02*
D03*
X82500D02*
D03*
Y250600D02*
D03*
Y240600D02*
D03*
Y230600D02*
D03*
Y220600D02*
D03*
Y210600D02*
D03*
X97500Y27500D02*
D03*
X47000Y43000D02*
D03*
X177300Y178500D02*
D03*
X162000Y113500D02*
D03*
D61*
X43500Y235500D02*
D03*
X30980D02*
D03*
X43500Y206012D02*
D03*
X30980D02*
D03*
D62*
X170000Y170000D02*
D03*
X195590D02*
D03*
X170000Y152284D02*
D03*
X195590D02*
D03*
D63*
X150000Y283000D02*
D03*
X124409D02*
D03*
D64*
X114500Y179000D02*
D03*
X124500D02*
D03*
D65*
X134500D02*
D03*
D66*
X76500Y196100D02*
D03*
D67*
Y215800D02*
D03*
Y235500D02*
D03*
Y255200D02*
D03*
D68*
X182500Y190600D02*
D03*
X192500D02*
D03*
X82500Y200600D02*
D03*
Y190600D02*
D03*
D69*
X105000Y275000D02*
D03*
X95000D02*
D03*
X85000D02*
D03*
X75000D02*
D03*
X65000D02*
D03*
X55000D02*
D03*
X45000D02*
D03*
X105000Y285000D02*
D03*
X95000D02*
D03*
X85000D02*
D03*
X75000D02*
D03*
X65000D02*
D03*
X55000D02*
D03*
X45000D02*
D03*
X35000D02*
D03*
D70*
Y275000D02*
D03*
D71*
X140500Y189000D02*
D03*
X124000Y171318D02*
D03*
X121500Y188500D02*
D03*
X168500Y18000D02*
D03*
X74500Y145500D02*
D03*
X122500D02*
D03*
X95000Y136736D02*
D03*
X70000Y74000D02*
D03*
X128000Y82000D02*
D03*
X175500Y94500D02*
D03*
X65500Y72500D02*
D03*
X122000Y71000D02*
D03*
X174500Y84000D02*
D03*
X116500Y91432D02*
D03*
X64539Y47461D02*
D03*
Y52461D02*
D03*
Y57461D02*
D03*
X64500Y62500D02*
D03*
X4000Y90000D02*
D03*
X178500Y97500D02*
D03*
X4000Y77000D02*
D03*
X4500Y63000D02*
D03*
X168500Y213932D02*
D03*
X4500Y50000D02*
D03*
X162500Y91740D02*
D03*
X117000Y110500D02*
D03*
X59461Y78539D02*
D03*
X62000Y75000D02*
D03*
X162000Y132000D02*
D03*
X117000Y114500D02*
D03*
X139000Y235500D02*
D03*
X62500Y125000D02*
D03*
X64000Y129500D02*
D03*
X68000Y133000D02*
D03*
X117000Y106500D02*
D03*
X113711Y88711D02*
D03*
X111000Y86000D02*
D03*
X108289Y83289D02*
D03*
X105579Y80579D02*
D03*
D72*
X134500Y193500D02*
D03*
X32000Y180000D02*
D03*
X22500Y246500D02*
D03*
X142000Y290000D02*
D03*
X139000Y250000D02*
D03*
X151500Y236000D02*
D03*
X102000Y191500D02*
D03*
X127689Y273000D02*
D03*
X109500Y255500D02*
D03*
X96500D02*
D03*
X56945Y172000D02*
D03*
X50750Y100000D02*
D03*
X79500Y83500D02*
D03*
X70500Y110000D02*
D03*
X171000Y115000D02*
D03*
X93000Y94000D02*
D03*
X16536Y91300D02*
D03*
X92500Y109500D02*
D03*
X111500Y209000D02*
D03*
X152500Y219500D02*
D03*
D73*
X187500Y162543D02*
D03*
Y155457D02*
D03*
X140000Y156957D02*
D03*
Y164043D02*
D03*
X107000Y156957D02*
D03*
Y164043D02*
D03*
X74500Y156957D02*
D03*
Y164043D02*
D03*
X153000Y204413D02*
D03*
Y211500D02*
D03*
X102000Y15043D02*
D03*
Y7957D02*
D03*
X148000Y27543D02*
D03*
Y20457D02*
D03*
D74*
X113500Y235500D02*
D03*
Y215500D02*
D03*
X95390D02*
D03*
Y235500D02*
D03*
D75*
X132043D02*
D03*
X124957D02*
D03*
X77957Y129500D02*
D03*
X85043D02*
D03*
X85043Y119500D02*
D03*
X77957D02*
D03*
X85043Y109500D02*
D03*
X77957D02*
D03*
X85043Y99500D02*
D03*
X77957D02*
D03*
X85043Y89500D02*
D03*
X77957D02*
D03*
D76*
X185817Y134201D02*
D03*
Y116799D02*
D03*
D77*
X30000Y264406D02*
D03*
Y252594D02*
D03*
D78*
X144933Y215500D02*
D03*
Y210500D02*
D03*
Y205500D02*
D03*
Y200500D02*
D03*
X124067D02*
D03*
Y205500D02*
D03*
Y210500D02*
D03*
Y215500D02*
D03*
D79*
X43512Y206012D02*
X53300Y215800D01*
X76500D01*
X43500Y206012D02*
X43512D01*
X30980D02*
X43500D01*
X30980Y235500D02*
X43500D01*
M02*
