M48
;Layer_Color=9474304
;FILE_FORMAT=2:5
INCH,TZ
;TYPE=PLATED
T1F00S00C0.01000
T2F00S00C0.02800
T3F00S00C0.03200
T4F00S00C0.03543
T5F00S00C0.03898
T6F00S00C0.04000
T7F00S00C0.04016
T8F00S00C0.04921
T9F00S00C0.07323
T10F00S00C0.08600
T11F00S00C0.13800
;TYPE=NON_PLATED
T12F00S00C0.04000
T13F00S00C0.04724
T14F00S00C0.12126
%
T01
X4500Y50000
Y63000
X4000Y77000
Y90000
X59461Y78539
X62000Y75000
X65500Y72500
X70000Y74000
X64500Y62500
X64539Y57461
Y52461
Y47461
X105579Y80579
X108289Y83289
X111000Y86000
X113711Y88711
X116500Y91432
X117000Y106500
Y110500
Y114500
X122500Y145500
X95000Y136736
X74500Y145500
X68000Y133000
X64000Y129500
X62500Y125000
X128000Y82000
X122000Y71000
X162500Y91740
X175500Y94500
X178500Y97500
X174500Y84000
X162000Y132000
X174500Y16500
X168500Y213932
X139000Y235500
X140500Y189000
X121500Y188500
X122500Y175000
T02
X16536Y91300
X50750Y100000
X70500Y110000
X92500Y109500
X93000Y94000
X79500Y83500
X114500Y16717
Y11717
X119500
Y16717
X124500
Y11717
X129500
Y16717
X134500
Y11717
X171000Y115000
X134500Y193500
X102000Y191500
X111500Y209000
X109500Y255500
X96500
X139000Y250000
X151500Y236000
X152500Y219500
X127689Y273000
X142000Y290000
X22500Y246500
X32000Y180000
X56945Y172000
T03
X11500Y27500
X55000Y35000
X100000Y30000
X154500Y55500
X154000Y99000
X132500Y128500
Y136500
X119000Y128000
X105000Y137500
X47000Y145500
X45500Y126000
X5500Y135500
X162000Y113500
X195000Y89000
Y79000
Y53000
X177300Y178500
X6000Y268500
T04
X178000Y273000
Y283000
Y293000
T05
X170000Y152284
X195590
Y170000
X170000
T06
X36500Y12000
Y23811
X76000
Y12000
X127689Y64189
X139500
Y76000
X127689
Y87811
X139500
X26811Y108189
Y120000
X15000
Y108189
Y153201
X26811
X172500Y190600
X182500
X192500
Y200600
Y210600
Y220600
Y230600
Y240600
Y250600
Y260600
X149000Y257100
X129300
X82500Y260600
Y250600
Y240600
Y230600
Y220600
Y210600
Y200600
Y190600
X26811Y165012
X15000
T07
X30000Y275000
X40000
X50000
X60000
X70000
X80000
X90000
X100000
Y285000
X90000
X80000
X70000
X60000
X50000
X40000
X30000
T08
X124409Y283000
X150000
T09
X30980Y206012
X43500
Y235500
X30980
T10
X76500Y196100
Y215800
Y235500
Y255200
T11
X8900Y8900
X191100
Y291100
X8900
T12
X24689Y27512
X48311
X64189
X87811
X143201Y52378
Y99622
X38622Y104488
X3189
Y149500
X38622
T13
X115157Y294496
T14
X44484Y187311
Y254201
M30
