G04*
G04 #@! TF.GenerationSoftware,Altium Limited,Altium Designer,19.1.8 (144)*
G04*
G04 Layer_Color=65535*
%FSLAX25Y25*%
%MOIN*%
G70*
G01*
G75*
%ADD10C,0.01000*%
%ADD11C,0.00787*%
%ADD12C,0.00984*%
%ADD13C,0.01575*%
%ADD14C,0.00394*%
%ADD15C,0.00500*%
G36*
X165597Y87691D02*
X165942D01*
Y87622D01*
X166011D01*
Y87691D01*
X166081D01*
Y87622D01*
X166150D01*
Y87691D01*
X166219D01*
Y87622D01*
X166288D01*
Y87553D01*
X166634D01*
Y87484D01*
X166703D01*
Y87553D01*
X166772D01*
Y87484D01*
X166979D01*
Y87415D01*
X167048D01*
Y87346D01*
X167118D01*
Y87415D01*
X167187D01*
Y87346D01*
X167394D01*
Y87277D01*
X167740D01*
Y87207D01*
X167809D01*
Y87277D01*
X167878D01*
Y87207D01*
X168085D01*
Y87138D01*
X168154D01*
Y87069D01*
X168224D01*
Y87138D01*
X168293D01*
Y87069D01*
X168500D01*
Y87000D01*
X168846D01*
Y86931D01*
X168915D01*
Y87000D01*
X168984D01*
Y86931D01*
X169053D01*
Y86862D01*
X169260D01*
Y86793D01*
X169330D01*
Y86862D01*
X169399D01*
Y86793D01*
X169606D01*
Y86724D01*
X169675D01*
Y86654D01*
X169744D01*
Y86724D01*
X169813D01*
Y86585D01*
X169952D01*
Y86516D01*
X170021D01*
Y86447D01*
X170090D01*
Y86378D01*
X170159D01*
Y86309D01*
X170228D01*
Y86101D01*
X170297D01*
Y86032D01*
X170366D01*
Y85825D01*
X170436D01*
Y85756D01*
X170366D01*
Y85687D01*
X170436D01*
Y85479D01*
X170505D01*
Y85410D01*
X170436D01*
Y85341D01*
X170505D01*
Y85272D01*
X170436D01*
Y85203D01*
X170505D01*
Y85134D01*
X170436D01*
Y85065D01*
X170505D01*
Y84995D01*
X170436D01*
Y84926D01*
X170505D01*
Y84857D01*
X170436D01*
Y84788D01*
X170505D01*
Y84719D01*
X170436D01*
Y84650D01*
X170505D01*
Y84581D01*
X170436D01*
Y84512D01*
X170505D01*
Y84442D01*
X170297D01*
Y84512D01*
X170228D01*
Y84442D01*
X170159D01*
Y84512D01*
X169952D01*
Y84581D01*
X169744D01*
Y84650D01*
X169675D01*
Y84581D01*
X169606D01*
Y84650D01*
X169399D01*
Y84719D01*
X169191D01*
Y84788D01*
X169122D01*
Y84719D01*
X169053D01*
Y84788D01*
X168846D01*
Y84857D01*
X168638D01*
Y84926D01*
X168569D01*
Y84857D01*
X168500D01*
Y84926D01*
X168293D01*
Y84995D01*
X168085D01*
Y85065D01*
X168016D01*
Y84995D01*
X167947D01*
Y85065D01*
X167740D01*
Y85134D01*
X167532D01*
Y85203D01*
X167463D01*
Y85134D01*
X167394D01*
Y85203D01*
X167187D01*
Y85272D01*
X166979D01*
Y85341D01*
X166910D01*
Y85272D01*
X166841D01*
Y85341D01*
X166634D01*
Y85410D01*
X166288D01*
Y85341D01*
X166081D01*
Y85134D01*
X166011D01*
Y84926D01*
X165942D01*
Y84857D01*
X166011D01*
Y84650D01*
X166081D01*
Y84442D01*
X166150D01*
Y84373D01*
X166219D01*
Y84304D01*
X166288D01*
Y84235D01*
X166357D01*
Y84166D01*
X166426D01*
Y84235D01*
X166495D01*
Y84166D01*
X166634D01*
Y84097D01*
X166772D01*
Y84028D01*
X166841D01*
Y84097D01*
X166910D01*
Y84028D01*
X167118D01*
Y83958D01*
X167463D01*
Y83889D01*
X167532D01*
Y83958D01*
X167601D01*
Y83889D01*
X167671D01*
Y83820D01*
X167878D01*
Y83751D01*
X167947D01*
Y83820D01*
X168016D01*
Y83751D01*
X168224D01*
Y83682D01*
X168569D01*
Y83613D01*
X168638D01*
Y83682D01*
X168707D01*
Y83613D01*
X168777D01*
Y83544D01*
X168984D01*
Y83475D01*
X169053D01*
Y83544D01*
X169122D01*
Y83475D01*
X169330D01*
Y83405D01*
X169537D01*
Y83336D01*
X169606D01*
Y83405D01*
X169675D01*
Y83336D01*
X169744D01*
Y83405D01*
X169813D01*
Y83336D01*
X169883D01*
Y83267D01*
X170090D01*
Y83198D01*
X170159D01*
Y83267D01*
X170228D01*
Y83198D01*
X170436D01*
Y83129D01*
X170505D01*
Y83060D01*
X170436D01*
Y82991D01*
X170505D01*
Y82922D01*
X170436D01*
Y82852D01*
X170505D01*
Y82783D01*
X170436D01*
Y82714D01*
X170505D01*
Y82645D01*
X170436D01*
Y82576D01*
X170505D01*
Y82507D01*
X170436D01*
Y82438D01*
X170505D01*
Y82368D01*
X170436D01*
Y82299D01*
X170505D01*
Y82230D01*
X170436D01*
Y82161D01*
X170505D01*
Y82092D01*
X170436D01*
Y82023D01*
X170505D01*
Y81954D01*
X170436D01*
Y81885D01*
X170505D01*
Y81815D01*
X170436D01*
Y81746D01*
X170505D01*
Y81677D01*
X170436D01*
Y81608D01*
X170505D01*
Y81539D01*
X170436D01*
Y81470D01*
X170505D01*
Y81401D01*
X170436D01*
Y81332D01*
X170505D01*
Y81262D01*
X170436D01*
Y81193D01*
X170505D01*
Y81124D01*
X170436D01*
Y81055D01*
X170228D01*
Y81124D01*
X170021D01*
Y81193D01*
X169952D01*
Y81124D01*
X169883D01*
Y81193D01*
X169675D01*
Y81262D01*
X169468D01*
Y81332D01*
X169399D01*
Y81262D01*
X169330D01*
Y81332D01*
X169122D01*
Y81401D01*
X168915D01*
Y81470D01*
X168846D01*
Y81401D01*
X168777D01*
Y81470D01*
X168569D01*
Y81539D01*
X168362D01*
Y81608D01*
X168293D01*
Y81539D01*
X168224D01*
Y81608D01*
X168016D01*
Y81677D01*
X167809D01*
Y81746D01*
X167740D01*
Y81677D01*
X167671D01*
Y81746D01*
X167463D01*
Y81815D01*
X167256D01*
Y81885D01*
X167187D01*
Y81815D01*
X167118D01*
Y81885D01*
X166910D01*
Y81954D01*
X166703D01*
Y82023D01*
X166634D01*
Y81954D01*
X166565D01*
Y82023D01*
X166495D01*
Y81954D01*
X166426D01*
Y82023D01*
X166219D01*
Y81954D01*
X166150D01*
Y82023D01*
X166081D01*
Y81954D01*
X166150D01*
Y81885D01*
X166081D01*
Y81815D01*
X166011D01*
Y81608D01*
X165942D01*
Y81539D01*
X166011D01*
Y81470D01*
X165942D01*
Y81401D01*
X166011D01*
Y81332D01*
X166081D01*
Y81262D01*
X166011D01*
Y81193D01*
X166081D01*
Y81124D01*
X166150D01*
Y81055D01*
X166219D01*
Y80986D01*
X166288D01*
Y80917D01*
X166357D01*
Y80848D01*
X166495D01*
Y80779D01*
X166634D01*
Y80709D01*
X166703D01*
Y80779D01*
X166772D01*
Y80709D01*
X166979D01*
Y80640D01*
X167187D01*
Y80571D01*
X167256D01*
Y80640D01*
X167325D01*
Y80571D01*
X167532D01*
Y80502D01*
X167740D01*
Y80433D01*
X167809D01*
Y80502D01*
X167878D01*
Y80433D01*
X168085D01*
Y80364D01*
X168293D01*
Y80295D01*
X168362D01*
Y80364D01*
X168431D01*
Y80295D01*
X168638D01*
Y80226D01*
X168846D01*
Y80156D01*
X168915D01*
Y80226D01*
X168984D01*
Y80156D01*
X169191D01*
Y80087D01*
X169399D01*
Y80018D01*
X169468D01*
Y80087D01*
X169537D01*
Y80018D01*
X169744D01*
Y79949D01*
X169952D01*
Y79880D01*
X170021D01*
Y79949D01*
X170090D01*
Y79880D01*
X170297D01*
Y79811D01*
X170505D01*
Y79742D01*
X170436D01*
Y79673D01*
X170505D01*
Y79603D01*
X170436D01*
Y79534D01*
X170505D01*
Y79465D01*
X170436D01*
Y79396D01*
X170505D01*
Y79327D01*
X170436D01*
Y79258D01*
X170505D01*
Y79189D01*
X170436D01*
Y79120D01*
X170505D01*
Y79050D01*
X170436D01*
Y78981D01*
X170505D01*
Y78912D01*
X170436D01*
Y78843D01*
X170505D01*
Y78774D01*
X170436D01*
Y78705D01*
X170505D01*
Y78636D01*
X170436D01*
Y78567D01*
X170505D01*
Y78497D01*
X170436D01*
Y78428D01*
X170505D01*
Y78359D01*
X170436D01*
Y78290D01*
X170505D01*
Y78221D01*
X170436D01*
Y78152D01*
X170505D01*
Y78083D01*
X170436D01*
Y78014D01*
X170505D01*
Y77944D01*
X170436D01*
Y77875D01*
X170505D01*
Y77806D01*
X170436D01*
Y77737D01*
X170366D01*
Y77668D01*
X170297D01*
Y77737D01*
X170228D01*
Y77668D01*
X170159D01*
Y77737D01*
X169952D01*
Y77806D01*
X169744D01*
Y77875D01*
X169468D01*
Y77944D01*
X169191D01*
Y78014D01*
X169122D01*
Y77944D01*
X169053D01*
Y78014D01*
X168846D01*
Y78083D01*
X168638D01*
Y78152D01*
X168362D01*
Y78221D01*
X168224D01*
Y78290D01*
X168154D01*
Y78221D01*
X168085D01*
Y78290D01*
X168016D01*
Y78221D01*
X167947D01*
Y78290D01*
X167740D01*
Y78359D01*
X167532D01*
Y78428D01*
X167256D01*
Y78497D01*
X166979D01*
Y78567D01*
X166910D01*
Y78497D01*
X166841D01*
Y78567D01*
X166772D01*
Y78636D01*
X166703D01*
Y78567D01*
X166634D01*
Y78636D01*
X166426D01*
Y78705D01*
X166150D01*
Y78774D01*
X166011D01*
Y78843D01*
X165942D01*
Y78774D01*
X165873D01*
Y78843D01*
X165804D01*
Y78774D01*
X165735D01*
Y78843D01*
X165666D01*
Y78912D01*
X165597D01*
Y78843D01*
X165528D01*
Y78912D01*
X165320D01*
Y78981D01*
X165044D01*
Y79050D01*
X164905D01*
Y79120D01*
X164836D01*
Y79050D01*
X164767D01*
Y79120D01*
X164698D01*
Y79189D01*
X164767D01*
Y79258D01*
X164698D01*
Y79327D01*
X164767D01*
Y79396D01*
X164698D01*
Y79465D01*
X164767D01*
Y79534D01*
X164698D01*
Y79603D01*
X164767D01*
Y79673D01*
X164698D01*
Y79742D01*
X164767D01*
Y79811D01*
X164698D01*
Y79880D01*
X164767D01*
Y79949D01*
X164698D01*
Y80018D01*
X164767D01*
Y80087D01*
X164698D01*
Y80156D01*
X164767D01*
Y80226D01*
X164698D01*
Y80295D01*
X164767D01*
Y80364D01*
X164698D01*
Y80433D01*
X164767D01*
Y80502D01*
X164698D01*
Y80571D01*
X164767D01*
Y80640D01*
X164698D01*
Y80709D01*
X164767D01*
Y80779D01*
X164698D01*
Y80848D01*
X164767D01*
Y80917D01*
X164698D01*
Y80986D01*
X164767D01*
Y81055D01*
X164698D01*
Y81124D01*
X164767D01*
Y81193D01*
X164698D01*
Y81262D01*
X164905D01*
Y81193D01*
X164975D01*
Y81124D01*
X165044D01*
Y81193D01*
X165113D01*
Y81124D01*
X165320D01*
Y81193D01*
X165251D01*
Y81262D01*
X165182D01*
Y81332D01*
X165113D01*
Y81401D01*
X165044D01*
Y81539D01*
X164905D01*
Y81746D01*
X164836D01*
Y81815D01*
X164767D01*
Y82023D01*
X164698D01*
Y82092D01*
X164629D01*
Y82161D01*
X164698D01*
Y82230D01*
X164629D01*
Y82576D01*
X164560D01*
Y82645D01*
X164629D01*
Y82714D01*
X164560D01*
Y83198D01*
X164629D01*
Y83267D01*
X164560D01*
Y83336D01*
X164629D01*
Y83405D01*
X164560D01*
Y83475D01*
X164629D01*
Y83682D01*
X164698D01*
Y83751D01*
X164629D01*
Y83820D01*
X164698D01*
Y83889D01*
X164767D01*
Y84028D01*
X164905D01*
Y84166D01*
X165044D01*
Y84235D01*
X165113D01*
Y84304D01*
X165182D01*
Y84373D01*
X165251D01*
Y84304D01*
X165320D01*
Y84373D01*
X165389D01*
Y84304D01*
X165458D01*
Y84373D01*
X165389D01*
Y84442D01*
X165320D01*
Y84512D01*
X165251D01*
Y84581D01*
X165182D01*
Y84650D01*
X165113D01*
Y84719D01*
X165044D01*
Y84857D01*
X164905D01*
Y85065D01*
X164836D01*
Y85134D01*
X164767D01*
Y85341D01*
X164698D01*
Y85548D01*
X164629D01*
Y85894D01*
X164560D01*
Y85963D01*
X164629D01*
Y86032D01*
X164560D01*
Y86516D01*
X164629D01*
Y86585D01*
X164560D01*
Y86654D01*
X164629D01*
Y86724D01*
X164560D01*
Y86793D01*
X164629D01*
Y87000D01*
X164698D01*
Y87069D01*
X164629D01*
Y87138D01*
X164698D01*
Y87207D01*
X164767D01*
Y87415D01*
X164836D01*
Y87484D01*
X164905D01*
Y87553D01*
X165044D01*
Y87622D01*
X165182D01*
Y87691D01*
X165528D01*
Y87760D01*
X165597D01*
Y87691D01*
D02*
G37*
G36*
X164975Y77944D02*
X165182D01*
Y77875D01*
X165528D01*
Y77806D01*
X165597D01*
Y77875D01*
X165666D01*
Y77806D01*
X165735D01*
Y77737D01*
X165942D01*
Y77668D01*
X166011D01*
Y77737D01*
X166081D01*
Y77668D01*
X166288D01*
Y77599D01*
X166634D01*
Y77530D01*
X166703D01*
Y77599D01*
X166772D01*
Y77530D01*
X166841D01*
Y77461D01*
X167048D01*
Y77391D01*
X167118D01*
Y77461D01*
X167187D01*
Y77391D01*
X167394D01*
Y77322D01*
X167740D01*
Y77253D01*
X167809D01*
Y77322D01*
X167878D01*
Y77253D01*
X168085D01*
Y77184D01*
X168154D01*
Y77115D01*
X168224D01*
Y77184D01*
X168293D01*
Y77115D01*
X168500D01*
Y77046D01*
X168846D01*
Y76977D01*
X168915D01*
Y77046D01*
X168984D01*
Y76977D01*
X169053D01*
Y76908D01*
X169260D01*
Y76838D01*
X169330D01*
Y76908D01*
X169399D01*
Y76838D01*
X169606D01*
Y76769D01*
X169952D01*
Y76700D01*
X170021D01*
Y76769D01*
X170090D01*
Y76700D01*
X170297D01*
Y76631D01*
X170366D01*
Y76562D01*
X170436D01*
Y76493D01*
X170505D01*
Y76424D01*
X170436D01*
Y76355D01*
X170505D01*
Y76285D01*
X170436D01*
Y76216D01*
X170505D01*
Y76147D01*
X170436D01*
Y76078D01*
X170505D01*
Y76009D01*
X170436D01*
Y75940D01*
X170505D01*
Y75871D01*
X170436D01*
Y75801D01*
X170505D01*
Y75732D01*
X170436D01*
Y75663D01*
X170505D01*
Y75594D01*
X170436D01*
Y75525D01*
X170505D01*
Y75456D01*
X170436D01*
Y75387D01*
X170505D01*
Y75318D01*
X170436D01*
Y75248D01*
X170505D01*
Y75179D01*
X170436D01*
Y75110D01*
X170505D01*
Y75041D01*
X170436D01*
Y74972D01*
X170505D01*
Y74903D01*
X170436D01*
Y74834D01*
X170505D01*
Y74765D01*
X170436D01*
Y74695D01*
X170505D01*
Y74626D01*
X170436D01*
Y74557D01*
X170505D01*
Y74488D01*
X170297D01*
Y74557D01*
X170228D01*
Y74488D01*
X170159D01*
Y74557D01*
X169952D01*
Y74626D01*
X169813D01*
Y74557D01*
X169883D01*
Y74488D01*
X169952D01*
Y74419D01*
X170021D01*
Y74350D01*
X170090D01*
Y74212D01*
X170159D01*
Y74142D01*
X170228D01*
Y74073D01*
X170297D01*
Y74004D01*
X170366D01*
Y73797D01*
X170436D01*
Y73728D01*
X170505D01*
Y73382D01*
X170574D01*
Y73175D01*
X170643D01*
Y73106D01*
X170574D01*
Y73036D01*
X170643D01*
Y72967D01*
X170574D01*
Y72898D01*
X170643D01*
Y72829D01*
X170574D01*
Y72760D01*
X170643D01*
Y72691D01*
X170574D01*
Y72622D01*
X170643D01*
Y72553D01*
X170574D01*
Y72483D01*
X170643D01*
Y72414D01*
X170574D01*
Y72207D01*
X170505D01*
Y72000D01*
X170436D01*
Y71930D01*
X170505D01*
Y71861D01*
X170436D01*
Y71792D01*
X170366D01*
Y71723D01*
X170297D01*
Y71654D01*
X170228D01*
Y71585D01*
X170159D01*
Y71516D01*
X170090D01*
Y71447D01*
X170021D01*
Y71516D01*
X169952D01*
Y71447D01*
X169883D01*
Y71377D01*
X169260D01*
Y71447D01*
X168915D01*
Y71516D01*
X168638D01*
Y71585D01*
X168362D01*
Y71654D01*
X168293D01*
Y71585D01*
X168224D01*
Y71654D01*
X168154D01*
Y71723D01*
X168085D01*
Y71654D01*
X168016D01*
Y71723D01*
X167809D01*
Y71792D01*
X167532D01*
Y71861D01*
X167394D01*
Y71930D01*
X167325D01*
Y71861D01*
X167256D01*
Y71930D01*
X167187D01*
Y71861D01*
X167118D01*
Y71930D01*
X167048D01*
Y72000D01*
X166979D01*
Y71930D01*
X166910D01*
Y72000D01*
X166703D01*
Y72069D01*
X166426D01*
Y72138D01*
X166150D01*
Y72207D01*
X166081D01*
Y72138D01*
X166011D01*
Y72207D01*
X165942D01*
Y72276D01*
X165873D01*
Y72207D01*
X165804D01*
Y72276D01*
X165597D01*
Y72345D01*
X165320D01*
Y72414D01*
X165182D01*
Y72483D01*
X165113D01*
Y72414D01*
X165044D01*
Y72483D01*
X164975D01*
Y72414D01*
X164905D01*
Y72483D01*
X164836D01*
Y72553D01*
X164767D01*
Y72622D01*
X164698D01*
Y72691D01*
X164767D01*
Y72760D01*
X164698D01*
Y72829D01*
X164767D01*
Y72898D01*
X164698D01*
Y72967D01*
X164767D01*
Y73036D01*
X164698D01*
Y73106D01*
X164767D01*
Y73175D01*
X164698D01*
Y73244D01*
X164767D01*
Y73313D01*
X164698D01*
Y73382D01*
X164767D01*
Y73451D01*
X164698D01*
Y73520D01*
X164767D01*
Y73589D01*
X164698D01*
Y73659D01*
X164767D01*
Y73728D01*
X164698D01*
Y73797D01*
X164767D01*
Y73866D01*
X164698D01*
Y73935D01*
X164767D01*
Y74004D01*
X164698D01*
Y74073D01*
X164767D01*
Y74142D01*
X164698D01*
Y74212D01*
X164767D01*
Y74281D01*
X164698D01*
Y74350D01*
X164767D01*
Y74419D01*
X164698D01*
Y74488D01*
X164767D01*
Y74557D01*
X164698D01*
Y74626D01*
X164767D01*
Y74695D01*
X164836D01*
Y74626D01*
X165044D01*
Y74557D01*
X165251D01*
Y74488D01*
X165320D01*
Y74557D01*
X165389D01*
Y74488D01*
X165597D01*
Y74419D01*
X165804D01*
Y74350D01*
X165873D01*
Y74419D01*
X165942D01*
Y74350D01*
X166150D01*
Y74281D01*
X166357D01*
Y74212D01*
X166426D01*
Y74281D01*
X166495D01*
Y74212D01*
X166703D01*
Y74142D01*
X166910D01*
Y74073D01*
X166979D01*
Y74142D01*
X167048D01*
Y74073D01*
X167256D01*
Y74004D01*
X167463D01*
Y73935D01*
X167532D01*
Y74004D01*
X167601D01*
Y73935D01*
X167809D01*
Y73866D01*
X168016D01*
Y73797D01*
X168085D01*
Y73866D01*
X168154D01*
Y73797D01*
X168362D01*
Y73728D01*
X168569D01*
Y73659D01*
X168638D01*
Y73728D01*
X168707D01*
Y73659D01*
X168777D01*
Y73728D01*
X168846D01*
Y73659D01*
X168915D01*
Y73728D01*
X169053D01*
Y73797D01*
X169122D01*
Y73935D01*
X169191D01*
Y74419D01*
X169122D01*
Y74488D01*
X169191D01*
Y74557D01*
X169122D01*
Y74626D01*
X169053D01*
Y74695D01*
X168984D01*
Y74765D01*
X168915D01*
Y74834D01*
X168707D01*
Y74903D01*
X168638D01*
Y74972D01*
X168569D01*
Y74903D01*
X168500D01*
Y74972D01*
X168293D01*
Y75041D01*
X168085D01*
Y75110D01*
X168016D01*
Y75041D01*
X167947D01*
Y75110D01*
X167740D01*
Y75179D01*
X167532D01*
Y75248D01*
X167463D01*
Y75179D01*
X167394D01*
Y75248D01*
X167187D01*
Y75318D01*
X166979D01*
Y75387D01*
X166910D01*
Y75318D01*
X166841D01*
Y75387D01*
X166634D01*
Y75456D01*
X166426D01*
Y75525D01*
X166357D01*
Y75456D01*
X166288D01*
Y75525D01*
X166081D01*
Y75594D01*
X165873D01*
Y75663D01*
X165804D01*
Y75594D01*
X165735D01*
Y75663D01*
X165528D01*
Y75732D01*
X165320D01*
Y75801D01*
X165251D01*
Y75732D01*
X165182D01*
Y75801D01*
X164975D01*
Y75871D01*
X164767D01*
Y75940D01*
X164698D01*
Y76009D01*
X164767D01*
Y76078D01*
X164698D01*
Y76147D01*
X164767D01*
Y76216D01*
X164698D01*
Y76285D01*
X164767D01*
Y76355D01*
X164698D01*
Y76424D01*
X164767D01*
Y76493D01*
X164698D01*
Y76562D01*
X164767D01*
Y76631D01*
X164698D01*
Y76700D01*
X164767D01*
Y76769D01*
X164698D01*
Y76838D01*
X164767D01*
Y76908D01*
X164698D01*
Y76977D01*
X164767D01*
Y77046D01*
X164698D01*
Y77115D01*
X164767D01*
Y77184D01*
X164698D01*
Y77253D01*
X164767D01*
Y77322D01*
X164698D01*
Y77391D01*
X164767D01*
Y77461D01*
X164698D01*
Y77530D01*
X164767D01*
Y77599D01*
X164698D01*
Y77668D01*
X164767D01*
Y77737D01*
X164698D01*
Y77806D01*
X164767D01*
Y77875D01*
X164698D01*
Y77944D01*
X164767D01*
Y78014D01*
X164836D01*
Y77944D01*
X164905D01*
Y78014D01*
X164975D01*
Y77944D01*
D02*
G37*
G36*
X170505Y76562D02*
X170436D01*
Y76631D01*
X170505D01*
Y76562D01*
D02*
G37*
G36*
X165113Y71447D02*
X165320D01*
Y71377D01*
X165528D01*
Y71308D01*
X165597D01*
Y71377D01*
X165666D01*
Y71308D01*
X165873D01*
Y71239D01*
X166081D01*
Y71170D01*
X166150D01*
Y71239D01*
X166219D01*
Y71170D01*
X166426D01*
Y71101D01*
X166634D01*
Y71032D01*
X166703D01*
Y71101D01*
X166772D01*
Y71032D01*
X166979D01*
Y70963D01*
X167187D01*
Y70894D01*
X167256D01*
Y70963D01*
X167325D01*
Y70894D01*
X167532D01*
Y70824D01*
X167740D01*
Y70755D01*
X167809D01*
Y70824D01*
X167878D01*
Y70755D01*
X168085D01*
Y70686D01*
X168293D01*
Y70617D01*
X168362D01*
Y70686D01*
X168431D01*
Y70617D01*
X168638D01*
Y70548D01*
X168846D01*
Y70479D01*
X168915D01*
Y70548D01*
X168984D01*
Y70479D01*
X169191D01*
Y70410D01*
X169399D01*
Y70341D01*
X169468D01*
Y70410D01*
X169537D01*
Y70341D01*
X169744D01*
Y70271D01*
X169952D01*
Y70202D01*
X170021D01*
Y70271D01*
X170090D01*
Y70202D01*
X170159D01*
Y70133D01*
X170505D01*
Y70064D01*
X170436D01*
Y69995D01*
X170505D01*
Y69926D01*
X170436D01*
Y69857D01*
X170505D01*
Y69788D01*
X170436D01*
Y69718D01*
X170505D01*
Y69649D01*
X170436D01*
Y69580D01*
X170505D01*
Y69511D01*
X170436D01*
Y69442D01*
X170505D01*
Y69373D01*
X170436D01*
Y69304D01*
X170505D01*
Y69235D01*
X170436D01*
Y69165D01*
X170505D01*
Y69096D01*
X170436D01*
Y69027D01*
X170505D01*
Y68958D01*
X170436D01*
Y68889D01*
X170505D01*
Y68820D01*
X170436D01*
Y68751D01*
X170505D01*
Y68682D01*
X170436D01*
Y68612D01*
X170505D01*
Y68543D01*
X170436D01*
Y68474D01*
X170505D01*
Y68405D01*
X170436D01*
Y68336D01*
X170505D01*
Y68267D01*
X170436D01*
Y68198D01*
X170505D01*
Y68129D01*
X170436D01*
Y68059D01*
X170505D01*
Y67990D01*
X170297D01*
Y68059D01*
X170228D01*
Y67990D01*
X170159D01*
Y68059D01*
X169952D01*
Y68129D01*
X169744D01*
Y68198D01*
X169468D01*
Y68267D01*
X169191D01*
Y68336D01*
X169122D01*
Y68267D01*
X169053D01*
Y68336D01*
X168846D01*
Y68405D01*
X168638D01*
Y68474D01*
X168362D01*
Y68543D01*
X168085D01*
Y68612D01*
X168016D01*
Y68543D01*
X167947D01*
Y68612D01*
X167740D01*
Y68682D01*
X167532D01*
Y68751D01*
X167463D01*
Y68682D01*
X167394D01*
Y68751D01*
X167256D01*
Y68820D01*
X166979D01*
Y68889D01*
X166910D01*
Y68820D01*
X166841D01*
Y68889D01*
X166634D01*
Y68958D01*
X166426D01*
Y69027D01*
X166150D01*
Y69096D01*
X165873D01*
Y69165D01*
X165804D01*
Y69096D01*
X165735D01*
Y69165D01*
X165528D01*
Y69235D01*
X165320D01*
Y69304D01*
X165251D01*
Y69235D01*
X165182D01*
Y69304D01*
X165044D01*
Y69373D01*
X164767D01*
Y69442D01*
X164698D01*
Y69511D01*
X164767D01*
Y69580D01*
X164698D01*
Y69649D01*
X164767D01*
Y69718D01*
X164698D01*
Y69788D01*
X164767D01*
Y69857D01*
X164698D01*
Y69926D01*
X164767D01*
Y69995D01*
X164698D01*
Y70064D01*
X164767D01*
Y70133D01*
X164698D01*
Y70202D01*
X164767D01*
Y70271D01*
X164698D01*
Y70341D01*
X164767D01*
Y70410D01*
X164698D01*
Y70479D01*
X164767D01*
Y70548D01*
X164698D01*
Y70617D01*
X164767D01*
Y70686D01*
X164698D01*
Y70755D01*
X164767D01*
Y70824D01*
X164698D01*
Y70894D01*
X164767D01*
Y70963D01*
X164698D01*
Y71032D01*
X164767D01*
Y71101D01*
X164698D01*
Y71170D01*
X164767D01*
Y71239D01*
X164698D01*
Y71308D01*
X164767D01*
Y71377D01*
X164698D01*
Y71447D01*
X164767D01*
Y71516D01*
X164975D01*
Y71447D01*
X165044D01*
Y71516D01*
X165113D01*
Y71447D01*
D02*
G37*
G36*
X164975Y68543D02*
X165182D01*
Y68474D01*
X165389D01*
Y68405D01*
X165458D01*
Y68474D01*
X165528D01*
Y68405D01*
X165735D01*
Y68336D01*
X165942D01*
Y68267D01*
X166011D01*
Y67783D01*
X165942D01*
Y67714D01*
X166011D01*
Y67368D01*
X166219D01*
Y67299D01*
X166288D01*
Y67368D01*
X166357D01*
Y67299D01*
X166565D01*
Y67230D01*
X166772D01*
Y67161D01*
X166841D01*
Y67230D01*
X166910D01*
Y67161D01*
X167118D01*
Y67092D01*
X167325D01*
Y67023D01*
X167394D01*
Y67092D01*
X167463D01*
Y67023D01*
X167671D01*
Y66953D01*
X167878D01*
Y66884D01*
X167947D01*
Y66953D01*
X168016D01*
Y66884D01*
X168224D01*
Y66815D01*
X168431D01*
Y66746D01*
X168500D01*
Y66815D01*
X168569D01*
Y66746D01*
X168777D01*
Y66677D01*
X168846D01*
Y66746D01*
X168915D01*
Y66677D01*
X168984D01*
Y66746D01*
X169053D01*
Y66815D01*
X169122D01*
Y66884D01*
X169191D01*
Y67506D01*
X169260D01*
Y67437D01*
X169330D01*
Y67506D01*
X169399D01*
Y67437D01*
X169606D01*
Y67368D01*
X169813D01*
Y67299D01*
X169883D01*
Y67368D01*
X169952D01*
Y67299D01*
X170159D01*
Y67230D01*
X170366D01*
Y67161D01*
X170436D01*
Y67092D01*
X170505D01*
Y65225D01*
X170436D01*
Y65156D01*
X170505D01*
Y65087D01*
X170436D01*
Y65018D01*
X170366D01*
Y64949D01*
X170436D01*
Y64880D01*
X170366D01*
Y64672D01*
X170297D01*
Y64603D01*
X170228D01*
Y64534D01*
X170090D01*
Y64465D01*
X169952D01*
Y64396D01*
X169883D01*
Y64465D01*
X169813D01*
Y64396D01*
X169606D01*
Y64465D01*
X169537D01*
Y64396D01*
X169468D01*
Y64465D01*
X169399D01*
Y64396D01*
X169330D01*
Y64465D01*
X169122D01*
Y64534D01*
X168915D01*
Y64603D01*
X168846D01*
Y64534D01*
X168777D01*
Y64603D01*
X168707D01*
Y64534D01*
X168638D01*
Y64603D01*
X168569D01*
Y64672D01*
X168362D01*
Y64741D01*
X168293D01*
Y64672D01*
X168224D01*
Y64741D01*
X168016D01*
Y64811D01*
X167809D01*
Y64880D01*
X167740D01*
Y64811D01*
X167671D01*
Y64880D01*
X167463D01*
Y64949D01*
X167256D01*
Y65018D01*
X167187D01*
Y64949D01*
X167118D01*
Y65018D01*
X166910D01*
Y65087D01*
X166703D01*
Y65156D01*
X166634D01*
Y65087D01*
X166565D01*
Y65156D01*
X166357D01*
Y65225D01*
X166150D01*
Y65294D01*
X166081D01*
Y65225D01*
X166011D01*
Y65294D01*
X165804D01*
Y65364D01*
X165597D01*
Y65433D01*
X165528D01*
Y65364D01*
X165458D01*
Y65433D01*
X165251D01*
Y65502D01*
X165044D01*
Y65571D01*
X164975D01*
Y65502D01*
X164905D01*
Y65571D01*
X164698D01*
Y65640D01*
X164491D01*
Y65709D01*
X164422D01*
Y65640D01*
X164352D01*
Y65709D01*
X164145D01*
Y65778D01*
X163938D01*
Y65847D01*
X163869D01*
Y65778D01*
X163799D01*
Y65847D01*
X163592D01*
Y65917D01*
X163385D01*
Y65986D01*
X163315D01*
Y65917D01*
X163246D01*
Y65986D01*
X163039D01*
Y66055D01*
X162970D01*
Y68198D01*
X163039D01*
Y68129D01*
X163108D01*
Y68198D01*
X163177D01*
Y68129D01*
X163385D01*
Y68059D01*
X163454D01*
Y67990D01*
X163523D01*
Y68059D01*
X163592D01*
Y67990D01*
X163799D01*
Y67921D01*
X164007D01*
Y67852D01*
X164076D01*
Y67921D01*
X164145D01*
Y67852D01*
X164214D01*
Y67921D01*
X164283D01*
Y67852D01*
X164352D01*
Y67783D01*
X164560D01*
Y67714D01*
X164629D01*
Y67783D01*
X164698D01*
Y67714D01*
X164767D01*
Y67783D01*
X164698D01*
Y67852D01*
X164767D01*
Y67921D01*
X164698D01*
Y67990D01*
X164767D01*
Y68059D01*
X164698D01*
Y68129D01*
X164767D01*
Y68198D01*
X164698D01*
Y68267D01*
X164767D01*
Y68336D01*
X164698D01*
Y68405D01*
X164767D01*
Y68474D01*
X164698D01*
Y68543D01*
X164767D01*
Y68612D01*
X164836D01*
Y68543D01*
X164905D01*
Y68612D01*
X164975D01*
Y68543D01*
D02*
G37*
G36*
X170505Y67161D02*
X170436D01*
Y67230D01*
X170505D01*
Y67161D01*
D02*
G37*
G36*
X163177Y64949D02*
X163246D01*
Y64880D01*
X163315D01*
Y64949D01*
X163385D01*
Y64880D01*
X163592D01*
Y64811D01*
X163661D01*
Y64880D01*
X163730D01*
Y64811D01*
X163938D01*
Y64741D01*
X164145D01*
Y64672D01*
X164214D01*
Y64741D01*
X164283D01*
Y64672D01*
X164491D01*
Y64603D01*
X164698D01*
Y64534D01*
X164767D01*
Y64603D01*
X164836D01*
Y64534D01*
X165044D01*
Y64465D01*
X165251D01*
Y64396D01*
X165320D01*
Y64465D01*
X165389D01*
Y64396D01*
X165458D01*
Y64327D01*
X165804D01*
Y64258D01*
X165873D01*
Y64327D01*
X165942D01*
Y64258D01*
X166150D01*
Y64188D01*
X166357D01*
Y64119D01*
X166426D01*
Y64188D01*
X166495D01*
Y64119D01*
X166565D01*
Y64050D01*
X166910D01*
Y63981D01*
X166979D01*
Y64050D01*
X167048D01*
Y63981D01*
X167256D01*
Y63912D01*
X167463D01*
Y63843D01*
X167532D01*
Y63912D01*
X167601D01*
Y63843D01*
X167671D01*
Y63774D01*
X168016D01*
Y63704D01*
X168085D01*
Y63774D01*
X168154D01*
Y63704D01*
X168362D01*
Y63635D01*
X168569D01*
Y63566D01*
X168638D01*
Y63635D01*
X168707D01*
Y63566D01*
X168777D01*
Y63497D01*
X169122D01*
Y63428D01*
X169191D01*
Y63497D01*
X169260D01*
Y63428D01*
X169468D01*
Y63359D01*
X169675D01*
Y63290D01*
X169883D01*
Y63221D01*
X170228D01*
Y63151D01*
X170297D01*
Y63221D01*
X170366D01*
Y63151D01*
X170436D01*
Y63082D01*
X170505D01*
Y63013D01*
X170436D01*
Y62944D01*
X170505D01*
Y62875D01*
X170436D01*
Y62806D01*
X170505D01*
Y62737D01*
X170436D01*
Y62668D01*
X170505D01*
Y62598D01*
X170436D01*
Y62529D01*
X170505D01*
Y62460D01*
X170436D01*
Y62391D01*
X170505D01*
Y62322D01*
X170436D01*
Y62253D01*
X170505D01*
Y62184D01*
X170436D01*
Y62115D01*
X170505D01*
Y62045D01*
X170436D01*
Y61976D01*
X170505D01*
Y61907D01*
X170436D01*
Y61838D01*
X170505D01*
Y61769D01*
X170436D01*
Y61700D01*
X170505D01*
Y61631D01*
X170436D01*
Y61562D01*
X170505D01*
Y61492D01*
X170436D01*
Y61423D01*
X170505D01*
Y61354D01*
X170436D01*
Y61285D01*
X170505D01*
Y61216D01*
X170436D01*
Y61147D01*
X170505D01*
Y61078D01*
X170436D01*
Y61009D01*
X170228D01*
Y61078D01*
X170021D01*
Y61147D01*
X169952D01*
Y61078D01*
X169883D01*
Y61147D01*
X169675D01*
Y61216D01*
X169468D01*
Y61285D01*
X169399D01*
Y61216D01*
X169330D01*
Y61285D01*
X169122D01*
Y61354D01*
X168915D01*
Y61423D01*
X168846D01*
Y61354D01*
X168777D01*
Y61423D01*
X168569D01*
Y61492D01*
X168362D01*
Y61562D01*
X168293D01*
Y61492D01*
X168224D01*
Y61562D01*
X168016D01*
Y61631D01*
X167809D01*
Y61700D01*
X167740D01*
Y61631D01*
X167671D01*
Y61700D01*
X167463D01*
Y61769D01*
X167256D01*
Y61838D01*
X167187D01*
Y61769D01*
X167118D01*
Y61838D01*
X166910D01*
Y61907D01*
X166703D01*
Y61976D01*
X166634D01*
Y61907D01*
X166565D01*
Y61976D01*
X166357D01*
Y62045D01*
X166150D01*
Y62115D01*
X166081D01*
Y62045D01*
X166011D01*
Y62115D01*
X165804D01*
Y62184D01*
X165597D01*
Y62253D01*
X165528D01*
Y62184D01*
X165458D01*
Y62253D01*
X165251D01*
Y62322D01*
X165044D01*
Y62391D01*
X164975D01*
Y62322D01*
X164905D01*
Y62391D01*
X164698D01*
Y62460D01*
X164491D01*
Y62529D01*
X164422D01*
Y62460D01*
X164352D01*
Y62529D01*
X164145D01*
Y62598D01*
X163938D01*
Y62668D01*
X163869D01*
Y62598D01*
X163799D01*
Y62668D01*
X163592D01*
Y62737D01*
X163385D01*
Y62806D01*
X163315D01*
Y62737D01*
X163246D01*
Y62806D01*
X163039D01*
Y62875D01*
X162832D01*
Y62944D01*
X162901D01*
Y63013D01*
X162832D01*
Y63082D01*
X162901D01*
Y63151D01*
X162832D01*
Y63221D01*
X162901D01*
Y63290D01*
X162832D01*
Y63359D01*
X162901D01*
Y63428D01*
X162832D01*
Y63497D01*
X162901D01*
Y63566D01*
X162832D01*
Y63635D01*
X162901D01*
Y63704D01*
X162832D01*
Y63774D01*
X162901D01*
Y63843D01*
X162832D01*
Y63912D01*
X162901D01*
Y63981D01*
X162832D01*
Y64050D01*
X162901D01*
Y64119D01*
X162832D01*
Y64188D01*
X162901D01*
Y64258D01*
X162832D01*
Y64327D01*
X162901D01*
Y64396D01*
X162832D01*
Y64465D01*
X162901D01*
Y64534D01*
X162832D01*
Y64603D01*
X162901D01*
Y64672D01*
X162832D01*
Y64741D01*
X162901D01*
Y64811D01*
X162832D01*
Y64880D01*
X162901D01*
Y64949D01*
X162832D01*
Y65018D01*
X163039D01*
Y64949D01*
X163108D01*
Y65018D01*
X163177D01*
Y64949D01*
D02*
G37*
G36*
X170436Y60456D02*
X170505D01*
Y60386D01*
X170436D01*
Y60317D01*
X170505D01*
Y60248D01*
X170436D01*
Y60179D01*
X170505D01*
Y60110D01*
X170436D01*
Y60041D01*
X170505D01*
Y59972D01*
X170436D01*
Y59903D01*
X170505D01*
Y59833D01*
X170436D01*
Y59764D01*
X170505D01*
Y59695D01*
X170436D01*
Y59626D01*
X170505D01*
Y59557D01*
X170436D01*
Y59488D01*
X170505D01*
Y59419D01*
X170436D01*
Y59350D01*
X170505D01*
Y59280D01*
X170436D01*
Y59211D01*
X170505D01*
Y59142D01*
X170436D01*
Y59073D01*
X170505D01*
Y59004D01*
X170436D01*
Y58935D01*
X170505D01*
Y58866D01*
X170436D01*
Y58797D01*
X170505D01*
Y58727D01*
X170436D01*
Y58658D01*
X170505D01*
Y58589D01*
X170436D01*
Y58520D01*
X170505D01*
Y58451D01*
X170436D01*
Y58382D01*
X170505D01*
Y58313D01*
X170436D01*
Y58244D01*
X170505D01*
Y58174D01*
X170436D01*
Y58105D01*
X170366D01*
Y58036D01*
X170297D01*
Y58105D01*
X170228D01*
Y58036D01*
X170159D01*
Y58105D01*
X170090D01*
Y58036D01*
X170021D01*
Y58105D01*
X169952D01*
Y58036D01*
X169883D01*
Y58105D01*
X169260D01*
Y58174D01*
X169191D01*
Y58105D01*
X169122D01*
Y57898D01*
X169191D01*
Y57829D01*
X169122D01*
Y57621D01*
X169191D01*
Y57552D01*
X169122D01*
Y57345D01*
X169191D01*
Y57276D01*
X169122D01*
Y57068D01*
X169191D01*
Y56999D01*
X169122D01*
Y56792D01*
X169191D01*
Y56723D01*
X169122D01*
Y56515D01*
X169191D01*
Y56446D01*
X169122D01*
Y56239D01*
X169191D01*
Y56308D01*
X169260D01*
Y56239D01*
X169330D01*
Y56170D01*
X169537D01*
Y56101D01*
X169606D01*
Y56031D01*
X169813D01*
Y55962D01*
X170021D01*
Y55893D01*
X170090D01*
Y55824D01*
X170159D01*
Y55893D01*
X170228D01*
Y55824D01*
X170297D01*
Y55755D01*
X170505D01*
Y55686D01*
X170436D01*
Y55617D01*
X170505D01*
Y55548D01*
X170436D01*
Y55478D01*
X170505D01*
Y55409D01*
X170436D01*
Y55340D01*
X170505D01*
Y55271D01*
X170436D01*
Y55202D01*
X170505D01*
Y55133D01*
X170436D01*
Y55064D01*
X170505D01*
Y54994D01*
X170436D01*
Y54925D01*
X170505D01*
Y54856D01*
X170436D01*
Y54787D01*
X170505D01*
Y54718D01*
X170436D01*
Y54649D01*
X170505D01*
Y54580D01*
X170436D01*
Y54511D01*
X170505D01*
Y54441D01*
X170436D01*
Y54372D01*
X170505D01*
Y54303D01*
X170436D01*
Y54234D01*
X170505D01*
Y54165D01*
X170436D01*
Y54096D01*
X170505D01*
Y54027D01*
X170436D01*
Y53958D01*
X170505D01*
Y53888D01*
X170436D01*
Y53819D01*
X170505D01*
Y53750D01*
X170436D01*
Y53681D01*
X170505D01*
Y53612D01*
X170436D01*
Y53543D01*
X170505D01*
Y53474D01*
X170436D01*
Y53405D01*
X170505D01*
Y53335D01*
X170436D01*
Y53266D01*
X170366D01*
Y53335D01*
X170297D01*
Y53405D01*
X170228D01*
Y53335D01*
X170159D01*
Y53405D01*
X170090D01*
Y53474D01*
X170021D01*
Y53543D01*
X169813D01*
Y53612D01*
X169744D01*
Y53681D01*
X169606D01*
Y53750D01*
X169468D01*
Y53819D01*
X169399D01*
Y53888D01*
X169191D01*
Y53958D01*
X169122D01*
Y54027D01*
X168915D01*
Y54096D01*
X168846D01*
Y54165D01*
X168777D01*
Y54234D01*
X168707D01*
Y54165D01*
X168638D01*
Y54234D01*
X168569D01*
Y54303D01*
X168500D01*
Y54372D01*
X168431D01*
Y54303D01*
X168362D01*
Y54372D01*
X168293D01*
Y54441D01*
X168224D01*
Y54511D01*
X168016D01*
Y54580D01*
X167947D01*
Y54649D01*
X167809D01*
Y54718D01*
X167671D01*
Y54787D01*
X167532D01*
Y54856D01*
X167394D01*
Y54925D01*
X167256D01*
Y54994D01*
X167118D01*
Y55064D01*
X167048D01*
Y55133D01*
X166979D01*
Y55202D01*
X166910D01*
Y55133D01*
X166841D01*
Y55202D01*
X166772D01*
Y55271D01*
X166703D01*
Y55340D01*
X166634D01*
Y55271D01*
X166565D01*
Y55340D01*
X166495D01*
Y55409D01*
X166426D01*
Y55478D01*
X166219D01*
Y55548D01*
X166150D01*
Y55617D01*
X166011D01*
Y55686D01*
X165873D01*
Y55755D01*
X165735D01*
Y55824D01*
X165597D01*
Y55893D01*
X165458D01*
Y55962D01*
X165320D01*
Y56031D01*
X165251D01*
Y56101D01*
X165044D01*
Y56170D01*
X164975D01*
Y56239D01*
X164767D01*
Y56308D01*
X164698D01*
Y56377D01*
X164629D01*
Y56446D01*
X164422D01*
Y56515D01*
X164352D01*
Y56584D01*
X164214D01*
Y56654D01*
X164076D01*
Y56723D01*
X164007D01*
Y56792D01*
X163938D01*
Y56861D01*
X163869D01*
Y56930D01*
X163799D01*
Y56999D01*
X163730D01*
Y57068D01*
X163661D01*
Y57138D01*
X163592D01*
Y57207D01*
X163523D01*
Y57276D01*
X163454D01*
Y57345D01*
X163385D01*
Y57552D01*
X163315D01*
Y57621D01*
X163246D01*
Y57691D01*
X163177D01*
Y57898D01*
X163108D01*
Y58105D01*
X163039D01*
Y58174D01*
X162970D01*
Y58520D01*
X162901D01*
Y58589D01*
X162970D01*
Y58658D01*
X162901D01*
Y58727D01*
X162832D01*
Y58797D01*
X162901D01*
Y58866D01*
X162832D01*
Y58935D01*
X162901D01*
Y59004D01*
X162832D01*
Y59073D01*
X162901D01*
Y59142D01*
X162832D01*
Y59211D01*
X162901D01*
Y59280D01*
X162832D01*
Y59350D01*
X162901D01*
Y59419D01*
X162832D01*
Y59488D01*
X162901D01*
Y59557D01*
X162832D01*
Y59626D01*
X162901D01*
Y59695D01*
X162832D01*
Y59764D01*
X162901D01*
Y59833D01*
X162832D01*
Y59903D01*
X162901D01*
Y59972D01*
X162832D01*
Y60041D01*
X162901D01*
Y60110D01*
X162832D01*
Y60179D01*
X162901D01*
Y60248D01*
X163108D01*
Y60317D01*
X163177D01*
Y60248D01*
X163246D01*
Y60317D01*
X163315D01*
Y60248D01*
X163385D01*
Y60317D01*
X163454D01*
Y60248D01*
X163523D01*
Y60317D01*
X163592D01*
Y60248D01*
X163661D01*
Y60317D01*
X163730D01*
Y60248D01*
X163799D01*
Y60317D01*
X163869D01*
Y60248D01*
X163938D01*
Y60317D01*
X164007D01*
Y60248D01*
X164076D01*
Y60317D01*
X164145D01*
Y60248D01*
X164214D01*
Y60317D01*
X164283D01*
Y60248D01*
X164352D01*
Y60317D01*
X165389D01*
Y60386D01*
X165458D01*
Y60317D01*
X165528D01*
Y60386D01*
X165597D01*
Y60317D01*
X165666D01*
Y60386D01*
X165735D01*
Y60317D01*
X165804D01*
Y60386D01*
X166703D01*
Y60456D01*
X166772D01*
Y60386D01*
X166841D01*
Y60456D01*
X166910D01*
Y60386D01*
X166979D01*
Y60456D01*
X167048D01*
Y60386D01*
X167118D01*
Y60456D01*
X167187D01*
Y60386D01*
X167256D01*
Y60456D01*
X167325D01*
Y60386D01*
X167394D01*
Y60456D01*
X167463D01*
Y60386D01*
X167532D01*
Y60456D01*
X167601D01*
Y60386D01*
X167671D01*
Y60456D01*
X167740D01*
Y60386D01*
X167809D01*
Y60456D01*
X168016D01*
Y60386D01*
X168085D01*
Y60456D01*
X168984D01*
Y60525D01*
X169053D01*
Y60456D01*
X169122D01*
Y60525D01*
X169191D01*
Y60456D01*
X169260D01*
Y60525D01*
X169330D01*
Y60456D01*
X169399D01*
Y60525D01*
X170436D01*
Y60456D01*
D02*
G37*
G36*
X160295Y43515D02*
X160343D01*
Y43466D01*
X160391D01*
Y43418D01*
X160440D01*
Y43370D01*
X160488D01*
Y43321D01*
X160536D01*
Y43225D01*
X160633D01*
Y43128D01*
X160681D01*
Y43080D01*
X160778D01*
Y43031D01*
X160826D01*
Y42935D01*
X160874D01*
Y42887D01*
X160923D01*
Y42838D01*
X161019D01*
Y42790D01*
X161068D01*
Y42742D01*
X161116D01*
Y42597D01*
X161164D01*
Y42548D01*
X161213D01*
Y42500D01*
X161261D01*
Y42452D01*
X161406D01*
Y42500D01*
X161454D01*
Y42452D01*
X161599D01*
Y42500D01*
X161647D01*
Y42452D01*
X161792D01*
Y42500D01*
X161841D01*
Y42452D01*
X161889D01*
Y42500D01*
X161937D01*
Y42452D01*
X161986D01*
Y42500D01*
X162034D01*
Y42452D01*
X162082D01*
Y42500D01*
X162130D01*
Y42452D01*
X162179D01*
Y42500D01*
X162227D01*
Y42452D01*
X162275D01*
Y42500D01*
X162324D01*
Y42452D01*
X162372D01*
Y42500D01*
X162420D01*
Y42452D01*
X162469D01*
Y42500D01*
X162517D01*
Y42452D01*
X162565D01*
Y42500D01*
X162614D01*
Y42452D01*
X162662D01*
Y42500D01*
X162710D01*
Y42452D01*
X162759D01*
Y42500D01*
X162807D01*
Y42452D01*
X162855D01*
Y42500D01*
X162903D01*
Y42452D01*
X162952D01*
Y42500D01*
X163000D01*
Y42452D01*
X163048D01*
Y42500D01*
X163097D01*
Y42452D01*
X163145D01*
Y42500D01*
X163193D01*
Y42452D01*
X163242D01*
Y42500D01*
X163290D01*
Y42452D01*
X163338D01*
Y42500D01*
X163387D01*
Y42452D01*
X163435D01*
Y42500D01*
X163483D01*
Y42548D01*
X163531D01*
Y42693D01*
X163580D01*
Y42742D01*
X163628D01*
Y42790D01*
X163676D01*
Y42838D01*
X163725D01*
Y42935D01*
X163821D01*
Y43080D01*
X163870D01*
Y43128D01*
X163918D01*
Y43176D01*
X163966D01*
Y43225D01*
X164015D01*
Y43273D01*
X164063D01*
Y43321D01*
X164111D01*
Y43466D01*
X164160D01*
Y43515D01*
X164208D01*
Y43466D01*
X164256D01*
Y43418D01*
X164304D01*
Y43466D01*
X164353D01*
Y43418D01*
X164498D01*
Y43370D01*
X164546D01*
Y43321D01*
X164594D01*
Y43370D01*
X164643D01*
Y43321D01*
X164691D01*
Y43273D01*
X164836D01*
Y43225D01*
X164884D01*
Y43273D01*
X164933D01*
Y43225D01*
X164981D01*
Y43176D01*
X165029D01*
Y43128D01*
X165077D01*
Y43176D01*
X165126D01*
Y43128D01*
X165174D01*
Y43080D01*
X165319D01*
Y43031D01*
X165464D01*
Y42983D01*
X165512D01*
Y42935D01*
X165560D01*
Y42983D01*
X165609D01*
Y42935D01*
X165754D01*
Y42887D01*
X165802D01*
Y42838D01*
X165850D01*
Y42887D01*
X165899D01*
Y42838D01*
X165947D01*
Y42790D01*
X166092D01*
Y42742D01*
X166237D01*
Y42693D01*
X166285D01*
Y42645D01*
X166333D01*
Y42693D01*
X166382D01*
Y42645D01*
X166430D01*
Y42597D01*
X166575D01*
Y42548D01*
X166720D01*
Y42500D01*
X166768D01*
Y41969D01*
X166720D01*
Y41920D01*
X166768D01*
Y41872D01*
X166720D01*
Y41824D01*
X166768D01*
Y41776D01*
X166720D01*
Y41727D01*
X166768D01*
Y41679D01*
X166720D01*
Y41631D01*
X166768D01*
Y41582D01*
X166720D01*
Y41534D01*
X166768D01*
Y41486D01*
X166720D01*
Y41437D01*
X166768D01*
Y41244D01*
X166817D01*
Y41196D01*
X166913D01*
Y41147D01*
X166962D01*
Y41099D01*
X167058D01*
Y41051D01*
X167155D01*
Y41003D01*
X167251D01*
Y40954D01*
X167300D01*
Y40906D01*
X167445D01*
Y40858D01*
X167541D01*
Y40809D01*
X167589D01*
Y40761D01*
X167686D01*
Y40713D01*
X167783D01*
Y40664D01*
X167879D01*
Y40616D01*
X167928D01*
Y40568D01*
X168024D01*
Y40519D01*
X168073D01*
Y40471D01*
X168169D01*
Y40423D01*
X168266D01*
Y40374D01*
X168411D01*
Y40326D01*
X168507D01*
Y40278D01*
X168701D01*
Y40326D01*
X168846D01*
Y40374D01*
X168942D01*
Y40423D01*
X169039D01*
Y40471D01*
X169135D01*
Y40423D01*
X169087D01*
Y40374D01*
X168991D01*
Y40326D01*
X168894D01*
Y40278D01*
X168846D01*
Y40229D01*
X168604D01*
Y40181D01*
X168556D01*
Y40229D01*
X168459D01*
Y40278D01*
X168362D01*
Y40326D01*
X168266D01*
Y40374D01*
X168169D01*
Y40423D01*
X168073D01*
Y40471D01*
X167976D01*
Y40519D01*
X167879D01*
Y40568D01*
X167783D01*
Y40616D01*
X167734D01*
Y40664D01*
X167638D01*
Y40713D01*
X167541D01*
Y40761D01*
X167445D01*
Y40809D01*
X167348D01*
Y40858D01*
X167251D01*
Y40906D01*
X167155D01*
Y40954D01*
X167058D01*
Y41003D01*
X166962D01*
Y41051D01*
X166913D01*
Y41099D01*
X166768D01*
Y41147D01*
X166672D01*
Y41196D01*
X166575D01*
Y41244D01*
X166382D01*
Y41196D01*
X166285D01*
Y41244D01*
X166092D01*
Y41196D01*
X165850D01*
Y41147D01*
X165609D01*
Y41099D01*
X165416D01*
Y41051D01*
X165126D01*
Y41003D01*
X164884D01*
Y40954D01*
X164643D01*
Y40906D01*
X164401D01*
Y40858D01*
X164111D01*
Y40809D01*
X163870D01*
Y40761D01*
X163580D01*
Y40713D01*
X163387D01*
Y40664D01*
X163145D01*
Y40616D01*
X162855D01*
Y40568D01*
X162565D01*
Y40519D01*
X162372D01*
Y40471D01*
X162082D01*
Y40423D01*
X161792D01*
Y40374D01*
X161551D01*
Y40326D01*
X161454D01*
Y40229D01*
X161599D01*
Y40181D01*
X161744D01*
Y40133D01*
X161889D01*
Y40085D01*
X162034D01*
Y40036D01*
X162227D01*
Y39988D01*
X162324D01*
Y39940D01*
X162517D01*
Y39891D01*
X162662D01*
Y39843D01*
X162807D01*
Y39795D01*
X162952D01*
Y39746D01*
X163097D01*
Y39698D01*
X163242D01*
Y39650D01*
X163435D01*
Y39601D01*
X163580D01*
Y39553D01*
X163725D01*
Y39505D01*
X163870D01*
Y39457D01*
X164015D01*
Y39408D01*
X164160D01*
Y39360D01*
X164304D01*
Y39312D01*
X164449D01*
Y39263D01*
X164594D01*
Y39215D01*
X164643D01*
Y39167D01*
X164739D01*
Y39118D01*
X164788D01*
Y39070D01*
X164884D01*
Y39022D01*
X164933D01*
Y38974D01*
X164981D01*
Y38925D01*
X165029D01*
Y38877D01*
X165126D01*
Y38829D01*
X165174D01*
Y38780D01*
X165222D01*
Y38732D01*
X165271D01*
Y38684D01*
X165367D01*
Y38635D01*
X165416D01*
Y38587D01*
X165464D01*
Y38539D01*
X165512D01*
Y38490D01*
X165609D01*
Y38442D01*
X165657D01*
Y38394D01*
X165705D01*
Y38346D01*
X165802D01*
Y38297D01*
X165850D01*
Y38249D01*
X165899D01*
Y38201D01*
X165947D01*
Y38152D01*
X166044D01*
Y38104D01*
X166092D01*
Y38056D01*
X166140D01*
Y38007D01*
X166189D01*
Y37959D01*
X166285D01*
Y37911D01*
X166333D01*
Y37862D01*
X166382D01*
Y37814D01*
X166285D01*
Y37862D01*
X166237D01*
Y37911D01*
X166140D01*
Y37959D01*
X166092D01*
Y37911D01*
X166140D01*
Y37862D01*
X166237D01*
Y37814D01*
X166285D01*
Y37766D01*
X166237D01*
Y37814D01*
X166140D01*
Y37862D01*
X166092D01*
Y37911D01*
X166044D01*
Y37959D01*
X165995D01*
Y38007D01*
X165899D01*
Y38056D01*
X165850D01*
Y38104D01*
X165802D01*
Y38152D01*
X165754D01*
Y38201D01*
X165657D01*
Y38249D01*
X165609D01*
Y38297D01*
X165560D01*
Y38346D01*
X165512D01*
Y38394D01*
X165464D01*
Y38442D01*
X165367D01*
Y38490D01*
X165319D01*
Y38539D01*
X165271D01*
Y38587D01*
X165222D01*
Y38635D01*
X165126D01*
Y38684D01*
X165077D01*
Y38732D01*
X165029D01*
Y38780D01*
X164981D01*
Y38829D01*
X164884D01*
Y38877D01*
X164836D01*
Y38925D01*
X164788D01*
Y38974D01*
X164739D01*
Y39022D01*
X164643D01*
Y39070D01*
X164594D01*
Y39118D01*
X164498D01*
Y39167D01*
X164401D01*
Y39215D01*
X164256D01*
Y39263D01*
X164063D01*
Y39312D01*
X163918D01*
Y39360D01*
X163773D01*
Y39408D01*
X163628D01*
Y39457D01*
X163483D01*
Y39505D01*
X163338D01*
Y39553D01*
X163193D01*
Y39601D01*
X163048D01*
Y39650D01*
X162903D01*
Y39698D01*
X162710D01*
Y39746D01*
X162565D01*
Y39795D01*
X162420D01*
Y39843D01*
X162275D01*
Y39891D01*
X162130D01*
Y39940D01*
X161986D01*
Y39988D01*
X161841D01*
Y40036D01*
X161696D01*
Y40085D01*
X161503D01*
Y40133D01*
X161358D01*
Y40181D01*
X161261D01*
Y40229D01*
X157928D01*
Y40133D01*
X157879D01*
Y40085D01*
X157831D01*
Y39988D01*
X157783D01*
Y39940D01*
X157734D01*
Y39843D01*
X157686D01*
Y39795D01*
X157638D01*
Y39698D01*
X157589D01*
Y39650D01*
X157541D01*
Y39553D01*
X157493D01*
Y39505D01*
X157445D01*
Y39408D01*
X157396D01*
Y39360D01*
X157348D01*
Y39263D01*
X157300D01*
Y39215D01*
X157251D01*
Y39118D01*
X157203D01*
Y39070D01*
X157155D01*
Y39022D01*
X157106D01*
Y38925D01*
X157058D01*
Y38877D01*
X157010D01*
Y38780D01*
X156961D01*
Y38732D01*
X156913D01*
Y38635D01*
X156865D01*
Y38587D01*
X156816D01*
Y38490D01*
X156768D01*
Y38442D01*
X156720D01*
Y38394D01*
X156672D01*
Y38297D01*
X156623D01*
Y38249D01*
X156575D01*
Y38152D01*
X156527D01*
Y38104D01*
X156478D01*
Y38007D01*
X156430D01*
Y37959D01*
X156382D01*
Y37862D01*
X156333D01*
Y37814D01*
X156285D01*
Y37717D01*
X156237D01*
Y37669D01*
X156188D01*
Y37621D01*
X156140D01*
Y37524D01*
X156092D01*
Y37476D01*
X156044D01*
Y37379D01*
X155995D01*
Y37331D01*
X155947D01*
Y37234D01*
X155899D01*
Y37186D01*
X155850D01*
Y37138D01*
X155802D01*
Y37041D01*
X155754D01*
Y36993D01*
X155705D01*
Y36896D01*
X155754D01*
Y36848D01*
X155802D01*
Y36800D01*
X155850D01*
Y36751D01*
X155899D01*
Y36703D01*
X155947D01*
Y36655D01*
X155995D01*
Y36606D01*
X156044D01*
Y36558D01*
X156092D01*
Y36510D01*
X156140D01*
Y36461D01*
X156188D01*
Y36413D01*
X156237D01*
Y36365D01*
X156285D01*
Y36316D01*
X156333D01*
Y36268D01*
X156382D01*
Y36220D01*
X156430D01*
Y36171D01*
X156478D01*
Y36123D01*
X156527D01*
Y36075D01*
X156575D01*
Y35978D01*
X156672D01*
Y35930D01*
X156720D01*
Y35882D01*
X156768D01*
Y35833D01*
X156816D01*
Y35785D01*
X156865D01*
Y35737D01*
X156913D01*
Y35688D01*
X156961D01*
Y35640D01*
X157010D01*
Y35592D01*
X157058D01*
Y35544D01*
X157106D01*
Y35495D01*
X157155D01*
Y35447D01*
X157203D01*
Y35399D01*
X157251D01*
Y35350D01*
X157300D01*
Y35302D01*
X157348D01*
Y35254D01*
X157396D01*
Y35205D01*
X157445D01*
Y35157D01*
X157493D01*
Y35109D01*
X157541D01*
Y35060D01*
X157589D01*
Y35012D01*
X157638D01*
Y34964D01*
X157686D01*
Y34916D01*
X157734D01*
Y34867D01*
X157783D01*
Y34819D01*
X157831D01*
Y34722D01*
X158990D01*
Y34771D01*
X159039D01*
Y34722D01*
X159087D01*
Y34771D01*
X160150D01*
Y34819D01*
X160198D01*
Y34867D01*
X160247D01*
Y34916D01*
X160343D01*
Y34964D01*
X160391D01*
Y34867D01*
X160343D01*
Y34819D01*
X160247D01*
Y34771D01*
X160198D01*
Y34722D01*
X160150D01*
Y34674D01*
X157928D01*
Y34481D01*
X157879D01*
Y32645D01*
X158845D01*
Y32597D01*
X158894D01*
Y32645D01*
X158990D01*
Y32597D01*
X160198D01*
Y32548D01*
X160247D01*
Y32500D01*
X160295D01*
Y32452D01*
X160343D01*
Y32403D01*
X160391D01*
Y32355D01*
X160440D01*
Y32307D01*
X160488D01*
Y32258D01*
X160536D01*
Y32210D01*
X160585D01*
Y32162D01*
X160488D01*
Y32210D01*
X160440D01*
Y32258D01*
X160391D01*
Y32307D01*
X160343D01*
Y32355D01*
X160295D01*
Y32403D01*
X160247D01*
Y32452D01*
X160198D01*
Y32500D01*
X160150D01*
Y32548D01*
X157831D01*
Y32500D01*
X157783D01*
Y32452D01*
X157734D01*
Y32403D01*
X157686D01*
Y32355D01*
X157638D01*
Y32307D01*
X157589D01*
Y32258D01*
X157541D01*
Y32210D01*
X157493D01*
Y32162D01*
X157445D01*
Y32114D01*
X157396D01*
Y32065D01*
X157348D01*
Y32017D01*
X157300D01*
Y31969D01*
X157251D01*
Y31920D01*
X157203D01*
Y31872D01*
X157155D01*
Y31824D01*
X157106D01*
Y31775D01*
X157058D01*
Y31727D01*
X157010D01*
Y31679D01*
X156961D01*
Y31630D01*
X156913D01*
Y31582D01*
X156865D01*
Y31534D01*
X156816D01*
Y31486D01*
X156768D01*
Y31437D01*
X156720D01*
Y31389D01*
X156672D01*
Y31341D01*
X156623D01*
Y31292D01*
X156575D01*
Y31244D01*
X156527D01*
Y31196D01*
X156478D01*
Y31147D01*
X156430D01*
Y31099D01*
X156382D01*
Y31051D01*
X156333D01*
Y31002D01*
X156285D01*
Y30954D01*
X156237D01*
Y30906D01*
X156188D01*
Y30858D01*
X156140D01*
Y30809D01*
X156092D01*
Y30761D01*
X156044D01*
Y30713D01*
X155995D01*
Y30664D01*
X155947D01*
Y30616D01*
X155899D01*
Y30568D01*
X155850D01*
Y30519D01*
X155802D01*
Y30471D01*
X155754D01*
Y30423D01*
X155705D01*
Y30326D01*
X155754D01*
Y30229D01*
X155802D01*
Y30181D01*
X155850D01*
Y30084D01*
X155899D01*
Y30036D01*
X155947D01*
Y29988D01*
X155995D01*
Y29891D01*
X156044D01*
Y29843D01*
X156092D01*
Y29746D01*
X156140D01*
Y29698D01*
X156188D01*
Y29601D01*
X156237D01*
Y29553D01*
X156285D01*
Y29456D01*
X156333D01*
Y29408D01*
X156382D01*
Y29360D01*
X156430D01*
Y29263D01*
X156478D01*
Y29215D01*
X156527D01*
Y29118D01*
X156575D01*
Y29070D01*
X156623D01*
Y28973D01*
X156672D01*
Y28925D01*
X156720D01*
Y28828D01*
X156768D01*
Y28780D01*
X156816D01*
Y28732D01*
X156865D01*
Y28635D01*
X156913D01*
Y28587D01*
X156961D01*
Y28490D01*
X157010D01*
Y28442D01*
X157058D01*
Y28345D01*
X157106D01*
Y28297D01*
X157155D01*
Y28200D01*
X157203D01*
Y28152D01*
X157251D01*
Y28056D01*
X157300D01*
Y28007D01*
X157348D01*
Y27959D01*
X157396D01*
Y27862D01*
X157445D01*
Y27814D01*
X157493D01*
Y27717D01*
X157541D01*
Y27669D01*
X157589D01*
Y27572D01*
X157638D01*
Y27524D01*
X157686D01*
Y27428D01*
X157734D01*
Y27379D01*
X157783D01*
Y27283D01*
X157831D01*
Y27234D01*
X157879D01*
Y27138D01*
X157928D01*
Y27089D01*
X157976D01*
Y27041D01*
X161164D01*
Y27089D01*
X161309D01*
Y27138D01*
X161454D01*
Y27186D01*
X161599D01*
Y27234D01*
X161744D01*
Y27283D01*
X161937D01*
Y27331D01*
X162034D01*
Y27379D01*
X162227D01*
Y27428D01*
X162372D01*
Y27476D01*
X162517D01*
Y27524D01*
X162662D01*
Y27572D01*
X162807D01*
Y27621D01*
X162952D01*
Y27669D01*
X163097D01*
Y27717D01*
X163290D01*
Y27766D01*
X163387D01*
Y27814D01*
X163580D01*
Y27862D01*
X163725D01*
Y27911D01*
X163870D01*
Y27959D01*
X164015D01*
Y28007D01*
X164160D01*
Y28056D01*
X164304D01*
Y28104D01*
X164449D01*
Y28152D01*
X164546D01*
Y28200D01*
X164643D01*
Y28249D01*
X164691D01*
Y28297D01*
X164739D01*
Y28345D01*
X164788D01*
Y28394D01*
X164884D01*
Y28442D01*
X164933D01*
Y28490D01*
X164981D01*
Y28539D01*
X165077D01*
Y28587D01*
X165126D01*
Y28635D01*
X165174D01*
Y28684D01*
X165222D01*
Y28732D01*
X165271D01*
Y28780D01*
X165367D01*
Y28828D01*
X165416D01*
Y28877D01*
X165464D01*
Y28925D01*
X165512D01*
Y28973D01*
X165609D01*
Y29022D01*
X165657D01*
Y29070D01*
X165705D01*
Y29118D01*
X165754D01*
Y29167D01*
X165850D01*
Y29215D01*
X165899D01*
Y29263D01*
X165947D01*
Y29312D01*
X165995D01*
Y29360D01*
X166092D01*
Y29312D01*
X166140D01*
Y29360D01*
X166092D01*
Y29408D01*
X166140D01*
Y29360D01*
X166189D01*
Y29408D01*
X166140D01*
Y29456D01*
X166189D01*
Y29408D01*
X166285D01*
Y29360D01*
X166237D01*
Y29312D01*
X166189D01*
Y29263D01*
X166092D01*
Y29215D01*
X166044D01*
Y29167D01*
X165995D01*
Y29118D01*
X165947D01*
Y29070D01*
X165850D01*
Y29022D01*
X165802D01*
Y28973D01*
X165754D01*
Y28925D01*
X165705D01*
Y28877D01*
X165609D01*
Y28828D01*
X165560D01*
Y28780D01*
X165512D01*
Y28732D01*
X165464D01*
Y28684D01*
X165367D01*
Y28635D01*
X165319D01*
Y28587D01*
X165271D01*
Y28539D01*
X165174D01*
Y28490D01*
X165126D01*
Y28442D01*
X165077D01*
Y28394D01*
X165029D01*
Y28345D01*
X164933D01*
Y28297D01*
X164884D01*
Y28249D01*
X164836D01*
Y28200D01*
X164788D01*
Y28152D01*
X164691D01*
Y28104D01*
X164643D01*
Y28056D01*
X164546D01*
Y28007D01*
X164401D01*
Y27959D01*
X164256D01*
Y27911D01*
X164063D01*
Y27862D01*
X163918D01*
Y27814D01*
X163773D01*
Y27766D01*
X163628D01*
Y27717D01*
X163483D01*
Y27669D01*
X163338D01*
Y27621D01*
X163145D01*
Y27572D01*
X163000D01*
Y27524D01*
X162855D01*
Y27476D01*
X162710D01*
Y27428D01*
X162565D01*
Y27379D01*
X162420D01*
Y27331D01*
X162275D01*
Y27283D01*
X162130D01*
Y27234D01*
X161937D01*
Y27186D01*
X161841D01*
Y27138D01*
X161696D01*
Y27089D01*
X161503D01*
Y27041D01*
X161454D01*
Y26993D01*
X161406D01*
Y26944D01*
X161696D01*
Y26896D01*
X161986D01*
Y26848D01*
X162227D01*
Y26799D01*
X162469D01*
Y26751D01*
X162710D01*
Y26703D01*
X163000D01*
Y26654D01*
X163242D01*
Y26606D01*
X163483D01*
Y26558D01*
X163725D01*
Y26510D01*
X164015D01*
Y26461D01*
X164256D01*
Y26413D01*
X164546D01*
Y26365D01*
X164739D01*
Y26316D01*
X165029D01*
Y26268D01*
X165271D01*
Y26220D01*
X165464D01*
Y26171D01*
X165705D01*
Y26123D01*
X165995D01*
Y26075D01*
X166333D01*
Y26123D01*
X166382D01*
Y26026D01*
X166575D01*
Y26075D01*
X166623D01*
Y26123D01*
X166720D01*
Y26171D01*
X166817D01*
Y26220D01*
X166913D01*
Y26268D01*
X167010D01*
Y26316D01*
X167106D01*
Y26365D01*
X167203D01*
Y26413D01*
X167300D01*
Y26461D01*
X167396D01*
Y26510D01*
X167493D01*
Y26558D01*
X167541D01*
Y26606D01*
X167638D01*
Y26654D01*
X167734D01*
Y26703D01*
X167831D01*
Y26751D01*
X167928D01*
Y26799D01*
X168024D01*
Y26848D01*
X168121D01*
Y26799D01*
X168073D01*
Y26751D01*
X167976D01*
Y26703D01*
X167879D01*
Y26654D01*
X167831D01*
Y26606D01*
X167734D01*
Y26558D01*
X167638D01*
Y26510D01*
X167541D01*
Y26461D01*
X167493D01*
Y26413D01*
X167348D01*
Y26365D01*
X167251D01*
Y26316D01*
X167155D01*
Y26268D01*
X167106D01*
Y26220D01*
X167010D01*
Y26171D01*
X166913D01*
Y26123D01*
X166817D01*
Y26075D01*
X166768D01*
Y25930D01*
X166720D01*
Y25882D01*
X166768D01*
Y25833D01*
X166720D01*
Y25785D01*
X166768D01*
Y25737D01*
X166720D01*
Y25688D01*
X166768D01*
Y25640D01*
X166720D01*
Y25592D01*
X166768D01*
Y25543D01*
X166720D01*
Y25495D01*
X166768D01*
Y25350D01*
X166720D01*
Y25302D01*
X166768D01*
Y25157D01*
X166720D01*
Y25109D01*
X166768D01*
Y24770D01*
X166623D01*
Y24722D01*
X166575D01*
Y24674D01*
X166527D01*
Y24722D01*
X166478D01*
Y24674D01*
X166430D01*
Y24625D01*
X166285D01*
Y24577D01*
X166140D01*
Y24529D01*
X166092D01*
Y24481D01*
X166044D01*
Y24529D01*
X165995D01*
Y24481D01*
X165850D01*
Y24432D01*
X165802D01*
Y24384D01*
X165754D01*
Y24432D01*
X165705D01*
Y24384D01*
X165657D01*
Y24336D01*
X165512D01*
Y24287D01*
X165367D01*
Y24239D01*
X165319D01*
Y24191D01*
X165271D01*
Y24239D01*
X165222D01*
Y24191D01*
X165174D01*
Y24142D01*
X165126D01*
Y24094D01*
X165077D01*
Y24142D01*
X165029D01*
Y24094D01*
X164884D01*
Y24046D01*
X164836D01*
Y23998D01*
X164788D01*
Y24046D01*
X164739D01*
Y23998D01*
X164643D01*
Y23949D01*
X164546D01*
Y23901D01*
X164498D01*
Y23949D01*
X164449D01*
Y23901D01*
X164401D01*
Y23853D01*
X164353D01*
Y23804D01*
X164304D01*
Y23853D01*
X164256D01*
Y23804D01*
X164208D01*
Y23853D01*
X164160D01*
Y23901D01*
X164111D01*
Y23949D01*
X164063D01*
Y23998D01*
X164015D01*
Y24046D01*
X163966D01*
Y24094D01*
X163918D01*
Y24239D01*
X163870D01*
Y24287D01*
X163821D01*
Y24336D01*
X163773D01*
Y24384D01*
X163725D01*
Y24432D01*
X163676D01*
Y24481D01*
X163628D01*
Y24625D01*
X163531D01*
Y24722D01*
X163483D01*
Y24770D01*
X163435D01*
Y24819D01*
X162034D01*
Y24867D01*
X161986D01*
Y24819D01*
X161841D01*
Y24867D01*
X161792D01*
Y24819D01*
X161744D01*
Y24867D01*
X161696D01*
Y24819D01*
X161647D01*
Y24867D01*
X161599D01*
Y24819D01*
X161551D01*
Y24867D01*
X161503D01*
Y24819D01*
X161454D01*
Y24867D01*
X161406D01*
Y24819D01*
X161358D01*
Y24867D01*
X161309D01*
Y24819D01*
X161213D01*
Y24770D01*
X161164D01*
Y24674D01*
X161116D01*
Y24625D01*
X161068D01*
Y24481D01*
X161019D01*
Y24432D01*
X160971D01*
Y24481D01*
X160923D01*
Y24384D01*
X160874D01*
Y24336D01*
X160826D01*
Y24287D01*
X160778D01*
Y24239D01*
X160730D01*
Y24191D01*
X160681D01*
Y24142D01*
X160633D01*
Y24094D01*
X160585D01*
Y24046D01*
X160536D01*
Y23998D01*
X160488D01*
Y23949D01*
X160440D01*
Y23901D01*
X160391D01*
Y23853D01*
X160343D01*
Y23756D01*
X160295D01*
Y23708D01*
X160247D01*
Y23756D01*
X160198D01*
Y23804D01*
X160150D01*
Y23756D01*
X160101D01*
Y23804D01*
X160053D01*
Y23853D01*
X160005D01*
Y23804D01*
X159957D01*
Y23853D01*
X159908D01*
Y23804D01*
X159860D01*
Y23853D01*
X159715D01*
Y23901D01*
X159667D01*
Y23949D01*
X159618D01*
Y23901D01*
X159570D01*
Y23949D01*
X159522D01*
Y23901D01*
X159474D01*
Y23949D01*
X159329D01*
Y23998D01*
X159184D01*
Y24046D01*
X159135D01*
Y23998D01*
X159087D01*
Y24046D01*
X158942D01*
Y24094D01*
X158797D01*
Y24142D01*
X158749D01*
Y24094D01*
X158701D01*
Y24142D01*
X158507D01*
Y24191D01*
X158411D01*
Y24239D01*
X158362D01*
Y24191D01*
X158314D01*
Y24239D01*
X158266D01*
Y24191D01*
X158217D01*
Y24239D01*
X158072D01*
Y24287D01*
X157928D01*
Y24819D01*
X157879D01*
Y25350D01*
X157831D01*
Y25495D01*
X157783D01*
Y25447D01*
X157638D01*
Y25398D01*
X157589D01*
Y25350D01*
X157541D01*
Y25398D01*
X157493D01*
Y25350D01*
X157445D01*
Y25302D01*
X157396D01*
Y25254D01*
X157348D01*
Y25302D01*
X157300D01*
Y25254D01*
X157155D01*
Y25205D01*
X157106D01*
Y25157D01*
X157058D01*
Y25205D01*
X157010D01*
Y25157D01*
X156865D01*
Y25109D01*
X156816D01*
Y25060D01*
X156768D01*
Y25109D01*
X156720D01*
Y25060D01*
X156672D01*
Y25012D01*
X156527D01*
Y24964D01*
X156478D01*
Y25012D01*
X156430D01*
Y24964D01*
X156382D01*
Y24915D01*
X156237D01*
Y24867D01*
X156188D01*
Y24915D01*
X156140D01*
Y24867D01*
X156092D01*
Y24819D01*
X156044D01*
Y24770D01*
X155995D01*
Y24819D01*
X155947D01*
Y24770D01*
X155802D01*
Y24819D01*
X155754D01*
Y24770D01*
X155705D01*
Y24819D01*
X155657D01*
Y24867D01*
X155609D01*
Y24915D01*
X155560D01*
Y24964D01*
X155415D01*
Y25012D01*
X155271D01*
Y25060D01*
X155174D01*
Y25109D01*
X154981D01*
Y25157D01*
X154884D01*
Y25205D01*
X154836D01*
Y25157D01*
X154787D01*
Y25205D01*
X154642D01*
Y25254D01*
X154498D01*
Y25302D01*
X154401D01*
Y25350D01*
X154353D01*
Y25398D01*
X154304D01*
Y25447D01*
X154159D01*
Y25398D01*
X154111D01*
Y25447D01*
X154015D01*
Y25398D01*
X153918D01*
Y25447D01*
X153870D01*
Y25495D01*
X153821D01*
Y25447D01*
X153773D01*
Y25495D01*
X153676D01*
Y25543D01*
X153580D01*
Y25592D01*
X153531D01*
Y25640D01*
X153435D01*
Y25592D01*
X153386D01*
Y25640D01*
X153290D01*
Y25688D01*
X153242D01*
Y25640D01*
X153193D01*
Y25688D01*
X153097D01*
Y25737D01*
X153000D01*
Y25785D01*
X152952D01*
Y25737D01*
X152903D01*
Y25785D01*
X152807D01*
Y25882D01*
X152662D01*
Y25833D01*
X152613D01*
Y25882D01*
X152517D01*
Y25930D01*
X152420D01*
Y25978D01*
X152372D01*
Y25930D01*
X152324D01*
Y25978D01*
X152275D01*
Y26026D01*
X152130D01*
Y26075D01*
X152082D01*
Y26026D01*
X152034D01*
Y26075D01*
X151937D01*
Y26123D01*
X151841D01*
Y26171D01*
X151696D01*
Y26220D01*
X151551D01*
Y26268D01*
X151406D01*
Y26316D01*
X151261D01*
Y26365D01*
X151116D01*
Y26413D01*
X150971D01*
Y26461D01*
X150826D01*
Y26510D01*
X150681D01*
Y26558D01*
X150536D01*
Y26606D01*
X150391D01*
Y26654D01*
X150246D01*
Y26703D01*
X150198D01*
Y26751D01*
X150150D01*
Y26703D01*
X150101D01*
Y26751D01*
X149957D01*
Y26799D01*
X149812D01*
Y26848D01*
X149667D01*
Y26896D01*
X149618D01*
Y26944D01*
X149570D01*
Y26896D01*
X149522D01*
Y26944D01*
X149377D01*
Y26993D01*
X149328D01*
Y27041D01*
X149280D01*
Y26993D01*
X149232D01*
Y27041D01*
X149087D01*
Y27089D01*
X149039D01*
Y27138D01*
X148990D01*
Y27186D01*
X148942D01*
Y27234D01*
X148990D01*
Y27283D01*
X148942D01*
Y27331D01*
X148990D01*
Y27379D01*
X148942D01*
Y27428D01*
X148990D01*
Y27476D01*
X148942D01*
Y27524D01*
X148990D01*
Y27572D01*
X148942D01*
Y27621D01*
X148990D01*
Y27669D01*
X148942D01*
Y27717D01*
X148990D01*
Y27766D01*
X148942D01*
Y27814D01*
X148990D01*
Y27862D01*
X148942D01*
Y27911D01*
X148990D01*
Y27959D01*
X148942D01*
Y28007D01*
X148990D01*
Y28056D01*
X148942D01*
Y28104D01*
X148990D01*
Y28152D01*
X148942D01*
Y28200D01*
X148990D01*
Y28249D01*
X148942D01*
Y28297D01*
X148990D01*
Y28345D01*
X148942D01*
Y28394D01*
X148990D01*
Y28442D01*
X148942D01*
Y28490D01*
X148990D01*
Y28539D01*
X148942D01*
Y28587D01*
X148990D01*
Y28635D01*
X148942D01*
Y28684D01*
X148990D01*
Y28732D01*
X148942D01*
Y28780D01*
X148990D01*
Y28828D01*
X148942D01*
Y28877D01*
X148990D01*
Y28925D01*
X148942D01*
Y28973D01*
X148990D01*
Y29022D01*
X148942D01*
Y29070D01*
X148990D01*
Y29118D01*
X148942D01*
Y29167D01*
X148990D01*
Y29215D01*
X149087D01*
Y29263D01*
X149328D01*
Y29312D01*
X149522D01*
Y29360D01*
X149667D01*
Y29408D01*
X149860D01*
Y29456D01*
X150053D01*
Y29505D01*
X150246D01*
Y29553D01*
X150391D01*
Y29601D01*
X150584D01*
Y29650D01*
X150778D01*
Y29698D01*
X150923D01*
Y29746D01*
X151116D01*
Y29795D01*
X151357D01*
Y29843D01*
X151502D01*
Y29891D01*
X151744D01*
Y29940D01*
X151937D01*
Y29988D01*
X152082D01*
Y30036D01*
X152227D01*
Y30084D01*
X152469D01*
Y30133D01*
X152613D01*
Y30181D01*
X152758D01*
Y30229D01*
X152952D01*
Y30278D01*
X153193D01*
Y30326D01*
X153338D01*
Y30374D01*
X153386D01*
Y30519D01*
X153338D01*
Y30761D01*
X153290D01*
Y31051D01*
X153242D01*
Y31244D01*
X153193D01*
Y31486D01*
X153145D01*
Y31775D01*
X153097D01*
Y32017D01*
X153048D01*
Y32258D01*
X153000D01*
Y32500D01*
X152952D01*
Y32742D01*
X152903D01*
Y32983D01*
X152855D01*
Y33273D01*
X152807D01*
Y33466D01*
X152758D01*
Y33563D01*
X152807D01*
Y33659D01*
X152758D01*
Y33804D01*
X152807D01*
Y34046D01*
X152855D01*
Y34336D01*
X152903D01*
Y34577D01*
X152952D01*
Y34771D01*
X153000D01*
Y35060D01*
X153048D01*
Y35302D01*
X153097D01*
Y35495D01*
X153145D01*
Y35737D01*
X153193D01*
Y35785D01*
X153145D01*
Y35833D01*
X153193D01*
Y36027D01*
X153242D01*
Y36268D01*
X153290D01*
Y36510D01*
X153338D01*
Y36800D01*
X153386D01*
Y36944D01*
X153242D01*
Y36993D01*
X153097D01*
Y37041D01*
X152855D01*
Y37089D01*
X152662D01*
Y37138D01*
X152565D01*
Y37186D01*
X152372D01*
Y37234D01*
X152179D01*
Y37283D01*
X151986D01*
Y37331D01*
X151841D01*
Y37379D01*
X151599D01*
Y37428D01*
X151406D01*
Y37476D01*
X151261D01*
Y37524D01*
X151068D01*
Y37573D01*
X150874D01*
Y37621D01*
X150681D01*
Y37669D01*
X150488D01*
Y37717D01*
X150343D01*
Y37766D01*
X150150D01*
Y37814D01*
X149957D01*
Y37862D01*
X149812D01*
Y37911D01*
X149570D01*
Y37959D01*
X149425D01*
Y38007D01*
X149232D01*
Y38056D01*
X149039D01*
Y38104D01*
X148942D01*
Y38152D01*
X148990D01*
Y38201D01*
X148942D01*
Y38249D01*
X148990D01*
Y38297D01*
X148942D01*
Y38346D01*
X148990D01*
Y38394D01*
X148942D01*
Y38442D01*
X148990D01*
Y38490D01*
X148942D01*
Y38539D01*
X148990D01*
Y38587D01*
X148942D01*
Y38635D01*
X148990D01*
Y38684D01*
X148942D01*
Y38732D01*
X148990D01*
Y38780D01*
X148942D01*
Y38829D01*
X148990D01*
Y38877D01*
X148942D01*
Y38925D01*
X148990D01*
Y38974D01*
X148942D01*
Y39022D01*
X148990D01*
Y39070D01*
X148942D01*
Y39118D01*
X148990D01*
Y39167D01*
X148942D01*
Y39215D01*
X148990D01*
Y39263D01*
X148942D01*
Y39312D01*
X148990D01*
Y39360D01*
X148942D01*
Y39408D01*
X148990D01*
Y39457D01*
X148942D01*
Y39505D01*
X148990D01*
Y39553D01*
X148942D01*
Y39601D01*
X148990D01*
Y39650D01*
X148942D01*
Y39698D01*
X148990D01*
Y39746D01*
X148942D01*
Y39795D01*
X148990D01*
Y39843D01*
X148942D01*
Y39891D01*
X148990D01*
Y39940D01*
X148942D01*
Y39988D01*
X148990D01*
Y40036D01*
X148942D01*
Y40085D01*
X148990D01*
Y40133D01*
X148942D01*
Y40181D01*
X149039D01*
Y40229D01*
X149135D01*
Y40278D01*
X149183D01*
Y40229D01*
X149232D01*
Y40278D01*
X149328D01*
Y40326D01*
X149425D01*
Y40374D01*
X149473D01*
Y40326D01*
X149522D01*
Y40374D01*
X149618D01*
Y40423D01*
X149715D01*
Y40471D01*
X149763D01*
Y40423D01*
X149812D01*
Y40471D01*
X149860D01*
Y40519D01*
X150005D01*
Y40568D01*
X150053D01*
Y40519D01*
X150101D01*
Y40568D01*
X150198D01*
Y40616D01*
X150295D01*
Y40664D01*
X150343D01*
Y40616D01*
X150391D01*
Y40664D01*
X150440D01*
Y40713D01*
X150584D01*
Y40761D01*
X150633D01*
Y40713D01*
X150681D01*
Y40761D01*
X150729D01*
Y40809D01*
X150874D01*
Y40858D01*
X151019D01*
Y40906D01*
X151164D01*
Y40954D01*
X151309D01*
Y41003D01*
X151454D01*
Y41051D01*
X151599D01*
Y41099D01*
X151744D01*
Y41147D01*
X151889D01*
Y41196D01*
X152034D01*
Y41244D01*
X152179D01*
Y41292D01*
X152324D01*
Y41341D01*
X152469D01*
Y41389D01*
X152517D01*
Y41437D01*
X152565D01*
Y41389D01*
X152613D01*
Y41437D01*
X152710D01*
Y41389D01*
X152807D01*
Y41437D01*
X152758D01*
Y41486D01*
X152807D01*
Y41534D01*
X152855D01*
Y41486D01*
X152903D01*
Y41534D01*
X153048D01*
Y41582D01*
X153097D01*
Y41631D01*
X153145D01*
Y41582D01*
X153193D01*
Y41631D01*
X153338D01*
Y41679D01*
X153386D01*
Y41727D01*
X153435D01*
Y41631D01*
X153531D01*
Y41776D01*
X153580D01*
Y41727D01*
X153628D01*
Y41776D01*
X153676D01*
Y41824D01*
X153725D01*
Y41776D01*
X153773D01*
Y41824D01*
X153821D01*
Y41872D01*
X153870D01*
Y41824D01*
X153918D01*
Y41872D01*
X153966D01*
Y41920D01*
X154015D01*
Y41824D01*
X154063D01*
Y41872D01*
X154353D01*
Y41969D01*
X154498D01*
Y42017D01*
X154594D01*
Y42065D01*
X154739D01*
Y42114D01*
X154884D01*
Y42162D01*
X154981D01*
Y42259D01*
X155029D01*
Y42210D01*
X155174D01*
Y42259D01*
X155319D01*
Y42307D01*
X155464D01*
Y42355D01*
X155560D01*
Y42452D01*
X155609D01*
Y42500D01*
X155657D01*
Y42452D01*
X155705D01*
Y42500D01*
X155754D01*
Y42452D01*
X155802D01*
Y42500D01*
X155850D01*
Y42548D01*
X155899D01*
Y42500D01*
X155947D01*
Y42452D01*
X155995D01*
Y42500D01*
X156044D01*
Y42452D01*
X156188D01*
Y42404D01*
X156237D01*
Y42355D01*
X156285D01*
Y42404D01*
X156333D01*
Y42355D01*
X156478D01*
Y42307D01*
X156527D01*
Y42259D01*
X156575D01*
Y42307D01*
X156623D01*
Y42259D01*
X156672D01*
Y42210D01*
X156816D01*
Y42162D01*
X156865D01*
Y42210D01*
X156913D01*
Y42162D01*
X156961D01*
Y42114D01*
X157106D01*
Y42065D01*
X157155D01*
Y42114D01*
X157203D01*
Y42065D01*
X157251D01*
Y42017D01*
X157300D01*
Y41969D01*
X157348D01*
Y42017D01*
X157396D01*
Y41969D01*
X157445D01*
Y41920D01*
X157589D01*
Y41872D01*
X157734D01*
Y41824D01*
X157831D01*
Y41969D01*
X157879D01*
Y42500D01*
X157928D01*
Y42983D01*
X157976D01*
Y43031D01*
X158121D01*
Y43080D01*
X158169D01*
Y43031D01*
X158217D01*
Y43080D01*
X158362D01*
Y43128D01*
X158507D01*
Y43176D01*
X158556D01*
Y43128D01*
X158604D01*
Y43176D01*
X158797D01*
Y43225D01*
X158894D01*
Y43273D01*
X158942D01*
Y43225D01*
X158990D01*
Y43273D01*
X159039D01*
Y43225D01*
X159087D01*
Y43273D01*
X159135D01*
Y43321D01*
X159184D01*
Y43273D01*
X159232D01*
Y43321D01*
X159377D01*
Y43370D01*
X159425D01*
Y43321D01*
X159474D01*
Y43370D01*
X159618D01*
Y43418D01*
X159763D01*
Y43466D01*
X159812D01*
Y43418D01*
X159860D01*
Y43466D01*
X160053D01*
Y43515D01*
X160150D01*
Y43563D01*
X160198D01*
Y43515D01*
X160247D01*
Y43563D01*
X160295D01*
Y43515D01*
D02*
G37*
G36*
X155077Y42259D02*
X155029D01*
Y42307D01*
X155077D01*
Y42259D01*
D02*
G37*
G36*
X166575Y41099D02*
X166478D01*
Y41147D01*
X166575D01*
Y41099D01*
D02*
G37*
G36*
X166913Y40906D02*
X166817D01*
Y40954D01*
X166913D01*
Y40906D01*
D02*
G37*
G36*
X169812Y40568D02*
X169667D01*
Y40616D01*
X169812D01*
Y40568D01*
D02*
G37*
G36*
X169667Y40519D02*
X169570D01*
Y40568D01*
X169667D01*
Y40519D01*
D02*
G37*
G36*
X169570Y40471D02*
X169474D01*
Y40519D01*
X169570D01*
Y40471D01*
D02*
G37*
G36*
X169232D02*
X169135D01*
Y40519D01*
X169232D01*
Y40471D01*
D02*
G37*
G36*
X169474Y40423D02*
X169377D01*
Y40471D01*
X169474D01*
Y40423D01*
D02*
G37*
G36*
X169377Y40374D02*
X169280D01*
Y40423D01*
X169377D01*
Y40374D01*
D02*
G37*
G36*
X169280Y40326D02*
X169184D01*
Y40374D01*
X169280D01*
Y40326D01*
D02*
G37*
G36*
X169184Y40278D02*
X169087D01*
Y40326D01*
X169184D01*
Y40278D01*
D02*
G37*
G36*
X169087Y40229D02*
X168991D01*
Y40278D01*
X169087D01*
Y40229D01*
D02*
G37*
G36*
X168991Y40181D02*
X168894D01*
Y40229D01*
X168991D01*
Y40181D01*
D02*
G37*
G36*
X170102Y40229D02*
X170150D01*
Y40133D01*
X170102D01*
Y40181D01*
X170053D01*
Y40278D01*
X170102D01*
Y40229D01*
D02*
G37*
G36*
X168894Y40133D02*
X168797D01*
Y40181D01*
X168894D01*
Y40133D01*
D02*
G37*
G36*
X168797Y40085D02*
X168701D01*
Y40133D01*
X168797D01*
Y40085D01*
D02*
G37*
G36*
X167203Y40761D02*
X167300D01*
Y40713D01*
X167396D01*
Y40664D01*
X167493D01*
Y40616D01*
X167589D01*
Y40568D01*
X167686D01*
Y40519D01*
X167783D01*
Y40471D01*
X167879D01*
Y40423D01*
X167976D01*
Y40374D01*
X168073D01*
Y40326D01*
X168169D01*
Y40278D01*
X168266D01*
Y40229D01*
X168362D01*
Y40181D01*
X168459D01*
Y40133D01*
X168556D01*
Y40085D01*
X168701D01*
Y40036D01*
X168556D01*
Y40085D01*
X168459D01*
Y40133D01*
X168362D01*
Y40181D01*
X168266D01*
Y40229D01*
X168169D01*
Y40278D01*
X168073D01*
Y40326D01*
X167976D01*
Y40374D01*
X167879D01*
Y40423D01*
X167783D01*
Y40471D01*
X167686D01*
Y40519D01*
X167589D01*
Y40568D01*
X167493D01*
Y40616D01*
X167396D01*
Y40664D01*
X167300D01*
Y40713D01*
X167203D01*
Y40761D01*
X167106D01*
Y40809D01*
X167203D01*
Y40761D01*
D02*
G37*
G36*
X170440Y39795D02*
X170488D01*
Y39698D01*
X170440D01*
Y39746D01*
X170391D01*
Y39843D01*
X170440D01*
Y39795D01*
D02*
G37*
G36*
X169860Y40809D02*
X169908D01*
Y40761D01*
X169957D01*
Y40713D01*
X170005D01*
Y40616D01*
X170053D01*
Y40568D01*
X170102D01*
Y40519D01*
X170150D01*
Y40471D01*
X170198D01*
Y40374D01*
X170247D01*
Y40326D01*
X170295D01*
Y40278D01*
X170343D01*
Y40229D01*
X170391D01*
Y40181D01*
X170440D01*
Y40085D01*
X170488D01*
Y40036D01*
X170536D01*
Y39988D01*
X170585D01*
Y39940D01*
X170633D01*
Y39843D01*
X170681D01*
Y39795D01*
X170730D01*
Y39746D01*
X170778D01*
Y39650D01*
X170730D01*
Y39698D01*
X170681D01*
Y39746D01*
X170633D01*
Y39843D01*
X170585D01*
Y39891D01*
X170536D01*
Y39940D01*
X170488D01*
Y39988D01*
X170440D01*
Y40036D01*
X170391D01*
Y40085D01*
X170343D01*
Y40181D01*
X170295D01*
Y40229D01*
X170247D01*
Y40278D01*
X170198D01*
Y40326D01*
X170150D01*
Y40423D01*
X170102D01*
Y40471D01*
X170053D01*
Y40519D01*
X170005D01*
Y40616D01*
X169957D01*
Y40664D01*
X169908D01*
Y40713D01*
X169860D01*
Y40761D01*
X169763D01*
Y40713D01*
X169667D01*
Y40664D01*
X169570D01*
Y40616D01*
X169474D01*
Y40568D01*
X169377D01*
Y40519D01*
X169232D01*
Y40568D01*
X169329D01*
Y40616D01*
X169377D01*
Y40664D01*
X169474D01*
Y40713D01*
X169522D01*
Y40761D01*
X169667D01*
Y40809D01*
X169763D01*
Y40858D01*
X169860D01*
Y40809D01*
D02*
G37*
G36*
X171213Y39263D02*
X171164D01*
Y39312D01*
X171213D01*
Y39263D01*
D02*
G37*
G36*
X170778Y39360D02*
X170826D01*
Y39263D01*
X170778D01*
Y39312D01*
X170730D01*
Y39408D01*
X170778D01*
Y39360D01*
D02*
G37*
G36*
X171309Y39167D02*
X171261D01*
Y39215D01*
X171309D01*
Y39167D01*
D02*
G37*
G36*
X170923D02*
X170971D01*
Y39070D01*
X170923D01*
Y39118D01*
X170875D01*
Y39215D01*
X170923D01*
Y39167D01*
D02*
G37*
G36*
X171261Y38587D02*
X171213D01*
Y38780D01*
X171261D01*
Y38587D01*
D02*
G37*
G36*
X171213Y38539D02*
X171164D01*
Y38587D01*
X171213D01*
Y38539D01*
D02*
G37*
G36*
X171164Y38442D02*
X171116D01*
Y38539D01*
X171164D01*
Y38442D01*
D02*
G37*
G36*
X171116Y38346D02*
X171068D01*
Y38297D01*
X171019D01*
Y38394D01*
X171068D01*
Y38442D01*
X171116D01*
Y38346D01*
D02*
G37*
G36*
X171019Y38201D02*
X170971D01*
Y38297D01*
X171019D01*
Y38201D01*
D02*
G37*
G36*
X170971Y38152D02*
X170923D01*
Y38201D01*
X170971D01*
Y38152D01*
D02*
G37*
G36*
X170923Y38056D02*
X170875D01*
Y38152D01*
X170923D01*
Y38056D01*
D02*
G37*
G36*
X170875Y38007D02*
X170826D01*
Y38056D01*
X170875D01*
Y38007D01*
D02*
G37*
G36*
X170826Y37911D02*
X170778D01*
Y38007D01*
X170826D01*
Y37911D01*
D02*
G37*
G36*
X170778Y37814D02*
X170730D01*
Y37766D01*
X170681D01*
Y37862D01*
X170730D01*
Y37911D01*
X170778D01*
Y37814D01*
D02*
G37*
G36*
X170681Y37669D02*
X170633D01*
Y37766D01*
X170681D01*
Y37669D01*
D02*
G37*
G36*
X166527Y37717D02*
X166575D01*
Y37669D01*
X166478D01*
Y37717D01*
X166430D01*
Y37766D01*
X166527D01*
Y37717D01*
D02*
G37*
G36*
X170633Y37621D02*
X170585D01*
Y37669D01*
X170633D01*
Y37621D01*
D02*
G37*
G36*
X166478D02*
X166382D01*
Y37669D01*
X166478D01*
Y37621D01*
D02*
G37*
G36*
X170585Y37524D02*
X170536D01*
Y37621D01*
X170585D01*
Y37524D01*
D02*
G37*
G36*
X170536Y37428D02*
X170488D01*
Y37379D01*
X170440D01*
Y37476D01*
X170488D01*
Y37524D01*
X170536D01*
Y37428D01*
D02*
G37*
G36*
X166768Y37379D02*
X166720D01*
Y37428D01*
X166768D01*
Y37379D01*
D02*
G37*
G36*
X166720Y37573D02*
X166768D01*
Y37524D01*
X166817D01*
Y37476D01*
X166865D01*
Y37428D01*
X166962D01*
Y37379D01*
X167010D01*
Y37331D01*
X167058D01*
Y37283D01*
X166962D01*
Y37331D01*
X166913D01*
Y37379D01*
X166865D01*
Y37428D01*
X166768D01*
Y37476D01*
X166720D01*
Y37524D01*
X166672D01*
Y37573D01*
X166623D01*
Y37621D01*
X166720D01*
Y37573D01*
D02*
G37*
G36*
X170923Y37234D02*
X170875D01*
Y37283D01*
X170923D01*
Y37234D01*
D02*
G37*
G36*
X166962D02*
X166865D01*
Y37283D01*
X166962D01*
Y37234D01*
D02*
G37*
G36*
X167203Y37186D02*
X167251D01*
Y37138D01*
X167155D01*
Y37186D01*
X167106D01*
Y37234D01*
X167203D01*
Y37186D01*
D02*
G37*
G36*
Y37041D02*
X167251D01*
Y36993D01*
X167155D01*
Y37041D01*
X167106D01*
Y37089D01*
X167203D01*
Y37041D01*
D02*
G37*
G36*
X167445Y36993D02*
X167493D01*
Y36944D01*
X167396D01*
Y36993D01*
X167348D01*
Y37041D01*
X167445D01*
Y36993D01*
D02*
G37*
G36*
X167734Y36606D02*
X167638D01*
Y36655D01*
X167734D01*
Y36606D01*
D02*
G37*
G36*
X158121Y39022D02*
X158169D01*
Y38925D01*
X158314D01*
Y38877D01*
X158556D01*
Y38829D01*
X158749D01*
Y38780D01*
X158894D01*
Y38732D01*
X159087D01*
Y38684D01*
X159184D01*
Y38635D01*
X159329D01*
Y38587D01*
X159474D01*
Y38539D01*
X159522D01*
Y38490D01*
X159618D01*
Y38442D01*
X159667D01*
Y38394D01*
X159715D01*
Y38346D01*
X159763D01*
Y38297D01*
X159812D01*
Y38249D01*
X159860D01*
Y38201D01*
X159908D01*
Y38104D01*
X159957D01*
Y38056D01*
X160005D01*
Y37959D01*
X160053D01*
Y37814D01*
X160101D01*
Y37621D01*
X160150D01*
Y37428D01*
X160198D01*
Y36027D01*
X160247D01*
Y35930D01*
X160101D01*
Y35978D01*
X159957D01*
Y36027D01*
X159860D01*
Y36075D01*
X159715D01*
Y36123D01*
X159570D01*
Y36171D01*
X159425D01*
Y36220D01*
X159329D01*
Y36268D01*
X159184D01*
Y36316D01*
X159087D01*
Y36365D01*
X158942D01*
Y36413D01*
X158797D01*
Y36461D01*
X158701D01*
Y36510D01*
X158556D01*
Y36558D01*
X158411D01*
Y36606D01*
X158314D01*
Y36655D01*
X158169D01*
Y36703D01*
X158072D01*
Y39070D01*
X158121D01*
Y39022D01*
D02*
G37*
G36*
X161309Y35785D02*
X161261D01*
Y35833D01*
X161309D01*
Y35785D01*
D02*
G37*
G36*
X161261Y35737D02*
X161213D01*
Y35785D01*
X161261D01*
Y35737D01*
D02*
G37*
G36*
X161213Y35688D02*
X161164D01*
Y35737D01*
X161213D01*
Y35688D01*
D02*
G37*
G36*
X161164Y35640D02*
X161116D01*
Y35688D01*
X161164D01*
Y35640D01*
D02*
G37*
G36*
X161116Y35592D02*
X161068D01*
Y35640D01*
X161116D01*
Y35592D01*
D02*
G37*
G36*
X161068Y35544D02*
X161019D01*
Y35592D01*
X161068D01*
Y35544D01*
D02*
G37*
G36*
X161019Y35495D02*
X160971D01*
Y35544D01*
X161019D01*
Y35495D01*
D02*
G37*
G36*
X160971Y35447D02*
X160923D01*
Y35495D01*
X160971D01*
Y35447D01*
D02*
G37*
G36*
X160923Y35399D02*
X160874D01*
Y35447D01*
X160923D01*
Y35399D01*
D02*
G37*
G36*
X171019Y35302D02*
X171068D01*
Y35254D01*
X171116D01*
Y35205D01*
X171213D01*
Y35157D01*
X171309D01*
Y35109D01*
X171406D01*
Y35060D01*
X171503D01*
Y35012D01*
X171599D01*
Y34964D01*
X171503D01*
Y35012D01*
X171406D01*
Y35060D01*
X171309D01*
Y35109D01*
X171213D01*
Y35157D01*
X171116D01*
Y35205D01*
X171019D01*
Y35254D01*
X170971D01*
Y35447D01*
X171019D01*
Y35302D01*
D02*
G37*
G36*
X160874Y35350D02*
X160826D01*
Y35302D01*
X160778D01*
Y35254D01*
X160730D01*
Y35205D01*
X160681D01*
Y35157D01*
X160633D01*
Y35109D01*
X160585D01*
Y35060D01*
X160536D01*
Y35012D01*
X160488D01*
Y34964D01*
X160391D01*
Y35012D01*
X160440D01*
Y35060D01*
X160488D01*
Y35109D01*
X160536D01*
Y35157D01*
X160585D01*
Y35205D01*
X160633D01*
Y35254D01*
X160681D01*
Y35302D01*
X160730D01*
Y35350D01*
X160778D01*
Y35399D01*
X160874D01*
Y35350D01*
D02*
G37*
G36*
X171792Y34867D02*
X171889D01*
Y34819D01*
X171986D01*
Y34771D01*
X172082D01*
Y34722D01*
X171986D01*
Y34771D01*
X171889D01*
Y34819D01*
X171792D01*
Y34867D01*
X171696D01*
Y34916D01*
X171792D01*
Y34867D01*
D02*
G37*
G36*
X172227Y32645D02*
X172179D01*
Y34674D01*
X172227D01*
Y32645D01*
D02*
G37*
G36*
X172179Y32597D02*
X172131D01*
Y32645D01*
X172179D01*
Y32597D01*
D02*
G37*
G36*
X172131Y32548D02*
X172034D01*
Y32597D01*
X172131D01*
Y32548D01*
D02*
G37*
G36*
X172034Y32500D02*
X171937D01*
Y32548D01*
X172034D01*
Y32500D01*
D02*
G37*
G36*
X171937Y32452D02*
X171841D01*
Y32500D01*
X171937D01*
Y32452D01*
D02*
G37*
G36*
X171841Y32403D02*
X171744D01*
Y32452D01*
X171841D01*
Y32403D01*
D02*
G37*
G36*
X171744Y32355D02*
X171648D01*
Y32403D01*
X171744D01*
Y32355D01*
D02*
G37*
G36*
X170875Y39553D02*
X170923D01*
Y39505D01*
X170971D01*
Y39457D01*
X171019D01*
Y39360D01*
X171068D01*
Y39312D01*
X171116D01*
Y39263D01*
X171164D01*
Y39215D01*
X171213D01*
Y39167D01*
X171261D01*
Y39070D01*
X171309D01*
Y39022D01*
X171358D01*
Y38925D01*
X171406D01*
Y38877D01*
X171454D01*
Y38829D01*
X171503D01*
Y38780D01*
X171551D01*
Y38635D01*
X171503D01*
Y38490D01*
X171454D01*
Y38442D01*
X171406D01*
Y38394D01*
X171358D01*
Y38346D01*
X171309D01*
Y38297D01*
X171358D01*
Y38249D01*
X171309D01*
Y38201D01*
X171261D01*
Y38152D01*
X171213D01*
Y38104D01*
X171164D01*
Y37959D01*
X171116D01*
Y37911D01*
X171068D01*
Y37862D01*
X171019D01*
Y37717D01*
X170971D01*
Y37669D01*
X170923D01*
Y37621D01*
X170875D01*
Y37573D01*
X170826D01*
Y37428D01*
X170875D01*
Y37379D01*
X170826D01*
Y37234D01*
X170875D01*
Y37186D01*
X170923D01*
Y36944D01*
X170971D01*
Y36800D01*
X171019D01*
Y36751D01*
X170971D01*
Y36703D01*
X171019D01*
Y36558D01*
X171068D01*
Y36510D01*
X171019D01*
Y36461D01*
X171068D01*
Y36413D01*
X171116D01*
Y36365D01*
X171068D01*
Y36316D01*
X171116D01*
Y36171D01*
X171164D01*
Y36123D01*
X171116D01*
Y36075D01*
X171164D01*
Y36027D01*
X171213D01*
Y35978D01*
X171164D01*
Y35930D01*
X171213D01*
Y35688D01*
X171261D01*
Y35640D01*
X171213D01*
Y35592D01*
X171261D01*
Y35544D01*
X171309D01*
Y35495D01*
X171261D01*
Y35447D01*
X171309D01*
Y35399D01*
X171358D01*
Y35350D01*
X171406D01*
Y35302D01*
X171454D01*
Y35350D01*
X171503D01*
Y35302D01*
X171551D01*
Y35254D01*
X171599D01*
Y35205D01*
X171744D01*
Y35157D01*
X171792D01*
Y35109D01*
X171841D01*
Y35157D01*
X171889D01*
Y35109D01*
X171937D01*
Y35060D01*
X171986D01*
Y35012D01*
X172131D01*
Y34964D01*
X172179D01*
Y34916D01*
X172275D01*
Y34867D01*
X172372D01*
Y34819D01*
X172421D01*
Y32452D01*
X172372D01*
Y32403D01*
X172227D01*
Y32355D01*
X172179D01*
Y32307D01*
X172131D01*
Y32355D01*
X172082D01*
Y32403D01*
X172131D01*
Y32452D01*
X172179D01*
Y32500D01*
X172227D01*
Y32548D01*
X172275D01*
Y32597D01*
X172324D01*
Y32983D01*
X172372D01*
Y34336D01*
X172324D01*
Y34722D01*
X172275D01*
Y34771D01*
X172227D01*
Y34819D01*
X172179D01*
Y34867D01*
X172082D01*
Y34916D01*
X172034D01*
Y34964D01*
X171889D01*
Y35012D01*
X171792D01*
Y35060D01*
X171696D01*
Y35109D01*
X171599D01*
Y35157D01*
X171503D01*
Y35205D01*
X171406D01*
Y35254D01*
X171358D01*
Y35302D01*
X171213D01*
Y35399D01*
X171164D01*
Y35495D01*
X171116D01*
Y35688D01*
X171068D01*
Y35882D01*
X171019D01*
Y36075D01*
X170971D01*
Y36268D01*
X170923D01*
Y36558D01*
X170875D01*
Y36703D01*
X170826D01*
Y36944D01*
X170778D01*
Y37186D01*
X170730D01*
Y37428D01*
X170681D01*
Y37524D01*
X170730D01*
Y37573D01*
X170778D01*
Y37621D01*
X170826D01*
Y37717D01*
X170875D01*
Y37814D01*
X170923D01*
Y37862D01*
X170971D01*
Y37911D01*
X171019D01*
Y38007D01*
X171068D01*
Y38056D01*
X171116D01*
Y38152D01*
X171164D01*
Y38249D01*
X171213D01*
Y38346D01*
X171261D01*
Y38394D01*
X171309D01*
Y38490D01*
X171358D01*
Y38539D01*
X171406D01*
Y38635D01*
X171454D01*
Y38732D01*
X171406D01*
Y38780D01*
X171358D01*
Y38829D01*
X171309D01*
Y38925D01*
X171213D01*
Y39022D01*
X171164D01*
Y39118D01*
X171116D01*
Y39167D01*
X171068D01*
Y39263D01*
X171019D01*
Y39312D01*
X170971D01*
Y39360D01*
X170923D01*
Y39408D01*
X170875D01*
Y39505D01*
X170826D01*
Y39601D01*
X170875D01*
Y39553D01*
D02*
G37*
G36*
X171648Y32307D02*
X171551D01*
Y32355D01*
X171648D01*
Y32307D01*
D02*
G37*
G36*
X171551Y32258D02*
X171454D01*
Y32307D01*
X171551D01*
Y32258D01*
D02*
G37*
G36*
X171454Y32210D02*
X171358D01*
Y32258D01*
X171454D01*
Y32210D01*
D02*
G37*
G36*
X171358Y32162D02*
X171261D01*
Y32210D01*
X171358D01*
Y32162D01*
D02*
G37*
G36*
X172082Y32307D02*
X172034D01*
Y32258D01*
X171986D01*
Y32210D01*
X171841D01*
Y32162D01*
X171792D01*
Y32114D01*
X171744D01*
Y32162D01*
X171696D01*
Y32114D01*
X171648D01*
Y32065D01*
X171599D01*
Y32017D01*
X171454D01*
Y31969D01*
X171406D01*
Y31920D01*
X171309D01*
Y31824D01*
X171261D01*
Y31775D01*
X171309D01*
Y31727D01*
X171261D01*
Y31679D01*
X171213D01*
Y31630D01*
X171261D01*
Y31582D01*
X171213D01*
Y31437D01*
X171164D01*
Y31389D01*
X171213D01*
Y31341D01*
X171164D01*
Y31196D01*
X171116D01*
Y30954D01*
X171068D01*
Y30906D01*
X171116D01*
Y30858D01*
X171068D01*
Y30906D01*
X171019D01*
Y30858D01*
X171068D01*
Y30809D01*
X171019D01*
Y30568D01*
X170971D01*
Y30519D01*
X171019D01*
Y30471D01*
X170971D01*
Y30423D01*
X170923D01*
Y30374D01*
X170971D01*
Y30326D01*
X170923D01*
Y30084D01*
X170875D01*
Y30036D01*
X170826D01*
Y29988D01*
X170875D01*
Y29940D01*
X170826D01*
Y29795D01*
X170875D01*
Y29746D01*
X170923D01*
Y29601D01*
X170971D01*
Y29553D01*
X171019D01*
Y29408D01*
X171068D01*
Y29360D01*
X171116D01*
Y29312D01*
X171164D01*
Y29263D01*
X171213D01*
Y29118D01*
X171261D01*
Y29070D01*
X171309D01*
Y29022D01*
X171358D01*
Y28973D01*
X171406D01*
Y28828D01*
X171454D01*
Y28780D01*
X171503D01*
Y28635D01*
X171551D01*
Y28539D01*
X171503D01*
Y28490D01*
X171454D01*
Y28442D01*
X171406D01*
Y28345D01*
X171358D01*
Y28297D01*
X171309D01*
Y28249D01*
X171261D01*
Y28200D01*
X171309D01*
Y28152D01*
X171261D01*
Y28104D01*
X171164D01*
Y28056D01*
X171116D01*
Y28007D01*
X171068D01*
Y27959D01*
X171019D01*
Y27862D01*
X170971D01*
Y27814D01*
X170923D01*
Y27717D01*
X170875D01*
Y27669D01*
X170826D01*
Y27621D01*
X170778D01*
Y27524D01*
X170826D01*
Y27476D01*
X170778D01*
Y27524D01*
X170730D01*
Y27476D01*
X170778D01*
Y27428D01*
X170730D01*
Y27476D01*
X170681D01*
Y27428D01*
X170633D01*
Y27379D01*
X170585D01*
Y27331D01*
X170536D01*
Y27234D01*
X170488D01*
Y27186D01*
X170440D01*
Y27138D01*
X170391D01*
Y27041D01*
X170295D01*
Y26944D01*
X170247D01*
Y26896D01*
X170198D01*
Y26848D01*
X170150D01*
Y26799D01*
X170102D01*
Y26896D01*
X170150D01*
Y26944D01*
X170198D01*
Y26993D01*
X170247D01*
Y27089D01*
X170295D01*
Y27138D01*
X170343D01*
Y27186D01*
X170391D01*
Y27234D01*
X170440D01*
Y27283D01*
X170488D01*
Y27379D01*
X170536D01*
Y27428D01*
X170585D01*
Y27476D01*
X170633D01*
Y27524D01*
X170681D01*
Y27572D01*
X170730D01*
Y27669D01*
X170778D01*
Y27717D01*
X170826D01*
Y27766D01*
X170875D01*
Y27862D01*
X170923D01*
Y27911D01*
X170971D01*
Y28007D01*
X171019D01*
Y28056D01*
X171068D01*
Y28104D01*
X171116D01*
Y28152D01*
X171164D01*
Y28249D01*
X171213D01*
Y28345D01*
X171261D01*
Y28394D01*
X171309D01*
Y28442D01*
X171358D01*
Y28490D01*
X171406D01*
Y28587D01*
X171454D01*
Y28635D01*
X171406D01*
Y28732D01*
X171358D01*
Y28780D01*
X171309D01*
Y28877D01*
X171261D01*
Y28973D01*
X171213D01*
Y29070D01*
X171164D01*
Y29118D01*
X171116D01*
Y29215D01*
X171068D01*
Y29263D01*
X171019D01*
Y29360D01*
X170971D01*
Y29408D01*
X170923D01*
Y29505D01*
X170875D01*
Y29553D01*
X170826D01*
Y29650D01*
X170778D01*
Y29698D01*
X170730D01*
Y29795D01*
X170681D01*
Y29891D01*
X170730D01*
Y30133D01*
X170778D01*
Y30374D01*
X170826D01*
Y30568D01*
X170875D01*
Y30761D01*
X170923D01*
Y31002D01*
X170971D01*
Y31244D01*
X171019D01*
Y31389D01*
X171068D01*
Y31630D01*
X171116D01*
Y31824D01*
X171164D01*
Y31920D01*
X171213D01*
Y31969D01*
X171261D01*
Y32017D01*
X171406D01*
Y32065D01*
X171454D01*
Y32114D01*
X171551D01*
Y32162D01*
X171648D01*
Y32210D01*
X171744D01*
Y32258D01*
X171841D01*
Y32307D01*
X171986D01*
Y32355D01*
X172082D01*
Y32307D01*
D02*
G37*
G36*
X171261Y32114D02*
X171164D01*
Y32162D01*
X171261D01*
Y32114D01*
D02*
G37*
G36*
X171164Y32065D02*
X171068D01*
Y32114D01*
X171164D01*
Y32065D01*
D02*
G37*
G36*
X171068Y32017D02*
X171019D01*
Y32065D01*
X171068D01*
Y32017D01*
D02*
G37*
G36*
X171019Y31824D02*
X170971D01*
Y32017D01*
X171019D01*
Y31824D01*
D02*
G37*
G36*
X170971Y31679D02*
X170923D01*
Y31824D01*
X170971D01*
Y31679D01*
D02*
G37*
G36*
X170923Y31437D02*
X170875D01*
Y31679D01*
X170923D01*
Y31437D01*
D02*
G37*
G36*
X168652Y31389D02*
X168604D01*
Y31437D01*
X168652D01*
Y31389D01*
D02*
G37*
G36*
X162517Y36848D02*
X162614D01*
Y36800D01*
X162710D01*
Y36751D01*
X162855D01*
Y36703D01*
X162952D01*
Y36655D01*
X163048D01*
Y36606D01*
X163145D01*
Y36558D01*
X163242D01*
Y36510D01*
X163338D01*
Y36461D01*
X163483D01*
Y36413D01*
X163580D01*
Y36365D01*
X163676D01*
Y36316D01*
X163773D01*
Y36268D01*
X163870D01*
Y36220D01*
X163966D01*
Y36171D01*
X164063D01*
Y36123D01*
X164160D01*
Y36075D01*
X164256D01*
Y36027D01*
X164353D01*
Y35978D01*
X164498D01*
Y35930D01*
X164594D01*
Y35882D01*
X164691D01*
Y35833D01*
X164788D01*
Y35785D01*
X165126D01*
Y35737D01*
X165319D01*
Y35785D01*
X165367D01*
Y35737D01*
X166962D01*
Y35592D01*
X167010D01*
Y35495D01*
X167058D01*
Y35399D01*
X167106D01*
Y35302D01*
X167155D01*
Y35157D01*
X167203D01*
Y35060D01*
X167251D01*
Y34964D01*
X167300D01*
Y34867D01*
X167348D01*
Y34722D01*
X167396D01*
Y34626D01*
X167445D01*
Y34529D01*
X167493D01*
Y34432D01*
X167541D01*
Y34288D01*
X167589D01*
Y34191D01*
X167638D01*
Y34094D01*
X167686D01*
Y33998D01*
X167734D01*
Y33853D01*
X167783D01*
Y33804D01*
X167879D01*
Y33853D01*
X167928D01*
Y33998D01*
X167976D01*
Y34094D01*
X168024D01*
Y34191D01*
X168073D01*
Y34336D01*
X168121D01*
Y34432D01*
X168169D01*
Y34529D01*
X168218D01*
Y34626D01*
X168266D01*
Y34771D01*
X168314D01*
Y34867D01*
X168362D01*
Y34964D01*
X168411D01*
Y35060D01*
X168459D01*
Y35157D01*
X168507D01*
Y35302D01*
X168556D01*
Y35399D01*
X168604D01*
Y35495D01*
X168652D01*
Y35592D01*
X168701D01*
Y35737D01*
X168749D01*
Y35785D01*
X168701D01*
Y35833D01*
X168604D01*
Y35882D01*
X168556D01*
Y35930D01*
X168507D01*
Y35978D01*
X168459D01*
Y36027D01*
X168362D01*
Y36075D01*
X168459D01*
Y36027D01*
X168507D01*
Y35978D01*
X168556D01*
Y35930D01*
X168604D01*
Y35882D01*
X168701D01*
Y35930D01*
X168604D01*
Y35978D01*
X168556D01*
Y36027D01*
X168507D01*
Y36075D01*
X168459D01*
Y36123D01*
X168411D01*
Y36171D01*
X168314D01*
Y36220D01*
X168266D01*
Y36268D01*
X168218D01*
Y36220D01*
X168266D01*
Y36171D01*
X168314D01*
Y36123D01*
X168266D01*
Y36171D01*
X168218D01*
Y36220D01*
X168121D01*
Y36268D01*
X168073D01*
Y36316D01*
X168024D01*
Y36365D01*
X167976D01*
Y36413D01*
X167879D01*
Y36461D01*
X167831D01*
Y36510D01*
X167928D01*
Y36461D01*
X167976D01*
Y36413D01*
X168024D01*
Y36365D01*
X168073D01*
Y36316D01*
X168121D01*
Y36365D01*
X168073D01*
Y36413D01*
X168024D01*
Y36461D01*
X167976D01*
Y36510D01*
X167928D01*
Y36558D01*
X167879D01*
Y36606D01*
X167831D01*
Y36655D01*
X167734D01*
Y36703D01*
X167686D01*
Y36751D01*
X167638D01*
Y36800D01*
X167589D01*
Y36848D01*
X167686D01*
Y36800D01*
X167734D01*
Y36751D01*
X167783D01*
Y36703D01*
X167831D01*
Y36655D01*
X167928D01*
Y36606D01*
X167976D01*
Y36558D01*
X168024D01*
Y36510D01*
X168073D01*
Y36461D01*
X168169D01*
Y36413D01*
X168218D01*
Y36365D01*
X168266D01*
Y36316D01*
X168362D01*
Y36268D01*
X168411D01*
Y36220D01*
X168459D01*
Y36171D01*
X168507D01*
Y36123D01*
X168604D01*
Y36075D01*
X168652D01*
Y36027D01*
X168701D01*
Y35978D01*
X168749D01*
Y35930D01*
X168846D01*
Y35882D01*
X168894D01*
Y35833D01*
X168942D01*
Y35785D01*
X168991D01*
Y34336D01*
X169039D01*
Y32983D01*
X168991D01*
Y31486D01*
X168894D01*
Y31437D01*
X168846D01*
Y31389D01*
X168797D01*
Y31341D01*
X168749D01*
Y31292D01*
X168652D01*
Y31244D01*
X168604D01*
Y31196D01*
X168556D01*
Y31147D01*
X168507D01*
Y31099D01*
X168411D01*
Y31051D01*
X168362D01*
Y31002D01*
X168314D01*
Y30954D01*
X168266D01*
Y30906D01*
X168169D01*
Y30858D01*
X168121D01*
Y30809D01*
X168073D01*
Y30761D01*
X168024D01*
Y30713D01*
X167928D01*
Y30664D01*
X167879D01*
Y30616D01*
X167831D01*
Y30568D01*
X167783D01*
Y30519D01*
X167686D01*
Y30568D01*
X167734D01*
Y30616D01*
X167783D01*
Y30664D01*
X167831D01*
Y30713D01*
X167734D01*
Y30761D01*
X167831D01*
Y30713D01*
X167879D01*
Y30761D01*
X167831D01*
Y30809D01*
X167879D01*
Y30761D01*
X167928D01*
Y30809D01*
X167879D01*
Y30858D01*
X167928D01*
Y30809D01*
X167976D01*
Y30858D01*
X167928D01*
Y30906D01*
X167976D01*
Y30954D01*
X168073D01*
Y31002D01*
X168121D01*
Y30954D01*
X168169D01*
Y31002D01*
X168121D01*
Y31051D01*
X168169D01*
Y31099D01*
X168218D01*
Y31147D01*
X168314D01*
Y31099D01*
X168362D01*
Y31147D01*
X168314D01*
Y31196D01*
X168362D01*
Y31147D01*
X168411D01*
Y31196D01*
X168362D01*
Y31244D01*
X168411D01*
Y31196D01*
X168459D01*
Y31244D01*
X168411D01*
Y31292D01*
X168459D01*
Y31244D01*
X168507D01*
Y31292D01*
X168459D01*
Y31341D01*
X168507D01*
Y31389D01*
X168604D01*
Y31341D01*
X168701D01*
Y31437D01*
X168652D01*
Y31486D01*
X168701D01*
Y31534D01*
X168749D01*
Y31582D01*
X168701D01*
Y31679D01*
X168652D01*
Y31824D01*
X168604D01*
Y31920D01*
X168556D01*
Y32017D01*
X168507D01*
Y32114D01*
X168459D01*
Y32210D01*
X168411D01*
Y32355D01*
X168362D01*
Y32452D01*
X168314D01*
Y32548D01*
X168266D01*
Y32645D01*
X168218D01*
Y32790D01*
X168169D01*
Y32886D01*
X168121D01*
Y32983D01*
X168073D01*
Y33080D01*
X168024D01*
Y33225D01*
X167976D01*
Y33321D01*
X167928D01*
Y33418D01*
X167879D01*
Y33466D01*
X167783D01*
Y33418D01*
X167734D01*
Y33321D01*
X167686D01*
Y33225D01*
X167638D01*
Y33128D01*
X167589D01*
Y32983D01*
X167541D01*
Y32886D01*
X167493D01*
Y32790D01*
X167445D01*
Y32645D01*
X167396D01*
Y32548D01*
X167348D01*
Y32452D01*
X167300D01*
Y32355D01*
X167251D01*
Y32210D01*
X167203D01*
Y32114D01*
X167155D01*
Y32017D01*
X167106D01*
Y31920D01*
X167058D01*
Y31775D01*
X167010D01*
Y31679D01*
X166962D01*
Y31582D01*
X166913D01*
Y31534D01*
X164836D01*
Y31486D01*
X164739D01*
Y31437D01*
X164643D01*
Y31389D01*
X164498D01*
Y31341D01*
X164401D01*
Y31292D01*
X164304D01*
Y31244D01*
X164208D01*
Y31196D01*
X164111D01*
Y31147D01*
X164015D01*
Y31099D01*
X163870D01*
Y31051D01*
X163821D01*
Y31002D01*
X163725D01*
Y30954D01*
X163628D01*
Y30906D01*
X163531D01*
Y30858D01*
X163387D01*
Y30809D01*
X163290D01*
Y30761D01*
X163193D01*
Y30713D01*
X163097D01*
Y30664D01*
X163000D01*
Y30616D01*
X162903D01*
Y30568D01*
X162759D01*
Y30616D01*
X162855D01*
Y30664D01*
X162952D01*
Y30713D01*
X163000D01*
Y30761D01*
X163097D01*
Y30809D01*
X163193D01*
Y30858D01*
X163290D01*
Y30906D01*
X163387D01*
Y30954D01*
X163483D01*
Y31002D01*
X163580D01*
Y31051D01*
X163676D01*
Y31099D01*
X163773D01*
Y31147D01*
X163870D01*
Y31196D01*
X163966D01*
Y31244D01*
X164063D01*
Y31292D01*
X164160D01*
Y31341D01*
X164256D01*
Y31389D01*
X164353D01*
Y31437D01*
X164449D01*
Y31486D01*
X164546D01*
Y31534D01*
X164643D01*
Y31630D01*
X164594D01*
Y31775D01*
X164546D01*
Y31920D01*
X164498D01*
Y32065D01*
X164449D01*
Y32210D01*
X164401D01*
Y32403D01*
X164353D01*
Y32548D01*
X164304D01*
Y32693D01*
X164256D01*
Y32838D01*
X164208D01*
Y32983D01*
X164160D01*
Y33176D01*
X164111D01*
Y33321D01*
X164063D01*
Y33466D01*
X164015D01*
Y33611D01*
X163966D01*
Y33659D01*
X164015D01*
Y33853D01*
X164063D01*
Y33998D01*
X164111D01*
Y34143D01*
X164160D01*
Y34288D01*
X164208D01*
Y34432D01*
X164256D01*
Y34529D01*
X164304D01*
Y34577D01*
X164256D01*
Y34626D01*
X164304D01*
Y34771D01*
X164353D01*
Y34916D01*
X164401D01*
Y35060D01*
X164449D01*
Y35205D01*
X164498D01*
Y35399D01*
X164546D01*
Y35544D01*
X164594D01*
Y35688D01*
X164643D01*
Y35737D01*
X164594D01*
Y35785D01*
X164498D01*
Y35833D01*
X164401D01*
Y35882D01*
X164304D01*
Y35930D01*
X164208D01*
Y35978D01*
X164111D01*
Y36027D01*
X164015D01*
Y36075D01*
X163918D01*
Y36123D01*
X163821D01*
Y36171D01*
X163725D01*
Y36220D01*
X163628D01*
Y36268D01*
X163531D01*
Y36316D01*
X163435D01*
Y36365D01*
X163338D01*
Y36413D01*
X163242D01*
Y36461D01*
X163145D01*
Y36510D01*
X163048D01*
Y36558D01*
X162952D01*
Y36606D01*
X162903D01*
Y36655D01*
X162807D01*
Y36703D01*
X162710D01*
Y36751D01*
X162614D01*
Y36800D01*
X162517D01*
Y36848D01*
X162420D01*
Y36896D01*
X162517D01*
Y36848D01*
D02*
G37*
G36*
X170875Y31244D02*
X170826D01*
Y31437D01*
X170875D01*
Y31244D01*
D02*
G37*
G36*
X170826Y31051D02*
X170778D01*
Y31244D01*
X170826D01*
Y31051D01*
D02*
G37*
G36*
X170778Y30858D02*
X170730D01*
Y31051D01*
X170778D01*
Y30858D01*
D02*
G37*
G36*
X170730Y30664D02*
X170681D01*
Y30858D01*
X170730D01*
Y30664D01*
D02*
G37*
G36*
X167734D02*
X167686D01*
Y30713D01*
X167734D01*
Y30664D01*
D02*
G37*
G36*
X167686Y30616D02*
X167638D01*
Y30664D01*
X167686D01*
Y30616D01*
D02*
G37*
G36*
X167638Y30568D02*
X167589D01*
Y30616D01*
X167638D01*
Y30568D01*
D02*
G37*
G36*
X167589Y30519D02*
X167493D01*
Y30568D01*
X167589D01*
Y30519D01*
D02*
G37*
G36*
X162759D02*
X162662D01*
Y30568D01*
X162759D01*
Y30519D01*
D02*
G37*
G36*
X170681Y30471D02*
X170633D01*
Y30664D01*
X170681D01*
Y30471D01*
D02*
G37*
G36*
X167686D02*
X167638D01*
Y30519D01*
X167686D01*
Y30471D01*
D02*
G37*
G36*
X167493D02*
X167445D01*
Y30519D01*
X167493D01*
Y30471D01*
D02*
G37*
G36*
X162662D02*
X162565D01*
Y30519D01*
X162662D01*
Y30471D01*
D02*
G37*
G36*
X167445Y30423D02*
X167396D01*
Y30471D01*
X167445D01*
Y30423D01*
D02*
G37*
G36*
X162565D02*
X162469D01*
Y30471D01*
X162565D01*
Y30423D01*
D02*
G37*
G36*
X167638D02*
X167589D01*
Y30374D01*
X167493D01*
Y30423D01*
X167541D01*
Y30471D01*
X167638D01*
Y30423D01*
D02*
G37*
G36*
X167396Y30374D02*
X167348D01*
Y30423D01*
X167396D01*
Y30374D01*
D02*
G37*
G36*
X162469D02*
X162420D01*
Y30423D01*
X162469D01*
Y30374D01*
D02*
G37*
G36*
X167493Y30326D02*
X167445D01*
Y30374D01*
X167493D01*
Y30326D01*
D02*
G37*
G36*
X167348D02*
X167251D01*
Y30374D01*
X167348D01*
Y30326D01*
D02*
G37*
G36*
X170633Y30278D02*
X170585D01*
Y30471D01*
X170633D01*
Y30278D01*
D02*
G37*
G36*
X167445D02*
X167396D01*
Y30326D01*
X167445D01*
Y30278D01*
D02*
G37*
G36*
X167251D02*
X167203D01*
Y30326D01*
X167251D01*
Y30278D01*
D02*
G37*
G36*
X167396Y30229D02*
X167348D01*
Y30278D01*
X167396D01*
Y30229D01*
D02*
G37*
G36*
X167203D02*
X167155D01*
Y30278D01*
X167203D01*
Y30229D01*
D02*
G37*
G36*
X167348Y30181D02*
X167251D01*
Y30229D01*
X167348D01*
Y30181D01*
D02*
G37*
G36*
X167155D02*
X167106D01*
Y30229D01*
X167155D01*
Y30181D01*
D02*
G37*
G36*
X167251Y30133D02*
X167203D01*
Y30181D01*
X167251D01*
Y30133D01*
D02*
G37*
G36*
X167106D02*
X167010D01*
Y30181D01*
X167106D01*
Y30133D01*
D02*
G37*
G36*
X170585Y30084D02*
X170536D01*
Y30278D01*
X170585D01*
Y30084D01*
D02*
G37*
G36*
X167203D02*
X167155D01*
Y30133D01*
X167203D01*
Y30084D01*
D02*
G37*
G36*
X167010D02*
X166962D01*
Y30133D01*
X167010D01*
Y30084D01*
D02*
G37*
G36*
X167155Y30036D02*
X167106D01*
Y30084D01*
X167155D01*
Y30036D01*
D02*
G37*
G36*
X166962D02*
X166913D01*
Y30084D01*
X166962D01*
Y30036D01*
D02*
G37*
G36*
X167106Y29988D02*
X167010D01*
Y30036D01*
X167106D01*
Y29988D01*
D02*
G37*
G36*
X166913D02*
X166865D01*
Y30036D01*
X166913D01*
Y29988D01*
D02*
G37*
G36*
X167010Y29940D02*
X166962D01*
Y29988D01*
X167010D01*
Y29940D01*
D02*
G37*
G36*
X166865D02*
X166768D01*
Y29988D01*
X166865D01*
Y29940D01*
D02*
G37*
G36*
X170536Y29891D02*
X170488D01*
Y30084D01*
X170536D01*
Y29891D01*
D02*
G37*
G36*
X166962D02*
X166913D01*
Y29940D01*
X166962D01*
Y29891D01*
D02*
G37*
G36*
X166768D02*
X166720D01*
Y29940D01*
X166768D01*
Y29891D01*
D02*
G37*
G36*
X170488Y29843D02*
X170440D01*
Y29891D01*
X170488D01*
Y29843D01*
D02*
G37*
G36*
X166720D02*
X166672D01*
Y29891D01*
X166720D01*
Y29843D01*
D02*
G37*
G36*
X166913D02*
X166865D01*
Y29795D01*
X166768D01*
Y29843D01*
X166817D01*
Y29891D01*
X166913D01*
Y29843D01*
D02*
G37*
G36*
X166672Y29795D02*
X166623D01*
Y29843D01*
X166672D01*
Y29795D01*
D02*
G37*
G36*
X166768Y29746D02*
X166720D01*
Y29795D01*
X166768D01*
Y29746D01*
D02*
G37*
G36*
X166527Y29698D02*
X166478D01*
Y29746D01*
X166527D01*
Y29698D01*
D02*
G37*
G36*
X166478Y29650D02*
X166430D01*
Y29698D01*
X166478D01*
Y29650D01*
D02*
G37*
G36*
X166623Y29746D02*
X166720D01*
Y29698D01*
X166672D01*
Y29650D01*
X166623D01*
Y29601D01*
X166527D01*
Y29650D01*
X166575D01*
Y29698D01*
X166623D01*
Y29746D01*
X166575D01*
Y29795D01*
X166623D01*
Y29746D01*
D02*
G37*
G36*
X166430Y29601D02*
X166382D01*
Y29650D01*
X166430D01*
Y29601D01*
D02*
G37*
G36*
X166527Y29553D02*
X166478D01*
Y29601D01*
X166527D01*
Y29553D01*
D02*
G37*
G36*
X166285Y29505D02*
X166237D01*
Y29553D01*
X166285D01*
Y29505D01*
D02*
G37*
G36*
X166382Y29553D02*
X166478D01*
Y29505D01*
X166430D01*
Y29456D01*
X166333D01*
Y29505D01*
X166382D01*
Y29553D01*
X166285D01*
Y29601D01*
X166382D01*
Y29553D01*
D02*
G37*
G36*
X166237Y29456D02*
X166189D01*
Y29505D01*
X166237D01*
Y29456D01*
D02*
G37*
G36*
X166333Y29408D02*
X166285D01*
Y29456D01*
X166333D01*
Y29408D01*
D02*
G37*
G36*
X170778D02*
X170826D01*
Y29312D01*
X170778D01*
Y29360D01*
X170730D01*
Y29456D01*
X170778D01*
Y29408D01*
D02*
G37*
G36*
X171599Y28635D02*
X171551D01*
Y28684D01*
X171599D01*
Y28635D01*
D02*
G37*
G36*
X171261Y28539D02*
X171213D01*
Y28684D01*
X171261D01*
Y28539D01*
D02*
G37*
G36*
X171213Y28442D02*
X171164D01*
Y28539D01*
X171213D01*
Y28442D01*
D02*
G37*
G36*
X171164Y28394D02*
X171116D01*
Y28442D01*
X171164D01*
Y28394D01*
D02*
G37*
G36*
X171116Y28345D02*
X171068D01*
Y28394D01*
X171116D01*
Y28345D01*
D02*
G37*
G36*
X171068Y28249D02*
X171019D01*
Y28200D01*
X170971D01*
Y28297D01*
X171019D01*
Y28345D01*
X171068D01*
Y28249D01*
D02*
G37*
G36*
X160247Y31292D02*
X160198D01*
Y29891D01*
X160150D01*
Y29650D01*
X160101D01*
Y29456D01*
X160053D01*
Y29360D01*
X160005D01*
Y29263D01*
X159957D01*
Y29215D01*
X159908D01*
Y29118D01*
X159860D01*
Y29070D01*
X159812D01*
Y29022D01*
X159763D01*
Y28925D01*
X159715D01*
Y28877D01*
X159618D01*
Y28828D01*
X159570D01*
Y28780D01*
X159474D01*
Y28732D01*
X159377D01*
Y28684D01*
X159280D01*
Y28635D01*
X159135D01*
Y28587D01*
X158990D01*
Y28539D01*
X158845D01*
Y28490D01*
X158652D01*
Y28442D01*
X158411D01*
Y28394D01*
X158217D01*
Y28345D01*
X158169D01*
Y28297D01*
X158121D01*
Y28200D01*
X158072D01*
Y30616D01*
X158217D01*
Y30664D01*
X158362D01*
Y30713D01*
X158459D01*
Y30761D01*
X158604D01*
Y30809D01*
X158749D01*
Y30858D01*
X158894D01*
Y30906D01*
X158990D01*
Y30954D01*
X159135D01*
Y31002D01*
X159280D01*
Y31051D01*
X159377D01*
Y31099D01*
X159522D01*
Y31147D01*
X159667D01*
Y31196D01*
X159812D01*
Y31244D01*
X159908D01*
Y31292D01*
X160053D01*
Y31341D01*
X160150D01*
Y31389D01*
X160247D01*
Y31292D01*
D02*
G37*
G36*
X170971Y28152D02*
X170923D01*
Y28200D01*
X170971D01*
Y28152D01*
D02*
G37*
G36*
X170923Y28104D02*
X170875D01*
Y28152D01*
X170923D01*
Y28104D01*
D02*
G37*
G36*
X170875Y28007D02*
X170826D01*
Y28104D01*
X170875D01*
Y28007D01*
D02*
G37*
G36*
X170826Y27959D02*
X170778D01*
Y28007D01*
X170826D01*
Y27959D01*
D02*
G37*
G36*
X170778Y27911D02*
X170730D01*
Y27959D01*
X170778D01*
Y27911D01*
D02*
G37*
G36*
X170730Y27814D02*
X170681D01*
Y27766D01*
X170633D01*
Y27862D01*
X170681D01*
Y27911D01*
X170730D01*
Y27814D01*
D02*
G37*
G36*
X170633Y27717D02*
X170585D01*
Y27766D01*
X170633D01*
Y27717D01*
D02*
G37*
G36*
X170585Y27669D02*
X170536D01*
Y27717D01*
X170585D01*
Y27669D01*
D02*
G37*
G36*
X170536Y27572D02*
X170488D01*
Y27669D01*
X170536D01*
Y27572D01*
D02*
G37*
G36*
X170488Y27524D02*
X170440D01*
Y27572D01*
X170488D01*
Y27524D01*
D02*
G37*
G36*
X170440Y27476D02*
X170391D01*
Y27524D01*
X170440D01*
Y27476D01*
D02*
G37*
G36*
X170391Y27379D02*
X170343D01*
Y27331D01*
X170295D01*
Y27428D01*
X170343D01*
Y27476D01*
X170391D01*
Y27379D01*
D02*
G37*
G36*
X170295Y27283D02*
X170247D01*
Y27331D01*
X170295D01*
Y27283D01*
D02*
G37*
G36*
X170247Y27234D02*
X170198D01*
Y27283D01*
X170247D01*
Y27234D01*
D02*
G37*
G36*
X170198Y27138D02*
X170150D01*
Y27234D01*
X170198D01*
Y27138D01*
D02*
G37*
G36*
X168507D02*
X168411D01*
Y27186D01*
X168507D01*
Y27138D01*
D02*
G37*
G36*
X170150Y27089D02*
X170102D01*
Y27138D01*
X170150D01*
Y27089D01*
D02*
G37*
G36*
X168411D02*
X168314D01*
Y27138D01*
X168411D01*
Y27089D01*
D02*
G37*
G36*
X148990D02*
X148942D01*
Y27138D01*
X148990D01*
Y27089D01*
D02*
G37*
G36*
X170102Y27041D02*
X170053D01*
Y27089D01*
X170102D01*
Y27041D01*
D02*
G37*
G36*
X168314D02*
X168218D01*
Y27089D01*
X168314D01*
Y27041D01*
D02*
G37*
G36*
X168507Y26993D02*
X168411D01*
Y27041D01*
X168507D01*
Y26993D01*
D02*
G37*
G36*
X168218D02*
X168121D01*
Y27041D01*
X168218D01*
Y26993D01*
D02*
G37*
G36*
X170053Y26944D02*
X170005D01*
Y27041D01*
X170053D01*
Y26944D01*
D02*
G37*
G36*
X168411D02*
X168314D01*
Y26993D01*
X168411D01*
Y26944D01*
D02*
G37*
G36*
X168121D02*
X168024D01*
Y26993D01*
X168121D01*
Y26944D01*
D02*
G37*
G36*
X170005Y26896D02*
X169957D01*
Y26944D01*
X170005D01*
Y26896D01*
D02*
G37*
G36*
X168314D02*
X168218D01*
Y26944D01*
X168314D01*
Y26896D01*
D02*
G37*
G36*
X168024D02*
X167928D01*
Y26944D01*
X168024D01*
Y26896D01*
D02*
G37*
G36*
X169957Y26848D02*
X169908D01*
Y26896D01*
X169957D01*
Y26848D01*
D02*
G37*
G36*
X168218D02*
X168121D01*
Y26896D01*
X168218D01*
Y26848D01*
D02*
G37*
G36*
X167928D02*
X167831D01*
Y26896D01*
X167928D01*
Y26848D01*
D02*
G37*
G36*
X167831Y26799D02*
X167734D01*
Y26848D01*
X167831D01*
Y26799D01*
D02*
G37*
G36*
X167734Y26751D02*
X167638D01*
Y26799D01*
X167734D01*
Y26751D01*
D02*
G37*
G36*
X169908D02*
X169860D01*
Y26703D01*
X169812D01*
Y26799D01*
X169860D01*
Y26848D01*
X169908D01*
Y26751D01*
D02*
G37*
G36*
X168652Y27234D02*
X168749D01*
Y27186D01*
X168846D01*
Y27138D01*
X168942D01*
Y27089D01*
X169039D01*
Y27041D01*
X169135D01*
Y26993D01*
X169232D01*
Y26944D01*
X169329D01*
Y26896D01*
X169425D01*
Y26848D01*
X169522D01*
Y26799D01*
X169618D01*
Y26751D01*
X169715D01*
Y26703D01*
X169618D01*
Y26751D01*
X169522D01*
Y26799D01*
X169425D01*
Y26848D01*
X169329D01*
Y26896D01*
X169232D01*
Y26944D01*
X169135D01*
Y26993D01*
X169039D01*
Y27041D01*
X168942D01*
Y27089D01*
X168846D01*
Y27138D01*
X168749D01*
Y27186D01*
X168507D01*
Y27234D01*
X168604D01*
Y27283D01*
X168652D01*
Y27234D01*
D02*
G37*
G36*
X167638Y26703D02*
X167541D01*
Y26751D01*
X167638D01*
Y26703D01*
D02*
G37*
G36*
X167541Y26654D02*
X167445D01*
Y26703D01*
X167541D01*
Y26654D01*
D02*
G37*
G36*
X170150Y26606D02*
X170102D01*
Y26654D01*
X170150D01*
Y26606D01*
D02*
G37*
G36*
X167445D02*
X167348D01*
Y26654D01*
X167445D01*
Y26606D01*
D02*
G37*
G36*
X170102Y26558D02*
X170053D01*
Y26606D01*
X170102D01*
Y26558D01*
D02*
G37*
G36*
X167348D02*
X167251D01*
Y26606D01*
X167348D01*
Y26558D01*
D02*
G37*
G36*
X169474Y26510D02*
X169425D01*
Y26558D01*
X169474D01*
Y26510D01*
D02*
G37*
G36*
X167251D02*
X167155D01*
Y26558D01*
X167251D01*
Y26510D01*
D02*
G37*
G36*
X168701Y27041D02*
X168846D01*
Y26993D01*
X168942D01*
Y26944D01*
X169039D01*
Y26896D01*
X169135D01*
Y26848D01*
X169184D01*
Y26799D01*
X169280D01*
Y26751D01*
X169425D01*
Y26703D01*
X169522D01*
Y26654D01*
X169570D01*
Y26606D01*
X169715D01*
Y26558D01*
X169812D01*
Y26510D01*
X169860D01*
Y26558D01*
X169908D01*
Y26654D01*
X169957D01*
Y26703D01*
X170005D01*
Y26751D01*
X170053D01*
Y26799D01*
X170102D01*
Y26703D01*
X170053D01*
Y26654D01*
X170005D01*
Y26606D01*
X169957D01*
Y26510D01*
X169908D01*
Y26461D01*
X169715D01*
Y26510D01*
X169618D01*
Y26461D01*
X169570D01*
Y26558D01*
X169474D01*
Y26606D01*
X169425D01*
Y26654D01*
X169377D01*
Y26703D01*
X169280D01*
Y26751D01*
X169184D01*
Y26799D01*
X169087D01*
Y26848D01*
X168991D01*
Y26896D01*
X168894D01*
Y26944D01*
X168797D01*
Y26993D01*
X168701D01*
Y27041D01*
X168507D01*
Y27089D01*
X168701D01*
Y27041D01*
D02*
G37*
G36*
X167155Y26461D02*
X167058D01*
Y26510D01*
X167155D01*
Y26461D01*
D02*
G37*
G36*
X167058Y26413D02*
X167010D01*
Y26461D01*
X167058D01*
Y26413D01*
D02*
G37*
G36*
X166962Y26365D02*
X166865D01*
Y26413D01*
X166962D01*
Y26365D01*
D02*
G37*
G36*
X166865Y26316D02*
X166817D01*
Y26365D01*
X166865D01*
Y26316D01*
D02*
G37*
G36*
X166575Y26171D02*
X166527D01*
Y26220D01*
X166575D01*
Y26171D01*
D02*
G37*
G36*
X166527Y26123D02*
X166430D01*
Y26171D01*
X166527D01*
Y26123D01*
D02*
G37*
G36*
X167106Y26075D02*
X167058D01*
Y26123D01*
X167106D01*
Y26075D01*
D02*
G37*
G36*
X167058Y26026D02*
X167010D01*
Y26075D01*
X167058D01*
Y26026D01*
D02*
G37*
G36*
X153531Y25543D02*
X153483D01*
Y25592D01*
X153531D01*
Y25543D01*
D02*
G37*
%LPC*%
G36*
X167256Y85341D02*
X167187D01*
Y85272D01*
X167256D01*
Y85341D01*
D02*
G37*
G36*
X168915Y78152D02*
X168846D01*
Y78083D01*
X168915D01*
Y78152D01*
D02*
G37*
G36*
X165735Y58382D02*
X165666D01*
Y58313D01*
X165597D01*
Y58382D01*
X165528D01*
Y58313D01*
X165458D01*
Y58382D01*
X165389D01*
Y58313D01*
X165320D01*
Y58382D01*
X165251D01*
Y58313D01*
X165182D01*
Y58382D01*
X165113D01*
Y58313D01*
X165044D01*
Y58382D01*
X164975D01*
Y58313D01*
X164905D01*
Y58382D01*
X164698D01*
Y58313D01*
X164767D01*
Y58244D01*
X164975D01*
Y58174D01*
X165044D01*
Y58105D01*
X165251D01*
Y58036D01*
X165389D01*
Y57967D01*
X165528D01*
Y57898D01*
X165666D01*
Y57829D01*
X165804D01*
Y57760D01*
X166011D01*
Y57691D01*
X166081D01*
Y57621D01*
X166150D01*
Y57691D01*
X166219D01*
Y57621D01*
X166288D01*
Y57552D01*
X166357D01*
Y57483D01*
X166426D01*
Y57552D01*
X166495D01*
Y57483D01*
X166565D01*
Y57414D01*
X166634D01*
Y57345D01*
X166703D01*
Y57414D01*
X166772D01*
Y57345D01*
X166841D01*
Y57276D01*
X167048D01*
Y57207D01*
X167118D01*
Y57138D01*
X167325D01*
Y57068D01*
X167463D01*
Y56999D01*
X167601D01*
Y56930D01*
X167671D01*
Y57138D01*
X167740D01*
Y57207D01*
X167671D01*
Y57414D01*
X167740D01*
Y57483D01*
X167671D01*
Y57691D01*
X167740D01*
Y57760D01*
X167671D01*
Y57967D01*
X167740D01*
Y58036D01*
X167671D01*
Y58244D01*
X167601D01*
Y58174D01*
X167532D01*
Y58244D01*
X167325D01*
Y58174D01*
X167256D01*
Y58244D01*
X166634D01*
Y58313D01*
X166565D01*
Y58244D01*
X166495D01*
Y58313D01*
X165735D01*
Y58382D01*
D02*
G37*
G36*
X164629D02*
X164560D01*
Y58313D01*
X164629D01*
Y58382D01*
D02*
G37*
G36*
X165416Y38539D02*
X165367D01*
Y38490D01*
X165416D01*
Y38539D01*
D02*
G37*
G36*
X151647Y38394D02*
X151599D01*
Y38346D01*
X151647D01*
Y38394D01*
D02*
G37*
G36*
X152710Y38152D02*
X152613D01*
Y38104D01*
X152710D01*
Y38152D01*
D02*
G37*
G36*
X152952Y38104D02*
X152807D01*
Y38056D01*
X152952D01*
Y38104D01*
D02*
G37*
G36*
X155560Y41292D02*
X155415D01*
Y41244D01*
X155222D01*
Y41196D01*
X155077D01*
Y41147D01*
X154932D01*
Y41099D01*
X154787D01*
Y41051D01*
X154642D01*
Y41003D01*
X154498D01*
Y40954D01*
X154353D01*
Y40906D01*
X154208D01*
Y40858D01*
X154063D01*
Y40809D01*
X153918D01*
Y40761D01*
X153773D01*
Y40713D01*
X153628D01*
Y40664D01*
X153483D01*
Y40616D01*
X153290D01*
Y40568D01*
X153145D01*
Y40519D01*
X153000D01*
Y40471D01*
X152855D01*
Y40423D01*
X152710D01*
Y40374D01*
X152565D01*
Y40326D01*
X152420D01*
Y40278D01*
X152275D01*
Y40229D01*
X152130D01*
Y40181D01*
X151986D01*
Y40133D01*
X151841D01*
Y40085D01*
X151696D01*
Y40036D01*
X151551D01*
Y39988D01*
X151406D01*
Y39940D01*
X151261D01*
Y39891D01*
X151116D01*
Y39843D01*
X150971D01*
Y39795D01*
X150826D01*
Y39746D01*
X150681D01*
Y39698D01*
X150488D01*
Y39650D01*
X150343D01*
Y39601D01*
X150198D01*
Y39553D01*
X150101D01*
Y38780D01*
X150150D01*
Y38732D01*
X150391D01*
Y38684D01*
X150584D01*
Y38635D01*
X150826D01*
Y38587D01*
X151019D01*
Y38539D01*
X151261D01*
Y38490D01*
X151454D01*
Y38442D01*
X151647D01*
Y38394D01*
X151889D01*
Y38346D01*
X152082D01*
Y38297D01*
X152324D01*
Y38249D01*
X152517D01*
Y38201D01*
X152758D01*
Y38152D01*
X152952D01*
Y38104D01*
X153193D01*
Y38056D01*
X153435D01*
Y38007D01*
X153628D01*
Y38056D01*
X153676D01*
Y38152D01*
X153725D01*
Y38249D01*
X153773D01*
Y38297D01*
X153821D01*
Y38394D01*
X153870D01*
Y38490D01*
X153918D01*
Y38539D01*
X153966D01*
Y38635D01*
X154015D01*
Y38732D01*
X154063D01*
Y38780D01*
X154111D01*
Y38877D01*
X154159D01*
Y38974D01*
X154208D01*
Y39070D01*
X154256D01*
Y39118D01*
X154304D01*
Y39215D01*
X154353D01*
Y39312D01*
X154401D01*
Y39360D01*
X154449D01*
Y39457D01*
X154498D01*
Y39553D01*
X154546D01*
Y39601D01*
X154594D01*
Y39698D01*
X154642D01*
Y39795D01*
X154691D01*
Y39843D01*
X154739D01*
Y39940D01*
X154787D01*
Y40036D01*
X154836D01*
Y40085D01*
X154884D01*
Y40181D01*
X154932D01*
Y40278D01*
X154981D01*
Y40326D01*
X155029D01*
Y40423D01*
X155077D01*
Y40519D01*
X155126D01*
Y40568D01*
X155174D01*
Y40664D01*
X155222D01*
Y40761D01*
X155271D01*
Y40809D01*
X155319D01*
Y40906D01*
X155367D01*
Y41003D01*
X155415D01*
Y41051D01*
X155464D01*
Y41147D01*
X155512D01*
Y41244D01*
X155560D01*
Y41292D01*
D02*
G37*
G36*
X153097Y38056D02*
X153048D01*
Y38007D01*
X153097D01*
Y38056D01*
D02*
G37*
G36*
X153242Y38007D02*
X153193D01*
Y37959D01*
X153242D01*
Y38007D01*
D02*
G37*
G36*
X157783Y34819D02*
X157734D01*
Y34771D01*
X157783D01*
Y34819D01*
D02*
G37*
G36*
X153242Y29312D02*
X153145D01*
Y29263D01*
X153242D01*
Y29312D01*
D02*
G37*
G36*
X153628D02*
X153531D01*
Y29263D01*
X153290D01*
Y29215D01*
X153048D01*
Y29263D01*
X152903D01*
Y29215D01*
X153048D01*
Y29167D01*
X152855D01*
Y29215D01*
X152710D01*
Y29167D01*
X152855D01*
Y29118D01*
X152613D01*
Y29070D01*
X152420D01*
Y29022D01*
X152179D01*
Y28973D01*
X151986D01*
Y28925D01*
X151744D01*
Y28877D01*
X151551D01*
Y28828D01*
X151357D01*
Y28780D01*
X151116D01*
Y28732D01*
X150923D01*
Y28684D01*
X150681D01*
Y28635D01*
X150488D01*
Y28587D01*
X150246D01*
Y28539D01*
X150101D01*
Y27766D01*
X150150D01*
Y27717D01*
X150295D01*
Y27669D01*
X150440D01*
Y27621D01*
X150584D01*
Y27572D01*
X150729D01*
Y27524D01*
X150874D01*
Y27476D01*
X151019D01*
Y27428D01*
X151164D01*
Y27379D01*
X151309D01*
Y27331D01*
X151454D01*
Y27283D01*
X151599D01*
Y27234D01*
X151744D01*
Y27186D01*
X151889D01*
Y27138D01*
X152034D01*
Y27089D01*
X152179D01*
Y27041D01*
X152372D01*
Y26993D01*
X152469D01*
Y26944D01*
X152613D01*
Y26896D01*
X152807D01*
Y26848D01*
X152952D01*
Y26799D01*
X153097D01*
Y26751D01*
X153242D01*
Y26703D01*
X153386D01*
Y26654D01*
X153531D01*
Y26606D01*
X153725D01*
Y26558D01*
X153821D01*
Y26510D01*
X153966D01*
Y26461D01*
X154111D01*
Y26413D01*
X154304D01*
Y26365D01*
X154401D01*
Y26316D01*
X154546D01*
Y26268D01*
X154739D01*
Y26220D01*
X154884D01*
Y26171D01*
X155029D01*
Y26123D01*
X155174D01*
Y26075D01*
X155319D01*
Y26026D01*
X155464D01*
Y25978D01*
X155560D01*
Y26075D01*
X155512D01*
Y26123D01*
X155464D01*
Y26220D01*
X155415D01*
Y26316D01*
X155367D01*
Y26365D01*
X155319D01*
Y26461D01*
X155271D01*
Y26558D01*
X155222D01*
Y26654D01*
X155174D01*
Y26703D01*
X155126D01*
Y26799D01*
X155077D01*
Y26896D01*
X155029D01*
Y26944D01*
X154981D01*
Y27041D01*
X154932D01*
Y27138D01*
X154884D01*
Y27186D01*
X154836D01*
Y27283D01*
X154787D01*
Y27379D01*
X154739D01*
Y27428D01*
X154691D01*
Y27524D01*
X154642D01*
Y27621D01*
X154594D01*
Y27669D01*
X154546D01*
Y27766D01*
X154498D01*
Y27862D01*
X154449D01*
Y27911D01*
X154401D01*
Y28007D01*
X154353D01*
Y28104D01*
X154304D01*
Y28152D01*
X154256D01*
Y28249D01*
X154208D01*
Y28345D01*
X154159D01*
Y28394D01*
X154111D01*
Y28490D01*
X154063D01*
Y28587D01*
X154015D01*
Y28684D01*
X153966D01*
Y28732D01*
X153918D01*
Y28828D01*
X153870D01*
Y28877D01*
X153821D01*
Y28973D01*
X153773D01*
Y29070D01*
X153725D01*
Y29167D01*
X153676D01*
Y29215D01*
X153628D01*
Y29312D01*
D02*
G37*
G36*
X159280Y38249D02*
X158797D01*
Y38201D01*
X158652D01*
Y38152D01*
X158556D01*
Y38104D01*
X158507D01*
Y38056D01*
X158459D01*
Y38007D01*
X158411D01*
Y37959D01*
X158362D01*
Y37911D01*
X158314D01*
Y37862D01*
X158266D01*
Y37766D01*
X158217D01*
Y37669D01*
X158169D01*
Y37186D01*
X158217D01*
Y37089D01*
X158266D01*
Y36993D01*
X158314D01*
Y36944D01*
X158362D01*
Y36896D01*
X158411D01*
Y36848D01*
X158459D01*
Y36800D01*
X158507D01*
Y36751D01*
X158604D01*
Y36703D01*
X158701D01*
Y36655D01*
X158845D01*
Y36606D01*
X159280D01*
Y36655D01*
X159377D01*
Y36703D01*
X159474D01*
Y36751D01*
X159570D01*
Y36800D01*
X159618D01*
Y36848D01*
X159667D01*
Y36896D01*
X159715D01*
Y36944D01*
X159763D01*
Y36993D01*
X159812D01*
Y37089D01*
X159860D01*
Y37186D01*
X159908D01*
Y37669D01*
X159860D01*
Y37766D01*
X159812D01*
Y37862D01*
X159763D01*
Y37911D01*
X159715D01*
Y37959D01*
X159667D01*
Y38056D01*
X159570D01*
Y38104D01*
X159522D01*
Y38152D01*
X159425D01*
Y38201D01*
X159280D01*
Y38249D01*
D02*
G37*
G36*
X170875Y29746D02*
X170826D01*
Y29698D01*
X170875D01*
Y29746D01*
D02*
G37*
G36*
X166672Y35640D02*
X164933D01*
Y35592D01*
X164981D01*
Y35447D01*
X165029D01*
Y35302D01*
X165077D01*
Y35205D01*
X165126D01*
Y35109D01*
X165174D01*
Y34964D01*
X165222D01*
Y34819D01*
X165271D01*
Y34771D01*
X166237D01*
Y34867D01*
X166285D01*
Y34916D01*
X166333D01*
Y35012D01*
X166382D01*
Y35109D01*
X166430D01*
Y35205D01*
X166478D01*
Y35302D01*
X166527D01*
Y35350D01*
X166575D01*
Y35447D01*
X166623D01*
Y35544D01*
X166672D01*
Y35640D01*
D02*
G37*
G36*
X168942D02*
X168797D01*
Y35544D01*
X168749D01*
Y35447D01*
X168701D01*
Y35350D01*
X168652D01*
Y35254D01*
X168604D01*
Y35157D01*
X168556D01*
Y35012D01*
X168507D01*
Y34916D01*
X168459D01*
Y34819D01*
X168411D01*
Y34722D01*
X168362D01*
Y34626D01*
X168314D01*
Y34529D01*
X168266D01*
Y34432D01*
X168218D01*
Y34288D01*
X168169D01*
Y34191D01*
X168121D01*
Y34094D01*
X168073D01*
Y33998D01*
X168024D01*
Y33901D01*
X167976D01*
Y33804D01*
X167928D01*
Y33708D01*
X167879D01*
Y33611D01*
X167928D01*
Y33514D01*
X167976D01*
Y33418D01*
X168024D01*
Y33273D01*
X168073D01*
Y33176D01*
X168121D01*
Y33080D01*
X168169D01*
Y32983D01*
X168218D01*
Y32886D01*
X168266D01*
Y32790D01*
X168314D01*
Y32645D01*
X168362D01*
Y32548D01*
X168411D01*
Y32452D01*
X168459D01*
Y32355D01*
X168507D01*
Y32258D01*
X168556D01*
Y32162D01*
X168604D01*
Y32065D01*
X168652D01*
Y31969D01*
X168701D01*
Y31824D01*
X168749D01*
Y31727D01*
X168797D01*
Y31679D01*
X168942D01*
Y35640D01*
D02*
G37*
G36*
X166237Y32548D02*
X165271D01*
Y32452D01*
X165222D01*
Y32355D01*
X165174D01*
Y32210D01*
X165126D01*
Y32065D01*
X165077D01*
Y31969D01*
X165029D01*
Y31824D01*
X164981D01*
Y31679D01*
X165609D01*
Y31630D01*
X165657D01*
Y31679D01*
X165802D01*
Y31630D01*
X166672D01*
Y31775D01*
X166623D01*
Y31872D01*
X166575D01*
Y31920D01*
X166527D01*
Y32017D01*
X166478D01*
Y32114D01*
X166430D01*
Y32210D01*
X166382D01*
Y32258D01*
X166333D01*
Y32355D01*
X166285D01*
Y32452D01*
X166237D01*
Y32548D01*
D02*
G37*
G36*
X168604Y31341D02*
X168556D01*
Y31292D01*
X168604D01*
Y31341D01*
D02*
G37*
G36*
X159087Y30713D02*
X158990D01*
Y30664D01*
X158749D01*
Y30616D01*
X158604D01*
Y30568D01*
X158556D01*
Y30519D01*
X158459D01*
Y30471D01*
X158411D01*
Y30423D01*
X158362D01*
Y30374D01*
X158314D01*
Y30278D01*
X158266D01*
Y30229D01*
X158217D01*
Y30084D01*
X158169D01*
Y29650D01*
X158217D01*
Y29505D01*
X158266D01*
Y29456D01*
X158314D01*
Y29360D01*
X158362D01*
Y29312D01*
X158411D01*
Y29263D01*
X158459D01*
Y29215D01*
X158556D01*
Y29167D01*
X158604D01*
Y29118D01*
X158701D01*
Y29070D01*
X158894D01*
Y29022D01*
X159184D01*
Y29070D01*
X159377D01*
Y29118D01*
X159474D01*
Y29167D01*
X159570D01*
Y29215D01*
X159618D01*
Y29263D01*
X159667D01*
Y29312D01*
X159715D01*
Y29360D01*
X159763D01*
Y29408D01*
X159812D01*
Y29505D01*
X159860D01*
Y29601D01*
X159908D01*
Y30084D01*
X159860D01*
Y30229D01*
X159812D01*
Y30326D01*
X159763D01*
Y30374D01*
X159715D01*
Y30423D01*
X159667D01*
Y30471D01*
X159618D01*
Y30519D01*
X159522D01*
Y30568D01*
X159474D01*
Y30616D01*
X159329D01*
Y30664D01*
X159087D01*
Y30713D01*
D02*
G37*
%LPD*%
D10*
X111000Y7717D02*
G03*
X111000Y7717I-500J0D01*
G01*
X105500Y4717D02*
X143500D01*
X105500Y23617D02*
X143500D01*
Y4717D02*
Y23617D01*
X105500Y4717D02*
Y23617D01*
X31909Y4906D02*
X58091D01*
X31909D02*
Y24000D01*
Y31185D02*
X58091D01*
Y4906D02*
Y24000D01*
X1910Y144598D02*
X39902D01*
X1910Y152472D02*
Y173614D01*
X39902D01*
Y152472D02*
Y173614D01*
X119087Y100902D02*
X140228D01*
X119087Y51098D02*
Y100902D01*
Y51098D02*
X140228D01*
X148102D02*
Y100902D01*
X1909Y99587D02*
X39902D01*
X1909Y107461D02*
Y128602D01*
X39902D01*
Y107461D02*
Y128602D01*
X171260Y268551D02*
Y297449D01*
X112205Y268551D02*
X171260D01*
X112205Y297449D02*
X171260D01*
X112205Y268551D02*
Y297449D01*
X89091Y4717D02*
Y23811D01*
X62909Y30996D02*
X89091D01*
X62909Y4717D02*
Y23811D01*
Y4717D02*
X89091D01*
X67500Y185600D02*
Y265600D01*
X197500Y185600D02*
Y265600D01*
X67500D02*
X197500D01*
X67500Y185600D02*
X197500D01*
X183042Y36000D02*
X179743D01*
Y37650D01*
X180292Y38199D01*
X181392D01*
X181942Y37650D01*
Y36000D01*
X180292Y41498D02*
X179743Y40948D01*
Y39849D01*
X180292Y39299D01*
X180842D01*
X181392Y39849D01*
Y40948D01*
X181942Y41498D01*
X182492D01*
X183042Y40948D01*
Y39849D01*
X182492Y39299D01*
X183042Y43148D02*
Y44247D01*
X182492Y44797D01*
X181392D01*
X180842Y44247D01*
Y43148D01*
X181392Y42598D01*
X182492D01*
X183042Y43148D01*
X180292Y48096D02*
X179743Y47546D01*
Y46447D01*
X180292Y45897D01*
X182492D01*
X183042Y46447D01*
Y47546D01*
X182492Y48096D01*
X183042Y52495D02*
X179743D01*
X180842Y53594D01*
X179743Y54694D01*
X183042D01*
Y56343D02*
Y57443D01*
X182492Y57993D01*
X181392D01*
X180842Y57443D01*
Y56343D01*
X181392Y55794D01*
X182492D01*
X183042Y56343D01*
X180292Y59642D02*
X180842D01*
Y59092D01*
Y60192D01*
Y59642D01*
X182492D01*
X183042Y60192D01*
Y62391D02*
Y63491D01*
X182492Y64041D01*
X181392D01*
X180842Y63491D01*
Y62391D01*
X181392Y61842D01*
X182492D01*
X183042Y62391D01*
X180842Y65140D02*
X183042D01*
X181942D01*
X181392Y65690D01*
X180842Y66240D01*
Y66790D01*
X179743Y71738D02*
X182492D01*
X183042Y72288D01*
Y73388D01*
X182492Y73938D01*
X179743D01*
X183042Y75037D02*
X180842D01*
Y76687D01*
X181392Y77237D01*
X183042D01*
Y78336D02*
Y79436D01*
Y78886D01*
X180842D01*
Y78336D01*
X180292Y81635D02*
X180842D01*
Y81085D01*
Y82185D01*
Y81635D01*
X182492D01*
X183042Y82185D01*
Y87133D02*
X179743D01*
Y88783D01*
X180292Y89333D01*
X181392D01*
X181942Y88783D01*
Y87133D01*
Y88233D02*
X183042Y89333D01*
Y92082D02*
Y90982D01*
X182492Y90432D01*
X181392D01*
X180842Y90982D01*
Y92082D01*
X181392Y92632D01*
X181942D01*
Y90432D01*
X180842Y93731D02*
X183042Y94831D01*
X180842Y95931D01*
X180292Y100329D02*
X179743Y100879D01*
Y101979D01*
X180292Y102528D01*
X180842D01*
X181392Y101979D01*
Y101429D01*
Y101979D01*
X181942Y102528D01*
X182492D01*
X183042Y101979D01*
Y100879D01*
X182492Y100329D01*
X183042Y103628D02*
X182492D01*
Y104178D01*
X183042D01*
Y103628D01*
X180292Y106377D02*
X179743Y106927D01*
Y108027D01*
X180292Y108577D01*
X182492D01*
X183042Y108027D01*
Y106927D01*
X182492Y106377D01*
X180292D01*
X186101Y36000D02*
X189400D01*
Y37650D01*
X188850Y38199D01*
X188301D01*
X187751Y37650D01*
Y36000D01*
Y37650D01*
X187201Y38199D01*
X186651D01*
X186101Y37650D01*
Y36000D01*
X187201Y39299D02*
X188850D01*
X189400Y39849D01*
Y41498D01*
X189950D01*
X190500Y40948D01*
Y40399D01*
X189400Y41498D02*
X187201D01*
Y42598D02*
Y43148D01*
X187751D01*
Y42598D01*
X187201D01*
X188850D02*
Y43148D01*
X189400D01*
Y42598D01*
X188850D01*
X189400Y48646D02*
X187201D01*
X186101Y49746D01*
X187201Y50845D01*
X189400D01*
X187751D01*
Y48646D01*
X187201Y51945D02*
X188850D01*
X189400Y52495D01*
Y54144D01*
X187201D01*
X189400Y55244D02*
Y56893D01*
X188850Y57443D01*
X188301Y56893D01*
Y55794D01*
X187751Y55244D01*
X187201Y55794D01*
Y57443D01*
X186651Y59092D02*
X187201D01*
Y58543D01*
Y59642D01*
Y59092D01*
X188850D01*
X189400Y59642D01*
Y61292D02*
Y62391D01*
Y61842D01*
X187201D01*
Y61292D01*
X189400Y64041D02*
X187201D01*
Y65690D01*
X187751Y66240D01*
X189400D01*
X186101Y70639D02*
X189400D01*
X187751D01*
Y72838D01*
X186101D01*
X189400D01*
Y73938D02*
X188850D01*
Y74488D01*
X189400D01*
Y73938D01*
X186651Y82185D02*
X186101Y81635D01*
Y80536D01*
X186651Y79986D01*
X188850D01*
X189400Y80536D01*
Y81635D01*
X188850Y82185D01*
X186101Y83285D02*
X189400D01*
X187751D01*
X187201Y83834D01*
Y84934D01*
X187751Y85484D01*
X189400D01*
X187201Y87133D02*
Y88233D01*
X187751Y88783D01*
X189400D01*
Y87133D01*
X188850Y86584D01*
X188301Y87133D01*
Y88783D01*
X189400Y89882D02*
X187201D01*
Y91532D01*
X187751Y92082D01*
X189400D01*
X111500Y122999D02*
Y120666D01*
X112666Y119500D01*
X113833Y120666D01*
Y122999D01*
X117331Y122416D02*
X116748Y122999D01*
X115582D01*
X114999Y122416D01*
Y120083D01*
X115582Y119500D01*
X116748D01*
X117331Y120083D01*
X120830Y122416D02*
X120247Y122999D01*
X119081D01*
X118498Y122416D01*
Y120083D01*
X119081Y119500D01*
X120247D01*
X120830Y120083D01*
X124329Y119500D02*
X121997D01*
X124329Y121833D01*
Y122416D01*
X123746Y122999D01*
X122580D01*
X121997Y122416D01*
X4000Y39999D02*
Y37666D01*
X5166Y36500D01*
X6333Y37666D01*
Y39999D01*
X9831Y39416D02*
X9248Y39999D01*
X8082D01*
X7499Y39416D01*
Y37083D01*
X8082Y36500D01*
X9248D01*
X9831Y37083D01*
X13330Y39416D02*
X12747Y39999D01*
X11581D01*
X10998Y39416D01*
Y37083D01*
X11581Y36500D01*
X12747D01*
X13330Y37083D01*
X14497Y36500D02*
X15663D01*
X15080D01*
Y39999D01*
X14497Y39416D01*
X13833Y271416D02*
X13249Y271999D01*
X12083D01*
X11500Y271416D01*
Y269083D01*
X12083Y268500D01*
X13249D01*
X13833Y269083D01*
Y270249D01*
X12666D01*
X14999Y268500D02*
Y270833D01*
X16748D01*
X17332Y270249D01*
Y268500D01*
X20830Y271999D02*
Y268500D01*
X19081D01*
X18498Y269083D01*
Y270249D01*
X19081Y270833D01*
X20830D01*
X24329Y268500D02*
X21997D01*
X24329Y270833D01*
Y271416D01*
X23746Y271999D01*
X22580D01*
X21997Y271416D01*
X193584Y39333D02*
X193001Y38749D01*
Y37583D01*
X193584Y37000D01*
X195917D01*
X196500Y37583D01*
Y38749D01*
X195917Y39333D01*
X194751D01*
Y38166D01*
X196500Y40499D02*
X194167D01*
Y42248D01*
X194751Y42832D01*
X196500D01*
X193001Y46330D02*
X196500D01*
Y44581D01*
X195917Y43998D01*
X194751D01*
X194167Y44581D01*
Y46330D01*
X196500Y47497D02*
Y48663D01*
Y48080D01*
X193001D01*
X193584Y47497D01*
X92416Y62167D02*
X92999Y62751D01*
Y63917D01*
X92416Y64500D01*
X91833D01*
X91249Y63917D01*
Y62751D01*
X90666Y62167D01*
X90083D01*
X89500Y62751D01*
Y63917D01*
X90083Y64500D01*
X92999Y61001D02*
X89500D01*
X90666Y59835D01*
X89500Y58669D01*
X92999D01*
X89500Y57502D02*
Y56336D01*
Y56919D01*
X92999D01*
X92416Y57502D01*
X11416Y258667D02*
X11999Y259251D01*
Y260417D01*
X11416Y261000D01*
X10833D01*
X10249Y260417D01*
Y259251D01*
X9666Y258667D01*
X9083D01*
X8500Y259251D01*
Y260417D01*
X9083Y261000D01*
X10833Y256918D02*
Y255752D01*
X10249Y255169D01*
X8500D01*
Y256918D01*
X9083Y257501D01*
X9666Y256918D01*
Y255169D01*
X11999Y254002D02*
X8500D01*
Y252253D01*
X9083Y251670D01*
X9666D01*
X10249D01*
X10833Y252253D01*
Y254002D01*
X8500Y248754D02*
Y249920D01*
X9083Y250503D01*
X10249D01*
X10833Y249920D01*
Y248754D01*
X10249Y248171D01*
X9666D01*
Y250503D01*
X10833Y247005D02*
X8500D01*
X9666D01*
X10249Y246421D01*
X10833Y245838D01*
Y245255D01*
X190501Y119833D02*
Y117500D01*
X192251D01*
Y118666D01*
Y117500D01*
X194000D01*
Y120999D02*
X191667D01*
X190501Y122165D01*
X191667Y123331D01*
X194000D01*
X192251D01*
Y120999D01*
X190501Y124498D02*
X193417D01*
X194000Y125081D01*
Y126247D01*
X193417Y126830D01*
X190501D01*
Y127997D02*
X194000D01*
Y130329D01*
X190501Y131495D02*
Y133828D01*
Y132662D01*
X194000D01*
X134500Y146999D02*
Y144083D01*
X135083Y143500D01*
X136249D01*
X136833Y144083D01*
Y146999D01*
X140331D02*
X137999D01*
Y145249D01*
X139165Y145833D01*
X139748D01*
X140331Y145249D01*
Y144083D01*
X139748Y143500D01*
X138582D01*
X137999Y144083D01*
X100500Y175999D02*
Y173083D01*
X101083Y172500D01*
X102249D01*
X102833Y173083D01*
Y175999D01*
X105748Y172500D02*
Y175999D01*
X103999Y174249D01*
X106331D01*
X69000Y175499D02*
Y172583D01*
X69583Y172000D01*
X70749D01*
X71333Y172583D01*
Y175499D01*
X72499Y174916D02*
X73082Y175499D01*
X74248D01*
X74831Y174916D01*
Y174333D01*
X74248Y173749D01*
X73665D01*
X74248D01*
X74831Y173166D01*
Y172583D01*
X74248Y172000D01*
X73082D01*
X72499Y172583D01*
X10000Y137499D02*
Y135166D01*
X11166Y134000D01*
X12333Y135166D01*
Y137499D01*
X13499Y134000D02*
Y137499D01*
X15248D01*
X15832Y136916D01*
Y135749D01*
X15248Y135166D01*
X13499D01*
X14665D02*
X15832Y134000D01*
X19330Y137499D02*
X16998D01*
Y134000D01*
X19330D01*
X16998Y135749D02*
X18164D01*
X22829Y137499D02*
X20497D01*
Y135749D01*
X21663D01*
X20497D01*
Y134000D01*
X78163Y136351D02*
Y133435D01*
X78746Y132852D01*
X79912D01*
X80496Y133435D01*
Y136351D01*
X81662Y132852D02*
X82828D01*
X82245D01*
Y136351D01*
X81662Y135767D01*
X192501Y93500D02*
Y95833D01*
Y94666D01*
X196000D01*
X192501Y96999D02*
X196000Y99331D01*
X192501D02*
X196000Y96999D01*
X45001Y150000D02*
Y152333D01*
Y151166D01*
X48500D01*
Y153499D02*
X45001D01*
Y155248D01*
X45584Y155831D01*
X46751D01*
X47334Y155248D01*
Y153499D01*
X48500Y156998D02*
Y158164D01*
Y157581D01*
X45001D01*
X45584Y156998D01*
X176333Y143416D02*
X175749Y143999D01*
X174583D01*
X174000Y143416D01*
Y142833D01*
X174583Y142249D01*
X175749D01*
X176333Y141666D01*
Y141083D01*
X175749Y140500D01*
X174583D01*
X174000Y141083D01*
X177499Y140500D02*
X178665D01*
X178082D01*
Y143999D01*
X177499Y143416D01*
X196500Y68500D02*
X193001D01*
Y70249D01*
X193584Y70833D01*
X194751D01*
X195334Y70249D01*
Y68500D01*
Y69666D02*
X196500Y70833D01*
X193001Y71999D02*
X196500Y74331D01*
X193001D02*
X196500Y71999D01*
X56500Y157500D02*
X53001D01*
Y159249D01*
X53584Y159833D01*
X54751D01*
X55334Y159249D01*
Y157500D01*
Y158666D02*
X56500Y159833D01*
Y163331D02*
Y160999D01*
X54167Y163331D01*
X53584D01*
X53001Y162748D01*
Y161582D01*
X53584Y160999D01*
X53001Y164498D02*
Y166830D01*
X53584D01*
X55917Y164498D01*
X56500D01*
X48500Y133000D02*
Y136499D01*
X50249D01*
X50833Y135916D01*
Y134749D01*
X50249Y134166D01*
X48500D01*
X49666D02*
X50833Y133000D01*
X54331D02*
X51999D01*
X54331Y135333D01*
Y135916D01*
X53748Y136499D01*
X52582D01*
X51999Y135916D01*
X57247Y133000D02*
Y136499D01*
X55498Y134749D01*
X57830D01*
X171500Y208300D02*
Y211799D01*
X173249D01*
X173833Y211216D01*
Y210049D01*
X173249Y209466D01*
X171500D01*
X172666D02*
X173833Y208300D01*
X174999D02*
X176165D01*
X175582D01*
Y211799D01*
X174999Y211216D01*
X177915Y211799D02*
X180247D01*
Y211216D01*
X177915Y208883D01*
Y208300D01*
X158500Y199000D02*
X161999D01*
Y197251D01*
X161416Y196667D01*
X160249D01*
X159666Y197251D01*
Y199000D01*
Y197834D02*
X158500Y196667D01*
X159083Y195501D02*
X158500Y194918D01*
Y193752D01*
X159083Y193169D01*
X161416D01*
X161999Y193752D01*
Y194918D01*
X161416Y195501D01*
X160833D01*
X160249Y194918D01*
Y193169D01*
X123500Y43000D02*
Y46499D01*
X125249D01*
X125833Y45916D01*
Y44749D01*
X125249Y44166D01*
X123500D01*
X124666D02*
X125833Y43000D01*
X126999Y46499D02*
X129331D01*
Y45916D01*
X126999Y43583D01*
Y43000D01*
X108000Y43500D02*
Y46999D01*
X109749D01*
X110333Y46416D01*
Y45249D01*
X109749Y44666D01*
X108000D01*
X109166D02*
X110333Y43500D01*
X113831Y46999D02*
X112665Y46416D01*
X111499Y45249D01*
Y44083D01*
X112082Y43500D01*
X113248D01*
X113831Y44083D01*
Y44666D01*
X113248Y45249D01*
X111499D01*
X158000Y157500D02*
X161499D01*
Y155751D01*
X160916Y155167D01*
X159749D01*
X159166Y155751D01*
Y157500D01*
Y156334D02*
X158000Y155167D01*
X161499Y151669D02*
Y154001D01*
X159749D01*
X160333Y152835D01*
Y152252D01*
X159749Y151669D01*
X158583D01*
X158000Y152252D01*
Y153418D01*
X158583Y154001D01*
X182000Y176500D02*
Y179999D01*
X183749D01*
X184333Y179416D01*
Y178249D01*
X183749Y177666D01*
X182000D01*
X185499Y179999D02*
Y176500D01*
X186665Y177666D01*
X187831Y176500D01*
Y179999D01*
X188998Y176500D02*
Y179999D01*
X190164Y178833D01*
X191330Y179999D01*
Y176500D01*
X163500Y262000D02*
X166999D01*
Y260251D01*
X166416Y259667D01*
X165249D01*
X164666Y260251D01*
Y262000D01*
X166999Y258501D02*
X163500D01*
X164666Y257335D01*
X163500Y256169D01*
X166999D01*
X163500Y255002D02*
X166999D01*
X165833Y253836D01*
X166999Y252670D01*
X163500D01*
Y251503D02*
Y250337D01*
Y250920D01*
X166999D01*
X166416Y251503D01*
X55500Y115000D02*
X52001D01*
Y116749D01*
X52584Y117333D01*
X53751D01*
X54334Y116749D01*
Y115000D01*
X52001Y120248D02*
Y119082D01*
X52584Y118499D01*
X54917D01*
X55500Y119082D01*
Y120248D01*
X54917Y120831D01*
X52584D01*
X52001Y120248D01*
Y121998D02*
Y124330D01*
Y123164D01*
X55500D01*
X29300Y294000D02*
Y297499D01*
X31049D01*
X31633Y296916D01*
Y295749D01*
X31049Y295166D01*
X29300D01*
X35131Y294000D02*
X32799D01*
X35131Y296333D01*
Y296916D01*
X34548Y297499D01*
X33382D01*
X32799Y296916D01*
X102000Y179500D02*
Y182999D01*
X103749D01*
X104333Y182416D01*
Y181249D01*
X103749Y180666D01*
X102000D01*
X105499Y179500D02*
X106665D01*
X106082D01*
Y182999D01*
X105499Y182416D01*
X53000Y43499D02*
Y40000D01*
X55333D01*
X56499Y43499D02*
X57665D01*
X57082D01*
Y40000D01*
X56499D01*
X57665D01*
X59415D02*
Y43499D01*
X60581Y42333D01*
X61747Y43499D01*
Y40000D01*
X68745D02*
X66412D01*
X68745Y42333D01*
Y42916D01*
X68162Y43499D01*
X66996D01*
X66412Y42916D01*
X99499Y22500D02*
X96000D01*
Y20167D01*
X99499Y19001D02*
Y17835D01*
Y18418D01*
X96000D01*
Y19001D01*
Y17835D01*
Y16085D02*
X99499D01*
X98333Y14919D01*
X99499Y13753D01*
X96000D01*
Y9088D02*
Y7921D01*
Y8505D01*
X99499D01*
X98916Y9088D01*
X21868Y83799D02*
X19536D01*
Y80300D01*
X21868D01*
X19536Y82049D02*
X20702D01*
X23034Y80300D02*
Y83799D01*
X24784D01*
X25367Y83216D01*
Y82049D01*
X24784Y81466D01*
X23034D01*
X24201D02*
X25367Y80300D01*
X26533D02*
Y83799D01*
X28283D01*
X28866Y83216D01*
Y82049D01*
X28283Y81466D01*
X26533D01*
X27700D02*
X28866Y80300D01*
X31782Y83799D02*
X30615D01*
X30032Y83216D01*
Y80883D01*
X30615Y80300D01*
X31782D01*
X32365Y80883D01*
Y83216D01*
X31782Y83799D01*
X33531Y80300D02*
Y83799D01*
X35280D01*
X35864Y83216D01*
Y82049D01*
X35280Y81466D01*
X33531D01*
X34697D02*
X35864Y80300D01*
X18957Y71499D02*
Y68000D01*
X20706D01*
X21289Y68583D01*
Y70916D01*
X20706Y71499D01*
X18957D01*
X24788D02*
X22456D01*
Y68000D01*
X24788D01*
X22456Y69749D02*
X23622D01*
X25954Y71499D02*
Y68000D01*
X27704D01*
X28287Y68583D01*
Y69166D01*
X27704Y69749D01*
X25954D01*
X27704D01*
X28287Y70333D01*
Y70916D01*
X27704Y71499D01*
X25954D01*
X29453D02*
Y68583D01*
X30037Y68000D01*
X31203D01*
X31786Y68583D01*
Y71499D01*
X35285Y70916D02*
X34702Y71499D01*
X33535D01*
X32952Y70916D01*
Y68583D01*
X33535Y68000D01*
X34702D01*
X35285Y68583D01*
Y69749D01*
X34119D01*
X42283Y68000D02*
X39950D01*
X42283Y70333D01*
Y70916D01*
X41699Y71499D01*
X40533D01*
X39950Y70916D01*
X19590Y56999D02*
Y53500D01*
X21340D01*
X21923Y54083D01*
Y56416D01*
X21340Y56999D01*
X19590D01*
X25422D02*
X23089D01*
Y53500D01*
X25422D01*
X23089Y55249D02*
X24256D01*
X26588Y56999D02*
Y53500D01*
X28338D01*
X28921Y54083D01*
Y54666D01*
X28338Y55249D01*
X26588D01*
X28338D01*
X28921Y55833D01*
Y56416D01*
X28338Y56999D01*
X26588D01*
X30087D02*
Y54083D01*
X30670Y53500D01*
X31837D01*
X32420Y54083D01*
Y56999D01*
X35919Y56416D02*
X35335Y56999D01*
X34169D01*
X33586Y56416D01*
Y54083D01*
X34169Y53500D01*
X35335D01*
X35919Y54083D01*
Y55249D01*
X34752D01*
X40584Y53500D02*
X41750D01*
X41167D01*
Y56999D01*
X40584Y56416D01*
X171833Y5999D02*
X169500D01*
Y4249D01*
X170666Y4833D01*
X171249D01*
X171833Y4249D01*
Y3083D01*
X171249Y2500D01*
X170083D01*
X169500Y3083D01*
X172999Y5999D02*
Y3666D01*
X174165Y2500D01*
X175331Y3666D01*
Y5999D01*
X169667Y178500D02*
X172000D01*
X169667Y176167D01*
Y175584D01*
X170251Y175001D01*
X171417D01*
X172000Y175584D01*
X166752Y178500D02*
Y175001D01*
X168501Y176751D01*
X166169D01*
X165002Y175001D02*
Y177334D01*
X163836Y178500D01*
X162670Y177334D01*
Y175001D01*
X22502Y44216D02*
X21919Y44799D01*
X20752D01*
X20169Y44216D01*
Y41883D01*
X20752Y41300D01*
X21919D01*
X22502Y41883D01*
X23668Y41300D02*
Y43633D01*
X24835Y44799D01*
X26001Y43633D01*
Y41300D01*
Y43049D01*
X23668D01*
X27167Y41300D02*
Y44799D01*
X29500Y41300D01*
Y44799D01*
X23833Y95499D02*
X22666D01*
X23249D01*
Y92583D01*
X22666Y92000D01*
X22083D01*
X21500Y92583D01*
X24999Y94916D02*
X25582Y95499D01*
X26748D01*
X27332Y94916D01*
Y94333D01*
X26748Y93749D01*
X27332Y93166D01*
Y92583D01*
X26748Y92000D01*
X25582D01*
X24999Y92583D01*
Y93166D01*
X25582Y93749D01*
X24999Y94333D01*
Y94916D01*
X25582Y93749D02*
X26748D01*
X4833Y179999D02*
X3666D01*
X4249D01*
Y177083D01*
X3666Y176500D01*
X3083D01*
X2500Y177083D01*
X8331Y179999D02*
X7165Y179416D01*
X5999Y178249D01*
Y177083D01*
X6582Y176500D01*
X7748D01*
X8331Y177083D01*
Y177666D01*
X7748Y178249D01*
X5999D01*
X106333Y297499D02*
X105166D01*
X105749D01*
Y294583D01*
X105166Y294000D01*
X104583D01*
X104000Y294583D01*
X109831Y297499D02*
X107499D01*
Y295749D01*
X108665Y296333D01*
X109248D01*
X109831Y295749D01*
Y294583D01*
X109248Y294000D01*
X108082D01*
X107499Y294583D01*
X49833Y37188D02*
X48666D01*
X49249D01*
Y34272D01*
X48666Y33689D01*
X48083D01*
X47500Y34272D01*
X52748Y33689D02*
Y37188D01*
X50999Y35438D01*
X53331D01*
X65833Y36810D02*
X64666D01*
X65249D01*
Y33894D01*
X64666Y33311D01*
X64083D01*
X63500Y33894D01*
X66999Y36227D02*
X67582Y36810D01*
X68748D01*
X69331Y36227D01*
Y35644D01*
X68748Y35060D01*
X68165D01*
X68748D01*
X69331Y34477D01*
Y33894D01*
X68748Y33311D01*
X67582D01*
X66999Y33894D01*
X142501Y45333D02*
Y44166D01*
Y44749D01*
X145417D01*
X146000Y44166D01*
Y43583D01*
X145417Y43000D01*
X146000Y48831D02*
Y46499D01*
X143667Y48831D01*
X143084D01*
X142501Y48248D01*
Y47082D01*
X143084Y46499D01*
X108833Y29715D02*
X107666D01*
X108249D01*
Y26800D01*
X107666Y26217D01*
X107083D01*
X106500Y26800D01*
X109999Y26217D02*
X111165D01*
X110582D01*
Y29715D01*
X109999Y29132D01*
X152001Y83333D02*
Y81000D01*
X155500D01*
Y83333D01*
X153751Y81000D02*
Y82166D01*
X155500Y84499D02*
X152001D01*
X155500Y86831D01*
X152001D01*
X152584Y90330D02*
X152001Y89747D01*
Y88581D01*
X152584Y87998D01*
X154917D01*
X155500Y88581D01*
Y89747D01*
X154917Y90330D01*
X152001Y91497D02*
X155500D01*
Y93246D01*
X154917Y93829D01*
X154334D01*
X153751Y93246D01*
Y91497D01*
Y93246D01*
X153167Y93829D01*
X152584D01*
X152001Y93246D01*
Y91497D01*
Y63333D02*
Y61000D01*
X155500D01*
Y63333D01*
X153751Y61000D02*
Y62166D01*
X155500Y64499D02*
X152001D01*
X155500Y66831D01*
X152001D01*
X152584Y70330D02*
X152001Y69747D01*
Y68581D01*
X152584Y67998D01*
X154917D01*
X155500Y68581D01*
Y69747D01*
X154917Y70330D01*
X155500Y71497D02*
X153167D01*
X152001Y72663D01*
X153167Y73829D01*
X155500D01*
X153751D01*
Y71497D01*
X159500Y108999D02*
Y105500D01*
X161249D01*
X161833Y106083D01*
Y108416D01*
X161249Y108999D01*
X159500D01*
X162999D02*
X164165D01*
X163582D01*
Y105500D01*
X162999D01*
X164165D01*
X165915D02*
Y108999D01*
X167664D01*
X168247Y108416D01*
Y107249D01*
X167664Y106666D01*
X165915D01*
X167081D02*
X168247Y105500D01*
X111833Y137416D02*
X111249Y137999D01*
X110083D01*
X109500Y137416D01*
Y135083D01*
X110083Y134500D01*
X111249D01*
X111833Y135083D01*
X112999Y137999D02*
Y134500D01*
X115331D01*
X116498Y137999D02*
Y134500D01*
Y135666D01*
X118830Y137999D01*
X117081Y136249D01*
X118830Y134500D01*
X140333Y137916D02*
X139749Y138499D01*
X138583D01*
X138000Y137916D01*
Y135583D01*
X138583Y135000D01*
X139749D01*
X140333Y135583D01*
X141499Y135000D02*
Y137333D01*
X142665Y138499D01*
X143831Y137333D01*
Y135000D01*
Y136749D01*
X141499D01*
X144998Y135000D02*
Y138499D01*
X147330Y135000D01*
Y138499D01*
X151996D02*
X154328D01*
X153162D01*
Y135000D01*
X155494Y138499D02*
X157827Y135000D01*
Y138499D02*
X155494Y135000D01*
X140333Y129916D02*
X139749Y130499D01*
X138583D01*
X138000Y129916D01*
Y127583D01*
X138583Y127000D01*
X139749D01*
X140333Y127583D01*
X141499Y127000D02*
Y129333D01*
X142665Y130499D01*
X143831Y129333D01*
Y127000D01*
Y128749D01*
X141499D01*
X144998Y127000D02*
Y130499D01*
X147330Y127000D01*
Y130499D01*
X151996Y127000D02*
Y130499D01*
X153745D01*
X154328Y129916D01*
Y128749D01*
X153745Y128166D01*
X151996D01*
X153162D02*
X154328Y127000D01*
X155494Y130499D02*
X157827Y127000D01*
Y130499D02*
X155494Y127000D01*
D11*
X61652Y236114D02*
G03*
X61652Y235323I0J-396D01*
G01*
X61650D02*
G03*
X61650Y236110I0J394D01*
G01*
X196689Y157142D02*
G03*
X196689Y157142I-394J0D01*
G01*
X128803Y36138D02*
X129197D01*
X128803Y40862D02*
X129197D01*
X114303Y36138D02*
X114697D01*
X114303Y40862D02*
X114697D01*
X156362Y193303D02*
Y193697D01*
X151638Y193303D02*
Y193697D01*
X162362Y166303D02*
Y166697D01*
X157638Y166303D02*
Y166697D01*
X52638Y149303D02*
Y149697D01*
X57362Y149303D02*
Y149697D01*
X39803Y137362D02*
X40197D01*
X39803Y132638D02*
X40197D01*
X64657Y149657D02*
X84342D01*
X64657Y156350D02*
Y162650D01*
Y169343D02*
X84342D01*
Y156350D02*
Y162650D01*
X96908Y149657D02*
X116593D01*
X96908Y156350D02*
Y162650D01*
Y169343D02*
X116593D01*
Y156350D02*
Y162650D01*
X129157Y149657D02*
X148843D01*
X129157Y156350D02*
Y162650D01*
Y169343D02*
X148843D01*
Y156350D02*
Y162650D01*
X76075Y42776D02*
Y67224D01*
X97925D01*
Y42776D02*
Y67224D01*
X76075Y42776D02*
X97925D01*
X176142Y122894D02*
X181142D01*
X178642Y125394D02*
X181142Y122894D01*
X176142D02*
X178642Y125394D01*
X176142D02*
X181142D01*
X182539Y124299D02*
Y124701D01*
X187461Y124299D02*
Y124701D01*
X139500Y174000D02*
Y184000D01*
X109500Y174000D02*
X139500D01*
X109500D02*
Y184000D01*
X139500D01*
X82000Y130617D02*
X84506Y128112D01*
X107612Y105006D02*
X110117Y102500D01*
X107612Y99995D02*
X110117Y102500D01*
X82000Y74383D02*
X84506Y76888D01*
X79495D02*
X82000Y74383D01*
X53883Y102500D02*
X56388Y99995D01*
X79495Y128112D02*
X82000Y130617D01*
X53883Y102500D02*
X56388Y105006D01*
X10760Y42332D02*
Y46269D01*
X9579D02*
X10760D01*
X9579Y42332D02*
X10760D01*
X152819Y179461D02*
X155181D01*
X152819Y174539D02*
X155181D01*
X153106Y168142D02*
Y173142D01*
Y170642D02*
X155606Y168142D01*
X153106Y170642D02*
X155606Y173142D01*
Y168142D02*
Y173142D01*
X163740Y13961D02*
X166102D01*
X163740Y9039D02*
X166102D01*
X164027Y2642D02*
Y7642D01*
Y5142D02*
X166527Y2642D01*
X164027Y5142D02*
X166527Y7642D01*
Y2642D02*
Y7642D01*
X9665Y81839D02*
X10067D01*
X9665Y86761D02*
X10067D01*
X10760Y88158D02*
Y93158D01*
X8260D02*
X10760Y90658D01*
X8260Y88158D02*
X10760Y90658D01*
X8260Y88158D02*
Y93158D01*
X9665Y68539D02*
X10067D01*
X9665Y73461D02*
X10067D01*
X10760Y74858D02*
Y79858D01*
X8260D02*
X10760Y77358D01*
X8260Y74858D02*
X10760Y77358D01*
X8260Y74858D02*
Y79858D01*
X9799Y54539D02*
X10201D01*
X9799Y59461D02*
X10201D01*
X10894Y60858D02*
Y65858D01*
X8394D02*
X10894Y63358D01*
X8394Y60858D02*
X10894Y63358D01*
X8394Y60858D02*
Y65858D01*
X29252Y290000D02*
X110748D01*
X29252Y270000D02*
Y290000D01*
Y270000D02*
X110748D01*
Y290000D01*
X177303Y199138D02*
X177697D01*
X177303Y203862D02*
X177697D01*
D12*
X89756Y153004D02*
G03*
X89756Y153004I-492J0D01*
G01*
X122006D02*
G03*
X122006Y153004I-492J0D01*
G01*
X154256D02*
G03*
X154256Y153004I-492J0D01*
G01*
X67827Y62500D02*
G03*
X67827Y62500I-492J0D01*
G01*
D13*
X52391Y93175D02*
G03*
X52391Y93175I-787J0D01*
G01*
D14*
X14484Y179260D02*
X34484D01*
X14484D02*
Y262252D01*
X34484D01*
X54484Y179260D02*
X59937D01*
Y260756D01*
Y262252D01*
X54484D02*
X59937D01*
X50702Y112054D02*
X50503Y112120D01*
X50238Y111988D01*
X50105Y111855D01*
X49973Y111590D01*
X50039Y111259D01*
X50304Y110861D01*
X50636Y110530D01*
X50967Y110331D01*
X51232D01*
X51497Y110464D01*
X51563Y110530D01*
X51696Y110795D01*
Y111060D01*
X51563Y111325D01*
X51497Y111391D01*
X51232Y111524D01*
X50967D01*
X50702Y111391D01*
X50636Y111325D01*
X50503Y111060D01*
Y110795D01*
X50636Y110530D01*
X51537Y113287D02*
X51802Y111696D01*
X52796Y112690D01*
X51537Y113287D02*
X52928Y111895D01*
X71654Y133404D02*
X71920Y131814D01*
X72913Y132808D01*
X71654Y133404D02*
X73046Y132013D01*
X73556Y134378D02*
X73689Y134113D01*
Y133848D01*
X73556Y133583D01*
X73490Y133517D01*
X73225Y133384D01*
X72960D01*
X72695Y133517D01*
X72628Y133583D01*
X72496Y133848D01*
Y134113D01*
X72628Y134378D01*
X72695Y134445D01*
X72960Y134577D01*
X73225D01*
X73556Y134378D01*
X73888Y134047D01*
X74153Y133650D01*
X74219Y133318D01*
X74086Y133053D01*
X73954Y132921D01*
X73689Y132788D01*
X73490Y132854D01*
X90817Y133616D02*
X91082Y132026D01*
X92076Y133020D01*
X90817Y133616D02*
X92209Y132225D01*
X91725Y134524D02*
X91592Y134259D01*
X91659Y134060D01*
X91791Y133928D01*
X91990Y133862D01*
X92189Y133928D01*
X92520Y134127D01*
X92785Y134259D01*
X93050Y134259D01*
X93249Y134193D01*
X93448Y133994D01*
X93514Y133795D01*
Y133663D01*
X93382Y133398D01*
X93116Y133133D01*
X92851Y133000D01*
X92719D01*
X92520Y133066D01*
X92321Y133265D01*
X92255Y133464D01*
X92255Y133729D01*
X92387Y133994D01*
X92586Y134326D01*
X92653Y134524D01*
X92586Y134723D01*
X92454Y134856D01*
X92255Y134922D01*
X91990Y134789D01*
X91725Y134524D01*
X111429Y112085D02*
X112158Y112814D01*
X112291Y111886D01*
X112490Y112085D01*
X112688Y112152D01*
X112821D01*
X113086Y112019D01*
X113219Y111886D01*
X113351Y111621D01*
Y111356D01*
X113219Y111091D01*
X113020Y110892D01*
X112755Y110760D01*
X112622D01*
X112423Y110826D01*
X112669Y113324D02*
X113398Y114053D01*
X113530Y113126D01*
X113729Y113324D01*
X113928Y113391D01*
X114060Y113391D01*
X114325Y113258D01*
X114458Y113126D01*
X114590Y112861D01*
Y112595D01*
X114458Y112330D01*
X114259Y112132D01*
X113994Y111999D01*
X113861D01*
X113663Y112065D01*
X111146Y93135D02*
X111875Y93864D01*
X112008Y92936D01*
X112207Y93135D01*
X112406Y93201D01*
X112538D01*
X112803Y93068D01*
X112936Y92936D01*
X113068Y92671D01*
Y92406D01*
X112936Y92141D01*
X112737Y91942D01*
X112472Y91809D01*
X112339D01*
X112141Y91876D01*
X112651Y93976D02*
X112584Y94043D01*
X112518Y94241D01*
Y94374D01*
X112584Y94573D01*
X112850Y94838D01*
X113048Y94904D01*
X113181D01*
X113380Y94838D01*
X113512Y94705D01*
X113578Y94507D01*
X113645Y94175D01*
Y92850D01*
X114573Y93778D01*
X89712Y70888D02*
X89779Y71086D01*
X89779Y71484D01*
X91170Y70092D01*
X91395Y73101D02*
X92124Y71047D01*
X90468Y72173D02*
X91395Y73101D01*
X71060Y71346D02*
X71127Y71545D01*
X71126Y71942D01*
X72518Y70551D01*
X72810Y73228D02*
X72611Y73294D01*
X72346Y73162D01*
X72213Y73029D01*
X72081Y72764D01*
X72147Y72433D01*
X72412Y72035D01*
X72743Y71704D01*
X73075Y71505D01*
X73340D01*
X73605Y71638D01*
X73671Y71704D01*
X73804Y71969D01*
Y72234D01*
X73671Y72499D01*
X73605Y72565D01*
X73340Y72698D01*
X73075D01*
X72810Y72565D01*
X72743Y72499D01*
X72611Y72234D01*
Y71969D01*
X72743Y71704D01*
D15*
X194606Y157205D02*
Y165079D01*
X174921Y172953D02*
X190669D01*
X170984Y157205D02*
Y165079D01*
X174921Y149331D02*
X190669D01*
M02*
