G04*
G04 #@! TF.GenerationSoftware,Altium Limited,Altium Designer,19.0.15 (446)*
G04*
G04 Layer_Color=255*
%FSLAX25Y25*%
%MOIN*%
G70*
G01*
G75*
G04:AMPARAMS|DCode=22|XSize=61.02mil|YSize=11.81mil|CornerRadius=0mil|HoleSize=0mil|Usage=FLASHONLY|Rotation=135.000|XOffset=0mil|YOffset=0mil|HoleType=Round|Shape=Rectangle|*
%AMROTATEDRECTD22*
4,1,4,0.02575,-0.01740,0.01740,-0.02575,-0.02575,0.01740,-0.01740,0.02575,0.02575,-0.01740,0.0*
%
%ADD22ROTATEDRECTD22*%

G04:AMPARAMS|DCode=23|XSize=61.02mil|YSize=11.81mil|CornerRadius=0mil|HoleSize=0mil|Usage=FLASHONLY|Rotation=45.000|XOffset=0mil|YOffset=0mil|HoleType=Round|Shape=Rectangle|*
%AMROTATEDRECTD23*
4,1,4,-0.01740,-0.02575,-0.02575,-0.01740,0.01740,0.02575,0.02575,0.01740,-0.01740,-0.02575,0.0*
%
%ADD23ROTATEDRECTD23*%

%ADD44R,0.04134X0.05512*%
%ADD45R,0.05512X0.04134*%
%ADD46R,0.05906X0.03543*%
%ADD47R,0.05000X0.02992*%
%ADD48R,0.04724X0.04724*%
%ADD49R,0.04331X0.04724*%
%ADD50R,0.04331X0.04921*%
%ADD51R,0.04724X0.04724*%
%ADD57R,0.04000X0.04000*%
%ADD58C,0.04000*%
%ADD59C,0.06000*%
%ADD60O,0.08900X0.06000*%
%ADD61C,0.10984*%
%ADD62C,0.05898*%
%ADD63C,0.07284*%
%ADD64C,0.05906*%
%ADD65R,0.05906X0.05906*%
%ADD66R,0.12000X0.12000*%
%ADD67C,0.12000*%
%ADD68R,0.06000X0.06000*%
%ADD69C,0.06102*%
%ADD70R,0.06102X0.06102*%
D22*
X55553Y108068D02*
D03*
X56945Y109460D02*
D03*
X58337Y110852D02*
D03*
X59729Y112244D02*
D03*
X61121Y113636D02*
D03*
X62513Y115027D02*
D03*
X63905Y116419D02*
D03*
X65297Y117811D02*
D03*
X66689Y119203D02*
D03*
X68081Y120595D02*
D03*
X69473Y121987D02*
D03*
X70864Y123379D02*
D03*
X72256Y124771D02*
D03*
X73648Y126163D02*
D03*
X75040Y127555D02*
D03*
X76432Y128947D02*
D03*
X108447Y96932D02*
D03*
X107055Y95540D02*
D03*
X105663Y94148D02*
D03*
X104271Y92756D02*
D03*
X102879Y91364D02*
D03*
X101487Y89973D02*
D03*
X100095Y88581D02*
D03*
X98703Y87189D02*
D03*
X97311Y85797D02*
D03*
X95919Y84405D02*
D03*
X94527Y83013D02*
D03*
X93136Y81621D02*
D03*
X91744Y80229D02*
D03*
X90352Y78837D02*
D03*
X88960Y77445D02*
D03*
X87568Y76053D02*
D03*
D23*
Y128947D02*
D03*
X88960Y127555D02*
D03*
X90352Y126163D02*
D03*
X91744Y124771D02*
D03*
X93136Y123379D02*
D03*
X94527Y121987D02*
D03*
X95919Y120595D02*
D03*
X97311Y119203D02*
D03*
X98703Y117811D02*
D03*
X100095Y116419D02*
D03*
X101487Y115027D02*
D03*
X102879Y113636D02*
D03*
X104271Y112244D02*
D03*
X105663Y110852D02*
D03*
X107055Y109460D02*
D03*
X108447Y108068D02*
D03*
X76432Y76053D02*
D03*
X75040Y77445D02*
D03*
X73648Y78837D02*
D03*
X72256Y80229D02*
D03*
X70864Y81621D02*
D03*
X69473Y83013D02*
D03*
X68081Y84405D02*
D03*
X66689Y85797D02*
D03*
X65297Y87189D02*
D03*
X63905Y88581D02*
D03*
X62513Y89973D02*
D03*
X61121Y91364D02*
D03*
X59729Y92756D02*
D03*
X58337Y94148D02*
D03*
X56945Y95540D02*
D03*
X55553Y96932D02*
D03*
D44*
X132740Y38500D02*
D03*
X125260D02*
D03*
X118240D02*
D03*
X110760D02*
D03*
X36260Y135000D02*
D03*
X43740D02*
D03*
X181240Y201500D02*
D03*
X173760D02*
D03*
D45*
X178000Y246260D02*
D03*
Y253740D02*
D03*
X160000Y170240D02*
D03*
Y162760D02*
D03*
X55000Y145760D02*
D03*
Y153240D02*
D03*
D46*
X84146Y153004D02*
D03*
Y165996D02*
D03*
X64854D02*
D03*
Y153004D02*
D03*
X116396D02*
D03*
Y165996D02*
D03*
X97104D02*
D03*
Y153004D02*
D03*
X148646Y153004D02*
D03*
Y165996D02*
D03*
X129354D02*
D03*
Y153004D02*
D03*
D47*
X102000Y62500D02*
D03*
Y57500D02*
D03*
Y52500D02*
D03*
Y47500D02*
D03*
X72000D02*
D03*
Y52500D02*
D03*
Y57500D02*
D03*
Y62500D02*
D03*
D48*
X185000Y128634D02*
D03*
Y120366D02*
D03*
D49*
X6036Y44300D02*
D03*
X14303D02*
D03*
D50*
X132079Y175000D02*
D03*
X141921D02*
D03*
X169842Y11500D02*
D03*
X160000D02*
D03*
D51*
X5732Y84300D02*
D03*
X14000D02*
D03*
X5732Y71000D02*
D03*
X14000D02*
D03*
X5866Y57000D02*
D03*
X14134D02*
D03*
D57*
X114500Y11717D02*
D03*
D58*
Y16717D02*
D03*
X119500Y11717D02*
D03*
Y16717D02*
D03*
X124500Y11717D02*
D03*
Y16717D02*
D03*
X129500Y11717D02*
D03*
Y16717D02*
D03*
X134500Y11717D02*
D03*
Y16717D02*
D03*
D59*
X195000Y53000D02*
D03*
Y79000D02*
D03*
Y89000D02*
D03*
X6000Y268500D02*
D03*
X119000Y128000D02*
D03*
X11500Y27500D02*
D03*
X47000Y145500D02*
D03*
X36500Y23811D02*
D03*
Y12000D02*
D03*
X105000Y137500D02*
D03*
X26811Y165012D02*
D03*
Y153201D02*
D03*
X15000Y165012D02*
D03*
Y153201D02*
D03*
X139500Y64189D02*
D03*
X127689D02*
D03*
X139500Y76000D02*
D03*
X127689D02*
D03*
Y87811D02*
D03*
X139500D02*
D03*
X26811Y120000D02*
D03*
Y108189D02*
D03*
X15000Y120000D02*
D03*
Y108189D02*
D03*
X154500Y55500D02*
D03*
X154000Y99000D02*
D03*
X5500Y135500D02*
D03*
X191100Y291100D02*
D03*
Y8900D02*
D03*
X8900Y291100D02*
D03*
X132500Y136500D02*
D03*
Y128500D02*
D03*
X76000Y12000D02*
D03*
Y23811D02*
D03*
X45500Y126000D02*
D03*
X129300Y257100D02*
D03*
X149000D02*
D03*
X172500Y190600D02*
D03*
X192500Y200600D02*
D03*
Y210600D02*
D03*
Y220600D02*
D03*
Y230600D02*
D03*
Y240600D02*
D03*
Y250600D02*
D03*
Y260600D02*
D03*
X82500D02*
D03*
Y250600D02*
D03*
Y240600D02*
D03*
Y230600D02*
D03*
Y220600D02*
D03*
Y210600D02*
D03*
X100000Y30000D02*
D03*
X55000Y35000D02*
D03*
X177300Y178500D02*
D03*
X162000Y113500D02*
D03*
D60*
X8900Y8900D02*
D03*
D61*
X43500Y235500D02*
D03*
X30980D02*
D03*
X43500Y206012D02*
D03*
X30980D02*
D03*
D62*
X170000Y170000D02*
D03*
X195590D02*
D03*
X170000Y152284D02*
D03*
X195590D02*
D03*
D63*
X150000Y283000D02*
D03*
X124409D02*
D03*
D64*
X178000Y273000D02*
D03*
Y283000D02*
D03*
D65*
Y293000D02*
D03*
D66*
X76500Y196100D02*
D03*
D67*
Y215800D02*
D03*
Y235500D02*
D03*
Y255200D02*
D03*
D68*
X182500Y190600D02*
D03*
X192500D02*
D03*
X82500Y200600D02*
D03*
Y190600D02*
D03*
D69*
X100000Y275000D02*
D03*
X90000D02*
D03*
X80000D02*
D03*
X70000D02*
D03*
X60000D02*
D03*
X50000D02*
D03*
X40000D02*
D03*
X100000Y285000D02*
D03*
X90000D02*
D03*
X80000D02*
D03*
X70000D02*
D03*
X60000D02*
D03*
X50000D02*
D03*
X40000D02*
D03*
X30000D02*
D03*
D70*
Y275000D02*
D03*
M02*
