%FSTAX23Y23*%
%MOIN*%
%SFA1B1*%

%IPPOS*%
%ADD13C,0.015750*%
%ADD14C,0.003940*%
%ADD86C,0.001970*%
%ADD87C,0.005910*%
%ADD88R,0.155510X0.024360*%
%LNmotor_unit_rev_3-1*%
%LPD*%
G54D13*
X00524Y00932D02*
D01*
X00524Y00933*
X00524Y00933*
X00524Y00934*
X00524Y00934*
X00524Y00935*
X00523Y00935*
X00523Y00936*
X00523Y00936*
X00523Y00937*
X00522Y00937*
X00522Y00937*
X00522Y00938*
X00521Y00938*
X00521Y00938*
X0052Y00939*
X0052Y00939*
X00519Y00939*
X00519Y00939*
X00518Y0094*
X00518Y0094*
X00517Y0094*
X00517Y0094*
X00516*
X00515Y0094*
X00515Y0094*
X00514Y0094*
X00514Y00939*
X00513Y00939*
X00513Y00939*
X00512Y00939*
X00512Y00938*
X00511Y00938*
X00511Y00938*
X00511Y00937*
X0051Y00937*
X0051Y00937*
X0051Y00936*
X00509Y00936*
X00509Y00935*
X00509Y00935*
X00509Y00934*
X00509Y00934*
X00508Y00933*
X00508Y00933*
X00508Y00932*
X00508Y00931*
X00508Y00931*
X00509Y0093*
X00509Y0093*
X00509Y00929*
X00509Y00929*
X00509Y00928*
X0051Y00928*
X0051Y00927*
X0051Y00927*
X00511Y00926*
X00511Y00926*
X00511Y00926*
X00512Y00925*
X00512Y00925*
X00513Y00925*
X00513Y00925*
X00514Y00924*
X00514Y00924*
X00515Y00924*
X00515Y00924*
X00516Y00924*
X00517*
X00517Y00924*
X00518Y00924*
X00518Y00924*
X00519Y00924*
X00519Y00925*
X0052Y00925*
X0052Y00925*
X00521Y00925*
X00521Y00926*
X00522Y00926*
X00522Y00926*
X00522Y00927*
X00523Y00927*
X00523Y00928*
X00523Y00928*
X00523Y00929*
X00524Y00929*
X00524Y0093*
X00524Y0093*
X00524Y00931*
X00524Y00931*
X00524Y00932*
G54D14*
X01846Y01633D02*
X01903D01*
X01846Y01546D02*
X01903D01*
X01846D02*
Y01633D01*
X01903Y01546D02*
Y01633D01*
X01333Y00358D02*
Y00411D01*
X01246Y00358D02*
Y00411D01*
Y00358D02*
X01333D01*
X01246Y00411D02*
X01333D01*
X01188Y00358D02*
Y00411D01*
X01101Y00358D02*
Y00411D01*
Y00358D02*
X01188D01*
X01101Y00411D02*
X01188D01*
X01786Y00821D02*
X01873D01*
X01786Y00768D02*
X01873D01*
Y00821*
X01786Y00768D02*
Y00821D01*
Y00916D02*
X01873D01*
X01786Y00863D02*
X01873D01*
Y00916*
X01786Y00863D02*
Y00916D01*
X01241Y02383D02*
X01328D01*
X01241Y02326D02*
X01328D01*
Y02383*
X01241Y02326D02*
Y02383D01*
X01628Y02441D02*
X01681D01*
X01628Y02528D02*
X01681D01*
Y02441D02*
Y02528D01*
X01628Y02441D02*
Y02528D01*
X01598Y00966D02*
Y01053D01*
X01651Y00966D02*
Y01053D01*
X01598D02*
X01651D01*
X01598Y00966D02*
X01651D01*
X0178Y01164D02*
Y01345D01*
X01935Y01164D02*
Y01345D01*
X0178D02*
X01935D01*
X0178Y01164D02*
X01935D01*
X01566Y01891D02*
Y01978D01*
X01513Y01891D02*
Y01978D01*
X01566*
X01513Y01891D02*
X01566D01*
X01573Y01708D02*
X01626D01*
X01573Y01621D02*
X01626D01*
Y01708*
X01573Y01621D02*
Y01708D01*
X00268Y02522D02*
X00331D01*
X00268Y02647D02*
X00331D01*
X00268Y02522D02*
Y02647D01*
X00331Y02522D02*
Y02647D01*
X00523Y01451D02*
X00576D01*
X00523Y01538D02*
X00576D01*
X00523Y01451D02*
Y01538D01*
X00576Y01451D02*
Y01538D01*
X00356Y01323D02*
Y01376D01*
X00443Y01323D02*
Y01376D01*
X00356D02*
X00443D01*
X00356Y01323D02*
X00443D01*
X01456Y00423D02*
Y00476D01*
X01543Y00423D02*
Y00476D01*
X01456Y00423D02*
X01543D01*
X01456Y00476D02*
X01543D01*
X00771Y01266D02*
Y01323D01*
X00858Y01266D02*
Y01323D01*
X00771Y01266D02*
X00858D01*
X00771Y01323D02*
X00858D01*
X00646Y01496D02*
X00843D01*
X00646Y01693D02*
X00843D01*
X00646Y01496D02*
Y01693D01*
X00843Y01496D02*
Y01693D01*
X00969Y01496D02*
X01165D01*
X00969Y01693D02*
X01165D01*
X00969Y01496D02*
Y01693D01*
X01165Y01496D02*
Y01693D01*
X01291Y01496D02*
X01488D01*
X01291Y01693D02*
X01488D01*
X01291Y01496D02*
Y01693D01*
X01488Y01496D02*
Y01693D01*
X00747Y00427D02*
Y00672D01*
Y00427D02*
X00992D01*
X00747Y00672D02*
X00992D01*
Y00427D02*
Y00672D01*
X01428Y01561D02*
Y01648D01*
X01371Y01561D02*
Y01648D01*
Y01561D02*
X01428D01*
X01371Y01648D02*
X01428D01*
X01098Y01561D02*
Y01648D01*
X01041Y01561D02*
Y01648D01*
Y01561D02*
X01098D01*
X01041Y01648D02*
X01098D01*
X00773Y01561D02*
Y01648D01*
X00716Y01561D02*
Y01648D01*
Y01561D02*
X00773D01*
X00716Y01648D02*
X00773D01*
X01558Y02036D02*
Y02122D01*
X01501Y02036D02*
Y02122D01*
Y02036D02*
X01558D01*
X01501Y02122D02*
X01558D01*
X00991Y00071D02*
Y00158D01*
X01048Y00071D02*
Y00158D01*
X00991D02*
X01048D01*
X00991Y00071D02*
X01048D01*
X01451Y00196D02*
Y00283D01*
X01508Y00196D02*
Y00283D01*
X01451D02*
X01508D01*
X01451Y00196D02*
X01508D01*
X01825Y01205D02*
Y01284D01*
X01874Y01205D02*
Y01284D01*
X01825Y01205D02*
X01874D01*
X01825Y01284D02*
X01874D01*
X01825Y01217D02*
X01874D01*
X01825Y01272D02*
X01874D01*
X01343Y00963D02*
Y01016D01*
X01256Y00963D02*
Y01016D01*
X01343*
X01256Y00963D02*
X01343D01*
X00558Y00566D02*
X00611D01*
X00558Y00653D02*
X00611D01*
Y00566D02*
Y00653D01*
X00558Y00566D02*
Y00653D01*
X00393Y00561D02*
X00446D01*
X00393Y00648D02*
X00446D01*
Y00561D02*
Y00648D01*
X00393Y00561D02*
Y00648D01*
X01318Y00246D02*
Y00333D01*
X01371Y00246D02*
Y00333D01*
X01318D02*
X01371D01*
X01318Y00246D02*
X01371D01*
X01854Y01001D02*
X0194D01*
X01854Y00948D02*
X0194D01*
Y01001*
X01854Y00948D02*
Y01001D01*
X00796Y00648D02*
X00883D01*
X00796Y00701D02*
X00883D01*
X00796Y00648D02*
Y00701D01*
X00883Y00648D02*
Y00701D01*
X00796Y00563D02*
X00883D01*
X00796Y00616D02*
X00883D01*
X00796Y00563D02*
Y00616D01*
X00883Y00563D02*
Y00616D01*
X00796Y00483D02*
X00883D01*
X00796Y00536D02*
X00883D01*
X00796Y00483D02*
Y00536D01*
X00883Y00483D02*
Y00536D01*
X00796Y00398D02*
X00883D01*
X00796Y00451D02*
X00883D01*
X00796Y00398D02*
Y00451D01*
X00883Y00398D02*
Y00451D01*
X01606Y00088D02*
X01693D01*
X01606Y00141D02*
X01693D01*
X01606Y00088D02*
Y00141D01*
X01693Y00088D02*
Y00141D01*
X00053Y00469D02*
X0014D01*
X00053Y00416D02*
X0014D01*
Y00469*
X00053Y00416D02*
Y00469D01*
Y00599D02*
X0014D01*
X00053Y00546D02*
X0014D01*
Y00599*
X00053Y00546D02*
Y00599D01*
X00048Y00736D02*
X00135D01*
X00048Y00683D02*
X00135D01*
Y00736*
X00048Y00683D02*
Y00736D01*
Y00864D02*
X00135D01*
X00048Y00811D02*
X00135D01*
Y00864*
X00048Y00811D02*
Y00864D01*
X00858Y01166D02*
Y01223D01*
X00771Y01166D02*
Y01223D01*
X00858*
X00771Y01166D02*
X00858D01*
Y01066D02*
Y01123D01*
X00771Y01066D02*
Y01123D01*
X00858*
X00771Y01066D02*
X00858D01*
Y00966D02*
Y01023D01*
X00771Y00966D02*
Y01023D01*
X00858*
X00771Y00966D02*
X00858D01*
Y00866D02*
Y00923D01*
X00771Y00866D02*
Y00923D01*
X00858*
X00771Y00866D02*
X00858D01*
X0006Y00469D02*
X00143D01*
X0006Y00416D02*
X00143D01*
X0006D02*
Y00469D01*
X00143Y00416D02*
Y00469D01*
X01512Y01745D02*
Y01794D01*
X01567Y01745D02*
Y01794D01*
X015Y01745D02*
Y01794D01*
X01579Y01745D02*
Y01794D01*
X015D02*
X01579D01*
X015Y01745D02*
X01579D01*
X01621Y0009D02*
Y00139D01*
X01676Y0009D02*
Y00139D01*
X01609Y0009D02*
Y00139D01*
X01688Y0009D02*
Y00139D01*
X01609D02*
X01688D01*
X01609Y0009D02*
X01688D01*
X00126Y00818D02*
Y00867D01*
X00071Y00818D02*
Y00867D01*
X00138Y00818D02*
Y00867D01*
X00059Y00818D02*
Y00867D01*
Y00818D02*
X00138D01*
X00059Y00867D02*
X00138D01*
X00126Y00685D02*
Y00734D01*
X00071Y00685D02*
Y00734D01*
X00138Y00685D02*
Y00734D01*
X00059Y00685D02*
Y00734D01*
Y00685D02*
X00138D01*
X00059Y00734D02*
X00138D01*
X00127Y00545D02*
Y00594D01*
X00072Y00545D02*
Y00594D01*
X00139Y00545D02*
Y00594D01*
X0006Y00545D02*
Y00594D01*
Y00545D02*
X00139D01*
X0006Y00594D02*
X00139D01*
X00292Y029D02*
X01107D01*
X00292Y027D02*
Y029D01*
Y027D02*
X01107D01*
Y029*
X01731Y01988D02*
X01818D01*
X01731Y02041D02*
X01818D01*
Y01988D02*
Y02041D01*
X01731Y01988D02*
Y02041D01*
G54D86*
X00693Y00931D02*
X00711Y00912D01*
X00719*
X00726Y0092*
Y00927*
X00707Y00946*
X00737Y00931D02*
X00745Y00938D01*
X00741Y00935*
X00719Y00957*
Y00949*
G54D87*
X00538Y01025D02*
X0082Y00743D01*
X01101Y01025*
X0082Y01306D02*
X01101Y01025D01*
X00538D02*
X0082Y01306D01*
G54D88*
X01858Y01176D03*
M02*