%FSTAX23Y23*%
%MOIN*%
%SFA1B1*%

%IPPOS*%
%ADD54C,0.050000*%
%ADD59C,0.040000*%
%ADD60C,0.060000*%
%ADD61C,0.109840*%
%ADD62C,0.058980*%
%ADD63C,0.072840*%
%ADD66R,0.120000X0.120000*%
%ADD67C,0.120000*%
%ADD68R,0.060000X0.060000*%
%ADD69C,0.061020*%
%ADD71C,0.025000*%
%ADD72C,0.050000*%
%LNmotor_unit_rev_3-1*%
%LPD*%
G36*
X0005Y02989D02*
D01*
X0195*
X01953*
X01961Y02988*
X01968Y02985*
X01975Y0298*
X0198Y02975*
X01985Y02968*
X01988Y02961*
X01989Y02953*
Y0295*
Y01736*
X01984Y01733*
X01978Y01738*
X01967Y01743*
X01955Y01744*
X01944Y01743*
X01933Y01738*
X01924Y01731*
X01917Y01722*
X01912Y01711*
X01911Y017*
X01912Y01688*
X01917Y01677*
X01924Y01668*
X01933Y01661*
X01944Y01656*
X01955Y01655*
X01967Y01656*
X01978Y01661*
X01984Y01666*
X01989Y01663*
Y01551*
X01985Y01549*
X01984Y01551*
X01975Y01557*
X01966Y01561*
X01965Y01561*
Y01522*
Y01484*
X01966Y01484*
X01975Y01488*
X01984Y01494*
X01985Y01495*
X01989Y01494*
Y0092*
X01984Y00918*
X01982Y00922*
X01972Y00929*
X01961Y00933*
X0195Y00935*
X01938Y00933*
X01927Y00929*
X01917Y00922*
X0191Y00912*
X01906Y00901*
X01904Y0089*
X01906Y00878*
X0191Y00867*
X01917Y00857*
X01927Y0085*
X01938Y00846*
X0195Y00844*
X01961Y00846*
X01972Y0085*
X01982Y00857*
X01984Y00861*
X01989Y00859*
Y0082*
X01984Y00818*
X01982Y00822*
X01972Y00829*
X01961Y00833*
X0195Y00835*
X01938Y00833*
X01927Y00829*
X01917Y00822*
X0191Y00812*
X01906Y00801*
X01904Y0079*
X01906Y00778*
X0191Y00767*
X01917Y00757*
X01927Y0075*
X01938Y00746*
X0195Y00744*
X01961Y00746*
X01972Y0075*
X01982Y00757*
X01984Y00761*
X01989Y00759*
Y00551*
X01985Y0055*
X01984Y0055*
X01978Y00558*
X0197Y00564*
X0196Y00568*
X0196Y00569*
Y0053*
Y0049*
X0196Y00491*
X0197Y00495*
X01978Y00501*
X01984Y00509*
X01985Y00509*
X01989Y00508*
Y0005*
Y00046*
X01988Y00038*
X01985Y00031*
X0198Y00024*
X01975Y00019*
X01968Y00014*
X01961Y00011*
X01953Y0001*
X00046*
X00038Y00011*
X00031Y00014*
X00024Y00019*
X00019Y00024*
X00014Y00031*
X00011Y00038*
X0001Y00046*
Y0005*
Y00757*
X00015Y00758*
X00015Y00756*
X0002Y0075*
X00026Y00745*
X00032Y00743*
X0004Y00742*
X00047Y00743*
X00053Y00745*
X00059Y0075*
X00064Y00756*
X00066Y00762*
X00067Y0077*
X00066Y00777*
X00064Y00783*
X00059Y00789*
X00053Y00794*
X00047Y00796*
X0004Y00797*
X00032Y00796*
X00026Y00794*
X0002Y00789*
X00015Y00783*
X00015Y00781*
X0001Y00782*
Y00887*
X00015Y00888*
X00015Y00886*
X0002Y0088*
X00026Y00875*
X00032Y00873*
X0004Y00872*
X00047Y00873*
X00053Y00875*
X00059Y0088*
X00064Y00886*
X00066Y00892*
X00067Y009*
X00066Y00907*
X00064Y00913*
X00059Y00919*
X00053Y00924*
X00047Y00926*
X0004Y00927*
X00032Y00926*
X00026Y00924*
X0002Y00919*
X00015Y00913*
X00015Y00911*
X0001Y00912*
Y01011*
X00015Y01013*
X00022Y0101*
X00031Y01009*
X00041Y0101*
X00049Y01014*
X00056Y01019*
X00062Y01027*
X00065Y01035*
X00067Y01044*
X00065Y01054*
X00062Y01062*
X00056Y01069*
X00049Y01075*
X00041Y01078*
X00031Y0108*
X00022Y01078*
X00015Y01075*
X0001Y01077*
Y01332*
X00015Y01333*
X00015Y01332*
X00022Y01322*
X00032Y01315*
X00043Y01311*
X00055Y01309*
X00066Y01311*
X00077Y01315*
X00087Y01322*
X00094Y01332*
X00098Y01343*
X001Y01355*
X00098Y01366*
X00094Y01377*
X00087Y01387*
X00077Y01394*
X00066Y01398*
X00055Y014*
X00043Y01398*
X00032Y01394*
X00022Y01387*
X00015Y01377*
X00015Y01376*
X0001Y01377*
Y01461*
X00015Y01464*
X00022Y0146*
X00031Y01459*
X00041Y0146*
X00049Y01464*
X00056Y0147*
X00062Y01477*
X00065Y01485*
X00067Y01495*
X00065Y01504*
X00062Y01512*
X00056Y01519*
X00049Y01525*
X00041Y01529*
X00031Y0153*
X00022Y01529*
X00015Y01525*
X0001Y01528*
Y0295*
Y02953*
X00011Y02961*
X00014Y02968*
X00019Y02975*
X00024Y0298*
X00031Y02985*
X00038Y02988*
X00046Y02989*
X0005*
G37*
%LNmotor_unit_rev_3-2*%
%LPC*%
G36*
X01151Y02983D02*
X01141Y02982D01*
X01132Y02978*
X01124Y02972*
X01117Y02964*
X01113Y02955*
X01112Y02944*
X01113Y02934*
X01117Y02925*
X01124Y02917*
X01132Y02911*
X01141Y02907*
X01151Y02906*
X01161Y02907*
X01171Y02911*
X01179Y02917*
X01185Y02925*
X01189Y02934*
X0119Y02944*
X01189Y02955*
X01185Y02964*
X01179Y02972*
X01171Y02978*
X01161Y02982*
X01151Y02983*
G37*
G36*
X01335Y0289D02*
X01257D01*
X01256Y0289*
X01255Y0289*
X01254Y02889*
X01253Y02889*
X01252Y02888*
X01251Y02888*
X0125Y02887*
X01249Y02887*
X01249Y02886*
X01248Y02885*
X01248Y02884*
X01247Y02883*
X01247Y02882*
X01247Y02882*
X01247Y02881*
X01244Y02881*
X01241Y02881*
X01241Y02882*
X0124Y02882*
X0124Y02883*
X01239Y02884*
X01239Y02885*
X01238Y02886*
X01238Y02887*
X01237Y02887*
X01236Y02888*
X01235Y02888*
X01234Y02889*
X01233Y02889*
X01232Y0289*
X01231Y0289*
X01231Y0289*
X0121*
X01206Y02889*
X01203Y02887*
X01116Y028*
X01072*
X0107Y02799*
X01068Y02799*
Y02799*
X01068*
X01066Y02798*
X01065Y02797*
Y02797*
X01065*
X01064Y02795*
X01062Y02793*
X01062Y02793*
X01061Y02794*
X0105Y02795*
X01038Y02794*
X01037Y02793*
X01037Y02793*
X01035Y02795*
X01034Y02797*
X01034*
Y02797*
X01033Y02798*
X01031Y02799*
X01031*
Y02799*
X01029Y02799*
X01027Y028*
X00972*
X0097Y02799*
X00968Y02799*
Y02799*
X00968*
X00966Y02798*
X00965Y02797*
Y02797*
X00965*
X00964Y02795*
X00962Y02793*
X00962Y02793*
X00961Y02794*
X0095Y02795*
X00938Y02794*
X00937Y02793*
X00937Y02793*
X00935Y02795*
X00934Y02797*
X00934*
Y02797*
X00933Y02798*
X00931Y02799*
X00931*
Y02799*
X00929Y02799*
X00927Y028*
X00872*
X0087Y02799*
X00868Y02799*
X00868Y02799*
X00868*
X00866Y02798*
X00865Y02797*
Y02797*
X00865*
X00864Y02795*
X00862Y02793*
X00862Y02793*
X00861Y02794*
X0085Y02795*
X00838Y02794*
X00837Y02793*
X00837Y02793*
X00835Y02795*
X00834Y02797*
X00834*
Y02797*
X00833Y02798*
X00831Y02799*
X00831*
X00831Y02799*
X00829Y02799*
X00827Y028*
X00772*
X0077Y02799*
X00768Y02799*
Y02799*
X00768*
X00766Y02798*
X00765Y02797*
Y02797*
X00765*
X00764Y02795*
X00762Y02793*
X00762Y02793*
X00761Y02794*
X0075Y02795*
X00738Y02794*
X00737Y02793*
X00737Y02793*
X00735Y02795*
X00734Y02797*
X00734*
Y02797*
X00733Y02798*
X00731Y02799*
X00731*
Y02799*
X00729Y02799*
X00727Y028*
X00672*
X0067Y02799*
X00668Y02799*
X00668Y02799*
X00668*
X00666Y02798*
X00665Y02797*
Y02797*
X00665*
X00664Y02795*
X00662Y02793*
X00662Y02793*
X00661Y02794*
X0065Y02795*
X00638Y02794*
X00637Y02793*
X00637Y02793*
X00635Y02795*
X00634Y02797*
X00634*
Y02797*
X00633Y02798*
X00631Y02799*
X00631*
X00631Y02799*
X00629Y02799*
X00627Y028*
X00572*
X0057Y02799*
X00568Y02799*
Y02799*
X00568*
X00566Y02798*
X00565Y02797*
Y02797*
X00565*
X00564Y02795*
X00562Y02793*
X00562Y02793*
X00561Y02794*
X0055Y02795*
X00538Y02794*
X00537Y02793*
X00537Y02793*
X00535Y02795*
X00534Y02797*
X00534*
Y02797*
X00533Y02798*
X00531Y02799*
X00531*
Y02799*
X00529Y02799*
X00527Y028*
X0048*
X0048Y028*
X0048Y028*
X00478Y02799*
X00476Y02799*
X00476Y02799*
X00476Y02799*
X00475Y02798*
X00473Y02797*
X00473Y02796*
X00473Y02796*
X00472Y02795*
X00471Y02793*
X00466Y02792*
X00461Y02794*
X0045Y02795*
X00438Y02794*
X00427Y02789*
X00417Y02782*
X0041Y02772*
X00405Y02761*
X00404Y0275*
X00405Y02738*
X0041Y02727*
X00417Y02717*
X00427Y0271*
X00438Y02705*
X00439Y02705*
X0044Y02704*
Y0265*
X00441Y02646*
X00443Y02642*
X00466Y02619*
X00464Y02615*
X00459Y02616*
X00444Y02618*
X0043Y02616*
X00415Y02612*
X00402Y02605*
X00391Y02595*
X00381Y02584*
X00374Y02571*
X00374Y0257*
X00372Y02568*
X00369Y02567*
X00368Y02568*
X00367Y02568*
X00366Y02568*
X00365Y02568*
X00364Y02568*
X00363Y02568*
X00362Y02567*
X00361Y02567*
X0036Y02566*
X00359Y02566*
X00358Y02565*
X00358Y02564*
X00269Y02462*
X00266Y02464*
X00265Y02465*
X00263Y02475*
X00259Y02485*
X00253Y02493*
X00245Y02499*
X00235Y02503*
X00225Y02505*
X00214Y02503*
X00204Y02499*
X00196Y02493*
X0019Y02485*
X00186Y02475*
X00184Y02465*
X00186Y02454*
X0019Y02444*
X00196Y02436*
X00204Y0243*
X00214Y02426*
X00225Y02424*
X00231Y02425*
X00233Y0242*
X00217Y02401*
X00216Y024*
X00215Y02398*
X00215Y02398*
X00215Y02398*
X00215Y02396*
X00214Y02395*
Y02265*
X00215Y02261*
X00216Y0226*
X00215Y02258*
X00214Y02255*
Y0181*
X00215Y01806*
X00217Y01802*
X00221Y018*
X00225Y01799*
X0028*
X00282Y018*
X00283Y018*
X00284Y018*
X00284Y018*
X00285Y01801*
X00287Y01801*
X00287Y01802*
X00288Y01802*
X00288Y01803*
X00289Y01804*
X0029Y01805*
X0029Y01806*
X0029Y01806*
X00293Y01815*
X00298Y01821*
X00304Y01826*
X00312Y01829*
X0032Y0183*
X00327Y01829*
X00335Y01826*
X00341Y01821*
X00346Y01815*
X00349Y01806*
X00349Y01806*
X00349Y01805*
X0035Y01804*
X00351Y01803*
X00351Y01802*
X00352Y01802*
X00352Y01801*
X00354Y01801*
X00355Y018*
X00355Y018*
X00356Y018*
X00357Y018*
X00359Y01799*
X00395*
X00395Y01799*
X00395Y01799*
X00397Y018*
X00399Y018*
X00399Y018*
X00399Y018*
X004Y01801*
X00402Y01802*
X00402Y01803*
X00402Y01803*
X00403Y01804*
X00404Y01806*
X00409Y01806*
X00415Y01802*
X0043Y01798*
X00444Y01797*
X00459Y01798*
X00473Y01802*
X0048Y01806*
X00485Y01806*
X00486Y01804*
X00487Y01803*
X00487Y01803*
X00487Y01802*
X00488Y01801*
X0049Y018*
X0049Y018*
X0049Y018*
X00492Y018*
X00494Y01799*
X00494Y01799*
X00494Y01799*
X006*
X00603Y018*
X00607Y01802*
X00609Y01806*
X0061Y0181*
Y02055*
X00634Y02079*
X00733*
X00733Y02079*
X00734Y02079*
X00735Y0208*
X00737Y0208*
X00737Y02081*
X00738Y02081*
X00739Y02082*
X0074Y02082*
X0074Y02083*
X00741Y02083*
X00741Y02085*
X00742Y02086*
X00742Y02086*
X0075Y02084*
X00765Y02082*
X00779Y02084*
X00784Y02085*
X00785Y02083*
X00792Y02073*
X00802Y02066*
X00813Y02062*
X00825Y0206*
X00836Y02062*
X00847Y02066*
X00857Y02073*
X00861Y02079*
X00885*
X00888Y0208*
X00892Y02082*
X00894Y02086*
X00895Y0209*
Y02255*
X00894Y02258*
X00893Y0226*
X00894Y02261*
X00895Y02265*
Y02434*
X01095*
X01099Y02435*
X01103Y02437*
X01243Y02578*
X01248Y02575*
X01247Y02571*
X01249Y02559*
X01253Y02548*
X0126Y02538*
X0127Y02531*
X01281Y02527*
X01293Y02525*
X01304Y02527*
X01315Y02531*
X01325Y02538*
X01332Y02548*
X01336Y02559*
X01338Y02571*
X01336Y02582*
X01332Y02593*
X01325Y02603*
X01315Y0261*
X01304Y02614*
X01293Y02616*
X01288Y02615*
X01285Y0262*
X01343Y02677*
X01345Y02681*
X01345Y02685*
Y0288*
X01345Y02883*
X01343Y02887*
X01339Y02889*
X01335Y0289*
G37*
G36*
X0106Y02889D02*
Y0286D01*
X01089*
X01089Y0286*
X01085Y0287*
X01078Y02878*
X0107Y02885*
X0106Y02889*
X0106Y02889*
G37*
G36*
X0104D02*
X01039Y02889D01*
X01029Y02885*
X01021Y02878*
X01014Y0287*
X0101Y0286*
X0101Y0286*
X0104*
Y02889*
G37*
G36*
X0096D02*
Y0286D01*
X00989*
X00989Y0286*
X00985Y0287*
X00978Y02878*
X0097Y02885*
X0096Y02889*
X0096Y02889*
G37*
G36*
X0094D02*
X00939Y02889D01*
X00929Y02885*
X00921Y02878*
X00914Y0287*
X0091Y0286*
X0091Y0286*
X0094*
Y02889*
G37*
G36*
X0086D02*
Y0286D01*
X00889*
X00889Y0286*
X00885Y0287*
X00878Y02878*
X0087Y02885*
X0086Y02889*
X0086Y02889*
G37*
G36*
X0084D02*
X00839Y02889D01*
X00829Y02885*
X00821Y02878*
X00814Y0287*
X0081Y0286*
X0081Y0286*
X0084*
Y02889*
G37*
G36*
X0076D02*
Y0286D01*
X00789*
X00789Y0286*
X00785Y0287*
X00778Y02878*
X0077Y02885*
X0076Y02889*
X0076Y02889*
G37*
G36*
X0074D02*
X00739Y02889D01*
X00729Y02885*
X00721Y02878*
X00714Y0287*
X0071Y0286*
X0071Y0286*
X0074*
Y02889*
G37*
G36*
X0066D02*
Y0286D01*
X00689*
X00689Y0286*
X00685Y0287*
X00678Y02878*
X0067Y02885*
X0066Y02889*
X0066Y02889*
G37*
G36*
X0064D02*
X00639Y02889D01*
X00629Y02885*
X00621Y02878*
X00614Y0287*
X0061Y0286*
X0061Y0286*
X0064*
Y02889*
G37*
G36*
X0056D02*
Y0286D01*
X00589*
X00589Y0286*
X00585Y0287*
X00578Y02878*
X0057Y02885*
X0056Y02889*
X0056Y02889*
G37*
G36*
X0054D02*
X00539Y02889D01*
X00529Y02885*
X00521Y02878*
X00514Y0287*
X0051Y0286*
X0051Y0286*
X0054*
Y02889*
G37*
G36*
X0152Y02871D02*
Y0285D01*
X01541*
X0154Y02853*
X01533Y02863*
X01523Y0287*
X0152Y02871*
G37*
G36*
X0148D02*
X01476Y0287D01*
X01466Y02863*
X01459Y02853*
X01458Y0285*
X0148*
Y02871*
G37*
G36*
X01089Y0284D02*
X0106D01*
Y0281*
X0106Y0281*
X0107Y02814*
X01078Y02821*
X01085Y02829*
X01089Y02839*
X01089Y0284*
G37*
G36*
X0104D02*
X0101D01*
X0101Y02839*
X01014Y02829*
X01021Y02821*
X01029Y02814*
X01039Y0281*
X0104Y0281*
Y0284*
G37*
G36*
X00989D02*
X0096D01*
Y0281*
X0096Y0281*
X0097Y02814*
X00978Y02821*
X00985Y02829*
X00989Y02839*
X00989Y0284*
G37*
G36*
X0094D02*
X0091D01*
X0091Y02839*
X00914Y02829*
X00921Y02821*
X00929Y02814*
X00939Y0281*
X0094Y0281*
Y0284*
G37*
G36*
X00889D02*
X0086D01*
Y0281*
X0086Y0281*
X0087Y02814*
X00878Y02821*
X00885Y02829*
X00889Y02839*
X00889Y0284*
G37*
G36*
X0084D02*
X0081D01*
X0081Y02839*
X00814Y02829*
X00821Y02821*
X00829Y02814*
X00839Y0281*
X0084Y0281*
Y0284*
G37*
G36*
X00789D02*
X0076D01*
Y0281*
X0076Y0281*
X0077Y02814*
X00778Y02821*
X00785Y02829*
X00789Y02839*
X00789Y0284*
G37*
G36*
X0074D02*
X0071D01*
X0071Y02839*
X00714Y02829*
X00721Y02821*
X00729Y02814*
X00739Y0281*
X0074Y0281*
Y0284*
G37*
G36*
X00689D02*
X0066D01*
Y0281*
X0066Y0281*
X0067Y02814*
X00678Y02821*
X00685Y02829*
X00689Y02839*
X00689Y0284*
G37*
G36*
X0064D02*
X0061D01*
X0061Y02839*
X00614Y02829*
X00621Y02821*
X00629Y02814*
X00639Y0281*
X0064Y0281*
Y0284*
G37*
G36*
X00589D02*
X0056D01*
Y0281*
X0056Y0281*
X0057Y02814*
X00578Y02821*
X00585Y02829*
X00589Y02839*
X00589Y0284*
G37*
G36*
X0054D02*
X0051D01*
X0051Y02839*
X00514Y02829*
X00521Y02821*
X00529Y02814*
X00539Y0281*
X0054Y0281*
Y0284*
G37*
G36*
X0045Y02895D02*
X00438Y02894D01*
X00427Y02889*
X00417Y02882*
X0041Y02872*
X00405Y02861*
X00404Y0285*
X00405Y02838*
X0041Y02827*
X00417Y02817*
X00427Y0281*
X00438Y02805*
X0045Y02804*
X00461Y02805*
X00472Y0281*
X00482Y02817*
X00489Y02827*
X00494Y02838*
X00495Y0285*
X00494Y02861*
X00489Y02872*
X00482Y02882*
X00472Y02889*
X00461Y02894*
X0045Y02895*
G37*
G36*
X0035D02*
X00338Y02894D01*
X00327Y02889*
X00317Y02882*
X0031Y02872*
X00305Y02861*
X00304Y0285*
X00305Y02838*
X0031Y02827*
X00317Y02817*
X00327Y0281*
X00338Y02805*
X0035Y02804*
X00361Y02805*
X00372Y0281*
X00382Y02817*
X00389Y02827*
X00394Y02838*
X00395Y0285*
X00394Y02861*
X00389Y02872*
X00382Y02882*
X00372Y02889*
X00361Y02894*
X0035Y02895*
G37*
G36*
X01541Y0281D02*
X0152D01*
Y02788*
X01523Y02789*
X01533Y02796*
X0154Y02806*
X01541Y0281*
G37*
G36*
X0148D02*
X01458D01*
X01459Y02806*
X01466Y02796*
X01476Y02789*
X0148Y02788*
Y0281*
G37*
G36*
X0185Y02928D02*
X01834Y02926D01*
X0182Y02922*
X01806Y02915*
X01794Y02905*
X01784Y02893*
X01777Y02879*
X01773Y02865*
X01771Y0285*
X01773Y02834*
X01777Y0282*
X01784Y02806*
X01794Y02794*
X01806Y02784*
X0182Y02777*
X01834Y02773*
X0185Y02771*
X01865Y02773*
X01879Y02777*
X01893Y02784*
X01905Y02794*
X01915Y02806*
X01922Y0282*
X01926Y02834*
X01928Y0285*
X01926Y02865*
X01922Y02879*
X01915Y02893*
X01905Y02905*
X01893Y02915*
X01879Y02922*
X01865Y02926*
X0185Y02928*
G37*
G36*
X0015D02*
X00134Y02926D01*
X0012Y02922*
X00106Y02915*
X00094Y02905*
X00084Y02893*
X00077Y02879*
X00073Y02865*
X00071Y0285*
X00073Y02834*
X00077Y0282*
X00084Y02806*
X00094Y02794*
X00106Y02784*
X0012Y02777*
X00134Y02773*
X0015Y02771*
X00165Y02773*
X00179Y02777*
X00193Y02784*
X00205Y02794*
X00215Y02806*
X00222Y0282*
X00226Y02834*
X00228Y0285*
X00226Y02865*
X00222Y02879*
X00215Y02893*
X00205Y02905*
X00193Y02915*
X00179Y02922*
X00165Y02926*
X0015Y02928*
G37*
G36*
X00395Y02795D02*
X00304D01*
Y02704*
X00395*
Y02795*
G37*
G36*
X0007Y02724D02*
Y02695D01*
X00099*
X00098Y02695*
X00094Y02705*
X00088Y02713*
X0008Y02719*
X0007Y02723*
X0007Y02724*
G37*
G36*
X0005D02*
X00049Y02723D01*
X00039Y02719*
X00031Y02713*
X00025Y02705*
X00021Y02695*
X0002Y02695*
X0005*
Y02724*
G37*
G36*
X00099Y02675D02*
X0007D01*
Y02645*
X0007Y02646*
X0008Y0265*
X00088Y02656*
X00094Y02664*
X00098Y02674*
X00099Y02675*
G37*
G36*
X0005D02*
X0002D01*
X00021Y02674*
X00025Y02664*
X00031Y02656*
X00039Y0265*
X00049Y02646*
X0005Y02645*
Y02675*
G37*
G36*
X01925Y02651D02*
X01913Y02649D01*
X01902Y02645*
X01892Y02638*
X01885Y02628*
X01881Y02617*
X01879Y02606*
X01881Y02594*
X01885Y02583*
X01892Y02573*
X01902Y02566*
X01913Y02562*
X01925Y0256*
X01936Y02562*
X01947Y02566*
X01957Y02573*
X01964Y02583*
X01968Y02594*
X0197Y02606*
X01968Y02617*
X01964Y02628*
X01957Y02638*
X01947Y02645*
X01936Y02649*
X01925Y02651*
G37*
G36*
X0149Y02616D02*
X01478Y02614D01*
X01467Y0261*
X01457Y02603*
X0145Y02593*
X01446Y02582*
X01444Y02571*
X01446Y02559*
X0145Y02548*
X01457Y02538*
X01467Y02531*
X01478Y02527*
X0149Y02525*
X01501Y02527*
X01512Y02531*
X01522Y02538*
X01529Y02548*
X01533Y02559*
X01535Y02571*
X01533Y02582*
X01529Y02593*
X01522Y02603*
X01512Y0261*
X01501Y02614*
X0149Y02616*
G37*
G36*
X01925Y02551D02*
X01913Y02549D01*
X01902Y02545*
X01892Y02538*
X01885Y02528*
X01881Y02517*
X01879Y02506*
X01881Y02494*
X01885Y02483*
X01892Y02473*
X01902Y02466*
X01913Y02462*
X01925Y0246*
X01936Y02462*
X01947Y02466*
X01957Y02473*
X01964Y02483*
X01968Y02494*
X0197Y02506*
X01968Y02517*
X01964Y02528*
X01957Y02538*
X01947Y02545*
X01936Y02549*
X01925Y02551*
G37*
G36*
X014Y02375D02*
Y02365D01*
X0141*
X01406Y02371*
X014Y02375*
G37*
G36*
X0138D02*
X01373Y02371D01*
X01369Y02365*
X0138*
Y02375*
G37*
G36*
X01925Y02451D02*
X01913Y02449D01*
X01902Y02445*
X01892Y02438*
X01885Y02428*
X01881Y02417*
X01879Y02406*
X01881Y02394*
X01885Y02383*
X01892Y02373*
X01902Y02366*
X01913Y02362*
X01925Y0236*
X01936Y02362*
X01947Y02366*
X01957Y02373*
X01964Y02383*
X01968Y02394*
X0197Y02406*
X01968Y02417*
X01964Y02428*
X01957Y02438*
X01947Y02445*
X01936Y02449*
X01925Y02451*
G37*
G36*
X0141Y02345D02*
X014D01*
Y02334*
X01406Y02338*
X0141Y02345*
G37*
G36*
X0138D02*
X01369D01*
X01373Y02338*
X0138Y02334*
Y02345*
G37*
G36*
X01925Y02351D02*
X01913Y02349D01*
X01902Y02345*
X01892Y02338*
X01885Y02328*
X01881Y02317*
X01879Y02306*
X01881Y02294*
X01885Y02283*
X01892Y02273*
X01902Y02266*
X01913Y02262*
X01925Y0226*
X01936Y02262*
X01947Y02266*
X01957Y02273*
X01964Y02283*
X01968Y02294*
X0197Y02306*
X01968Y02317*
X01964Y02328*
X01957Y02338*
X01947Y02345*
X01936Y02349*
X01925Y02351*
G37*
G36*
X01535Y02228D02*
Y02205D01*
X01558*
X01555Y02212*
X01549Y02219*
X01542Y02225*
X01535Y02228*
G37*
G36*
X01515D02*
X01507Y02225D01*
X015Y02219*
X01494Y02212*
X01491Y02205*
X01515*
Y02228*
G37*
G36*
X01558Y02185D02*
X01535D01*
Y02161*
X01542Y02164*
X01549Y0217*
X01555Y02177*
X01558Y02185*
G37*
G36*
X01515D02*
X01491D01*
X01494Y02177*
X015Y0217*
X01507Y02164*
X01515Y02161*
Y02185*
G37*
G36*
X01925Y02251D02*
X01913Y02249D01*
X01902Y02245*
X01892Y02238*
X01885Y02228*
X01881Y02217*
X01879Y02206*
X01881Y02194*
X01885Y02183*
X01892Y02173*
X01902Y02166*
X01913Y02162*
X01925Y0216*
X01936Y02162*
X01947Y02166*
X01957Y02173*
X01964Y02183*
X01968Y02194*
X0197Y02206*
X01968Y02217*
X01964Y02228*
X01957Y02238*
X01947Y02245*
X01936Y02249*
X01925Y02251*
G37*
G36*
X01685Y02167D02*
X01677Y02166D01*
X01671Y02163*
X01665Y02158*
X0166Y02153*
X01658Y02146*
X01657Y02139*
X01658Y02132*
X0166Y02125*
X01665Y02119*
X01671Y02115*
X01677Y02112*
X01685Y02111*
X01692Y02112*
X01698Y02115*
X01704Y02119*
X01709Y02125*
X01711Y02132*
X01712Y02139*
X01711Y02146*
X01709Y02153*
X01704Y02158*
X01698Y02163*
X01692Y02166*
X01685Y02167*
G37*
G36*
X01125Y02123D02*
Y021D01*
X01148*
X01145Y02107*
X01139Y02114*
X01132Y0212*
X01125Y02123*
G37*
G36*
X01105D02*
X01097Y0212D01*
X0109Y02114*
X01084Y02107*
X01081Y021*
X01105*
Y02123*
G37*
G36*
X01925Y02151D02*
X01913Y02149D01*
X01902Y02145*
X01892Y02138*
X01885Y02128*
X01881Y02117*
X01879Y02106*
X01881Y02094*
X01885Y02083*
X01892Y02073*
X01902Y02066*
X01913Y02062*
X01925Y0206*
X01936Y02062*
X01947Y02066*
X01957Y02073*
X01964Y02083*
X01968Y02094*
X0197Y02106*
X01968Y02117*
X01964Y02128*
X01957Y02138*
X01947Y02145*
X01936Y02149*
X01925Y02151*
G37*
G36*
X01148Y0208D02*
X01125D01*
Y02056*
X01132Y02059*
X01139Y02065*
X01145Y02072*
X01148Y0208*
G37*
G36*
X01105D02*
X01081D01*
X01084Y02072*
X0109Y02065*
X01097Y02059*
X01105Y02056*
Y0208*
G37*
G36*
X00865Y02046D02*
X00835D01*
Y02016*
X00865*
Y02046*
G37*
G36*
X00815D02*
X00792D01*
Y01988*
X00865*
Y01996*
X00825*
Y02006*
X00815*
Y02046*
G37*
G36*
X00737Y02036D02*
X0069D01*
Y01988*
X00737*
Y02036*
G37*
G36*
X01925Y02051D02*
X01913Y02049D01*
X01902Y02045*
X01892Y02038*
X01885Y02028*
X01881Y02017*
X01879Y02006*
X01881Y01994*
X01885Y01983*
X01892Y01973*
X01902Y01966*
X01913Y01962*
X01925Y0196*
X01936Y01962*
X01947Y01966*
X01957Y01973*
X01964Y01983*
X01968Y01994*
X0197Y02006*
X01968Y02017*
X01964Y02028*
X01957Y02038*
X01947Y02045*
X01936Y02049*
X01925Y02051*
G37*
G36*
X01865Y01946D02*
X01835D01*
Y01916*
X01865*
Y01946*
G37*
G36*
X01965D02*
X01935D01*
Y01916*
X01965*
Y01946*
G37*
G36*
X01815D02*
X01785D01*
Y01916*
X01815*
Y01946*
G37*
G36*
X01915D02*
X01885D01*
Y01916*
X01915*
Y01946*
G37*
G36*
X01345Y01975D02*
X01334Y01973D01*
X01324Y01969*
X01316Y01963*
X0131Y01955*
X01306Y01945*
X01304Y01935*
X01306Y01924*
X0131Y01914*
X01316Y01906*
X01324Y019*
X01334Y01896*
X01345Y01894*
X01355Y01896*
X01365Y019*
X01373Y01906*
X01379Y01914*
X01383Y01924*
X01385Y01935*
X01383Y01945*
X01379Y01955*
X01373Y01963*
X01365Y01969*
X01355Y01973*
X01345Y01975*
G37*
G36*
X00737Y01933D02*
X0069D01*
Y01886*
X00737*
Y01933*
G37*
G36*
X01965Y01896D02*
X01935D01*
Y01866*
X01965*
Y01896*
G37*
G36*
X01915D02*
X01885D01*
Y01866*
X01915*
Y01896*
G37*
G36*
X01865D02*
X01835D01*
Y01866*
X01865*
Y01896*
G37*
G36*
X01815D02*
X01785D01*
Y01866*
X01815*
Y01896*
G37*
G36*
X00865D02*
X00835D01*
Y01866*
X00865*
Y01896*
G37*
G36*
Y01933D02*
X00792D01*
Y01866*
X00815*
Y01906*
X00825*
Y01916*
X00865*
Y01933*
G37*
G36*
X01405Y01917D02*
X01397Y01916D01*
X01391Y01914*
X01385Y01909*
X0138Y01903*
X01378Y01897*
X01377Y0189*
X01378Y01882*
X0138Y01876*
X01385Y0187*
X01391Y01865*
X01397Y01863*
X01405Y01862*
X01412Y01863*
X01418Y01865*
X01424Y0187*
X01429Y01876*
X01431Y01882*
X01432Y0189*
X01431Y01897*
X01429Y01903*
X01424Y01909*
X01418Y01914*
X01412Y01916*
X01405Y01917*
G37*
G36*
X01725Y01951D02*
X01713Y01949D01*
X01702Y01945*
X01692Y01938*
X01685Y01928*
X01681Y01917*
X01679Y01906*
X01681Y01894*
X01685Y01883*
X01692Y01873*
X01702Y01866*
X01713Y01862*
X01725Y0186*
X01736Y01862*
X01747Y01866*
X01757Y01873*
X01764Y01883*
X01768Y01894*
X0177Y01906*
X01768Y01917*
X01764Y01928*
X01757Y01938*
X01747Y01945*
X01736Y01949*
X01725Y01951*
G37*
G36*
X01215Y01912D02*
X01207Y01911D01*
X01201Y01909*
X01195Y01904*
X0119Y01898*
X01188Y01892*
X01187Y01885*
X01188Y01877*
X0119Y01871*
X01195Y01865*
X01201Y0186*
X01207Y01858*
X01215Y01857*
X01222Y01858*
X01228Y0186*
X01234Y01865*
X01239Y01871*
X01241Y01877*
X01242Y01885*
X01241Y01892*
X01239Y01898*
X01234Y01904*
X01228Y01909*
X01222Y01911*
X01215Y01912*
G37*
G36*
X01389Y01834D02*
X013D01*
Y01745*
X01389*
Y01834*
G37*
G36*
X01245Y01834D02*
X01233Y01833D01*
X01222Y01828*
X01213Y01821*
X01206Y01812*
X01201Y01801*
X012Y0179*
X01201Y01778*
X01206Y01767*
X01213Y01758*
X01222Y01751*
X01233Y01746*
X01245Y01745*
X01256Y01746*
X01267Y01751*
X01276Y01758*
X01283Y01767*
X01288Y01778*
X01289Y0179*
X01288Y01801*
X01283Y01812*
X01276Y01821*
X01267Y01828*
X01256Y01833*
X01245Y01834*
G37*
G36*
X01145D02*
X01133Y01833D01*
X01122Y01828*
X01113Y01821*
X01106Y01812*
X01101Y01801*
X011Y0179*
X01101Y01778*
X01106Y01767*
X01113Y01758*
X01122Y01751*
X01133Y01746*
X01145Y01745*
X01156Y01746*
X01167Y01751*
X01176Y01758*
X01183Y01767*
X01188Y01778*
X01189Y0179*
X01188Y01801*
X01183Y01812*
X01176Y01821*
X01167Y01828*
X01156Y01833*
X01145Y01834*
G37*
G36*
X01773Y0183D02*
X01761Y01828D01*
X0175Y01824*
X0174Y01817*
X01733Y01807*
X01729Y01796*
X01727Y01785*
X01729Y01773*
X01733Y01762*
X0174Y01752*
X0175Y01745*
X01761Y01741*
X01773Y01739*
X01784Y01741*
X01795Y01745*
X01805Y01752*
X01812Y01762*
X01816Y01773*
X01818Y01785*
X01816Y01796*
X01812Y01807*
X01805Y01817*
X01795Y01824*
X01784Y01828*
X01773Y0183*
G37*
G36*
X00579Y01753D02*
Y0173D01*
X00603*
X006Y01737*
X00594Y01744*
X00587Y0175*
X00579Y01753*
G37*
G36*
X00559D02*
X00551Y0175D01*
X00544Y01744*
X00538Y01737*
X00535Y0173*
X00559*
Y01753*
G37*
G36*
X0125Y01733D02*
Y01723D01*
X0126*
X01256Y01729*
X0125Y01733*
G37*
G36*
X0123D02*
X01223Y01729D01*
X01219Y01723*
X0123*
Y01733*
G37*
G36*
X0126Y01703D02*
X0125D01*
Y01692*
X01256Y01696*
X0126Y01703*
G37*
G36*
X0123D02*
X01219D01*
X01223Y01696*
X0123Y01692*
Y01703*
G37*
G36*
X00603Y0171D02*
X00579D01*
Y01686*
X00587Y01689*
X00594Y01695*
X006Y01702*
X00603Y0171*
G37*
G36*
X00559D02*
X00535D01*
X00538Y01702*
X00544Y01695*
X00551Y01689*
X00559Y01686*
Y0171*
G37*
G36*
X0016Y01689D02*
Y0166D01*
X00189*
X00188Y0166*
X00184Y0167*
X00178Y01678*
X0017Y01685*
X0016Y01689*
X0016Y01689*
G37*
G36*
X0014D02*
X00139Y01689D01*
X00129Y01685*
X00121Y01678*
X00115Y0167*
X00111Y0166*
X0011Y0166*
X0014*
Y01689*
G37*
G36*
X017Y01744D02*
X01688Y01743D01*
X01677Y01738*
X01668Y01731*
X01661Y01722*
X01656Y01711*
X01655Y017*
X01656Y01688*
X01661Y01677*
X01668Y01668*
X01677Y01661*
X01688Y01656*
X017Y01655*
X01711Y01656*
X01722Y01661*
X01731Y01668*
X01738Y01677*
X01743Y01688*
X01744Y017*
X01743Y01711*
X01738Y01722*
X01731Y01731*
X01722Y01738*
X01711Y01743*
X017Y01744*
G37*
G36*
X00189Y0164D02*
X0016D01*
Y01611*
X0016Y01611*
X0017Y01615*
X00178Y01621*
X00184Y01629*
X00188Y01639*
X00189Y0164*
G37*
G36*
X0014D02*
X0011D01*
X00111Y01639*
X00115Y01629*
X00121Y01621*
X00129Y01615*
X00139Y01611*
X0014Y01611*
Y0164*
G37*
G36*
X00268Y01695D02*
X00256Y01693D01*
X00245Y01689*
X00236Y01682*
X00228Y01672*
X00224Y01661*
X00222Y0165*
X00224Y01638*
X00228Y01627*
X00236Y01618*
X00245Y0161*
X00256Y01606*
X00268Y01604*
X00279Y01606*
X0029Y0161*
X003Y01618*
X00307Y01627*
X00311Y01638*
X00313Y0165*
X00311Y01661*
X00307Y01672*
X003Y01682*
X0029Y01689*
X00279Y01693*
X00268Y01695*
G37*
G36*
X0171Y01561D02*
Y01532D01*
X01738*
X01738Y01533*
X01734Y01542*
X01728Y01551*
X01719Y01557*
X0171Y01561*
X0171Y01561*
G37*
G36*
X01945D02*
X01945Y01561D01*
X01935Y01557*
X01927Y01551*
X01921Y01542*
X01917Y01533*
X01917Y01532*
X01945*
Y01561*
G37*
G36*
X0169D02*
X01689Y01561D01*
X0168Y01557*
X01671Y01551*
X01665Y01542*
X01661Y01533*
X01661Y01532*
X0169*
Y01561*
G37*
G36*
X00268Y01577D02*
X00256Y01575D01*
X00245Y01571*
X00236Y01564*
X00228Y01554*
X00224Y01543*
X00222Y01532*
X00224Y0152*
X00228Y01509*
X00236Y01499*
X00245Y01492*
X00256Y01488*
X00268Y01486*
X00279Y01488*
X0029Y01492*
X003Y01499*
X00307Y01509*
X00311Y0152*
X00313Y01532*
X00311Y01543*
X00307Y01554*
X003Y01564*
X0029Y01571*
X00279Y01575*
X00268Y01577*
G37*
G36*
X0015D02*
X00138Y01575D01*
X00127Y01571*
X00117Y01564*
X0011Y01554*
X00106Y01543*
X00104Y01532*
X00106Y0152*
X0011Y01509*
X00117Y01499*
X00127Y01492*
X00138Y01488*
X0015Y01486*
X00161Y01488*
X00172Y01492*
X00182Y01499*
X00189Y01509*
X00193Y0152*
X00195Y01532*
X00193Y01543*
X00189Y01554*
X00182Y01564*
X00172Y01571*
X00161Y01575*
X0015Y01577*
G37*
G36*
X01738Y01512D02*
X0171D01*
Y01484*
X0171Y01484*
X01719Y01488*
X01728Y01494*
X01734Y01502*
X01738Y01512*
X01738Y01512*
G37*
G36*
X01945D02*
X01917D01*
X01917Y01512*
X01921Y01502*
X01927Y01494*
X01935Y01488*
X01945Y01484*
X01945Y01484*
Y01512*
G37*
G36*
X0169D02*
X01661D01*
X01661Y01512*
X01665Y01502*
X01671Y01494*
X0168Y01488*
X01689Y01484*
X0169Y01484*
Y01512*
G37*
G36*
X00386Y0153D02*
X00377Y01529D01*
X00368Y01525*
X00361Y01519*
X00355Y01512*
X00352Y01504*
X0035Y01495*
X00352Y01485*
X00355Y01477*
X00361Y0147*
X00368Y01464*
X00377Y0146*
X00386Y01459*
X00395Y0146*
X00403Y01464*
X00411Y0147*
X00416Y01477*
X0042Y01485*
X00421Y01495*
X0042Y01504*
X00416Y01512*
X00411Y01519*
X00403Y01525*
X00395Y01529*
X00386Y0153*
G37*
G36*
X01225Y01482D02*
X01217Y01481D01*
X01211Y01479*
X01205Y01474*
X012Y01468*
X01198Y01462*
X01197Y01455*
X01198Y01447*
X012Y01441*
X01205Y01435*
X01211Y0143*
X01217Y01428*
X01225Y01427*
X01232Y01428*
X01238Y0143*
X01244Y01435*
X01249Y01441*
X01251Y01447*
X01252Y01455*
X01251Y01462*
X01249Y01468*
X01244Y01474*
X01238Y01479*
X01232Y01481*
X01225Y01482*
G37*
G36*
X00745D02*
X00737Y01481D01*
X00731Y01479*
X00725Y01474*
X0072Y01468*
X00718Y01462*
X00717Y01455*
X00718Y01447*
X0072Y01441*
X00725Y01435*
X00731Y0143*
X00737Y01428*
X00745Y01427*
X00752Y01428*
X00758Y0143*
X00764Y01435*
X00769Y01441*
X00771Y01447*
X00772Y01455*
X00771Y01462*
X00769Y01468*
X00764Y01474*
X00758Y01479*
X00752Y01481*
X00745Y01482*
G37*
G36*
X0047Y015D02*
X00458Y01498D01*
X00447Y01494*
X00437Y01487*
X0043Y01477*
X00426Y01466*
X00424Y01455*
X00426Y01443*
X0043Y01432*
X00437Y01422*
X00447Y01415*
X00458Y01411*
X0047Y01409*
X00481Y01411*
X00492Y01415*
X00502Y01422*
X00509Y01432*
X00513Y01443*
X00515Y01455*
X00513Y01466*
X00509Y01477*
X00502Y01487*
X00492Y01494*
X00481Y01498*
X0047Y015*
G37*
G36*
X0095Y01395D02*
X00942Y01394D01*
X00936Y01391*
X0093Y01386*
X00925Y01381*
X00923Y01374*
X00922Y01367*
X00923Y0136*
X00925Y01353*
X0093Y01347*
X00936Y01343*
X00942Y0134*
X0095Y01339*
X00957Y0134*
X00963Y01343*
X00969Y01347*
X00974Y01353*
X00976Y0136*
X00977Y01367*
X00976Y01374*
X00974Y01381*
X00969Y01386*
X00963Y01391*
X00957Y01394*
X0095Y01395*
G37*
G36*
X0105Y0142D02*
X01038Y01418D01*
X01027Y01414*
X01017Y01407*
X0101Y01397*
X01006Y01386*
X01004Y01375*
X01006Y01363*
X0101Y01352*
X01017Y01342*
X01027Y01335*
X01038Y01331*
X0105Y01329*
X01061Y01331*
X01072Y01335*
X01082Y01342*
X01089Y01352*
X01093Y01363*
X01095Y01375*
X01093Y01386*
X01089Y01397*
X01082Y01407*
X01072Y01414*
X01061Y01418*
X0105Y0142*
G37*
G36*
X0068Y01357D02*
X00672Y01356D01*
X00666Y01354*
X0066Y01349*
X00655Y01343*
X00653Y01337*
X00652Y0133*
X00652Y01324*
X00649Y01321*
X00648Y01321*
X00647Y01321*
X0064Y01322*
X00632Y01321*
X00626Y01319*
X0062Y01314*
X00615Y01308*
X00613Y01302*
X00612Y01295*
X00613Y01287*
X00615Y01281*
X00614Y01275*
X00611Y01274*
X00605Y01269*
X006Y01263*
X00598Y01257*
X00597Y0125*
X00598Y01242*
X006Y01236*
X00605Y0123*
X00611Y01225*
X00617Y01223*
X00625Y01222*
X00632Y01223*
X00638Y01225*
X00644Y0123*
X00649Y01236*
X00651Y01242*
X00652Y0125*
X00651Y01257*
X00649Y01263*
X0065Y01269*
X00653Y0127*
X00659Y01275*
X00664Y01281*
X00666Y01287*
X00667Y01295*
X00667Y013*
X0067Y01303*
X00671Y01303*
X00672Y01303*
X0068Y01302*
X00687Y01303*
X00693Y01305*
X00699Y0131*
X00704Y01316*
X00706Y01322*
X00707Y0133*
X00706Y01337*
X00704Y01343*
X00699Y01349*
X00693Y01354*
X00687Y01356*
X0068Y01357*
G37*
G36*
X0162Y01347D02*
X01612Y01346D01*
X01606Y01344*
X016Y01339*
X01595Y01333*
X01593Y01327*
X01592Y0132*
X01593Y01312*
X01595Y01306*
X016Y013*
X01606Y01295*
X01612Y01293*
X0162Y01292*
X01627Y01293*
X01633Y01295*
X01639Y013*
X01644Y01306*
X01646Y01312*
X01647Y0132*
X01646Y01327*
X01644Y01333*
X01639Y01339*
X01633Y01344*
X01627Y01346*
X0162Y01347*
G37*
G36*
X01325Y0141D02*
X01313Y01408D01*
X01302Y01404*
X01292Y01397*
X01285Y01387*
X01281Y01376*
X01279Y01365*
X01281Y01353*
X01285Y01342*
X01292Y01332*
X01299Y01328*
Y01321*
X01292Y01317*
X01285Y01307*
X01281Y01296*
X01279Y01285*
X01281Y01273*
X01285Y01262*
X01292Y01252*
X01302Y01245*
X01313Y01241*
X01325Y01239*
X01336Y01241*
X01347Y01245*
X01357Y01252*
X01364Y01262*
X01368Y01273*
X0137Y01285*
X01368Y01296*
X01364Y01307*
X01357Y01317*
X0135Y01321*
Y01328*
X01357Y01332*
X01364Y01342*
X01368Y01353*
X0137Y01365*
X01368Y01376*
X01364Y01387*
X01357Y01397*
X01347Y01404*
X01336Y01408*
X01325Y0141*
G37*
G36*
X0119Y01325D02*
X01178Y01323D01*
X01167Y01319*
X01157Y01312*
X0115Y01302*
X01146Y01291*
X01144Y0128*
X01146Y01268*
X0115Y01257*
X01157Y01247*
X01167Y0124*
X01178Y01236*
X0119Y01234*
X01201Y01236*
X01212Y0124*
X01222Y01247*
X01229Y01257*
X01233Y01268*
X01235Y0128*
X01233Y01291*
X01229Y01302*
X01222Y01312*
X01212Y01319*
X01201Y01323*
X0119Y01325*
G37*
G36*
X00455Y01305D02*
X00443Y01303D01*
X00432Y01299*
X00422Y01292*
X00415Y01282*
X00411Y01271*
X00409Y0126*
X00411Y01248*
X00415Y01237*
X00422Y01227*
X00432Y0122*
X00443Y01216*
X00455Y01214*
X00466Y01216*
X00477Y0122*
X00487Y01227*
X00494Y01237*
X00498Y01248*
X005Y0126*
X00498Y01271*
X00494Y01282*
X00487Y01292*
X00477Y01299*
X00466Y01303*
X00455Y01305*
G37*
G36*
X0016Y01239D02*
Y0121D01*
X00189*
X00188Y0121*
X00184Y0122*
X00178Y01228*
X0017Y01234*
X0016Y01238*
X0016Y01239*
G37*
G36*
X0014D02*
X00139Y01238D01*
X00129Y01234*
X00121Y01228*
X00115Y0122*
X00111Y0121*
X0011Y0121*
X0014*
Y01239*
G37*
G36*
X00189Y0119D02*
X0016D01*
Y0116*
X0016Y01161*
X0017Y01165*
X00178Y01171*
X00184Y01179*
X00188Y01189*
X00189Y0119*
G37*
G36*
X0014D02*
X0011D01*
X00111Y01189*
X00115Y01179*
X00121Y01171*
X00129Y01165*
X00139Y01161*
X0014Y0116*
Y0119*
G37*
G36*
X00268Y01245D02*
X00256Y01243D01*
X00245Y01239*
X00236Y01232*
X00228Y01222*
X00224Y01211*
X00222Y012*
X00224Y01188*
X00228Y01177*
X00236Y01167*
X00245Y0116*
X00256Y01156*
X00268Y01154*
X00279Y01156*
X0029Y0116*
X003Y01167*
X00307Y01177*
X00311Y01188*
X00313Y012*
X00311Y01211*
X00307Y01222*
X003Y01232*
X0029Y01239*
X00279Y01243*
X00268Y01245*
G37*
G36*
X0171Y0119D02*
X01699Y01188D01*
X01689Y01184*
X01681Y01178*
X01675Y0117*
X01671Y0116*
X01669Y0115*
X01671Y01139*
X01675Y01129*
X01681Y01121*
X01689Y01115*
X01699Y01111*
X0171Y01109*
X0172Y01111*
X0173Y01115*
X01738Y01121*
X01744Y01129*
X01748Y01139*
X0175Y0115*
X01748Y0116*
X01744Y0117*
X01738Y01178*
X0173Y01184*
X0172Y01188*
X0171Y0119*
G37*
G36*
X00935Y01128D02*
Y01105D01*
X00958*
X00955Y01112*
X00949Y01119*
X00942Y01125*
X00935Y01128*
G37*
G36*
X00915D02*
X00907Y01125D01*
X009Y01119*
X00894Y01112*
X00891Y01105*
X00915*
Y01128*
G37*
G36*
X0162Y0118D02*
X01608Y01178D01*
X01597Y01174*
X01587Y01167*
X0158Y01157*
X01576Y01146*
X01574Y01135*
X01576Y01123*
X0158Y01112*
X01587Y01102*
X01597Y01095*
X01608Y01091*
X0162Y01089*
X01631Y01091*
X01642Y01095*
X01652Y01102*
X01659Y01112*
X01663Y01123*
X01665Y01135*
X01663Y01146*
X01659Y01157*
X01652Y01167*
X01642Y01174*
X01631Y01178*
X0162Y0118*
G37*
G36*
X00958Y01085D02*
X00935D01*
Y01061*
X00942Y01064*
X00949Y0107*
X00955Y01077*
X00958Y01085*
G37*
G36*
X00915D02*
X00891D01*
X00894Y01077*
X009Y0107*
X00907Y01064*
X00915Y01061*
Y01085*
G37*
G36*
X00705Y0114D02*
X00694Y01138D01*
X00684Y01134*
X00676Y01128*
X0067Y0112*
X00666Y0111*
X00664Y011*
X00666Y01089*
X0067Y01079*
X00676Y01071*
X00684Y01065*
X00694Y01061*
X00705Y01059*
X00715Y01061*
X00725Y01065*
X00733Y01071*
X00739Y01079*
X00743Y01089*
X00745Y011*
X00743Y0111*
X00739Y0112*
X00733Y01128*
X00725Y01134*
X00715Y01138*
X00705Y0114*
G37*
G36*
X0117Y01172D02*
X01162Y01171D01*
X01156Y01169*
X0115Y01164*
X01145Y01158*
X01143Y01152*
X01142Y01145*
X01143Y01137*
X01145Y01131*
X0115Y01125*
Y01124*
X01145Y01118*
X01143Y01112*
X01142Y01105*
X01143Y01097*
X01145Y01091*
X0115Y01085*
Y01084*
X01145Y01078*
X01143Y01072*
X01142Y01065*
X01143Y01057*
X01145Y01051*
X0115Y01045*
X01156Y0104*
X01162Y01038*
X0117Y01037*
X01177Y01038*
X01183Y0104*
X01189Y01045*
X01194Y01051*
X01196Y01057*
X01197Y01065*
X01196Y01072*
X01194Y01078*
X01189Y01084*
Y01085*
X01194Y01091*
X01196Y01097*
X01197Y01105*
X01196Y01112*
X01194Y01118*
X01189Y01124*
Y01125*
X01194Y01131*
X01196Y01137*
X01197Y01145*
X01196Y01152*
X01194Y01158*
X01189Y01164*
X01183Y01169*
X01177Y01171*
X0117Y01172*
G37*
G36*
X00268Y01127D02*
X00256Y01125D01*
X00245Y01121*
X00236Y01113*
X00228Y01104*
X00224Y01093*
X00222Y01081*
X00224Y0107*
X00228Y01059*
X00236Y01049*
X00245Y01042*
X00256Y01038*
X00268Y01036*
X00279Y01038*
X0029Y01042*
X003Y01049*
X00307Y01059*
X00311Y0107*
X00313Y01081*
X00311Y01093*
X00307Y01104*
X003Y01113*
X0029Y01121*
X00279Y01125*
X00268Y01127*
G37*
G36*
X0015D02*
X00138Y01125D01*
X00127Y01121*
X00117Y01113*
X0011Y01104*
X00106Y01093*
X00104Y01081*
X00106Y0107*
X0011Y01059*
X00117Y01049*
X00127Y01042*
X00138Y01038*
X0015Y01036*
X00161Y01038*
X00172Y01042*
X00182Y01049*
X00189Y01059*
X00193Y0107*
X00195Y01081*
X00193Y01093*
X00189Y01104*
X00182Y01113*
X00172Y01121*
X00161Y01125*
X0015Y01127*
G37*
G36*
X00386Y0108D02*
X00377Y01078D01*
X00368Y01075*
X00361Y01069*
X00355Y01062*
X00352Y01054*
X0035Y01044*
X00352Y01035*
X00355Y01027*
X00361Y01019*
X00368Y01014*
X00377Y0101*
X00386Y01009*
X00395Y0101*
X00403Y01014*
X00411Y01019*
X00416Y01027*
X0042Y01035*
X00421Y01044*
X0042Y01054*
X00416Y01062*
X00411Y01069*
X00403Y01075*
X00395Y01078*
X00386Y0108*
G37*
G36*
X01432Y01031D02*
X01422Y0103D01*
X01414Y01026*
X01407Y01021*
X01401Y01013*
X01397Y01005*
X01396Y00996*
X01397Y00987*
X01401Y00978*
X01407Y00971*
X01414Y00965*
X01422Y00962*
X01432Y0096*
X01441Y00962*
X01449Y00965*
X01456Y00971*
X01462Y00978*
X01466Y00987*
X01467Y00996*
X01466Y01005*
X01462Y01013*
X01456Y01021*
X01449Y01026*
X01441Y0103*
X01432Y01031*
G37*
G36*
X00507Y0104D02*
X00497Y01038D01*
X00487Y01034*
X00478Y01028*
X00472Y0102*
X00468Y0101*
X00467Y01*
X00468Y00989*
X00472Y00979*
X00478Y00971*
X00487Y00965*
X00497Y00961*
X00507Y00959*
X00517Y00961*
X00527Y00965*
X00536Y00971*
X00542Y00979*
X00546Y00989*
X00547Y01*
X00546Y0101*
X00542Y0102*
X00536Y01028*
X00527Y01034*
X00517Y01038*
X00507Y0104*
G37*
G36*
X0154Y01035D02*
X01528Y01033D01*
X01517Y01029*
X01507Y01022*
X015Y01012*
X01496Y01001*
X01494Y0099*
X01496Y00978*
X015Y00967*
X01507Y00957*
X01517Y0095*
X01528Y00946*
X0154Y00944*
X01551Y00946*
X01562Y0095*
X01572Y00957*
X01579Y00967*
X01583Y00978*
X01585Y0099*
X01583Y01001*
X01579Y01012*
X01572Y01022*
X01562Y01029*
X01551Y01033*
X0154Y01035*
G37*
G36*
X01785Y01002D02*
X01777Y01001D01*
X01771Y00999*
X01765Y00994*
X0176Y00988*
X01758Y00982*
X01757Y00975*
X01755Y00972*
X01747Y00971*
X01741Y00969*
X01735Y00964*
X0173Y00958*
X01728Y00952*
X01727Y00945*
X01728Y00937*
X0173Y00931*
X01735Y00925*
X01741Y0092*
X01747Y00918*
X01755Y00917*
X01762Y00918*
X01768Y0092*
X01774Y00925*
X01779Y00931*
X01781Y00937*
X01782Y00945*
X01785Y00947*
X01792Y00948*
X01798Y0095*
X01804Y00955*
X01809Y00961*
X01811Y00967*
X01812Y00975*
X01811Y00982*
X01809Y00988*
X01804Y00994*
X01798Y00999*
X01792Y01001*
X01785Y01002*
G37*
G36*
X01165Y00942D02*
X01157Y00941D01*
X01151Y00938*
X01145Y00933*
X0114Y00928*
X01138Y00921*
X01137Y00914*
X01137Y00914*
X01129Y00913*
X01123Y00911*
X01117Y00906*
X01113Y009*
X0111Y00894*
X01109Y00887*
X01102Y00886*
X01096Y00884*
X0109Y00879*
X01085Y00873*
X01083Y00867*
X01082Y0086*
X01075Y00859*
X01069Y00856*
X01063Y00852*
X01058Y00846*
X01056Y0084*
X01055Y00833*
X01048Y00832*
X01041Y00829*
X01036Y00825*
X01031Y00819*
X01029Y00812*
X01028Y00805*
X01029Y00798*
X01031Y00791*
X01036Y00786*
X01041Y00781*
X01048Y00779*
X01055Y00778*
X01062Y00779*
X01069Y00781*
X01075Y00786*
X01079Y00791*
X01082Y00798*
X01083Y00805*
X0109Y00806*
X01096Y00808*
X01102Y00813*
X01106Y00819*
X01109Y00825*
X0111Y00832*
X01117Y00833*
X01123Y00835*
X01129Y0084*
X01134Y00846*
X01136Y00852*
X01137Y00859*
X01144Y0086*
X0115Y00863*
X01156Y00867*
X01161Y00873*
X01163Y00879*
X01164Y00886*
X01165Y00886*
X01172Y00887*
X01178Y0089*
X01184Y00894*
X01189Y009*
X01191Y00907*
X01192Y00914*
X01191Y00921*
X01189Y00928*
X01184Y00933*
X01178Y00938*
X01172Y00941*
X01165Y00942*
G37*
G36*
X0093Y0098D02*
X00919Y00978D01*
X00909Y00974*
X00901Y00968*
X00895Y0096*
X00891Y0095*
X00889Y0094*
X00891Y00929*
X00895Y00919*
X00901Y00911*
X00909Y00905*
X00919Y00901*
X0093Y00899*
X0094Y00901*
X0095Y00905*
X00958Y00911*
X00964Y00919*
X00968Y00929*
X0097Y0094*
X00968Y0095*
X00964Y0096*
X00958Y00968*
X0095Y00974*
X0094Y00978*
X0093Y0098*
G37*
G36*
X01625Y00945D02*
X01617Y00944D01*
X01611Y00941*
X01605Y00937*
X016Y00931*
X01598Y00924*
X01597Y00917*
X01598Y0091*
X016Y00903*
X01605Y00897*
X01611Y00893*
X01617Y0089*
X01625Y00889*
X01632Y0089*
X01638Y00893*
X01644Y00897*
X01649Y00903*
X01651Y0091*
X01652Y00917*
X01651Y00924*
X01649Y00931*
X01644Y00937*
X01638Y00941*
X01632Y00944*
X01625Y00945*
G37*
G36*
X00165Y00953D02*
X00154Y00951D01*
X00145Y00947*
X00136Y00941*
X0013Y00933*
X00126Y00923*
X00125Y00913*
X00126Y00902*
X0013Y00892*
X00136Y00884*
X00145Y00878*
X00154Y00874*
X00165Y00872*
X00175Y00874*
X00185Y00878*
X00193Y00884*
X002Y00892*
X00204Y00902*
X00205Y00913*
X00204Y00923*
X002Y00933*
X00193Y00941*
X00185Y00947*
X00175Y00951*
X00165Y00953*
G37*
G36*
X01395Y00923D02*
X01383Y00921D01*
X01372Y00917*
X01362Y0091*
X01355Y009*
X01351Y00889*
X01349Y00878*
X01351Y00866*
X01355Y00855*
X01362Y00846*
X01372Y00838*
X01383Y00834*
X01395Y00832*
X01406Y00834*
X01417Y00838*
X01427Y00846*
X01434Y00855*
X01438Y00866*
X0144Y00878*
X01438Y00889*
X01434Y009*
X01427Y0091*
X01417Y00917*
X01406Y00921*
X01395Y00923*
G37*
G36*
X01745Y00867D02*
X01737Y00866D01*
X01731Y00864*
X01725Y00859*
X0172Y00853*
X01718Y00847*
X01717Y0084*
X01718Y00832*
X0172Y00826*
X01725Y0082*
X01731Y00815*
X01737Y00813*
X01745Y00812*
X01752Y00813*
X01758Y00815*
X01764Y0082*
X01769Y00826*
X01771Y00832*
X01772Y0084*
X01771Y00847*
X01769Y00853*
X01764Y00859*
X01758Y00864*
X01752Y00866*
X01745Y00867*
G37*
G36*
X00795Y00875D02*
X00784Y00873D01*
X00774Y00869*
X00766Y00863*
X0076Y00855*
X00756Y00845*
X00754Y00835*
X00756Y00824*
X0076Y00814*
X00766Y00806*
X00774Y008*
X00784Y00796*
X00795Y00794*
X00805Y00796*
X00815Y008*
X00823Y00806*
X00829Y00814*
X00833Y00824*
X00835Y00835*
X00833Y00845*
X00829Y00855*
X00823Y00863*
X00815Y00869*
X00805Y00873*
X00795Y00875*
G37*
G36*
X01276Y00923D02*
X01265Y00921D01*
X01254Y00917*
X01244Y0091*
X01237Y009*
X01233Y00889*
X01231Y00878*
X01233Y00866*
X01237Y00855*
X01244Y00846*
X01253Y00839*
X01255Y00837*
X01255Y00837*
X01255Y00832*
X01253Y00827*
X01252Y0082*
X01253Y00812*
X01255Y00806*
X01257Y00804*
X01255Y00799*
X01254Y00799*
X01244Y00792*
X01237Y00782*
X01233Y00771*
X01231Y0076*
X01233Y00748*
X01237Y00737*
X01233Y00734*
X01227Y00736*
X0122Y00737*
X01212Y00736*
X01206Y00734*
X012Y00729*
X01195Y00723*
X01193Y00717*
X01192Y0071*
X01193Y00702*
X01195Y00696*
X012Y0069*
X01206Y00685*
X01212Y00683*
X0122Y00682*
X01227Y00683*
X01233Y00685*
X01239Y0069*
X01244Y00696*
X01246Y00702*
X01247Y0071*
X01246Y00717*
X01245Y00721*
X01249Y00724*
X01254Y0072*
X01265Y00716*
X01276Y00714*
X01288Y00716*
X01299Y0072*
X01308Y00727*
X01316Y00737*
X0132Y00748*
X01322Y0076*
X0132Y00771*
X01316Y00782*
X01308Y00792*
X01302Y00796*
X01302Y00796*
X01301Y00803*
X01301Y00803*
X01304Y00806*
X01306Y00812*
X01307Y0082*
X01306Y00827*
X01304Y00833*
X01299Y00839*
X01308Y00846*
X01316Y00855*
X0132Y00866*
X01322Y00878*
X0132Y00889*
X01316Y009*
X01308Y0091*
X01299Y00917*
X01288Y00921*
X01276Y00923*
G37*
G36*
X01395Y00805D02*
X01383Y00803D01*
X01372Y00799*
X01362Y00792*
X01355Y00782*
X01351Y00771*
X01349Y0076*
X01351Y00748*
X01355Y00737*
X01362Y00727*
X01372Y0072*
X01383Y00716*
X01395Y00714*
X01406Y00716*
X01417Y0072*
X01427Y00727*
X01434Y00737*
X01438Y00748*
X0144Y0076*
X01438Y00771*
X01434Y00782*
X01427Y00792*
X01417Y00799*
X01406Y00803*
X01395Y00805*
G37*
G36*
X00594Y00813D02*
X00587Y00812D01*
X0058Y00809*
X00574Y00805*
X0057Y00799*
X00567Y00792*
X00566Y00785*
X00567Y00778*
X0057Y00771*
X00574Y00765*
X0058Y00761*
X00587Y00758*
X00588Y00758*
X00592Y00753*
X00592Y0075*
X00593Y00742*
X00595Y00736*
X006Y0073*
X00606Y00725*
X00612Y00723*
X0062Y00722*
X00622Y00722*
X00628Y00718*
X00628Y00717*
X0063Y00711*
X00635Y00705*
X00641Y007*
X00647Y00698*
X00655Y00697*
X00662Y00698*
X00668Y007*
X00674Y00705*
X00679Y00711*
X0068Y00714*
X00686Y00715*
X00692Y00713*
X007Y00712*
X00707Y00713*
X00713Y00715*
X00719Y0072*
X00724Y00726*
X00726Y00732*
X00727Y0074*
X00726Y00747*
X00724Y00753*
X00719Y00759*
X00713Y00764*
X00707Y00766*
X007Y00767*
X00692Y00766*
X00686Y00764*
X0068Y00759*
X00675Y00753*
X00674Y0075*
X00668Y00749*
X00662Y00751*
X00655Y00752*
X00652Y00752*
X00646Y00756*
X00646Y00757*
X00644Y00763*
X00639Y00769*
X00633Y00774*
X00627Y00776*
X00626Y00776*
X00621Y00782*
X00622Y00785*
X00621Y00792*
X00618Y00799*
X00614Y00805*
X00608Y00809*
X00601Y00812*
X00594Y00813*
G37*
G36*
X01286Y0068D02*
Y00651D01*
X01315*
X01315Y00652*
X01311Y00662*
X01305Y0067*
X01297Y00676*
X01287Y0068*
X01286Y0068*
G37*
G36*
X01266D02*
X01266Y0068D01*
X01256Y00676*
X01248Y0067*
X01241Y00662*
X01237Y00652*
X01237Y00651*
X01266*
Y0068*
G37*
G36*
X01315Y00631D02*
X01286D01*
Y00602*
X01287Y00602*
X01297Y00606*
X01305Y00613*
X01311Y00621*
X01315Y00631*
X01315Y00631*
G37*
G36*
X01266D02*
X01237D01*
X01237Y00631*
X01241Y00621*
X01248Y00613*
X01256Y00606*
X01266Y00602*
X01266Y00602*
Y00631*
G37*
G36*
X00045Y00657D02*
X00037Y00656D01*
X00031Y00654*
X00025Y00649*
X0002Y00643*
X00018Y00637*
X00017Y0063*
X00018Y00622*
X0002Y00616*
X00025Y0061*
X00031Y00605*
X00037Y00603*
X00045Y00602*
X00052Y00603*
X00058Y00605*
X00064Y0061*
X00069Y00616*
X00071Y00622*
X00072Y0063*
X00071Y00637*
X00069Y00643*
X00064Y00649*
X00058Y00654*
X00052Y00656*
X00045Y00657*
G37*
G36*
X01395Y00687D02*
X01383Y00685D01*
X01372Y00681*
X01362Y00673*
X01355Y00664*
X01351Y00653*
X01349Y00641*
X01351Y0063*
X01355Y00619*
X01362Y00609*
X01372Y00602*
X01383Y00598*
X01395Y00596*
X01406Y00598*
X01417Y00602*
X01427Y00609*
X01434Y00619*
X01438Y0063*
X0144Y00641*
X01438Y00653*
X01434Y00664*
X01427Y00673*
X01417Y00681*
X01406Y00685*
X01395Y00687*
G37*
G36*
X0194Y00569D02*
X01939Y00568D01*
X01929Y00564*
X01921Y00558*
X01915Y0055*
X01911Y0054*
X0191Y0054*
X0194*
Y00569*
G37*
G36*
X01545Y006D02*
X01533Y00598D01*
X01522Y00594*
X01512Y00587*
X01505Y00577*
X01501Y00566*
X01499Y00555*
X01501Y00543*
X01505Y00532*
X01512Y00522*
X01522Y00515*
X01533Y00511*
X01545Y00509*
X01556Y00511*
X01567Y00515*
X01577Y00522*
X01584Y00532*
X01588Y00543*
X0159Y00555*
X01588Y00566*
X01584Y00577*
X01577Y00587*
X01567Y00594*
X01556Y00598*
X01545Y006*
G37*
G36*
X0194Y0052D02*
X0191D01*
X01911Y00519*
X01915Y00509*
X01921Y00501*
X01929Y00495*
X01939Y00491*
X0194Y0049*
Y0052*
G37*
G36*
X01432Y00559D02*
X01422Y00557D01*
X01414Y00554*
X01407Y00548*
X01401Y00541*
X01397Y00532*
X01396Y00523*
X01397Y00514*
X01401Y00506*
X01407Y00498*
X01414Y00493*
X01422Y00489*
X01432Y00488*
X01441Y00489*
X01449Y00493*
X01456Y00498*
X01462Y00506*
X01466Y00514*
X01467Y00523*
X01466Y00532*
X01462Y00541*
X01456Y00548*
X01449Y00554*
X01441Y00557*
X01432Y00559*
G37*
G36*
X00045Y00527D02*
X00037Y00526D01*
X00031Y00524*
X00025Y00519*
X0002Y00513*
X00018Y00507*
X00017Y005*
X00018Y00492*
X0002Y00486*
X00025Y0048*
X00031Y00475*
X00037Y00473*
X00045Y00472*
X00052Y00473*
X00058Y00475*
X00064Y0048*
X00069Y00486*
X00071Y00492*
X00072Y005*
X00071Y00507*
X00069Y00513*
X00064Y00519*
X00058Y00524*
X00052Y00526*
X00045Y00527*
G37*
G36*
X00645Y00652D02*
X00637Y00651D01*
X00631Y00649*
X00625Y00644*
X0062Y00638*
X00618Y00632*
X00617Y00625*
X00618Y00617*
X0062Y00611*
X00625Y00605*
X00628Y00602*
X00629Y00596*
X00628Y00596*
X00625Y00594*
X00621Y00588*
X00618Y00581*
X00617Y00574*
X00618Y00567*
X00621Y0056*
X00625Y00554*
X00628Y00552*
Y00546*
X00625Y00544*
X00621Y00538*
X00618Y00531*
X00617Y00524*
X00618Y00517*
X00621Y0051*
X00625Y00504*
X00628Y00502*
Y00496*
X00625Y00494*
X00621Y00488*
X00618Y00481*
X00617Y00474*
X00618Y00467*
X00621Y0046*
X00625Y00454*
X00631Y0045*
X00638Y00447*
X00645Y00446*
X00652Y00447*
X00659Y0045*
X00665Y00454*
X00669Y0046*
X00672Y00467*
X00673Y00474*
X00672Y00481*
X00669Y00488*
X00665Y00494*
X00661Y00496*
Y00502*
X00665Y00504*
X00669Y0051*
X00672Y00517*
X00673Y00524*
X00672Y00531*
X00669Y00538*
X00665Y00544*
X00661Y00546*
Y00552*
X00665Y00554*
X00669Y0056*
X00672Y00567*
X00673Y00574*
X00672Y00581*
X00669Y00588*
X00665Y00594*
X00661Y00596*
X00661Y00602*
X00661Y00602*
X00664Y00605*
X00669Y00611*
X00671Y00617*
X00672Y00625*
X00671Y00632*
X00669Y00638*
X00664Y00644*
X00658Y00649*
X00652Y00651*
X00645Y00652*
G37*
G36*
X0047Y00475D02*
X00458Y00473D01*
X00447Y00469*
X00437Y00462*
X0043Y00452*
X00426Y00441*
X00424Y0043*
X00426Y00418*
X0043Y00407*
X00437Y00397*
X00447Y0039*
X00458Y00386*
X0047Y00384*
X00481Y00386*
X00492Y0039*
X00502Y00397*
X00509Y00407*
X00513Y00418*
X00515Y0043*
X00513Y00441*
X00509Y00452*
X00502Y00462*
X00492Y00469*
X00481Y00473*
X0047Y00475*
G37*
G36*
X00125Y0036D02*
X00113Y00358D01*
X00102Y00354*
X00092Y00347*
X00085Y00337*
X00081Y00326*
X00079Y00315*
X00081Y00303*
X00085Y00292*
X00092Y00282*
X00102Y00275*
X00113Y00271*
X00125Y00269*
X00136Y00271*
X00147Y00275*
X00157Y00282*
X00164Y00292*
X00168Y00303*
X0017Y00315*
X00168Y00326*
X00164Y00337*
X00157Y00347*
X00147Y00354*
X00136Y00358*
X00125Y0036*
G37*
G36*
X00331Y00312D02*
X00322Y00311D01*
X00314Y00307*
X00306Y00301*
X00301Y00294*
X00297Y00286*
X00296Y00277*
X00297Y00267*
X00301Y00259*
X00306Y00252*
X00314Y00246*
X00322Y00242*
X00331Y00241*
X00341Y00242*
X00349Y00246*
X00356Y00252*
X00362Y00259*
X00365Y00267*
X00367Y00277*
X00365Y00286*
X00362Y00294*
X00356Y00301*
X00349Y00307*
X00341Y00311*
X00331Y00312*
G37*
G36*
X00878Y0031D02*
X00868Y00309D01*
X0086Y00305*
X00853Y003*
X00847Y00292*
X00844Y00284*
X00842Y00275*
X00844Y00265*
X00847Y00257*
X00853Y0025*
X0086Y00244*
X00868Y00241*
X00878Y00239*
X00887Y00241*
X00895Y00244*
X00903Y0025*
X00908Y00257*
X00912Y00265*
X00913Y00275*
X00912Y00284*
X00908Y00292*
X00903Y003*
X00895Y00305*
X00887Y00309*
X00878Y0031*
G37*
G36*
X00568Y00312D02*
X00558Y00311D01*
X0055Y00307*
X00543Y00301*
X00537Y00294*
X00534Y00286*
X00532Y00277*
X00534Y00267*
X00537Y00259*
X00543Y00252*
X0055Y00246*
X00558Y00242*
X00568Y00241*
X00577Y00242*
X00585Y00246*
X00593Y00252*
X00598Y00259*
X00602Y00267*
X00602Y00268*
X00607*
X00607Y00265*
X00611Y00257*
X00616Y0025*
X00624Y00244*
X00632Y00241*
X00641Y00239*
X00651Y00241*
X00659Y00244*
X00666Y0025*
X00672Y00257*
X00675Y00265*
X00677Y00275*
X00675Y00284*
X00672Y00292*
X00666Y003*
X00659Y00305*
X00651Y00309*
X00641Y0031*
X00632Y00309*
X00624Y00305*
X00616Y003*
X00611Y00292*
X00607Y00284*
X00607Y00283*
X00602*
X00602Y00286*
X00598Y00294*
X00593Y00301*
X00585Y00307*
X00577Y00311*
X00568Y00312*
G37*
G36*
X00975Y0032D02*
X00963Y00318D01*
X00952Y00314*
X00942Y00307*
X00935Y00297*
X00931Y00286*
X00929Y00275*
X00931Y00263*
X00935Y00252*
X00942Y00242*
X00952Y00235*
X00963Y00231*
X00975Y00229*
X00986Y00231*
X00997Y00235*
X01007Y00242*
X01014Y00252*
X01018Y00263*
X0102Y00275*
X01018Y00286*
X01014Y00297*
X01007Y00307*
X00997Y00314*
X00986Y00318*
X00975Y0032*
G37*
G36*
X0045Y00285D02*
X00438Y00283D01*
X00427Y00279*
X00417Y00272*
X0041Y00262*
X00406Y00251*
X00404Y0024*
X00406Y00228*
X0041Y00217*
X00417Y00207*
X00427Y002*
X00438Y00196*
X0045Y00194*
X00461Y00196*
X00472Y002*
X00482Y00207*
X00489Y00217*
X00493Y00228*
X00495Y0024*
X00493Y00251*
X00489Y00262*
X00482Y00272*
X00472Y00279*
X00461Y00283*
X0045Y00285*
G37*
G36*
X0076Y00283D02*
X00748Y00281D01*
X00737Y00277*
X00727Y0027*
X0072Y0026*
X00716Y00249*
X00714Y00238*
X00716Y00226*
X0072Y00215*
X00727Y00206*
X00737Y00198*
X00748Y00194*
X0076Y00192*
X00771Y00194*
X00782Y00198*
X00792Y00206*
X00799Y00215*
X00803Y00226*
X00805Y00238*
X00803Y00249*
X00799Y0026*
X00792Y0027*
X00782Y00277*
X00771Y00281*
X0076Y00283*
G37*
G36*
X01345Y00202D02*
X01335Y00201D01*
X01327Y00197*
X01323Y00195*
X0132Y00192*
X01316Y00195*
X01312Y00197*
X01304Y00201*
X01295Y00202*
X01285Y00201*
X01277Y00197*
X01273Y00195*
X0127Y00192*
X01266Y00195*
X01262Y00197*
X01254Y00201*
X01245Y00202*
X01235Y00201*
X01227Y00197*
X01223Y00195*
X0122Y00192*
X01216Y00195*
X01212Y00197*
X01204Y00201*
X01195Y00202*
X01185Y00201*
X01177Y00197*
X01173Y00195*
X0117Y00192*
X01166Y00195*
X01162Y00197*
X01154Y00201*
X01145Y00202*
X01135Y00201*
X01127Y00197*
X0112Y00192*
X01114Y00184*
X0111Y00176*
X01109Y00167*
X0111Y00158*
X01112Y00155*
X0111Y00152*
Y00082*
X0118*
Y00086*
X01184Y00089*
X01185Y00088*
Y00117*
X01205*
Y00088*
X0121Y0009*
X01216Y00095*
X01217Y00097*
X01222*
X01223Y00095*
X01229Y0009*
X01235Y00088*
Y00117*
X01255*
Y00088*
X0126Y0009*
X01266Y00095*
X01267*
X0127Y00092*
X01277Y00086*
X01285Y00083*
X01295Y00081*
X01304Y00083*
X01312Y00086*
X01319Y00092*
X01322Y00095*
X01323*
X01329Y0009*
X01335Y00088*
Y00117*
X01345*
Y00127*
X01373*
X01371Y00132*
X01366Y00138*
Y00139*
X01369Y00142*
X01375Y00149*
X01379Y00158*
X0138Y00167*
X01379Y00176*
X01375Y00184*
X01369Y00192*
X01362Y00197*
X01354Y00201*
X01345Y00202*
G37*
G36*
X01685Y00207D02*
X01677Y00206D01*
X01671Y00204*
X01665Y00199*
X0166Y00193*
X01658Y00187*
X01657Y0018*
X01658Y00172*
X0166Y00166*
X01665Y0016*
X01671Y00155*
X01677Y00153*
X01685Y00152*
X01692Y00153*
X01698Y00155*
X01704Y0016*
X01709Y00166*
X01711Y00172*
X01712Y0018*
X01711Y00187*
X01709Y00193*
X01704Y00199*
X01698Y00204*
X01692Y00206*
X01685Y00207*
G37*
G36*
X0046Y0016D02*
Y00131D01*
X00489*
X00488Y00132*
X00484Y00142*
X00478Y0015*
X0047Y00156*
X0046Y0016*
X0046Y0016*
G37*
G36*
X0044D02*
X00439Y0016D01*
X00429Y00156*
X00421Y0015*
X00415Y00142*
X00411Y00132*
X0041Y00131*
X0044*
Y0016*
G37*
G36*
X0077Y00159D02*
Y0013D01*
X00799*
X00798Y0013*
X00794Y0014*
X00788Y00148*
X0078Y00154*
X0077Y00158*
X0077Y00159*
G37*
G36*
X0075D02*
X00749Y00158D01*
X00739Y00154*
X00731Y00148*
X00725Y0014*
X00721Y0013*
X0072Y0013*
X0075*
Y00159*
G37*
G36*
X01373Y00107D02*
X01355D01*
Y00088*
X0136Y0009*
X01366Y00095*
X01371Y00102*
X01373Y00107*
G37*
G36*
X00489Y00111D02*
X0046D01*
Y00082*
X0046Y00082*
X0047Y00086*
X00478Y00093*
X00484Y00101*
X00488Y00111*
X00489Y00111*
G37*
G36*
X0044D02*
X0041D01*
X00411Y00111*
X00415Y00101*
X00421Y00093*
X00429Y00086*
X00439Y00082*
X0044Y00082*
Y00111*
G37*
G36*
X00799Y0011D02*
X0077D01*
Y0008*
X0077Y00081*
X0078Y00085*
X00788Y00091*
X00794Y00099*
X00798Y00109*
X00799Y0011*
G37*
G36*
X0075D02*
X0072D01*
X00721Y00109*
X00725Y00099*
X00731Y00091*
X00739Y00085*
X00749Y00081*
X0075Y0008*
Y0011*
G37*
G36*
X0185Y00228D02*
X01834Y00226D01*
X0182Y00222*
X01806Y00215*
X01794Y00205*
X01784Y00193*
X01777Y00179*
X01773Y00165*
X01771Y0015*
X01773Y00134*
X01777Y0012*
X01784Y00106*
X01794Y00094*
X01806Y00084*
X0182Y00077*
X01834Y00073*
X0185Y00071*
X01865Y00073*
X01879Y00077*
X01893Y00084*
X01905Y00094*
X01915Y00106*
X01922Y0012*
X01926Y00134*
X01928Y0015*
X01926Y00165*
X01922Y00179*
X01915Y00193*
X01905Y00205*
X01893Y00215*
X01879Y00222*
X01865Y00226*
X0185Y00228*
G37*
G36*
X0015D02*
X00134Y00226D01*
X0012Y00222*
X00106Y00215*
X00094Y00205*
X00084Y00193*
X00077Y00179*
X00073Y00165*
X00071Y0015*
X00073Y00134*
X00077Y0012*
X00084Y00106*
X00094Y00094*
X00106Y00084*
X0012Y00077*
X00134Y00073*
X0015Y00071*
X00165Y00073*
X00179Y00077*
X00193Y00084*
X00205Y00094*
X00215Y00106*
X00222Y0012*
X00226Y00134*
X00228Y0015*
X00226Y00165*
X00222Y00179*
X00215Y00193*
X00205Y00205*
X00193Y00215*
X00179Y00222*
X00165Y00226*
X0015Y00228*
G37*
%LNmotor_unit_rev_3-3*%
%LPD*%
G36*
X01335Y02685D02*
X01095Y02445D01*
X00848*
X00847Y02445*
X00836Y02449*
X00825Y02451*
X00813Y02449*
X00802Y02445*
X00801Y02445*
X00655*
X0045Y0265*
Y02704*
X00461Y02705*
X00472Y0271*
X00482Y02717*
X00489Y02727*
X00494Y02738*
X00495Y0275*
X00494Y02761*
X00489Y02772*
X00482Y02782*
X00479Y02785*
X0048Y0279*
X00527*
X00529Y02786*
X00529Y02785*
X00521Y02778*
X00514Y0277*
X0051Y0276*
X0051Y0276*
X00589*
X00589Y0276*
X00585Y0277*
X00578Y02778*
X0057Y02785*
X0057Y02786*
X00572Y0279*
X00627*
X00629Y02786*
X00629Y02785*
X00621Y02778*
X00614Y0277*
X0061Y0276*
X0061Y0276*
X00689*
X00689Y0276*
X00685Y0277*
X00678Y02778*
X0067Y02785*
X0067Y02786*
X00672Y0279*
X00727*
X00729Y02786*
X00729Y02785*
X00721Y02778*
X00714Y0277*
X0071Y0276*
X0071Y0276*
X00789*
X00789Y0276*
X00785Y0277*
X00778Y02778*
X0077Y02785*
X0077Y02786*
X00772Y0279*
X00827*
X00829Y02786*
X00829Y02785*
X00821Y02778*
X00814Y0277*
X0081Y0276*
X0081Y0276*
X00889*
X00889Y0276*
X00885Y0277*
X00878Y02778*
X0087Y02785*
X0087Y02786*
X00872Y0279*
X00927*
X00929Y02786*
X00929Y02785*
X00921Y02778*
X00914Y0277*
X0091Y0276*
X0091Y0276*
X00989*
X00989Y0276*
X00985Y0277*
X00978Y02778*
X0097Y02785*
X0097Y02786*
X00972Y0279*
X01027*
X01029Y02786*
X01029Y02785*
X01021Y02778*
X01014Y0277*
X0101Y0276*
X0101Y0276*
X01089*
X01089Y0276*
X01085Y0277*
X01078Y02778*
X0107Y02785*
X0107Y02786*
X01072Y0279*
X0112*
X0121Y0288*
X01231*
X01231Y02875*
X0122Y0287*
X0121Y02863*
X01203Y02853*
X01202Y0285*
X01244*
X01286*
X01284Y02853*
X01277Y02863*
X01267Y0287*
X01256Y02875*
X01257Y0288*
X01335*
Y02685*
G37*
G36*
X00648Y02437D02*
X00651Y02435D01*
X00655Y02434*
X00801*
X00803Y02435*
X00804Y02435*
X00805Y02435*
X00805Y02435*
X00806Y02435*
X00815Y02439*
X00825Y02441*
X00834Y02439*
X00843Y02435*
X00844Y02435*
X00844Y02435*
X00845Y02435*
X00846Y02435*
X00848Y02434*
X00885*
Y02265*
X00225*
Y02395*
X00365Y02558*
X0037Y02555*
X00368Y02542*
X0037Y02527*
X00374Y02512*
X00381Y02499*
X00391Y02488*
X00402Y02478*
X00415Y02471*
X0043Y02467*
X00444Y02466*
X00459Y02467*
X00473Y02471*
X00487Y02478*
X00498Y02488*
X00508Y02499*
X00515Y02512*
X00519Y02527*
X0052Y02542*
X00519Y02556*
X00518Y02561*
X00522Y02563*
X00648Y02437*
G37*
G36*
X00885Y0209D02*
X00796D01*
X00795Y02095*
X00804Y02099*
X00814Y02108*
X00823Y02118*
X00828Y02128*
X00765*
X00701*
X00706Y02118*
X00715Y02108*
X00725Y02099*
X00734Y02095*
X00733Y0209*
X0063*
X006Y0206*
Y0181*
X00494*
X00492Y01814*
X00498Y01819*
X00508Y0183*
X00515Y01844*
X00519Y01858*
X0052Y01873*
X00519Y01887*
X00515Y01902*
X00508Y01915*
X00498Y01926*
X00487Y01936*
X00473Y01943*
X00459Y01947*
X00444Y01949*
X0043Y01947*
X00415Y01943*
X00402Y01936*
X00391Y01926*
X00381Y01915*
X00374Y01902*
X0037Y01887*
X00368Y01873*
X0037Y01858*
X00374Y01844*
X00381Y0183*
X00391Y01819*
X00396Y01814*
X00395Y0181*
X00359*
X00358Y0181*
X00354Y0182*
X00348Y01828*
X0034Y01834*
X0033Y01838*
X0032Y0184*
X00309Y01838*
X00299Y01834*
X00291Y01828*
X00285Y0182*
X00281Y0181*
X0028Y0181*
X00225*
Y02255*
X00885*
Y0209*
G37*
%LNmotor_unit_rev_3-4*%
%LPC*%
G36*
X01286Y0281D02*
X01264D01*
Y02788*
X01267Y02789*
X01277Y02796*
X01284Y02806*
X01286Y0281*
G37*
G36*
X01224D02*
X01202D01*
X01203Y02806*
X0121Y02796*
X0122Y02789*
X01224Y02788*
Y0281*
G37*
G36*
X01089Y0274D02*
X0106D01*
Y0271*
X0106Y0271*
X0107Y02714*
X01078Y02721*
X01085Y02729*
X01089Y02739*
X01089Y0274*
G37*
G36*
X0104D02*
X0101D01*
X0101Y02739*
X01014Y02729*
X01021Y02721*
X01029Y02714*
X01039Y0271*
X0104Y0271*
Y0274*
G37*
G36*
X00989D02*
X0096D01*
Y0271*
X0096Y0271*
X0097Y02714*
X00978Y02721*
X00985Y02729*
X00989Y02739*
X00989Y0274*
G37*
G36*
X0094D02*
X0091D01*
X0091Y02739*
X00914Y02729*
X00921Y02721*
X00929Y02714*
X00939Y0271*
X0094Y0271*
Y0274*
G37*
G36*
X00889D02*
X0086D01*
Y0271*
X0086Y0271*
X0087Y02714*
X00878Y02721*
X00885Y02729*
X00889Y02739*
X00889Y0274*
G37*
G36*
X0084D02*
X0081D01*
X0081Y02739*
X00814Y02729*
X00821Y02721*
X00829Y02714*
X00839Y0271*
X0084Y0271*
Y0274*
G37*
G36*
X00789D02*
X0076D01*
Y0271*
X0076Y0271*
X0077Y02714*
X00778Y02721*
X00785Y02729*
X00789Y02739*
X00789Y0274*
G37*
G36*
X0074D02*
X0071D01*
X0071Y02739*
X00714Y02729*
X00721Y02721*
X00729Y02714*
X00739Y0271*
X0074Y0271*
Y0274*
G37*
G36*
X00689D02*
X0066D01*
Y0271*
X0066Y0271*
X0067Y02714*
X00678Y02721*
X00685Y02729*
X00689Y02739*
X00689Y0274*
G37*
G36*
X0064D02*
X0061D01*
X0061Y02739*
X00614Y02729*
X00621Y02721*
X00629Y02714*
X00639Y0271*
X0064Y0271*
Y0274*
G37*
G36*
X00589D02*
X0056D01*
Y0271*
X0056Y0271*
X0057Y02714*
X00578Y02721*
X00585Y02729*
X00589Y02739*
X00589Y0274*
G37*
G36*
X0054D02*
X0051D01*
X0051Y02739*
X00514Y02729*
X00521Y02721*
X00529Y02714*
X00539Y0271*
X0054Y0271*
Y0274*
G37*
G36*
X00835Y02645D02*
Y02616D01*
X00864*
X00863Y02616*
X00859Y02626*
X00853Y02634*
X00845Y0264*
X00835Y02644*
X00835Y02645*
G37*
G36*
X0074Y02617D02*
X00738Y02616D01*
X00725Y0261*
X00715Y02601*
X00706Y02591*
X007Y02578*
X00699Y02577*
X0074*
Y02617*
G37*
G36*
Y02527D02*
X00699D01*
X007Y02525*
X00706Y02512*
X00715Y02502*
X00725Y02493*
X00738Y02487*
X0074Y02486*
Y02527*
G37*
G36*
X00864Y02496D02*
X00835D01*
Y02466*
X00835Y02467*
X00845Y02471*
X00853Y02477*
X00859Y02485*
X00863Y02495*
X00864Y02496*
G37*
G36*
X00815Y02645D02*
X00814Y02644D01*
X00804Y0264*
X00796Y02634*
X0079Y02626*
X0079Y02626*
Y02552*
Y02485*
X0079Y02485*
X00796Y02477*
X00804Y02471*
X00814Y02467*
X00815Y02466*
Y02506*
X00825*
Y02516*
X00864*
X00863Y02516*
X00859Y02526*
X00853Y02534*
X00845Y0254*
X00835Y02544*
X00834Y02545*
X00835Y02552*
X00833Y02565*
X00834Y02566*
X00835Y02567*
X00845Y02571*
X00853Y02577*
X00859Y02585*
X00863Y02595*
X00864Y02596*
X00825*
Y02606*
X00815*
Y02645*
G37*
G36*
X00795Y02418D02*
Y02385D01*
X00828*
X00823Y02394*
X00814Y02404*
X00804Y02413*
X00795Y02418*
G37*
G36*
X00735D02*
X00725Y02413D01*
X00715Y02404*
X00706Y02394*
X00701Y02385*
X00735*
Y02418*
G37*
G36*
X0046Y02415D02*
Y0238D01*
X00495*
X00489Y02391*
X00481Y02401*
X00471Y02409*
X0046Y02415*
G37*
G36*
X00284D02*
X00273Y02409D01*
X00263Y02401*
X00255Y02391*
X00249Y0238*
X00284*
Y02415*
G37*
G36*
X00495Y0233D02*
X0046D01*
Y02294*
X00471Y023*
X00481Y02308*
X00489Y02318*
X00495Y0233*
G37*
G36*
X00284D02*
X00249D01*
X00255Y02318*
X00263Y02308*
X00273Y023*
X00284Y02294*
Y0233*
G37*
G36*
X00334Y02415D02*
Y02355D01*
Y02294*
X00346Y023*
X00355Y02308*
X0036Y02314*
X00384*
X00388Y02308*
X00398Y023*
X0041Y02294*
Y02355*
Y02415*
X00398Y02409*
X00388Y02401*
X00384Y02395*
X0036*
X00355Y02401*
X00346Y02409*
X00334Y02415*
G37*
G36*
X00828Y02325D02*
X00795D01*
Y02291*
X00804Y02296*
X00814Y02305*
X00823Y02315*
X00828Y02325*
G37*
G36*
X00735D02*
X00701D01*
X00706Y02315*
X00715Y02305*
X00725Y02296*
X00735Y02291*
Y02325*
G37*
G36*
X00795Y02221D02*
Y02188D01*
X00828*
X00823Y02197*
X00814Y02207*
X00804Y02216*
X00795Y02221*
G37*
G36*
X00735D02*
X00725Y02216D01*
X00715Y02207*
X00706Y02197*
X00701Y02188*
X00735*
Y02221*
G37*
G36*
X0046Y0212D02*
Y02085D01*
X00495*
X00489Y02096*
X00481Y02106*
X00471Y02114*
X0046Y0212*
G37*
G36*
X00284D02*
X00273Y02114D01*
X00263Y02106*
X00255Y02096*
X00249Y02085*
X00284*
Y0212*
G37*
G36*
X00495Y02035D02*
X0046D01*
Y01999*
X00471Y02005*
X00481Y02013*
X00489Y02023*
X00495Y02035*
G37*
G36*
X00284D02*
X00249D01*
X00255Y02023*
X00263Y02013*
X00273Y02005*
X00284Y01999*
Y02035*
G37*
G36*
X00334Y0212D02*
Y0206D01*
Y01999*
X00346Y02005*
X00355Y02013*
X0036Y02019*
X00384*
X00388Y02013*
X00398Y02005*
X0041Y01999*
Y0206*
Y0212*
X00398Y02114*
X00388Y02106*
X00384Y021*
X0036*
X00355Y02106*
X00346Y02114*
X00334Y0212*
G37*
%LNmotor_unit_rev_3-5*%
%LPD*%
G54D54*
X00309Y02355D02*
X00435D01*
X00309Y0206D02*
X00435D01*
X00765Y02158D02*
X00768Y02155D01*
G54D59*
X01195Y00117D03*
X01245D03*
X01345D03*
G54D60*
X0195Y0053D03*
X0006Y02685D03*
X0045Y00121D03*
X0015Y0165D03*
X01276Y00641D03*
X0015Y012D03*
X0076Y0012D03*
X00825Y02606D03*
Y02506D03*
Y02406D03*
Y02306D03*
Y02206D03*
Y02106D03*
G54D61*
X00435Y02355D03*
X00309D03*
X00435Y0206D03*
X00309D03*
G54D62*
X017Y01522D03*
X01955D03*
G54D63*
X015Y0283D03*
X01244D03*
G54D66*
X00765Y01961D03*
G54D67*
X00765Y02158D03*
Y02355D03*
Y02552D03*
G54D68*
X01825Y01906D03*
X01925D03*
X00825Y02006D03*
Y01906D03*
G54D69*
X0105Y0275D03*
X0095D03*
X0085D03*
X0075D03*
X0065D03*
X0055D03*
X0105Y0285D03*
X0095D03*
X0085D03*
X0075D03*
X0065D03*
X0055D03*
G54D71*
X0124Y01713D03*
X0139Y02355D03*
G54D72*
X0032Y018D03*
X0142Y029D03*
X0139Y025D03*
X01515Y0236D03*
X0102Y01915D03*
X01276Y0273D03*
X01095Y02555D03*
X00965D03*
X00569Y0172D03*
X00925Y01095D03*
X01115Y0209D03*
X01525Y02195D03*
M02*