%FSTAX23Y23*%
%MOIN*%
%SFA1B1*%

%IPPOS*%
%ADD10C,0.010000*%
%ADD11C,0.007870*%
%ADD12C,0.009840*%
%ADD13C,0.015750*%
%ADD14C,0.003940*%
%ADD15C,0.005000*%
%LNmotor_unit_rev_3-1*%
%LPD*%
G36*
X01655Y00876D02*
X01659D01*
Y00876*
X0166*
Y00876*
X0166*
Y00876*
X01661*
Y00876*
X01662*
Y00876*
X01662*
Y00875*
X01666*
Y00874*
X01667*
Y00875*
X01667*
Y00874*
X01669*
Y00874*
X0167*
Y00873*
X01671*
Y00874*
X01671*
Y00873*
X01673*
Y00872*
X01677*
Y00872*
X01678*
Y00872*
X01678*
Y00872*
X0168*
Y00871*
X01681*
Y0087*
X01682*
Y00871*
X01682*
Y0087*
X01685*
Y0087*
X01688*
Y00869*
X01689*
Y0087*
X01689*
Y00869*
X0169*
Y00868*
X01692*
Y00867*
X01693*
Y00868*
X01693*
Y00867*
X01696*
Y00867*
X01696*
Y00866*
X01697*
Y00867*
X01698*
Y00865*
X01699*
Y00865*
X017*
Y00864*
X017*
Y00863*
X01701*
Y00863*
X01702*
Y00861*
X01702*
Y0086*
X01703*
Y00858*
X01704*
Y00857*
X01703*
Y00856*
X01704*
Y00854*
X01705*
Y00854*
X01704*
Y00853*
X01705*
Y00852*
X01704*
Y00852*
X01705*
Y00851*
X01704*
Y0085*
X01705*
Y00849*
X01704*
Y00849*
X01705*
Y00848*
X01704*
Y00847*
X01705*
Y00847*
X01704*
Y00846*
X01705*
Y00845*
X01704*
Y00845*
X01705*
Y00844*
X01702*
Y00845*
X01702*
Y00844*
X01701*
Y00845*
X01699*
Y00845*
X01697*
Y00846*
X01696*
Y00845*
X01696*
Y00846*
X01693*
Y00847*
X01691*
Y00847*
X01691*
Y00847*
X0169*
Y00847*
X01688*
Y00848*
X01686*
Y00849*
X01685*
Y00848*
X01685*
Y00849*
X01682*
Y00849*
X0168*
Y0085*
X0168*
Y00849*
X01679*
Y0085*
X01677*
Y00851*
X01675*
Y00852*
X01674*
Y00851*
X01673*
Y00852*
X01671*
Y00852*
X01669*
Y00853*
X01669*
Y00852*
X01668*
Y00853*
X01666*
Y00854*
X01662*
Y00853*
X0166*
Y00851*
X0166*
Y00849*
X01659*
Y00848*
X0166*
Y00846*
X0166*
Y00844*
X01661*
Y00843*
X01662*
Y00843*
X01662*
Y00842*
X01663*
Y00841*
X01664*
Y00842*
X01664*
Y00841*
X01666*
Y0084*
X01667*
Y0084*
X01668*
Y0084*
X01669*
Y0084*
X01671*
Y00839*
X01674*
Y00838*
X01675*
Y00839*
X01676*
Y00838*
X01676*
Y00838*
X01678*
Y00837*
X01679*
Y00838*
X0168*
Y00837*
X01682*
Y00836*
X01685*
Y00836*
X01686*
Y00836*
X01687*
Y00836*
X01687*
Y00835*
X01689*
Y00834*
X0169*
Y00835*
X01691*
Y00834*
X01693*
Y00834*
X01695*
Y00833*
X01696*
Y00834*
X01696*
Y00833*
X01697*
Y00834*
X01698*
Y00833*
X01698*
Y00832*
X017*
Y00831*
X01701*
Y00832*
X01702*
Y00831*
X01704*
Y00831*
X01705*
Y0083*
X01704*
Y00829*
X01705*
Y00829*
X01704*
Y00828*
X01705*
Y00827*
X01704*
Y00827*
X01705*
Y00826*
X01704*
Y00825*
X01705*
Y00825*
X01704*
Y00824*
X01705*
Y00823*
X01704*
Y00822*
X01705*
Y00822*
X01704*
Y00821*
X01705*
Y0082*
X01704*
Y0082*
X01705*
Y00819*
X01704*
Y00818*
X01705*
Y00818*
X01704*
Y00817*
X01705*
Y00816*
X01704*
Y00816*
X01705*
Y00815*
X01704*
Y00814*
X01705*
Y00814*
X01704*
Y00813*
X01705*
Y00812*
X01704*
Y00811*
X01705*
Y00811*
X01704*
Y0081*
X01702*
Y00811*
X017*
Y00811*
X01699*
Y00811*
X01698*
Y00811*
X01696*
Y00812*
X01694*
Y00813*
X01693*
Y00812*
X01693*
Y00813*
X01691*
Y00814*
X01689*
Y00814*
X01688*
Y00814*
X01687*
Y00814*
X01685*
Y00815*
X01683*
Y00816*
X01682*
Y00815*
X01682*
Y00816*
X0168*
Y00816*
X01678*
Y00817*
X01677*
Y00816*
X01676*
Y00817*
X01674*
Y00818*
X01672*
Y00818*
X01671*
Y00818*
X01671*
Y00818*
X01669*
Y00819*
X01667*
Y0082*
X01666*
Y00819*
X01665*
Y0082*
X01664*
Y00819*
X01664*
Y0082*
X01662*
Y00819*
X01661*
Y0082*
X0166*
Y00819*
X01661*
Y00818*
X0166*
Y00818*
X0166*
Y00816*
X01659*
Y00815*
X0166*
Y00814*
X01659*
Y00814*
X0166*
Y00813*
X0166*
Y00812*
X0166*
Y00811*
X0166*
Y00811*
X01661*
Y0081*
X01662*
Y00809*
X01662*
Y00809*
X01663*
Y00808*
X01664*
Y00807*
X01666*
Y00807*
X01667*
Y00807*
X01667*
Y00807*
X01669*
Y00806*
X01671*
Y00805*
X01672*
Y00806*
X01673*
Y00805*
X01675*
Y00805*
X01677*
Y00804*
X01678*
Y00805*
X01678*
Y00804*
X0168*
Y00803*
X01682*
Y00802*
X01683*
Y00803*
X01684*
Y00802*
X01686*
Y00802*
X01688*
Y00801*
X01689*
Y00802*
X01689*
Y00801*
X01691*
Y008*
X01693*
Y008*
X01694*
Y008*
X01695*
Y008*
X01697*
Y00799*
X01699*
Y00798*
X017*
Y00799*
X017*
Y00798*
X01702*
Y00798*
X01705*
Y00797*
X01704*
Y00796*
X01705*
Y00796*
X01704*
Y00795*
X01705*
Y00794*
X01704*
Y00793*
X01705*
Y00793*
X01704*
Y00792*
X01705*
Y00791*
X01704*
Y00791*
X01705*
Y0079*
X01704*
Y00789*
X01705*
Y00789*
X01704*
Y00788*
X01705*
Y00787*
X01704*
Y00787*
X01705*
Y00786*
X01704*
Y00785*
X01705*
Y00784*
X01704*
Y00784*
X01705*
Y00783*
X01704*
Y00782*
X01705*
Y00782*
X01704*
Y00781*
X01705*
Y0078*
X01704*
Y0078*
X01705*
Y00779*
X01704*
Y00778*
X01705*
Y00778*
X01704*
Y00777*
X01703*
Y00776*
X01702*
Y00777*
X01702*
Y00776*
X01701*
Y00777*
X01699*
Y00778*
X01697*
Y00778*
X01694*
Y00779*
X01691*
Y0078*
X01691*
Y00779*
X0169*
Y0078*
X01688*
Y0078*
X01686*
Y00781*
X01683*
Y00782*
X01682*
Y00782*
X01681*
Y00782*
X0168*
Y00782*
X0168*
Y00782*
X01679*
Y00782*
X01677*
Y00783*
X01675*
Y00784*
X01672*
Y00784*
X01669*
Y00785*
X01669*
Y00784*
X01668*
Y00785*
X01667*
Y00786*
X01667*
Y00785*
X01666*
Y00786*
X01664*
Y00787*
X01661*
Y00787*
X0166*
Y00788*
X01659*
Y00787*
X01658*
Y00788*
X01658*
Y00787*
X01657*
Y00788*
X01656*
Y00789*
X01655*
Y00788*
X01655*
Y00789*
X01653*
Y00789*
X0165*
Y0079*
X01649*
Y00791*
X01648*
Y0079*
X01647*
Y00791*
X01646*
Y00791*
X01647*
Y00792*
X01646*
Y00793*
X01647*
Y00793*
X01646*
Y00794*
X01647*
Y00795*
X01646*
Y00796*
X01647*
Y00796*
X01646*
Y00797*
X01647*
Y00798*
X01646*
Y00798*
X01647*
Y00799*
X01646*
Y008*
X01647*
Y008*
X01646*
Y00801*
X01647*
Y00802*
X01646*
Y00802*
X01647*
Y00803*
X01646*
Y00804*
X01647*
Y00805*
X01646*
Y00805*
X01647*
Y00806*
X01646*
Y00807*
X01647*
Y00807*
X01646*
Y00808*
X01647*
Y00809*
X01646*
Y00809*
X01647*
Y0081*
X01646*
Y00811*
X01647*
Y00811*
X01646*
Y00812*
X01649*
Y00811*
X01649*
Y00811*
X0165*
Y00811*
X01651*
Y00811*
X01653*
Y00811*
X01652*
Y00812*
X01651*
Y00813*
X01651*
Y00814*
X0165*
Y00815*
X01649*
Y00817*
X01648*
Y00818*
X01647*
Y0082*
X01646*
Y0082*
X01646*
Y00821*
X01646*
Y00822*
X01646*
Y00825*
X01645*
Y00826*
X01646*
Y00827*
X01645*
Y00831*
X01646*
Y00832*
X01645*
Y00833*
X01646*
Y00834*
X01645*
Y00834*
X01646*
Y00836*
X01646*
Y00837*
X01646*
Y00838*
X01646*
Y00838*
X01647*
Y0084*
X01649*
Y00841*
X0165*
Y00842*
X01651*
Y00843*
X01651*
Y00843*
X01652*
Y00843*
X01653*
Y00843*
X01653*
Y00843*
X01654*
Y00843*
X01653*
Y00844*
X01653*
Y00845*
X01652*
Y00845*
X01651*
Y00846*
X01651*
Y00847*
X0165*
Y00848*
X01649*
Y0085*
X01648*
Y00851*
X01647*
Y00853*
X01646*
Y00855*
X01646*
Y00858*
X01645*
Y00859*
X01646*
Y0086*
X01645*
Y00865*
X01646*
Y00865*
X01645*
Y00866*
X01646*
Y00867*
X01645*
Y00867*
X01646*
Y0087*
X01646*
Y0087*
X01646*
Y00871*
X01646*
Y00872*
X01647*
Y00874*
X01648*
Y00874*
X01649*
Y00875*
X0165*
Y00876*
X01651*
Y00876*
X01655*
Y00877*
X01655*
Y00876*
G37*
G36*
X01649Y00779D02*
X01651D01*
Y00778*
X01655*
Y00778*
X01655*
Y00778*
X01656*
Y00778*
X01657*
Y00777*
X01659*
Y00776*
X0166*
Y00777*
X0166*
Y00776*
X01662*
Y00775*
X01666*
Y00775*
X01667*
Y00775*
X01667*
Y00775*
X01668*
Y00774*
X0167*
Y00773*
X01671*
Y00774*
X01671*
Y00773*
X01673*
Y00773*
X01677*
Y00772*
X01678*
Y00773*
X01678*
Y00772*
X0168*
Y00771*
X01681*
Y00771*
X01682*
Y00771*
X01682*
Y00771*
X01685*
Y0077*
X01688*
Y00769*
X01689*
Y0077*
X01689*
Y00769*
X0169*
Y00769*
X01692*
Y00768*
X01693*
Y00769*
X01693*
Y00768*
X01696*
Y00767*
X01699*
Y00767*
X017*
Y00767*
X017*
Y00767*
X01702*
Y00766*
X01703*
Y00765*
X01704*
Y00764*
X01705*
Y00764*
X01704*
Y00763*
X01705*
Y00762*
X01704*
Y00762*
X01705*
Y00761*
X01704*
Y0076*
X01705*
Y0076*
X01704*
Y00759*
X01705*
Y00758*
X01704*
Y00758*
X01705*
Y00757*
X01704*
Y00756*
X01705*
Y00755*
X01704*
Y00755*
X01705*
Y00754*
X01704*
Y00753*
X01705*
Y00753*
X01704*
Y00752*
X01705*
Y00751*
X01704*
Y00751*
X01705*
Y0075*
X01704*
Y00749*
X01705*
Y00749*
X01704*
Y00748*
X01705*
Y00747*
X01704*
Y00746*
X01705*
Y00746*
X01704*
Y00745*
X01705*
Y00744*
X01702*
Y00745*
X01702*
Y00744*
X01701*
Y00745*
X01699*
Y00746*
X01698*
Y00745*
X01698*
Y00744*
X01699*
Y00744*
X017*
Y00743*
X017*
Y00742*
X01701*
Y00741*
X01702*
Y0074*
X01702*
Y0074*
X01703*
Y00737*
X01704*
Y00737*
X01705*
Y00733*
X01705*
Y00731*
X01706*
Y00731*
X01705*
Y0073*
X01706*
Y00729*
X01705*
Y00728*
X01706*
Y00728*
X01705*
Y00727*
X01706*
Y00726*
X01705*
Y00726*
X01706*
Y00725*
X01705*
Y00724*
X01706*
Y00724*
X01705*
Y00722*
X01705*
Y0072*
X01704*
Y00719*
X01705*
Y00718*
X01704*
Y00717*
X01703*
Y00717*
X01702*
Y00716*
X01702*
Y00715*
X01701*
Y00715*
X017*
Y00714*
X017*
Y00715*
X01699*
Y00714*
X01698*
Y00713*
X01692*
Y00714*
X01689*
Y00715*
X01686*
Y00715*
X01683*
Y00716*
X01682*
Y00715*
X01682*
Y00716*
X01681*
Y00717*
X0168*
Y00716*
X0168*
Y00717*
X01678*
Y00717*
X01675*
Y00718*
X01673*
Y00719*
X01673*
Y00718*
X01672*
Y00719*
X01671*
Y00718*
X01671*
Y00719*
X0167*
Y0072*
X01669*
Y00719*
X01669*
Y0072*
X01667*
Y0072*
X01664*
Y00721*
X01661*
Y00722*
X0166*
Y00721*
X0166*
Y00722*
X01659*
Y00722*
X01658*
Y00722*
X01658*
Y00722*
X01655*
Y00723*
X01653*
Y00724*
X01651*
Y00724*
X01651*
Y00724*
X0165*
Y00724*
X01649*
Y00724*
X01649*
Y00724*
X01648*
Y00725*
X01647*
Y00726*
X01646*
Y00726*
X01647*
Y00727*
X01646*
Y00728*
X01647*
Y00728*
X01646*
Y00729*
X01647*
Y0073*
X01646*
Y00731*
X01647*
Y00731*
X01646*
Y00732*
X01647*
Y00733*
X01646*
Y00733*
X01647*
Y00734*
X01646*
Y00735*
X01647*
Y00735*
X01646*
Y00736*
X01647*
Y00737*
X01646*
Y00737*
X01647*
Y00738*
X01646*
Y00739*
X01647*
Y0074*
X01646*
Y0074*
X01647*
Y00741*
X01646*
Y00742*
X01647*
Y00742*
X01646*
Y00743*
X01647*
Y00744*
X01646*
Y00744*
X01647*
Y00745*
X01646*
Y00746*
X01647*
Y00746*
X01648*
Y00746*
X0165*
Y00745*
X01652*
Y00744*
X01653*
Y00745*
X01653*
Y00744*
X01655*
Y00744*
X01658*
Y00743*
X01658*
Y00744*
X01659*
Y00743*
X01661*
Y00742*
X01663*
Y00742*
X01664*
Y00742*
X01664*
Y00742*
X01667*
Y00741*
X01669*
Y0074*
X01669*
Y00741*
X0167*
Y0074*
X01672*
Y0074*
X01674*
Y00739*
X01675*
Y0074*
X01676*
Y00739*
X01678*
Y00738*
X0168*
Y00737*
X0168*
Y00738*
X01681*
Y00737*
X01683*
Y00737*
X01685*
Y00736*
X01686*
Y00737*
X01687*
Y00736*
X01687*
Y00737*
X01688*
Y00736*
X01689*
Y00737*
X0169*
Y00737*
X01691*
Y00739*
X01691*
Y00744*
X01691*
Y00744*
X01691*
Y00745*
X01691*
Y00746*
X0169*
Y00746*
X01689*
Y00747*
X01689*
Y00748*
X01687*
Y00749*
X01686*
Y00749*
X01685*
Y00749*
X01685*
Y00749*
X01682*
Y0075*
X0168*
Y00751*
X0168*
Y0075*
X01679*
Y00751*
X01677*
Y00751*
X01675*
Y00752*
X01674*
Y00751*
X01673*
Y00752*
X01671*
Y00753*
X01669*
Y00753*
X01669*
Y00753*
X01668*
Y00753*
X01666*
Y00754*
X01664*
Y00755*
X01663*
Y00754*
X01662*
Y00755*
X0166*
Y00755*
X01658*
Y00756*
X01658*
Y00755*
X01657*
Y00756*
X01655*
Y00757*
X01653*
Y00758*
X01652*
Y00757*
X01651*
Y00758*
X01649*
Y00758*
X01647*
Y00759*
X01646*
Y0076*
X01647*
Y0076*
X01646*
Y00761*
X01647*
Y00762*
X01646*
Y00762*
X01647*
Y00763*
X01646*
Y00764*
X01647*
Y00764*
X01646*
Y00765*
X01647*
Y00766*
X01646*
Y00767*
X01647*
Y00767*
X01646*
Y00768*
X01647*
Y00769*
X01646*
Y00769*
X01647*
Y0077*
X01646*
Y00771*
X01647*
Y00771*
X01646*
Y00772*
X01647*
Y00773*
X01646*
Y00773*
X01647*
Y00774*
X01646*
Y00775*
X01647*
Y00775*
X01646*
Y00776*
X01647*
Y00777*
X01646*
Y00778*
X01647*
Y00778*
X01646*
Y00779*
X01647*
Y0078*
X01648*
Y00779*
X01649*
Y0078*
X01649*
Y00779*
G37*
G36*
X01705Y00765D02*
X01704D01*
Y00766*
X01705*
Y00765*
G37*
G36*
X01651Y00714D02*
X01653D01*
Y00713*
X01655*
Y00713*
X01655*
Y00713*
X01656*
Y00713*
X01658*
Y00712*
X0166*
Y00711*
X01661*
Y00712*
X01662*
Y00711*
X01664*
Y00711*
X01666*
Y0071*
X01667*
Y00711*
X01667*
Y0071*
X01669*
Y00709*
X01671*
Y00708*
X01672*
Y00709*
X01673*
Y00708*
X01675*
Y00708*
X01677*
Y00707*
X01678*
Y00708*
X01678*
Y00707*
X0168*
Y00706*
X01682*
Y00706*
X01683*
Y00706*
X01684*
Y00706*
X01686*
Y00705*
X01688*
Y00704*
X01689*
Y00705*
X01689*
Y00704*
X01691*
Y00704*
X01693*
Y00703*
X01694*
Y00704*
X01695*
Y00703*
X01697*
Y00702*
X01699*
Y00702*
X017*
Y00702*
X017*
Y00702*
X01701*
Y00701*
X01705*
Y007*
X01704*
Y00699*
X01705*
Y00699*
X01704*
Y00698*
X01705*
Y00697*
X01704*
Y00697*
X01705*
Y00696*
X01704*
Y00695*
X01705*
Y00695*
X01704*
Y00694*
X01705*
Y00693*
X01704*
Y00693*
X01705*
Y00692*
X01704*
Y00691*
X01705*
Y0069*
X01704*
Y0069*
X01705*
Y00689*
X01704*
Y00688*
X01705*
Y00688*
X01704*
Y00687*
X01705*
Y00686*
X01704*
Y00686*
X01705*
Y00685*
X01704*
Y00684*
X01705*
Y00684*
X01704*
Y00683*
X01705*
Y00682*
X01704*
Y00681*
X01705*
Y00681*
X01704*
Y0068*
X01705*
Y00679*
X01702*
Y0068*
X01702*
Y00679*
X01701*
Y0068*
X01699*
Y00681*
X01697*
Y00681*
X01694*
Y00682*
X01691*
Y00683*
X01691*
Y00682*
X0169*
Y00683*
X01688*
Y00684*
X01686*
Y00684*
X01683*
Y00685*
X0168*
Y00686*
X0168*
Y00685*
X01679*
Y00686*
X01677*
Y00686*
X01675*
Y00687*
X01674*
Y00686*
X01673*
Y00687*
X01672*
Y00688*
X01669*
Y00688*
X01669*
Y00688*
X01668*
Y00688*
X01666*
Y00689*
X01664*
Y0069*
X01661*
Y0069*
X01658*
Y00691*
X01658*
Y0069*
X01657*
Y00691*
X01655*
Y00692*
X01653*
Y00693*
X01652*
Y00692*
X01651*
Y00693*
X0165*
Y00693*
X01647*
Y00694*
X01646*
Y00695*
X01647*
Y00695*
X01646*
Y00696*
X01647*
Y00697*
X01646*
Y00697*
X01647*
Y00698*
X01646*
Y00699*
X01647*
Y00699*
X01646*
Y007*
X01647*
Y00701*
X01646*
Y00702*
X01647*
Y00702*
X01646*
Y00703*
X01647*
Y00704*
X01646*
Y00704*
X01647*
Y00705*
X01646*
Y00706*
X01647*
Y00706*
X01646*
Y00707*
X01647*
Y00708*
X01646*
Y00708*
X01647*
Y00709*
X01646*
Y0071*
X01647*
Y00711*
X01646*
Y00711*
X01647*
Y00712*
X01646*
Y00713*
X01647*
Y00713*
X01646*
Y00714*
X01647*
Y00715*
X01649*
Y00714*
X0165*
Y00715*
X01651*
Y00714*
G37*
G36*
X01649Y00685D02*
X01651D01*
Y00684*
X01653*
Y00684*
X01654*
Y00684*
X01655*
Y00684*
X01657*
Y00683*
X01659*
Y00682*
X0166*
Y00677*
X01659*
Y00677*
X0166*
Y00673*
X01662*
Y00672*
X01662*
Y00673*
X01663*
Y00672*
X01665*
Y00672*
X01667*
Y00671*
X01668*
Y00672*
X01669*
Y00671*
X01671*
Y0067*
X01673*
Y0067*
X01673*
Y0067*
X01674*
Y0067*
X01676*
Y00669*
X01678*
Y00668*
X01679*
Y00669*
X0168*
Y00668*
X01682*
Y00668*
X01684*
Y00667*
X01685*
Y00668*
X01685*
Y00667*
X01687*
Y00666*
X01688*
Y00667*
X01689*
Y00666*
X01689*
Y00667*
X0169*
Y00668*
X01691*
Y00668*
X01691*
Y00675*
X01692*
Y00674*
X01693*
Y00675*
X01693*
Y00674*
X01696*
Y00673*
X01698*
Y00672*
X01698*
Y00673*
X01699*
Y00672*
X01701*
Y00672*
X01703*
Y00671*
X01704*
Y0067*
X01705*
Y00652*
X01704*
Y00651*
X01705*
Y0065*
X01704*
Y0065*
X01703*
Y00649*
X01704*
Y00648*
X01703*
Y00646*
X01702*
Y00646*
X01702*
Y00645*
X017*
Y00644*
X01699*
Y00643*
X01698*
Y00644*
X01698*
Y00643*
X01696*
Y00644*
X01695*
Y00643*
X01694*
Y00644*
X01693*
Y00643*
X01693*
Y00644*
X01691*
Y00645*
X01689*
Y00646*
X01688*
Y00645*
X01687*
Y00646*
X01687*
Y00645*
X01686*
Y00646*
X01685*
Y00646*
X01683*
Y00647*
X01682*
Y00646*
X01682*
Y00647*
X0168*
Y00648*
X01678*
Y00648*
X01677*
Y00648*
X01676*
Y00648*
X01674*
Y00649*
X01672*
Y0065*
X01671*
Y00649*
X01671*
Y0065*
X01669*
Y0065*
X01667*
Y00651*
X01666*
Y0065*
X01665*
Y00651*
X01663*
Y00652*
X01661*
Y00652*
X0166*
Y00652*
X0166*
Y00652*
X01658*
Y00653*
X01655*
Y00654*
X01655*
Y00653*
X01654*
Y00654*
X01652*
Y00655*
X0165*
Y00655*
X01649*
Y00655*
X01649*
Y00655*
X01646*
Y00656*
X01644*
Y00657*
X01644*
Y00656*
X01643*
Y00657*
X01641*
Y00657*
X01639*
Y00658*
X01638*
Y00657*
X01637*
Y00658*
X01635*
Y00659*
X01633*
Y00659*
X01633*
Y00659*
X01632*
Y00659*
X0163*
Y0066*
X01629*
Y00681*
X0163*
Y00681*
X01631*
Y00681*
X01631*
Y00681*
X01633*
Y0068*
X01634*
Y00679*
X01635*
Y0068*
X01635*
Y00679*
X01637*
Y00679*
X0164*
Y00678*
X0164*
Y00679*
X01641*
Y00678*
X01642*
Y00679*
X01642*
Y00678*
X01643*
Y00677*
X01645*
Y00677*
X01646*
Y00677*
X01646*
Y00677*
X01647*
Y00677*
X01646*
Y00678*
X01647*
Y00679*
X01646*
Y00679*
X01647*
Y0068*
X01646*
Y00681*
X01647*
Y00681*
X01646*
Y00682*
X01647*
Y00683*
X01646*
Y00684*
X01647*
Y00684*
X01646*
Y00685*
X01647*
Y00686*
X01648*
Y00685*
X01649*
Y00686*
X01649*
Y00685*
G37*
G36*
X01705Y00671D02*
X01704D01*
Y00672*
X01705*
Y00671*
G37*
G36*
X01631Y00649D02*
X01632D01*
Y00648*
X01633*
Y00649*
X01633*
Y00648*
X01635*
Y00648*
X01636*
Y00648*
X01637*
Y00648*
X01639*
Y00647*
X01641*
Y00646*
X01642*
Y00647*
X01642*
Y00646*
X01644*
Y00646*
X01646*
Y00645*
X01647*
Y00646*
X01648*
Y00645*
X0165*
Y00644*
X01652*
Y00643*
X01653*
Y00644*
X01653*
Y00643*
X01654*
Y00643*
X01658*
Y00642*
X01658*
Y00643*
X01659*
Y00642*
X01661*
Y00641*
X01663*
Y00641*
X01664*
Y00641*
X01664*
Y00641*
X01665*
Y0064*
X01669*
Y00639*
X01669*
Y0064*
X0167*
Y00639*
X01672*
Y00639*
X01674*
Y00638*
X01675*
Y00639*
X01676*
Y00638*
X01676*
Y00637*
X0168*
Y00637*
X0168*
Y00637*
X01681*
Y00637*
X01683*
Y00636*
X01685*
Y00635*
X01686*
Y00636*
X01687*
Y00635*
X01687*
Y00634*
X01691*
Y00634*
X01691*
Y00634*
X01692*
Y00634*
X01694*
Y00633*
X01696*
Y00632*
X01698*
Y00632*
X01702*
Y00631*
X01702*
Y00632*
X01703*
Y00631*
X01704*
Y0063*
X01705*
Y0063*
X01704*
Y00629*
X01705*
Y00628*
X01704*
Y00628*
X01705*
Y00627*
X01704*
Y00626*
X01705*
Y00625*
X01704*
Y00625*
X01705*
Y00624*
X01704*
Y00623*
X01705*
Y00623*
X01704*
Y00622*
X01705*
Y00621*
X01704*
Y00621*
X01705*
Y0062*
X01704*
Y00619*
X01705*
Y00619*
X01704*
Y00618*
X01705*
Y00617*
X01704*
Y00617*
X01705*
Y00616*
X01704*
Y00615*
X01705*
Y00614*
X01704*
Y00614*
X01705*
Y00613*
X01704*
Y00612*
X01705*
Y00612*
X01704*
Y00611*
X01705*
Y0061*
X01704*
Y0061*
X01702*
Y0061*
X017*
Y00611*
X01699*
Y0061*
X01698*
Y00611*
X01696*
Y00612*
X01694*
Y00612*
X01693*
Y00612*
X01693*
Y00612*
X01691*
Y00613*
X01689*
Y00614*
X01688*
Y00613*
X01687*
Y00614*
X01685*
Y00614*
X01683*
Y00615*
X01682*
Y00614*
X01682*
Y00615*
X0168*
Y00616*
X01678*
Y00617*
X01677*
Y00616*
X01676*
Y00617*
X01674*
Y00617*
X01672*
Y00618*
X01671*
Y00617*
X01671*
Y00618*
X01669*
Y00619*
X01667*
Y00619*
X01666*
Y00619*
X01665*
Y00619*
X01663*
Y0062*
X01661*
Y00621*
X0166*
Y0062*
X0166*
Y00621*
X01658*
Y00621*
X01655*
Y00622*
X01655*
Y00621*
X01654*
Y00622*
X01652*
Y00623*
X0165*
Y00623*
X01649*
Y00623*
X01649*
Y00623*
X01646*
Y00624*
X01644*
Y00625*
X01644*
Y00624*
X01643*
Y00625*
X01641*
Y00625*
X01639*
Y00626*
X01638*
Y00625*
X01637*
Y00626*
X01635*
Y00627*
X01633*
Y00628*
X01633*
Y00627*
X01632*
Y00628*
X0163*
Y00628*
X01628*
Y00629*
X01629*
Y0063*
X01628*
Y0063*
X01629*
Y00631*
X01628*
Y00632*
X01629*
Y00632*
X01628*
Y00633*
X01629*
Y00634*
X01628*
Y00634*
X01629*
Y00635*
X01628*
Y00636*
X01629*
Y00637*
X01628*
Y00637*
X01629*
Y00638*
X01628*
Y00639*
X01629*
Y00639*
X01628*
Y0064*
X01629*
Y00641*
X01628*
Y00641*
X01629*
Y00642*
X01628*
Y00643*
X01629*
Y00643*
X01628*
Y00644*
X01629*
Y00645*
X01628*
Y00646*
X01629*
Y00646*
X01628*
Y00647*
X01629*
Y00648*
X01628*
Y00648*
X01629*
Y00649*
X01628*
Y0065*
X0163*
Y00649*
X01631*
Y0065*
X01631*
Y00649*
G37*
G36*
X01704Y00604D02*
X01705D01*
Y00603*
X01704*
Y00603*
X01705*
Y00602*
X01704*
Y00601*
X01705*
Y00601*
X01704*
Y006*
X01705*
Y00599*
X01704*
Y00599*
X01705*
Y00598*
X01704*
Y00597*
X01705*
Y00596*
X01704*
Y00596*
X01705*
Y00595*
X01704*
Y00594*
X01705*
Y00594*
X01704*
Y00593*
X01705*
Y00592*
X01704*
Y00592*
X01705*
Y00591*
X01704*
Y0059*
X01705*
Y0059*
X01704*
Y00589*
X01705*
Y00588*
X01704*
Y00587*
X01705*
Y00587*
X01704*
Y00586*
X01705*
Y00585*
X01704*
Y00585*
X01705*
Y00584*
X01704*
Y00583*
X01705*
Y00583*
X01704*
Y00582*
X01705*
Y00581*
X01704*
Y00581*
X01703*
Y0058*
X01702*
Y00581*
X01702*
Y0058*
X01701*
Y00581*
X017*
Y0058*
X017*
Y00581*
X01699*
Y0058*
X01698*
Y00581*
X01692*
Y00581*
X01691*
Y00581*
X01691*
Y00578*
X01691*
Y00578*
X01691*
Y00576*
X01691*
Y00575*
X01691*
Y00573*
X01691*
Y00572*
X01691*
Y0057*
X01691*
Y00569*
X01691*
Y00567*
X01691*
Y00567*
X01691*
Y00565*
X01691*
Y00564*
X01691*
Y00562*
X01691*
Y00563*
X01692*
Y00562*
X01693*
Y00561*
X01695*
Y00561*
X01696*
Y0056*
X01698*
Y00559*
X017*
Y00558*
X017*
Y00558*
X01701*
Y00558*
X01702*
Y00558*
X01702*
Y00557*
X01705*
Y00556*
X01704*
Y00556*
X01705*
Y00555*
X01704*
Y00554*
X01705*
Y00554*
X01704*
Y00553*
X01705*
Y00552*
X01704*
Y00552*
X01705*
Y00551*
X01704*
Y0055*
X01705*
Y00549*
X01704*
Y00549*
X01705*
Y00548*
X01704*
Y00547*
X01705*
Y00547*
X01704*
Y00546*
X01705*
Y00545*
X01704*
Y00545*
X01705*
Y00544*
X01704*
Y00543*
X01705*
Y00543*
X01704*
Y00542*
X01705*
Y00541*
X01704*
Y0054*
X01705*
Y0054*
X01704*
Y00539*
X01705*
Y00538*
X01704*
Y00538*
X01705*
Y00537*
X01704*
Y00536*
X01705*
Y00536*
X01704*
Y00535*
X01705*
Y00534*
X01704*
Y00534*
X01705*
Y00533*
X01704*
Y00532*
X01703*
Y00533*
X01702*
Y00534*
X01702*
Y00533*
X01701*
Y00534*
X017*
Y00534*
X017*
Y00535*
X01698*
Y00536*
X01697*
Y00536*
X01696*
Y00537*
X01694*
Y00538*
X01693*
Y00538*
X01691*
Y00539*
X01691*
Y0054*
X01689*
Y0054*
X01688*
Y00541*
X01687*
Y00542*
X01687*
Y00541*
X01686*
Y00542*
X01685*
Y00543*
X01685*
Y00543*
X01684*
Y00543*
X01683*
Y00543*
X01682*
Y00544*
X01682*
Y00545*
X0168*
Y00545*
X01679*
Y00546*
X01678*
Y00547*
X01676*
Y00547*
X01675*
Y00548*
X01673*
Y00549*
X01672*
Y00549*
X01671*
Y0055*
X0167*
Y00551*
X01669*
Y00552*
X01669*
Y00551*
X01668*
Y00552*
X01667*
Y00552*
X01667*
Y00553*
X01666*
Y00552*
X01665*
Y00553*
X01664*
Y00554*
X01664*
Y00554*
X01662*
Y00555*
X01661*
Y00556*
X0166*
Y00556*
X01658*
Y00557*
X01657*
Y00558*
X01655*
Y00558*
X01654*
Y00559*
X01653*
Y0056*
X01652*
Y00561*
X0165*
Y00561*
X01649*
Y00562*
X01647*
Y00563*
X01646*
Y00563*
X01646*
Y00564*
X01644*
Y00565*
X01643*
Y00565*
X01642*
Y00566*
X0164*
Y00567*
X0164*
Y00567*
X01639*
Y00568*
X01638*
Y00569*
X01637*
Y00569*
X01637*
Y0057*
X01636*
Y00571*
X01635*
Y00572*
X01635*
Y00572*
X01634*
Y00573*
X01633*
Y00575*
X01633*
Y00576*
X01632*
Y00576*
X01631*
Y00578*
X01631*
Y00581*
X0163*
Y00581*
X01629*
Y00585*
X01629*
Y00585*
X01629*
Y00586*
X01629*
Y00587*
X01628*
Y00587*
X01629*
Y00588*
X01628*
Y00589*
X01629*
Y0059*
X01628*
Y0059*
X01629*
Y00591*
X01628*
Y00592*
X01629*
Y00592*
X01628*
Y00593*
X01629*
Y00594*
X01628*
Y00594*
X01629*
Y00595*
X01628*
Y00596*
X01629*
Y00596*
X01628*
Y00597*
X01629*
Y00598*
X01628*
Y00599*
X01629*
Y00599*
X01628*
Y006*
X01629*
Y00601*
X01628*
Y00601*
X01629*
Y00602*
X01631*
Y00603*
X01631*
Y00602*
X01632*
Y00603*
X01633*
Y00602*
X01633*
Y00603*
X01634*
Y00602*
X01635*
Y00603*
X01635*
Y00602*
X01636*
Y00603*
X01637*
Y00602*
X01637*
Y00603*
X01638*
Y00602*
X01639*
Y00603*
X0164*
Y00602*
X0164*
Y00603*
X01641*
Y00602*
X01642*
Y00603*
X01642*
Y00602*
X01643*
Y00603*
X01653*
Y00603*
X01654*
Y00603*
X01655*
Y00603*
X01655*
Y00603*
X01656*
Y00603*
X01657*
Y00603*
X01658*
Y00603*
X01667*
Y00604*
X01667*
Y00603*
X01668*
Y00604*
X01669*
Y00603*
X01669*
Y00604*
X0167*
Y00603*
X01671*
Y00604*
X01671*
Y00603*
X01672*
Y00604*
X01673*
Y00603*
X01673*
Y00604*
X01674*
Y00603*
X01675*
Y00604*
X01676*
Y00603*
X01676*
Y00604*
X01677*
Y00603*
X01678*
Y00604*
X0168*
Y00603*
X0168*
Y00604*
X01689*
Y00605*
X0169*
Y00604*
X01691*
Y00605*
X01691*
Y00604*
X01692*
Y00605*
X01693*
Y00604*
X01693*
Y00605*
X01704*
Y00604*
G37*
G36*
X01602Y00435D02*
X01603D01*
Y00434*
X01603*
Y00434*
X01604*
Y00433*
X01604*
Y00433*
X01605*
Y00432*
X01606*
Y00431*
X01606*
Y0043*
X01607*
Y0043*
X01608*
Y00429*
X01608*
Y00428*
X01609*
Y00428*
X0161*
Y00427*
X0161*
Y00427*
X01611*
Y00425*
X01611*
Y00425*
X01612*
Y00425*
X01612*
Y00424*
X01614*
Y00425*
X01614*
Y00424*
X01615*
Y00425*
X01616*
Y00424*
X01617*
Y00425*
X01618*
Y00424*
X01618*
Y00425*
X01619*
Y00424*
X01619*
Y00425*
X0162*
Y00424*
X0162*
Y00425*
X01621*
Y00424*
X01621*
Y00425*
X01622*
Y00424*
X01622*
Y00425*
X01623*
Y00424*
X01623*
Y00425*
X01624*
Y00424*
X01624*
Y00425*
X01625*
Y00424*
X01625*
Y00425*
X01626*
Y00424*
X01626*
Y00425*
X01627*
Y00424*
X01627*
Y00425*
X01628*
Y00424*
X01628*
Y00425*
X01629*
Y00424*
X01629*
Y00425*
X0163*
Y00424*
X0163*
Y00425*
X0163*
Y00424*
X01631*
Y00425*
X01631*
Y00424*
X01632*
Y00425*
X01632*
Y00424*
X01633*
Y00425*
X01633*
Y00424*
X01634*
Y00425*
X01634*
Y00425*
X01635*
Y00426*
X01635*
Y00427*
X01636*
Y00427*
X01636*
Y00428*
X01637*
Y00429*
X01638*
Y0043*
X01638*
Y00431*
X01639*
Y00431*
X01639*
Y00432*
X0164*
Y00432*
X0164*
Y00433*
X01641*
Y00434*
X01641*
Y00435*
X01642*
Y00434*
X01642*
Y00434*
X01643*
Y00434*
X01643*
Y00434*
X01644*
Y00433*
X01645*
Y00433*
X01645*
Y00433*
X01646*
Y00433*
X01646*
Y00432*
X01648*
Y00432*
X01648*
Y00432*
X01649*
Y00432*
X01649*
Y00431*
X0165*
Y00431*
X0165*
Y00431*
X01651*
Y00431*
X01651*
Y0043*
X01653*
Y0043*
X01654*
Y00429*
X01655*
Y00429*
X01655*
Y00429*
X01656*
Y00429*
X01657*
Y00428*
X01658*
Y00428*
X01658*
Y00428*
X01658*
Y00428*
X01659*
Y00427*
X0166*
Y00427*
X01662*
Y00426*
X01662*
Y00426*
X01663*
Y00426*
X01663*
Y00426*
X01664*
Y00425*
X01665*
Y00425*
X01667*
Y00425*
X01667*
Y00419*
X01667*
Y00419*
X01667*
Y00418*
X01667*
Y00418*
X01667*
Y00417*
X01667*
Y00417*
X01667*
Y00416*
X01667*
Y00416*
X01667*
Y00415*
X01667*
Y00415*
X01667*
Y00414*
X01667*
Y00414*
X01667*
Y00412*
X01668*
Y00411*
X01669*
Y00411*
X01669*
Y0041*
X0167*
Y0041*
X01671*
Y0041*
X01672*
Y00409*
X01673*
Y00409*
X01674*
Y00408*
X01675*
Y00408*
X01675*
Y00407*
X01676*
Y00407*
X01677*
Y00406*
X01678*
Y00406*
X01679*
Y00405*
X0168*
Y00405*
X0168*
Y00404*
X01681*
Y00404*
X01682*
Y00403*
X01684*
Y00403*
X01685*
Y00402*
X01687*
Y00403*
X01688*
Y00403*
X01689*
Y00404*
X0169*
Y00404*
X01691*
Y00404*
X0169*
Y00403*
X01689*
Y00403*
X01688*
Y00402*
X01688*
Y00402*
X01686*
Y00401*
X01685*
Y00402*
X01684*
Y00402*
X01683*
Y00403*
X01682*
Y00403*
X01681*
Y00404*
X0168*
Y00404*
X01679*
Y00405*
X01678*
Y00405*
X01677*
Y00406*
X01677*
Y00406*
X01676*
Y00407*
X01675*
Y00407*
X01674*
Y00408*
X01673*
Y00408*
X01672*
Y00409*
X01671*
Y00409*
X0167*
Y0041*
X01669*
Y0041*
X01669*
Y0041*
X01667*
Y00411*
X01666*
Y00411*
X01665*
Y00412*
X01663*
Y00411*
X01662*
Y00412*
X0166*
Y00411*
X01658*
Y00411*
X01656*
Y0041*
X01654*
Y0041*
X01651*
Y0041*
X01648*
Y00409*
X01646*
Y00409*
X01644*
Y00408*
X01641*
Y00408*
X01638*
Y00407*
X01635*
Y00407*
X01633*
Y00406*
X01631*
Y00406*
X01628*
Y00405*
X01625*
Y00405*
X01623*
Y00404*
X0162*
Y00404*
X01617*
Y00403*
X01615*
Y00403*
X01614*
Y00402*
X01615*
Y00401*
X01617*
Y00401*
X01618*
Y004*
X0162*
Y004*
X01622*
Y00399*
X01623*
Y00399*
X01625*
Y00398*
X01626*
Y00398*
X01628*
Y00397*
X01629*
Y00397*
X0163*
Y00396*
X01632*
Y00396*
X01634*
Y00396*
X01635*
Y00395*
X01637*
Y00395*
X01638*
Y00394*
X0164*
Y00394*
X01641*
Y00393*
X01643*
Y00393*
X01644*
Y00392*
X01645*
Y00392*
X01646*
Y00391*
X01647*
Y00391*
X01647*
Y0039*
X01648*
Y0039*
X01649*
Y00389*
X01649*
Y00389*
X0165*
Y00388*
X01651*
Y00388*
X01651*
Y00387*
X01652*
Y00387*
X01652*
Y00386*
X01653*
Y00386*
X01654*
Y00385*
X01654*
Y00385*
X01655*
Y00384*
X01656*
Y00384*
X01656*
Y00383*
X01657*
Y00383*
X01658*
Y00382*
X01658*
Y00382*
X01658*
Y00382*
X01659*
Y00381*
X0166*
Y00381*
X0166*
Y0038*
X01661*
Y0038*
X01661*
Y00379*
X01662*
Y00379*
X01663*
Y00378*
X01663*
Y00378*
X01662*
Y00378*
X01662*
Y00379*
X01661*
Y00379*
X0166*
Y00379*
X01661*
Y00378*
X01662*
Y00378*
X01662*
Y00377*
X01662*
Y00378*
X01661*
Y00378*
X0166*
Y00379*
X0166*
Y00379*
X01659*
Y0038*
X01658*
Y0038*
X01658*
Y00381*
X01658*
Y00381*
X01657*
Y00382*
X01656*
Y00382*
X01656*
Y00382*
X01655*
Y00383*
X01655*
Y00383*
X01654*
Y00384*
X01653*
Y00384*
X01653*
Y00385*
X01652*
Y00385*
X01652*
Y00386*
X01651*
Y00386*
X0165*
Y00387*
X0165*
Y00387*
X01649*
Y00388*
X01648*
Y00388*
X01648*
Y00389*
X01647*
Y00389*
X01647*
Y0039*
X01646*
Y0039*
X01645*
Y00391*
X01644*
Y00391*
X01644*
Y00392*
X01642*
Y00392*
X0164*
Y00393*
X01639*
Y00393*
X01637*
Y00394*
X01636*
Y00394*
X01634*
Y00395*
X01633*
Y00395*
X01631*
Y00396*
X0163*
Y00396*
X01629*
Y00396*
X01627*
Y00397*
X01625*
Y00397*
X01624*
Y00398*
X01622*
Y00398*
X01621*
Y00399*
X01619*
Y00399*
X01618*
Y004*
X01616*
Y004*
X01615*
Y00401*
X01613*
Y00401*
X01612*
Y00402*
X01579*
Y00401*
X01578*
Y004*
X01578*
Y00399*
X01577*
Y00399*
X01577*
Y00398*
X01576*
Y00397*
X01576*
Y00396*
X01575*
Y00396*
X01575*
Y00395*
X01574*
Y00395*
X01574*
Y00394*
X01573*
Y00393*
X01573*
Y00392*
X01573*
Y00392*
X01572*
Y00391*
X01572*
Y0039*
X01571*
Y0039*
X01571*
Y00389*
X0157*
Y00388*
X0157*
Y00387*
X01569*
Y00387*
X01569*
Y00386*
X01568*
Y00385*
X01568*
Y00384*
X01567*
Y00384*
X01567*
Y00383*
X01566*
Y00382*
X01566*
Y00382*
X01565*
Y00381*
X01565*
Y00381*
X01564*
Y0038*
X01564*
Y00379*
X01563*
Y00378*
X01563*
Y00378*
X01562*
Y00377*
X01562*
Y00376*
X01561*
Y00376*
X01561*
Y00375*
X0156*
Y00374*
X0156*
Y00373*
X01559*
Y00373*
X01559*
Y00372*
X01558*
Y00371*
X01558*
Y00371*
X01558*
Y0037*
X01557*
Y00369*
X01557*
Y00368*
X01557*
Y00368*
X01558*
Y00368*
X01558*
Y00367*
X01558*
Y00367*
X01559*
Y00366*
X01559*
Y00366*
X0156*
Y00365*
X0156*
Y00365*
X01561*
Y00364*
X01561*
Y00364*
X01562*
Y00363*
X01562*
Y00363*
X01563*
Y00362*
X01563*
Y00362*
X01564*
Y00361*
X01564*
Y00361*
X01565*
Y0036*
X01565*
Y00359*
X01566*
Y00359*
X01567*
Y00358*
X01567*
Y00358*
X01568*
Y00357*
X01568*
Y00357*
X01569*
Y00356*
X01569*
Y00356*
X0157*
Y00355*
X0157*
Y00355*
X01571*
Y00354*
X01571*
Y00354*
X01572*
Y00353*
X01572*
Y00353*
X01573*
Y00353*
X01573*
Y00352*
X01573*
Y00352*
X01574*
Y00351*
X01574*
Y00351*
X01575*
Y0035*
X01575*
Y0035*
X01576*
Y00349*
X01576*
Y00349*
X01577*
Y00348*
X01577*
Y00348*
X01578*
Y00347*
X01589*
Y00347*
X0159*
Y00347*
X0159*
Y00347*
X01601*
Y00348*
X01601*
Y00348*
X01602*
Y00349*
X01603*
Y00349*
X01603*
Y00348*
X01603*
Y00348*
X01602*
Y00347*
X01601*
Y00347*
X01601*
Y00346*
X01579*
Y00344*
X01578*
Y00326*
X01588*
Y00325*
X01588*
Y00326*
X01589*
Y00325*
X01601*
Y00325*
X01602*
Y00325*
X01602*
Y00324*
X01603*
Y00324*
X01603*
Y00323*
X01604*
Y00323*
X01604*
Y00322*
X01605*
Y00322*
X01605*
Y00321*
X01604*
Y00322*
X01604*
Y00322*
X01603*
Y00323*
X01603*
Y00323*
X01602*
Y00324*
X01602*
Y00324*
X01601*
Y00325*
X01601*
Y00325*
X01578*
Y00325*
X01577*
Y00324*
X01577*
Y00324*
X01576*
Y00323*
X01576*
Y00323*
X01575*
Y00322*
X01575*
Y00322*
X01574*
Y00321*
X01574*
Y00321*
X01573*
Y0032*
X01573*
Y0032*
X01573*
Y00319*
X01572*
Y00319*
X01572*
Y00318*
X01571*
Y00318*
X01571*
Y00317*
X0157*
Y00317*
X0157*
Y00316*
X01569*
Y00316*
X01569*
Y00315*
X01568*
Y00315*
X01568*
Y00314*
X01567*
Y00314*
X01567*
Y00313*
X01566*
Y00313*
X01566*
Y00312*
X01565*
Y00312*
X01565*
Y00311*
X01564*
Y00311*
X01564*
Y0031*
X01563*
Y0031*
X01563*
Y0031*
X01562*
Y00309*
X01562*
Y00309*
X01561*
Y00308*
X01561*
Y00308*
X0156*
Y00307*
X0156*
Y00307*
X01559*
Y00306*
X01559*
Y00306*
X01558*
Y00305*
X01558*
Y00305*
X01558*
Y00304*
X01557*
Y00304*
X01557*
Y00303*
X01557*
Y00302*
X01558*
Y00301*
X01558*
Y003*
X01558*
Y003*
X01559*
Y00299*
X01559*
Y00298*
X0156*
Y00298*
X0156*
Y00297*
X01561*
Y00296*
X01561*
Y00296*
X01562*
Y00295*
X01562*
Y00294*
X01563*
Y00294*
X01563*
Y00293*
X01564*
Y00292*
X01564*
Y00292*
X01565*
Y00291*
X01565*
Y0029*
X01566*
Y00289*
X01566*
Y00289*
X01567*
Y00288*
X01567*
Y00287*
X01568*
Y00287*
X01568*
Y00286*
X01569*
Y00285*
X01569*
Y00284*
X0157*
Y00284*
X0157*
Y00283*
X01571*
Y00282*
X01571*
Y00282*
X01572*
Y00281*
X01572*
Y0028*
X01573*
Y0028*
X01573*
Y00279*
X01573*
Y00278*
X01574*
Y00278*
X01574*
Y00277*
X01575*
Y00276*
X01575*
Y00275*
X01576*
Y00275*
X01576*
Y00274*
X01577*
Y00273*
X01577*
Y00272*
X01578*
Y00272*
X01578*
Y00271*
X01579*
Y0027*
X01579*
Y0027*
X01611*
Y0027*
X01613*
Y00271*
X01614*
Y00271*
X01615*
Y00272*
X01617*
Y00272*
X01619*
Y00273*
X0162*
Y00273*
X01622*
Y00274*
X01623*
Y00274*
X01625*
Y00275*
X01626*
Y00275*
X01628*
Y00276*
X01629*
Y00276*
X0163*
Y00277*
X01632*
Y00277*
X01633*
Y00278*
X01635*
Y00278*
X01637*
Y00279*
X01638*
Y00279*
X0164*
Y0028*
X01641*
Y0028*
X01643*
Y00281*
X01644*
Y00281*
X01645*
Y00282*
X01646*
Y00282*
X01646*
Y00282*
X01647*
Y00283*
X01647*
Y00283*
X01648*
Y00284*
X01649*
Y00284*
X01649*
Y00285*
X0165*
Y00285*
X01651*
Y00286*
X01651*
Y00286*
X01652*
Y00287*
X01652*
Y00287*
X01653*
Y00288*
X01654*
Y00288*
X01654*
Y00289*
X01655*
Y00289*
X01656*
Y0029*
X01656*
Y0029*
X01657*
Y00291*
X01657*
Y00291*
X01658*
Y00292*
X01658*
Y00292*
X01659*
Y00293*
X01659*
Y00293*
X0166*
Y00293*
X01661*
Y00293*
X0166*
Y00294*
X01661*
Y00293*
X01661*
Y00294*
X01661*
Y00294*
X01661*
Y00294*
X01662*
Y00293*
X01662*
Y00293*
X01661*
Y00292*
X0166*
Y00292*
X0166*
Y00291*
X01659*
Y00291*
X01659*
Y0029*
X01658*
Y0029*
X01658*
Y00289*
X01657*
Y00289*
X01657*
Y00288*
X01656*
Y00288*
X01655*
Y00287*
X01655*
Y00287*
X01654*
Y00286*
X01653*
Y00286*
X01653*
Y00285*
X01652*
Y00285*
X01651*
Y00284*
X01651*
Y00284*
X0165*
Y00283*
X0165*
Y00283*
X01649*
Y00282*
X01648*
Y00282*
X01648*
Y00282*
X01647*
Y00281*
X01646*
Y00281*
X01646*
Y0028*
X01645*
Y0028*
X01644*
Y00279*
X01642*
Y00279*
X0164*
Y00278*
X01639*
Y00278*
X01637*
Y00277*
X01636*
Y00277*
X01634*
Y00276*
X01633*
Y00276*
X01631*
Y00275*
X0163*
Y00275*
X01628*
Y00274*
X01627*
Y00274*
X01625*
Y00273*
X01624*
Y00273*
X01622*
Y00272*
X01621*
Y00272*
X01619*
Y00271*
X01618*
Y00271*
X01616*
Y0027*
X01615*
Y0027*
X01614*
Y00269*
X01614*
Y00269*
X01616*
Y00268*
X01619*
Y00268*
X01622*
Y00267*
X01624*
Y00267*
X01627*
Y00267*
X0163*
Y00266*
X01632*
Y00266*
X01634*
Y00265*
X01637*
Y00265*
X0164*
Y00264*
X01642*
Y00264*
X01645*
Y00263*
X01647*
Y00263*
X0165*
Y00262*
X01652*
Y00262*
X01654*
Y00261*
X01657*
Y00261*
X01659*
Y0026*
X01663*
Y00261*
X01663*
Y0026*
X01665*
Y0026*
X01666*
Y00261*
X01667*
Y00261*
X01668*
Y00262*
X01669*
Y00262*
X0167*
Y00263*
X01671*
Y00263*
X01672*
Y00264*
X01673*
Y00264*
X01673*
Y00265*
X01674*
Y00265*
X01675*
Y00266*
X01676*
Y00266*
X01677*
Y00267*
X01678*
Y00267*
X01679*
Y00267*
X0168*
Y00268*
X01681*
Y00267*
X0168*
Y00267*
X01679*
Y00267*
X01678*
Y00266*
X01678*
Y00266*
X01677*
Y00265*
X01676*
Y00265*
X01675*
Y00264*
X01674*
Y00264*
X01673*
Y00263*
X01672*
Y00263*
X01671*
Y00262*
X01671*
Y00262*
X0167*
Y00261*
X01669*
Y00261*
X01668*
Y0026*
X01667*
Y00259*
X01667*
Y00258*
X01667*
Y00258*
X01667*
Y00257*
X01667*
Y00257*
X01667*
Y00256*
X01667*
Y00256*
X01667*
Y00255*
X01667*
Y00255*
X01667*
Y00254*
X01667*
Y00253*
X01667*
Y00253*
X01667*
Y00251*
X01667*
Y00251*
X01667*
Y00247*
X01666*
Y00247*
X01665*
Y00246*
X01665*
Y00247*
X01664*
Y00246*
X01664*
Y00246*
X01662*
Y00245*
X01661*
Y00245*
X0166*
Y00244*
X0166*
Y00245*
X01659*
Y00244*
X01658*
Y00244*
X01658*
Y00243*
X01657*
Y00244*
X01657*
Y00243*
X01656*
Y00243*
X01655*
Y00242*
X01653*
Y00242*
X01653*
Y00241*
X01652*
Y00242*
X01652*
Y00241*
X01651*
Y00241*
X01651*
Y0024*
X0165*
Y00241*
X0165*
Y0024*
X01648*
Y0024*
X01648*
Y00239*
X01647*
Y0024*
X01647*
Y00239*
X01646*
Y00239*
X01645*
Y00239*
X01644*
Y00239*
X01644*
Y00239*
X01644*
Y00238*
X01643*
Y00238*
X01643*
Y00238*
X01642*
Y00238*
X01642*
Y00238*
X01641*
Y00239*
X01641*
Y00239*
X0164*
Y00239*
X0164*
Y0024*
X01639*
Y0024*
X01639*
Y00242*
X01638*
Y00242*
X01638*
Y00243*
X01637*
Y00243*
X01637*
Y00244*
X01636*
Y00244*
X01636*
Y00246*
X01635*
Y00247*
X01634*
Y00247*
X01634*
Y00248*
X0162*
Y00248*
X01619*
Y00248*
X01618*
Y00248*
X01617*
Y00248*
X01617*
Y00248*
X01616*
Y00248*
X01616*
Y00248*
X01615*
Y00248*
X01615*
Y00248*
X01615*
Y00248*
X01614*
Y00248*
X01614*
Y00248*
X01613*
Y00248*
X01613*
Y00248*
X01612*
Y00247*
X01611*
Y00246*
X01611*
Y00246*
X0161*
Y00244*
X0161*
Y00244*
X01609*
Y00244*
X01609*
Y00243*
X01608*
Y00243*
X01608*
Y00242*
X01607*
Y00242*
X01607*
Y00241*
X01606*
Y00241*
X01606*
Y0024*
X01605*
Y0024*
X01605*
Y00239*
X01604*
Y00239*
X01604*
Y00239*
X01603*
Y00238*
X01603*
Y00237*
X01602*
Y00237*
X01602*
Y00237*
X01601*
Y00238*
X01601*
Y00237*
X01601*
Y00238*
X016*
Y00238*
X016*
Y00238*
X01599*
Y00238*
X01599*
Y00238*
X01598*
Y00238*
X01597*
Y00239*
X01596*
Y00239*
X01596*
Y00239*
X01595*
Y00239*
X01595*
Y00239*
X01594*
Y00239*
X01593*
Y00239*
X01591*
Y0024*
X01591*
Y00239*
X0159*
Y0024*
X01589*
Y0024*
X01587*
Y00241*
X01587*
Y0024*
X01587*
Y00241*
X01585*
Y00241*
X01584*
Y00242*
X01583*
Y00241*
X01583*
Y00242*
X01582*
Y00241*
X01582*
Y00242*
X0158*
Y00242*
X01579*
Y00248*
X01578*
Y00253*
X01578*
Y00254*
X01577*
Y00254*
X01576*
Y00253*
X01575*
Y00253*
X01575*
Y00253*
X01574*
Y00253*
X01574*
Y00253*
X01573*
Y00252*
X01573*
Y00253*
X01573*
Y00252*
X01571*
Y00252*
X01571*
Y00251*
X0157*
Y00252*
X0157*
Y00251*
X01568*
Y00251*
X01568*
Y0025*
X01567*
Y00251*
X01567*
Y0025*
X01566*
Y0025*
X01565*
Y00249*
X01564*
Y0025*
X01564*
Y00249*
X01563*
Y00249*
X01562*
Y00248*
X01561*
Y00249*
X01561*
Y00248*
X0156*
Y00248*
X0156*
Y00247*
X01559*
Y00248*
X01559*
Y00247*
X01558*
Y00248*
X01557*
Y00247*
X01557*
Y00248*
X01556*
Y00248*
X01556*
Y00249*
X01555*
Y00249*
X01554*
Y0025*
X01552*
Y0025*
X01551*
Y00251*
X01549*
Y00251*
X01548*
Y00252*
X01548*
Y00251*
X01547*
Y00252*
X01546*
Y00252*
X01544*
Y00253*
X01544*
Y00253*
X01543*
Y00253*
X01543*
Y00254*
X01541*
Y00253*
X01541*
Y00254*
X0154*
Y00253*
X01539*
Y00254*
X01538*
Y00254*
X01538*
Y00254*
X01537*
Y00254*
X01536*
Y00255*
X01535*
Y00255*
X01535*
Y00256*
X01534*
Y00255*
X01533*
Y00256*
X01532*
Y00256*
X01532*
Y00256*
X01531*
Y00256*
X0153*
Y00257*
X0153*
Y00257*
X01529*
Y00257*
X01529*
Y00257*
X01528*
Y00258*
X01526*
Y00258*
X01526*
Y00258*
X01525*
Y00259*
X01524*
Y00259*
X01523*
Y00259*
X01523*
Y00259*
X01522*
Y0026*
X01521*
Y0026*
X0152*
Y0026*
X0152*
Y0026*
X01519*
Y00261*
X01518*
Y00261*
X01516*
Y00262*
X01515*
Y00262*
X01514*
Y00263*
X01512*
Y00263*
X01511*
Y00264*
X01509*
Y00264*
X01508*
Y00265*
X01506*
Y00265*
X01505*
Y00266*
X01503*
Y00266*
X01502*
Y00267*
X01501*
Y00267*
X01501*
Y00267*
X01501*
Y00267*
X01499*
Y00267*
X01498*
Y00268*
X01496*
Y00268*
X01496*
Y00269*
X01495*
Y00268*
X01495*
Y00269*
X01493*
Y00269*
X01493*
Y0027*
X01492*
Y00269*
X01492*
Y0027*
X0149*
Y0027*
X0149*
Y00271*
X01489*
Y00271*
X01489*
Y00272*
X01489*
Y00272*
X01489*
Y00273*
X01489*
Y00273*
X01489*
Y00274*
X01489*
Y00274*
X01489*
Y00275*
X01489*
Y00275*
X01489*
Y00276*
X01489*
Y00276*
X01489*
Y00277*
X01489*
Y00277*
X01489*
Y00278*
X01489*
Y00278*
X01489*
Y00279*
X01489*
Y00279*
X01489*
Y0028*
X01489*
Y0028*
X01489*
Y00281*
X01489*
Y00281*
X01489*
Y00282*
X01489*
Y00282*
X01489*
Y00282*
X01489*
Y00283*
X01489*
Y00283*
X01489*
Y00284*
X01489*
Y00284*
X01489*
Y00285*
X01489*
Y00285*
X01489*
Y00286*
X01489*
Y00286*
X01489*
Y00287*
X01489*
Y00287*
X01489*
Y00288*
X01489*
Y00288*
X01489*
Y00289*
X01489*
Y00289*
X01489*
Y0029*
X01489*
Y0029*
X01489*
Y00291*
X01489*
Y00291*
X01489*
Y00292*
X0149*
Y00292*
X01493*
Y00293*
X01495*
Y00293*
X01496*
Y00294*
X01498*
Y00294*
X015*
Y00295*
X01502*
Y00295*
X01503*
Y00296*
X01505*
Y00296*
X01507*
Y00296*
X01509*
Y00297*
X01511*
Y00297*
X01513*
Y00298*
X01515*
Y00298*
X01517*
Y00299*
X01519*
Y00299*
X0152*
Y003*
X01522*
Y003*
X01524*
Y00301*
X01526*
Y00301*
X01527*
Y00302*
X01529*
Y00302*
X01531*
Y00303*
X01533*
Y00303*
X01533*
Y00305*
X01533*
Y00307*
X01532*
Y0031*
X01532*
Y00312*
X01531*
Y00314*
X01531*
Y00317*
X0153*
Y0032*
X0153*
Y00322*
X0153*
Y00325*
X01529*
Y00327*
X01529*
Y00329*
X01528*
Y00332*
X01528*
Y00334*
X01527*
Y00335*
X01528*
Y00336*
X01527*
Y00338*
X01528*
Y0034*
X01528*
Y00343*
X01529*
Y00345*
X01529*
Y00347*
X0153*
Y0035*
X0153*
Y00353*
X0153*
Y00354*
X01531*
Y00357*
X01531*
Y00357*
X01531*
Y00358*
X01531*
Y0036*
X01532*
Y00362*
X01532*
Y00365*
X01533*
Y00368*
X01533*
Y00369*
X01532*
Y00369*
X0153*
Y0037*
X01528*
Y0037*
X01526*
Y00371*
X01525*
Y00371*
X01523*
Y00372*
X01521*
Y00372*
X01519*
Y00373*
X01518*
Y00373*
X01515*
Y00374*
X01514*
Y00374*
X01512*
Y00375*
X0151*
Y00375*
X01508*
Y00376*
X01506*
Y00376*
X01504*
Y00377*
X01503*
Y00377*
X01501*
Y00378*
X01499*
Y00378*
X01498*
Y00379*
X01495*
Y00379*
X01494*
Y0038*
X01492*
Y0038*
X0149*
Y00381*
X01489*
Y00381*
X01489*
Y00382*
X01489*
Y00382*
X01489*
Y00382*
X01489*
Y00383*
X01489*
Y00383*
X01489*
Y00384*
X01489*
Y00384*
X01489*
Y00385*
X01489*
Y00385*
X01489*
Y00386*
X01489*
Y00386*
X01489*
Y00387*
X01489*
Y00387*
X01489*
Y00388*
X01489*
Y00388*
X01489*
Y00389*
X01489*
Y00389*
X01489*
Y0039*
X01489*
Y0039*
X01489*
Y00391*
X01489*
Y00391*
X01489*
Y00392*
X01489*
Y00392*
X01489*
Y00393*
X01489*
Y00393*
X01489*
Y00394*
X01489*
Y00394*
X01489*
Y00395*
X01489*
Y00395*
X01489*
Y00396*
X01489*
Y00396*
X01489*
Y00396*
X01489*
Y00397*
X01489*
Y00397*
X01489*
Y00398*
X01489*
Y00398*
X01489*
Y00399*
X01489*
Y00399*
X01489*
Y004*
X01489*
Y004*
X01489*
Y00401*
X01489*
Y00401*
X0149*
Y00402*
X01491*
Y00402*
X01491*
Y00402*
X01492*
Y00402*
X01493*
Y00403*
X01494*
Y00403*
X01494*
Y00403*
X01495*
Y00403*
X01496*
Y00404*
X01497*
Y00404*
X01497*
Y00404*
X01498*
Y00404*
X01498*
Y00405*
X015*
Y00405*
X015*
Y00405*
X01501*
Y00405*
X01501*
Y00406*
X01502*
Y00406*
X01503*
Y00406*
X01503*
Y00406*
X01504*
Y00407*
X01505*
Y00407*
X01506*
Y00407*
X01506*
Y00407*
X01507*
Y00408*
X01508*
Y00408*
X0151*
Y00409*
X01511*
Y00409*
X01513*
Y0041*
X01514*
Y0041*
X01515*
Y0041*
X01517*
Y00411*
X01518*
Y00411*
X0152*
Y00412*
X01521*
Y00412*
X01523*
Y00413*
X01524*
Y00413*
X01525*
Y00414*
X01525*
Y00413*
X01526*
Y00414*
X01527*
Y00413*
X01528*
Y00414*
X01527*
Y00414*
X01528*
Y00415*
X01528*
Y00414*
X01529*
Y00415*
X0153*
Y00415*
X0153*
Y00416*
X01531*
Y00415*
X01531*
Y00416*
X01533*
Y00416*
X01533*
Y00417*
X01534*
Y00416*
X01535*
Y00417*
X01535*
Y00417*
X01536*
Y00417*
X01536*
Y00418*
X01537*
Y00417*
X01537*
Y00418*
X01538*
Y00418*
X01538*
Y00418*
X01539*
Y00418*
X01539*
Y00419*
X0154*
Y00418*
X0154*
Y00418*
X01543*
Y00419*
X01544*
Y0042*
X01545*
Y0042*
X01547*
Y00421*
X01548*
Y00421*
X01549*
Y00422*
X0155*
Y00422*
X01551*
Y00422*
X01553*
Y00423*
X01554*
Y00423*
X01555*
Y00424*
X01556*
Y00425*
X01556*
Y00424*
X01557*
Y00425*
X01557*
Y00424*
X01558*
Y00425*
X01558*
Y00425*
X01558*
Y00425*
X01559*
Y00424*
X01559*
Y00425*
X0156*
Y00424*
X01561*
Y00424*
X01562*
Y00423*
X01562*
Y00424*
X01563*
Y00423*
X01564*
Y00423*
X01565*
Y00422*
X01565*
Y00423*
X01566*
Y00422*
X01566*
Y00422*
X01568*
Y00421*
X01568*
Y00422*
X01569*
Y00421*
X01569*
Y00421*
X01571*
Y0042*
X01571*
Y00421*
X01572*
Y0042*
X01572*
Y0042*
X01573*
Y00419*
X01573*
Y0042*
X01573*
Y00419*
X01574*
Y00419*
X01575*
Y00418*
X01577*
Y00418*
X01578*
Y00419*
X01578*
Y00425*
X01579*
Y00429*
X01579*
Y0043*
X01581*
Y0043*
X01581*
Y0043*
X01582*
Y0043*
X01583*
Y00431*
X01585*
Y00431*
X01585*
Y00431*
X01586*
Y00431*
X01587*
Y00432*
X01588*
Y00432*
X01589*
Y00432*
X01589*
Y00432*
X0159*
Y00432*
X0159*
Y00432*
X01591*
Y00433*
X01591*
Y00432*
X01592*
Y00433*
X01593*
Y00433*
X01594*
Y00433*
X01594*
Y00433*
X01596*
Y00434*
X01597*
Y00434*
X01598*
Y00434*
X01598*
Y00434*
X016*
Y00435*
X01601*
Y00435*
X01601*
Y00435*
X01602*
Y00435*
X01602*
Y00435*
G37*
G36*
X0155Y00422D02*
X0155D01*
Y00423*
X0155*
Y00422*
G37*
G36*
X01665Y0041D02*
X01664D01*
Y00411*
X01665*
Y0041*
G37*
G36*
X01669Y00409D02*
X01668D01*
Y00409*
X01669*
Y00409*
G37*
G36*
X01698Y00405D02*
X01696D01*
Y00406*
X01698*
Y00405*
G37*
G36*
X01696Y00405D02*
X01695D01*
Y00405*
X01696*
Y00405*
G37*
G36*
X01695Y00404D02*
X01694D01*
Y00405*
X01695*
Y00404*
G37*
G36*
X01692D02*
X01691D01*
Y00405*
X01692*
Y00404*
G37*
G36*
X01694Y00404D02*
X01693D01*
Y00404*
X01694*
Y00404*
G37*
G36*
X01693Y00403D02*
X01692D01*
Y00404*
X01693*
Y00403*
G37*
G36*
X01692Y00403D02*
X01691D01*
Y00403*
X01692*
Y00403*
G37*
G36*
X01691Y00402D02*
X0169D01*
Y00403*
X01691*
Y00402*
G37*
G36*
X0169Y00402D02*
X01689D01*
Y00402*
X0169*
Y00402*
G37*
G36*
X01689Y00401D02*
X01688D01*
Y00402*
X01689*
Y00401*
G37*
G36*
X01701Y00402D02*
X01701D01*
Y00401*
X01701*
Y00401*
X017*
Y00402*
X01701*
Y00402*
G37*
G36*
X01688Y00401D02*
X01687D01*
Y00401*
X01688*
Y00401*
G37*
G36*
X01687Y004D02*
X01687D01*
Y00401*
X01687*
Y004*
G37*
G36*
X01672Y00407D02*
X01673D01*
Y00407*
X01673*
Y00406*
X01674*
Y00406*
X01675*
Y00405*
X01676*
Y00405*
X01677*
Y00404*
X01678*
Y00404*
X01679*
Y00403*
X0168*
Y00403*
X01681*
Y00402*
X01682*
Y00402*
X01683*
Y00401*
X01684*
Y00401*
X01685*
Y004*
X01687*
Y004*
X01685*
Y004*
X01684*
Y00401*
X01683*
Y00401*
X01682*
Y00402*
X01681*
Y00402*
X0168*
Y00403*
X01679*
Y00403*
X01678*
Y00404*
X01677*
Y00404*
X01676*
Y00405*
X01675*
Y00405*
X01674*
Y00406*
X01673*
Y00406*
X01673*
Y00407*
X01672*
Y00407*
X01671*
Y00408*
X01672*
Y00407*
G37*
G36*
X01704Y00397D02*
X01704D01*
Y00396*
X01704*
Y00397*
X01703*
Y00398*
X01704*
Y00397*
G37*
G36*
X01698Y00408D02*
X01699D01*
Y00407*
X01699*
Y00407*
X017*
Y00406*
X017*
Y00405*
X01701*
Y00405*
X01701*
Y00404*
X01701*
Y00403*
X01702*
Y00403*
X01702*
Y00402*
X01703*
Y00402*
X01703*
Y00401*
X01704*
Y004*
X01704*
Y004*
X01705*
Y00399*
X01705*
Y00399*
X01706*
Y00398*
X01706*
Y00397*
X01707*
Y00397*
X01707*
Y00396*
X01707*
Y00396*
X01706*
Y00397*
X01706*
Y00398*
X01705*
Y00398*
X01705*
Y00399*
X01704*
Y00399*
X01704*
Y004*
X01703*
Y004*
X01703*
Y00401*
X01702*
Y00402*
X01702*
Y00402*
X01701*
Y00403*
X01701*
Y00404*
X01701*
Y00404*
X017*
Y00405*
X017*
Y00406*
X01699*
Y00406*
X01699*
Y00407*
X01698*
Y00407*
X01697*
Y00407*
X01696*
Y00406*
X01695*
Y00406*
X01694*
Y00405*
X01693*
Y00405*
X01692*
Y00405*
X01693*
Y00406*
X01693*
Y00406*
X01694*
Y00407*
X01695*
Y00407*
X01696*
Y00408*
X01697*
Y00408*
X01698*
Y00408*
G37*
G36*
X01712Y00392D02*
X01711D01*
Y00393*
X01712*
Y00392*
G37*
G36*
X01707Y00393D02*
X01708D01*
Y00392*
X01707*
Y00393*
X01707*
Y00394*
X01707*
Y00393*
G37*
G36*
X01713Y00391D02*
X01712D01*
Y00392*
X01713*
Y00391*
G37*
G36*
X01709D02*
X01709D01*
Y0039*
X01709*
Y00391*
X01708*
Y00392*
X01709*
Y00391*
G37*
G36*
X01712Y00385D02*
X01712D01*
Y00387*
X01712*
Y00385*
G37*
G36*
X01712Y00385D02*
X01711D01*
Y00385*
X01712*
Y00385*
G37*
G36*
X01711Y00384D02*
X01711D01*
Y00385*
X01711*
Y00384*
G37*
G36*
X01711Y00383D02*
X0171D01*
Y00382*
X0171*
Y00383*
X0171*
Y00384*
X01711*
Y00383*
G37*
G36*
X0171Y00382D02*
X01709D01*
Y00382*
X0171*
Y00382*
G37*
G36*
X01709Y00381D02*
X01709D01*
Y00382*
X01709*
Y00381*
G37*
G36*
X01709Y0038D02*
X01708D01*
Y00381*
X01709*
Y0038*
G37*
G36*
X01708Y0038D02*
X01708D01*
Y0038*
X01708*
Y0038*
G37*
G36*
X01708Y00379D02*
X01707D01*
Y0038*
X01708*
Y00379*
G37*
G36*
X01707Y00378D02*
X01707D01*
Y00377*
X01706*
Y00378*
X01707*
Y00379*
X01707*
Y00378*
G37*
G36*
X01706Y00376D02*
X01706D01*
Y00377*
X01706*
Y00376*
G37*
G36*
X01665Y00377D02*
X01665D01*
Y00376*
X01664*
Y00377*
X01664*
Y00377*
X01665*
Y00377*
G37*
G36*
X01706Y00376D02*
X01705D01*
Y00376*
X01706*
Y00376*
G37*
G36*
X01664D02*
X01663D01*
Y00376*
X01664*
Y00376*
G37*
G36*
X01705Y00375D02*
X01705D01*
Y00376*
X01705*
Y00375*
G37*
G36*
X01705Y00374D02*
X01704D01*
Y00373*
X01704*
Y00374*
X01704*
Y00375*
X01705*
Y00374*
G37*
G36*
X01667Y00373D02*
X01667D01*
Y00374*
X01667*
Y00373*
G37*
G36*
X01667Y00375D02*
X01667D01*
Y00375*
X01668*
Y00374*
X01668*
Y00374*
X01669*
Y00373*
X0167*
Y00373*
X0167*
Y00372*
X01669*
Y00373*
X01669*
Y00373*
X01668*
Y00374*
X01667*
Y00374*
X01667*
Y00375*
X01666*
Y00375*
X01666*
Y00376*
X01667*
Y00375*
G37*
G36*
X01709Y00372D02*
X01708D01*
Y00372*
X01709*
Y00372*
G37*
G36*
X01669D02*
X01668D01*
Y00372*
X01669*
Y00372*
G37*
G36*
X01672Y00371D02*
X01672D01*
Y00371*
X01671*
Y00371*
X01671*
Y00372*
X01672*
Y00371*
G37*
G36*
Y0037D02*
X01672D01*
Y00369*
X01671*
Y0037*
X01671*
Y0037*
X01672*
Y0037*
G37*
G36*
X01674Y00369D02*
X01674D01*
Y00369*
X01673*
Y00369*
X01673*
Y0037*
X01674*
Y00369*
G37*
G36*
X01677Y00366D02*
X01676D01*
Y00366*
X01677*
Y00366*
G37*
G36*
X01581Y0039D02*
X01581D01*
Y00389*
X01583*
Y00388*
X01585*
Y00388*
X01587*
Y00387*
X01588*
Y00387*
X0159*
Y00386*
X01591*
Y00386*
X01593*
Y00385*
X01594*
Y00385*
X01595*
Y00384*
X01596*
Y00384*
X01596*
Y00383*
X01597*
Y00383*
X01597*
Y00382*
X01598*
Y00382*
X01598*
Y00382*
X01599*
Y00381*
X01599*
Y0038*
X016*
Y00379*
X016*
Y00378*
X01601*
Y00376*
X01601*
Y00374*
X01601*
Y0036*
X01602*
Y00359*
X01601*
Y00359*
X01599*
Y0036*
X01598*
Y0036*
X01597*
Y00361*
X01595*
Y00361*
X01594*
Y00362*
X01593*
Y00362*
X01591*
Y00363*
X0159*
Y00363*
X01589*
Y00364*
X01587*
Y00364*
X01587*
Y00365*
X01585*
Y00365*
X01584*
Y00366*
X01583*
Y00366*
X01581*
Y00367*
X0158*
Y0039*
X01581*
Y0039*
G37*
G36*
X01613Y00357D02*
X01612D01*
Y00358*
X01613*
Y00357*
G37*
G36*
X01612Y00357D02*
X01612D01*
Y00357*
X01612*
Y00357*
G37*
G36*
X01612Y00356D02*
X01611D01*
Y00357*
X01612*
Y00356*
G37*
G36*
X01611Y00356D02*
X01611D01*
Y00356*
X01611*
Y00356*
G37*
G36*
X01611Y00355D02*
X0161D01*
Y00356*
X01611*
Y00355*
G37*
G36*
X0161Y00355D02*
X0161D01*
Y00355*
X0161*
Y00355*
G37*
G36*
X0161Y00354D02*
X01609D01*
Y00355*
X0161*
Y00354*
G37*
G36*
X01609Y00354D02*
X01609D01*
Y00354*
X01609*
Y00354*
G37*
G36*
X01609Y00353D02*
X01608D01*
Y00354*
X01609*
Y00353*
G37*
G36*
X0171Y00353D02*
X0171D01*
Y00352*
X01711*
Y00352*
X01712*
Y00351*
X01713*
Y00351*
X01714*
Y0035*
X01715*
Y0035*
X01715*
Y00349*
X01715*
Y0035*
X01714*
Y0035*
X01713*
Y00351*
X01712*
Y00351*
X01711*
Y00352*
X0171*
Y00352*
X01709*
Y00354*
X0171*
Y00353*
G37*
G36*
X01608Y00353D02*
X01608D01*
Y00353*
X01607*
Y00352*
X01607*
Y00352*
X01606*
Y00351*
X01606*
Y00351*
X01605*
Y0035*
X01605*
Y0035*
X01604*
Y00349*
X01603*
Y0035*
X01604*
Y0035*
X01604*
Y00351*
X01605*
Y00351*
X01605*
Y00352*
X01606*
Y00352*
X01606*
Y00353*
X01607*
Y00353*
X01607*
Y00353*
X01608*
Y00353*
G37*
G36*
X01717Y00348D02*
X01718D01*
Y00348*
X01719*
Y00347*
X0172*
Y00347*
X01719*
Y00347*
X01718*
Y00348*
X01717*
Y00348*
X01716*
Y00349*
X01717*
Y00348*
G37*
G36*
X01722Y00326D02*
X01721D01*
Y00346*
X01722*
Y00326*
G37*
G36*
X01721Y00325D02*
X01721D01*
Y00326*
X01721*
Y00325*
G37*
G36*
X01721Y00325D02*
X0172D01*
Y00325*
X01721*
Y00325*
G37*
G36*
X0172Y00325D02*
X01719D01*
Y00325*
X0172*
Y00325*
G37*
G36*
X01719Y00324D02*
X01718D01*
Y00325*
X01719*
Y00324*
G37*
G36*
X01718Y00324D02*
X01717D01*
Y00324*
X01718*
Y00324*
G37*
G36*
X01717Y00323D02*
X01716D01*
Y00324*
X01717*
Y00323*
G37*
G36*
X01708Y00395D02*
X01709D01*
Y00395*
X01709*
Y00394*
X0171*
Y00393*
X0171*
Y00393*
X01711*
Y00392*
X01711*
Y00392*
X01712*
Y00391*
X01712*
Y0039*
X01713*
Y0039*
X01713*
Y00389*
X01714*
Y00388*
X01714*
Y00388*
X01715*
Y00387*
X01715*
Y00386*
X01715*
Y00384*
X01714*
Y00384*
X01714*
Y00383*
X01713*
Y00383*
X01713*
Y00382*
X01713*
Y00382*
X01713*
Y00382*
X01712*
Y00381*
X01712*
Y00381*
X01711*
Y00379*
X01711*
Y00379*
X0171*
Y00378*
X0171*
Y00377*
X01709*
Y00376*
X01709*
Y00376*
X01708*
Y00375*
X01708*
Y00374*
X01708*
Y00373*
X01708*
Y00372*
X01708*
Y00371*
X01709*
Y00369*
X01709*
Y00368*
X0171*
Y00367*
X01709*
Y00367*
X0171*
Y00365*
X0171*
Y00365*
X0171*
Y00364*
X0171*
Y00364*
X01711*
Y00363*
X0171*
Y00363*
X01711*
Y00361*
X01711*
Y00361*
X01711*
Y0036*
X01711*
Y0036*
X01712*
Y00359*
X01711*
Y00359*
X01712*
Y00356*
X01712*
Y00356*
X01712*
Y00355*
X01712*
Y00355*
X01713*
Y00354*
X01712*
Y00354*
X01713*
Y00353*
X01713*
Y00353*
X01714*
Y00353*
X01714*
Y00353*
X01715*
Y00353*
X01715*
Y00352*
X01715*
Y00352*
X01717*
Y00351*
X01717*
Y00351*
X01718*
Y00351*
X01718*
Y00351*
X01719*
Y0035*
X01719*
Y0035*
X01721*
Y00349*
X01721*
Y00349*
X01722*
Y00348*
X01723*
Y00348*
X01724*
Y00324*
X01723*
Y00324*
X01722*
Y00323*
X01721*
Y00323*
X01721*
Y00323*
X0172*
Y00324*
X01721*
Y00324*
X01721*
Y00325*
X01722*
Y00325*
X01722*
Y00325*
X01723*
Y00329*
X01723*
Y00343*
X01723*
Y00347*
X01722*
Y00347*
X01722*
Y00348*
X01721*
Y00348*
X0172*
Y00349*
X0172*
Y00349*
X01718*
Y0035*
X01717*
Y0035*
X01716*
Y00351*
X01715*
Y00351*
X01715*
Y00352*
X01714*
Y00352*
X01713*
Y00353*
X01712*
Y00353*
X01711*
Y00354*
X01711*
Y00356*
X0171*
Y00358*
X0171*
Y0036*
X01709*
Y00362*
X01709*
Y00365*
X01708*
Y00367*
X01708*
Y00369*
X01707*
Y00371*
X01707*
Y00374*
X01706*
Y00375*
X01707*
Y00375*
X01707*
Y00376*
X01708*
Y00377*
X01708*
Y00378*
X01709*
Y00378*
X01709*
Y00379*
X0171*
Y0038*
X0171*
Y0038*
X01711*
Y00381*
X01711*
Y00382*
X01712*
Y00383*
X01712*
Y00383*
X01713*
Y00384*
X01713*
Y00385*
X01714*
Y00386*
X01714*
Y00387*
X01714*
Y00387*
X01713*
Y00388*
X01713*
Y00389*
X01712*
Y0039*
X01711*
Y00391*
X01711*
Y00391*
X0171*
Y00392*
X0171*
Y00393*
X01709*
Y00393*
X01709*
Y00394*
X01708*
Y00395*
X01708*
Y00396*
X01708*
Y00395*
G37*
G36*
X01716Y00323D02*
X01715D01*
Y00323*
X01716*
Y00323*
G37*
G36*
X01715Y00322D02*
X01714D01*
Y00323*
X01715*
Y00322*
G37*
G36*
X01714Y00322D02*
X01713D01*
Y00322*
X01714*
Y00322*
G37*
G36*
X01713Y00321D02*
X01712D01*
Y00322*
X01713*
Y00321*
G37*
G36*
X0172Y00323D02*
X0172D01*
Y00322*
X01719*
Y00322*
X01718*
Y00321*
X01717*
Y00321*
X01717*
Y00321*
X01716*
Y00321*
X01716*
Y0032*
X01715*
Y0032*
X01714*
Y00319*
X01714*
Y00319*
X01713*
Y00318*
X01712*
Y00317*
X01713*
Y00317*
X01712*
Y00316*
X01712*
Y00316*
X01712*
Y00315*
X01712*
Y00314*
X01711*
Y00313*
X01712*
Y00313*
X01711*
Y00311*
X01711*
Y00309*
X0171*
Y00309*
X01711*
Y00308*
X0171*
Y00309*
X0171*
Y00308*
X0171*
Y00308*
X0171*
Y00305*
X01709*
Y00305*
X0171*
Y00304*
X01709*
Y00304*
X01709*
Y00303*
X01709*
Y00303*
X01709*
Y003*
X01708*
Y003*
X01708*
Y00299*
X01708*
Y00299*
X01708*
Y00297*
X01708*
Y00297*
X01709*
Y00296*
X01709*
Y00295*
X0171*
Y00294*
X0171*
Y00293*
X01711*
Y00293*
X01711*
Y00292*
X01712*
Y00291*
X01712*
Y0029*
X01713*
Y0029*
X01713*
Y00289*
X01714*
Y00288*
X01714*
Y00287*
X01715*
Y00286*
X01715*
Y00285*
X01715*
Y00284*
X01714*
Y00284*
X01714*
Y00283*
X01713*
Y00282*
X01713*
Y00282*
X01712*
Y00282*
X01713*
Y00281*
X01712*
Y00281*
X01711*
Y0028*
X01711*
Y0028*
X0171*
Y00279*
X0171*
Y00278*
X01709*
Y00278*
X01709*
Y00277*
X01708*
Y00276*
X01708*
Y00276*
X01707*
Y00275*
X01708*
Y00274*
X01707*
Y00275*
X01707*
Y00274*
X01707*
Y00274*
X01707*
Y00274*
X01706*
Y00274*
X01706*
Y00273*
X01705*
Y00273*
X01705*
Y00272*
X01704*
Y00271*
X01704*
Y00271*
X01703*
Y0027*
X01702*
Y00269*
X01702*
Y00268*
X01701*
Y00268*
X01701*
Y00267*
X01701*
Y00268*
X01701*
Y00269*
X01701*
Y00269*
X01702*
Y0027*
X01702*
Y00271*
X01703*
Y00271*
X01703*
Y00272*
X01704*
Y00272*
X01704*
Y00273*
X01705*
Y00274*
X01705*
Y00274*
X01706*
Y00275*
X01706*
Y00275*
X01707*
Y00276*
X01707*
Y00277*
X01708*
Y00277*
X01708*
Y00278*
X01709*
Y00279*
X01709*
Y0028*
X0171*
Y0028*
X0171*
Y00281*
X01711*
Y00281*
X01711*
Y00282*
X01712*
Y00283*
X01712*
Y00283*
X01713*
Y00284*
X01713*
Y00284*
X01714*
Y00285*
X01714*
Y00286*
X01714*
Y00287*
X01713*
Y00287*
X01713*
Y00288*
X01712*
Y00289*
X01712*
Y0029*
X01711*
Y00291*
X01711*
Y00292*
X0171*
Y00292*
X0171*
Y00293*
X01709*
Y00294*
X01709*
Y00295*
X01708*
Y00295*
X01708*
Y00296*
X01707*
Y00296*
X01707*
Y00297*
X01706*
Y00298*
X01707*
Y00301*
X01707*
Y00303*
X01708*
Y00305*
X01708*
Y00307*
X01709*
Y0031*
X01709*
Y00312*
X0171*
Y00313*
X0171*
Y00316*
X01711*
Y00318*
X01711*
Y00319*
X01712*
Y00319*
X01712*
Y0032*
X01714*
Y0032*
X01714*
Y00321*
X01715*
Y00321*
X01716*
Y00322*
X01717*
Y00322*
X01718*
Y00323*
X01719*
Y00323*
X0172*
Y00323*
G37*
G36*
X01712Y00321D02*
X01711D01*
Y00321*
X01712*
Y00321*
G37*
G36*
X01711Y0032D02*
X0171D01*
Y00321*
X01711*
Y0032*
G37*
G36*
X0171Y0032D02*
X0171D01*
Y0032*
X0171*
Y0032*
G37*
G36*
X0171Y00318D02*
X01709D01*
Y0032*
X0171*
Y00318*
G37*
G36*
X01709Y00316D02*
X01709D01*
Y00318*
X01709*
Y00316*
G37*
G36*
X01709Y00314D02*
X01708D01*
Y00316*
X01709*
Y00314*
G37*
G36*
X01686Y00313D02*
X01686D01*
Y00314*
X01686*
Y00313*
G37*
G36*
X01625Y00368D02*
X01626D01*
Y00368*
X01627*
Y00367*
X01628*
Y00367*
X01629*
Y00366*
X0163*
Y00366*
X01631*
Y00365*
X01632*
Y00365*
X01633*
Y00364*
X01634*
Y00364*
X01635*
Y00363*
X01636*
Y00363*
X01637*
Y00362*
X01638*
Y00362*
X01639*
Y00361*
X0164*
Y00361*
X01641*
Y0036*
X01642*
Y0036*
X01643*
Y00359*
X01644*
Y00359*
X01645*
Y00358*
X01646*
Y00358*
X01647*
Y00357*
X01651*
Y00357*
X01653*
Y00357*
X01653*
Y00357*
X01669*
Y00355*
X0167*
Y00354*
X0167*
Y00353*
X01671*
Y00353*
X01671*
Y00351*
X01672*
Y0035*
X01672*
Y00349*
X01673*
Y00348*
X01673*
Y00347*
X01673*
Y00346*
X01674*
Y00345*
X01674*
Y00344*
X01675*
Y00342*
X01675*
Y00341*
X01676*
Y0034*
X01676*
Y00339*
X01677*
Y00338*
X01677*
Y00338*
X01678*
Y00338*
X01679*
Y00339*
X01679*
Y0034*
X0168*
Y00341*
X0168*
Y00343*
X01681*
Y00344*
X01681*
Y00345*
X01682*
Y00346*
X01682*
Y00347*
X01683*
Y00348*
X01683*
Y00349*
X01684*
Y0035*
X01684*
Y00351*
X01685*
Y00353*
X01685*
Y00353*
X01686*
Y00354*
X01686*
Y00355*
X01687*
Y00357*
X01687*
Y00357*
X01687*
Y00358*
X01686*
Y00358*
X01685*
Y00359*
X01685*
Y00359*
X01684*
Y0036*
X01683*
Y0036*
X01684*
Y0036*
X01685*
Y00359*
X01685*
Y00359*
X01686*
Y00358*
X01687*
Y00359*
X01686*
Y00359*
X01685*
Y0036*
X01685*
Y0036*
X01684*
Y00361*
X01684*
Y00361*
X01683*
Y00362*
X01682*
Y00362*
X01682*
Y00362*
X01682*
Y00361*
X01683*
Y00361*
X01682*
Y00361*
X01682*
Y00362*
X01681*
Y00362*
X0168*
Y00363*
X0168*
Y00363*
X01679*
Y00364*
X01678*
Y00364*
X01678*
Y00365*
X01679*
Y00364*
X01679*
Y00364*
X0168*
Y00363*
X0168*
Y00363*
X01681*
Y00363*
X0168*
Y00364*
X0168*
Y00364*
X01679*
Y00365*
X01679*
Y00365*
X01678*
Y00366*
X01678*
Y00366*
X01677*
Y00367*
X01676*
Y00367*
X01676*
Y00368*
X01675*
Y00368*
X01676*
Y00368*
X01677*
Y00367*
X01677*
Y00367*
X01678*
Y00366*
X01679*
Y00366*
X01679*
Y00365*
X0168*
Y00365*
X0168*
Y00364*
X01681*
Y00364*
X01682*
Y00363*
X01682*
Y00363*
X01683*
Y00362*
X01684*
Y00362*
X01684*
Y00361*
X01685*
Y00361*
X01686*
Y0036*
X01686*
Y0036*
X01687*
Y00359*
X01687*
Y00359*
X01688*
Y00358*
X01688*
Y00358*
X01689*
Y00357*
X01689*
Y00343*
X0169*
Y00329*
X01689*
Y00314*
X01688*
Y00314*
X01688*
Y00313*
X01687*
Y00313*
X01687*
Y00312*
X01686*
Y00312*
X01686*
Y00311*
X01685*
Y00311*
X01685*
Y0031*
X01684*
Y0031*
X01683*
Y0031*
X01683*
Y00309*
X01682*
Y00309*
X01681*
Y00308*
X01681*
Y00308*
X0168*
Y00307*
X0168*
Y00307*
X01679*
Y00306*
X01678*
Y00306*
X01678*
Y00305*
X01677*
Y00305*
X01676*
Y00305*
X01677*
Y00306*
X01677*
Y00306*
X01678*
Y00307*
X01677*
Y00307*
X01678*
Y00307*
X01678*
Y00307*
X01678*
Y00308*
X01678*
Y00307*
X01679*
Y00308*
X01678*
Y00308*
X01679*
Y00308*
X01679*
Y00308*
X01679*
Y00309*
X01679*
Y00309*
X0168*
Y0031*
X01681*
Y00309*
X01681*
Y0031*
X01681*
Y0031*
X01681*
Y0031*
X01682*
Y00311*
X01683*
Y0031*
X01683*
Y00311*
X01683*
Y00311*
X01683*
Y00311*
X01684*
Y00311*
X01683*
Y00312*
X01684*
Y00311*
X01684*
Y00312*
X01684*
Y00312*
X01684*
Y00312*
X01685*
Y00312*
X01684*
Y00313*
X01685*
Y00313*
X01686*
Y00313*
X01687*
Y00314*
X01686*
Y00314*
X01687*
Y00315*
X01687*
Y00315*
X01687*
Y00316*
X01686*
Y00318*
X01686*
Y00319*
X01685*
Y0032*
X01685*
Y00321*
X01684*
Y00322*
X01684*
Y00323*
X01683*
Y00324*
X01683*
Y00325*
X01682*
Y00326*
X01682*
Y00327*
X01681*
Y00328*
X01681*
Y00329*
X0168*
Y0033*
X0168*
Y00332*
X01679*
Y00333*
X01679*
Y00334*
X01678*
Y00334*
X01677*
Y00334*
X01677*
Y00333*
X01676*
Y00332*
X01676*
Y00331*
X01675*
Y00329*
X01675*
Y00328*
X01674*
Y00327*
X01674*
Y00326*
X01673*
Y00325*
X01673*
Y00324*
X01673*
Y00323*
X01672*
Y00322*
X01672*
Y00321*
X01671*
Y0032*
X01671*
Y00319*
X0167*
Y00317*
X0167*
Y00316*
X01669*
Y00315*
X01669*
Y00315*
X01648*
Y00314*
X01647*
Y00314*
X01646*
Y00313*
X01644*
Y00313*
X01644*
Y00312*
X01643*
Y00312*
X01642*
Y00311*
X01641*
Y00311*
X0164*
Y0031*
X01638*
Y0031*
X01638*
Y0031*
X01637*
Y00309*
X01636*
Y00309*
X01635*
Y00308*
X01633*
Y00308*
X01632*
Y00307*
X01631*
Y00307*
X0163*
Y00306*
X0163*
Y00306*
X01629*
Y00305*
X01627*
Y00306*
X01628*
Y00306*
X01629*
Y00307*
X0163*
Y00307*
X0163*
Y00308*
X01631*
Y00308*
X01632*
Y00309*
X01633*
Y00309*
X01634*
Y0031*
X01635*
Y0031*
X01636*
Y0031*
X01637*
Y00311*
X01638*
Y00311*
X01639*
Y00312*
X0164*
Y00312*
X01641*
Y00313*
X01642*
Y00313*
X01643*
Y00314*
X01644*
Y00314*
X01645*
Y00315*
X01646*
Y00316*
X01645*
Y00317*
X01645*
Y00319*
X01644*
Y0032*
X01644*
Y00322*
X01644*
Y00324*
X01643*
Y00325*
X01643*
Y00326*
X01642*
Y00328*
X01642*
Y00329*
X01641*
Y00331*
X01641*
Y00333*
X0164*
Y00334*
X0164*
Y00336*
X01639*
Y00336*
X0164*
Y00338*
X0164*
Y00339*
X01641*
Y00341*
X01641*
Y00342*
X01642*
Y00344*
X01642*
Y00345*
X01643*
Y00345*
X01642*
Y00346*
X01643*
Y00347*
X01643*
Y00349*
X01644*
Y0035*
X01644*
Y00352*
X01644*
Y00353*
X01645*
Y00355*
X01645*
Y00356*
X01646*
Y00357*
X01645*
Y00357*
X01644*
Y00358*
X01644*
Y00358*
X01643*
Y00359*
X01642*
Y00359*
X01641*
Y0036*
X0164*
Y0036*
X01639*
Y00361*
X01638*
Y00361*
X01637*
Y00362*
X01636*
Y00362*
X01635*
Y00363*
X01634*
Y00363*
X01633*
Y00364*
X01632*
Y00364*
X01631*
Y00365*
X0163*
Y00365*
X01629*
Y00366*
X01629*
Y00366*
X01628*
Y00367*
X01627*
Y00367*
X01626*
Y00368*
X01625*
Y00368*
X01624*
Y00368*
X01625*
Y00368*
G37*
G36*
X01708Y00312D02*
X01708D01*
Y00314*
X01708*
Y00312*
G37*
G36*
X01708Y0031D02*
X01707D01*
Y00312*
X01708*
Y0031*
G37*
G36*
X01707Y00308D02*
X01707D01*
Y0031*
X01707*
Y00308*
G37*
G36*
X01707Y00306D02*
X01706D01*
Y00308*
X01707*
Y00306*
G37*
G36*
X01677D02*
X01676D01*
Y00307*
X01677*
Y00306*
G37*
G36*
X01676Y00306D02*
X01676D01*
Y00306*
X01676*
Y00306*
G37*
G36*
X01676Y00305D02*
X01675D01*
Y00306*
X01676*
Y00305*
G37*
G36*
X01675Y00305D02*
X01674D01*
Y00305*
X01675*
Y00305*
G37*
G36*
X01627D02*
X01626D01*
Y00305*
X01627*
Y00305*
G37*
G36*
X01706Y00304D02*
X01706D01*
Y00306*
X01706*
Y00304*
G37*
G36*
X01676D02*
X01676D01*
Y00305*
X01676*
Y00304*
G37*
G36*
X01674D02*
X01674D01*
Y00305*
X01674*
Y00304*
G37*
G36*
X01626D02*
X01625D01*
Y00305*
X01626*
Y00304*
G37*
G36*
X01674Y00304D02*
X01673D01*
Y00304*
X01674*
Y00304*
G37*
G36*
X01625D02*
X01624D01*
Y00304*
X01625*
Y00304*
G37*
G36*
X01676D02*
X01675D01*
Y00303*
X01674*
Y00304*
X01675*
Y00304*
X01676*
Y00304*
G37*
G36*
X01673Y00303D02*
X01673D01*
Y00304*
X01673*
Y00303*
G37*
G36*
X01624D02*
X01624D01*
Y00304*
X01624*
Y00303*
G37*
G36*
X01674Y00303D02*
X01674D01*
Y00303*
X01674*
Y00303*
G37*
G36*
X01673D02*
X01672D01*
Y00303*
X01673*
Y00303*
G37*
G36*
X01706Y00302D02*
X01705D01*
Y00304*
X01706*
Y00302*
G37*
G36*
X01674D02*
X01673D01*
Y00303*
X01674*
Y00302*
G37*
G36*
X01672D02*
X01672D01*
Y00303*
X01672*
Y00302*
G37*
G36*
X01673Y00302D02*
X01673D01*
Y00302*
X01673*
Y00302*
G37*
G36*
X01672D02*
X01671D01*
Y00302*
X01672*
Y00302*
G37*
G36*
X01673Y00301D02*
X01672D01*
Y00302*
X01673*
Y00301*
G37*
G36*
X01671D02*
X01671D01*
Y00302*
X01671*
Y00301*
G37*
G36*
X01672Y00301D02*
X01672D01*
Y00301*
X01672*
Y00301*
G37*
G36*
X01671D02*
X0167D01*
Y00301*
X01671*
Y00301*
G37*
G36*
X01705Y003D02*
X01705D01*
Y00302*
X01705*
Y003*
G37*
G36*
X01672D02*
X01671D01*
Y00301*
X01672*
Y003*
G37*
G36*
X0167D02*
X01669D01*
Y00301*
X0167*
Y003*
G37*
G36*
X01671Y003D02*
X01671D01*
Y003*
X01671*
Y003*
G37*
G36*
X01669D02*
X01669D01*
Y003*
X01669*
Y003*
G37*
G36*
X01671Y00299D02*
X0167D01*
Y003*
X01671*
Y00299*
G37*
G36*
X01669D02*
X01668D01*
Y003*
X01669*
Y00299*
G37*
G36*
X0167Y00299D02*
X01669D01*
Y00299*
X0167*
Y00299*
G37*
G36*
X01668D02*
X01667D01*
Y00299*
X01668*
Y00299*
G37*
G36*
X01705Y00298D02*
X01704D01*
Y003*
X01705*
Y00298*
G37*
G36*
X01669D02*
X01669D01*
Y00299*
X01669*
Y00298*
G37*
G36*
X01667D02*
X01667D01*
Y00299*
X01667*
Y00298*
G37*
G36*
X01704Y00298D02*
X01704D01*
Y00298*
X01704*
Y00298*
G37*
G36*
X01667D02*
X01666D01*
Y00298*
X01667*
Y00298*
G37*
G36*
X01669D02*
X01668D01*
Y00297*
X01667*
Y00298*
X01668*
Y00298*
X01669*
Y00298*
G37*
G36*
X01666Y00297D02*
X01666D01*
Y00298*
X01666*
Y00297*
G37*
G36*
X01667Y00297D02*
X01667D01*
Y00297*
X01667*
Y00297*
G37*
G36*
X01665Y00296D02*
X01664D01*
Y00297*
X01665*
Y00296*
G37*
G36*
X01664Y00296D02*
X01664D01*
Y00296*
X01664*
Y00296*
G37*
G36*
X01666Y00297D02*
X01667D01*
Y00296*
X01666*
Y00296*
X01666*
Y00296*
X01665*
Y00296*
X01665*
Y00296*
X01666*
Y00297*
X01665*
Y00297*
X01666*
Y00297*
G37*
G36*
X01664Y00296D02*
X01663D01*
Y00296*
X01664*
Y00296*
G37*
G36*
X01665Y00295D02*
X01664D01*
Y00296*
X01665*
Y00295*
G37*
G36*
X01662Y00295D02*
X01662D01*
Y00295*
X01662*
Y00295*
G37*
G36*
X01663Y00295D02*
X01664D01*
Y00295*
X01664*
Y00294*
X01663*
Y00295*
X01663*
Y00295*
X01662*
Y00296*
X01663*
Y00295*
G37*
G36*
X01662Y00294D02*
X01661D01*
Y00295*
X01662*
Y00294*
G37*
G36*
X01663Y00294D02*
X01662D01*
Y00294*
X01663*
Y00294*
G37*
G36*
X01707D02*
X01708D01*
Y00293*
X01707*
Y00293*
X01707*
Y00294*
X01707*
Y00294*
G37*
G36*
X01715Y00286D02*
X01715D01*
Y00286*
X01715*
Y00286*
G37*
G36*
X01712Y00285D02*
X01712D01*
Y00286*
X01712*
Y00285*
G37*
G36*
X01712Y00284D02*
X01711D01*
Y00285*
X01712*
Y00284*
G37*
G36*
X01711Y00283D02*
X01711D01*
Y00284*
X01711*
Y00283*
G37*
G36*
X01711Y00283D02*
X0171D01*
Y00283*
X01711*
Y00283*
G37*
G36*
X0171Y00282D02*
X0171D01*
Y00282*
X01709*
Y00282*
X0171*
Y00283*
X0171*
Y00282*
G37*
G36*
X01602Y00312D02*
X01601D01*
Y00298*
X01601*
Y00296*
X01601*
Y00294*
X016*
Y00293*
X016*
Y00292*
X01599*
Y00292*
X01599*
Y00291*
X01598*
Y0029*
X01598*
Y0029*
X01597*
Y00289*
X01597*
Y00288*
X01596*
Y00288*
X01595*
Y00287*
X01594*
Y00287*
X01593*
Y00286*
X01592*
Y00286*
X01591*
Y00285*
X01589*
Y00285*
X01588*
Y00284*
X01586*
Y00284*
X01584*
Y00283*
X01582*
Y00283*
X01581*
Y00282*
X01581*
Y00282*
X0158*
Y00306*
X01582*
Y00306*
X01583*
Y00307*
X01584*
Y00307*
X01586*
Y00308*
X01587*
Y00308*
X01588*
Y00309*
X01589*
Y00309*
X01591*
Y0031*
X01592*
Y0031*
X01593*
Y0031*
X01595*
Y00311*
X01596*
Y00311*
X01598*
Y00312*
X01599*
Y00312*
X016*
Y00313*
X01601*
Y00313*
X01602*
Y00312*
G37*
G36*
X01709Y00281D02*
X01709D01*
Y00282*
X01709*
Y00281*
G37*
G36*
X01709Y00281D02*
X01708D01*
Y00281*
X01709*
Y00281*
G37*
G36*
X01708Y0028D02*
X01708D01*
Y00281*
X01708*
Y0028*
G37*
G36*
X01708Y00279D02*
X01707D01*
Y0028*
X01708*
Y00279*
G37*
G36*
X01707Y00279D02*
X01707D01*
Y00279*
X01707*
Y00279*
G37*
G36*
X01707Y00278D02*
X01706D01*
Y00277*
X01706*
Y00278*
X01706*
Y00279*
X01707*
Y00278*
G37*
G36*
X01706Y00277D02*
X01705D01*
Y00277*
X01706*
Y00277*
G37*
G36*
X01705Y00276D02*
X01705D01*
Y00277*
X01705*
Y00276*
G37*
G36*
X01705Y00275D02*
X01704D01*
Y00276*
X01705*
Y00275*
G37*
G36*
X01704Y00275D02*
X01704D01*
Y00275*
X01704*
Y00275*
G37*
G36*
X01704Y00274D02*
X01703D01*
Y00275*
X01704*
Y00274*
G37*
G36*
X01703Y00273D02*
X01703D01*
Y00273*
X01702*
Y00274*
X01703*
Y00274*
X01703*
Y00273*
G37*
G36*
X01702Y00272D02*
X01702D01*
Y00273*
X01702*
Y00272*
G37*
G36*
X01702Y00272D02*
X01701D01*
Y00272*
X01702*
Y00272*
G37*
G36*
X01701Y00271D02*
X01701D01*
Y00272*
X01701*
Y00271*
G37*
G36*
X01685D02*
X01684D01*
Y00271*
X01685*
Y00271*
G37*
G36*
X01701Y0027D02*
X01701D01*
Y00271*
X01701*
Y0027*
G37*
G36*
X01684D02*
X01683D01*
Y00271*
X01684*
Y0027*
G37*
G36*
X01489D02*
X01489D01*
Y00271*
X01489*
Y0027*
G37*
G36*
X01701Y0027D02*
X017D01*
Y0027*
X01701*
Y0027*
G37*
G36*
X01683D02*
X01682D01*
Y0027*
X01683*
Y0027*
G37*
G36*
X01685Y00269D02*
X01684D01*
Y0027*
X01685*
Y00269*
G37*
G36*
X01682D02*
X01681D01*
Y0027*
X01682*
Y00269*
G37*
G36*
X017Y00269D02*
X017D01*
Y0027*
X017*
Y00269*
G37*
G36*
X01684D02*
X01683D01*
Y00269*
X01684*
Y00269*
G37*
G36*
X01681D02*
X0168D01*
Y00269*
X01681*
Y00269*
G37*
G36*
X017Y00268D02*
X01699D01*
Y00269*
X017*
Y00268*
G37*
G36*
X01683D02*
X01682D01*
Y00269*
X01683*
Y00268*
G37*
G36*
X0168D02*
X01679D01*
Y00269*
X0168*
Y00268*
G37*
G36*
X01699Y00268D02*
X01699D01*
Y00268*
X01699*
Y00268*
G37*
G36*
X01682D02*
X01681D01*
Y00268*
X01682*
Y00268*
G37*
G36*
X01679D02*
X01678D01*
Y00268*
X01679*
Y00268*
G37*
G36*
X01678Y00267D02*
X01677D01*
Y00268*
X01678*
Y00267*
G37*
G36*
X01677Y00267D02*
X01676D01*
Y00267*
X01677*
Y00267*
G37*
G36*
X01699D02*
X01698D01*
Y00267*
X01698*
Y00267*
X01698*
Y00268*
X01699*
Y00267*
G37*
G36*
X01686Y00272D02*
X01687D01*
Y00271*
X01688*
Y00271*
X01689*
Y0027*
X0169*
Y0027*
X01691*
Y00269*
X01692*
Y00269*
X01693*
Y00268*
X01694*
Y00268*
X01695*
Y00267*
X01696*
Y00267*
X01697*
Y00267*
X01696*
Y00267*
X01695*
Y00267*
X01694*
Y00268*
X01693*
Y00268*
X01692*
Y00269*
X01691*
Y00269*
X0169*
Y0027*
X01689*
Y0027*
X01688*
Y00271*
X01687*
Y00271*
X01685*
Y00272*
X01686*
Y00272*
X01686*
Y00272*
G37*
G36*
X01676Y00267D02*
X01675D01*
Y00267*
X01676*
Y00267*
G37*
G36*
X01675Y00266D02*
X01674D01*
Y00267*
X01675*
Y00266*
G37*
G36*
X01701Y00266D02*
X01701D01*
Y00266*
X01701*
Y00266*
G37*
G36*
X01674D02*
X01673D01*
Y00266*
X01674*
Y00266*
G37*
G36*
X01701Y00265D02*
X017D01*
Y00266*
X01701*
Y00265*
G37*
G36*
X01673D02*
X01672D01*
Y00266*
X01673*
Y00265*
G37*
G36*
X01694Y00265D02*
X01694D01*
Y00265*
X01694*
Y00265*
G37*
G36*
X01672D02*
X01671D01*
Y00265*
X01672*
Y00265*
G37*
G36*
X01687Y0027D02*
X01688D01*
Y00269*
X01689*
Y00269*
X0169*
Y00268*
X01691*
Y00268*
X01691*
Y00267*
X01692*
Y00267*
X01694*
Y00267*
X01695*
Y00266*
X01695*
Y00266*
X01697*
Y00265*
X01698*
Y00265*
X01698*
Y00265*
X01699*
Y00266*
X01699*
Y00267*
X017*
Y00267*
X017*
Y00267*
X01701*
Y00267*
X017*
Y00266*
X017*
Y00266*
X01699*
Y00265*
X01699*
Y00264*
X01697*
Y00265*
X01696*
Y00264*
X01695*
Y00265*
X01694*
Y00266*
X01694*
Y00266*
X01693*
Y00267*
X01692*
Y00267*
X01691*
Y00267*
X0169*
Y00268*
X01689*
Y00268*
X01688*
Y00269*
X01687*
Y00269*
X01687*
Y0027*
X01685*
Y0027*
X01687*
Y0027*
G37*
G36*
X01671Y00264D02*
X0167D01*
Y00265*
X01671*
Y00264*
G37*
G36*
X0167Y00264D02*
X0167D01*
Y00264*
X0167*
Y00264*
G37*
G36*
X01669Y00263D02*
X01668D01*
Y00264*
X01669*
Y00263*
G37*
G36*
X01668Y00263D02*
X01668D01*
Y00263*
X01668*
Y00263*
G37*
G36*
X01665Y00261D02*
X01665D01*
Y00262*
X01665*
Y00261*
G37*
G36*
X01665Y00261D02*
X01664D01*
Y00261*
X01665*
Y00261*
G37*
G36*
X01671Y0026D02*
X0167D01*
Y00261*
X01671*
Y0026*
G37*
G36*
X0167Y0026D02*
X0167D01*
Y0026*
X0167*
Y0026*
G37*
G36*
X01535Y00255D02*
X01534D01*
Y00255*
X01535*
Y00255*
G37*
%LNmotor_unit_rev_3-2*%
%LPC*%
G36*
X01672Y00853D02*
X01671D01*
Y00852*
X01672*
Y00853*
G37*
G36*
X01689Y00781D02*
X01688D01*
Y0078*
X01689*
Y00781*
G37*
G36*
X01657Y00583D02*
X01656D01*
Y00583*
X01655*
Y00583*
X01655*
Y00583*
X01654*
Y00583*
X01653*
Y00583*
X01653*
Y00583*
X01652*
Y00583*
X01651*
Y00583*
X01651*
Y00583*
X0165*
Y00583*
X01649*
Y00583*
X01649*
Y00583*
X01646*
Y00583*
X01647*
Y00582*
X01649*
Y00581*
X0165*
Y00581*
X01652*
Y0058*
X01653*
Y00579*
X01655*
Y00578*
X01656*
Y00578*
X01658*
Y00577*
X0166*
Y00576*
X0166*
Y00576*
X01661*
Y00576*
X01662*
Y00576*
X01662*
Y00575*
X01663*
Y00574*
X01664*
Y00575*
X01664*
Y00574*
X01665*
Y00574*
X01666*
Y00573*
X01667*
Y00574*
X01667*
Y00573*
X01668*
Y00572*
X0167*
Y00572*
X01671*
Y00571*
X01673*
Y0057*
X01674*
Y00569*
X01676*
Y00569*
X01676*
Y00571*
X01677*
Y00572*
X01676*
Y00574*
X01677*
Y00574*
X01676*
Y00576*
X01677*
Y00577*
X01676*
Y00579*
X01677*
Y0058*
X01676*
Y00582*
X01676*
Y00581*
X01675*
Y00582*
X01673*
Y00581*
X01672*
Y00582*
X01666*
Y00583*
X01665*
Y00582*
X01664*
Y00583*
X01657*
Y00583*
G37*
G36*
X01646D02*
X01645D01*
Y00583*
X01646*
Y00583*
G37*
G36*
X01654Y00385D02*
X01653D01*
Y00384*
X01654*
Y00385*
G37*
G36*
X01516Y00383D02*
X01515D01*
Y00383*
X01516*
Y00383*
G37*
G36*
X01527Y00381D02*
X01526D01*
Y00381*
X01527*
Y00381*
G37*
G36*
X01529Y00381D02*
X01528D01*
Y0038*
X01529*
Y00381*
G37*
G36*
X01555Y00412D02*
X01554D01*
Y00412*
X01552*
Y00411*
X0155*
Y00411*
X01549*
Y0041*
X01547*
Y0041*
X01546*
Y0041*
X01544*
Y00409*
X01543*
Y00409*
X01542*
Y00408*
X0154*
Y00408*
X01539*
Y00407*
X01537*
Y00407*
X01536*
Y00406*
X01534*
Y00406*
X01532*
Y00405*
X01531*
Y00405*
X0153*
Y00404*
X01528*
Y00404*
X01527*
Y00403*
X01525*
Y00403*
X01524*
Y00402*
X01522*
Y00402*
X01521*
Y00401*
X01519*
Y00401*
X01518*
Y004*
X01516*
Y004*
X01515*
Y00399*
X01514*
Y00399*
X01512*
Y00398*
X01511*
Y00398*
X01509*
Y00397*
X01508*
Y00397*
X01506*
Y00396*
X01504*
Y00396*
X01503*
Y00396*
X01501*
Y00395*
X01501*
Y00387*
X01501*
Y00387*
X01503*
Y00386*
X01505*
Y00386*
X01508*
Y00385*
X0151*
Y00385*
X01512*
Y00384*
X01514*
Y00384*
X01516*
Y00383*
X01518*
Y00383*
X0152*
Y00382*
X01523*
Y00382*
X01525*
Y00382*
X01527*
Y00381*
X01529*
Y00381*
X01531*
Y0038*
X01534*
Y0038*
X01536*
Y0038*
X01536*
Y00381*
X01537*
Y00382*
X01537*
Y00382*
X01538*
Y00383*
X01538*
Y00384*
X01539*
Y00385*
X01539*
Y00386*
X0154*
Y00387*
X0154*
Y00387*
X01541*
Y00388*
X01541*
Y00389*
X01542*
Y0039*
X01542*
Y00391*
X01543*
Y00392*
X01543*
Y00393*
X01544*
Y00393*
X01544*
Y00394*
X01544*
Y00395*
X01545*
Y00396*
X01545*
Y00396*
X01546*
Y00397*
X01546*
Y00398*
X01547*
Y00399*
X01547*
Y004*
X01548*
Y004*
X01548*
Y00401*
X01549*
Y00402*
X01549*
Y00403*
X0155*
Y00404*
X0155*
Y00405*
X01551*
Y00405*
X01551*
Y00406*
X01552*
Y00407*
X01552*
Y00408*
X01553*
Y00409*
X01553*
Y0041*
X01554*
Y0041*
X01554*
Y00411*
X01555*
Y00412*
X01555*
Y00412*
G37*
G36*
X0153Y0038D02*
X0153D01*
Y0038*
X0153*
Y0038*
G37*
G36*
X01532Y0038D02*
X01531D01*
Y00379*
X01532*
Y0038*
G37*
G36*
X01577Y00348D02*
X01577D01*
Y00347*
X01577*
Y00348*
G37*
G36*
X01532Y00293D02*
X01531D01*
Y00292*
X01532*
Y00293*
G37*
G36*
X01536D02*
X01535D01*
Y00292*
X01532*
Y00292*
X0153*
Y00292*
X01529*
Y00292*
X0153*
Y00291*
X01528*
Y00292*
X01527*
Y00291*
X01528*
Y00291*
X01526*
Y0029*
X01524*
Y0029*
X01521*
Y00289*
X01519*
Y00289*
X01517*
Y00288*
X01515*
Y00288*
X01513*
Y00287*
X01511*
Y00287*
X01509*
Y00286*
X01506*
Y00286*
X01504*
Y00285*
X01502*
Y00285*
X01501*
Y00277*
X01501*
Y00277*
X01502*
Y00276*
X01504*
Y00276*
X01505*
Y00275*
X01507*
Y00275*
X01508*
Y00274*
X0151*
Y00274*
X01511*
Y00273*
X01513*
Y00273*
X01514*
Y00272*
X01515*
Y00272*
X01517*
Y00271*
X01518*
Y00271*
X0152*
Y0027*
X01521*
Y0027*
X01523*
Y00269*
X01524*
Y00269*
X01526*
Y00268*
X01528*
Y00268*
X01529*
Y00267*
X0153*
Y00267*
X01532*
Y00267*
X01533*
Y00266*
X01535*
Y00266*
X01537*
Y00265*
X01538*
Y00265*
X01539*
Y00264*
X01541*
Y00264*
X01543*
Y00263*
X01544*
Y00263*
X01545*
Y00262*
X01547*
Y00262*
X01548*
Y00261*
X0155*
Y00261*
X01551*
Y0026*
X01553*
Y0026*
X01554*
Y00259*
X01555*
Y0026*
X01555*
Y00261*
X01554*
Y00262*
X01554*
Y00263*
X01553*
Y00263*
X01553*
Y00264*
X01552*
Y00265*
X01552*
Y00266*
X01551*
Y00267*
X01551*
Y00267*
X0155*
Y00268*
X0155*
Y00269*
X01549*
Y0027*
X01549*
Y00271*
X01548*
Y00271*
X01548*
Y00272*
X01547*
Y00273*
X01547*
Y00274*
X01546*
Y00275*
X01546*
Y00276*
X01545*
Y00276*
X01545*
Y00277*
X01544*
Y00278*
X01544*
Y00279*
X01544*
Y0028*
X01543*
Y00281*
X01543*
Y00281*
X01542*
Y00282*
X01542*
Y00283*
X01541*
Y00283*
X01541*
Y00284*
X0154*
Y00285*
X0154*
Y00286*
X01539*
Y00287*
X01539*
Y00288*
X01538*
Y00288*
X01538*
Y00289*
X01537*
Y0029*
X01537*
Y00291*
X01536*
Y00292*
X01536*
Y00293*
G37*
G36*
X01592Y00382D02*
X01587D01*
Y00382*
X01586*
Y00381*
X01585*
Y00381*
X01585*
Y0038*
X01584*
Y0038*
X01584*
Y00379*
X01583*
Y00379*
X01583*
Y00378*
X01582*
Y00377*
X01582*
Y00376*
X01581*
Y00371*
X01582*
Y0037*
X01582*
Y00369*
X01583*
Y00369*
X01583*
Y00368*
X01584*
Y00368*
X01584*
Y00368*
X01585*
Y00367*
X01586*
Y00367*
X01587*
Y00366*
X01588*
Y00366*
X01592*
Y00366*
X01593*
Y00367*
X01594*
Y00367*
X01595*
Y00368*
X01596*
Y00368*
X01596*
Y00368*
X01597*
Y00369*
X01597*
Y00369*
X01598*
Y0037*
X01598*
Y00371*
X01599*
Y00376*
X01598*
Y00377*
X01598*
Y00378*
X01597*
Y00379*
X01597*
Y00379*
X01596*
Y0038*
X01595*
Y00381*
X01595*
Y00381*
X01594*
Y00382*
X01592*
Y00382*
G37*
G36*
X01708Y00297D02*
X01708D01*
Y00296*
X01708*
Y00297*
G37*
G36*
X01666Y00356D02*
X01649D01*
Y00355*
X01649*
Y00354*
X0165*
Y00353*
X0165*
Y00352*
X01651*
Y00351*
X01651*
Y00349*
X01652*
Y00348*
X01652*
Y00347*
X01662*
Y00348*
X01662*
Y00349*
X01663*
Y0035*
X01663*
Y00351*
X01664*
Y00352*
X01664*
Y00353*
X01665*
Y00353*
X01665*
Y00354*
X01666*
Y00355*
X01666*
Y00356*
G37*
G36*
X01689D02*
X01687D01*
Y00355*
X01687*
Y00354*
X01687*
Y00353*
X01686*
Y00352*
X01686*
Y00351*
X01685*
Y0035*
X01685*
Y00349*
X01684*
Y00348*
X01684*
Y00347*
X01683*
Y00346*
X01683*
Y00345*
X01682*
Y00344*
X01682*
Y00342*
X01681*
Y00341*
X01681*
Y0034*
X0168*
Y00339*
X0168*
Y00339*
X01679*
Y00338*
X01679*
Y00337*
X01678*
Y00336*
X01679*
Y00335*
X01679*
Y00334*
X0168*
Y00332*
X0168*
Y00331*
X01681*
Y0033*
X01681*
Y00329*
X01682*
Y00328*
X01682*
Y00327*
X01683*
Y00326*
X01683*
Y00325*
X01684*
Y00324*
X01684*
Y00323*
X01685*
Y00322*
X01685*
Y00321*
X01686*
Y0032*
X01686*
Y00319*
X01687*
Y00318*
X01687*
Y00317*
X01687*
Y00316*
X01689*
Y00356*
G37*
G36*
X01662Y00325D02*
X01652D01*
Y00324*
X01652*
Y00323*
X01651*
Y00322*
X01651*
Y0032*
X0165*
Y00319*
X0165*
Y00318*
X01649*
Y00316*
X01656*
Y00316*
X01656*
Y00316*
X01658*
Y00316*
X01666*
Y00317*
X01666*
Y00318*
X01665*
Y00319*
X01665*
Y0032*
X01664*
Y00321*
X01664*
Y00322*
X01663*
Y00322*
X01663*
Y00323*
X01662*
Y00324*
X01662*
Y00325*
G37*
G36*
X01686Y00313D02*
X01685D01*
Y00312*
X01686*
Y00313*
G37*
G36*
X0159Y00307D02*
X01589D01*
Y00306*
X01587*
Y00306*
X01586*
Y00305*
X01585*
Y00305*
X01584*
Y00304*
X01584*
Y00304*
X01583*
Y00303*
X01583*
Y00302*
X01582*
Y00302*
X01582*
Y003*
X01581*
Y00296*
X01582*
Y00295*
X01582*
Y00294*
X01583*
Y00293*
X01583*
Y00293*
X01584*
Y00292*
X01584*
Y00292*
X01585*
Y00291*
X01586*
Y00291*
X01587*
Y0029*
X01588*
Y0029*
X01591*
Y0029*
X01593*
Y00291*
X01594*
Y00291*
X01595*
Y00292*
X01596*
Y00292*
X01596*
Y00293*
X01597*
Y00293*
X01597*
Y00294*
X01598*
Y00295*
X01598*
Y00296*
X01599*
Y003*
X01598*
Y00302*
X01598*
Y00303*
X01597*
Y00303*
X01597*
Y00304*
X01596*
Y00304*
X01596*
Y00305*
X01595*
Y00305*
X01594*
Y00306*
X01593*
Y00306*
X0159*
Y00307*
G37*
%LNmotor_unit_rev_3-3*%
%LPD*%
G54D10*
X0111Y00077D02*
D01*
X01109Y00077*
X01109Y00077*
X01109Y00078*
X01109Y00078*
X01109Y00078*
X01109Y00079*
X01109Y00079*
X01109Y00079*
X01109Y0008*
X01108Y0008*
X01108Y0008*
X01108Y0008*
X01108Y00081*
X01107Y00081*
X01107Y00081*
X01107Y00081*
X01106Y00081*
X01106Y00081*
X01106Y00082*
X01105Y00082*
X01105Y00082*
X01105Y00082*
X01104*
X01104Y00082*
X01104Y00082*
X01103Y00082*
X01103Y00081*
X01103Y00081*
X01102Y00081*
X01102Y00081*
X01102Y00081*
X01101Y00081*
X01101Y0008*
X01101Y0008*
X01101Y0008*
X011Y0008*
X011Y00079*
X011Y00079*
X011Y00079*
X011Y00078*
X011Y00078*
X011Y00078*
X011Y00077*
X011Y00077*
X011Y00077*
X011Y00076*
X011Y00076*
X011Y00076*
X011Y00075*
X011Y00075*
X011Y00075*
X011Y00074*
X011Y00074*
X011Y00074*
X01101Y00073*
X01101Y00073*
X01101Y00073*
X01101Y00073*
X01102Y00073*
X01102Y00072*
X01102Y00072*
X01103Y00072*
X01103Y00072*
X01103Y00072*
X01104Y00072*
X01104Y00072*
X01104Y00072*
X01105*
X01105Y00072*
X01105Y00072*
X01106Y00072*
X01106Y00072*
X01106Y00072*
X01107Y00072*
X01107Y00072*
X01107Y00073*
X01108Y00073*
X01108Y00073*
X01108Y00073*
X01108Y00073*
X01109Y00074*
X01109Y00074*
X01109Y00074*
X01109Y00075*
X01109Y00075*
X01109Y00075*
X01109Y00076*
X01109Y00076*
X01109Y00076*
X0111Y00077*
X01055Y00047D02*
X01435D01*
X01055Y00236D02*
X01435D01*
Y00047D02*
Y00236D01*
X01055Y00047D02*
Y00236D01*
X00319Y00049D02*
X0058D01*
X00319D02*
Y0024D01*
Y00311D02*
X0058D01*
Y00049D02*
Y0024D01*
X00019Y01445D02*
X00399D01*
X00019Y01524D02*
Y01736D01*
X00399*
Y01524D02*
Y01736D01*
X0119Y01009D02*
X01402D01*
X0119Y0051D02*
Y01009D01*
Y0051D02*
X01402D01*
X01481D02*
Y01009D01*
X00019Y00995D02*
X00399D01*
X00019Y01074D02*
Y01286D01*
X00399*
Y01074D02*
Y01286D01*
X01712Y02685D02*
Y02974D01*
X01122Y02685D02*
X01712D01*
X01122Y02974D02*
X01712D01*
X01122Y02685D02*
Y02974D01*
X0089Y00047D02*
Y00238D01*
X00629Y00309D02*
X0089D01*
X00629Y00047D02*
Y00238D01*
Y00047D02*
X0089D01*
X00675Y01856D02*
Y02656D01*
X01975Y01856D02*
Y02656D01*
X00675D02*
X01975D01*
X00675Y01856D02*
X01975D01*
X0183Y0036D02*
X01797D01*
Y00376*
X01802Y00381*
X01813*
X01819Y00376*
Y0036*
X01802Y00414D02*
X01797Y00409D01*
Y00398*
X01802Y00392*
X01808*
X01813Y00398*
Y00409*
X01819Y00414*
X01824*
X0183Y00409*
Y00398*
X01824Y00392*
X0183Y00431D02*
Y00442D01*
X01824Y00447*
X01813*
X01808Y00442*
Y00431*
X01813Y00425*
X01824*
X0183Y00431*
X01802Y0048D02*
X01797Y00475D01*
Y00464*
X01802Y00458*
X01824*
X0183Y00464*
Y00475*
X01824Y0048*
X0183Y00524D02*
X01797D01*
X01808Y00535*
X01797Y00546*
X0183*
Y00563D02*
Y00574D01*
X01824Y00579*
X01813*
X01808Y00574*
Y00563*
X01813Y00557*
X01824*
X0183Y00563*
X01802Y00596D02*
X01808D01*
Y0059*
Y00601*
Y00596*
X01824*
X0183Y00601*
Y00623D02*
Y00634D01*
X01824Y0064*
X01813*
X01808Y00634*
Y00623*
X01813Y00618*
X01824*
X0183Y00623*
X01808Y00651D02*
X0183D01*
X01819*
X01813Y00656*
X01808Y00662*
Y00667*
X01797Y00717D02*
X01824D01*
X0183Y00722*
Y00733*
X01824Y00739*
X01797*
X0183Y0075D02*
X01808D01*
Y00766*
X01813Y00772*
X0183*
Y00783D02*
Y00794D01*
Y00788*
X01808*
Y00783*
X01802Y00816D02*
X01808D01*
Y0081*
Y00821*
Y00816*
X01824*
X0183Y00821*
Y00871D02*
X01797D01*
Y00887*
X01802Y00893*
X01813*
X01819Y00887*
Y00871*
Y00882D02*
X0183Y00893D01*
Y0092D02*
Y00909D01*
X01824Y00904*
X01813*
X01808Y00909*
Y0092*
X01813Y00926*
X01819*
Y00904*
X01808Y00937D02*
X0183Y00948D01*
X01808Y00959*
X01802Y01003D02*
X01797Y01008D01*
Y01019*
X01802Y01025*
X01808*
X01813Y01019*
Y01014*
Y01019*
X01819Y01025*
X01824*
X0183Y01019*
Y01008*
X01824Y01003*
X0183Y01036D02*
X01824D01*
Y01041*
X0183*
Y01036*
X01802Y01063D02*
X01797Y01069D01*
Y0108*
X01802Y01085*
X01824*
X0183Y0108*
Y01069*
X01824Y01063*
X01802*
X01861Y0036D02*
X01894D01*
Y00376*
X01888Y00381*
X01883*
X01877Y00376*
Y0036*
Y00376*
X01872Y00381*
X01866*
X01861Y00376*
Y0036*
X01872Y00392D02*
X01888D01*
X01894Y00398*
Y00414*
X01899*
X01905Y00409*
Y00403*
X01894Y00414D02*
X01872D01*
Y00425D02*
Y00431D01*
X01877*
Y00425*
X01872*
X01888D02*
Y00431D01*
X01894*
Y00425*
X01888*
X01894Y00486D02*
X01872D01*
X01861Y00497*
X01872Y00508*
X01894*
X01877*
Y00486*
X01872Y00519D02*
X01888D01*
X01894Y00524*
Y00541*
X01872*
X01894Y00552D02*
Y00568D01*
X01888Y00574*
X01883Y00568*
Y00557*
X01877Y00552*
X01872Y00557*
Y00574*
X01866Y0059D02*
X01872D01*
Y00585*
Y00596*
Y0059*
X01888*
X01894Y00596*
Y00612D02*
Y00623D01*
Y00618*
X01872*
Y00612*
X01894Y0064D02*
X01872D01*
Y00656*
X01877Y00662*
X01894*
X01861Y00706D02*
X01894D01*
X01877*
Y00728*
X01861*
X01894*
Y00739D02*
X01888D01*
Y00744*
X01894*
Y00739*
X01866Y00821D02*
X01861Y00816D01*
Y00805*
X01866Y00799*
X01888*
X01894Y00805*
Y00816*
X01888Y00821*
X01861Y00832D02*
X01894D01*
X01877*
X01872Y00838*
Y00849*
X01877Y00854*
X01894*
X01872Y00871D02*
Y00882D01*
X01877Y00887*
X01894*
Y00871*
X01888Y00865*
X01883Y00871*
Y00887*
X01894Y00898D02*
X01872D01*
Y00915*
X01877Y0092*
X01894*
X01115Y01229D02*
Y01206D01*
X01126Y01195*
X01138Y01206*
Y01229*
X01173Y01224D02*
X01167Y01229D01*
X01155*
X01149Y01224*
Y012*
X01155Y01195*
X01167*
X01173Y012*
X01208Y01224D02*
X01202Y01229D01*
X0119*
X01184Y01224*
Y012*
X0119Y01195*
X01202*
X01208Y012*
X01243Y01195D02*
X01219D01*
X01243Y01218*
Y01224*
X01237Y01229*
X01225*
X01219Y01224*
X0004Y00399D02*
Y00376D01*
X00051Y00365*
X00063Y00376*
Y00399*
X00098Y00394D02*
X00092Y00399D01*
X0008*
X00074Y00394*
Y0037*
X0008Y00365*
X00092*
X00098Y0037*
X00133Y00394D02*
X00127Y00399D01*
X00115*
X00109Y00394*
Y0037*
X00115Y00365*
X00127*
X00133Y0037*
X00144Y00365D02*
X00156D01*
X0015*
Y00399*
X00144Y00394*
X00138Y02714D02*
X00132Y02719D01*
X0012*
X00115Y02714*
Y0269*
X0012Y02685*
X00132*
X00138Y0269*
Y02702*
X00126*
X00149Y02685D02*
Y02708D01*
X00167*
X00173Y02702*
Y02685*
X00208Y02719D02*
Y02685D01*
X0019*
X00184Y0269*
Y02702*
X0019Y02708*
X00208*
X00243Y02685D02*
X00219D01*
X00243Y02708*
Y02714*
X00237Y02719*
X00225*
X00219Y02714*
X01935Y00393D02*
X0193Y00387D01*
Y00375*
X01935Y0037*
X01959*
X01965Y00375*
Y00387*
X01959Y00393*
X01947*
Y00381*
X01965Y00404D02*
X01941D01*
Y00422*
X01947Y00428*
X01965*
X0193Y00463D02*
X01965D01*
Y00445*
X01959Y00439*
X01947*
X01941Y00445*
Y00463*
X01965Y00474D02*
Y00486D01*
Y0048*
X0193*
X01935Y00474*
X00924Y00621D02*
X00929Y00627D01*
Y00639*
X00924Y00645*
X00918*
X00912Y00639*
Y00627*
X00906Y00621*
X009*
X00895Y00627*
Y00639*
X009Y00645*
X00929Y0061D02*
X00895D01*
X00906Y00598*
X00895Y00586*
X00929*
X00895Y00575D02*
Y00563D01*
Y00569*
X00929*
X00924Y00575*
X00114Y02586D02*
X00119Y02592D01*
Y02604*
X00114Y0261*
X00108*
X00102Y02604*
Y02592*
X00096Y02586*
X0009*
X00085Y02592*
Y02604*
X0009Y0261*
X00108Y02569D02*
Y02557D01*
X00102Y02551*
X00085*
Y02569*
X0009Y02575*
X00096Y02569*
Y02551*
X00119Y0254D02*
X00085D01*
Y02522*
X0009Y02516*
X00096*
X00102*
X00108Y02522*
Y0254*
X00085Y02487D02*
Y02499D01*
X0009Y02505*
X00102*
X00108Y02499*
Y02487*
X00102Y02481*
X00096*
Y02505*
X00108Y0247D02*
X00085D01*
X00096*
X00102Y02464*
X00108Y02458*
Y02452*
X01905Y01198D02*
Y01175D01*
X01922*
Y01186*
Y01175*
X0194*
Y01209D02*
X01916D01*
X01905Y01221*
X01916Y01233*
X0194*
X01922*
Y01209*
X01905Y01244D02*
X01934D01*
X0194Y0125*
Y01262*
X01934Y01268*
X01905*
Y01279D02*
X0194D01*
Y01303*
X01905Y01314D02*
Y01338D01*
Y01326*
X0194*
X01345Y01469D02*
Y0144D01*
X0135Y01435*
X01362*
X01368Y0144*
Y01469*
X01403D02*
X01379D01*
Y01452*
X01391Y01458*
X01397*
X01403Y01452*
Y0144*
X01397Y01435*
X01385*
X01379Y0144*
X01005Y01759D02*
Y0173D01*
X0101Y01725*
X01022*
X01028Y0173*
Y01759*
X01057Y01725D02*
Y01759D01*
X01039Y01742*
X01063*
X0069Y01754D02*
Y01725D01*
X00695Y0172*
X00707*
X00713Y01725*
Y01754*
X00724Y01749D02*
X0073Y01754D01*
X00742*
X00748Y01749*
Y01743*
X00742Y01737*
X00736*
X00742*
X00748Y01731*
Y01725*
X00742Y0172*
X0073*
X00724Y01725*
X001Y01374D02*
Y01351D01*
X00111Y0134*
X00123Y01351*
Y01374*
X00134Y0134D02*
Y01374D01*
X00152*
X00158Y01369*
Y01357*
X00152Y01351*
X00134*
X00146D02*
X00158Y0134D01*
X00193Y01374D02*
X00169D01*
Y0134*
X00193*
X00169Y01357D02*
X00181D01*
X00228Y01374D02*
X00204D01*
Y01357*
X00216*
X00204*
Y0134*
X00781Y01363D02*
Y01334D01*
X00787Y01328*
X00799*
X00804Y01334*
Y01363*
X00816Y01328D02*
X00828D01*
X00822*
Y01363*
X00816Y01357*
X01925Y00935D02*
Y00958D01*
Y00946*
X0196*
X01925Y00969D02*
X0196Y00993D01*
X01925D02*
X0196Y00969D01*
X0045Y015D02*
Y01523D01*
Y01511*
X00485*
Y01534D02*
X0045D01*
Y01552*
X00455Y01558*
X00467*
X00473Y01552*
Y01534*
X00485Y01569D02*
Y01581D01*
Y01575*
X0045*
X00455Y01569*
X01763Y01434D02*
X01757Y01439D01*
X01745*
X0174Y01434*
Y01428*
X01745Y01422*
X01757*
X01763Y01416*
Y0141*
X01757Y01405*
X01745*
X0174Y0141*
X01774Y01405D02*
X01786D01*
X0178*
Y01439*
X01774Y01434*
X01965Y00685D02*
X0193D01*
Y00702*
X01935Y00708*
X01947*
X01953Y00702*
Y00685*
Y00696D02*
X01965Y00708D01*
X0193Y00719D02*
X01965Y00743D01*
X0193D02*
X01965Y00719D01*
X00565Y01575D02*
X0053D01*
Y01592*
X00535Y01598*
X00547*
X00553Y01592*
Y01575*
Y01586D02*
X00565Y01598D01*
Y01633D02*
Y01609D01*
X00541Y01633*
X00535*
X0053Y01627*
Y01615*
X00535Y01609*
X0053Y01644D02*
Y01668D01*
X00535*
X00559Y01644*
X00565*
X00485Y0133D02*
Y01364D01*
X00502*
X00508Y01359*
Y01347*
X00502Y01341*
X00485*
X00496D02*
X00508Y0133D01*
X00543D02*
X00519D01*
X00543Y01353*
Y01359*
X00537Y01364*
X00525*
X00519Y01359*
X00572Y0133D02*
Y01364D01*
X00554Y01347*
X00578*
X01715Y02083D02*
Y02117D01*
X01732*
X01738Y02112*
Y021*
X01732Y02094*
X01715*
X01726D02*
X01738Y02083D01*
X01749D02*
X01761D01*
X01755*
Y02117*
X01749Y02112*
X01779Y02117D02*
X01802D01*
Y02112*
X01779Y02088*
Y02083*
X01585Y0199D02*
X01619D01*
Y01972*
X01614Y01966*
X01602*
X01596Y01972*
Y0199*
Y01978D02*
X01585Y01966D01*
X0159Y01955D02*
X01585Y01949D01*
Y01937*
X0159Y01931*
X01614*
X01619Y01937*
Y01949*
X01614Y01955*
X01608*
X01602Y01949*
Y01931*
X01235Y0043D02*
Y00464D01*
X01252*
X01258Y00459*
Y00447*
X01252Y00441*
X01235*
X01246D02*
X01258Y0043D01*
X01269Y00464D02*
X01293D01*
Y00459*
X01269Y00435*
Y0043*
X0108Y00435D02*
Y00469D01*
X01097*
X01103Y00464*
Y00452*
X01097Y00446*
X0108*
X01091D02*
X01103Y00435D01*
X01138Y00469D02*
X01126Y00464D01*
X01114Y00452*
Y0044*
X0112Y00435*
X01132*
X01138Y0044*
Y00446*
X01132Y00452*
X01114*
X0158Y01575D02*
X01614D01*
Y01557*
X01609Y01551*
X01597*
X01591Y01557*
Y01575*
Y01563D02*
X0158Y01551D01*
X01614Y01516D02*
Y0154D01*
X01597*
X01603Y01528*
Y01522*
X01597Y01516*
X01585*
X0158Y01522*
Y01534*
X01585Y0154*
X0182Y01765D02*
Y01799D01*
X01837*
X01843Y01794*
Y01782*
X01837Y01776*
X0182*
X01854Y01799D02*
Y01765D01*
X01866Y01776*
X01878Y01765*
Y01799*
X01889Y01765D02*
Y01799D01*
X01901Y01788*
X01913Y01799*
Y01765*
X01635Y0262D02*
X01669D01*
Y02602*
X01664Y02596*
X01652*
X01646Y02602*
Y0262*
X01669Y02585D02*
X01635D01*
X01646Y02573*
X01635Y02561*
X01669*
X01635Y0255D02*
X01669D01*
X01658Y02538*
X01669Y02526*
X01635*
Y02515D02*
Y02503D01*
Y02509*
X01669*
X01664Y02515*
X00555Y0115D02*
X0052D01*
Y01167*
X00525Y01173*
X00537*
X00543Y01167*
Y0115*
X0052Y01202D02*
Y0119D01*
X00525Y01184*
X00549*
X00555Y0119*
Y01202*
X00549Y01208*
X00525*
X0052Y01202*
Y01219D02*
Y01243D01*
Y01231*
X00555*
X00293Y0294D02*
Y02974D01*
X0031*
X00316Y02969*
Y02957*
X0031Y02951*
X00293*
X00351Y0294D02*
X00327D01*
X00351Y02963*
Y02969*
X00345Y02974*
X00333*
X00327Y02969*
X0102Y01795D02*
Y01829D01*
X01037*
X01043Y01824*
Y01812*
X01037Y01806*
X0102*
X01054Y01795D02*
X01066D01*
X0106*
Y01829*
X01054Y01824*
X0053Y00434D02*
Y004D01*
X00553*
X00564Y00434D02*
X00576D01*
X0057*
Y004*
X00564*
X00576*
X00594D02*
Y00434D01*
X00605Y00423*
X00617Y00434*
Y004*
X00687D02*
X00664D01*
X00687Y00423*
Y00429*
X00681Y00434*
X00669*
X00664Y00429*
X00994Y00225D02*
X0096D01*
Y00201*
X00994Y0019D02*
Y00178D01*
Y00184*
X0096*
Y0019*
Y00178*
Y0016D02*
X00994D01*
X00983Y00149*
X00994Y00137*
X0096*
Y0009D02*
Y00079D01*
Y00085*
X00994*
X00989Y0009*
X00218Y00837D02*
X00195D01*
Y00803*
X00218*
X00195Y0082D02*
X00207D01*
X0023Y00803D02*
Y00837D01*
X00247*
X00253Y00832*
Y0082*
X00247Y00814*
X0023*
X00242D02*
X00253Y00803D01*
X00265D02*
Y00837D01*
X00282*
X00288Y00832*
Y0082*
X00282Y00814*
X00265*
X00277D02*
X00288Y00803D01*
X00317Y00837D02*
X00306D01*
X003Y00832*
Y00808*
X00306Y00803*
X00317*
X00323Y00808*
Y00832*
X00317Y00837*
X00335Y00803D02*
Y00837D01*
X00352*
X00358Y00832*
Y0082*
X00352Y00814*
X00335*
X00346D02*
X00358Y00803D01*
X00189Y00714D02*
Y0068D01*
X00207*
X00212Y00685*
Y00709*
X00207Y00714*
X00189*
X00247D02*
X00224D01*
Y0068*
X00247*
X00224Y00697D02*
X00236D01*
X00259Y00714D02*
Y0068D01*
X00277*
X00282Y00685*
Y00691*
X00277Y00697*
X00259*
X00277*
X00282Y00703*
Y00709*
X00277Y00714*
X00259*
X00294D02*
Y00685D01*
X003Y0068*
X00312*
X00317Y00685*
Y00714*
X00352Y00709D02*
X00347Y00714D01*
X00335*
X00329Y00709*
Y00685*
X00335Y0068*
X00347*
X00352Y00685*
Y00697*
X00341*
X00422Y0068D02*
X00399D01*
X00422Y00703*
Y00709*
X00416Y00714*
X00405*
X00399Y00709*
X00195Y00569D02*
Y00535D01*
X00213*
X00219Y0054*
Y00564*
X00213Y00569*
X00195*
X00254D02*
X0023D01*
Y00535*
X00254*
X0023Y00552D02*
X00242D01*
X00265Y00569D02*
Y00535D01*
X00283*
X00289Y0054*
Y00546*
X00283Y00552*
X00265*
X00283*
X00289Y00558*
Y00564*
X00283Y00569*
X00265*
X003D02*
Y0054D01*
X00306Y00535*
X00318*
X00324Y0054*
Y00569*
X00359Y00564D02*
X00353Y00569D01*
X00341*
X00335Y00564*
Y0054*
X00341Y00535*
X00353*
X00359Y0054*
Y00552*
X00347*
X00405Y00535D02*
X00417D01*
X00411*
Y00569*
X00405Y00564*
X01718Y00059D02*
X01695D01*
Y00042*
X01706Y00048*
X01712*
X01718Y00042*
Y0003*
X01712Y00025*
X017*
X01695Y0003*
X01729Y00059D02*
Y00036D01*
X01741Y00025*
X01753Y00036*
Y00059*
X01696Y01785D02*
X0172D01*
X01696Y01761*
Y01755*
X01702Y0175*
X01714*
X0172Y01755*
X01667Y01785D02*
Y0175D01*
X01685Y01767*
X01661*
X0165Y0175D02*
Y01773D01*
X01638Y01785*
X01626Y01773*
Y0175*
X00225Y00442D02*
X00219Y00447D01*
X00207*
X00201Y00442*
Y00418*
X00207Y00413*
X00219*
X00225Y00418*
X00236Y00413D02*
Y00436D01*
X00248Y00447*
X0026Y00436*
Y00413*
Y0043*
X00236*
X00271Y00413D02*
Y00447D01*
X00295Y00413*
Y00447*
X00238Y00954D02*
X00226D01*
X00232*
Y00925*
X00226Y0092*
X0022*
X00215Y00925*
X00249Y00949D02*
X00255Y00954D01*
X00267*
X00273Y00949*
Y00943*
X00267Y00937*
X00273Y00931*
Y00925*
X00267Y0092*
X00255*
X00249Y00925*
Y00931*
X00255Y00937*
X00249Y00943*
Y00949*
X00255Y00937D02*
X00267D01*
X00048Y01799D02*
X00036D01*
X00042*
Y0177*
X00036Y01765*
X0003*
X00025Y0177*
X00083Y01799D02*
X00071Y01794D01*
X00059Y01782*
Y0177*
X00065Y01765*
X00077*
X00083Y0177*
Y01776*
X00077Y01782*
X00059*
X01063Y02974D02*
X01051D01*
X01057*
Y02945*
X01051Y0294*
X01045*
X0104Y02945*
X01098Y02974D02*
X01074D01*
Y02957*
X01086Y02963*
X01092*
X01098Y02957*
Y02945*
X01092Y0294*
X0108*
X01074Y02945*
X00498Y00371D02*
X00486D01*
X00492*
Y00342*
X00486Y00336*
X0048*
X00475Y00342*
X00527Y00336D02*
Y00371D01*
X00509Y00354*
X00533*
X00658Y00368D02*
X00646D01*
X00652*
Y00338*
X00646Y00333*
X0064*
X00635Y00338*
X00669Y00362D02*
X00675Y00368D01*
X00687*
X00693Y00362*
Y00356*
X00687Y0035*
X00681*
X00687*
X00693Y00344*
Y00338*
X00687Y00333*
X00675*
X00669Y00338*
X01425Y00453D02*
Y00441D01*
Y00447*
X01454*
X0146Y00441*
Y00435*
X01454Y0043*
X0146Y00488D02*
Y00464D01*
X01436Y00488*
X0143*
X01425Y00482*
Y0047*
X0143Y00464*
X01088Y00297D02*
X01076D01*
X01082*
Y00268*
X01076Y00262*
X0107*
X01065Y00268*
X01099Y00262D02*
X01111D01*
X01105*
Y00297*
X01099Y00291*
X0152Y00833D02*
Y0081D01*
X01555*
Y00833*
X01537Y0081D02*
Y00821D01*
X01555Y00844D02*
X0152D01*
X01555Y00868*
X0152*
X01525Y00903D02*
X0152Y00897D01*
Y00885*
X01525Y00879*
X01549*
X01555Y00885*
Y00897*
X01549Y00903*
X0152Y00914D02*
X01555D01*
Y00932*
X01549Y00938*
X01543*
X01537Y00932*
Y00914*
Y00932*
X01531Y00938*
X01525*
X0152Y00932*
Y00914*
Y00633D02*
Y0061D01*
X01555*
Y00633*
X01537Y0061D02*
Y00621D01*
X01555Y00644D02*
X0152D01*
X01555Y00668*
X0152*
X01525Y00703D02*
X0152Y00697D01*
Y00685*
X01525Y00679*
X01549*
X01555Y00685*
Y00697*
X01549Y00703*
X01555Y00714D02*
X01531D01*
X0152Y00726*
X01531Y00738*
X01555*
X01537*
Y00714*
X01595Y01089D02*
Y01055D01*
X01612*
X01618Y0106*
Y01084*
X01612Y01089*
X01595*
X01629D02*
X01641D01*
X01635*
Y01055*
X01629*
X01641*
X01659D02*
Y01089D01*
X01676*
X01682Y01084*
Y01072*
X01676Y01066*
X01659*
X0167D02*
X01682Y01055D01*
X01118Y01374D02*
X01112Y01379D01*
X011*
X01095Y01374*
Y0135*
X011Y01345*
X01112*
X01118Y0135*
X01129Y01379D02*
Y01345D01*
X01153*
X01164Y01379D02*
Y01345D01*
Y01356*
X01188Y01379*
X0117Y01362*
X01188Y01345*
X01403Y01379D02*
X01397Y01384D01*
X01385*
X0138Y01379*
Y01355*
X01385Y0135*
X01397*
X01403Y01355*
X01414Y0135D02*
Y01373D01*
X01426Y01384*
X01438Y01373*
Y0135*
Y01367*
X01414*
X01449Y0135D02*
Y01384D01*
X01473Y0135*
Y01384*
X01519D02*
X01543D01*
X01531*
Y0135*
X01554Y01384D02*
X01578Y0135D01*
Y01384D02*
X01554Y0135D01*
X01403Y01299D02*
X01397Y01304D01*
X01385*
X0138Y01299*
Y01275*
X01385Y0127*
X01397*
X01403Y01275*
X01414Y0127D02*
Y01293D01*
X01426Y01304*
X01438Y01293*
Y0127*
Y01287*
X01414*
X01449Y0127D02*
Y01304D01*
X01473Y0127*
Y01304*
X01519Y0127D02*
Y01304D01*
X01537*
X01543Y01299*
Y01287*
X01537Y01281*
X01519*
X01531D02*
X01543Y0127D01*
X01554Y01304D02*
X01578Y0127D01*
Y01304D02*
X01554Y0127D01*
G54D11*
X00616Y02361D02*
D01*
X00616Y02361*
X00615Y02361*
X00615Y02361*
X00615Y0236*
X00615Y0236*
X00614Y0236*
X00614Y0236*
X00614Y0236*
X00614Y0236*
X00613Y0236*
X00613Y0236*
X00613Y02359*
X00613Y02359*
X00613Y02359*
X00613Y02359*
X00612Y02358*
X00612Y02358*
X00612Y02358*
X00612Y02358*
X00612Y02357*
X00612Y02357*
X00612Y02357*
Y02357*
X00612Y02356*
X00612Y02356*
X00612Y02356*
X00612Y02355*
X00612Y02355*
X00612Y02355*
X00613Y02355*
X00613Y02354*
X00613Y02354*
X00613Y02354*
X00613Y02354*
X00613Y02354*
X00614Y02353*
X00614Y02353*
X00614Y02353*
X00614Y02353*
X00615Y02353*
X00615Y02353*
X00615Y02353*
X00615Y02353*
X00616Y02353*
X00616Y02353*
X00616D02*
D01*
X00616Y02353*
X00617Y02353*
X00617Y02353*
X00617Y02353*
X00617Y02353*
X00618Y02353*
X00618Y02353*
X00618Y02353*
X00618Y02353*
X00619Y02354*
X00619Y02354*
X00619Y02354*
X00619Y02354*
X00619Y02354*
X00619Y02355*
X0062Y02355*
X0062Y02355*
X0062Y02355*
X0062Y02356*
X0062Y02356*
X0062Y02356*
X0062Y02357*
Y02357*
X0062Y02357*
X0062Y02357*
X0062Y02358*
X0062Y02358*
X0062Y02358*
X0062Y02358*
X00619Y02359*
X00619Y02359*
X00619Y02359*
X00619Y02359*
X00619Y0236*
X00619Y0236*
X00618Y0236*
X00618Y0236*
X00618Y0236*
X00618Y0236*
X00617Y0236*
X00617Y0236*
X00617Y02361*
X00617Y02361*
X00616Y02361*
X00616*
X01966Y01571D02*
D01*
X01966Y01571*
X01966Y01571*
X01966Y01572*
X01966Y01572*
X01966Y01572*
X01966Y01573*
X01966Y01573*
X01966Y01573*
X01966Y01573*
X01965Y01573*
X01965Y01574*
X01965Y01574*
X01965Y01574*
X01965Y01574*
X01964Y01574*
X01964Y01574*
X01964Y01575*
X01964Y01575*
X01963Y01575*
X01963Y01575*
X01963Y01575*
X01963Y01575*
X01962*
X01962Y01575*
X01962Y01575*
X01961Y01575*
X01961Y01575*
X01961Y01575*
X01961Y01574*
X0196Y01574*
X0196Y01574*
X0196Y01574*
X0196Y01574*
X0196Y01574*
X01959Y01573*
X01959Y01573*
X01959Y01573*
X01959Y01573*
X01959Y01573*
X01959Y01572*
X01959Y01572*
X01959Y01572*
X01959Y01571*
X01959Y01571*
X01959Y01571*
X01959Y01571*
X01959Y0157*
X01959Y0157*
X01959Y0157*
X01959Y0157*
X01959Y01569*
X01959Y01569*
X01959Y01569*
X01959Y01569*
X01959Y01568*
X0196Y01568*
X0196Y01568*
X0196Y01568*
X0196Y01568*
X0196Y01568*
X01961Y01567*
X01961Y01567*
X01961Y01567*
X01961Y01567*
X01962Y01567*
X01962Y01567*
X01962Y01567*
X01963*
X01963Y01567*
X01963Y01567*
X01963Y01567*
X01964Y01567*
X01964Y01567*
X01964Y01567*
X01964Y01568*
X01965Y01568*
X01965Y01568*
X01965Y01568*
X01965Y01568*
X01965Y01568*
X01966Y01569*
X01966Y01569*
X01966Y01569*
X01966Y01569*
X01966Y0157*
X01966Y0157*
X01966Y0157*
X01966Y0157*
X01966Y01571*
X01966Y01571*
X01288Y00361D02*
X01291D01*
X01288Y00408D02*
X01291D01*
X01143Y00361D02*
X01146D01*
X01143Y00408D02*
X01146D01*
X01563Y01933D02*
Y01936D01*
X01516Y01933D02*
Y01936D01*
X01623Y01663D02*
Y01666D01*
X01576Y01663D02*
Y01666D01*
X00526Y01493D02*
Y01496D01*
X00573Y01493D02*
Y01496D01*
X00398Y01373D02*
X00401D01*
X00398Y01326D02*
X00401D01*
X00646Y01496D02*
X00843D01*
X00646Y01563D02*
Y01626D01*
Y01693D02*
X00843D01*
Y01563D02*
Y01626D01*
X00969Y01496D02*
X01165D01*
X00969Y01563D02*
Y01626D01*
Y01693D02*
X01165D01*
Y01563D02*
Y01626D01*
X01291Y01496D02*
X01488D01*
X01291Y01563D02*
Y01626D01*
Y01693D02*
X01488D01*
Y01563D02*
Y01626D01*
X0076Y00427D02*
Y00672D01*
X00979*
Y00427D02*
Y00672D01*
X0076Y00427D02*
X00979D01*
X01761Y01228D02*
X01811D01*
X01786Y01253D02*
X01811Y01228D01*
X01761D02*
X01786Y01253D01*
X01761D02*
X01811D01*
X01825Y01242D02*
Y01247D01*
X01874Y01242D02*
Y01247D01*
X01395Y0174D02*
Y0184D01*
X01095Y0174D02*
X01395D01*
X01095D02*
Y0184D01*
X01395*
X0082Y01306D02*
X00845Y01281D01*
X01076Y0105D02*
X01101Y01025D01*
X01076Y00999D02*
X01101Y01025D01*
X0082Y00743D02*
X00845Y00768D01*
X00794D02*
X0082Y00743D01*
X00538Y01025D02*
X00563Y00999D01*
X00794Y01281D02*
X0082Y01306D01*
X00538Y01025D02*
X00563Y0105D01*
X00107Y00423D02*
Y00462D01*
X00095D02*
X00107D01*
X00095Y00423D02*
X00107D01*
X01528Y01794D02*
X01551D01*
X01528Y01745D02*
X01551D01*
X01531Y01681D02*
Y01731D01*
Y01706D02*
X01556Y01681D01*
X01531Y01706D02*
X01556Y01731D01*
Y01681D02*
Y01731D01*
X01637Y00139D02*
X01661D01*
X01637Y0009D02*
X01661D01*
X0164Y00026D02*
Y00076D01*
Y00051D02*
X01665Y00026D01*
X0164Y00051D02*
X01665Y00076D01*
Y00026D02*
Y00076D01*
X00096Y00818D02*
X001D01*
X00096Y00867D02*
X001D01*
X00107Y00881D02*
Y00931D01*
X00082D02*
X00107Y00906D01*
X00082Y00881D02*
X00107Y00906D01*
X00082Y00881D02*
Y00931D01*
X00096Y00685D02*
X001D01*
X00096Y00734D02*
X001D01*
X00107Y00748D02*
Y00798D01*
X00082D02*
X00107Y00773D01*
X00082Y00748D02*
X00107Y00773D01*
X00082Y00748D02*
Y00798D01*
X00097Y00545D02*
X00102D01*
X00097Y00594D02*
X00102D01*
X00108Y00608D02*
Y00658D01*
X00083D02*
X00108Y00633D01*
X00083Y00608D02*
X00108Y00633D01*
X00083Y00608D02*
Y00658D01*
X00292Y029D02*
X01107D01*
X00292Y027D02*
Y029D01*
Y027D02*
X01107D01*
Y029*
X01773Y01991D02*
X01776D01*
X01773Y02038D02*
X01776D01*
G54D12*
X00897Y0153D02*
D01*
X00897Y0153*
X00897Y0153*
X00897Y01531*
X00897Y01531*
X00897Y01531*
X00897Y01532*
X00896Y01532*
X00896Y01532*
X00896Y01532*
X00896Y01533*
X00896Y01533*
X00895Y01533*
X00895Y01533*
X00895Y01534*
X00895Y01534*
X00894Y01534*
X00894Y01534*
X00894Y01534*
X00893Y01534*
X00893Y01534*
X00893Y01534*
X00892Y01534*
X00892*
X00892Y01534*
X00891Y01534*
X00891Y01534*
X00891Y01534*
X0089Y01534*
X0089Y01534*
X0089Y01534*
X00889Y01534*
X00889Y01533*
X00889Y01533*
X00889Y01533*
X00888Y01533*
X00888Y01532*
X00888Y01532*
X00888Y01532*
X00888Y01532*
X00888Y01531*
X00887Y01531*
X00887Y01531*
X00887Y0153*
X00887Y0153*
X00887Y0153*
X00887Y01529*
X00887Y01529*
X00887Y01529*
X00887Y01528*
X00888Y01528*
X00888Y01528*
X00888Y01527*
X00888Y01527*
X00888Y01527*
X00888Y01526*
X00889Y01526*
X00889Y01526*
X00889Y01526*
X00889Y01525*
X0089Y01525*
X0089Y01525*
X0089Y01525*
X00891Y01525*
X00891Y01525*
X00891Y01525*
X00892Y01525*
X00892Y01525*
X00892*
X00893Y01525*
X00893Y01525*
X00893Y01525*
X00894Y01525*
X00894Y01525*
X00894Y01525*
X00895Y01525*
X00895Y01525*
X00895Y01526*
X00895Y01526*
X00896Y01526*
X00896Y01526*
X00896Y01527*
X00896Y01527*
X00896Y01527*
X00897Y01528*
X00897Y01528*
X00897Y01528*
X00897Y01529*
X00897Y01529*
X00897Y01529*
X00897Y0153*
X0122D02*
D01*
X0122Y0153*
X0122Y0153*
X01219Y01531*
X01219Y01531*
X01219Y01531*
X01219Y01532*
X01219Y01532*
X01219Y01532*
X01219Y01532*
X01218Y01533*
X01218Y01533*
X01218Y01533*
X01218Y01533*
X01217Y01534*
X01217Y01534*
X01217Y01534*
X01216Y01534*
X01216Y01534*
X01216Y01534*
X01215Y01534*
X01215Y01534*
X01215Y01534*
X01214*
X01214Y01534*
X01214Y01534*
X01213Y01534*
X01213Y01534*
X01213Y01534*
X01212Y01534*
X01212Y01534*
X01212Y01534*
X01212Y01533*
X01211Y01533*
X01211Y01533*
X01211Y01533*
X01211Y01532*
X0121Y01532*
X0121Y01532*
X0121Y01532*
X0121Y01531*
X0121Y01531*
X0121Y01531*
X0121Y0153*
X0121Y0153*
X0121Y0153*
X0121Y01529*
X0121Y01529*
X0121Y01529*
X0121Y01528*
X0121Y01528*
X0121Y01528*
X0121Y01527*
X0121Y01527*
X01211Y01527*
X01211Y01526*
X01211Y01526*
X01211Y01526*
X01212Y01526*
X01212Y01525*
X01212Y01525*
X01212Y01525*
X01213Y01525*
X01213Y01525*
X01213Y01525*
X01214Y01525*
X01214Y01525*
X01214Y01525*
X01215*
X01215Y01525*
X01215Y01525*
X01216Y01525*
X01216Y01525*
X01216Y01525*
X01217Y01525*
X01217Y01525*
X01217Y01525*
X01218Y01526*
X01218Y01526*
X01218Y01526*
X01218Y01526*
X01219Y01527*
X01219Y01527*
X01219Y01527*
X01219Y01528*
X01219Y01528*
X01219Y01528*
X01219Y01529*
X0122Y01529*
X0122Y01529*
X0122Y0153*
X01542D02*
D01*
X01542Y0153*
X01542Y0153*
X01542Y01531*
X01542Y01531*
X01542Y01531*
X01542Y01532*
X01541Y01532*
X01541Y01532*
X01541Y01532*
X01541Y01533*
X01541Y01533*
X0154Y01533*
X0154Y01533*
X0154Y01534*
X0154Y01534*
X01539Y01534*
X01539Y01534*
X01539Y01534*
X01538Y01534*
X01538Y01534*
X01538Y01534*
X01537Y01534*
X01537*
X01537Y01534*
X01536Y01534*
X01536Y01534*
X01536Y01534*
X01535Y01534*
X01535Y01534*
X01535Y01534*
X01534Y01534*
X01534Y01533*
X01534Y01533*
X01534Y01533*
X01533Y01533*
X01533Y01532*
X01533Y01532*
X01533Y01532*
X01533Y01532*
X01533Y01531*
X01532Y01531*
X01532Y01531*
X01532Y0153*
X01532Y0153*
X01532Y0153*
X01532Y01529*
X01532Y01529*
X01532Y01529*
X01532Y01528*
X01533Y01528*
X01533Y01528*
X01533Y01527*
X01533Y01527*
X01533Y01527*
X01533Y01526*
X01534Y01526*
X01534Y01526*
X01534Y01526*
X01534Y01525*
X01535Y01525*
X01535Y01525*
X01535Y01525*
X01536Y01525*
X01536Y01525*
X01536Y01525*
X01537Y01525*
X01537Y01525*
X01537*
X01538Y01525*
X01538Y01525*
X01538Y01525*
X01539Y01525*
X01539Y01525*
X01539Y01525*
X0154Y01525*
X0154Y01525*
X0154Y01526*
X0154Y01526*
X01541Y01526*
X01541Y01526*
X01541Y01527*
X01541Y01527*
X01541Y01527*
X01542Y01528*
X01542Y01528*
X01542Y01528*
X01542Y01529*
X01542Y01529*
X01542Y01529*
X01542Y0153*
X00678Y00625D02*
D01*
X00678Y00625*
X00678Y00625*
X00678Y00626*
X00678Y00626*
X00677Y00626*
X00677Y00627*
X00677Y00627*
X00677Y00627*
X00677Y00627*
X00677Y00628*
X00676Y00628*
X00676Y00628*
X00676Y00628*
X00676Y00629*
X00675Y00629*
X00675Y00629*
X00675Y00629*
X00674Y00629*
X00674Y00629*
X00674Y00629*
X00673Y00629*
X00673Y00629*
X00673*
X00672Y00629*
X00672Y00629*
X00672Y00629*
X00671Y00629*
X00671Y00629*
X00671Y00629*
X0067Y00629*
X0067Y00629*
X0067Y00628*
X0067Y00628*
X00669Y00628*
X00669Y00628*
X00669Y00627*
X00669Y00627*
X00669Y00627*
X00668Y00627*
X00668Y00626*
X00668Y00626*
X00668Y00626*
X00668Y00625*
X00668Y00625*
X00668Y00625*
X00668Y00624*
X00668Y00624*
X00668Y00623*
X00668Y00623*
X00668Y00623*
X00668Y00622*
X00669Y00622*
X00669Y00622*
X00669Y00622*
X00669Y00621*
X00669Y00621*
X0067Y00621*
X0067Y00621*
X0067Y0062*
X0067Y0062*
X00671Y0062*
X00671Y0062*
X00671Y0062*
X00672Y0062*
X00672Y0062*
X00672Y0062*
X00673Y0062*
X00673*
X00673Y0062*
X00674Y0062*
X00674Y0062*
X00674Y0062*
X00675Y0062*
X00675Y0062*
X00675Y0062*
X00676Y0062*
X00676Y00621*
X00676Y00621*
X00676Y00621*
X00677Y00621*
X00677Y00622*
X00677Y00622*
X00677Y00622*
X00677Y00622*
X00677Y00623*
X00678Y00623*
X00678Y00623*
X00678Y00624*
X00678Y00624*
X00678Y00625*
G54D13*
X00523Y00931D02*
D01*
X00523Y00932*
X00523Y00932*
X00523Y00933*
X00523Y00933*
X00523Y00934*
X00523Y00934*
X00522Y00935*
X00522Y00935*
X00522Y00936*
X00522Y00936*
X00521Y00937*
X00521Y00937*
X0052Y00937*
X0052Y00938*
X00519Y00938*
X00519Y00938*
X00518Y00939*
X00518Y00939*
X00517Y00939*
X00517Y00939*
X00516Y00939*
X00516Y00939*
X00515*
X00515Y00939*
X00514Y00939*
X00514Y00939*
X00513Y00939*
X00513Y00939*
X00512Y00938*
X00512Y00938*
X00511Y00938*
X00511Y00937*
X0051Y00937*
X0051Y00937*
X0051Y00936*
X00509Y00936*
X00509Y00935*
X00509Y00935*
X00508Y00934*
X00508Y00934*
X00508Y00933*
X00508Y00933*
X00508Y00932*
X00508Y00932*
X00508Y00931*
X00508Y00931*
X00508Y0093*
X00508Y0093*
X00508Y00929*
X00508Y00929*
X00508Y00928*
X00509Y00928*
X00509Y00927*
X00509Y00927*
X0051Y00926*
X0051Y00926*
X0051Y00925*
X00511Y00925*
X00511Y00925*
X00512Y00924*
X00512Y00924*
X00513Y00924*
X00513Y00924*
X00514Y00924*
X00514Y00923*
X00515Y00923*
X00515Y00923*
X00516*
X00516Y00923*
X00517Y00923*
X00517Y00924*
X00518Y00924*
X00518Y00924*
X00519Y00924*
X00519Y00924*
X0052Y00925*
X0052Y00925*
X00521Y00925*
X00521Y00926*
X00522Y00926*
X00522Y00927*
X00522Y00927*
X00522Y00928*
X00523Y00928*
X00523Y00929*
X00523Y00929*
X00523Y0093*
X00523Y0093*
X00523Y00931*
X00523Y00931*
G54D14*
X00144Y01792D02*
X00344D01*
X00144D02*
Y02622D01*
X00344*
X00544Y01792D02*
X00599D01*
Y02607*
Y02622*
X00544D02*
X00599D01*
X00507Y0112D02*
X00505Y01121D01*
X00502Y01119*
X00501Y01118*
X00499Y01115*
X005Y01112*
X00503Y01108*
X00506Y01105*
X00509Y01103*
X00512*
X00514Y01104*
X00515Y01105*
X00516Y01107*
Y0111*
X00515Y01113*
X00514Y01113*
X00512Y01115*
X00509*
X00507Y01113*
X00506Y01113*
X00505Y0111*
Y01107*
X00506Y01105*
X00515Y01132D02*
X00518Y01116D01*
X00527Y01126*
X00515Y01132D02*
X00529Y01118D01*
X00716Y01334D02*
X00719Y01318D01*
X00729Y01328*
X00716Y01334D02*
X0073Y0132D01*
X00735Y01343D02*
X00736Y01341D01*
Y01338*
X00735Y01335*
X00734Y01335*
X00732Y01333*
X00729*
X00726Y01335*
X00726Y01335*
X00724Y01338*
Y01341*
X00726Y01343*
X00726Y01344*
X00729Y01345*
X00732*
X00735Y01343*
X00738Y0134*
X00741Y01336*
X00742Y01333*
X0074Y0133*
X00739Y01329*
X00736Y01327*
X00734Y01328*
X00908Y01336D02*
X0091Y0132D01*
X0092Y0133*
X00908Y01336D02*
X00922Y01322D01*
X00917Y01345D02*
X00915Y01342D01*
X00916Y0134*
X00917Y01339*
X00919Y01338*
X00921Y01339*
X00925Y01341*
X00927Y01342*
X0093*
X00932Y01341*
X00934Y01339*
X00935Y01337*
Y01336*
X00933Y01333*
X00931Y01331*
X00928Y0133*
X00927*
X00925Y0133*
X00923Y01332*
X00922Y01334*
Y01337*
X00923Y01339*
X00925Y01343*
X00926Y01345*
X00925Y01347*
X00924Y01348*
X00922Y01349*
X00919Y01347*
X00917Y01345*
X01114Y0112D02*
X01121Y01128D01*
X01122Y01118*
X01124Y0112*
X01126Y01121*
X01128*
X0113Y0112*
X01132Y01118*
X01133Y01116*
Y01113*
X01132Y0111*
X0113Y01108*
X01127Y01107*
X01126*
X01124Y01108*
X01126Y01133D02*
X01133Y0114D01*
X01135Y01131*
X01137Y01133*
X01139Y01133*
X0114*
X01143Y01132*
X01144Y01131*
X01145Y01128*
Y01125*
X01144Y01123*
X01142Y01121*
X01139Y01119*
X01138*
X01136Y0112*
X01111Y00931D02*
X01118Y00938D01*
X0112Y00929*
X01122Y00931*
X01124Y00932*
X01125*
X01128Y0093*
X01129Y00929*
X0113Y00926*
Y00924*
X01129Y00921*
X01127Y00919*
X01124Y00918*
X01123*
X01121Y00918*
X01126Y00939D02*
X01125Y0094D01*
X01125Y00942*
Y00943*
X01125Y00945*
X01128Y00948*
X0113Y00949*
X01131*
X01133Y00948*
X01135Y00947*
X01135Y00945*
X01136Y00941*
Y00928*
X01145Y00937*
X00897Y00708D02*
X00897Y0071D01*
Y00714*
X00911Y007*
X00913Y00731D02*
X00921Y0071D01*
X00904Y00721D02*
X00913Y00731D01*
X0071Y00713D02*
X00711Y00715D01*
X00711Y00719*
X00725Y00705*
X00728Y00732D02*
X00726Y00732D01*
X00723Y00731*
X00722Y0073*
X0072Y00727*
X00721Y00724*
X00724Y0072*
X00727Y00717*
X0073Y00715*
X00733*
X00736Y00716*
X00736Y00717*
X00738Y00719*
Y00722*
X00736Y00724*
X00736Y00725*
X00733Y00726*
X0073*
X00728Y00725*
X00727Y00724*
X00726Y00722*
Y00719*
X00727Y00717*
G54D15*
X01946Y01572D02*
Y0165D01*
X01749Y01729D02*
X01906D01*
X01709Y01572D02*
Y0165D01*
X01749Y01493D02*
X01906D01*
M02*