%FSTAX23Y23*%
%MOIN*%
%SFA1B1*%

%IPPOS*%
%ADD11C,0.007870*%
%ADD14C,0.003940*%
%ADD86C,0.001970*%
%LNmotor_unit_rev_3-1*%
%LPD*%
G54D11*
X01142Y02048D02*
Y02461D01*
X00946Y02048D02*
X01142D01*
X00946D02*
Y02461D01*
X01142*
X00145Y01792D02*
Y02622D01*
X00599*
Y01792D02*
Y02622D01*
X00145Y01792D02*
X00599D01*
G54D14*
X01875Y0157D02*
Y01609D01*
X01855Y0159D02*
X01894D01*
X0127Y00385D02*
X01309D01*
X0129Y00365D02*
Y00404D01*
X01125Y00385D02*
X01164D01*
X01145Y00365D02*
Y00404D01*
X0183Y00775D02*
Y00814D01*
X0181Y00795D02*
X01849D01*
X0183Y0087D02*
Y00909D01*
X0181Y0089D02*
X01849D01*
X01285Y02335D02*
Y02374D01*
X01265Y02355D02*
X01304D01*
X01655Y02465D02*
Y02504D01*
X01635Y02485D02*
X01674D01*
X01605Y0101D02*
X01644D01*
X01625Y0099D02*
Y01029D01*
X01838Y01255D02*
X01877D01*
X01858Y01235D02*
Y01274D01*
X0152Y01935D02*
X01559D01*
X0154Y01915D02*
Y01954D01*
X016Y01645D02*
Y01684D01*
X0158Y01665D02*
X01619D01*
X0028Y02585D02*
X00319D01*
X003Y02565D02*
Y02604D01*
X0055Y01475D02*
Y01514D01*
X0053Y01495D02*
X00569D01*
X0038Y0135D02*
X00419D01*
X004Y0133D02*
Y01369D01*
X0148Y0045D02*
X01519D01*
X015Y0043D02*
Y00469D01*
X00795Y01295D02*
X00834D01*
X00815Y01275D02*
Y01314D01*
X00745Y01575D02*
Y01614D01*
X00725Y01595D02*
X00764D01*
X01067Y01575D02*
Y01614D01*
X01047Y01595D02*
X01087D01*
X0139Y01575D02*
Y01614D01*
X0137Y01595D02*
X01409D01*
X0085Y0055D02*
X00889D01*
X0087Y0053D02*
Y00569D01*
X0138Y01605D02*
X01419D01*
X014Y01585D02*
Y01624D01*
X0105Y01605D02*
X01089D01*
X0107Y01585D02*
Y01624D01*
X00725Y01605D02*
X00764D01*
X00745Y01585D02*
Y01624D01*
X0151Y02079D02*
X01549D01*
X0153Y02059D02*
Y02099D01*
X01Y00115D02*
X01039D01*
X0102Y00095D02*
Y00134D01*
X0146Y0024D02*
X01499D01*
X0148Y0022D02*
Y00259D01*
X0183Y01245D02*
X01869D01*
X0185Y01225D02*
Y01264D01*
X0128Y0099D02*
X01319D01*
X013Y0097D02*
Y01009D01*
X00585Y0059D02*
Y00629D01*
X00565Y0061D02*
X00604D01*
X0042Y00585D02*
Y00624D01*
X004Y00605D02*
X00439D01*
X01325Y0029D02*
X01364D01*
X01345Y0027D02*
Y00309D01*
X01897Y00955D02*
Y00994D01*
X01877Y00975D02*
X01917D01*
X0084Y00655D02*
Y00694D01*
X0082Y00675D02*
X00859D01*
X0084Y0057D02*
Y00609D01*
X0082Y0059D02*
X00859D01*
X0084Y0049D02*
Y00529D01*
X0082Y0051D02*
X00859D01*
X0084Y00405D02*
Y00444D01*
X0082Y00425D02*
X00859D01*
X0165Y00095D02*
Y00134D01*
X0163Y00115D02*
X01669D01*
X00096Y00423D02*
Y00462D01*
X00077Y00443D02*
X00116D01*
X00096Y00553D02*
Y00592D01*
X00077Y00573D02*
X00116D01*
X00091Y0069D02*
Y00729D01*
X00072Y0071D02*
X00111D01*
X00091Y00818D02*
Y00857D01*
X00072Y00838D02*
X00111D01*
X00795Y01195D02*
X00834D01*
X00815Y01175D02*
Y01214D01*
X00795Y01095D02*
X00834D01*
X00815Y01075D02*
Y01114D01*
X00795Y00995D02*
X00834D01*
X00815Y00975D02*
Y01014D01*
X00795Y00895D02*
X00834D01*
X00815Y00875D02*
Y00914D01*
X00101Y00423D02*
Y00462D01*
X00082Y00443D02*
X00121D01*
X00033Y00476D02*
X00169D01*
X00033Y00409D02*
X00169D01*
X00033D02*
Y00476D01*
X00169Y00409D02*
Y00476D01*
X0152Y0177D02*
X01559D01*
X0154Y0175D02*
Y01789D01*
X01629Y00115D02*
X01668D01*
X01649Y00095D02*
Y00134D01*
X00078Y00843D02*
X00118D01*
X00098Y00823D02*
Y00862D01*
X00078Y0071D02*
X00118D01*
X00098Y0069D02*
Y00729D01*
X0008Y0057D02*
X00119D01*
X001Y0055D02*
Y00589D01*
X01775Y01995D02*
Y02034D01*
X01755Y02015D02*
X01794D01*
G54D86*
X01835Y01658D02*
X01914D01*
X01835Y01521D02*
X01914D01*
X01835D02*
Y01658D01*
X01914Y01521D02*
Y01658D01*
X01358Y00347D02*
Y00422D01*
X01221Y00347D02*
Y00422D01*
Y00347D02*
X01358D01*
X01221Y00422D02*
X01358D01*
X01213Y00347D02*
Y00422D01*
X01076Y00347D02*
Y00422D01*
Y00347D02*
X01213D01*
X01076Y00422D02*
X01213D01*
X01761Y00832D02*
X01898D01*
X01761Y00757D02*
X01898D01*
Y00832*
X01761Y00757D02*
Y00832D01*
Y00927D02*
X01898D01*
X01761Y00852D02*
X01898D01*
Y00927*
X01761Y00852D02*
Y00927D01*
X01216Y02394D02*
X01353D01*
X01216Y02315D02*
X01353D01*
Y02394*
X01216Y02315D02*
Y02394D01*
X01617Y02416D02*
X01692D01*
X01617Y02553D02*
X01692D01*
Y02416D02*
Y02553D01*
X01617Y02416D02*
Y02553D01*
X01587Y00941D02*
Y01078D01*
X01662Y00941D02*
Y01078D01*
X01587D02*
X01662D01*
X01587Y00941D02*
X01662D01*
X01775Y01121D02*
Y01388D01*
X0194Y01121D02*
Y01388D01*
X01775D02*
X0194D01*
X01775Y01121D02*
X0194D01*
X01577Y01866D02*
Y02003D01*
X01502Y01866D02*
Y02003D01*
X01577*
X01502Y01866D02*
X01577D01*
X01562Y01733D02*
X01637D01*
X01562Y01596D02*
X01637D01*
Y01733*
X01562Y01596D02*
Y01733D01*
X00335Y02502D02*
Y02667D01*
X00264Y02502D02*
Y02667D01*
Y02502D02*
X00335D01*
X00264Y02667D02*
X00335D01*
X00512Y01426D02*
X00587D01*
X00512Y01563D02*
X00587D01*
X00512Y01426D02*
Y01563D01*
X00587Y01426D02*
Y01563D01*
X00331Y01312D02*
Y01387D01*
X00468Y01312D02*
Y01387D01*
X00331D02*
X00468D01*
X00331Y01312D02*
X00468D01*
X01431Y00412D02*
Y00487D01*
X01568Y00412D02*
Y00487D01*
X01431Y00412D02*
X01568D01*
X01431Y00487D02*
X01568D01*
X00746Y01255D02*
Y01334D01*
X00883Y01255D02*
Y01334D01*
X00746Y01255D02*
X00883D01*
X00746Y01334D02*
X00883D01*
X00874Y01492D02*
Y01697D01*
X00615Y01492D02*
X00874D01*
X00615D02*
Y01697D01*
X00874*
X01197Y01492D02*
Y01697D01*
X00937Y01492D02*
X01197D01*
X00937D02*
Y01697D01*
X01197*
X01519Y01492D02*
Y01697D01*
X0126Y01492D02*
X01519D01*
X0126D02*
Y01697D01*
X01519*
X00691Y00423D02*
Y00676D01*
Y00423D02*
X01048D01*
X00691Y00676D02*
X01048D01*
Y00423D02*
Y00676D01*
X01439Y01536D02*
Y01673D01*
X0136Y01536D02*
Y01673D01*
Y01536D02*
X01439D01*
X0136Y01673D02*
X01439D01*
X01109Y01536D02*
Y01673D01*
X0103Y01536D02*
Y01673D01*
Y01536D02*
X01109D01*
X0103Y01673D02*
X01109D01*
X00784Y01536D02*
Y01673D01*
X00705Y01536D02*
Y01673D01*
Y01536D02*
X00784D01*
X00705Y01673D02*
X00784D01*
X01569Y0201D02*
Y02148D01*
X0149Y0201D02*
Y02148D01*
Y0201D02*
X01569D01*
X0149Y02148D02*
X01569D01*
X0098Y00046D02*
Y00183D01*
X01059Y00046D02*
Y00183D01*
X0098D02*
X01059D01*
X0098Y00046D02*
X01059D01*
X0144Y00171D02*
Y00308D01*
X01519Y00171D02*
Y00308D01*
X0144D02*
X01519D01*
X0144Y00171D02*
X01519D01*
X01821Y01176D02*
Y01313D01*
X01878*
X01821Y01176D02*
X01878D01*
Y01313*
X01368Y00952D02*
Y01027D01*
X01231Y00952D02*
Y01027D01*
X01368*
X01231Y00952D02*
X01368D01*
X00547Y00541D02*
X00622D01*
X00547Y00678D02*
X00622D01*
Y00541D02*
Y00678D01*
X00547Y00541D02*
Y00678D01*
X00382Y00536D02*
X00457D01*
X00382Y00673D02*
X00457D01*
Y00536D02*
Y00673D01*
X00382Y00536D02*
Y00673D01*
X01307Y00221D02*
Y00358D01*
X01382Y00221D02*
Y00358D01*
X01307D02*
X01382D01*
X01307Y00221D02*
X01382D01*
X00441Y01025D02*
X0082Y01403D01*
X01198Y01025*
X0082Y00646D02*
X01198Y01025D01*
X00441D02*
X0082Y00646D01*
X01828Y01012D02*
X01966D01*
X01828Y00937D02*
X01966D01*
Y01012*
X01828Y00937D02*
Y01012D01*
X00771Y00637D02*
X00908D01*
X00771Y00712D02*
X00908D01*
X00771Y00637D02*
Y00712D01*
X00908Y00637D02*
Y00712D01*
X00771Y00552D02*
X00908D01*
X00771Y00627D02*
X00908D01*
X00771Y00552D02*
Y00627D01*
X00908Y00552D02*
Y00627D01*
X00771Y00472D02*
X00908D01*
X00771Y00547D02*
X00908D01*
X00771Y00472D02*
Y00547D01*
X00908Y00472D02*
Y00547D01*
X00771Y00387D02*
X00908D01*
X00771Y00462D02*
X00908D01*
X00771Y00387D02*
Y00462D01*
X00908Y00387D02*
Y00462D01*
X01581Y00077D02*
X01718D01*
X01581Y00152D02*
X01718D01*
X01581Y00077D02*
Y00152D01*
X01718Y00077D02*
Y00152D01*
X00027Y0048D02*
X00165D01*
X00027Y00405D02*
X00165D01*
Y0048*
X00027Y00405D02*
Y0048D01*
Y0061D02*
X00165D01*
X00027Y00535D02*
X00165D01*
Y0061*
X00027Y00535D02*
Y0061D01*
X00022Y00747D02*
X0016D01*
X00022Y00672D02*
X0016D01*
Y00747*
X00022Y00672D02*
Y00747D01*
Y00875D02*
X0016D01*
X00022Y008D02*
X0016D01*
Y00875*
X00022Y008D02*
Y00875D01*
X00883Y01155D02*
Y01234D01*
X00746Y01155D02*
Y01234D01*
X00883*
X00746Y01155D02*
X00883D01*
Y01055D02*
Y01134D01*
X00746Y01055D02*
Y01134D01*
X00883*
X00746Y01055D02*
X00883D01*
Y00955D02*
Y01034D01*
X00746Y00955D02*
Y01034D01*
X00883*
X00746Y00955D02*
X00883D01*
Y00855D02*
Y00934D01*
X00746Y00855D02*
Y00934D01*
X00883*
X00746Y00855D02*
X00883D01*
X01465Y01798D02*
X01614D01*
Y01741D02*
Y01798D01*
X01465Y01741D02*
Y01798D01*
Y01741D02*
X01614D01*
X01574Y00143D02*
X01724D01*
Y00086D02*
Y00143D01*
X01574Y00086D02*
Y00143D01*
Y00086D02*
X01724D01*
X00029Y00814D02*
X00167D01*
X00029D02*
Y00871D01*
X00167Y00814D02*
Y00871D01*
X00029D02*
X00167D01*
X00029Y00681D02*
X00167D01*
X00029D02*
Y00738D01*
X00167Y00681D02*
Y00738D01*
X00029D02*
X00167D01*
X00031Y00541D02*
X00168D01*
X00031D02*
Y00598D01*
X00168Y00541D02*
Y00598D01*
X00031D02*
X00168D01*
X00283Y02908D02*
X01116D01*
X00283Y02691D02*
Y02908D01*
Y02691D02*
X01116D01*
Y02908*
X01706Y01977D02*
X01843D01*
X01706Y02052D02*
X01843D01*
Y01977D02*
Y02052D01*
X01706Y01977D02*
Y02052D01*
M02*